<svg width="57" height="57" viewBox="0 0 57 57" fill="none" xmlns="http://www.w3.org/2000/svg">
<g clip-path="url(#clip0_55_9290)">
<path d="M28.2403 12.6205C25.8263 13.5823 23.4851 14.718 21.2353 16.0185C18.9803 17.3164 16.8244 18.7793 14.7853 20.3955C14.0533 25.5342 14.0533 30.7507 14.7853 35.8895C16.8244 37.5056 18.9803 38.9687 21.2353 40.2665C23.4833 41.5676 25.8229 42.7039 28.2353 43.6665C30.6477 42.7038 32.9872 41.5675 35.2354 40.2665C37.4904 38.9686 39.6463 37.5056 41.6853 35.8895C42.053 33.3236 42.2369 30.7347 42.2353 28.1425C42.2371 25.5504 42.0537 22.9614 41.6863 20.3956C39.6469 18.7793 37.4907 17.3163 35.2353 16.0185C32.9888 14.7183 30.651 13.5827 28.2403 12.6205ZM28.6203 35.0655C28.3755 35.1676 28.1002 35.1683 27.8548 35.0675C27.6096 34.9666 27.4143 34.7723 27.3122 34.5275L25.9023 31.1426H20.5683L19.1583 34.5275C19.0207 34.8573 18.7177 35.0886 18.3633 35.1343C18.009 35.1801 17.6571 35.0334 17.4403 34.7493C17.2235 34.4653 17.1747 34.0872 17.3123 33.7575L22.3123 21.7575C22.4676 21.385 22.8317 21.1423 23.2353 21.1423C23.639 21.1423 24.003 21.385 24.1583 21.7575L29.1584 33.7575C29.2604 34.0023 29.2612 34.2776 29.1603 34.5229C29.0594 34.7683 28.8651 34.9634 28.6203 35.0655ZM38.2353 22.1425C38.2353 22.6948 37.7876 23.1426 37.2353 23.1426H35.2353V33.1425H37.2353C37.7875 33.1425 38.2353 33.5902 38.2353 34.1426C38.2353 34.6949 37.7876 35.1426 37.2353 35.1426H31.2353C30.683 35.1426 30.2352 34.6949 30.2352 34.1426C30.2352 33.5902 30.6829 33.1425 31.2353 33.1425H33.2353V23.1425H31.2353C30.683 23.1425 30.2352 22.6948 30.2352 22.1424C30.2352 21.5902 30.6829 21.1424 31.2353 21.1424H37.2353C37.7876 21.1425 38.2353 21.5902 38.2353 22.1425Z" fill="#274DA1"/>
<path fill-rule="evenodd" clip-rule="evenodd" d="M36.2359 14.2855C37.941 15.2695 39.5927 16.3433 41.1839 17.5025C40.6599 14.8825 39.8705 12.3227 38.8278 9.86255C36.1683 10.1817 33.5483 10.7705 31.0078 11.6196C32.7943 12.4196 34.5393 13.3094 36.2359 14.2855Z" fill="#274DA1"/>
<path fill-rule="evenodd" clip-rule="evenodd" d="M37.9217 7.95358C35.4047 3.12161 31.9917 0.142578 28.2357 0.142578C24.4797 0.142578 21.0677 3.12161 18.5508 7.95358C21.8664 8.42292 25.1175 9.26974 28.2408 10.4776C31.3612 9.27066 34.6092 8.42384 37.9217 7.95358Z" fill="#274DA1"/>
<path fill-rule="evenodd" clip-rule="evenodd" d="M21.4023 29.1425H25.0683L23.2353 24.7426L21.4023 29.1425Z" fill="#274DA1"/>
<path fill-rule="evenodd" clip-rule="evenodd" d="M50.5355 26.3985C52.2238 23.9472 53.2279 21.0901 53.4445 18.1215C53.3734 18.1215 53.3064 18.1425 53.2345 18.1425C51.0253 18.1425 49.2345 16.3517 49.2345 14.1425C49.2383 13.2482 49.5445 12.3816 50.1035 11.6835C47.9276 10.2425 44.7466 9.56253 40.9355 9.70654C42.1756 12.8039 43.0545 16.0339 43.5545 19.3325C46.1422 21.4151 48.4844 23.7856 50.5355 26.3985Z" fill="#274DA1"/>
<path fill-rule="evenodd" clip-rule="evenodd" d="M3.23537 18.1427C3.16341 18.1427 3.09634 18.1247 3.02539 18.1217C3.24191 21.0901 4.24638 23.947 5.93541 26.3977C7.9858 23.7856 10.3269 21.4153 12.9134 19.3327C13.4148 16.034 14.2946 12.8041 15.5354 9.70675C11.7264 9.56477 8.54746 10.2468 6.37038 11.6837C6.9279 12.3823 7.23278 13.2489 7.23535 14.1427C7.23535 16.3518 5.44451 18.1427 3.23537 18.1427Z" fill="#274DA1"/>
<path d="M53.2353 16.1424C54.3399 16.1424 55.2353 15.247 55.2353 14.1424C55.2353 13.0379 54.3399 12.1425 53.2353 12.1425C52.1308 12.1425 51.2354 13.0379 51.2354 14.1424C51.2354 15.247 52.1308 16.1424 53.2353 16.1424Z" fill="#274DA1"/>
<path fill-rule="evenodd" clip-rule="evenodd" d="M49.3425 28.1426C47.7437 26.0139 45.9346 24.0517 43.9425 22.2856C44.139 24.2317 44.2367 26.1866 44.2355 28.1426C44.2344 30.0988 44.1343 32.0536 43.9355 33.9996C45.9301 32.2338 47.7416 30.2716 49.3425 28.1426Z" fill="#274DA1"/>
<path fill-rule="evenodd" clip-rule="evenodd" d="M20.2351 14.2855C21.9339 13.3082 23.6814 12.4184 25.4711 11.6195C22.928 10.77 20.3052 10.1813 17.6431 9.86243C16.6005 12.3225 15.8111 14.8824 15.2871 17.5024C16.8783 16.3434 18.53 15.2696 20.2351 14.2855Z" fill="#274DA1"/>
<path fill-rule="evenodd" clip-rule="evenodd" d="M36.235 41.9995C34.5362 42.9768 32.7887 43.8666 30.999 44.6656C33.5421 45.5151 36.1649 46.1037 38.827 46.4226C39.8696 43.9625 40.659 41.4027 41.183 38.7826C39.5917 39.9417 37.9401 41.0155 36.235 41.9995Z" fill="#274DA1"/>
<path fill-rule="evenodd" clip-rule="evenodd" d="M53.2346 38.1425C53.3066 38.1425 53.3736 38.1594 53.4446 38.1635C53.2275 35.1949 52.2231 32.3378 50.5346 29.8865C48.4845 32.4992 46.1434 34.8698 43.5566 36.9525C43.0552 40.2512 42.1754 43.4811 40.9346 46.5785C44.7425 46.7214 47.9216 46.0384 50.0996 44.6015C49.5421 43.9029 49.2372 43.0363 49.2346 42.1425C49.2346 39.9333 51.0255 38.1425 53.2346 38.1425Z" fill="#274DA1"/>
<path fill-rule="evenodd" clip-rule="evenodd" d="M18.5498 48.3316C21.0668 53.1636 24.4798 56.1426 28.2358 56.1426C31.9918 56.1426 35.4038 53.1636 37.9207 48.3316C34.6068 47.8619 31.3574 47.0151 28.2358 45.8076C25.1137 47.0149 21.864 47.8617 18.5498 48.3316Z" fill="#274DA1"/>
<path d="M53.2353 44.1424C54.3399 44.1424 55.2353 43.247 55.2353 42.1424C55.2353 41.0379 54.3399 40.1425 53.2353 40.1425C52.1308 40.1425 51.2354 41.0379 51.2354 42.1424C51.2354 43.247 52.1308 44.1424 53.2353 44.1424Z" fill="#274DA1"/>
<path d="M3.23534 44.1424C4.33991 44.1424 5.23534 43.247 5.23534 42.1424C5.23534 41.0379 4.33991 40.1425 3.23534 40.1425C2.13078 40.1425 1.23535 41.0379 1.23535 42.1424C1.23535 43.247 2.13078 44.1424 3.23534 44.1424Z" fill="#274DA1"/>
<path fill-rule="evenodd" clip-rule="evenodd" d="M7.12793 28.1426C8.72612 30.2718 10.5353 32.2341 12.5279 33.9996C12.1346 30.1048 12.1346 26.1804 12.5279 22.2856C10.5359 24.0517 8.72676 26.0139 7.12793 28.1426Z" fill="#274DA1"/>
<path fill-rule="evenodd" clip-rule="evenodd" d="M5.93541 29.8876C4.24674 32.3384 3.24219 35.1952 3.02539 38.1636C3.09643 38.1636 3.16341 38.1426 3.23537 38.1426C5.44451 38.1426 7.23535 39.9334 7.23535 42.1426C7.23158 43.0368 6.92532 43.9035 6.36633 44.6016C8.54433 46.0386 11.7253 46.7236 15.5314 46.5796C14.2914 43.4819 13.4126 40.2515 12.9124 36.9526C10.3265 34.8696 7.9858 32.4994 5.93541 29.8876Z" fill="#274DA1"/>
<path d="M3.23534 16.1424C4.33991 16.1424 5.23534 15.247 5.23534 14.1424C5.23534 13.0379 4.33991 12.1425 3.23534 12.1425C2.13078 12.1425 1.23535 13.0379 1.23535 14.1424C1.23535 15.247 2.13078 16.1424 3.23534 16.1424Z" fill="#274DA1"/>
<path fill-rule="evenodd" clip-rule="evenodd" d="M20.2351 41.9995C18.5299 41.0156 16.8783 39.9417 15.2871 38.7825C15.8111 41.4025 16.6005 43.9623 17.6431 46.4225C20.3026 46.1033 22.9227 45.5146 25.4631 44.6654C23.6765 43.8655 21.9317 42.9758 20.2351 41.9995Z" fill="#274DA1"/>
</g>
<defs>
<clipPath id="clip0_55_9290">
<rect width="56" height="56" fill="white" transform="translate(0.235352 0.142578)"/>
</clipPath>
</defs>
</svg>
