<svg width="49" height="49" viewBox="0 0 49 49" fill="none" xmlns="http://www.w3.org/2000/svg">
<path d="M22.8323 12.4556L22.0501 10.566L22.8186 8.47948L20.9863 6.65004L18.9026 7.41851L17.0102 6.63364L16.0777 4.61548H13.4907L12.5582 6.63364L10.6686 7.41851L8.58209 6.65004L6.75266 8.47948L7.52112 10.566L6.73625 12.4556L4.71809 13.3881V15.9779L6.73625 16.9077L7.52112 18.8L6.75266 20.8865L8.58209 22.716L10.6686 21.9475L12.5582 22.7297L13.4907 24.7478H16.0777L17.0102 22.7297L18.9026 21.9475L20.9863 22.716L22.8186 20.8865L22.0501 18.8L22.8323 16.9077L24.8504 15.9779V13.3881L22.8323 12.4556ZM14.7841 18.8711C12.4707 18.8711 10.5973 16.9952 10.5973 14.6816C10.5973 12.368 12.4706 10.4948 14.7841 10.4948C17.0977 10.4948 18.9709 12.3708 18.9709 14.6816C18.9709 16.9924 17.0977 18.8711 14.7841 18.8711ZM43.0331 23.7634V21.8819H38.6116C38.8631 20.4897 38.9088 19.1494 38.7521 17.8784H43.033V15.9969L47.8788 19.8801L43.033 23.7634H43.0331ZM11.0565 31.7212H6.22466V33.6027L1.37891 29.7195L6.22466 25.8363V27.7177H9.11647C9.632 28.9588 10.2536 30.1649 10.8652 31.3501C10.9299 31.4754 10.9932 31.5981 11.0565 31.7212ZM37.5802 31.724C37.5283 31.9536 37.6622 32.372 38.0588 33.2253C38.4033 33.9664 37.4325 34.516 37.1755 34.8169C36.902 35.145 38.3131 35.2517 37.3696 35.9463C36.0625 36.9062 36.1692 37.7293 36.1773 38.7603C36.1856 40.3409 36.0515 41.3144 34.2794 41.3527C32.7586 41.3857 30.4751 40.854 28.3857 39.9741L28.3889 39.9772C26.9599 39.3494 25.6587 38.5639 24.8438 37.7166C24.2403 37.0894 23.9513 36.4901 23.9849 35.9355C24.0068 35.5737 23.7313 35.2627 23.3696 35.2408C23.0063 35.2189 22.6968 35.4945 22.6749 35.8562C22.6182 36.7919 23.0297 37.724 23.8979 38.6266C24.8982 39.6663 26.4445 40.5899 28.1125 41.2968C28.0408 42.0316 28.0241 42.8584 27.924 43.5405H12.312C13.25 40.9371 14.6173 36.6929 13.0996 32.8753C11.7552 30.0356 9.81209 26.9909 9.32844 23.8399L10.6407 23.3567L11.582 23.7463L12.6513 26.0605H16.9171L17.9862 23.7466L18.9298 23.3566L21.3199 24.2379L24.3407 21.2216L23.459 18.8276L23.8488 17.8845L26.163 16.8183V12.5488L23.8487 11.4794L23.4591 10.538L24.2971 8.26273C32.2841 8.62329 39.6376 13.747 36.9814 23.107C36.3989 25.1662 37.3944 26.7222 38.7097 28.1497C41.7916 31.4997 37.6951 31.2125 37.5803 31.724H37.5802Z" fill="#274DA1"/>
</svg>
