<svg width="49" height="49" viewBox="0 0 49 49" fill="none" xmlns="http://www.w3.org/2000/svg">
<path d="M42.3978 21.7624L40.6286 20.8783C40.6286 12.0405 33.4646 4.87793 24.6287 4.87793C15.7919 4.87793 8.62839 12.0405 8.62839 20.8783L6.86007 21.7624C6.07287 22.156 5.42871 23.1986 5.42871 24.0779V27.2781C5.42871 28.1574 6.07287 29.2 6.86007 29.5936L8.62839 30.4778H11.0284V20.8783C11.0284 13.3783 17.1297 7.27793 24.6287 7.27793C32.1273 7.27793 38.2286 13.3783 38.2286 20.8783V33.6779C38.2286 37.6543 35.0054 40.8779 31.0286 40.8779H26.2286V38.4779H23.0284V43.2779H31.0286C36.3302 43.2779 40.6286 38.9795 40.6286 33.6779V30.4778L42.3978 29.5936C43.185 29.2 43.8287 28.1574 43.8287 27.2781V24.0779C43.8287 23.1986 43.185 22.156 42.3978 21.7624Z" fill="#274DA1"/>
<path d="M31.0289 16.878H25.829V13.4777C26.7727 13.1561 27.4289 12.4745 27.4289 11.6777C27.4289 10.5732 26.1761 9.67798 24.629 9.67798C23.082 9.67798 21.8287 10.5732 21.8287 11.6777C21.8287 12.4745 22.4849 13.158 23.429 13.4777V16.878H18.2287C15.5791 16.878 13.4287 19.0279 13.4287 21.678V28.0778C13.4287 32.4933 17.0138 36.078 21.4294 36.078H27.8292C32.2447 36.078 35.8289 32.4933 35.8289 28.0778V21.678C35.8289 19.0279 33.679 16.878 31.0289 16.878ZM19.0294 24.8781V23.2783C19.0294 22.3932 19.7465 21.678 20.6287 21.678C21.5119 21.678 22.229 22.3932 22.229 23.2783V24.8781C22.229 25.7642 21.5119 26.478 20.6287 26.478C19.7465 26.478 19.0294 25.7642 19.0294 24.8781ZM28.6289 31.278L25.4292 32.0781H23.8294L20.6287 31.278V29.6781H28.6289V31.278ZM30.2292 24.8781C30.2292 25.7642 29.5121 26.478 28.6289 26.478C27.7462 26.478 27.029 25.7642 27.029 24.8781V23.2783C27.029 22.3932 27.7462 21.678 28.6289 21.678C29.5121 21.678 30.2292 22.3932 30.2292 23.2783V24.8781Z" fill="#274DA1"/>
</svg>
