<svg width="49" height="49" viewBox="0 0 49 49" fill="none" xmlns="http://www.w3.org/2000/svg">
<g clip-path="url(#clip0_54_9185)">
<path d="M25.4293 9.67744V3.85504C25.9053 3.57744 26.2293 3.06704 26.2293 2.47744C26.2293 1.59504 25.5117 0.877441 24.6293 0.877441C23.7469 0.877441 23.0293 1.59504 23.0293 2.47744C23.0293 3.06704 23.3533 3.57744 23.8293 3.85504V9.67744H25.4293Z" fill="#274DA1"/>
<path d="M19.8287 19.7803L18.6943 24.8779H20.9631L19.8287 19.7803Z" fill="#274DA1"/>
<path d="M39.0287 43.2775C38.4391 43.2775 37.9287 43.6015 37.6511 44.0775H35.0287V38.4775H33.4287V44.0775C33.4287 44.9575 34.1487 45.6775 35.0287 45.6775H37.6511C37.9287 46.1535 38.4391 46.4775 39.0287 46.4775C39.9111 46.4775 40.6287 45.7599 40.6287 44.8775C40.6287 43.9951 39.9111 43.2775 39.0287 43.2775Z" fill="#274DA1"/>
<path d="M11.8291 12.8778V35.2778C11.8291 36.1602 12.5467 36.8778 13.4291 36.8778H35.8291C36.7115 36.8778 37.4291 36.1602 37.4291 35.2778V12.8778C37.4291 11.9954 36.7115 11.2778 35.8291 11.2778H13.4291C12.5467 11.2778 11.8291 11.9954 11.8291 12.8778ZM26.2291 18.4778C25.7867 18.4778 25.4291 18.1202 25.4291 17.6778C25.4291 17.2354 25.7867 16.8778 26.2291 16.8778H31.0291C31.4715 16.8778 31.8291 17.2354 31.8291 17.6778C31.8291 18.1202 31.4715 18.4778 31.0291 18.4778H29.4291V29.6778H31.0291C31.4715 29.6778 31.8291 30.0354 31.8291 30.4778C31.8291 30.9202 31.4715 31.2778 31.0291 31.2778H26.2291C25.7867 31.2778 25.4291 30.9202 25.4291 30.4778C25.4291 30.0354 25.7867 29.6778 26.2291 29.6778H27.8291V18.4778H26.2291ZM15.8475 30.3042L18.6195 17.8474C18.7475 17.2762 19.2443 16.8778 19.8291 16.8778C20.4139 16.8778 20.9107 17.2762 21.0379 17.8458L23.8107 30.3042C23.9059 30.7354 23.6339 31.1626 23.2027 31.2586C23.1451 31.2714 23.0859 31.277 23.0283 31.277C22.6619 31.277 22.3315 31.0242 22.2475 30.6506L21.3187 26.477H18.3387L17.4099 30.6506C17.3131 31.0834 16.8803 31.353 16.4555 31.2586C16.0243 31.1626 15.7523 30.7354 15.8475 30.3042Z" fill="#274DA1"/>
<path d="M46.2293 37.0998V34.4774C46.2293 33.5974 45.5093 32.8774 44.6293 32.8774H39.0293V34.4774H44.6293V37.0998C44.1533 37.3774 43.8293 37.8878 43.8293 38.4774C43.8293 39.3598 44.5469 40.0774 45.4293 40.0774C46.3117 40.0774 47.0293 39.3598 47.0293 38.4774C47.0293 37.8878 46.7053 37.3774 46.2293 37.0998Z" fill="#274DA1"/>
<path d="M23.8293 38.4775V44.2999C23.3533 44.5775 23.0293 45.0879 23.0293 45.6775C23.0293 46.5599 23.7469 47.2775 24.6293 47.2775C25.5117 47.2775 26.2293 46.5599 26.2293 45.6775C26.2293 45.0879 25.9053 44.5775 25.4293 44.2999V38.4775H23.8293Z" fill="#274DA1"/>
<path d="M8.62891 3.27773C8.62891 4.16013 9.34651 4.87773 10.2289 4.87773C10.8185 4.87773 11.3289 4.55373 11.6065 4.07773H14.2289V9.67773H15.8289V4.07773C15.8289 3.19773 15.1089 2.47773 14.2289 2.47773H11.6065C11.3289 2.00173 10.8185 1.67773 10.2289 1.67773C9.34651 1.67773 8.62891 2.39533 8.62891 3.27773Z" fill="#274DA1"/>
<path d="M3.02852 34.4774V37.0998C2.55252 37.3774 2.22852 37.8878 2.22852 38.4774C2.22852 39.3598 2.94612 40.0774 3.82852 40.0774C4.71092 40.0774 5.42852 39.3598 5.42852 38.4774C5.42852 37.8878 5.10452 37.3774 4.62852 37.0998V34.4774H10.2285V32.8774H4.62852C3.74852 32.8774 3.02852 33.5974 3.02852 34.4774Z" fill="#274DA1"/>
<path d="M3.02871 25.6775C3.61831 25.6775 4.12871 25.3535 4.40631 24.8775H10.2287V23.2775H4.40631C4.12871 22.8015 3.61831 22.4775 3.02871 22.4775C2.14631 22.4775 1.42871 23.1951 1.42871 24.0775C1.42871 24.9599 2.14631 25.6775 3.02871 25.6775Z" fill="#274DA1"/>
<path d="M44.8517 23.2775H39.0293V24.8775H44.8517C45.1293 25.3535 45.6397 25.6775 46.2293 25.6775C47.1117 25.6775 47.8293 24.9599 47.8293 24.0775C47.8293 23.1951 47.1117 22.4775 46.2293 22.4775C45.6397 22.4775 45.1293 22.8015 44.8517 23.2775Z" fill="#274DA1"/>
<path d="M3.02852 11.0552V13.6776C3.02852 14.5576 3.74852 15.2776 4.62852 15.2776H10.2285V13.6776H4.62852V11.0552C5.10452 10.7776 5.42852 10.2672 5.42852 9.67764C5.42852 8.79524 4.71092 8.07764 3.82852 8.07764C2.94612 8.07764 2.22852 8.79524 2.22852 9.67764C2.22852 10.2672 2.55252 10.7776 3.02852 11.0552Z" fill="#274DA1"/>
<path d="M44.6293 11.0552V13.6776H39.0293V15.2776H44.6293C45.5093 15.2776 46.2293 14.5576 46.2293 13.6776V11.0552C46.7053 10.7776 47.0293 10.2672 47.0293 9.67764C47.0293 8.79524 46.3117 8.07764 45.4293 8.07764C44.5469 8.07764 43.8293 8.79524 43.8293 9.67764C43.8293 10.2672 44.1533 10.7776 44.6293 11.0552Z" fill="#274DA1"/>
<path d="M4.62891 19.2775C4.62891 19.7175 4.98891 20.0775 5.42891 20.0775H10.2289V18.4775H5.42891C4.98891 18.4775 4.62891 18.8375 4.62891 19.2775Z" fill="#274DA1"/>
<path d="M4.62891 28.8776C4.62891 29.3176 4.98891 29.6776 5.42891 29.6776H10.2289V28.0776H5.42891C4.98891 28.0776 4.62891 28.4376 4.62891 28.8776Z" fill="#274DA1"/>
<path d="M8.62891 44.8775C8.62891 45.7599 9.34651 46.4775 10.2289 46.4775C10.8185 46.4775 11.3289 46.1535 11.6065 45.6775H14.2289C15.1089 45.6775 15.8289 44.9575 15.8289 44.0775V38.4775H14.2289V44.0775H11.6065C11.3289 43.6015 10.8185 43.2775 10.2289 43.2775C9.34651 43.2775 8.62891 43.9951 8.62891 44.8775Z" fill="#274DA1"/>
<path d="M19.8293 44.0775C20.2693 44.0775 20.6293 43.7175 20.6293 43.2775V38.4775H19.0293V43.2775C19.0293 43.7175 19.3893 44.0775 19.8293 44.0775Z" fill="#274DA1"/>
<path d="M29.4289 44.0775C29.8689 44.0775 30.2289 43.7175 30.2289 43.2775V38.4775H28.6289V43.2775C28.6289 43.7175 28.9889 44.0775 29.4289 44.0775Z" fill="#274DA1"/>
<path d="M44.6293 28.8776C44.6293 28.4376 44.2693 28.0776 43.8293 28.0776H39.0293V29.6776H43.8293C44.2693 29.6776 44.6293 29.3176 44.6293 28.8776Z" fill="#274DA1"/>
<path d="M44.6293 19.2775C44.6293 18.8375 44.2693 18.4775 43.8293 18.4775H39.0293V20.0775H43.8293C44.2693 20.0775 44.6293 19.7175 44.6293 19.2775Z" fill="#274DA1"/>
<path d="M40.6287 3.27773C40.6287 2.39533 39.9111 1.67773 39.0287 1.67773C38.4391 1.67773 37.9287 2.00173 37.6511 2.47773H35.0287C34.1487 2.47773 33.4287 3.19773 33.4287 4.07773V9.67773H35.0287V4.07773H37.6511C37.9287 4.55373 38.4391 4.87773 39.0287 4.87773C39.9111 4.87773 40.6287 4.16013 40.6287 3.27773Z" fill="#274DA1"/>
<path d="M28.6289 4.87764V9.67764H30.2289V4.87764C30.2289 4.43764 29.8689 4.07764 29.4289 4.07764C28.9889 4.07764 28.6289 4.43764 28.6289 4.87764Z" fill="#274DA1"/>
<path d="M19.0293 4.87764V9.67764H20.6293V4.87764C20.6293 4.43764 20.2693 4.07764 19.8293 4.07764C19.3893 4.07764 19.0293 4.43764 19.0293 4.87764Z" fill="#274DA1"/>
</g>
<defs>
<clipPath id="clip0_54_9185">
<rect width="48" height="48" fill="white" transform="translate(0.628906 0.0776367)"/>
</clipPath>
</defs>
</svg>
