<svg width="217" height="85" viewBox="0 0 217 85" fill="none" xmlns="http://www.w3.org/2000/svg">
<g clip-path="url(#clip0_339_174)">
<g clip-path="url(#clip1_339_174)">
<g clip-path="url(#clip2_339_174)">
<path d="M101.781 51.0651C105.858 51.0651 109.198 47.8035 109.198 43.2005C109.198 39.071 105.884 35.7831 101.859 35.7831C97.6248 35.7831 94.2843 39.071 94.2843 43.2005C94.2843 47.6457 97.8614 51.0651 101.781 51.0651ZM91.4435 32.916C94.258 30.1805 97.7563 28.7865 101.807 28.7865C105.621 28.7865 109.224 30.2594 111.986 32.9423C114.879 35.7568 116.379 39.3865 116.379 43.2268C116.379 47.2775 114.932 50.881 112.249 53.6165C109.487 56.4835 105.726 58.0354 101.754 58.0354C97.5459 58.0354 93.9424 56.5361 91.1542 53.5902C88.4713 50.7757 87.1035 47.2775 87.1035 43.1216C87.1299 39.2287 88.6554 35.6515 91.4435 32.916ZM119.877 57.3515H126.137V28.7865H119.877V57.3515ZM141.525 51.7227C144.26 51.7227 146.522 49.5132 146.522 46.5936C146.522 43.5687 144.234 41.2804 141.288 41.2804C138.289 41.2804 135.948 43.6739 135.948 46.5147C135.948 49.4606 138.262 51.7227 141.525 51.7227ZM146.496 54.879C144.602 56.6939 142.682 57.3515 140.131 57.3515C137.526 57.3515 135.291 56.5361 133.396 54.879C130.924 52.7222 129.636 49.8815 129.636 46.5672C129.636 43.5425 130.846 40.8069 133.081 38.6764C135.08 36.7563 137.526 35.7568 140.262 35.7568C142.866 35.7568 144.865 36.6247 146.311 38.4397V36.0724H152.651V57.2463H146.522V54.879H146.496ZM156.254 57.2989V35.8093H161.936V38.7027C163.251 36.4932 165.171 35.4148 167.749 35.4148C170.327 35.4148 172.273 36.5458 173.667 38.8605C175.902 36.4932 177.612 35.4148 180.269 35.4148C185.082 35.4148 187.791 38.124 187.791 43.1216V57.2726H181.662V45.6467C181.662 42.6482 181.032 41.2804 178.691 41.2804C176.297 41.2804 175.034 42.7533 175.034 45.6467V57.2726H168.879V45.6467C168.879 42.6482 168.248 41.2804 165.907 41.2804C163.514 41.2804 162.251 42.7533 162.251 45.6467V57.2726H156.254" fill="white"/>
<path d="M78.162 41.5179C64.8526 41.5179 54.0684 52.3548 54.0684 65.7167C67.3777 65.7167 78.162 54.8799 78.162 41.5179Z" fill="white"/>
<path d="M30.002 41.5179C30.002 54.8799 40.7862 65.7167 54.0955 65.7167C54.0955 52.3548 43.3113 41.5179 30.002 41.5179Z" fill="white"/>
<path d="M53.7017 61.5354C53.7017 48.4891 63.9072 35.8637 76.6905 35.285C75.7962 32.1549 74.2969 29.2353 72.2716 26.7102C61.6452 30.5242 53.7017 45.0434 53.7017 56.5378C53.7017 45.0434 45.7582 30.5242 35.1318 26.7102C33.1065 29.2353 31.5809 32.1549 30.7129 35.285C43.4698 35.8637 53.7017 48.4891 53.7017 61.5354Z" fill="white"/>
<path d="M53.6989 51.092C53.6989 41.9648 58.7754 28.5503 66.2454 21.2381C62.4841 18.8971 58.1441 17.6609 53.6989 17.6609C49.2537 17.6609 44.9137 18.8971 41.1523 21.2381C48.6225 28.5503 53.6989 41.9385 53.6989 51.092Z" fill="white"/>
</g>
</g>
</g>
<defs>
<clipPath id="clip0_339_174">
<rect width="158.15" height="48.249" fill="white" transform="translate(29.7246 17.6609)"/>
</clipPath>
<clipPath id="clip1_339_174">
<rect width="158.15" height="48.249" fill="white" transform="translate(29.7246 17.6609)"/>
</clipPath>
<clipPath id="clip2_339_174">
<rect width="158.15" height="48.249" fill="white" transform="translate(29.7246 17.6609)"/>
</clipPath>
</defs>
</svg>
