<svg width="216" height="85" viewBox="0 0 216 85" fill="none" xmlns="http://www.w3.org/2000/svg">
<g clip-path="url(#clip0_339_152)">
<g clip-path="url(#clip1_339_152)">
<path fill-rule="evenodd" clip-rule="evenodd" d="M41.426 53.8321V58.0106C41.426 58.1392 41.426 58.2677 41.426 58.3963C41.426 58.3963 41.426 58.4178 41.426 58.4606C41.426 58.4606 41.4046 58.482 41.3617 58.5249C41.3617 58.5677 41.3403 58.5892 41.2975 58.5892C41.2546 58.632 41.1903 58.6749 41.1046 58.7177C39.9904 59.3178 38.8761 59.9177 37.7618 60.5177C37.4404 60.7106 37.5046 60.7106 37.1832 60.5177C36.0261 59.8749 34.8904 59.232 33.7761 58.5892C33.6904 58.5463 33.6261 58.5034 33.5833 58.4606C33.5833 58.4606 33.5619 58.4392 33.519 58.3963C33.519 58.3963 33.519 58.3748 33.519 58.332C33.519 58.2035 33.519 58.0749 33.519 57.9463C33.4761 54.3892 33.4547 50.8536 33.4547 47.3393C33.4547 40.4394 33.4547 33.5609 33.4547 26.7039C33.4547 26.061 33.3904 26.1896 33.9047 25.8682C34.9332 25.2682 35.9833 24.6468 37.0547 24.0039C37.1404 23.9611 37.2261 23.9182 37.3118 23.8754C37.3118 23.8754 37.3332 23.8754 37.3761 23.8754C37.419 23.8754 37.4404 23.8754 37.4404 23.8754C37.4404 23.8754 37.4618 23.8754 37.5046 23.8754C37.5904 23.9182 37.6975 23.9825 37.8261 24.0682L42.9689 27.0253C45.9688 28.7824 48.9688 30.5396 51.9687 32.2966C52.1401 32.3824 52.3116 32.4895 52.483 32.6181C52.9973 32.961 53.2759 33.4538 53.3188 34.0966C53.3188 34.1824 53.3188 34.2895 53.3188 34.4181C53.3188 35.661 53.3188 36.8823 53.3188 38.0823C53.3188 38.5323 53.2544 38.5965 53.7044 38.4037C53.9616 38.2752 54.2188 38.1466 54.4759 38.018C54.7759 37.9323 55.0544 37.8466 55.3116 37.7609C55.5687 37.6751 55.8472 37.6109 56.1473 37.568C56.4044 37.4823 56.683 37.418 56.983 37.3752C57.1973 37.3752 57.4115 37.3538 57.6258 37.3109C57.8401 37.3109 58.0543 37.2894 58.2687 37.2466C58.483 37.2466 58.6972 37.2466 58.9115 37.2466C59.1258 37.2466 59.3615 37.2466 59.6187 37.2466C61.3543 37.3752 63.0901 37.8251 64.6329 38.6609C66.1114 39.4965 67.3329 40.5894 68.1685 42.0679C68.3399 42.2822 68.49 42.518 68.6186 42.7751C68.7471 43.0322 68.8542 43.2894 68.9399 43.5465C69.0257 43.8037 69.1113 44.0822 69.1971 44.3822C69.2828 44.6393 69.3471 44.918 69.39 45.2179C69.4328 45.4322 69.4756 45.6465 69.5185 45.8608C69.5614 46.0751 69.5828 46.3107 69.5828 46.5679C69.5828 46.7822 69.5828 46.9965 69.5828 47.2107C69.5828 47.4678 69.5828 47.7036 69.5828 47.9179C69.54 48.175 69.5185 48.4536 69.5185 48.7535C69.4756 49.0536 69.4114 49.3322 69.3256 49.5893C69.2828 49.8464 69.2185 50.125 69.1328 50.425C69.0471 50.6821 68.9399 50.9393 68.8114 51.1965C67.9757 53.0607 66.7542 54.5392 65.0186 55.6321C64.7615 55.7606 64.5043 55.8892 64.2472 56.0178C63.99 56.1892 63.7114 56.3177 63.4114 56.4035C63.1543 56.532 62.8757 56.6392 62.5758 56.7249C62.3186 56.8106 62.04 56.8749 61.74 56.9178C61.4401 57.0035 61.14 57.0677 60.84 57.1106C60.5829 57.1535 60.3044 57.1963 60.0044 57.2392C59.7043 57.2392 59.4044 57.2392 59.1044 57.2392C58.8043 57.2821 58.5044 57.2821 58.2044 57.2392C56.6616 57.1749 55.2473 56.8535 53.833 56.1463C52.0973 55.3106 50.683 54.1536 49.6545 52.4821C49.5687 52.3107 49.4831 52.1393 49.3974 51.9678C49.3545 51.925 49.3116 51.8821 49.2688 51.8393C49.2045 51.7107 49.2045 51.6464 49.0759 51.775C48.9473 51.8178 48.8403 51.8607 48.7545 51.9035C48.6259 51.9893 48.4974 52.0749 48.3688 52.1607C47.7688 52.4606 47.1473 52.4606 46.5045 52.1607C46.1188 51.9035 45.7331 51.6678 45.3474 51.4536C44.1902 50.7678 43.0331 50.0822 41.876 49.3964C41.7903 49.3536 41.6832 49.2893 41.5546 49.2036C41.5546 49.2036 41.5332 49.2036 41.4903 49.2036C41.4475 49.2464 41.426 49.2678 41.426 49.2678C41.426 49.3964 41.426 49.525 41.426 49.6536C41.426 51.0679 41.426 52.4606 41.426 53.8321ZM54.8616 47.275C54.8616 47.4036 54.8616 47.5536 54.8616 47.725C54.8616 47.8536 54.883 48.0036 54.9258 48.175C54.9258 48.3464 54.9473 48.4964 54.9902 48.625C55.033 48.7965 55.0972 48.9464 55.183 49.075C55.5044 49.975 56.083 50.7464 56.9187 51.2607C57.1329 51.3893 57.3258 51.4964 57.4972 51.5821C57.7116 51.6678 57.9258 51.7322 58.1401 51.775C58.3544 51.8178 58.5686 51.8607 58.7829 51.9035C58.9972 51.9035 59.2115 51.8821 59.4258 51.8393C59.5972 51.8393 59.7687 51.8178 59.9401 51.775C60.1115 51.7322 60.2615 51.6678 60.3901 51.5821C60.5615 51.5392 60.7115 51.475 60.84 51.3893C61.0114 51.3035 61.1615 51.1964 61.2901 51.0679C61.4187 50.9821 61.5472 50.8536 61.6758 50.6821C61.8472 50.5536 61.9758 50.4035 62.0615 50.2321C62.1901 50.1036 62.2971 49.9536 62.3829 49.7821C62.4686 49.6107 62.5543 49.4179 62.64 49.2036C63.0686 48.0893 63.1329 46.9536 62.8329 45.7964C62.79 45.6679 62.7258 45.5179 62.64 45.3465C62.5972 45.1751 62.5329 45.025 62.4472 44.8965C62.4043 44.7679 62.3401 44.6179 62.2543 44.4465C62.1686 44.3179 62.0615 44.1894 61.9329 44.0608C60.7758 42.5822 58.8473 42.2608 57.3044 43.0322C56.3401 43.4822 55.6973 44.2536 55.2473 45.2179C55.1616 45.3465 55.0972 45.4965 55.0544 45.6679C55.0116 45.8394 54.9687 46.0108 54.9258 46.1821C54.883 46.3536 54.8616 46.525 54.8616 46.6964C54.8187 46.8679 54.8187 47.0607 54.8616 47.275ZM45.3474 40.3323C45.3474 40.0751 45.3474 39.818 45.3474 39.5609C45.3474 39.2609 45.3474 38.9823 45.3474 38.7251C45.3045 37.9537 44.9832 37.3966 44.3831 37.0537C44.2974 36.9681 44.2117 36.9037 44.126 36.8609L42.0689 35.7038C41.8975 35.618 41.7474 35.5324 41.6188 35.4466C41.4903 35.3609 41.426 35.3823 41.426 35.5109C41.426 35.5966 41.426 35.661 41.426 35.7038C41.426 37.0323 41.426 38.3394 41.426 39.6251C41.426 39.7108 41.426 39.7966 41.426 39.8822C41.426 39.8822 41.426 39.9038 41.426 39.9466C41.426 39.9466 41.4475 39.9466 41.4903 39.9466C41.4903 39.9894 41.4903 40.0108 41.4903 40.0108C41.4903 40.0108 41.5118 40.0108 41.5546 40.0108C41.5546 40.0537 41.576 40.0751 41.6188 40.0751C42.776 40.7608 43.9331 41.4466 45.0902 42.1323C45.0902 42.1323 45.1117 42.1323 45.1546 42.1323C45.1546 42.1323 45.176 42.1323 45.2188 42.1323C45.2188 42.1751 45.2188 42.1965 45.2188 42.1965C45.2831 42.1965 45.3474 42.1323 45.3474 42.1323C45.3474 42.0465 45.3474 41.9609 45.3474 41.8751C45.3474 41.3608 45.3474 40.8466 45.3474 40.3323Z" fill="white"/>
<path d="M163.44 47.211C163.44 44.1254 163.44 41.0611 163.44 38.0183C163.396 37.8469 163.396 37.6969 163.44 37.5683C163.44 37.5683 163.44 37.5469 163.44 37.504C163.482 37.504 163.503 37.4826 163.503 37.4397C163.503 37.4397 163.525 37.4397 163.568 37.4397C163.611 37.4397 163.675 37.4397 163.761 37.4397H169.482C169.568 37.4397 169.654 37.4397 169.739 37.4397C169.739 37.4397 169.739 37.4612 169.739 37.504C169.782 37.504 169.803 37.504 169.803 37.504C169.803 37.5469 169.803 37.5683 169.803 37.5683C169.847 37.6969 169.868 37.8254 169.868 37.954C169.868 39.6682 169.868 41.404 169.868 43.161C169.868 43.4182 169.868 43.6539 169.868 43.8682C169.868 43.911 169.868 43.9325 169.868 43.9325C169.868 43.9325 169.868 43.954 169.868 43.9968C169.868 43.9968 169.868 44.0182 169.868 44.061C169.91 44.061 169.932 44.061 169.932 44.061C170.018 44.0182 170.082 43.954 170.125 43.8682L175.397 37.7611C175.439 37.6755 175.504 37.6111 175.59 37.5683C175.59 37.5255 175.59 37.504 175.59 37.504C175.632 37.504 175.653 37.504 175.653 37.504C175.697 37.4612 175.718 37.4397 175.718 37.4397C175.718 37.4397 175.739 37.4397 175.782 37.4397C175.867 37.4397 175.953 37.4397 176.039 37.4397H182.532C182.66 37.4397 182.789 37.4397 182.918 37.4397C182.918 37.4397 182.982 37.5683 182.918 37.5683C182.874 37.6541 182.811 37.7397 182.725 37.8254C181.868 38.7683 181.01 39.7326 180.154 40.7182C178.868 42.1754 177.603 43.6111 176.36 45.0253C176.104 45.3468 176.104 45.2825 176.297 45.6039C178.568 49.2467 180.861 52.8681 183.174 56.468C183.218 56.5966 183.281 56.7252 183.367 56.8537C183.367 56.8537 183.367 56.8752 183.367 56.9181C183.367 56.9609 183.367 56.9823 183.367 56.9823C183.325 56.9823 183.304 56.9823 183.304 56.9823C183.218 56.9823 183.132 56.9823 183.046 56.9823H176.104C176.06 56.9823 175.997 56.9823 175.911 56.9823C175.867 56.9823 175.846 56.9823 175.846 56.9823C175.846 56.9823 175.825 56.9823 175.782 56.9823C175.782 56.9395 175.782 56.9181 175.782 56.9181C175.739 56.9181 175.718 56.9181 175.718 56.9181C175.675 56.7895 175.611 56.6824 175.525 56.5966L171.989 50.7467C171.947 50.6182 171.882 50.4896 171.796 50.361C171.754 50.361 171.732 50.361 171.732 50.361C171.732 50.361 171.71 50.361 171.668 50.361C171.625 50.4039 171.582 50.4467 171.54 50.4896C171.025 51.0467 170.533 51.6038 170.061 52.161C170.018 52.2038 169.975 52.2467 169.932 52.2896C169.932 52.3324 169.91 52.3538 169.868 52.3538C169.868 52.3538 169.868 52.3752 169.868 52.4181C169.868 52.461 169.868 52.4824 169.868 52.4824C169.868 52.6109 169.868 52.7395 169.868 52.8681C169.868 54.068 169.868 55.2681 169.868 56.468C169.868 56.5966 169.868 56.7252 169.868 56.8537C169.825 56.9395 169.761 56.9823 169.675 56.9823C169.589 56.9823 169.503 56.9823 169.418 56.9823C167.575 56.9823 165.732 56.9823 163.889 56.9823C163.761 56.9823 163.632 56.9823 163.503 56.9823C163.461 56.9823 163.44 56.9609 163.44 56.9181C163.44 56.9181 163.44 56.8966 163.44 56.8537C163.44 56.7252 163.44 56.5966 163.44 56.468C163.44 53.3824 163.44 50.2967 163.44 47.211Z" fill="white"/>
<path fill-rule="evenodd" clip-rule="evenodd" d="M140.295 56.9827C139.265 56.9827 138.237 56.9827 137.208 56.9827C136.887 56.9827 136.887 56.9827 136.759 56.6613C136.501 55.9327 136.266 55.2256 136.052 54.5399C135.922 54.2185 135.922 54.2185 135.537 54.2185C133.351 54.2185 131.166 54.2185 128.98 54.2185C128.894 54.2185 128.83 54.2185 128.787 54.2185C128.745 54.2185 128.723 54.2185 128.723 54.2185C128.68 54.2185 128.659 54.2399 128.659 54.2827C128.616 54.2827 128.594 54.2827 128.594 54.2827C128.594 54.3257 128.594 54.3471 128.594 54.3471C128.552 54.4328 128.508 54.5185 128.466 54.6042C128.252 55.2471 128.015 55.9113 127.759 56.597C127.631 57.047 127.694 56.9827 127.18 56.9827C125.295 56.9827 123.409 56.9827 121.523 56.9827C121.395 56.9827 121.266 56.9827 121.137 56.9827C121.094 56.9399 121.073 56.9185 121.073 56.9185C121.073 56.9185 121.073 56.8971 121.073 56.8541C121.116 56.7256 121.159 56.6185 121.202 56.5328C121.587 55.6328 121.973 54.7328 122.359 53.8328C124.588 48.5614 126.794 43.2901 128.98 38.0187C129.301 37.3759 129.109 37.4401 129.816 37.4401C131.658 37.4401 133.523 37.4401 135.408 37.4401C135.859 37.4401 135.794 37.4401 135.987 37.8258C138.001 42.84 140.037 47.8543 142.094 52.8685C142.608 54.1113 143.101 55.3542 143.573 56.597C143.615 56.6827 143.659 56.7899 143.701 56.9185C143.701 56.9185 143.68 56.9399 143.637 56.9827C143.637 56.9827 143.615 56.9827 143.573 56.9827C143.53 56.9827 143.508 56.9827 143.508 56.9827C143.508 56.9827 143.487 56.9827 143.444 56.9827C143.144 56.9827 142.844 56.9827 142.544 56.9827H140.295ZM132.323 49.59C132.88 49.59 133.437 49.59 133.994 49.59C134.037 49.59 134.059 49.59 134.059 49.59C134.101 49.59 134.123 49.59 134.123 49.59C134.166 49.59 134.187 49.59 134.187 49.59C134.23 49.59 134.252 49.59 134.252 49.59L134.316 49.5257C134.316 49.4828 134.316 49.4614 134.316 49.4614C134.316 49.4614 134.294 49.4614 134.252 49.4614C134.252 49.4614 134.252 49.44 134.252 49.3971C134.166 49.14 134.08 48.8828 133.994 48.6257C133.523 47.2114 133.03 45.7971 132.516 44.3829C132.473 44.2543 132.43 44.1473 132.388 44.0615C132.388 44.0615 132.365 44.0401 132.323 43.9972C132.323 43.9972 132.323 44.0187 132.323 44.0615C132.281 44.1473 132.237 44.2329 132.195 44.3186C131.895 45.1758 131.595 46.0329 131.295 46.89C130.995 47.6615 130.695 48.4543 130.395 49.2685C130.395 49.3543 130.373 49.44 130.33 49.5257L130.395 49.59C130.523 49.59 130.63 49.59 130.716 49.59C131.23 49.59 131.765 49.59 132.323 49.59Z" fill="white"/>
<path d="M153.537 37.2474C155.337 37.2474 156.815 37.5689 158.166 38.1474C158.466 38.276 158.743 38.4045 159.001 38.5331C159.258 38.6617 159.515 38.8118 159.772 38.9832C160.072 39.1546 160.329 39.326 160.544 39.4974C160.801 39.6688 161.037 39.8403 161.251 40.0117C161.508 40.226 161.744 40.4617 161.958 40.7188C162.086 40.8474 162.086 40.8474 161.958 40.9759C161.701 41.3188 161.423 41.6617 161.122 42.0045L158.615 45.0259C158.573 45.0259 158.529 45.0473 158.487 45.0902C158.422 45.2187 158.359 45.2187 158.294 45.1545C158.208 45.0259 158.122 44.9188 158.036 44.833C157.951 44.7045 157.843 44.5759 157.715 44.4473C157.587 44.3187 157.458 44.2117 157.329 44.1259C157.201 43.9974 157.073 43.8688 156.944 43.7402C156.772 43.6545 156.622 43.5688 156.494 43.4831C156.365 43.3973 156.237 43.3117 156.108 43.226C155.979 43.1831 155.851 43.1402 155.723 43.0974C155.594 43.0116 155.465 42.9474 155.337 42.9045C155.208 42.8617 155.079 42.8188 154.951 42.7759C153.472 42.3902 151.673 42.8402 150.708 44.3831C150.622 44.5117 150.536 44.6402 150.451 44.7688C150.408 44.8974 150.366 45.0259 150.322 45.1545C150.236 45.2831 150.173 45.4116 150.129 45.5402C150.087 45.6688 150.066 45.7973 150.066 45.9259C149.873 46.8901 149.873 47.8545 150.194 48.7544C150.236 48.9258 150.301 49.0973 150.387 49.2687C150.473 49.4401 150.559 49.5901 150.644 49.7187C150.729 49.8902 150.836 50.0401 150.966 50.1687C151.051 50.2973 151.158 50.4259 151.287 50.5544C151.458 50.683 151.63 50.8116 151.801 50.9401C151.972 51.0687 152.144 51.1759 152.315 51.2615C152.487 51.3473 152.679 51.4116 152.894 51.4544C153.065 51.4972 153.258 51.5402 153.472 51.583C154.116 51.6472 154.758 51.583 155.401 51.3258C155.572 51.283 155.765 51.2187 155.979 51.1329C156.151 51.0473 156.322 50.9615 156.494 50.8758C156.665 50.7472 156.837 50.6402 157.008 50.5544C157.18 50.4259 157.351 50.2973 157.522 50.1687C157.736 49.9973 157.951 49.8044 158.166 49.5901C158.208 49.5473 158.25 49.5045 158.294 49.4615C158.336 49.4615 158.359 49.4615 158.359 49.4615C158.359 49.4615 158.38 49.4615 158.422 49.4615C158.466 49.5045 158.508 49.5259 158.551 49.5259C159.665 50.7687 160.779 51.9901 161.893 53.19C161.937 53.19 161.958 53.19 161.958 53.19C161.958 53.233 161.958 53.2544 161.958 53.2544C162.001 53.2544 162.023 53.2544 162.023 53.2544C162.023 53.2972 162.023 53.3186 162.023 53.3186C162.023 53.3615 162.023 53.383 162.023 53.383C162.023 53.4258 162.023 53.4472 162.023 53.4472C162.023 53.4472 162.001 53.4472 161.958 53.4472C161.958 53.4901 161.958 53.5115 161.958 53.5115C161.958 53.5115 161.937 53.5329 161.893 53.5758C161.765 53.7043 161.637 53.8329 161.508 53.9615C161.337 54.09 161.186 54.2186 161.058 54.3472C160.887 54.4757 160.715 54.6043 160.544 54.7329C160.415 54.8615 160.265 54.99 160.094 55.1186C159.751 55.3329 159.429 55.5258 159.129 55.6972C158.787 55.9115 158.443 56.0829 158.101 56.2115C157.758 56.3829 157.415 56.5329 157.073 56.6614C156.687 56.79 156.322 56.8972 155.979 56.9829C155.679 57.0257 155.379 57.0686 155.079 57.1115C154.779 57.1543 154.501 57.1972 154.244 57.24C153.944 57.24 153.644 57.24 153.344 57.24C153.044 57.24 152.765 57.2186 152.508 57.1757C152.294 57.1757 152.08 57.1543 151.865 57.1115C151.651 57.1115 151.458 57.0901 151.287 57.0471C151.073 57.0043 150.858 56.9401 150.644 56.8543C150.473 56.8115 150.28 56.7686 150.066 56.7258C148.394 56.1471 146.916 55.1829 145.693 53.8329C144.665 52.6758 144.023 51.3258 143.637 49.8472C143.594 49.5473 143.551 49.2687 143.508 49.0116C143.423 48.7544 143.38 48.4759 143.38 48.1758C143.337 47.9187 143.315 47.6616 143.315 47.4044C143.315 47.1045 143.315 46.8259 143.315 46.5688C143.444 44.6402 144.023 42.9045 145.179 41.3616C146.079 40.076 147.237 39.1117 148.651 38.4689C148.866 38.3403 149.101 38.2332 149.359 38.1474C149.573 38.0188 149.787 37.9332 150.001 37.8903C150.259 37.8046 150.515 37.7189 150.773 37.6331C150.987 37.5903 151.222 37.5475 151.48 37.5046C152.251 37.3118 153.023 37.2474 153.537 37.2474Z" fill="white"/>
<path d="M120.753 44.5111C120.753 46.3539 120.753 48.2182 120.753 50.1039C120.753 50.4467 120.731 50.811 120.689 51.1967C120.689 51.411 120.667 51.6252 120.624 51.8395C120.581 52.0538 120.539 52.2681 120.496 52.4824C120.453 52.6967 120.389 52.8895 120.303 53.061C120.217 53.2752 120.131 53.4895 120.046 53.7038C119.917 53.961 119.767 54.2181 119.596 54.4753C119.424 54.7324 119.231 54.968 119.017 55.1823C118.846 55.3967 118.632 55.5895 118.374 55.761C118.16 55.9323 117.924 56.1037 117.667 56.2752C117.496 56.3609 117.324 56.4466 117.153 56.5324C116.982 56.5752 116.832 56.6394 116.703 56.7252C116.531 56.768 116.36 56.8323 116.189 56.9181C116.017 56.9609 115.846 57.0037 115.674 57.0466C115.417 57.0895 115.182 57.1323 114.967 57.1752C114.71 57.1752 114.474 57.1966 114.26 57.2395C114.003 57.2395 113.767 57.2395 113.553 57.2395C113.296 57.2823 113.06 57.2823 112.846 57.2395C111.303 57.1752 109.889 56.7895 108.603 56.0823C108.389 55.9538 108.174 55.8252 107.96 55.6966C107.746 55.568 107.553 55.4395 107.382 55.3109C107.21 55.1395 107.017 54.9895 106.803 54.861C106.632 54.6895 106.46 54.5181 106.289 54.3467C106.16 54.2181 106.032 54.0895 105.903 53.961C105.903 53.9181 105.882 53.8966 105.839 53.8966C105.839 53.8966 105.839 53.8752 105.839 53.8324C105.839 53.8324 105.86 53.8109 105.903 53.7681C105.903 53.7253 105.925 53.6823 105.967 53.6395C106.825 52.3966 107.703 51.1539 108.603 49.911C108.603 49.8682 108.625 49.8252 108.667 49.7824C108.71 49.7824 108.732 49.761 108.732 49.7182C108.732 49.7182 108.753 49.7182 108.796 49.7182C108.796 49.7182 108.796 49.7396 108.796 49.7824C108.882 49.8252 108.967 49.8896 109.053 49.9753C109.139 50.061 109.246 50.1467 109.375 50.2325C109.46 50.361 109.567 50.4681 109.696 50.5538C109.824 50.6396 109.953 50.7252 110.082 50.811C110.21 50.8967 110.339 50.9824 110.467 51.0681C110.553 51.1109 110.639 51.1753 110.724 51.261C110.853 51.3038 110.96 51.3467 111.046 51.3896C111.174 51.4752 111.282 51.5396 111.367 51.5824C111.496 51.6252 111.624 51.6681 111.753 51.711C112.139 51.8395 112.524 51.9039 112.91 51.9039C112.953 51.9039 112.974 51.8824 112.974 51.8395C113.017 51.8395 113.039 51.8395 113.039 51.8395C113.082 51.8395 113.124 51.8395 113.167 51.8395C113.167 51.8395 113.189 51.8395 113.232 51.8395C113.81 51.711 114.132 51.261 114.196 50.6824C114.239 50.6396 114.26 50.5967 114.26 50.5538C114.26 50.5538 114.26 50.5324 114.26 50.4896C114.26 50.4467 114.26 50.4039 114.26 50.361C114.26 50.361 114.26 50.3395 114.26 50.2967C114.26 50.1681 114.26 50.0396 114.26 49.911C114.26 47.6396 114.26 45.3682 114.26 43.0968C114.26 42.9682 114.26 42.8183 114.26 42.6468C114.26 42.6468 114.239 42.6253 114.196 42.5825C114.196 42.5825 114.174 42.5825 114.132 42.5825C114.003 42.5825 113.874 42.5825 113.746 42.5825C111.903 42.5825 110.039 42.5825 108.153 42.5825C108.024 42.5825 107.896 42.5825 107.767 42.5825C107.767 42.5397 107.767 42.5182 107.767 42.5182C107.725 42.5182 107.703 42.5182 107.703 42.5182C107.703 42.4754 107.682 42.454 107.639 42.454C107.639 42.3682 107.639 42.2611 107.639 42.1325C107.639 41.6182 107.639 41.1039 107.639 40.5896C107.639 39.6897 107.639 38.8112 107.639 37.954C107.639 37.8683 107.639 37.7611 107.639 37.6325C107.639 37.504 107.703 37.4397 107.832 37.4397C107.917 37.4397 108.003 37.4397 108.089 37.4397H120.303C120.753 37.4397 120.753 37.4397 120.753 37.8897V44.5111Z" fill="white"/>
<path d="M96.2594 56.9819H93.6237C93.538 56.9819 93.4308 56.9819 93.3023 56.9819C93.1095 56.9819 93.0451 56.9819 93.0451 56.7248C93.0451 56.682 93.0451 56.6391 93.0451 56.5962V56.3391C93.0451 54.7106 93.0451 53.082 93.0451 51.4534C93.0451 50.9391 93.1095 51.132 92.8523 50.682C90.6238 46.4392 88.3952 42.175 86.1667 37.8894C86.1239 37.8036 86.081 37.6965 86.0381 37.5679C86.0381 37.5679 86.0381 37.5465 86.0381 37.5037C86.0381 37.5037 86.0381 37.4823 86.0381 37.4393C86.1667 37.4393 86.2953 37.4393 86.4238 37.4393C87.6667 37.4393 88.9309 37.4393 90.2166 37.4393H91.9523C92.0381 37.4393 92.1451 37.4393 92.2737 37.4393C92.3166 37.4823 92.338 37.5037 92.338 37.5037C92.338 37.5037 92.3595 37.5037 92.4023 37.5037C92.4023 37.5037 92.4023 37.5251 92.4023 37.5679C92.4452 37.6537 92.5094 37.7608 92.5952 37.8894L94.9094 42.3893L96.0666 44.575C96.1094 44.6607 96.1523 44.7464 96.1951 44.8321C96.2594 44.8964 96.3237 44.8964 96.3237 44.8321C96.4094 44.7464 96.4737 44.6392 96.5165 44.5107C97.4165 42.6679 98.338 40.8251 99.2808 38.9822L99.8593 37.825C99.9022 37.7394 99.9451 37.6537 99.9879 37.5679C99.9879 37.5251 100.009 37.5037 100.052 37.5037C100.095 37.5037 100.116 37.4823 100.116 37.4393C100.116 37.4393 100.138 37.4393 100.181 37.4393C100.266 37.4393 100.352 37.4393 100.438 37.4393C102.281 37.4393 104.124 37.4393 105.966 37.4393C106.095 37.4393 106.224 37.4393 106.352 37.4393C106.352 37.4393 106.352 37.4608 106.352 37.5037C106.352 37.5037 106.374 37.5037 106.416 37.5037C106.416 37.5465 106.416 37.5679 106.416 37.5679C106.374 37.6537 106.309 37.7608 106.224 37.8894C105.452 39.3893 104.681 40.8893 103.909 42.3893L99.7307 50.4892C99.6879 50.532 99.6451 50.5749 99.6022 50.6178C99.6022 50.6606 99.5808 50.7035 99.5379 50.7463C99.5379 50.7892 99.5379 50.8321 99.5379 50.8749C99.5379 50.9177 99.5165 50.9607 99.4736 51.0035C99.4736 51.0463 99.4736 51.1106 99.4736 51.1963C99.4736 51.6677 99.4736 52.1606 99.4736 52.6749C99.4736 53.9606 99.4736 55.2463 99.4736 56.532C99.4736 56.6177 99.4736 56.7248 99.4736 56.8533C99.4736 56.8963 99.4736 56.9177 99.4736 56.9177C99.4308 56.9177 99.4094 56.9391 99.4094 56.9819C99.2808 56.9819 99.1522 56.9819 99.0237 56.9819C98.1237 56.9819 97.2023 56.9819 96.2594 56.9819Z" fill="white"/>
<path d="M71.3834 47.2106C71.3834 44.125 71.3834 41.0393 71.3834 37.9536C71.3834 37.825 71.4048 37.6965 71.4476 37.5679C71.4476 37.5679 71.4476 37.5465 71.4476 37.5037C71.4476 37.5037 71.469 37.5037 71.5119 37.5037C71.5119 37.4608 71.5119 37.4393 71.5119 37.4393C71.5976 37.4393 71.6833 37.4393 71.7691 37.4393H77.4904C77.8118 37.4393 77.8761 37.4393 77.8761 37.7608C77.8761 37.8894 77.8761 38.018 77.8761 38.1465C77.8761 42.4321 77.8761 46.7393 77.8761 51.0677C77.8761 51.1963 77.8761 51.3249 77.8761 51.4534C77.8761 51.4963 77.8761 51.5178 77.8761 51.5178C77.8761 51.5178 77.8761 51.5392 77.8761 51.582C77.9189 51.582 77.9404 51.582 77.9404 51.582C77.9404 51.582 77.9618 51.582 78.0047 51.582C78.1332 51.582 78.2618 51.582 78.3904 51.582C80.7475 51.582 83.1046 51.582 85.4617 51.582C85.5903 51.6249 85.7188 51.6463 85.8474 51.6463C85.8903 51.6463 85.9117 51.6463 85.9117 51.6463C85.9117 51.6463 85.9117 51.6677 85.9117 51.7106C85.9117 51.7106 85.9331 51.7106 85.976 51.7106C85.976 51.7963 85.976 51.8606 85.976 51.9035C85.976 53.4891 85.976 55.0749 85.976 56.6605C85.976 56.9177 85.9117 56.9819 85.6546 56.9819H85.3331C80.9189 56.9819 76.4832 56.9819 72.0262 56.9819C71.319 56.9819 71.3834 57.0462 71.3834 56.4034C71.3834 53.3177 71.3834 50.2535 71.3834 47.2106Z" fill="white"/>
<path d="M96.0025 31.2683C96.0025 31.7826 96.0025 32.2754 96.0025 32.7468C96.0025 32.8753 96.0025 32.9825 96.0025 33.0682C96.0025 33.1111 96.0025 33.1325 96.0025 33.1325C96.0025 33.1754 95.9811 33.1968 95.9382 33.1968C95.8525 33.1968 95.7668 33.1968 95.681 33.1968C95.6382 33.1968 95.6168 33.1968 95.6168 33.1968C95.6168 33.1968 95.5954 33.1754 95.5525 33.1325C95.4668 33.0468 95.4025 32.9611 95.3597 32.8753C94.7596 32.1039 94.1811 31.3325 93.6239 30.5611C93.5383 30.4754 93.4525 30.3897 93.3668 30.304H93.3025C93.3025 30.4325 93.3025 30.5397 93.3025 30.6254C93.3025 31.3968 93.3025 32.1468 93.3025 32.8753C93.3025 32.8753 93.3025 32.8968 93.3025 32.9397C93.3025 32.9397 93.3025 32.9611 93.3025 33.0039C93.3025 33.0039 93.3025 33.0253 93.3025 33.0682C93.3025 33.0682 93.3025 33.0897 93.3025 33.1325C93.3025 33.1325 93.2811 33.1325 93.2382 33.1325C93.2382 33.1754 93.2382 33.1968 93.2382 33.1968C93.1954 33.1968 93.174 33.1968 93.174 33.1968C93.1312 33.1968 93.1096 33.1968 93.1096 33.1968C93.0668 33.1968 93.0454 33.1968 93.0454 33.1968C93.0026 33.1968 92.9811 33.1968 92.9811 33.1968C92.9168 33.1968 92.9168 33.1325 92.8525 33.1325C92.8525 33.0897 92.8525 33.0682 92.8525 33.0682C92.8525 33.0682 92.8525 33.0468 92.8525 33.0039C92.8525 33.0039 92.8525 32.9825 92.8525 32.9397C92.8525 31.8254 92.8525 30.7111 92.8525 29.5969C92.8525 29.5969 92.8525 29.5755 92.8525 29.5325C92.8525 29.5325 92.8525 29.5111 92.8525 29.4683C92.8525 29.4683 92.874 29.4683 92.9168 29.4683C92.9168 29.4683 92.9168 29.4469 92.9168 29.404C92.9597 29.404 93.0026 29.404 93.0454 29.404C93.0454 29.404 93.0668 29.404 93.1096 29.404C93.1526 29.3611 93.174 29.3611 93.174 29.404C93.2168 29.404 93.2597 29.404 93.3025 29.404C93.3454 29.404 93.3668 29.404 93.3668 29.404C93.3668 29.4469 93.3668 29.4683 93.3668 29.4683C93.4525 29.5539 93.5169 29.6397 93.5597 29.7254C94.1168 30.4969 94.674 31.2469 95.2311 31.9754C95.3168 32.1039 95.4025 32.2111 95.4882 32.2968H95.5525C95.5954 32.2968 95.6168 32.2968 95.6168 32.2968C95.6168 32.1683 95.6168 32.0611 95.6168 31.9754C95.6168 31.2897 95.6168 30.604 95.6168 29.9182C95.6168 29.8326 95.6168 29.7254 95.6168 29.5969C95.6168 29.404 95.6168 29.3397 95.8739 29.404C96.0025 29.404 96.0025 29.404 96.0025 29.5325C96.0025 29.6611 96.0025 29.7683 96.0025 29.854C96.0025 30.3254 96.0025 30.7968 96.0025 31.2683Z" fill="white"/>
<path fill-rule="evenodd" clip-rule="evenodd" d="M138.944 33.1972C138.302 33.1972 137.788 33.0043 137.402 32.6186C137.187 32.4044 137.038 32.1687 136.952 31.9115C136.866 31.6544 136.845 31.3758 136.887 31.0758C136.887 30.8186 136.973 30.5615 137.145 30.3044C137.273 30.0901 137.466 29.8972 137.723 29.7258C137.766 29.683 137.83 29.6401 137.916 29.5973C138.002 29.5544 138.088 29.5115 138.173 29.4687C138.259 29.4259 138.366 29.4044 138.495 29.4044C138.581 29.4044 138.666 29.4044 138.752 29.4044C138.837 29.3615 138.902 29.3401 138.944 29.3401C139.03 29.383 139.116 29.4044 139.202 29.4044C139.244 29.4044 139.309 29.4044 139.395 29.4044C139.437 29.4473 139.502 29.4687 139.588 29.4687C139.759 29.5544 139.93 29.6615 140.102 29.7901C140.274 29.9186 140.402 30.0687 140.488 30.2401C140.616 30.3687 140.702 30.5401 140.744 30.7544C140.83 30.9258 140.874 31.1187 140.874 31.3329C140.809 31.9758 140.488 32.8115 139.523 33.1329C139.481 33.1329 139.437 33.1329 139.395 33.1329C139.352 33.1758 139.288 33.1972 139.202 33.1972C139.159 33.1972 139.116 33.1972 139.073 33.1972C139.03 33.1972 138.988 33.1972 138.944 33.1972ZM140.423 31.1401C140.423 30.8186 140.167 30.4329 139.909 30.1758C139.737 30.0044 139.544 29.8972 139.33 29.8544C139.116 29.7687 138.881 29.7473 138.623 29.7901C138.409 29.833 138.216 29.8972 138.045 29.983C137.83 30.1115 137.659 30.2615 137.531 30.4329C137.445 30.6044 137.38 30.7544 137.338 30.883C137.295 31.0544 137.295 31.2043 137.338 31.3329C137.338 31.5044 137.359 31.6544 137.402 31.783C137.445 31.9543 137.531 32.1043 137.659 32.2329C137.745 32.3615 137.873 32.49 138.045 32.6186C138.259 32.7044 138.452 32.7687 138.623 32.8115C138.837 32.8115 139.03 32.7901 139.202 32.7472C139.416 32.7044 139.609 32.6186 139.781 32.49C140.167 32.2329 140.423 31.783 140.423 31.1401Z" fill="white"/>
<path fill-rule="evenodd" clip-rule="evenodd" d="M74.1471 33.1968C74.0828 33.1968 74.0185 33.1968 73.9542 33.1968C73.9114 33.1968 73.89 33.1968 73.89 33.1968C73.89 33.154 73.8685 33.1326 73.8256 33.1326C73.7828 33.004 73.7399 32.8968 73.6971 32.8111C73.6113 32.6397 73.5471 32.4897 73.5043 32.3611C73.4613 32.3611 73.4399 32.3397 73.4399 32.2968C73.4399 32.2968 73.4185 32.2968 73.3757 32.2968C73.3757 32.254 73.3757 32.2326 73.3757 32.2326C73.3328 32.2326 73.3114 32.2326 73.3114 32.2326C73.14 32.2326 72.9685 32.2326 72.7971 32.2326H71.64C71.5971 32.2326 71.5328 32.2326 71.4472 32.2326C71.4042 32.2326 71.3828 32.254 71.3828 32.2968C71.34 32.2968 71.3186 32.2968 71.3186 32.2968C71.3186 32.3397 71.3186 32.3611 71.3186 32.3611C71.2328 32.4897 71.1685 32.6397 71.1257 32.8111C71.0829 32.8968 71.0185 33.004 70.9329 33.1326C70.9329 33.1326 70.9329 33.154 70.9329 33.1968C70.89 33.1968 70.8685 33.1968 70.8685 33.1968C70.8685 33.1968 70.8471 33.1968 70.8043 33.1968C70.7186 33.1968 70.6328 33.1968 70.5472 33.1968C70.5472 33.1968 70.4828 33.1326 70.5472 33.0682C70.5472 33.0254 70.5686 32.9826 70.6114 32.9396C71.0829 31.8254 71.5757 30.7111 72.09 29.5968C72.1542 29.404 72.1542 29.3397 72.4757 29.404C72.5185 29.404 72.5399 29.404 72.5399 29.404C72.5828 29.404 72.6043 29.404 72.6043 29.404C72.6043 29.404 72.6257 29.404 72.6685 29.404C72.6685 29.4469 72.6685 29.4683 72.6685 29.4683C72.7113 29.554 72.7543 29.6398 72.7971 29.7254C73.2685 30.754 73.7185 31.7825 74.1471 32.8111C74.1899 32.8968 74.2328 32.9826 74.2757 33.0682C74.2757 33.0682 74.2757 33.0896 74.2757 33.1326C74.2757 33.1754 74.2542 33.1968 74.2114 33.1968H74.1471ZM72.4114 31.7825C72.6257 31.7825 72.8399 31.7825 73.0542 31.7825C73.097 31.7825 73.1186 31.7825 73.1186 31.7825C73.1186 31.7825 73.14 31.7825 73.1828 31.7825C73.1828 31.7397 73.1828 31.7183 73.1828 31.7183C73.1828 31.7183 73.1828 31.6969 73.1828 31.654C73.1828 31.654 73.1828 31.6325 73.1828 31.5897C72.9685 31.0754 72.7543 30.5826 72.5399 30.1111C72.4971 30.1111 72.4757 30.1111 72.4757 30.1111C72.4757 30.0683 72.4757 30.0469 72.4757 30.0469C72.4757 30.004 72.4542 29.9825 72.4114 29.9825C72.3686 29.9825 72.3471 29.9825 72.3471 29.9825C72.3042 30.1111 72.24 30.2397 72.1542 30.3683C71.9828 30.754 71.8329 31.1183 71.7043 31.4611C71.6614 31.5468 71.6185 31.6325 71.5757 31.7183L71.64 31.7825H72.4114Z" fill="white"/>
<path d="M173.017 29.3401C173.145 29.3401 173.252 29.3615 173.338 29.4044C173.424 29.4044 173.509 29.4044 173.595 29.4044C173.681 29.4473 173.767 29.4901 173.852 29.5329C173.938 29.5329 174.023 29.5544 174.109 29.5973C174.109 29.6401 174.131 29.6615 174.174 29.6615C174.174 29.6615 174.195 29.683 174.238 29.7258C174.238 29.7258 174.238 29.7473 174.238 29.7901C174.238 29.7901 174.238 29.8116 174.238 29.8544C174.195 29.8544 174.174 29.8758 174.174 29.9186C174.174 29.9186 174.174 29.9402 174.174 29.983C174.131 29.983 174.109 30.0044 174.109 30.0472C174.067 30.0472 174.045 30.0472 174.045 30.0472C174.002 30.0472 173.981 30.0472 173.981 30.0472C173.981 30.0472 173.96 30.0472 173.916 30.0472C173.916 30.0472 173.916 30.0258 173.916 29.983C173.874 29.983 173.852 29.983 173.852 29.983C173.809 29.983 173.745 29.9616 173.66 29.9186C173.616 29.9186 173.574 29.8972 173.531 29.8544C173.488 29.8544 173.424 29.8544 173.338 29.8544C173.295 29.8116 173.252 29.7901 173.209 29.7901C172.952 29.7901 172.824 29.7901 172.631 29.8544C172.588 29.8544 172.566 29.8544 172.566 29.8544C172.566 29.8544 172.545 29.8758 172.502 29.9186C172.117 30.0472 172.181 30.4973 172.438 30.6901C172.438 30.733 172.459 30.7544 172.502 30.7544C172.545 30.7972 172.566 30.8186 172.566 30.8186C172.61 30.8616 172.652 30.883 172.695 30.883C172.738 30.883 172.759 30.9044 172.759 30.9472C172.931 30.9901 173.102 31.0329 173.274 31.0758C173.445 31.1187 173.595 31.1829 173.724 31.2687C173.724 31.2687 173.745 31.2687 173.788 31.2687C173.788 31.2687 173.809 31.2901 173.852 31.3329C173.852 31.3329 173.874 31.3329 173.916 31.3329C173.916 31.3758 173.938 31.3972 173.981 31.3972C174.495 31.7186 174.495 32.49 174.045 32.8757C174.002 32.9187 173.96 32.9615 173.916 33.0043C173.831 33.0472 173.767 33.0686 173.724 33.0686C173.681 33.1115 173.616 33.1329 173.531 33.1329C173.488 33.1758 173.424 33.1972 173.338 33.1972C172.695 33.283 172.117 33.1329 171.603 32.7472C171.603 32.7472 171.603 32.7258 171.603 32.6829C171.603 32.6829 171.581 32.6615 171.538 32.6186C171.538 32.5758 171.538 32.5544 171.538 32.5544C171.581 32.4686 171.624 32.383 171.666 32.2972C171.71 32.2972 171.731 32.2972 171.731 32.2972C171.731 32.2972 171.752 32.2972 171.795 32.2972C171.838 32.3401 171.903 32.383 171.988 32.4258C172.031 32.4686 172.095 32.5115 172.181 32.5544C172.224 32.5972 172.288 32.6401 172.374 32.6829C172.417 32.6829 172.481 32.7044 172.566 32.7472C172.652 32.7472 172.717 32.7472 172.759 32.7472C172.802 32.7472 172.867 32.7472 172.952 32.7472C172.995 32.7901 173.038 32.7901 173.081 32.7472C173.124 32.7472 173.167 32.7472 173.209 32.7472C173.295 32.7472 173.36 32.7472 173.402 32.7472C173.402 32.7472 173.424 32.7472 173.467 32.7472C173.467 32.7044 173.467 32.6829 173.467 32.6829C173.509 32.6829 173.531 32.6829 173.531 32.6829C173.531 32.6829 173.552 32.6829 173.595 32.6829C173.852 32.5544 173.916 32.2972 173.852 31.9758C173.852 31.9758 173.831 31.9543 173.788 31.9115C173.788 31.9115 173.788 31.8901 173.788 31.8472C173.745 31.8472 173.724 31.8258 173.724 31.783C173.724 31.783 173.702 31.783 173.66 31.783C173.66 31.7401 173.638 31.7186 173.595 31.7186C173.552 31.6758 173.531 31.6544 173.531 31.6544C173.488 31.6544 173.445 31.633 173.402 31.59C173.402 31.59 173.381 31.59 173.338 31.59C173.167 31.5044 172.995 31.4401 172.824 31.3972C172.781 31.3972 172.717 31.3758 172.631 31.3329C172.588 31.3329 172.545 31.3115 172.502 31.2687C172.459 31.2687 172.417 31.2473 172.374 31.2043C172.288 31.2043 172.224 31.1829 172.181 31.1401C172.138 31.1401 172.095 31.1187 172.052 31.0758C172.01 31.0329 171.988 30.9901 171.988 30.9472C171.945 30.9044 171.903 30.8616 171.859 30.8186C171.859 30.7758 171.838 30.733 171.795 30.6901C171.666 30.3044 171.731 29.8544 172.181 29.5973C172.224 29.5544 172.266 29.5329 172.31 29.5329C172.352 29.4901 172.417 29.4687 172.502 29.4687C172.545 29.4259 172.588 29.4044 172.631 29.4044C172.717 29.4044 172.781 29.383 172.824 29.3401C172.909 29.3401 172.974 29.3401 173.017 29.3401Z" fill="white"/>
<path d="M60.6476 33.197C60.519 33.197 60.3905 33.197 60.2619 33.197C60.1333 33.1542 60.0262 33.1113 59.9405 33.0684C59.812 33.0256 59.6834 32.9827 59.5548 32.9399C59.4691 32.897 59.3833 32.8327 59.2977 32.7471C59.2119 32.6613 59.1905 32.597 59.2333 32.5542C59.2333 32.5113 59.2333 32.4899 59.2333 32.4899C59.2763 32.447 59.2977 32.4256 59.2977 32.4256C59.2977 32.4256 59.2977 32.4042 59.2977 32.3613C59.2977 32.3613 59.3191 32.3398 59.3619 32.297C59.4048 32.297 59.4263 32.297 59.4263 32.297C59.5119 32.3398 59.5762 32.4042 59.6191 32.4899C59.7048 32.5327 59.769 32.5542 59.812 32.5542C59.8976 32.597 59.9619 32.6399 60.0048 32.6827C60.0905 32.6827 60.1763 32.7041 60.2619 32.7471C60.3048 32.7471 60.3691 32.7471 60.4548 32.7471C60.4976 32.7899 60.562 32.8113 60.6476 32.8113C60.6905 32.8113 60.7334 32.7899 60.7762 32.7471C60.8191 32.7471 60.8619 32.7471 60.9048 32.7471C60.9905 32.7471 61.0547 32.7471 61.0977 32.7471C61.0977 32.7041 61.1191 32.6827 61.1619 32.6827C61.2048 32.6827 61.2262 32.6827 61.2262 32.6827C61.269 32.6399 61.2905 32.6185 61.2905 32.6185C61.3334 32.5756 61.3762 32.5113 61.419 32.4256C61.462 32.3828 61.5048 32.3184 61.5476 32.2328C61.5476 32.147 61.5262 32.0613 61.4834 31.9756C61.4834 31.9327 61.4404 31.8685 61.3548 31.7827C61.3548 31.7827 61.3334 31.7827 61.2905 31.7827C61.2905 31.7399 61.269 31.7185 61.2262 31.7185C61.2262 31.7185 61.2048 31.697 61.1619 31.6542C61.1619 31.6542 61.1405 31.6542 61.0977 31.6542C61.0547 31.6113 61.0333 31.5899 61.0333 31.5899C60.9905 31.5899 60.9477 31.5684 60.9048 31.5256C60.8619 31.5256 60.8405 31.5256 60.8405 31.5256C60.7976 31.5256 60.7548 31.5042 60.7119 31.4614C60.5405 31.4184 60.3691 31.3756 60.1977 31.3328C60.1547 31.3328 60.1119 31.3113 60.0691 31.2685C60.0262 31.2685 59.9834 31.247 59.9405 31.2042C59.8976 31.2042 59.8762 31.1827 59.8762 31.1399C59.8334 31.1399 59.7905 31.1185 59.7476 31.0756C59.2977 30.7542 59.2333 30.0471 59.7476 29.6614C59.7905 29.6185 59.8334 29.5756 59.8762 29.5328C59.9191 29.5328 59.9619 29.5113 60.0048 29.4685C60.0477 29.4685 60.0905 29.4471 60.1333 29.4042C60.1763 29.4042 60.2191 29.4042 60.2619 29.4042C60.8405 29.3399 61.3548 29.4042 61.8047 29.6614C61.8477 29.6614 61.8691 29.6828 61.8691 29.7256C61.8691 29.7256 61.8691 29.747 61.8691 29.7899C61.8691 29.8328 61.8477 29.8542 61.8047 29.8542C61.8047 29.897 61.8047 29.9185 61.8047 29.9185C61.8047 29.9613 61.8047 29.9828 61.8047 29.9828C61.7619 30.0256 61.7405 30.0471 61.7405 30.0471C61.7405 30.0471 61.7191 30.0471 61.6762 30.0471C61.6762 30.0471 61.6548 30.0471 61.6119 30.0471C61.569 30.0471 61.5476 30.0256 61.5476 29.9828C61.5048 29.9828 61.4834 29.9828 61.4834 29.9828C61.4404 29.9828 61.3976 29.9613 61.3548 29.9185C61.3119 29.9185 61.2476 29.897 61.1619 29.8542C61.1191 29.8542 61.0762 29.8542 61.0333 29.8542C60.9905 29.8542 60.9262 29.8328 60.8405 29.7899C60.6476 29.7899 60.4548 29.7899 60.2619 29.8542C60.2619 29.8542 60.2405 29.8542 60.1977 29.8542C60.1977 29.897 60.1977 29.9185 60.1977 29.9185C60.1547 29.9185 60.1333 29.9185 60.1333 29.9185C59.7476 30.1113 59.812 30.497 60.0048 30.6899C60.0477 30.6899 60.0691 30.7114 60.0691 30.7542C60.1119 30.7542 60.1333 30.7542 60.1333 30.7542C60.1763 30.797 60.1977 30.8185 60.1977 30.8185C60.2405 30.8185 60.2619 30.8399 60.2619 30.8827C60.4334 30.9256 60.5834 30.9685 60.7119 31.0113C60.8833 31.0541 61.0547 31.1185 61.2262 31.2042C61.2262 31.2042 61.2476 31.2042 61.2905 31.2042C61.3334 31.247 61.3762 31.2685 61.419 31.2685C61.462 31.2685 61.5048 31.2899 61.5476 31.3328C61.5476 31.3328 61.569 31.3542 61.6119 31.397C62.1262 31.7185 62.1262 32.4256 61.7405 32.8113C61.6976 32.8541 61.6548 32.897 61.6119 32.9399C61.6119 32.9399 61.5905 32.9613 61.5476 33.0042C61.5048 33.0042 61.462 33.0256 61.419 33.0684C61.3762 33.0684 61.3334 33.0898 61.2905 33.1328C61.0977 33.197 60.9048 33.197 60.6476 33.197Z" fill="white"/>
<path d="M152.895 30.6899C152.938 30.9899 152.938 31.3114 152.895 31.6542C152.938 31.6542 152.938 31.6756 152.895 31.7185C152.895 31.7613 152.895 31.8041 152.895 31.8471C152.895 31.8899 152.895 31.9327 152.895 31.9756C152.895 31.9756 152.895 31.997 152.895 32.0399C152.767 32.6185 152.445 33.0042 151.867 33.1328C151.781 33.1756 151.674 33.197 151.545 33.197C151.459 33.197 151.374 33.197 151.288 33.197C151.159 33.197 151.052 33.197 150.966 33.197C150.881 33.1542 150.774 33.1328 150.645 33.1328C150.217 32.9613 149.938 32.6613 149.81 32.2328C149.81 32.1898 149.81 32.147 149.81 32.1042C149.766 32.0613 149.745 32.0185 149.745 31.9756C149.745 31.9327 149.745 31.8685 149.745 31.7827C149.745 31.7399 149.745 31.6971 149.745 31.6542C149.745 30.9685 149.745 30.2828 149.745 29.597C149.745 29.5542 149.745 29.5328 149.745 29.5328C149.745 29.4899 149.745 29.4685 149.745 29.4685C149.745 29.4257 149.745 29.4042 149.745 29.4042C149.745 29.4042 149.766 29.4042 149.81 29.4042C149.81 29.4042 149.831 29.4042 149.873 29.4042C149.917 29.4042 149.938 29.4042 149.938 29.4042C149.981 29.4042 150.003 29.4042 150.003 29.4042C150.045 29.4042 150.088 29.4042 150.131 29.4042C150.131 29.4471 150.131 29.4685 150.131 29.4685C150.131 29.4685 150.131 29.4899 150.131 29.5328C150.131 29.5328 150.131 29.5542 150.131 29.597C150.173 29.597 150.196 29.597 150.196 29.597C150.196 29.64 150.196 29.6614 150.196 29.6614C150.196 30.2613 150.196 30.8399 150.196 31.397C150.196 31.5256 150.196 31.6542 150.196 31.7827C150.196 32.297 150.517 32.6185 150.966 32.747C151.052 32.7899 151.117 32.8113 151.159 32.8113C151.245 32.8113 151.31 32.8113 151.352 32.8113C151.438 32.8113 151.502 32.8113 151.545 32.8113C151.631 32.7685 151.695 32.747 151.738 32.747C151.824 32.7041 151.909 32.6613 151.995 32.6185C152.081 32.5756 152.145 32.5327 152.188 32.4899C152.231 32.4042 152.274 32.3399 152.316 32.297C152.36 32.2114 152.402 32.1256 152.445 32.0399C152.445 31.997 152.445 31.9542 152.445 31.9113C152.488 31.8685 152.509 31.8256 152.509 31.7827C152.509 31.7399 152.509 31.6971 152.509 31.6542C152.509 31.6113 152.509 31.5685 152.509 31.5256C152.509 30.9257 152.509 30.347 152.509 29.7899C152.509 29.7042 152.509 29.597 152.509 29.4685C152.509 29.4257 152.531 29.4042 152.574 29.4042C152.574 29.4042 152.595 29.4042 152.638 29.4042C152.638 29.4042 152.66 29.4042 152.702 29.4042C152.702 29.4042 152.723 29.4042 152.767 29.4042C152.809 29.4042 152.831 29.4042 152.831 29.4042C152.874 29.4042 152.895 29.4042 152.895 29.4042C152.895 29.4042 152.895 29.4257 152.895 29.4685C152.895 29.5114 152.895 29.5328 152.895 29.5328C152.895 29.5328 152.895 29.5542 152.895 29.597C152.895 29.597 152.895 29.6185 152.895 29.6614C152.895 30.0042 152.895 30.347 152.895 30.6899Z" fill="white"/>
<path d="M106.097 31.4614C106.097 31.0327 106.097 30.5828 106.097 30.1113C106.097 30.1113 106.097 30.0899 106.097 30.0471C106.097 30.0471 106.097 30.0257 106.097 29.9828C106.097 29.9828 106.097 29.9613 106.097 29.9185C106.055 29.8756 106.033 29.8542 106.033 29.8542C106.033 29.8542 106.033 29.8328 106.033 29.7899C106.033 29.7899 106.012 29.7899 105.969 29.7899C105.969 29.7899 105.947 29.7899 105.905 29.7899C105.862 29.7899 105.84 29.7899 105.84 29.7899C105.626 29.7899 105.412 29.7899 105.197 29.7899C105.112 29.7899 105.026 29.7899 104.94 29.7899C104.897 29.7899 104.876 29.7685 104.876 29.7256C104.876 29.6828 104.876 29.6614 104.876 29.6614C104.876 29.6185 104.876 29.597 104.876 29.597C104.876 29.5542 104.876 29.5328 104.876 29.5328C104.876 29.5328 104.876 29.5114 104.876 29.4685C104.876 29.4257 104.876 29.4042 104.876 29.4042C104.876 29.4042 104.897 29.4042 104.94 29.4042C104.94 29.4042 104.962 29.4042 105.005 29.4042C105.005 29.4042 105.026 29.4042 105.069 29.4042C105.883 29.4042 106.697 29.4042 107.512 29.4042C107.555 29.4042 107.576 29.4042 107.576 29.4042C107.576 29.4042 107.597 29.4042 107.64 29.4042C107.683 29.4042 107.705 29.4042 107.705 29.4042C107.747 29.4042 107.769 29.4042 107.769 29.4042C107.769 29.4042 107.769 29.4257 107.769 29.4685C107.769 29.4685 107.769 29.4899 107.769 29.5328C107.769 29.5328 107.769 29.5542 107.769 29.597C107.769 29.597 107.769 29.6185 107.769 29.6614C107.769 29.6614 107.769 29.6828 107.769 29.7256C107.726 29.7256 107.705 29.7256 107.705 29.7256C107.705 29.7685 107.705 29.7899 107.705 29.7899C107.705 29.7899 107.683 29.7899 107.64 29.7899C107.64 29.7899 107.619 29.7899 107.576 29.7899C107.319 29.7899 107.062 29.7899 106.805 29.7899C106.805 29.7899 106.783 29.7899 106.74 29.7899C106.697 29.7899 106.676 29.7899 106.676 29.7899C106.676 29.7899 106.655 29.7899 106.612 29.7899C106.612 29.7899 106.59 29.8114 106.547 29.8542C106.547 29.9828 106.547 30.0899 106.547 30.1757C106.547 31.0327 106.547 31.8899 106.547 32.747C106.547 32.8327 106.547 32.9399 106.547 33.0684C106.547 33.1113 106.526 33.1328 106.483 33.1328C106.483 33.1328 106.483 33.1542 106.483 33.197C106.483 33.197 106.462 33.197 106.419 33.197C106.376 33.197 106.333 33.197 106.29 33.197C106.162 33.197 106.097 33.197 106.097 33.0042C106.097 32.9184 106.097 32.8327 106.097 32.747V31.4614Z" fill="white"/>
<path d="M126.218 31.2684C126.218 30.7542 126.218 30.2185 126.218 29.6614C126.218 29.6614 126.218 29.64 126.218 29.597C126.218 29.597 126.218 29.5756 126.218 29.5328C126.218 29.4899 126.239 29.4685 126.282 29.4685C126.282 29.4685 126.282 29.4471 126.282 29.4042C126.325 29.4042 126.367 29.4042 126.411 29.4042C126.411 29.4042 126.432 29.4042 126.474 29.4042C126.474 29.4042 126.497 29.4042 126.539 29.4042C126.539 29.4042 126.56 29.4042 126.604 29.4042C126.604 29.4042 126.625 29.4042 126.667 29.4042C126.667 29.4042 126.667 29.4257 126.667 29.4685C126.667 29.5542 126.667 29.6614 126.667 29.7899C126.667 30.5614 126.667 31.3114 126.667 32.0399C126.667 32.6827 126.667 32.747 126.732 32.747C126.925 32.8113 127.182 32.8113 127.374 32.8113C127.632 32.8113 127.867 32.8113 128.082 32.8113C128.125 32.8113 128.146 32.8113 128.146 32.8113C128.146 32.8113 128.168 32.8113 128.211 32.8113C128.253 32.8113 128.275 32.8113 128.275 32.8113C128.275 32.8542 128.275 32.8756 128.275 32.8756C128.318 32.8756 128.339 32.8756 128.339 32.8756C128.339 32.8756 128.339 32.897 128.339 32.9399C128.339 32.9399 128.339 32.9613 128.339 33.0042C128.339 33.047 128.339 33.0684 128.339 33.0684C128.339 33.1113 128.339 33.1328 128.339 33.1328C128.296 33.1328 128.275 33.1328 128.275 33.1328C128.275 33.1328 128.275 33.1542 128.275 33.197C128.232 33.197 128.211 33.197 128.211 33.197C128.211 33.197 128.189 33.197 128.146 33.197C127.589 33.197 127.011 33.197 126.411 33.197C126.411 33.197 126.389 33.197 126.346 33.197C126.304 33.197 126.282 33.197 126.282 33.197C126.282 33.1542 126.282 33.1328 126.282 33.1328C126.239 33.1328 126.218 33.1328 126.218 33.1328C126.218 33.0898 126.218 33.0684 126.218 33.0684C126.218 33.0256 126.218 32.9828 126.218 32.9399C126.218 32.9399 126.218 32.9184 126.218 32.8756C126.218 32.8756 126.218 32.8542 126.218 32.8113C126.218 32.297 126.218 31.7827 126.218 31.2684Z" fill="white"/>
<path d="M83.533 31.3328C83.533 31.8471 83.533 32.3827 83.533 32.9399C83.533 32.9828 83.533 33.0042 83.533 33.0042C83.533 33.047 83.533 33.0684 83.533 33.0684C83.533 33.0684 83.533 33.0898 83.533 33.1328C83.533 33.1328 83.5115 33.1328 83.4687 33.1328C83.4687 33.1756 83.4687 33.197 83.4687 33.197C83.4259 33.197 83.4045 33.197 83.4045 33.197C83.3615 33.197 83.3401 33.197 83.3401 33.197C83.2973 33.197 83.2759 33.197 83.2759 33.197C83.233 33.197 83.2116 33.197 83.2116 33.197C83.1687 33.197 83.1473 33.197 83.1473 33.197C83.1473 33.197 83.1473 33.1756 83.1473 33.1328C83.1473 33.1328 83.1258 33.1113 83.083 33.0684C83.083 32.9828 83.083 32.897 83.083 32.8113C83.083 31.7827 83.083 30.7756 83.083 29.7899C83.083 29.7042 83.083 29.597 83.083 29.4685C83.1258 29.4685 83.1473 29.4685 83.1473 29.4685C83.1473 29.4257 83.1473 29.4042 83.1473 29.4042C83.1473 29.4042 83.1687 29.4042 83.2116 29.4042C83.2544 29.4042 83.2759 29.4042 83.2759 29.4042C83.2759 29.4042 83.2973 29.4042 83.3401 29.4042C83.3401 29.4042 83.3615 29.4042 83.4045 29.4042C83.4045 29.4042 83.4259 29.4042 83.4687 29.4042C83.5115 29.4042 83.533 29.4257 83.533 29.4685C83.533 29.4685 83.533 29.4899 83.533 29.5328C83.533 29.5328 83.533 29.5542 83.533 29.597C83.533 29.64 83.533 29.6614 83.533 29.6614C83.533 29.7042 83.533 29.7256 83.533 29.7256C83.533 30.2828 83.533 30.8185 83.533 31.3328Z" fill="white"/>
<path d="M162.151 31.2684C162.151 30.7542 162.151 30.2185 162.151 29.6614C162.151 29.6614 162.151 29.64 162.151 29.597C162.151 29.5542 162.151 29.5328 162.151 29.5328C162.194 29.4899 162.216 29.4685 162.216 29.4685C162.216 29.4685 162.216 29.4471 162.216 29.4042C162.258 29.4042 162.301 29.4042 162.344 29.4042C162.344 29.4042 162.366 29.4042 162.408 29.4042C162.408 29.4042 162.43 29.4042 162.473 29.4042C162.516 29.4042 162.537 29.4042 162.537 29.4042C162.537 29.4042 162.558 29.4042 162.601 29.4042C162.601 29.4042 162.601 29.4257 162.601 29.4685C162.601 29.4685 162.601 29.4899 162.601 29.5328C162.601 29.5328 162.601 29.5542 162.601 29.597C162.601 29.7256 162.601 29.8542 162.601 29.9828V32.6827C162.601 32.8113 162.601 32.9399 162.601 33.0684C162.601 33.1542 162.537 33.197 162.408 33.197C162.366 33.197 162.323 33.197 162.28 33.197C162.28 33.197 162.258 33.197 162.216 33.197C162.216 33.1542 162.216 33.1328 162.216 33.1328C162.216 33.0898 162.194 33.0684 162.151 33.0684C162.151 33.0256 162.151 33.0042 162.151 33.0042C162.151 32.9613 162.151 32.9399 162.151 32.9399C162.151 32.897 162.151 32.8756 162.151 32.8756C162.151 32.3184 162.151 31.7827 162.151 31.2684Z" fill="white"/>
</g>
</g>
<defs>
<clipPath id="clip0_339_152">
<rect width="165.934" height="48.2367" fill="white" transform="translate(24.4131 18.219)"/>
</clipPath>
<clipPath id="clip1_339_152">
<rect width="165.934" height="48.2367" fill="white" transform="translate(24.4131 18.219)"/>
</clipPath>
</defs>
</svg>
