<svg width="54" height="48" viewBox="0 0 54 48" fill="none" xmlns="http://www.w3.org/2000/svg">
<path d="M19.0414 32.001L20.959 30.8301C21.6293 31.2374 22.376 31.5429 23.165 31.7465L23.6911 33.9356H26.6778L27.2038 31.7465C27.9929 31.5429 28.7311 31.2374 29.4014 30.8301L31.3275 32.001L33.4402 29.8883L32.2693 27.9707C32.6681 27.292 32.982 26.5538 33.1772 25.7647L35.3663 25.2386V22.252L33.1772 21.7259C32.982 20.9368 32.6681 20.1986 32.2693 19.5198L33.4402 17.6023L31.3275 15.4895L29.4014 16.6604C28.7311 16.2617 27.9929 15.9477 27.2038 15.7441L26.6778 13.5635H23.6911L23.165 15.7441C22.376 15.9477 21.6293 16.2532 20.959 16.6604L19.0414 15.4895L16.9202 17.6023L18.0996 19.5198C17.6923 20.1986 17.3869 20.9368 17.1832 21.7259L14.9941 22.252V25.2386L17.1832 25.7647C17.3869 26.5538 17.6923 27.292 18.0996 27.9707L16.9202 29.8883L19.0414 32.001ZM25.1929 19.9865C27.2717 19.9865 28.9517 21.6665 28.9517 23.7453C28.9517 25.8326 27.2717 27.5126 25.1929 27.5126C23.1057 27.5126 21.4257 25.8241 21.4257 23.7453C21.4172 21.675 23.1057 19.9865 25.1929 19.9865Z" fill="#274DA1"/>
<path d="M44.6838 14.6157C48.5189 14.6157 51.6244 11.5103 51.6244 7.6751C51.6244 3.83995 48.5189 0.734497 44.6838 0.734497C40.8486 0.734497 37.7432 3.83995 37.7432 7.6751C37.7432 11.5103 40.8486 14.6157 44.6838 14.6157ZM41.5698 7.60723C41.9007 7.27632 42.4353 7.27632 42.7662 7.60723L43.4789 8.32844L46.5844 5.22298C46.9153 4.89207 47.4498 4.89207 47.7807 5.22298C48.1117 5.55389 48.1117 6.08844 47.7807 6.41935L44.0729 10.1272C43.9116 10.2884 43.6995 10.3733 43.4704 10.3733C43.2413 10.3733 43.0292 10.28 42.868 10.1272L41.5529 8.81207C41.2389 8.48116 41.2389 7.93813 41.5698 7.60723Z" fill="#274DA1"/>
<path d="M7.98575 38.7552C7.67181 38.3988 7.38333 38.017 7.09484 37.6437H0.697266V44.8982H16.5894C13.3227 43.5661 10.3615 41.4788 7.98575 38.7552Z" fill="#274DA1"/>
<path d="M53.3047 41.2582L46.3302 35.2764V37.6352H25.1859C22.4708 37.6352 19.9508 36.8461 17.8126 35.4885C13.9096 33.0279 11.2962 28.6922 11.2962 23.754C11.2962 18.7988 13.9096 14.4631 17.8211 12.0025C19.9508 10.6534 22.4793 9.86429 25.1859 9.86429C32.8477 9.86429 39.0756 16.0837 39.0756 23.754C39.0756 28.9891 36.1484 33.5625 31.8465 35.9297H42.4526C44.8962 32.4849 46.3302 28.2764 46.3302 23.754C46.3302 21.1237 45.8465 18.6122 44.9641 16.2873C44.8708 16.2873 44.7774 16.3043 44.6756 16.3043C39.9156 16.3043 36.0381 12.4352 36.0381 7.66671C36.0381 7.00489 36.1229 6.36853 36.2587 5.74914C33.0344 3.7552 29.2417 2.60974 25.1774 2.60974C13.5193 2.60974 4.0332 12.0873 4.0332 23.754C4.0332 29.057 6.01017 33.9188 9.25139 37.6352C13.1374 42.0728 18.8308 44.8897 25.1774 44.8897H46.3217V47.257L53.3047 41.2582Z" fill="#274DA1"/>
</svg>
