<svg width="217" height="85" viewBox="0 0 217 85" fill="none" xmlns="http://www.w3.org/2000/svg">
<g clip-path="url(#clip0_339_127)">
<g clip-path="url(#clip1_339_127)">
<path d="M37.7364 60.5463C37.5397 60.4265 37.3202 60.2977 37.1061 60.161C34.7322 58.6412 32.4948 56.9183 30.419 55.0116C29.1467 53.8454 27.9351 52.619 26.7841 51.3323C25.6257 50.042 24.5339 48.6934 23.5129 47.2919C23.1614 46.809 22.8031 46.3303 22.4967 45.8166C22.2646 45.4225 22.0653 45.01 21.9009 44.5831C21.7633 44.2302 21.6531 43.8673 21.5712 43.4975C21.5069 43.2051 21.4578 42.9096 21.4238 42.6122C21.3607 42.0742 21.3745 41.5367 21.374 40.9986C21.374 35.6366 21.374 30.2745 21.374 24.9124C21.374 24.8414 21.374 24.7709 21.374 24.7004C21.3814 24.5414 21.4196 24.5053 21.586 24.4947C21.621 24.4921 21.6565 24.4947 21.692 24.4947H53.6513C53.7574 24.4947 53.8634 24.4947 53.9694 24.4989C54.0987 24.5069 54.1449 24.552 54.156 24.676C54.1613 24.7375 54.1592 24.7995 54.1592 24.8615C54.1592 30.5063 54.158 36.1511 54.1555 41.7959C54.1575 42.167 54.1286 42.5375 54.0691 42.9038C53.9937 43.3552 53.8863 43.8008 53.7478 44.237C53.4828 45.0591 53.0746 45.8018 52.5816 46.5031C51.6465 47.8351 50.6517 49.1207 49.5972 50.3601C48.8773 51.2036 48.1316 52.024 47.3602 52.8213C46.0685 54.1559 44.706 55.42 43.2785 56.6083C41.7694 57.8649 40.1837 59.0264 38.5304 60.0862C38.2861 60.2426 38.0369 60.3916 37.7883 60.5432C37.7846 60.5453 37.7745 60.5432 37.7364 60.5463ZM51.4912 27.2533C51.3401 27.2507 51.2177 27.2464 51.0952 27.2464H24.4353C24.3557 27.2464 24.2762 27.2432 24.1967 27.2464C24.1431 27.2537 24.09 27.2643 24.0377 27.2782C24.0377 27.4134 24.0313 27.5353 24.0313 27.6578C24.0313 32.3484 24.0313 37.0392 24.0313 41.7302C24.0243 42.0652 24.052 42.4 24.114 42.7294C24.1815 43.0838 24.2746 43.4328 24.3929 43.7737C24.5497 44.2132 24.7611 44.6314 25.0221 45.0183C25.6087 45.8732 26.2254 46.7061 26.8721 47.5172C27.8365 48.7315 28.8573 49.8959 29.9344 51.0105C30.896 52.0044 31.8958 52.9586 32.9411 53.8629C34.3946 55.1276 35.932 56.2925 37.5429 57.3493C37.6171 57.3976 37.6839 57.4554 37.7756 57.4654C37.801 57.4538 37.8259 57.4448 37.8482 57.432C37.8864 57.4103 37.9235 57.3865 37.9606 57.3626C39.2331 56.5287 40.4592 55.6262 41.6336 54.6591C43.4981 53.128 45.2412 51.455 46.8476 49.6551C48.0923 48.2657 49.2533 46.8036 50.3245 45.2765C50.7311 44.6966 51.0666 44.0854 51.2574 43.3968C51.4121 42.873 51.4949 42.3308 51.5034 41.7848C51.5034 37.0407 51.5034 32.2969 51.5034 27.5533C51.5023 27.4648 51.496 27.3779 51.4912 27.2533Z" fill="white"/>
<path d="M131.444 43.8838C131.31 43.8934 131.187 43.9093 131.064 43.9098C129.783 43.9119 128.502 43.9119 127.222 43.9098C126.957 43.9098 126.691 43.8992 126.426 43.8944C126.327 43.8944 126.233 43.8775 126.158 43.781C126.284 43.4142 126.412 43.042 126.539 42.6678C126.619 42.4346 126.698 42.2008 126.777 41.9675C126.869 41.7011 126.96 41.4348 127.053 41.1687C127.171 40.8278 127.293 40.4875 127.409 40.1461C127.575 39.6638 127.736 39.1793 127.901 38.6969C128.113 38.0809 128.325 37.4655 128.537 36.8506C128.759 36.2102 128.983 35.5704 129.206 34.9311C129.374 34.4498 129.547 33.9695 129.712 33.4866C129.852 33.0789 129.98 32.6671 130.12 32.2589C130.304 31.7177 130.495 31.1786 130.683 30.6384C130.775 30.3733 130.865 30.1083 130.958 29.8406C131.042 29.5999 131.134 29.3635 131.212 29.1186C131.225 29.0625 131.258 29.0131 131.304 28.9793C131.352 28.9455 131.409 28.9297 131.466 28.9347C131.616 28.932 131.766 28.923 131.916 28.9225C133.224 28.9189 134.531 28.916 135.839 28.9135C136.21 28.9135 136.581 28.9082 136.952 28.9055C137.005 28.9055 137.058 28.9055 137.111 28.9055C137.249 28.9129 137.281 28.9384 137.311 29.0698C137.407 29.4998 137.501 29.9307 137.6 30.3601C137.698 30.7895 137.803 31.2178 137.902 31.6472C138.008 32.111 138.111 32.5764 138.22 33.0402C138.371 33.6928 138.527 34.3443 138.675 34.9973C138.781 35.4697 138.882 35.9441 138.985 36.4175C139.015 36.5553 139.047 36.6921 139.078 36.8294C139.078 36.8378 139.081 36.8468 139.083 36.8553C139.158 37.0997 139.37 37.158 139.545 36.9741C139.788 36.7191 140.022 36.4567 140.259 36.1954C141.539 34.7768 142.818 33.3581 144.097 31.9392C144.945 30.9978 145.796 30.057 146.648 29.117C146.678 29.0842 146.709 29.0529 146.737 29.0195C146.767 28.9813 146.807 28.9515 146.852 28.933C146.897 28.9144 146.946 28.9077 146.995 28.9135C147.03 28.9166 147.065 28.9135 147.101 28.9135C148.788 28.911 150.475 28.9083 152.163 28.9055C152.269 28.9055 152.371 28.9103 152.481 28.9135C152.523 29.0555 152.486 29.1737 152.448 29.2882C152.221 29.9742 151.989 30.6585 151.759 31.3445C151.62 31.7627 151.494 32.1841 151.35 32.6013C151.158 33.1685 150.956 33.7325 150.763 34.2976C150.621 34.7137 150.488 35.1336 150.345 35.5497C150.203 35.9658 150.048 36.3782 149.906 36.7949C149.712 37.3616 149.527 37.9309 149.334 38.4981C149.195 38.9063 149.048 39.3112 148.907 39.7173C148.801 40.0168 148.706 40.3184 148.602 40.6185C148.458 41.034 148.309 41.4475 148.166 41.8631C148.06 42.1631 147.966 42.4653 147.864 42.7643C147.763 43.0632 147.661 43.3643 147.556 43.6654C147.531 43.7391 147.491 43.808 147.45 43.8923C147.362 43.8971 147.275 43.905 147.185 43.9056C146.32 43.9094 145.454 43.9128 144.588 43.9156C144.049 43.9183 143.51 43.9257 142.972 43.9278C142.877 43.9278 142.776 43.9496 142.682 43.8663C142.684 43.8087 142.691 43.7514 142.703 43.6951C142.842 43.2589 142.983 42.8231 143.125 42.3879C143.308 41.8264 143.492 41.2653 143.676 40.7049C143.841 40.2027 144.006 39.7012 144.174 39.2005C144.238 39.0086 144.312 38.8199 144.379 38.6285C144.398 38.5701 144.414 38.5104 144.425 38.4498C144.427 38.4245 144.425 38.399 144.419 38.374C144.409 38.3622 144.397 38.3528 144.382 38.3464C144.368 38.3401 144.353 38.3369 144.337 38.3373C144.321 38.3376 144.306 38.3413 144.292 38.3482C144.278 38.3551 144.266 38.365 144.256 38.3772C144.211 38.4186 144.169 38.4642 144.128 38.5097C143.271 39.4565 142.415 40.4032 141.558 41.35C140.868 42.1144 140.179 42.8793 139.491 43.6448C139.438 43.7036 139.38 43.7582 139.328 43.8181C139.305 43.8453 139.277 43.8672 139.245 43.8823C139.213 43.8975 139.178 43.9054 139.142 43.9056C139.089 43.9056 139.036 43.914 138.983 43.914L135.008 43.9284C134.964 43.9298 134.92 43.928 134.876 43.9231C134.782 43.9103 134.74 43.87 134.721 43.7709C134.623 43.2684 134.529 42.7637 134.432 42.2628C134.363 41.8992 134.29 41.5366 134.224 41.1729C134.167 40.8602 134.129 40.5442 134.065 40.2336C134.023 40.0354 133.988 39.8371 133.954 39.6373C133.91 39.3764 133.861 39.1162 133.812 38.8559C133.781 38.6916 133.745 38.5283 133.715 38.364C133.707 38.3203 133.687 38.2801 133.655 38.2484C133.625 38.2166 133.585 38.1949 133.541 38.1859C133.498 38.1721 133.452 38.1733 133.41 38.1895C133.369 38.2056 133.334 38.2355 133.311 38.2744C133.281 38.3172 133.257 38.3642 133.24 38.4138C133.118 38.781 132.998 39.1492 132.879 39.5185C132.714 40.0295 132.551 40.5411 132.389 41.0531C132.245 41.5058 132.1 41.9587 131.955 42.4118C131.845 42.7553 131.731 43.0972 131.618 43.4401C131.588 43.5318 131.565 43.6257 131.53 43.7158C131.505 43.7737 131.477 43.8299 131.444 43.8838Z" fill="white"/>
<path d="M95.9556 43.9051C95.927 43.9171 95.8968 43.9256 95.8661 43.9305C95.7781 43.9348 95.6895 43.9337 95.601 43.9337H89.77C89.3369 43.9337 89.3735 43.9507 89.1238 43.6014C88.4421 42.6493 87.7578 41.6998 87.0702 40.7526C86.7251 40.2749 86.38 39.7978 86.036 39.3214C86.0212 39.2999 86.0069 39.2775 85.9941 39.2546C85.9607 39.1924 85.9093 39.1417 85.8468 39.109C85.7837 39.0763 85.7126 39.0631 85.6427 39.0712C85.4492 39.0802 85.2541 39.0775 85.0596 39.0712C84.8952 39.0664 84.7945 39.1321 84.7468 39.2938C84.68 39.5122 84.5968 39.7258 84.5221 39.9421C84.3726 40.374 84.2242 40.8063 84.0763 41.2393C84.0111 41.4312 83.9554 41.6262 83.8907 41.8187C83.7444 42.2523 83.5955 42.6848 83.4476 43.1179C83.3601 43.3761 83.2726 43.6337 83.1825 43.8982C83.1157 43.9115 83.0569 43.9263 82.9975 43.9332C82.9445 43.9358 82.8915 43.9358 82.8385 43.9332C81.2837 43.9332 79.7284 43.9332 78.1737 43.9332C78.0677 43.9332 77.9616 43.9581 77.8556 43.8871C77.8546 43.8368 77.8593 43.7866 77.8705 43.7376C78.0883 43.1057 78.3104 42.4749 78.5294 41.843C78.6762 41.419 78.8172 40.9949 78.9646 40.5708C79.1061 40.1637 79.2545 39.7587 79.395 39.3516C79.5355 38.9445 79.6675 38.5337 79.8085 38.126C79.9458 37.7274 80.0915 37.3309 80.2325 36.9323C80.3736 36.5336 80.504 36.1323 80.6407 35.7321C80.7997 35.2656 80.9588 34.7993 81.1178 34.3332C81.2615 33.9176 81.4056 33.5022 81.5504 33.087C81.6945 32.6714 81.8409 32.2568 81.9829 31.8407C82.1796 31.2661 82.3725 30.6899 82.566 30.1153C82.6885 29.7569 82.8152 29.4007 82.9371 29.0429C82.9466 29.004 82.9694 28.9696 83.0018 28.9458C83.0341 28.922 83.0738 28.9102 83.1136 28.9125H83.3256H100.285C100.365 28.9125 100.444 28.9093 100.524 28.9162C100.64 28.9268 100.695 28.9978 100.683 29.1144C100.681 29.1505 100.674 29.1861 100.663 29.2205C100.562 29.5115 100.459 29.8036 100.359 30.093C100.253 30.3925 100.152 30.6925 100.049 30.9942C99.9403 31.3122 99.8317 31.6283 99.7225 31.9425C99.5825 32.3501 99.4442 32.7583 99.3032 33.1654C99.1622 33.5725 99.0116 33.9945 98.868 34.4101C98.7328 34.8013 98.6029 35.193 98.4672 35.5848C98.3024 36.0678 98.137 36.5507 97.9716 37.0335C97.8809 37.2985 97.7929 37.5668 97.6996 37.8324C97.6064 38.0979 97.5189 38.3624 97.362 38.6031C96.8955 39.3145 96.2292 39.6633 95.3895 39.6999C95.1605 39.7094 94.9304 39.6999 94.7004 39.6999C94.6299 39.6999 94.5594 39.7046 94.4883 39.7068C94.1978 39.7168 93.989 40.0704 94.103 40.3015C94.1295 40.3545 94.1523 40.4134 94.1809 40.4674C94.7507 41.5393 95.3211 42.611 95.892 43.6825C95.9366 43.7461 96.0018 43.8049 95.9556 43.9051ZM93.7224 32.9067C93.6004 32.8452 93.4748 32.8638 93.3513 32.8638C91.3465 32.8638 89.3417 32.8638 87.3374 32.8638C87.2664 32.8638 87.1959 32.867 87.1254 32.8638C86.9631 32.8611 86.8603 32.9428 86.8073 33.0912C86.7543 33.2396 86.6944 33.3865 86.6424 33.5359C86.503 33.9346 86.3684 34.3343 86.2279 34.7329C86.0874 35.1315 85.9427 35.528 85.8001 35.9245C85.6814 36.2553 85.5632 36.5863 85.445 36.9174C85.3856 37.0839 85.3241 37.2493 85.2748 37.4184C85.2594 37.4857 85.2578 37.5555 85.27 37.6235C85.2743 37.6361 85.2812 37.6476 85.2902 37.6572C85.2992 37.6668 85.3103 37.6743 85.323 37.6791C85.3352 37.6838 85.3485 37.6858 85.3617 37.6848C85.375 37.6838 85.3877 37.6799 85.3994 37.6733C85.4556 37.632 85.5054 37.5821 85.5584 37.5392C85.7588 37.3802 85.9533 37.2159 86.1627 37.0701C86.8455 36.5956 87.6141 36.3152 88.4209 36.152C88.8275 36.0664 89.2415 36.0229 89.6565 36.0221C90.5307 36.0279 91.4059 36.0221 92.2794 36.0221C92.359 36.0246 92.4385 36.0228 92.5175 36.0168C92.5885 36.0117 92.6563 35.9852 92.7115 35.9408C92.7671 35.8964 92.8079 35.8362 92.8286 35.7682C92.9622 35.3865 93.0884 35.0022 93.2214 34.6205C93.3274 34.3136 93.443 34.0088 93.5527 33.7024C93.6116 33.5365 93.6693 33.3706 93.7224 33.203C93.7579 33.1145 93.795 33.0207 93.7224 32.9067Z" fill="white"/>
<path d="M105.414 43.9158C105.52 43.5119 105.675 43.1408 105.797 42.7586C105.922 42.3647 106.072 41.9788 106.209 41.5887C106.343 41.207 106.476 40.8249 106.608 40.4421C106.74 40.0589 106.868 39.675 106.999 39.2918C107.134 38.9006 107.27 38.5099 107.405 38.1192C107.538 37.7369 107.671 37.3545 107.804 36.9721C107.936 36.5894 108.069 36.2061 108.2 35.8239C108.331 35.4417 108.465 35.0596 108.599 34.6774C108.736 34.2867 108.872 33.8965 109.007 33.5053C109.138 33.1226 109.265 32.7382 109.396 32.3555C109.528 31.9728 109.661 31.5911 109.796 31.2094C109.933 30.8198 110.076 30.4323 110.209 30.0432C110.34 29.661 110.454 29.272 110.618 28.8914C110.678 28.8776 110.737 28.8611 110.796 28.8511C110.832 28.8481 110.867 28.8481 110.902 28.8511C112.687 28.8511 114.472 28.8511 116.256 28.8511C116.549 28.8511 116.574 28.8855 116.481 29.1516C116.242 29.8407 116.001 30.5299 115.763 31.2217C115.536 31.8785 115.315 32.5373 115.086 33.1936C114.889 33.7587 114.685 34.3211 114.488 34.8857C114.3 35.4259 114.117 35.9681 113.932 36.5093C113.736 37.0834 113.541 37.658 113.343 38.2316C113.207 38.6223 113.066 39.0108 112.929 39.401C112.902 39.4756 112.88 39.5524 112.866 39.6305C112.857 39.6762 112.857 39.7232 112.867 39.7687C112.877 39.8141 112.897 39.857 112.924 39.8948C112.951 39.9325 112.986 39.9641 113.026 39.988C113.066 40.0117 113.11 40.027 113.157 40.0329C113.227 40.0412 113.298 40.0442 113.369 40.0419H119.172C119.242 40.0419 119.313 40.0419 119.384 40.036C119.692 40.0085 119.908 39.8457 120.039 39.5701C120.088 39.4567 120.131 39.3409 120.168 39.2229C120.327 38.7575 120.491 38.2926 120.645 37.8255C120.751 37.4995 120.847 37.1693 120.956 36.8438C121.094 36.4356 121.244 36.0312 121.38 35.6246C121.521 35.208 121.653 34.7881 121.793 34.3715C121.934 33.9548 122.082 33.5403 122.224 33.1241C122.29 32.9328 122.349 32.7388 122.414 32.5463C122.561 32.1138 122.711 31.6823 122.857 31.2492C122.925 31.0488 122.985 30.8458 123.052 30.6454C123.199 30.2118 123.348 29.7793 123.495 29.3462C123.532 29.2402 123.569 29.1299 123.601 29.0212C123.616 28.9747 123.645 28.9341 123.684 28.9049C123.723 28.8758 123.771 28.8595 123.82 28.8585C123.881 28.8529 123.943 28.8509 124.005 28.8527C125.719 28.8527 127.433 28.8527 129.147 28.8527C129.234 28.8519 129.322 28.8619 129.407 28.8824C129.427 28.8865 129.446 28.895 129.462 28.907C129.478 28.9192 129.491 28.9347 129.501 28.9525C129.511 28.9703 129.516 28.9899 129.517 29.0102C129.519 29.0304 129.516 29.0506 129.508 29.0695C129.455 29.255 129.392 29.4405 129.33 29.6223C129.178 30.0634 129.025 30.5039 128.871 30.9439C128.712 31.3923 128.553 31.8403 128.398 32.2892C128.256 32.6964 128.118 33.1056 127.974 33.5128C127.831 33.9199 127.678 34.3397 127.532 34.7548C127.401 35.1258 127.275 35.5037 127.145 35.878C127.026 36.2188 126.903 36.5581 126.786 36.8995C126.684 37.199 126.589 37.5011 126.486 37.8006C126.354 38.1834 126.218 38.564 126.085 38.9467C125.969 39.2791 125.859 39.6135 125.742 39.9454C125.598 40.3514 125.449 40.7548 125.305 41.1609C125.205 41.4434 125.113 41.7286 125.014 42.0117C124.901 42.3356 124.785 42.6584 124.671 42.9823C124.575 43.2563 124.477 43.5299 124.389 43.8066C124.379 43.8542 124.351 43.8962 124.311 43.9247C124.271 43.9532 124.223 43.9662 124.174 43.9614H123.989C117.91 43.9614 111.832 43.9614 105.753 43.9614C105.658 43.9582 105.55 43.9757 105.414 43.9158Z" fill="white"/>
<path d="M181.346 43.8839C181.421 43.6671 181.488 43.4688 181.558 43.2711C181.728 42.7898 181.899 42.3085 182.07 41.8271C182.212 41.4301 182.36 41.0346 182.501 40.6365C182.607 40.3381 182.703 40.0365 182.809 39.7354C182.947 39.3458 183.087 38.9572 183.233 38.5692C183.273 38.4777 183.284 38.3761 183.264 38.2782C183.215 38.2614 183.164 38.249 183.113 38.2411C183.025 38.2347 182.937 38.2373 182.848 38.2373H176.752C176.663 38.2373 176.575 38.2373 176.487 38.2411C176.429 38.2396 176.372 38.2572 176.325 38.291C176.278 38.3249 176.244 38.3733 176.227 38.4287C176.218 38.4531 176.205 38.477 176.196 38.5019C176.064 38.8941 175.935 39.2869 175.801 39.6787C175.659 40.0953 175.513 40.5104 175.371 40.927C175.227 41.3511 175.088 41.7789 174.947 42.204C174.814 42.5963 174.678 42.9865 174.544 43.3777C174.521 43.4439 174.499 43.5107 174.476 43.577L174.356 43.9115C174.259 43.9184 174.173 43.93 174.087 43.9305C172.373 43.9305 170.659 43.9305 168.945 43.9305C168.86 43.9305 168.767 43.9528 168.68 43.8733C168.706 43.78 168.733 43.6793 168.764 43.5817C168.902 43.1831 169.045 42.7866 169.184 42.3869C169.29 42.0874 169.387 41.7863 169.491 41.4858C169.64 41.0532 169.794 40.6222 169.941 40.1886C170.136 39.6135 170.324 39.0362 170.521 38.4616C170.661 38.0539 170.813 37.6511 170.953 37.2424C171.093 36.8337 171.221 36.4234 171.36 36.0152C171.462 35.7152 171.572 35.4183 171.678 35.1193C171.784 34.8204 171.883 34.5198 171.986 34.2208C172.134 33.7968 172.286 33.3727 172.431 32.9486C172.575 32.5245 172.705 32.1121 172.845 31.6955C172.969 31.3286 173.097 30.9634 173.224 30.5976C173.395 30.1072 173.566 29.6168 173.738 29.1266C173.746 29.0924 173.757 29.0587 173.77 29.0259C173.782 28.9928 173.805 28.9643 173.834 28.944C173.863 28.9237 173.897 28.9125 173.933 28.9119C173.995 28.9119 174.057 28.9119 174.118 28.9119H179.154C179.25 28.9119 179.346 28.9167 179.428 28.9188C179.491 29.0047 179.461 29.0689 179.438 29.1362C179.317 29.4855 179.2 29.8354 179.08 30.1847C178.914 30.6671 178.745 31.1484 178.579 31.6313C178.367 32.2473 178.157 32.8636 177.949 33.4803C177.878 33.6881 177.804 33.8948 177.733 34.1032C177.717 34.1535 177.705 34.2051 177.697 34.2574C177.691 34.2788 177.69 34.3012 177.694 34.3229C177.699 34.3447 177.708 34.3652 177.721 34.3829C177.734 34.4007 177.751 34.4154 177.771 34.4258C177.79 34.4361 177.812 34.442 177.834 34.4429C177.913 34.4496 177.992 34.4517 178.072 34.4493C178.92 34.4493 179.768 34.4493 180.616 34.4493C180.899 34.4493 181.182 34.4493 181.464 34.4721C182.361 34.549 183.097 34.9322 183.646 35.6542C183.71 35.7385 183.765 35.8291 183.824 35.9161C183.866 35.976 183.913 36.0338 183.995 36.0152C184.025 36.0066 184.052 35.9897 184.073 35.9664C184.094 35.9432 184.108 35.9145 184.113 35.8837C184.135 35.8079 184.161 35.7327 184.186 35.6574C184.331 35.2333 184.476 34.8092 184.622 34.3852C184.756 33.9943 184.889 33.6033 185.024 33.2121C185.137 32.8792 185.253 32.5468 185.366 32.2139C185.502 31.8137 185.634 31.4129 185.771 31.0127C185.882 30.6883 185.997 30.3649 186.108 30.0405C186.211 29.7405 186.308 29.4389 186.412 29.1394C186.442 29.0653 186.474 28.9927 186.511 28.922C186.752 28.9029 186.981 28.9146 187.209 28.9125C187.437 28.9104 187.668 28.9125 187.898 28.9125H190.627C190.857 28.9125 191.087 28.9072 191.316 28.9125C191.546 28.9178 191.772 28.8812 192 28.939C192.022 29.0593 191.98 29.1616 191.947 29.257C191.719 29.9234 191.48 30.586 191.25 31.2518C191.023 31.9091 190.804 32.5691 190.579 33.2269C190.354 33.8848 190.119 34.5574 189.89 35.2227C189.636 35.9542 189.38 36.6852 189.13 37.4178C188.988 37.8334 188.858 38.2538 188.716 38.6699C188.517 39.253 188.313 39.8335 188.109 40.4144C187.958 40.8459 187.801 41.2758 187.653 41.7089C187.511 42.1256 187.379 42.5449 187.239 42.9621C187.152 43.2208 187.062 43.4784 186.971 43.7355C186.914 43.8945 186.875 43.9215 186.698 43.9274C186.645 43.9274 186.592 43.9274 186.539 43.9274C184.922 43.9274 183.305 43.9274 181.689 43.9274C181.584 43.9337 181.476 43.9528 181.346 43.8839Z" fill="white"/>
<path d="M154.352 28.9171C154.452 28.914 154.539 28.9092 154.627 28.9092H171.138C171.297 28.9092 171.451 28.9092 171.595 29.0057C171.766 29.1207 171.892 29.2606 171.904 29.4705C171.914 29.6021 171.904 29.7343 171.875 29.8628C171.826 30.059 171.749 30.2482 171.683 30.4396C171.568 30.7721 171.452 31.1043 171.337 31.4361C171.238 31.7189 171.139 32.0016 171.039 32.2843C170.933 32.5833 170.827 32.8812 170.721 33.1801C170.579 33.5878 170.44 33.996 170.297 34.4036C170.191 34.711 170.08 35.0174 169.972 35.3249C169.82 35.7559 169.667 36.1863 169.517 36.6183C169.382 37.009 169.245 37.3997 169.118 37.793C168.91 38.4429 168.55 38.982 167.981 39.3684C167.53 39.6807 166.993 39.846 166.444 39.8418C163.193 39.8383 159.941 39.8383 156.69 39.8418C156.611 39.8418 156.531 39.8455 156.452 39.8418C156.158 39.8243 155.831 40.0369 155.718 40.3809C155.514 40.9995 155.303 41.6155 155.099 42.2363C154.959 42.6603 154.827 43.0913 154.69 43.5185C154.659 43.6187 154.621 43.7179 154.588 43.818C154.58 43.8481 154.562 43.8749 154.538 43.895C154.514 43.915 154.485 43.9274 154.454 43.9304C154.383 43.9377 154.313 43.9407 154.242 43.9394C152.661 43.9394 151.079 43.9394 149.498 43.9394C149.403 43.9394 149.303 43.9612 149.207 43.8928C149.212 43.7808 149.236 43.6705 149.277 43.5663C149.394 43.2153 149.511 42.8649 149.634 42.5161C149.865 41.8604 150.102 41.2073 150.33 40.5511C150.472 40.144 150.599 39.7316 150.738 39.3239C150.926 38.7742 151.121 38.2272 151.311 37.6806C151.457 37.2566 151.599 36.8325 151.745 36.4084C151.842 36.1253 151.943 35.8439 152.04 35.5603C152.189 35.1277 152.335 34.6941 152.486 34.2621C152.628 33.8555 152.778 33.451 152.919 33.0428C153.109 32.4937 153.294 31.9429 153.483 31.3932C153.631 30.9606 153.783 30.5291 153.932 30.0966C154.032 29.805 154.127 29.5135 154.229 29.2209C154.264 29.1154 154.311 29.0189 154.352 28.9171ZM156.859 37.696C156.915 37.6488 156.976 37.6006 157.034 37.5486C157.271 37.3385 157.524 37.1469 157.791 36.9756C158.444 36.5563 159.165 36.3034 159.919 36.1518C160.317 36.0676 160.722 36.0246 161.128 36.0236C162.001 36.0299 162.877 36.0236 163.749 36.0236C163.82 36.0236 163.89 36.0236 163.961 36.0236C164.041 36.0271 164.12 36.003 164.184 35.9553C164.249 35.9077 164.295 35.8394 164.315 35.7617C164.397 35.5205 164.486 35.2814 164.571 35.0413C164.673 34.7512 164.774 34.4611 164.876 34.1709C164.988 33.8475 165.101 33.5239 165.213 33.1998C165.231 33.1506 165.243 33.0992 165.248 33.0471C165.252 33.0274 165.252 33.0071 165.247 32.9876C165.242 32.968 165.234 32.9497 165.221 32.9338C165.209 32.9179 165.194 32.9049 165.176 32.8955C165.158 32.8862 165.138 32.8807 165.118 32.8796C165.022 32.8677 164.925 32.8624 164.828 32.8637H158.817C158.746 32.8637 158.676 32.8637 158.605 32.8637C158.449 32.8674 158.345 32.9289 158.291 33.09C158.147 33.5141 157.989 33.9334 157.839 34.3554C157.733 34.6538 157.63 34.9538 157.525 35.2523C157.383 35.6583 157.239 36.0647 157.092 36.4715C157.012 36.6952 156.928 36.9173 156.848 37.1405C156.809 37.2465 156.77 37.3525 156.738 37.4644C156.706 37.5762 156.728 37.6149 156.859 37.696Z" fill="white"/>
<path d="M81.2344 28.9597C81.2159 29.036 81.2037 29.1134 81.1787 29.186C80.796 30.2914 80.4122 31.3964 80.0269 32.5007C80.0041 32.544 79.976 32.5842 79.9431 32.6205C79.8429 32.6205 79.7374 32.6253 79.6325 32.6253H74.6496C74.5791 32.6253 74.5086 32.6253 74.4376 32.6253C74.375 32.6209 74.313 32.6376 74.2616 32.6726C74.2096 32.7075 74.1709 32.7588 74.1518 32.8182C74.0956 32.9571 74.0416 33.0971 73.9928 33.2386C73.7839 33.8461 73.5767 34.4543 73.371 35.0632C73.2295 35.4793 73.0916 35.8975 72.9469 36.3131C72.8091 36.7118 72.6623 37.1083 72.5229 37.5058C72.3824 37.9135 72.2499 38.3238 72.1094 38.7314C71.9117 39.3055 71.7092 39.878 71.5098 40.4521C71.4118 40.7346 71.3174 41.0182 71.2215 41.3003C71.0529 41.8007 70.8875 42.3016 70.7158 42.8009C70.5923 43.1588 70.4597 43.5134 70.3251 43.8866C70.2721 43.9047 70.218 43.919 70.1629 43.9295C70.1014 43.9344 70.0394 43.9352 69.9779 43.9322C68.3522 43.9322 66.7267 43.9322 65.101 43.9322C64.9892 43.9322 64.8731 43.9497 64.7702 43.9004C64.7384 43.7943 64.7888 43.7138 64.8164 43.6353C64.9876 43.1365 65.1678 42.6403 65.3412 42.142C65.4503 41.824 65.55 41.5059 65.6592 41.1905C65.7938 40.7993 65.9343 40.4102 66.0716 40.0201C66.1776 39.7211 66.2837 39.4221 66.3844 39.1226C66.4851 38.8231 66.5847 38.5215 66.6886 38.2215C66.7947 37.914 66.9102 37.6087 67.0178 37.3012C67.1313 36.9779 67.2399 36.6524 67.3507 36.328C67.4928 35.9119 67.6333 35.4947 67.7785 35.0796C67.9174 34.681 68.0621 34.2845 68.2026 33.8869C68.3022 33.6049 68.4008 33.3224 68.4952 33.0388C68.5228 32.9641 68.5384 32.8856 68.5413 32.806C68.5413 32.7 68.4941 32.62 68.3712 32.6083C68.2832 32.5998 68.1946 32.6004 68.1061 32.6004H63.3666C63.2786 32.6004 63.19 32.6004 63.1015 32.5924C63.0859 32.592 63.0707 32.5879 63.0569 32.5804C63.0432 32.573 63.0315 32.5624 63.0228 32.5494C63.014 32.5365 63.0085 32.5218 63.0066 32.5063C63.0047 32.4907 63.0065 32.4751 63.0119 32.4604C63.0713 32.2759 63.1329 32.0922 63.1969 31.9091C63.3973 31.3361 63.6003 30.7641 63.8007 30.1911C63.9316 29.82 64.0578 29.4426 64.1914 29.0705C64.2202 29.015 64.2558 28.9634 64.2974 28.9167C69.9201 28.9167 75.5391 28.9167 81.1544 28.9167C81.1756 28.9178 81.1973 28.9401 81.2344 28.9597Z" fill="white"/>
<path d="M97.834 43.8954C97.8377 43.8465 97.8451 43.798 97.8562 43.7502C97.9676 43.4348 98.0831 43.1215 98.1939 42.8056C98.3423 42.3815 98.4892 41.9574 98.6344 41.5333C98.7452 41.2084 98.8496 40.8813 98.9604 40.5559C99.0818 40.198 99.2069 39.8413 99.3315 39.484C99.5107 38.9688 99.6925 38.454 99.8701 37.9383C100.062 37.3806 100.247 36.8208 100.441 36.2637C100.64 35.6901 100.849 35.1198 101.048 34.5462C101.293 33.8401 101.533 33.1319 101.777 32.4258C101.936 31.9694 102.098 31.5141 102.254 31.0566C102.447 30.4899 102.635 29.9217 102.826 29.3539C102.862 29.2479 102.898 29.1366 102.939 29.03C102.95 28.9961 102.971 28.9664 103 28.9452C103.028 28.924 103.063 28.9123 103.098 28.9118C103.16 28.9118 103.222 28.9092 103.284 28.9092H108.426C108.521 28.9092 108.617 28.915 108.725 28.9187C108.732 28.9662 108.732 29.0144 108.725 29.0618C108.495 29.7181 108.259 30.3722 108.031 31.029C107.823 31.627 107.623 32.2281 107.416 32.8271C107.165 33.5597 106.908 34.2907 106.656 35.0227C106.516 35.4309 106.383 35.8412 106.242 36.2483C106.105 36.6475 105.96 37.0435 105.818 37.4426C105.683 37.8328 105.553 38.2245 105.416 38.6157C105.273 39.0313 105.128 39.4464 104.985 39.8625C104.908 40.0878 104.838 40.3152 104.761 40.5405C104.661 40.832 104.559 41.1236 104.457 41.4135C104.347 41.7316 104.236 42.0449 104.126 42.3603C104.033 42.6257 103.942 42.8917 103.851 43.1581C103.783 43.3579 103.716 43.5588 103.649 43.7592C103.602 43.8965 103.565 43.9246 103.42 43.9326C103.367 43.9357 103.314 43.9326 103.261 43.9326H98.1722C98.0699 43.9336 97.9639 43.9474 97.834 43.8954Z" fill="white"/>
<path d="M160.22 49.6604C160.098 50.0192 159.977 50.3771 159.854 50.7343C159.709 51.1584 159.563 51.5825 159.416 52.0066C159.271 52.4221 159.12 52.8351 158.977 53.2512C158.786 53.8083 158.6 54.3676 158.409 54.9253C158.288 55.2836 158.162 55.6409 158.042 55.9992C158.022 56.0764 157.974 56.1434 157.907 56.1869C157.3 56.225 156.037 56.2091 155.836 56.1567C155.835 56.1157 155.839 56.0747 155.848 56.0347C156.033 55.5306 156.222 55.0276 156.408 54.524C156.482 54.3268 156.556 54.1291 156.62 53.9292C156.625 53.9088 156.625 53.8877 156.62 53.8674C156.615 53.847 156.606 53.828 156.593 53.8115C156.584 53.8015 156.574 53.7933 156.562 53.7877C156.549 53.7821 156.536 53.779 156.523 53.7787C156.51 53.7784 156.496 53.7809 156.484 53.786C156.471 53.7911 156.46 53.7987 156.451 53.8083C156.398 53.8549 156.348 53.9049 156.302 53.9578C155.723 54.6215 155.146 55.2855 154.568 55.9499C154.522 56.0029 154.475 56.0559 154.426 56.1089C154.4 56.1386 154.367 56.1622 154.33 56.1779C154.294 56.1935 154.254 56.2009 154.214 56.1996C153.623 56.1996 153.031 56.1996 152.454 56.1996C152.415 56.1731 152.382 56.1383 152.358 56.0977C152.335 56.0571 152.32 56.0117 152.316 55.9648C152.249 55.6276 152.174 55.2915 152.122 54.9523C152.076 54.6554 152.012 54.3639 151.954 54.0702C151.952 54.035 151.943 54.0006 151.927 53.969C151.904 53.9347 151.871 53.9081 151.833 53.8921C151.811 53.8867 151.789 53.8891 151.77 53.8989C151.75 53.9086 151.735 53.925 151.727 53.9451C151.695 53.9979 151.668 54.0532 151.646 54.1105C151.493 54.5696 151.344 55.0302 151.192 55.4887C151.129 55.6806 151.06 55.8704 150.997 56.0623C150.988 56.1012 150.965 56.1358 150.933 56.1601C150.901 56.1844 150.862 56.1971 150.822 56.1959C150.787 56.1959 150.752 56.1959 150.716 56.1959C150.089 56.1959 149.461 56.1959 148.834 56.1959C148.774 56.1959 148.714 56.1869 148.639 56.1805C148.631 56.1292 148.631 56.077 148.639 56.0257C148.831 55.4681 149.031 54.9125 149.222 54.3554C149.448 53.6976 149.664 53.0365 149.89 52.3792C150.03 51.9716 150.186 51.5698 150.326 51.16C150.467 50.7502 150.596 50.3415 150.733 49.9323C150.755 49.8655 150.795 49.804 150.811 49.7362C150.84 49.6068 150.929 49.5708 151.044 49.5665C151.089 49.5665 151.133 49.5665 151.177 49.5665C151.857 49.5665 152.538 49.5665 153.218 49.5665C153.515 49.5665 153.536 49.5994 153.592 49.8888C153.657 50.235 153.74 50.578 153.814 50.922C153.927 51.4473 154.038 51.9732 154.15 52.4985C154.176 52.6193 154.203 52.7397 154.233 52.8589C154.241 52.8933 154.258 52.9251 154.281 52.9517C154.304 52.9782 154.334 52.9987 154.366 53.0114C154.399 53.0241 154.435 53.0285 154.47 53.0244C154.505 53.0203 154.539 53.0077 154.568 52.9878C154.637 52.9325 154.7 52.8706 154.757 52.8028C155.395 52.0995 156.034 51.3955 156.671 50.6909C156.961 50.3728 157.26 50.059 157.542 49.7325C157.586 49.6777 157.641 49.634 157.705 49.6049C157.769 49.5758 157.838 49.5621 157.908 49.5649C158.597 49.5649 159.286 49.5649 159.975 49.5649C160.056 49.5697 160.14 49.557 160.22 49.6604Z" fill="white"/>
<path d="M108.663 56.1714C108.61 56.0797 108.643 55.9949 108.672 55.9127C108.787 55.5893 108.903 55.2667 109.021 54.9447C109.057 54.8456 109.098 54.7486 109.146 54.6267C109.207 54.6092 109.269 54.5956 109.332 54.5859C109.402 54.5819 109.473 54.5819 109.544 54.5859H114.474C114.571 54.5874 114.668 54.5839 114.765 54.5753C114.84 54.5698 114.913 54.5437 114.975 54.4998C115.036 54.456 115.085 54.3961 115.115 54.3267C115.206 54.1263 115.287 53.9222 115.367 53.717C115.374 53.6961 115.377 53.6739 115.375 53.6518C115.373 53.6297 115.366 53.6083 115.356 53.5889C115.345 53.5695 115.33 53.5525 115.313 53.539C115.295 53.5256 115.275 53.516 115.253 53.5108C115.193 53.4962 115.132 53.4889 115.071 53.4891C114.929 53.4859 114.787 53.4891 114.646 53.4891H110.3C110.22 53.4891 110.141 53.4928 110.061 53.4859C110.004 53.4831 109.948 53.4672 109.897 53.4395C109.847 53.4118 109.804 53.373 109.771 53.326C109.738 53.2791 109.716 53.2252 109.706 53.1685C109.697 53.1118 109.702 53.0537 109.718 52.9988C109.771 52.8042 109.838 52.6129 109.904 52.4215C109.973 52.2216 110.048 52.0239 110.116 51.8246C110.266 51.4027 110.415 50.9802 110.564 50.5572C110.599 50.458 110.625 50.3552 110.663 50.2566C110.828 49.8325 111.144 49.6205 111.593 49.5934C111.655 49.5897 111.717 49.5934 111.779 49.5934H118.617C118.705 49.5929 118.794 49.5967 118.882 49.6051C118.92 49.6161 118.955 49.6327 118.988 49.6544C118.922 49.8717 118.861 50.0817 118.793 50.2905C118.714 50.5338 118.626 50.7734 118.55 51.0178C118.513 51.136 118.444 51.1964 118.324 51.2007C118.253 51.2033 118.183 51.2033 118.112 51.2039H113.5C113.368 51.2039 113.235 51.1917 113.103 51.1954C112.94 51.2002 112.785 51.2362 112.692 51.3899C112.664 51.4336 112.641 51.4804 112.623 51.5293C112.539 51.7801 112.457 52.0308 112.379 52.2837C112.363 52.3487 112.353 52.4148 112.348 52.4814C112.434 52.5667 112.507 52.5164 112.577 52.4872C112.691 52.44 112.801 52.3812 112.915 52.3383C113.175 52.2391 113.445 52.2238 113.722 52.2238C114.385 52.2238 115.048 52.2238 115.71 52.2238C116.266 52.2206 116.824 52.21 117.379 52.2047C117.476 52.2024 117.574 52.2081 117.67 52.2216C117.763 52.2324 117.849 52.2794 117.909 52.3526C117.968 52.4258 117.997 52.5195 117.988 52.6134C117.967 52.7613 117.931 52.9068 117.882 53.0475C117.736 53.4997 117.585 53.9487 117.434 54.4009C117.328 54.7189 117.22 55.0354 117.11 55.3503C117.067 55.4743 117.026 55.5999 116.972 55.7213C116.836 56.024 116.58 56.1597 116.265 56.2032C116.194 56.2083 116.123 56.2083 116.053 56.2032C113.694 56.2032 111.335 56.2032 108.976 56.2032C108.868 56.1968 108.76 56.2191 108.663 56.1714Z" fill="white"/>
<path d="M163.507 56.165C163.504 56.108 163.508 56.0509 163.519 55.9949C163.661 55.5777 163.809 55.1632 163.955 54.7476C163.967 54.7001 163.995 54.6583 164.035 54.6293C164.074 54.6003 164.123 54.5859 164.171 54.5885C164.251 54.5885 164.33 54.5885 164.41 54.5885H169.34C169.428 54.5885 169.517 54.5886 169.605 54.5827C169.685 54.5802 169.763 54.555 169.829 54.5101C169.896 54.4651 169.948 54.4023 169.98 54.3288C170.064 54.1449 170.148 53.9577 170.221 53.7717C170.282 53.6158 170.214 53.5162 170.043 53.4976C169.955 53.4905 169.866 53.4882 169.778 53.4907H165.166C165.086 53.4935 165.007 53.4922 164.927 53.487C164.869 53.4844 164.813 53.4686 164.763 53.441C164.712 53.4133 164.669 53.3746 164.635 53.3276C164.602 53.2805 164.58 53.2266 164.571 53.1697C164.561 53.1128 164.565 53.0546 164.581 52.9993C164.607 52.9056 164.637 52.8133 164.672 52.7226C164.82 52.2985 164.969 51.8754 165.118 51.453C165.219 51.162 165.315 50.8699 165.42 50.5789C165.48 50.4146 165.526 50.2439 165.615 50.0907C165.767 49.8331 165.983 49.6666 166.28 49.6216C166.385 49.6039 166.49 49.5948 166.595 49.594C168.91 49.594 171.225 49.594 173.54 49.594C173.635 49.594 173.734 49.5792 173.817 49.6263C173.87 49.7032 173.839 49.7721 173.817 49.8384C173.701 50.1893 173.582 50.5393 173.462 50.8885C173.43 50.9797 173.388 51.0671 173.356 51.1451C173.268 51.2124 173.178 51.2028 173.091 51.2028C172.826 51.2028 172.561 51.2028 172.296 51.2028H168.479C168.328 51.2028 168.178 51.1981 168.028 51.1949C167.71 51.188 167.571 51.2834 167.477 51.5787C167.392 51.8464 167.311 52.1151 167.23 52.3844C167.224 52.4155 167.22 52.4471 167.219 52.4788C167.301 52.562 167.378 52.5169 167.447 52.4878C167.56 52.4406 167.668 52.3818 167.783 52.3372C168.044 52.2408 168.316 52.2222 168.591 52.2227C169.218 52.2227 169.845 52.2227 170.473 52.2227C171.056 52.2196 171.639 52.209 172.222 52.2037C172.319 52.2037 172.416 52.2095 172.513 52.2153C172.564 52.2198 172.613 52.2345 172.658 52.2585C172.703 52.2824 172.742 52.3152 172.774 52.3547C172.807 52.3943 172.83 52.4399 172.844 52.4889C172.858 52.5377 172.862 52.5889 172.855 52.6394C172.851 52.7011 172.839 52.7621 172.821 52.8212C172.724 53.1144 172.624 53.4043 172.526 53.698C172.379 54.1406 172.234 54.5838 172.086 55.0264C172.014 55.2432 171.945 55.4616 171.86 55.6736C171.73 56.0012 171.466 56.1566 171.128 56.2037C171.067 56.2077 171.005 56.2077 170.943 56.2037C168.566 56.2037 166.19 56.2037 163.814 56.2037C163.715 56.1969 163.616 56.2165 163.507 56.165Z" fill="white"/>
<path d="M91.3952 49.6667C91.2706 50.13 91.0957 50.5721 90.9573 51.0259C90.9292 51.0833 90.8937 51.1368 90.8513 51.1849C90.7623 51.1886 90.6753 51.196 90.5863 51.196H85.8441C85.747 51.196 85.65 51.187 85.553 51.1865C85.2493 51.1865 85.1199 51.2771 85.0229 51.5623C84.9498 51.7791 84.875 51.9949 84.8109 52.2138C84.7839 52.3039 84.7489 52.3978 84.7754 52.4895C84.8528 52.5573 84.9185 52.5096 84.98 52.4852C85.094 52.4391 85.2026 52.3792 85.3166 52.3336C85.5414 52.2536 85.7783 52.2139 86.0169 52.2165H86.0699C87.3066 52.2094 88.5438 52.2029 89.7805 52.1968C89.8871 52.1938 89.9931 52.2002 90.0986 52.2159C90.1956 52.2327 90.2815 52.2871 90.3382 52.3673C90.3949 52.4475 90.4177 52.5469 90.4013 52.6437C90.3854 52.7396 90.361 52.8338 90.3281 52.9252C90.0721 53.6673 89.8235 54.4095 89.5923 55.1564C89.5393 55.3239 89.4768 55.4877 89.4105 55.6504C89.2706 55.9971 89.0002 56.1646 88.6366 56.1953C88.5751 56.2006 88.5131 56.1953 88.4511 56.1953C86.0932 56.1953 83.7353 56.1953 81.3775 56.1953C81.2715 56.1953 81.1655 56.2134 81.0494 56.1646C81.0472 56.1159 81.0515 56.0671 81.061 56.0194C81.1442 55.7691 81.2333 55.5205 81.3202 55.2714C81.3637 55.1468 81.4056 55.0212 81.4522 54.8977C81.4888 54.8001 81.5317 54.7047 81.5667 54.6215C81.6881 54.5685 81.7957 54.5844 81.9002 54.5844C83.5514 54.5844 85.2026 54.5844 86.8544 54.5844C86.9424 54.5844 87.0309 54.5844 87.1195 54.5817C87.2085 54.5822 87.2955 54.5562 87.3697 54.5073C87.4444 54.4583 87.5022 54.3885 87.5372 54.3066C87.6098 54.1476 87.6776 53.9833 87.745 53.8205C87.7577 53.7875 87.7656 53.7529 87.7688 53.7177C87.7879 53.5841 87.7381 53.5109 87.6098 53.495C87.5218 53.4869 87.4333 53.4841 87.3448 53.4866H82.7329C82.6534 53.4866 82.5739 53.4908 82.4949 53.4866C82.2331 53.4648 82.0799 53.2708 82.1239 53.0095C82.1456 52.906 82.1753 52.8042 82.2124 52.7052C82.4599 51.9984 82.707 51.2925 82.9545 50.5875C83.0012 50.4555 83.0505 50.3224 83.1067 50.1957C83.2763 49.812 83.579 49.6179 83.9935 49.5909C84.055 49.5872 84.117 49.5909 84.179 49.5909C86.4839 49.5909 88.7887 49.5909 91.0936 49.5909C91.1858 49.5909 91.2886 49.5602 91.3952 49.6667Z" fill="white"/>
<path d="M94.8359 56.189C94.8386 56.1253 94.8471 56.0619 94.8614 55.9998C95.0257 55.5449 95.1641 55.0811 95.3554 54.6215C95.4222 54.6057 95.4906 54.5942 95.559 54.5871C95.6915 54.5818 95.824 54.5871 95.9566 54.5871H100.487C100.575 54.5871 100.664 54.5871 100.752 54.5807C100.877 54.5755 100.997 54.5292 101.093 54.4492C101.292 54.2738 101.388 54.0352 101.451 53.7877C101.489 53.6382 101.398 53.5306 101.244 53.5057C101.139 53.4921 101.032 53.4867 100.926 53.4898C99.496 53.4898 98.0647 53.4898 96.6324 53.4898C96.5529 53.4898 96.4734 53.4898 96.3939 53.4898C96.3144 53.4913 96.2354 53.4733 96.1644 53.4373C96.0933 53.4015 96.0324 53.3487 95.9862 53.2837C95.9401 53.2188 95.911 53.1436 95.9009 53.0646C95.8903 52.9857 95.8993 52.9054 95.9274 52.8309C96.0276 52.5589 96.1193 52.2838 96.2136 52.0097C96.3859 51.5109 96.5566 51.0116 96.7294 50.5128C96.8158 50.2631 96.9102 50.0166 96.9945 49.7653C97.004 49.7176 97.03 49.6747 97.0676 49.6438C97.1053 49.6129 97.1524 49.596 97.2012 49.5957C97.2542 49.5925 97.3072 49.5925 97.3602 49.5925C97.9608 49.5925 98.5614 49.5925 99.1626 49.5925C99.2569 49.5925 99.3571 49.5713 99.4483 49.6455C99.4817 49.7335 99.4303 49.8162 99.4048 49.8947C99.2649 50.3188 99.1133 50.7428 98.9712 51.1669C98.8652 51.485 98.7671 51.803 98.6675 52.1211C98.6256 52.2552 98.5837 52.3861 98.5498 52.525C98.5482 52.5417 98.5508 52.5584 98.5572 52.5739C98.5636 52.5894 98.5736 52.6031 98.5863 52.6141C98.6017 52.6212 98.6182 52.625 98.6351 52.625C98.6516 52.625 98.668 52.6212 98.6834 52.6141C98.8694 52.5155 99.0491 52.402 99.2378 52.3108C99.4212 52.2266 99.6121 52.1604 99.8082 52.1131C100.095 52.0352 100.383 52.0341 100.674 52.0336C100.947 52.0336 101.221 52.0336 101.495 52.0336C101.557 52.0336 101.619 52.0336 101.681 52.0294C101.734 52.0281 101.785 52.0095 101.827 51.9766C101.869 51.9436 101.899 51.898 101.913 51.8465C102 51.5873 102.091 51.3296 102.181 51.072C102.34 50.6241 102.499 50.1767 102.651 49.7277C102.661 49.6939 102.681 49.6638 102.708 49.6413C102.735 49.6189 102.769 49.605 102.804 49.6015C102.847 49.5944 102.892 49.5912 102.936 49.592C103.615 49.592 104.295 49.592 104.976 49.592C105.044 49.592 105.119 49.5825 105.182 49.6715C105.163 49.7569 105.147 49.8608 105.115 49.9588C104.999 50.3097 104.88 50.6594 104.758 51.0079C104.617 51.415 104.47 51.82 104.329 52.2271C104.229 52.5181 104.136 52.8102 104.037 53.1039C103.89 53.5369 103.739 53.9684 103.591 54.401C103.528 54.5844 103.471 54.7721 103.41 54.9539C103.334 55.1786 103.265 55.4055 103.181 55.6266C103.047 55.9727 102.775 56.145 102.418 56.1964C102.348 56.2025 102.277 56.2036 102.206 56.1996H95.1566C95.0612 56.198 94.9653 56.1927 94.8359 56.189Z" fill="white"/>
<path d="M143.38 52.0886C143.337 52.1496 143.302 52.2084 143.259 52.2615C142.918 52.676 142.57 53.0836 142.238 53.5061C142.186 53.5809 142.116 53.6409 142.033 53.6805C141.951 53.72 141.861 53.7377 141.769 53.7319C140.895 53.7213 140.02 53.7272 139.146 53.7277C139.076 53.7277 139.004 53.7277 138.934 53.7277C138.881 53.7249 138.828 53.7388 138.783 53.7672C138.738 53.7958 138.703 53.8375 138.683 53.8867C138.633 53.9994 138.591 54.1157 138.558 54.2345C138.548 54.2687 138.546 54.3046 138.552 54.3397C138.558 54.3747 138.572 54.408 138.593 54.4369C138.613 54.4658 138.64 54.4898 138.672 54.507C138.703 54.5241 138.737 54.5341 138.773 54.5361C138.852 54.5424 138.932 54.544 139.011 54.5409C140.398 54.5409 141.785 54.5409 143.172 54.5409C143.278 54.5409 143.384 54.5228 143.498 54.5769C143.484 54.7699 143.389 54.9379 143.328 55.116C143.267 55.2941 143.217 55.4696 143.151 55.6424C143.085 55.8152 143.057 56.0182 142.939 56.1619C142.928 56.1699 142.917 56.177 142.905 56.1831C142.897 56.1866 142.889 56.1884 142.88 56.1884L135.752 56.1937C135.708 56.1937 135.664 56.1937 135.62 56.1884C135.611 56.1882 135.603 56.186 135.595 56.182C135.583 56.1744 135.571 56.1662 135.56 56.1571C135.549 56.1296 135.543 56.1003 135.543 56.0707C135.551 56.0005 135.566 55.9313 135.588 55.864C135.679 55.5889 135.774 55.3143 135.87 55.0407C135.976 54.7333 136.089 54.4274 136.197 54.1205C136.351 53.6805 136.504 53.2402 136.656 52.7995C136.815 52.3325 136.97 51.8644 137.128 51.3974C137.286 50.9304 137.446 50.4639 137.602 49.998C137.636 49.8978 137.667 49.7965 137.708 49.7C137.737 49.649 137.77 49.6013 137.809 49.5575C138.107 49.5288 144.946 49.5347 145.171 49.5649C145.178 49.6123 145.182 49.6601 145.183 49.708C145.182 49.7443 145.174 49.7801 145.16 49.814C145.02 50.2116 144.875 50.6092 144.736 51.0078C144.724 51.0594 144.693 51.1048 144.649 51.1358C144.607 51.1668 144.553 51.1813 144.5 51.1769H144.288H140.101C140.004 51.1769 139.907 51.1769 139.81 51.1875C139.757 51.1924 139.706 51.2125 139.663 51.2453C139.621 51.2782 139.589 51.3225 139.571 51.373C139.526 51.478 139.487 51.5854 139.455 51.6948C139.444 51.7308 139.442 51.7687 139.447 51.8058C139.452 51.843 139.466 51.8786 139.486 51.9101C139.506 51.9415 139.534 51.9682 139.565 51.9882C139.597 52.0083 139.633 52.0212 139.67 52.0261C139.749 52.0342 139.829 52.0366 139.908 52.0335C140.968 52.0335 142.029 52.0335 143.089 52.0335C143.181 52.0383 143.287 52.0118 143.38 52.0886Z" fill="white"/>
<path d="M124.109 51.1563C124.296 50.64 124.45 50.1184 124.661 49.6095C124.722 49.5934 124.783 49.5806 124.845 49.5713C124.915 49.5649 124.986 49.5713 125.057 49.5713H131.731C131.81 49.5713 131.89 49.5713 131.969 49.5771C132.009 49.5858 132.048 49.5991 132.085 49.6169C132.069 49.8226 131.745 50.7831 131.555 51.196C131.467 51.2491 131.367 51.2305 131.271 51.2305C130.627 51.2305 129.982 51.2305 129.338 51.2305C129.276 51.2305 129.214 51.2305 129.153 51.2305C128.911 51.2369 128.847 51.2782 128.763 51.5104C128.628 51.8815 128.501 52.2568 128.37 52.6299C128.218 53.0604 128.063 53.4903 127.913 53.9213C127.811 54.2117 127.717 54.5044 127.615 54.7954C127.466 55.2195 127.314 55.6398 127.163 56.0618C127.145 56.1036 127.126 56.1445 127.104 56.1842C127.039 56.1895 126.979 56.1991 126.918 56.1991C126.317 56.1991 125.716 56.1991 125.115 56.1991C125.027 56.2084 124.939 56.1879 124.864 56.1408C124.815 56.1111 124.776 56.067 124.752 56.0144C124.729 55.9618 124.722 55.9032 124.732 55.8466C124.749 55.7602 124.771 55.6753 124.802 55.5926C124.965 55.1156 125.129 54.6438 125.297 54.1715C125.439 53.7739 125.593 53.3811 125.734 52.9835C125.875 52.5859 126.006 52.1852 126.143 51.786C126.183 51.6699 126.233 51.5565 126.271 51.4394C126.309 51.3222 126.256 51.2512 126.135 51.2363C126.064 51.23 125.993 51.2278 125.923 51.23C125.411 51.23 124.899 51.23 124.386 51.23C124.305 51.2279 124.213 51.2485 124.109 51.1563Z" fill="white"/>
<path d="M189.824 42.6578C189.78 41.8627 190.477 41.1693 191.157 41.0347C191.251 41.008 191.345 40.9866 191.441 40.9706C191.962 40.9313 192.435 41.0596 192.838 41.4047C193.256 41.762 193.429 42.2248 193.402 42.766C193.374 43.3374 193.132 43.7954 192.657 44.123C191.774 44.7326 190.267 44.4411 189.882 43.1275C189.838 42.9785 189.842 42.8148 189.824 42.6578ZM192.975 42.669C192.933 41.8961 192.421 41.3395 191.649 41.3316C190.878 41.3236 190.279 41.8908 190.271 42.6457C190.263 43.4445 190.872 44.0515 191.656 44.0467C192.464 44.0414 192.937 43.4111 192.975 42.669Z" fill="white"/>
<path d="M25.2444 34.7446C25.3346 34.7372 25.3945 34.7293 25.4565 34.7282C27.2387 34.6911 49.9722 34.7107 50.2776 34.751C50.2907 34.8074 50.2995 34.8646 50.3041 34.9222C50.3078 35.0993 50.3041 35.2758 50.3041 35.4523C50.3041 37.5642 50.3041 39.6757 50.3041 41.7869C50.3069 42.1582 50.2703 42.5286 50.1949 42.8922C50.0431 43.6091 49.7488 44.2883 49.3298 44.8896C48.0734 46.6845 46.6878 48.3853 45.1839 49.9785C45.1415 50.023 45.0959 50.0649 45.0498 50.1057C45.0242 50.1257 44.9968 50.1434 44.9682 50.1587C44.9494 50.1206 44.9356 50.0804 44.9268 50.0389C44.9204 49.9509 44.9236 49.8624 44.9236 49.7739V37.1836C44.9236 37.0951 44.9236 37.0066 44.9178 36.9186C44.9173 36.8916 44.907 36.8658 44.8891 36.8457C44.871 36.8257 44.8464 36.8128 44.8197 36.8094C44.7588 36.7993 44.6971 36.7945 44.6353 36.795C43.3365 36.795 42.0378 36.795 40.7391 36.795C40.4878 36.795 40.464 36.8216 40.4581 37.0643C40.4581 37.1348 40.4581 37.2053 40.4581 37.2764V50.6347C40.4009 51.7824 40.438 52.9311 40.4306 54.0803C40.4353 54.1453 40.4231 54.2104 40.3953 54.2693C40.3674 54.3281 40.3247 54.3788 40.2715 54.4164C39.5098 54.9841 38.7385 55.5407 37.9418 56.0613C37.9275 56.0708 37.9142 56.083 37.8994 56.0926C37.8596 56.1211 37.8118 56.1366 37.7629 56.1366C37.7139 56.1366 37.6661 56.1211 37.6264 56.0926C37.5007 56.0115 37.3767 55.9272 37.2553 55.8434C36.5911 55.395 35.938 54.9311 35.3019 54.4429C35.2674 54.4164 35.2356 54.3846 35.1991 54.3607C35.1657 54.339 35.1384 54.3091 35.1199 54.2738C35.1013 54.2386 35.0921 54.1991 35.093 54.1593C35.0904 54.0798 35.093 54.0003 35.093 53.9208V37.2228C35.093 37.1433 35.093 37.0638 35.0904 36.9843C35.0814 36.8396 35.0443 36.8057 34.8911 36.7961C34.8381 36.7929 34.7851 36.7961 34.7321 36.7961H30.9684C30.8624 36.7961 30.7564 36.7807 30.6652 36.8322C30.5968 36.9069 30.618 36.9912 30.6175 37.067C30.6143 37.6501 30.6125 38.2332 30.6122 38.8163C30.6122 42.4997 30.6122 46.1837 30.6122 49.8682C30.6122 49.962 30.6249 50.058 30.5931 50.1507C30.4977 50.1465 30.4574 50.0893 30.4107 50.0389C30.0768 49.6763 29.7386 49.318 29.4083 48.9522C28.7648 48.2403 28.1541 47.5008 27.5652 46.7438C27.069 46.1077 26.5872 45.4568 26.1339 44.7851C25.8648 44.3818 25.6514 43.9441 25.4994 43.4838C25.3242 42.9647 25.2346 42.4206 25.2344 41.8728C25.2344 39.5849 25.2344 37.2967 25.2344 35.0081C25.2344 34.9297 25.2397 34.8512 25.2444 34.7446Z" fill="white"/>
<path d="M50.0952 30.4179C50.1244 30.5139 50.0592 30.5451 50.0178 30.5854C49.7404 30.8554 49.4621 31.1244 49.1829 31.3922C49.1262 31.4452 49.0732 31.5062 49.0117 31.5555C48.9163 31.6324 48.9057 31.732 48.9237 31.8412C48.9767 32.1179 49.0297 32.3936 49.0796 32.6703C49.1145 32.8701 49.141 33.071 49.1681 33.2719C49.1638 33.3014 49.1547 33.3298 49.141 33.3562C49.0977 33.3548 49.0547 33.3467 49.0138 33.3324C48.6099 33.1203 48.2049 32.9083 47.8073 32.6819C47.6663 32.6014 47.5555 32.6067 47.4156 32.6819C47.0069 32.9051 46.5902 33.114 46.1757 33.3265C46.1455 33.3378 46.1139 33.3449 46.0819 33.3477C46.0289 33.2592 46.0628 33.1839 46.0787 33.1076C46.0999 33.0042 46.1195 32.9009 46.1386 32.797C46.1863 32.5372 46.2331 32.2773 46.2791 32.0172C46.3591 31.5635 46.3623 31.6674 46.076 31.3784C45.8041 31.1033 45.5285 30.8325 45.2549 30.5595C45.2184 30.5234 45.1839 30.4852 45.1367 30.4354C45.2104 30.3702 45.2957 30.3729 45.3636 30.3517C45.44 30.3306 45.518 30.3159 45.5968 30.3077C45.9032 30.2684 46.2102 30.2345 46.516 30.1926C46.6284 30.1767 46.7387 30.1449 46.8547 30.1195C47.0265 29.776 47.1961 29.4388 47.3642 29.1006C47.423 28.983 47.4755 28.8616 47.5375 28.7455C47.5707 28.6979 47.6087 28.6538 47.651 28.614C47.6793 28.6502 47.7053 28.6881 47.7289 28.7275C47.9409 29.1515 48.1492 29.5756 48.3507 30.0066C48.3686 30.0459 48.3953 30.0807 48.4286 30.1082C48.4619 30.1358 48.5011 30.1554 48.5431 30.1656C48.5857 30.178 48.6291 30.1872 48.673 30.1932C48.9433 30.2308 49.2147 30.2642 49.4851 30.3055C49.687 30.3395 49.8832 30.3803 50.0952 30.4179Z" fill="white"/>
<path d="M37.749 28.6232C37.8254 28.6721 37.884 28.7444 37.916 28.8294C38.0957 29.2004 38.2823 29.5715 38.453 29.9458C38.5187 30.0899 38.612 30.1705 38.7652 30.1917C39.0186 30.2272 39.272 30.2601 39.5248 30.2977C39.7575 30.3338 39.9892 30.3757 40.2139 30.4133C40.2457 30.5145 40.1816 30.5575 40.1323 30.6052C39.9171 30.813 39.7003 31.0197 39.484 31.2265C39.3631 31.3427 39.2421 31.4586 39.1209 31.5742C39.0913 31.6006 39.0694 31.6344 39.0574 31.6722C39.0453 31.71 39.0436 31.7502 39.0525 31.7889C39.1103 32.1361 39.1612 32.4849 39.2168 32.8326C39.2269 32.8931 39.2529 32.9508 39.2667 33.0107C39.2993 33.1259 39.3049 33.2471 39.2831 33.3649C39.2296 33.3533 39.1773 33.337 39.1267 33.3161C38.7307 33.1072 38.3316 32.901 37.9425 32.68C37.8004 32.5999 37.6891 32.6079 37.5497 32.6837C37.1489 32.9021 36.7402 33.1078 36.3331 33.315C36.2964 33.3283 36.2581 33.3367 36.2192 33.3399C36.2064 33.3087 36.1926 33.2917 36.1948 33.2774C36.2207 33.103 36.2478 32.9291 36.2764 32.7552C36.2791 32.7383 36.2902 32.7224 36.2928 32.7049C36.3458 32.4017 36.3951 32.0979 36.4482 31.7947C36.4581 31.7428 36.454 31.6892 36.4363 31.6395C36.4186 31.5897 36.3879 31.5456 36.3474 31.5116C36.0294 31.2047 35.7193 30.8925 35.4076 30.5808C35.3657 30.5389 35.3318 30.4896 35.2793 30.4255C35.4023 30.3664 35.5347 30.3291 35.6705 30.3152C35.9769 30.2749 36.2833 30.2378 36.5897 30.2007C36.9724 30.1546 36.9745 30.1562 37.1479 29.8159C37.3032 29.5105 37.4521 29.202 37.6053 28.8956C37.6478 28.8114 37.6944 28.7276 37.749 28.6232Z" fill="white"/>
<path d="M29.3846 33.3561C29.3453 33.3489 29.3068 33.3377 29.2696 33.3227C28.8657 33.1107 28.4601 32.8987 28.061 32.6728C27.9285 32.5992 27.8224 32.6076 27.6899 32.6776C27.2658 32.9066 26.8322 33.1234 26.4023 33.3445C26.3965 33.3471 26.3864 33.3408 26.3578 33.3339C26.3485 33.2889 26.345 33.243 26.3472 33.1971C26.3785 32.9702 26.4113 32.7428 26.4532 32.5175C26.4988 32.2663 26.5523 32.0171 26.6048 31.7674C26.6135 31.7378 26.6137 31.7064 26.6057 31.6765C26.5977 31.6467 26.5816 31.6197 26.5592 31.5983C26.4914 31.53 26.4278 31.4568 26.3599 31.389C26.0737 31.1022 25.7858 30.817 25.4996 30.5302C25.4709 30.5016 25.4466 30.4682 25.4121 30.4242C25.5804 30.3555 25.7583 30.3132 25.9396 30.2986C26.238 30.2636 26.5359 30.2291 26.8328 30.1846C27.1169 30.1422 27.1243 30.1316 27.2505 29.883C27.4201 29.5453 27.585 29.2055 27.753 28.8673C27.7917 28.7899 27.8362 28.7152 27.8882 28.6198C27.9369 28.6648 27.9857 28.6908 28.0053 28.7311C28.2025 29.1339 28.3944 29.5389 28.5884 29.9434C28.6155 29.9964 28.6478 30.0494 28.6854 30.1189C28.754 30.1478 28.825 30.1706 28.8975 30.1872C29.1588 30.2291 29.4223 30.2604 29.6836 30.3001C29.91 30.3346 30.1347 30.3754 30.3595 30.4131C30.3934 30.4894 30.3399 30.5286 30.2964 30.5721C30.0191 30.8419 29.7541 31.1266 29.4588 31.3752C29.2468 31.5549 29.1577 31.7409 29.2235 32.0155C29.2823 32.2641 29.3152 32.5191 29.3528 32.772C29.3793 32.9458 29.3958 33.1218 29.4143 33.2968C29.4148 33.3111 29.3995 33.3275 29.3846 33.3561Z" fill="white"/>
<path d="M191.117 42.0068H191.472V43.3416H191.115L191.117 42.0068ZM191.28 42.5592H191.664C191.691 42.5596 191.719 42.5561 191.746 42.5486C191.766 42.5435 191.784 42.5331 191.799 42.5184C191.81 42.5054 191.817 42.4886 191.817 42.4712V42.3223C191.817 42.303 191.811 42.2842 191.799 42.2692C191.784 42.2533 191.766 42.2418 191.746 42.2358C191.719 42.2279 191.691 42.2241 191.664 42.2247H191.28V42.0063H191.642C191.742 42.0044 191.841 42.0161 191.938 42.0413C192.008 42.0594 192.073 42.096 192.125 42.1473C192.167 42.1913 192.19 42.2502 192.189 42.3111V42.467C192.19 42.5294 192.167 42.5898 192.125 42.6355C192.073 42.687 192.008 42.7236 191.937 42.7416C191.841 42.7682 191.742 42.7807 191.642 42.7787H191.28V42.5592ZM191.578 42.7389L191.911 42.6965L192.252 43.3443H191.862L191.578 42.7389Z" fill="white"/>
</g>
</g>
<defs>
<clipPath id="clip0_339_127">
<rect width="183.829" height="49.6697" fill="white" transform="translate(16.5977 17.0293)"/>
</clipPath>
<clipPath id="clip1_339_127">
<rect width="183.829" height="49.6697" fill="white" transform="translate(16.5977 17.0293)"/>
</clipPath>
</defs>
</svg>
