<svg width="1001" height="202" viewBox="0 0 1001 202" fill="none" xmlns="http://www.w3.org/2000/svg">
<path d="M194.448 89.5409C194.448 95.4082 192.137 100.765 188.028 104.592L187.515 105.102L187.258 105.357C186.487 105.867 185.974 106.633 185.203 107.143C182.122 109.439 178.527 110.714 174.418 110.969C174.161 110.969 173.647 110.969 173.391 110.969C173.134 110.969 172.62 110.969 172.363 110.969H82.7412V21.6837C82.7412 21.4286 82.7412 20.9184 82.7412 20.6633C82.7412 16.3265 84.282 12.2449 86.5932 8.92858C87.1068 8.16327 87.6204 7.39796 88.3908 6.88776L88.6475 6.63266L89.1611 6.12245C93.0131 2.29592 98.4059 0 104.312 0H168.768C182.892 0 194.448 11.4796 194.448 25.5102V89.5409Z" fill="#274DA1"/>
<path d="M185.46 107.141L102.771 189.284C95.3243 196.682 82.7412 191.325 82.7412 181.121V110.968H172.62C172.877 110.968 173.391 110.968 173.647 110.968C173.904 110.968 174.418 110.968 174.675 110.968C178.527 110.713 182.122 109.437 185.46 107.141Z" fill="#87C0FF"/>
<path d="M86.5931 9.18555C84.282 12.5019 82.7412 16.5835 82.7412 20.9202C82.7412 21.1754 82.7412 21.6856 82.7412 21.9407V111.226H12.3787C1.85002 111.226 -3.28593 98.7264 4.1612 91.3285L86.5931 9.18555Z" fill="#518AFF"/>
<path d="M288.351 35.5006C287.468 33.3062 286.142 31.5506 284.154 30.234C282.387 28.9174 279.957 28.259 277.748 28.259C273.109 28.259 268.691 31.1118 267.145 35.72L236.882 118.449H251.24L257.425 101.333H290.339L289.014 97.8218C286.805 91.8969 281.062 87.7275 274.656 87.7275H262.285L277.527 45.8143L304.256 118.23H318.614L288.351 35.5006Z" fill="white"/>
<path d="M815.86 35.5006C814.977 33.3062 813.651 31.5506 811.663 30.234C809.896 28.9174 807.466 28.259 805.257 28.259C800.618 28.259 796.2 31.1118 794.654 35.72L764.391 118.669H778.749L784.934 101.552H817.848L816.523 98.0412C814.314 92.1163 808.57 87.9469 802.164 87.9469H789.794L805.036 46.0337L831.765 118.449H846.123L815.86 35.5006Z" fill="white"/>
<path d="M396.814 86.1928C396.814 105.065 381.572 120.206 362.575 120.206C353.518 120.206 346.67 115.598 342.252 109.015V118.451H328.777V21.6772H342.252V63.371C346.449 56.7878 353.518 52.1795 362.575 52.1795C381.572 52.1795 396.814 67.3209 396.814 86.1928ZM383.118 86.1928C383.118 74.5625 373.841 65.1265 362.575 65.1265C351.309 65.1265 343.578 74.5625 343.578 86.1928C343.578 97.8232 351.309 107.259 362.575 107.259C373.841 107.04 383.118 97.8232 383.118 86.1928Z" fill="white"/>
<path d="M401.896 105.944L413.382 101.116C415.149 104.627 421.114 108.358 427.299 108.358C433.263 108.358 439.007 105.724 439.007 100.458C439.007 94.7523 432.38 93.4357 426.636 91.8996C413.824 89.0469 403.442 83.3414 403.442 71.9305C403.442 59.6418 414.708 51.7419 427.299 51.7419C437.681 51.7419 446.959 56.3502 451.598 64.0306L440.995 70.3944C439.007 66.4445 433.705 63.5917 428.624 63.3723C421.776 63.1529 416.254 65.7862 416.254 71.7111C416.254 77.4165 423.102 77.8554 429.729 80.0498C441.215 83.7803 452.04 89.2663 451.819 100.238C451.819 112.308 439.448 120.646 426.194 119.769C415.591 119.11 405.43 114.063 401.896 105.944Z" fill="white"/>
<path d="M456.46 86.1942C456.46 67.3223 471.039 52.1809 488.932 52.1809C506.825 52.1809 521.404 67.3223 521.404 86.1942C521.404 104.847 506.825 120.208 488.932 120.208C471.039 120.208 456.46 104.847 456.46 86.1942ZM507.929 86.1942C507.929 75.0028 499.535 65.5668 488.932 65.5668C478.329 65.5668 469.935 75.0028 469.935 86.1942C469.935 97.8246 478.55 106.602 488.932 106.602C499.756 106.822 507.929 97.1663 507.929 86.1942Z" fill="white"/>
<path d="M543.277 21.6782H529.802V118.452H543.277V21.6782Z" fill="white"/>
<path d="M554.982 53.9368H568.457V91.0223C568.457 99.5805 575.526 106.603 584.141 106.603C592.756 106.603 599.825 99.5805 599.825 91.0223V53.9368H613.3V118.452H600.046V111.43C595.628 116.697 588.78 119.988 581.269 119.988C566.911 119.988 555.203 108.358 555.203 94.0944V53.9368H554.982Z" fill="white"/>
<path d="M645.765 67.3225V118.452H632.07L632.29 67.3225H621.908V53.9366H632.29L632.07 33.748H645.765V53.9366H659.461V67.3225H645.765Z" fill="white"/>
<path d="M664.321 86.1942C664.321 67.3223 678.901 52.1809 696.793 52.1809C716.674 52.1809 731.033 69.9556 728.824 91.0219H678.68C680.226 100.019 687.295 106.822 696.573 106.822C703.2 106.822 708.722 103.311 712.256 97.6052L725.952 100.677C720.651 112.088 709.606 120.208 696.573 120.208C678.68 120.208 664.321 104.847 664.321 86.1942ZM715.128 80.7082C713.803 71.4917 706.071 64.0307 696.793 64.0307C687.516 64.0307 680.005 71.2723 678.459 80.7082H715.128Z" fill="white"/>
<path d="M854.298 150.71V53.9364H867.773V63.3724C871.97 56.7892 878.818 52.1809 888.095 52.1809C907.093 52.1809 922.335 67.3223 922.335 86.1942C922.335 105.066 907.093 120.208 888.095 120.208C879.039 120.208 872.191 115.599 867.773 109.016V150.71H854.298ZM868.877 86.1942C868.877 97.8246 876.609 107.261 887.874 107.261C899.14 107.261 908.418 98.044 908.418 86.1942C908.418 74.7833 899.361 65.3474 887.874 65.3474C876.83 65.3474 868.877 74.5639 868.877 86.1942Z" fill="white"/>
<path d="M931.386 150.71V53.9364H944.861V63.3724C949.058 56.7892 955.905 52.1809 965.183 52.1809C984.181 52.1809 999.423 67.3223 999.423 86.1942C999.423 105.066 984.181 120.208 965.183 120.208C956.126 120.208 949.279 115.599 944.861 109.016V150.71H931.386ZM945.965 86.1942C945.965 97.8246 953.697 107.261 964.962 107.261C976.228 107.261 985.506 98.044 985.506 86.1942C985.506 74.7833 976.449 65.3474 964.962 65.3474C953.917 65.3474 945.965 74.5639 945.965 86.1942Z" fill="white"/>
<path d="M873.349 173.598H877.438V196.449H889.195V200.512H873.349V173.598Z" fill="white"/>
<path d="M919.364 173.598L929.332 200.512H924.987L923.198 195.434H910.929L909.14 200.512H904.795L914.763 173.598H919.364ZM921.664 191.371L917.063 178.93L912.463 191.371H921.664Z" fill="white"/>
<path d="M945.435 173.598H955.147C959.237 173.598 962.559 176.391 962.559 180.707C962.559 182.738 961.537 185.023 959.748 185.785C963.07 186.547 964.093 190.355 964.093 193.148C964.093 197.465 960.515 200.766 956.425 200.766H945.69V173.598H945.435ZM954.891 184.262C956.936 184.262 958.725 182.992 958.725 180.707C958.725 178.422 956.936 177.152 954.891 177.152H949.78V184.262H954.891ZM955.914 196.957C958.47 196.957 960.515 194.926 960.515 192.133C960.515 189.848 958.47 187.562 955.914 187.562H949.524V196.957H955.914Z" fill="white"/>
<path d="M980.449 195.182L984.283 193.658C985.05 195.436 987.606 196.959 990.673 196.959C993.74 196.959 996.552 195.436 996.552 192.897C996.552 190.358 993.484 189.342 990.673 188.834C985.05 187.819 980.705 186.041 980.705 180.709C980.705 175.885 985.305 172.838 990.673 172.838C995.018 172.838 999.363 174.869 1000.64 178.678L996.807 179.948C996.04 178.17 993.485 176.901 990.417 176.901C987.35 176.901 984.539 178.424 984.539 180.963C984.539 183.756 987.095 184.264 990.417 185.026C995.785 185.787 1000.39 188.326 1000.39 193.151C1000.39 197.975 995.785 201.022 990.417 201.022C986.072 201.022 981.727 198.99 980.449 195.182Z" fill="white"/>
</svg>
