<svg width="1001" height="202" viewBox="0 0 1001 202" fill="none" xmlns="http://www.w3.org/2000/svg">
<path d="M194.449 90.2292C194.449 96.0966 192.137 101.454 188.029 105.28L187.515 105.79L187.258 106.046C186.488 106.556 185.974 107.321 185.204 107.831C182.122 110.127 178.527 111.403 174.418 111.658C174.162 111.658 173.648 111.658 173.391 111.658C173.134 111.658 172.621 111.658 172.364 111.658H82.7417V22.372C82.7417 22.1169 82.7417 21.6067 82.7417 21.3516C82.7417 17.0149 84.2825 12.9333 86.5937 9.61693C87.1073 8.85162 87.6209 8.08632 88.3912 7.57611L88.648 7.32101L89.1616 6.81081C93.0136 2.98427 98.4063 0.688354 104.313 0.688354H168.769C182.893 0.688354 194.449 12.168 194.449 26.1986V90.2292Z" fill="#274DA1"/>
<path d="M185.461 107.83L102.772 189.973C95.3248 197.371 82.7417 192.013 82.7417 181.809V111.656H172.621C172.878 111.656 173.391 111.656 173.648 111.656C173.905 111.656 174.418 111.656 174.675 111.656C178.527 111.401 182.122 110.126 185.461 107.83Z" fill="#87C0FF"/>
<path d="M86.5933 9.87378C84.2821 13.1901 82.7413 17.2717 82.7413 21.6085C82.7413 21.8636 82.7413 22.3738 82.7413 22.6289V111.915H12.3788C1.85014 111.915 -3.2858 99.4147 4.16132 92.0167L86.5933 9.87378Z" fill="#518AFF"/>
<path d="M288.351 36.1887C287.468 33.9943 286.142 32.2388 284.154 30.9221C282.387 29.6055 279.957 28.9471 277.748 28.9471C273.109 28.9471 268.691 31.7999 267.145 36.4081L236.882 119.137H251.24L257.426 102.021H290.34L289.014 98.5099C286.805 92.585 281.062 88.4156 274.656 88.4156H262.285L277.527 46.5024L304.256 118.918H318.615L288.351 36.1887Z" fill="#14133D"/>
<path d="M815.86 36.1887C814.976 33.9943 813.651 32.2388 811.663 30.9221C809.895 29.6055 807.465 28.9471 805.257 28.9471C800.618 28.9471 796.2 31.7999 794.653 36.4081L764.39 119.357H778.749L784.934 102.24H817.848L816.522 98.7293C814.313 92.8044 808.57 88.635 802.164 88.635H789.794L805.036 46.7219L831.764 119.137H846.123L815.86 36.1887Z" fill="#14133D"/>
<path d="M396.815 86.8811C396.815 105.753 381.573 120.894 362.575 120.894C353.519 120.894 346.671 116.286 342.253 109.703V119.139H328.778V22.3655H342.253V64.0592C346.45 57.476 353.519 52.8678 362.575 52.8678C381.573 52.8678 396.815 68.0092 396.815 86.8811ZM383.119 86.8811C383.119 75.2507 373.841 65.8148 362.575 65.8148C351.31 65.8148 343.578 75.2507 343.578 86.8811C343.578 98.5114 351.31 107.947 362.575 107.947C373.841 107.728 383.119 98.5114 383.119 86.8811Z" fill="#14133D"/>
<path d="M401.896 106.632L413.382 101.804C415.15 105.315 421.114 109.046 427.299 109.046C433.263 109.046 439.007 106.412 439.007 101.146C439.007 95.4404 432.38 94.1237 426.636 92.5877C413.824 89.7349 403.442 84.0295 403.442 72.6185C403.442 60.3299 414.708 52.43 427.299 52.43C437.681 52.43 446.959 57.0382 451.598 64.7187L440.995 71.0825C439.007 67.1325 433.705 64.2798 428.624 64.0604C421.777 63.8409 416.254 66.4742 416.254 72.3991C416.254 78.1046 423.102 78.5435 429.729 80.7379C441.216 84.4684 452.04 89.9544 451.819 100.926C451.819 112.996 439.448 121.334 426.195 120.457C415.591 119.798 405.43 114.751 401.896 106.632Z" fill="#14133D"/>
<path d="M456.46 86.8823C456.46 68.0104 471.039 52.869 488.932 52.869C506.825 52.869 521.404 68.0104 521.404 86.8823C521.404 105.535 506.825 120.896 488.932 120.896C471.039 120.896 456.46 105.535 456.46 86.8823ZM507.93 86.8823C507.93 75.6909 499.535 66.2549 488.932 66.2549C478.329 66.2549 469.935 75.6909 469.935 86.8823C469.935 98.5127 478.55 107.29 488.932 107.29C499.756 107.51 507.93 97.8544 507.93 86.8823Z" fill="#14133D"/>
<path d="M543.277 22.3665H529.802V119.14H543.277V22.3665Z" fill="#14133D"/>
<path d="M554.983 54.6249H568.458V91.7104C568.458 100.269 575.526 107.291 584.141 107.291C592.756 107.291 599.825 100.269 599.825 91.7104V54.6249H613.3V119.14H600.046V112.118C595.628 117.385 588.78 120.677 581.27 120.677C566.911 120.677 555.204 109.046 555.204 94.7825V54.6249H554.983Z" fill="#14133D"/>
<path d="M645.766 68.0107V119.14H632.07L632.291 68.0107H621.908V54.6248H632.291L632.07 34.4362H645.766V54.6248H659.461V68.0107H645.766Z" fill="#14133D"/>
<path d="M664.321 86.8823C664.321 68.0104 678.9 52.869 696.793 52.869C716.674 52.869 731.033 70.6437 728.824 91.71H678.68C680.226 100.707 687.295 107.51 696.572 107.51C703.199 107.51 708.722 103.999 712.256 98.2933L725.952 101.365C720.65 112.776 709.605 120.896 696.572 120.896C678.68 120.896 664.321 105.535 664.321 86.8823ZM715.128 81.3963C713.802 72.1798 706.071 64.7188 696.793 64.7188C687.515 64.7188 680.005 71.9604 678.459 81.3963H715.128Z" fill="#14133D"/>
<path d="M854.298 151.398V54.6245H867.773V64.0605C871.97 57.4773 878.818 52.869 888.095 52.869C907.093 52.869 922.335 68.0104 922.335 86.8823C922.335 105.754 907.093 120.896 888.095 120.896C879.039 120.896 872.191 116.287 867.773 109.704V151.398H854.298ZM868.877 86.8823C868.877 98.5127 876.609 107.949 887.875 107.949C899.14 107.949 908.418 98.7321 908.418 86.8823C908.418 75.4714 899.361 66.0355 887.875 66.0355C876.83 66.0355 868.877 75.252 868.877 86.8823Z" fill="#14133D"/>
<path d="M931.386 151.398V54.6245H944.86V64.0605C949.058 57.4773 955.905 52.869 965.183 52.869C984.18 52.869 999.422 68.0104 999.422 86.8823C999.422 105.754 984.18 120.896 965.183 120.896C956.126 120.896 949.278 116.287 944.86 109.704V151.398H931.386ZM945.965 86.8823C945.965 98.5127 953.696 107.949 964.962 107.949C976.228 107.949 985.506 98.7321 985.506 86.8823C985.506 75.4714 976.449 66.0355 964.962 66.0355C953.917 66.0355 945.965 75.252 945.965 86.8823Z" fill="#14133D"/>
<path d="M873.348 174.286H877.438V197.137H889.195V201.2H873.348V174.286Z" fill="#14133D"/>
<path d="M919.364 174.286L929.332 201.2H924.987L923.198 196.122H910.929L909.14 201.2H904.795L914.763 174.286H919.364ZM921.664 192.059L917.063 179.618L912.463 192.059H921.664Z" fill="#14133D"/>
<path d="M945.434 174.286H955.147C959.236 174.286 962.559 177.079 962.559 181.395C962.559 183.426 961.536 185.712 959.747 186.473C963.07 187.235 964.092 191.044 964.092 193.837C964.092 198.153 960.514 201.454 956.425 201.454H945.69V174.286H945.434ZM954.891 184.95C956.936 184.95 958.725 183.68 958.725 181.395C958.725 179.11 956.936 177.841 954.891 177.841H949.779V184.95H954.891ZM955.913 197.645C958.469 197.645 960.514 195.614 960.514 192.821C960.514 190.536 958.469 188.251 955.913 188.251H949.524V197.645H955.913Z" fill="#14133D"/>
<path d="M980.449 195.87L984.283 194.347C985.049 196.124 987.605 197.647 990.672 197.647C993.74 197.647 996.551 196.124 996.551 193.585C996.551 191.046 993.484 190.03 990.672 189.522C985.049 188.507 980.704 186.729 980.704 181.397C980.704 176.573 985.305 173.526 990.672 173.526C995.018 173.526 999.363 175.558 1000.64 179.366L996.807 180.636C996.04 178.858 993.484 177.589 990.417 177.589C987.35 177.589 984.538 179.112 984.538 181.651C984.538 184.444 987.094 184.952 990.417 185.714C995.784 186.476 1000.39 189.015 1000.39 193.839C1000.39 198.663 995.784 201.71 990.417 201.71C986.072 201.71 981.727 199.679 980.449 195.87Z" fill="#14133D"/>
</svg>
