<svg width="49" height="49" viewBox="0 0 49 49" fill="none" xmlns="http://www.w3.org/2000/svg">
<path d="M38.0121 29.4986C37.8378 29.4986 37.6645 29.4323 37.5318 29.2996L35.2137 26.9811C35.0298 26.7967 34.7759 26.691 34.5168 26.691H27.188C26.813 26.691 26.5088 26.3868 26.5088 26.0118C26.5088 25.6368 26.813 25.3325 27.188 25.3325H34.5168C35.1332 25.3325 35.7382 25.5833 36.1742 26.0211L38.4923 28.3392C38.7576 28.6045 38.7576 29.0343 38.4923 29.2996C38.3596 29.4323 38.1863 29.4986 38.0121 29.4986Z" fill="#274DA1"/>
<path d="M28.6845 11.8834H23.313C22.938 11.8834 22.6338 11.5791 22.6338 11.2041C22.6338 10.8291 22.938 10.5249 23.313 10.5249H28.6845C28.9437 10.5249 29.2002 10.4201 29.3885 10.2375L33.1677 6.45828C33.4331 6.19294 33.8629 6.19294 34.1282 6.45828C34.3935 6.72361 34.3935 7.15344 34.1282 7.41877L30.342 11.2046C29.8962 11.6384 29.2939 11.8834 28.6845 11.8834Z" fill="#274DA1"/>
<path d="M32.189 22.2804C31.814 22.2804 31.5098 21.9761 31.5098 21.6011V18.25C31.5098 17.6216 31.7627 17.0149 32.2049 16.5859L33.5183 15.2633C33.7828 14.9957 34.2126 14.9966 34.4788 15.2597C34.745 15.5242 34.7468 15.9545 34.4823 16.2202L33.1601 17.5513C32.9717 17.7348 32.8683 17.9864 32.8683 18.25V21.6011C32.8683 21.9761 32.564 22.2804 32.189 22.2804Z" fill="#274DA1"/>
<path d="M37.5955 22.2801H27.188C26.813 22.2801 26.5088 21.9759 26.5088 21.6009C26.5088 21.2259 26.813 20.9217 27.188 20.9217H37.5955C37.8706 20.9217 38.1341 20.8067 38.3198 20.6059L41.3004 17.3981C41.5569 17.1239 41.9858 17.108 42.2609 17.3631C42.5359 17.6183 42.551 18.0481 42.2963 18.3232L39.3166 21.5293C38.8762 22.006 38.2482 22.2801 37.5955 22.2801Z" fill="#274DA1"/>
<path d="M31.1303 41.8153C30.956 41.8153 30.7827 41.7489 30.65 41.6163L29.3189 40.2852C28.882 39.8479 28.6309 39.2438 28.6309 38.6273V35.2767C28.6309 34.9017 28.9351 34.5974 29.3101 34.5974C29.6851 34.5974 29.9893 34.9017 29.9893 35.2767V38.6273C29.9893 38.886 30.0955 39.1403 30.2794 39.3247L31.6105 40.6558C31.8758 40.9211 31.8758 41.3509 31.6105 41.6163C31.4779 41.7489 31.3045 41.8153 31.1303 41.8153Z" fill="#274DA1"/>
<path d="M38.9281 39.6962C38.7459 39.6962 38.5646 39.6232 38.431 39.4795L35.4416 36.2646C35.2541 36.0669 34.9959 35.9559 34.7164 35.9559H22.4976C22.1226 35.9559 21.8184 35.6517 21.8184 35.2767C21.8184 34.9017 22.1226 34.5974 22.4976 34.5974H34.7164C35.3735 34.5974 35.9829 34.8596 36.4322 35.3355L39.4251 38.5544C39.6807 38.829 39.6657 39.2588 39.3906 39.5144C39.2597 39.636 39.0934 39.6962 38.9281 39.6962Z" fill="#274DA1"/>
<path d="M35.3268 42.7844C35.3268 44.3421 34.0588 45.6101 32.5011 45.6101C30.9524 45.6101 29.6846 44.3421 29.6846 42.7844C29.6846 41.2266 30.9524 39.9587 32.5011 39.9587C34.0588 39.9587 35.3268 41.2266 35.3268 42.7844Z" fill="#274DA1"/>
<path d="M36.7754 30.2773C36.7754 28.7196 38.0434 27.4517 39.6012 27.4517C41.1589 27.4517 42.4179 28.7196 42.4179 30.2773C42.4179 31.835 41.1589 33.0939 39.6012 33.0939C38.0434 33.0939 36.7754 31.835 36.7754 30.2773Z" fill="#274DA1"/>
<path d="M45.9684 16.185C45.9684 17.7427 44.7004 19.0107 43.1517 19.0107C41.594 19.0107 40.3262 17.7427 40.3262 16.185C40.3262 14.6273 41.594 13.3594 43.1517 13.3594C44.7004 13.3594 45.9684 14.6273 45.9684 16.185Z" fill="#274DA1"/>
<path d="M32.2744 5.37155C32.2744 3.81379 33.5425 2.5459 35.1002 2.5459C36.6579 2.5459 37.9257 3.81379 37.9257 5.37155C37.9257 6.92926 36.6579 8.18814 35.1002 8.18814C33.5425 8.18814 32.2744 6.92926 32.2744 5.37155Z" fill="#274DA1"/>
<path d="M35.3812 16.9186C33.8232 16.9186 32.5645 15.6507 32.5645 14.093C32.5645 12.5352 33.8232 11.2673 35.3812 11.2673C36.9389 11.2673 38.2067 12.5352 38.2067 14.093C38.2067 15.6507 36.9389 16.9186 35.3812 16.9186Z" fill="#274DA1"/>
<path d="M43.0885 40.6924C43.0885 42.2501 41.8298 43.5089 40.2721 43.5089C38.7143 43.5089 37.4463 42.2501 37.4463 40.6924C37.4463 39.1346 38.7143 37.8667 40.2721 37.8667C41.8298 37.8667 43.0885 39.1346 43.0885 40.6924Z" fill="#274DA1"/>
<path d="M35.1024 8.19261C33.5458 8.19261 32.2793 6.9261 32.2793 5.3695C32.2793 3.8129 33.5458 2.54639 35.1024 2.54639C36.659 2.54639 37.9255 3.8129 37.9255 5.3695C37.9255 6.9261 36.659 8.19261 35.1024 8.19261ZM35.1024 3.90488C34.2949 3.90488 33.6378 4.56201 33.6378 5.3695C33.6378 6.17699 34.2949 6.83412 35.1024 6.83412C35.9099 6.83412 36.567 6.17699 36.567 5.3695C36.567 4.56201 35.9099 3.90488 35.1024 3.90488Z" fill="#274DA1"/>
<path d="M43.1473 19.01C41.5907 19.01 40.3242 17.7435 40.3242 16.1869C40.3242 14.6303 41.5907 13.3638 43.1473 13.3638C44.7039 13.3638 45.9704 14.6303 45.9704 16.1869C45.9704 17.7435 44.7039 19.01 43.1473 19.01ZM43.1473 14.7223C42.3398 14.7223 41.6827 15.3794 41.6827 16.1869C41.6827 16.9944 42.3398 17.6515 43.1473 17.6515C43.9548 17.6515 44.612 16.9944 44.612 16.1869C44.612 15.3794 43.9548 14.7223 43.1473 14.7223Z" fill="#274DA1"/>
<path d="M39.5995 33.0981C38.0429 33.0981 36.7764 31.8316 36.7764 30.275C36.7764 28.7184 38.0429 27.4519 39.5995 27.4519C41.1561 27.4519 42.4226 28.7184 42.4226 30.275C42.4226 31.8316 41.1561 33.0981 39.5995 33.0981ZM39.5995 28.8104C38.792 28.8104 38.1349 29.4675 38.1349 30.275C38.1349 31.0825 38.792 31.7396 39.5995 31.7396C40.407 31.7396 41.0641 31.0825 41.0641 30.275C41.0641 29.4675 40.407 28.8104 39.5995 28.8104Z" fill="#274DA1"/>
<path d="M35.3837 16.9153C33.8271 16.9153 32.5605 15.6488 32.5605 14.0922C32.5605 12.5356 33.8271 11.269 35.3837 11.269C36.9403 11.269 38.2068 12.5356 38.2068 14.0922C38.2068 15.6488 36.9403 16.9153 35.3837 16.9153ZM35.3837 12.6275C34.5762 12.6275 33.919 13.2847 33.919 14.0922C33.919 14.8996 34.5762 15.5568 35.3837 15.5568C36.1911 15.5568 36.8483 14.8996 36.8483 14.0922C36.8483 13.2847 36.1911 12.6275 35.3837 12.6275Z" fill="#274DA1"/>
<path d="M40.2684 43.5129C38.7118 43.5129 37.4453 42.2464 37.4453 40.6898C37.4453 39.1332 38.7118 37.8667 40.2684 37.8667C41.825 37.8667 43.0915 39.1332 43.0915 40.6898C43.0915 42.2464 41.825 43.5129 40.2684 43.5129ZM40.2684 39.2252C39.4609 39.2252 38.8038 39.8823 38.8038 40.6898C38.8038 41.4973 39.4609 42.1544 40.2684 42.1544C41.0759 42.1544 41.733 41.4973 41.733 40.6898C41.733 39.8823 41.0759 39.2252 40.2684 39.2252Z" fill="#274DA1"/>
<path d="M32.5048 45.6081C30.9482 45.6081 29.6816 44.3416 29.6816 42.785C29.6816 41.2284 30.9482 39.9619 32.5048 39.9619C34.0614 39.9619 35.3279 41.2284 35.3279 42.785C35.3279 44.3416 34.0614 45.6081 32.5048 45.6081ZM32.5048 41.3204C31.6973 41.3204 31.0401 41.9775 31.0401 42.785C31.0401 43.5925 31.6973 44.2497 32.5048 44.2497C33.3122 44.2497 33.9694 43.5925 33.9694 42.785C33.9694 41.9775 33.3122 41.3204 32.5048 41.3204Z" fill="#274DA1"/>
<path d="M27.7169 28.0008V20.0392C27.7169 18.2747 26.2815 16.8393 24.5171 16.8393C23.6945 16.8393 22.9127 17.1506 22.3157 17.7162C22.0451 17.9727 21.6143 17.9625 21.3561 17.6906C21.0978 17.4181 21.1093 16.9883 21.3817 16.7301C22.0652 16.0822 22.922 15.6821 23.8396 15.5449V7.54521C23.8396 5.25807 21.9787 3.39722 19.6916 3.39722C18.5887 3.39722 17.5495 3.82838 16.7668 4.6111C16.0387 5.3475 15.6294 6.3054 15.5745 7.32228C16.6562 8.3537 17.3346 9.80461 17.3346 11.4137C17.3346 11.7887 17.0303 12.093 16.6553 12.093C16.2803 12.093 15.9761 11.7887 15.9761 11.4137C15.9761 9.04256 14.0471 7.11317 11.676 7.11317C9.3048 7.11317 7.37496 9.04256 7.37496 11.4137C7.37496 13.3042 8.63882 14.9997 10.4493 15.537C10.8083 15.6435 11.0135 16.0216 10.9065 16.3812C10.8189 16.6761 10.5492 16.8671 10.2556 16.8671C10.1919 16.8671 10.1264 16.8583 10.0619 16.8393C9.02443 16.5312 8.13624 15.9227 7.44948 15.141C7.44218 15.1412 7.43621 15.1452 7.42891 15.1452C5.14531 15.1452 3.28711 17.0033 3.28711 19.287V28.2047C3.28711 30.4499 5.08605 32.2741 7.31659 32.3352C8.20147 31.7617 9.25328 31.4249 10.3838 31.4249C10.7588 31.4249 11.0631 31.7292 11.0631 32.1042C11.0631 32.4792 10.7588 32.7834 10.3838 32.7834C8.01264 32.7834 6.08369 34.7124 6.08369 37.0835C6.08369 39.4547 8.01264 41.3841 10.3838 41.3841C12.1615 41.3841 13.7323 40.3153 14.3859 38.6614C14.523 38.312 14.9174 38.1409 15.2668 38.2789C15.6161 38.4168 15.7868 38.8113 15.6488 39.1602C15.4286 39.7182 15.127 40.2234 14.7637 40.6694C14.8535 42.8728 16.6604 44.641 18.885 44.641C19.9967 44.641 21.035 44.2108 21.808 43.4298C22.5943 42.6515 23.0241 41.6136 23.0241 40.5023V32.3012C22.4968 32.1183 22.0015 31.8449 21.5701 31.4793C21.2845 31.2365 21.2491 30.808 21.4914 30.5219C21.7346 30.2349 22.1636 30.2018 22.4493 30.4428C23.025 30.9314 23.76 31.2007 24.5171 31.2007C26.2815 31.2007 27.7169 29.7653 27.7169 28.0008ZM14.7432 27.8164C14.7432 28.1914 14.4389 28.4957 14.0639 28.4957C13.6889 28.4957 13.3847 28.1914 13.3847 27.8164V24.8699H9.67715V27.8164C9.67715 28.1914 9.3729 28.4957 8.9979 28.4957C8.6229 28.4957 8.31865 28.1914 8.31865 27.8164V22.2078C8.31865 20.4367 9.7594 18.9955 11.5309 18.9955C13.3024 18.9955 14.7432 20.4367 14.7432 22.2078V27.8164ZM19.4192 27.1354C19.7942 27.1354 20.0984 27.4397 20.0984 27.8147C20.0984 28.1897 19.7942 28.4939 19.4192 28.4939H16.574C16.199 28.4939 15.8947 28.1897 15.8947 27.8147C15.8947 27.4397 16.199 27.1354 16.574 27.1354H17.3178V20.5875H16.574C16.199 20.5875 15.8947 20.2833 15.8947 19.9083C15.8947 19.5333 16.199 19.229 16.574 19.229H19.4192C19.7942 19.229 20.0984 19.5333 20.0984 19.9083C20.0984 20.2833 19.7942 20.5875 19.4192 20.5875H18.6763V27.1354H19.4192Z" fill="#274DA1"/>
<path d="M11.5305 20.354C10.5081 20.354 9.67676 21.1858 9.67676 22.2078V23.5114H13.3843V22.2078C13.3843 21.1858 12.5529 20.354 11.5305 20.354Z" fill="#274DA1"/>
</svg>
