<svg width="57" height="57" viewBox="0 0 57 57" fill="none" xmlns="http://www.w3.org/2000/svg">
<g clip-path="url(#clip0_55_9260)">
<path d="M10.1885 0.142578C9.28229 0.142578 8.54785 0.877014 8.54785 1.7832V3.42383C8.54785 5.23621 10.0167 6.70508 11.8291 6.70508C13.6415 6.70508 15.1104 5.23621 15.1104 3.42383V1.7832C15.1104 0.877014 14.3759 0.142578 13.4697 0.142578H10.1885Z" fill="#274DA1"/>
<path d="M39.7197 0.142578H36.4385C35.5323 0.142578 34.7979 0.877014 34.7979 1.7832V3.42383C34.7979 5.23621 36.2667 6.70508 38.0791 6.70508C39.8915 6.70508 41.3604 5.23621 41.3604 3.42383V1.7832C41.3604 0.877014 40.6259 0.142578 39.7197 0.142578Z" fill="#274DA1"/>
<path d="M5.2666 46.1895H26.9263C26.7101 45.129 26.5947 44.0319 26.5947 42.9082C26.5947 33.8625 33.9553 26.502 43.001 26.502C45.3367 26.502 47.5503 27.0087 49.5635 27.8926V16.5488H0.235352V41.2676C0.235352 43.9857 2.54846 46.1895 5.2666 46.1895ZM34.7979 19.9395H41.3604C42.267 19.9395 43.001 20.6735 43.001 21.5801C43.001 22.4867 42.267 23.2207 41.3604 23.2207H34.7979C33.8912 23.2207 33.1572 22.4867 33.1572 21.5801C33.1572 20.6735 33.8912 19.9395 34.7979 19.9395ZM21.6729 19.9395H28.2354C29.142 19.9395 29.876 20.6735 29.876 21.5801C29.876 22.4867 29.142 23.2207 28.2354 23.2207H21.6729C20.7662 23.2207 20.0322 22.4867 20.0322 21.5801C20.0322 20.6735 20.7662 19.9395 21.6729 19.9395ZM21.6729 26.502H28.2354C29.142 26.502 29.876 27.236 29.876 28.1426C29.876 29.0492 29.142 29.7832 28.2354 29.7832H21.6729C20.7662 29.7832 20.0322 29.0492 20.0322 28.1426C20.0322 27.236 20.7662 26.502 21.6729 26.502ZM8.54785 19.9395H15.1104C16.017 19.9395 16.751 20.6735 16.751 21.5801C16.751 22.4867 16.017 23.2207 15.1104 23.2207H8.54785C7.64124 23.2207 6.90723 22.4867 6.90723 21.5801C6.90723 20.6735 7.64124 19.9395 8.54785 19.9395ZM8.54785 26.502H15.1104C16.017 26.502 16.751 27.236 16.751 28.1426C16.751 29.0492 16.017 29.7832 15.1104 29.7832H8.54785C7.64124 29.7832 6.90723 29.0492 6.90723 28.1426C6.90723 27.236 7.64124 26.502 8.54785 26.502ZM8.54785 33.0645H15.1104C16.017 33.0645 16.751 33.7985 16.751 34.7051C16.751 35.6117 16.017 36.3457 15.1104 36.3457H8.54785C7.64124 36.3457 6.90723 35.6117 6.90723 34.7051C6.90723 33.7985 7.64124 33.0645 8.54785 33.0645Z" fill="#274DA1"/>
<path d="M49.5635 8.3457C49.5635 5.62756 47.3597 3.42383 44.6416 3.42383C44.6416 7.04303 41.6983 9.98633 38.0791 9.98633C34.4599 9.98633 31.5166 7.04303 31.5166 3.42383H18.3916C18.3916 7.04303 15.4483 9.98633 11.8291 9.98633C8.2099 9.98633 5.2666 7.04303 5.2666 3.42383C2.54846 3.42383 0.235352 5.62756 0.235352 8.3457V13.2676H49.5635V8.3457Z" fill="#274DA1"/>
<path d="M43.001 29.7832C35.7523 29.7832 29.876 35.6595 29.876 42.9082C29.876 50.1569 35.7523 56.1426 43.001 56.1426C50.2496 56.1426 56.2354 50.1569 56.2354 42.9082C56.2354 35.6595 50.2496 29.7832 43.001 29.7832ZM49.5635 44.5488H43.001C42.0944 44.5488 41.3604 43.8148 41.3604 42.9082V36.3457C41.3604 35.4391 42.0944 34.7051 43.001 34.7051C43.9076 34.7051 44.6416 35.4391 44.6416 36.3457V41.2676H49.5635C50.4701 41.2676 51.2041 42.0016 51.2041 42.9082C51.2041 43.8148 50.4701 44.5488 49.5635 44.5488Z" fill="#274DA1"/>
</g>
<defs>
<clipPath id="clip0_55_9260">
<rect width="56" height="56" fill="white" transform="translate(0.235352 0.142578)"/>
</clipPath>
</defs>
</svg>
