<svg width="49" height="49" viewBox="0 0 49 49" fill="none" xmlns="http://www.w3.org/2000/svg">
<g clip-path="url(#clip0_53_9118)">
<path d="M21.6289 48.0776C23.2858 48.0776 24.6289 46.7345 24.6289 45.0776C24.6289 43.4208 23.2858 42.0776 21.6289 42.0776C19.9721 42.0776 18.6289 43.4208 18.6289 45.0776C18.6289 46.7345 19.9721 48.0776 21.6289 48.0776Z" fill="#274DA1"/>
<path d="M37.6289 48.0776C39.2858 48.0776 40.6289 46.7345 40.6289 45.0776C40.6289 43.4208 39.2858 42.0776 37.6289 42.0776C35.9721 42.0776 34.6289 43.4208 34.6289 45.0776C34.6289 46.7345 35.9721 48.0776 37.6289 48.0776Z" fill="#274DA1"/>
<path d="M48.6289 13.0776C48.6289 20.2456 42.7969 26.0776 35.6289 26.0776C28.4609 26.0776 22.6289 20.2456 22.6289 13.0776C22.6289 5.90964 28.4609 0.0776367 35.6289 0.0776367C42.7969 0.0776367 48.6289 5.90964 48.6289 13.0776ZM41.9449 7.07364C41.1129 6.34564 39.8509 6.43364 39.1229 7.26164L33.5309 13.6536L31.0429 11.1656C30.2609 10.3836 28.9969 10.3836 28.2149 11.1656C27.4329 11.9476 27.4329 13.2116 28.2149 13.9936L32.2149 17.9936C33.0329 18.8116 34.3729 18.7676 35.1329 17.8976L42.1329 9.89764C42.8609 9.06364 42.7769 7.79964 41.9449 7.07364Z" fill="#274DA1"/>
<path d="M18.6289 13.0776C18.6289 12.7396 18.6589 12.4096 18.6789 12.0776H13.3469L12.5869 8.46564C12.0549 5.94564 9.80292 4.10964 7.22892 4.09964L2.13492 4.07764C2.13292 4.07764 2.13092 4.07764 2.12892 4.07764C1.30292 4.07764 0.632924 4.74364 0.628924 5.57164C0.624924 6.39964 1.29492 7.07364 2.12292 7.07764L7.21492 7.09964C8.38492 7.10364 9.40893 7.93964 9.65092 9.08364L10.6609 13.8856L14.2809 31.0776H13.1289C10.6469 31.0776 8.62892 33.0956 8.62892 35.5776C8.62892 38.0596 10.6469 40.0776 13.1289 40.0776H43.1289C43.9569 40.0776 44.6289 39.4056 44.6289 38.5776C44.6289 37.7496 43.9569 37.0776 43.1289 37.0776H13.1289C12.3009 37.0776 11.6289 36.4056 11.6289 35.5776C11.6289 34.7496 12.3009 34.0776 13.1289 34.0776H16.1269H43.1289C43.8369 34.0776 44.4509 33.5796 44.5969 32.8856L45.9269 26.5716C43.0649 28.7616 39.5009 30.0776 35.6289 30.0776C26.2549 30.0776 18.6289 22.4516 18.6289 13.0776Z" fill="#274DA1"/>
</g>
<defs>
<clipPath id="clip0_53_9118">
<rect width="48" height="48" fill="white" transform="translate(0.628906 0.0776367)"/>
</clipPath>
</defs>
</svg>
