<svg width="49" height="49" viewBox="0 0 49 49" fill="none" xmlns="http://www.w3.org/2000/svg">
<g clip-path="url(#clip0_51_9103)">
<path d="M48.1378 14.6664L43.3588 10.5702C42.9369 10.2086 42.3611 10.1279 41.856 10.3603C41.3511 10.5926 41.0375 11.082 41.0375 11.6379V12.9216H35.8789C32.7723 12.9216 30.2539 15.44 30.2539 18.5466V20.3659C30.2959 20.4471 30.3357 20.5296 30.3724 20.6137C30.859 20.4219 31.3823 20.3217 31.921 20.3217C33.048 20.3217 34.1076 20.7607 34.9044 21.5578L35.8789 22.5323V18.5466H41.0374V19.8303C41.0374 20.3862 41.3511 20.8756 41.8559 21.1078C42.0472 21.1958 42.2485 21.2389 42.4478 21.2389C42.7748 21.2389 43.0965 21.1228 43.3588 20.8979L48.1377 16.8017C48.4499 16.5343 48.6289 16.1452 48.6289 15.7341C48.6289 15.323 48.4499 14.9339 48.1378 14.6664Z" fill="#274DA1"/>
<path d="M17.3368 20.3217C17.8756 20.3217 18.3988 20.4219 18.8854 20.6137C18.9222 20.5296 18.9619 20.4471 19.0039 20.3659V18.5466C19.0039 15.44 16.4855 12.9216 13.3789 12.9216H8.22041V11.6379C8.22041 11.082 7.90672 10.5926 7.40188 10.3603C6.89675 10.1279 6.32103 10.2086 5.89906 10.5702L1.11997 14.6664C0.807875 14.9339 0.628906 15.323 0.628906 15.7341C0.628906 16.1452 0.807875 16.5343 1.11997 16.8018L5.89897 20.898C6.16119 21.1228 6.48294 21.239 6.80994 21.239C7.00934 21.239 7.21053 21.1959 7.40178 21.1079C7.90672 20.8757 8.22031 20.3863 8.22031 19.8304V18.5466H13.3789V22.5321L14.3537 21.5573C15.1505 20.7604 16.21 20.3217 17.3368 20.3217Z" fill="#274DA1"/>
<path d="M26.504 18.0779C26.8261 18.0779 27.1399 18.1143 27.4415 18.183V7.66938H28.7252C29.281 7.66938 29.7705 7.35569 30.0027 6.85085C30.235 6.34582 30.1546 5.7701 29.7929 5.34804L25.6967 0.568943C25.4291 0.25685 25.04 0.0778809 24.629 0.0778809C24.2179 0.0778809 23.8287 0.25685 23.5612 0.568943L19.4649 5.34794C19.1032 5.77001 19.0228 6.34582 19.2551 6.85076C19.4873 7.35569 19.9769 7.66929 20.5326 7.66929H21.8165V18.1829C22.118 18.1142 22.4318 18.0778 22.7539 18.0778H26.504V18.0779Z" fill="#274DA1"/>
<path d="M36.8164 31.2029H36.3697C36.1076 30.2595 35.7334 29.3569 35.2504 28.5031L35.567 28.1866C35.8306 27.9228 35.9789 27.5651 35.9789 27.1922C35.9789 26.8192 35.8308 26.4615 35.567 26.1979L32.9153 23.5461C32.6517 23.2824 32.2939 23.1342 31.921 23.1342C31.548 23.1342 31.1903 23.2824 30.9266 23.5461L30.6101 23.8627C29.7563 23.3797 28.8538 23.0055 27.9103 22.7434V22.2966C27.9103 21.52 27.2806 20.8904 26.504 20.8904H22.754C21.9774 20.8904 21.3478 21.52 21.3478 22.2966V22.7433C20.4043 23.0055 19.5018 23.3796 18.6479 23.8626L18.3314 23.546C18.0677 23.2823 17.7101 23.1341 17.337 23.1341C16.964 23.1341 16.6064 23.2822 16.3426 23.546L13.691 26.1978C13.4273 26.4615 13.2792 26.8192 13.2792 27.1921C13.2792 27.5651 13.4274 27.9228 13.6911 28.1864L14.0076 28.5029C13.5246 29.3568 13.1504 30.2592 12.8883 31.2028H12.4414C11.6648 31.2028 11.0352 31.8324 11.0352 32.609V36.359C11.0352 37.1357 11.6648 37.7653 12.4414 37.7653H12.888C13.1502 38.7088 13.5243 39.6112 14.0073 40.4652L13.6908 40.7817C13.4271 41.0453 13.2789 41.4031 13.2789 41.776C13.2789 42.1489 13.427 42.5066 13.6907 42.7703L16.3423 45.422C16.6061 45.6858 16.9637 45.834 17.3367 45.834C17.7098 45.834 18.0674 45.6858 18.3312 45.422L18.6477 45.1054C19.5015 45.5885 20.404 45.9627 21.3476 46.2247V46.6716C21.3476 47.4483 21.9772 48.0779 22.7538 48.0779H26.5038C27.2804 48.0779 27.9101 47.4483 27.9101 46.6716V46.2249C28.8535 45.9628 29.7561 45.5886 30.61 45.1057L30.9264 45.4222C31.1901 45.6859 31.5478 45.8342 31.9208 45.8342C32.2937 45.8342 32.6515 45.686 32.9151 45.4222L35.5668 42.7705C35.8305 42.5069 35.9788 42.1491 35.9788 41.7762C35.9788 41.4033 35.8305 41.0455 35.5668 40.7818L35.2502 40.4653C35.7332 39.6115 36.1075 38.709 36.3695 37.7655H36.8164C37.593 37.7655 38.2227 37.1359 38.2227 36.3592V32.6092C38.2227 31.8325 37.593 31.2029 36.8164 31.2029ZM24.6296 39.1716C24.6296 39.1716 24.6294 39.1716 24.6292 39.1716C24.629 39.1716 24.629 39.1716 24.6288 39.1716C22.04 39.1716 19.9413 37.0729 19.9413 34.4841C19.9413 31.8953 22.04 29.7966 24.6288 29.7966H24.6292C24.6292 29.7966 24.6294 29.7966 24.6296 29.7966C27.2184 29.7966 29.3171 31.8953 29.3171 34.4841C29.3171 37.0729 27.2184 39.1716 24.6296 39.1716Z" fill="#274DA1"/>
</g>
<defs>
<clipPath id="clip0_51_9103">
<rect width="48" height="48" fill="white" transform="translate(0.628906 0.0778809)"/>
</clipPath>
</defs>
</svg>
