<svg width="49" height="49" viewBox="0 0 49 49" fill="none" xmlns="http://www.w3.org/2000/svg">
<g clip-path="url(#clip0_51_9026)">
<path d="M29.0028 25.0904H20.2569V24.0404C20.2569 23.9926 20.2569 23.9448 20.254 23.8998H29.0028V25.0904ZM24.079 29.2839H25.1797C26.2325 29.2839 27.1887 28.8535 27.8797 28.1598C28.3156 27.7267 28.6447 27.1895 28.8312 26.5923H20.4284C20.6169 27.1904 20.9469 27.7267 21.38 28.1598C22.0719 28.8535 23.0262 29.2839 24.079 29.2839ZM18.6012 20.5351C18.7925 20.7507 18.9894 20.9682 19.2284 21.2504C19.5397 21.6123 19.7759 21.9948 19.9456 22.3989H23.8794V16.9107L23.0684 16.0998C22.7759 15.8073 22.7759 15.332 23.0684 15.0395C23.3637 14.747 23.8362 14.747 24.1315 15.0395L24.6284 15.5392L25.1281 15.0395C25.4206 14.747 25.8959 14.747 26.1884 15.0395C26.4809 15.332 26.4809 15.8073 26.1884 16.0998L25.3775 16.9107V22.3989H29.3131C29.4809 21.9948 29.72 21.6123 30.0284 21.2504C30.2703 20.9692 30.4644 20.7507 30.6556 20.5351C32.0881 18.9357 33.3369 17.5398 33.3369 14.3645C33.3369 11.9617 32.3619 9.78292 30.7859 8.20698C29.21 6.63386 27.0331 5.65886 24.6284 5.65886C22.2256 5.65886 20.0469 6.63386 18.4709 8.20698C16.8978 9.78292 15.9228 11.9617 15.9228 14.3645C15.9228 17.5407 17.1715 18.9357 18.6012 20.5351ZM19.6353 32.911C19.6353 34.2901 20.1931 35.537 21.0969 36.4426C22.0006 37.3464 23.2494 37.9042 24.6284 37.9042C26.0075 37.9042 27.2562 37.3464 28.16 36.4426C29.0637 35.536 29.6244 34.2901 29.6244 32.911C29.6244 32.2548 29.4969 31.6304 29.2681 31.0585H19.9887C19.76 31.6304 19.6353 32.2548 19.6353 32.911ZM39.0481 31.0595H30.8553C31.0306 31.6445 31.1234 32.266 31.1234 32.912C31.1234 34.7035 30.3978 36.3273 29.2203 37.5039C28.0456 38.6785 26.4219 39.4042 24.6284 39.4042C22.835 39.4042 21.2112 38.6785 20.0365 37.5039C18.8619 36.3264 18.1334 34.7026 18.1334 32.912C18.1334 32.266 18.229 31.6445 18.4015 31.0595H10.2115V31.0623C9.79717 31.0623 9.46249 31.397 9.46249 31.8095V34.637C9.44092 34.9717 9.64624 35.2904 9.98092 35.4001L11.6684 35.9476L12.3275 36.1632C12.4737 36.721 12.6565 37.261 12.8722 37.7785C13.0897 38.3073 13.3456 38.8173 13.6325 39.3095L13.3165 39.9282L12.5244 41.4826C12.365 41.7695 12.4044 42.136 12.649 42.3807L13.9034 43.6379L15.1606 44.8914C15.3837 45.1145 15.7344 45.181 16.0297 45.0292L17.6131 44.2239L18.2319 43.9079C18.7231 44.1948 19.234 44.4498 19.76 44.6682C20.2812 44.8839 20.8203 45.0639 21.3781 45.2129L21.5909 45.872L22.1253 47.5145C22.2078 47.8389 22.5031 48.0779 22.8537 48.0779H26.4069C26.72 48.0779 27.0153 47.8764 27.1194 47.5595L27.6669 45.872L27.8825 45.2129C28.4375 45.0639 28.9803 44.8829 29.4978 44.6682C30.0237 44.4479 30.5365 44.1948 31.0287 43.9079L31.6475 44.2239L33.2019 45.016C33.4859 45.1754 33.8553 45.136 34.1 44.8914L35.3544 43.637L36.6115 42.3798C36.8347 42.1567 36.9012 41.806 36.7494 41.5107L35.9412 39.9273L35.6281 39.3085C35.915 38.8173 36.1672 38.3064 36.3856 37.7776C36.6012 37.2592 36.784 36.7201 36.9303 36.1623L37.5894 35.9467L39.2797 35.3992V35.3964C39.5797 35.3007 39.7953 35.0195 39.7953 34.6867V31.8751C39.7981 31.8507 39.7981 31.8301 39.7981 31.8085C39.7981 31.3942 39.4625 31.0595 39.0481 31.0595ZM11.0919 15.1145H13.3559C13.7703 15.1145 14.1078 14.7798 14.1078 14.3654C14.1078 13.951 13.7703 13.6164 13.3559 13.6164H11.0919C10.6803 13.6164 10.3428 13.951 10.3428 14.3654C10.3419 14.7798 10.6794 15.1145 11.0919 15.1145ZM35.9019 15.1145H38.1659C38.5803 15.1145 38.915 14.7798 38.915 14.3654C38.915 13.951 38.5803 13.6164 38.1659 13.6164H35.9019C35.4875 13.6164 35.1528 13.951 35.1528 14.3654C35.1528 14.7798 35.4875 15.1145 35.9019 15.1145ZM15.5881 24.4689L17.1875 22.8667C17.4828 22.5742 17.4828 22.0989 17.1875 21.8064C16.895 21.5139 16.4225 21.5139 16.1272 21.8064L14.5278 23.4085C14.2353 23.701 14.2353 24.1735 14.5278 24.4689C14.8203 24.7604 15.2956 24.7604 15.5881 24.4689ZM33.1297 6.92355L34.7319 5.32417C35.0244 5.03167 35.0244 4.55636 34.7319 4.26386C34.4365 3.97136 33.964 3.97136 33.6715 4.26386L32.0694 5.86323C31.7769 6.15573 31.7769 6.63105 32.0694 6.92355C32.3619 7.21886 32.8381 7.21886 33.1297 6.92355ZM24.6284 3.84386C25.0428 3.84386 25.3775 3.50636 25.3775 3.09198V0.827922C25.3775 0.416359 25.0428 0.0788594 24.6284 0.0788594C24.214 0.0779219 23.8794 0.415422 23.8794 0.827922V3.09198C23.8794 3.50636 24.214 3.84386 24.6284 3.84386ZM33.1297 21.8054C32.8372 21.5129 32.3619 21.5129 32.0694 21.8054C31.7769 22.0979 31.7769 22.5732 32.0694 22.8657L33.6715 24.4679C33.964 24.7604 34.4365 24.7604 34.7319 24.4679C35.0244 24.1726 35.0244 23.7001 34.7319 23.4076L33.1297 21.8054ZM16.1272 6.92355C16.4225 7.21886 16.895 7.21886 17.1875 6.92355C17.4828 6.63105 17.4828 6.15573 17.1875 5.86323L15.5881 4.26386C15.2956 3.97136 14.8203 3.97136 14.5278 4.26386C14.2353 4.55636 14.2353 5.03167 14.5278 5.32417L16.1272 6.92355Z" fill="#274DA1"/>
</g>
<defs>
<clipPath id="clip0_51_9026">
<rect width="48" height="48" fill="white" transform="translate(0.628906 0.0778809)"/>
</clipPath>
</defs>
</svg>
