<svg width="217" height="85" viewBox="0 0 217 85" fill="none" xmlns="http://www.w3.org/2000/svg">
<g clip-path="url(#clip0_339_424)">
<path d="M82.8782 43.0769H78.7266V59.2027H82.8782V43.0769Z" fill="white"/>
<path d="M100.433 59.1996V37.675H96.3211V45.2957C95.1654 43.8184 93.4409 43.0798 91.1536 43.0798C89.1067 43.0798 87.4431 43.8184 86.1595 45.2957C84.879 46.773 84.2373 48.7185 84.2373 51.129C84.2373 53.5396 84.879 55.485 86.1595 56.9623C87.4431 58.4489 89.1007 59.1905 91.1415 59.1905C93.4288 59.1905 95.1502 58.4518 96.309 56.9746V59.1996H100.436H100.433ZM95.3175 54.2114C94.6422 55.0107 93.6934 55.4121 92.4736 55.4121C91.254 55.4121 90.2473 55.0107 89.5082 54.2114C88.7782 53.4179 88.4133 52.3996 88.4133 51.1534C88.4133 49.907 88.7782 48.8614 89.5082 48.071C90.2473 47.2716 91.2358 46.8702 92.4736 46.8702C93.7115 46.8702 94.6331 47.2655 95.3175 48.0589C96.0017 48.8523 96.3455 49.8798 96.3455 51.1413C96.3455 52.4028 96.0017 53.3997 95.3175 54.2114Z" fill="white"/>
<path d="M109.883 43.0947C108.922 43.0947 107.973 43.2621 107.039 43.6025C106.121 43.9308 105.272 44.4201 104.487 45.0706C103.712 45.712 103.088 46.5602 102.617 47.621C102.145 48.688 101.908 49.8673 101.908 51.1562C101.908 53.6215 102.678 55.5821 104.217 57.0413C105.75 58.4912 107.867 59.2177 110.573 59.2177L110.628 59.1903C111.419 59.1903 112.182 59.0961 112.912 58.9107C113.642 58.7253 114.229 58.5095 114.676 58.2693C115.12 58.0291 115.534 57.7494 115.917 57.4272C116.337 57.0808 116.586 56.8619 116.666 56.7737C116.772 56.6491 116.851 56.5548 116.906 56.4941L114.689 54.3845L114.247 54.7462C113.962 54.959 113.496 55.1869 112.845 55.4271C112.194 55.6673 111.522 55.7858 110.829 55.7858C109.503 55.7858 108.447 55.5001 107.663 54.9316C106.872 54.3633 106.364 53.6671 106.139 52.8495H117.718C117.77 52.4481 117.797 51.9953 117.797 51.4875C117.797 48.8369 117.067 46.7728 115.607 45.2956C114.147 43.8274 112.237 43.0947 109.88 43.0947H109.883ZM106.118 50.1137C106.163 49.1894 106.513 48.3871 107.173 47.7122C107.842 47.0343 108.739 46.697 109.871 46.697C111.002 46.697 111.887 47.0343 112.529 47.7122C113.162 48.3871 113.487 49.1894 113.502 50.1137H106.118Z" fill="white"/>
<path d="M126.852 43.0828C124.51 43.0828 122.232 43.6118 120.015 44.6726L121.03 47.7032C121.59 47.4358 122.366 47.1835 123.354 46.9433C124.343 46.7031 125.307 46.5846 126.253 46.5846C128.622 46.5846 129.778 47.7063 129.726 49.9497C128.345 49.5483 126.958 49.3478 125.559 49.3478C123.859 49.3478 122.375 49.7885 121.113 50.67C119.847 51.5516 119.218 52.7736 119.218 54.342C119.218 55.9106 119.753 57.0748 120.821 57.9169C121.879 58.7528 123.299 59.1722 125.079 59.1722C127.278 59.1814 128.865 58.5005 129.845 57.1296L129.872 59.2088H133.905V50.202C133.905 47.8096 133.33 46.0252 132.184 44.852C131.034 43.6787 129.258 43.0889 126.855 43.0889L126.852 43.0828ZM129.735 53.4666C129.735 54.3573 129.401 55.032 128.735 55.4941C128.059 55.9654 127.229 56.2024 126.25 56.2024L126.265 56.1871C125.419 56.1871 124.723 55.9957 124.181 55.6126C123.631 55.2206 123.354 54.6947 123.354 54.0381C123.354 53.3814 123.665 52.8496 124.288 52.4756C124.911 52.1019 125.684 51.9163 126.612 51.9163C127.716 51.9163 128.756 52.0896 129.735 52.4361V53.4666Z" fill="white"/>
<path d="M147.588 51.4784C146.974 50.7398 146.226 50.2474 145.347 49.9981C144.465 49.7488 143.583 49.5481 142.704 49.3963C141.822 49.2442 141.074 49.0467 140.459 48.7974C139.845 48.5481 139.538 48.1743 139.538 47.6758C139.538 46.7516 140.295 46.2865 141.807 46.2865C143.4 46.2865 144.936 46.7029 146.414 47.542L147.722 44.7514C146.083 43.6571 144.091 43.11 141.74 43.11C139.951 43.11 138.467 43.5356 137.293 44.3927C136.116 45.2469 135.529 46.4568 135.529 48.0222C135.529 48.9828 135.751 49.7945 136.198 50.4509C136.633 51.1106 137.196 51.5757 137.88 51.8524C138.564 52.1289 139.3 52.3691 140.082 52.5727C140.928 52.7855 141.654 52.9406 142.257 53.0408C142.917 53.1472 143.476 53.3418 143.939 53.6276C144.392 53.9133 144.62 54.2781 144.62 54.722C144.62 55.6307 143.811 56.0837 142.19 56.0837C141.335 56.0837 140.414 55.9317 139.425 55.6307C138.4 55.3207 137.552 54.9407 136.873 54.4969L135.377 57.2053C137.284 58.5946 139.614 59.2876 142.375 59.2876L142.296 59.3029C144.2 59.3029 145.712 58.8711 146.822 58.0078C147.944 57.1354 148.504 55.9225 148.504 54.3662C148.504 53.1837 148.197 52.2232 147.582 51.4845L147.588 51.4784Z" fill="white"/>
<path d="M92.1333 72.6991C92.7933 71.623 93.1218 70.4039 93.1218 69.0422C93.1218 67.2457 92.4559 65.7228 91.1206 64.4766C89.7944 63.2393 88.0486 62.6223 85.8862 62.6223C84.1039 62.6223 82.5436 63.1815 81.1992 64.3033C79.8549 65.4248 78.9881 66.811 78.5957 68.4677C81.1232 69.1516 82.5223 69.5255 82.7899 69.5893C83.0211 68.6561 83.4073 67.9083 83.9518 67.346C84.4932 66.7868 85.1623 66.5071 85.9531 66.5071C86.7439 66.5071 87.413 66.732 87.9301 67.1879C88.4472 67.6409 88.7056 68.3036 88.7056 69.176C88.7056 69.9146 88.5323 70.5651 88.1856 71.1245C87.8297 71.702 87.118 72.4468 86.0474 73.3525L78.836 79.5324V82.9491H92.8846L92.9241 79.1979H85.1136L88.5323 76.2737C90.2873 74.9485 91.4886 73.7569 92.1395 72.6991H92.1333Z" fill="white"/>
<path d="M100.658 62.9413H96.3457V82.9461H100.658V62.9413Z" fill="white"/>
<path d="M102.196 66.6803H107.86V82.9491H112.2V66.6803H117.836V62.9413H102.196V66.6803Z" fill="white"/>
<path d="M80.8021 36.7903C79.4334 36.7903 78.3232 37.8997 78.3232 39.2676C78.3232 40.6355 79.4334 41.745 80.8021 41.745C82.1707 41.745 83.2809 40.6355 83.2809 39.2676C83.2809 37.8997 82.1707 36.7903 80.8021 36.7903Z" fill="white"/>
<path d="M68.5254 2.8241V80.9277L82.133 72.7598L76.9321 71.3768L72.3881 74.1033V8.39295L139.8 33.6625L129.121 40.0703L134.322 41.4533L148.65 32.857L68.5254 2.8241Z" fill="white"/>
</g>
<defs>
<clipPath id="clip0_339_424">
<rect width="80.125" height="80.125" fill="white" transform="translate(68.5254 2.8241)"/>
</clipPath>
</defs>
</svg>
