<svg width="216" height="85" viewBox="0 0 216 85" fill="none" xmlns="http://www.w3.org/2000/svg">
<path fill-rule="evenodd" clip-rule="evenodd" d="M200.333 27.3389V56.7013H194.828L194.526 54.4553C193.129 56.0684 190.641 57.1593 188.242 57.1593C181.942 57.1593 177.384 53.1369 177.384 46.301C177.384 39.4653 181.942 35.4427 188.242 35.4427C191.078 35.4427 193.012 36.6306 194.285 38.0194V27.3389H200.333ZM188.859 40.8164C185.817 40.8164 183.35 43.2829 183.35 46.3251C183.35 49.3676 185.817 51.834 188.859 51.834C191.902 51.834 194.368 49.3676 194.368 46.3251C194.368 43.2829 191.902 40.8164 188.859 40.8164Z" fill="white"/>
<path fill-rule="evenodd" clip-rule="evenodd" d="M61.6129 35.443C64.6304 35.443 66.5441 36.7473 67.8086 38.2676L68.1423 35.9506H73.7045V56.7016H68.1987L67.8972 54.4556C66.4995 56.0687 64.0126 57.1596 61.6129 57.1596C55.3128 57.1596 50.7549 53.1372 50.7549 46.3013C50.7549 39.4656 55.3128 35.443 61.6129 35.443ZM62.2304 40.8167C59.1879 40.8167 56.7215 43.2832 56.7215 46.3254C56.7215 49.3679 59.1879 51.8343 62.2304 51.8343C65.2729 51.8343 67.7391 49.3679 67.7391 46.3254C67.7391 43.2832 65.2729 40.8167 62.2304 40.8167Z" fill="white"/>
<path fill-rule="evenodd" clip-rule="evenodd" d="M143.934 35.9503H136.484L130.319 44.0995V27.3389H124.271V56.7016H130.319V47.5862L137.502 56.7016H145.156L135.99 45.7379L143.934 35.9503Z" fill="white"/>
<path fill-rule="evenodd" clip-rule="evenodd" d="M145.72 56.7016H151.768V35.9503H145.72V56.7016Z" fill="white"/>
<path fill-rule="evenodd" clip-rule="evenodd" d="M148.741 26.5686C146.854 26.5686 145.325 28.0978 145.325 29.9841C145.325 31.8703 146.854 33.3995 148.741 33.3995C150.627 33.3995 152.156 31.8703 152.156 29.9841C152.156 28.0978 150.627 26.5686 148.741 26.5686Z" fill="white"/>
<path fill-rule="evenodd" clip-rule="evenodd" d="M40.6167 35.4464C37.7411 35.4464 35.5758 36.5387 33.7277 39.3529C32.3836 36.3287 29.9471 35.4545 27.6787 35.4545C25.9144 35.4545 23.7879 36.2364 22.4008 38.2676L22.0671 35.9504H16.5049V56.7017H22.5539V45.6182C22.5539 42.9299 24.0795 40.8653 26.3508 40.9074C28.6902 40.9074 29.8089 42.1738 29.8089 45.3661V56.7017H35.8579V45.6182C35.8579 42.9299 37.3835 40.8653 39.6551 40.9074C41.9942 40.9074 43.1129 42.1738 43.1129 45.3661V56.7017H49.1619V45.3602C49.1619 37.6307 44.9433 35.4464 40.6167 35.4464Z" fill="white"/>
<path fill-rule="evenodd" clip-rule="evenodd" d="M89.1622 35.4293C86.823 35.4293 84.1911 36.4487 82.5652 38.2676L82.2312 35.9504H76.6692L76.6689 56.7017H82.7354V45.973C82.7354 43.2844 84.6255 40.8482 87.44 40.8903C90.3383 40.8903 91.7245 42.5283 91.7245 45.7208V56.7017H97.7736V45.6788C97.7736 37.6137 93.7459 35.4293 89.1622 35.4293Z" fill="white"/>
<path fill-rule="evenodd" clip-rule="evenodd" d="M112.932 35.4293C110.592 35.4293 107.961 36.4487 106.334 38.2676L106.001 35.9504H100.439L100.438 56.7017H106.505V45.973C106.505 43.2844 108.395 40.8482 111.209 40.8903C114.108 40.8903 115.494 42.5283 115.494 45.7208V56.7017H121.543V45.6788C121.543 37.6137 117.515 35.4293 112.932 35.4293Z" fill="white"/>
<path fill-rule="evenodd" clip-rule="evenodd" d="M167.182 35.4293C164.842 35.4293 162.211 36.4487 160.585 38.2676L160.251 35.9504H154.689L154.688 56.7017H160.755V45.973C160.755 43.2844 162.645 40.8482 165.459 40.8903C168.358 40.8903 169.744 42.5283 169.744 45.7208V56.7017H175.793V45.6788C175.793 37.6137 171.765 35.4293 167.182 35.4293Z" fill="white"/>
</svg>
