<svg width="216" height="85" viewBox="0 0 216 85" fill="none" xmlns="http://www.w3.org/2000/svg">
<g clip-path="url(#clip0_339_368)">
<g clip-path="url(#clip1_339_368)">
<g clip-path="url(#clip2_339_368)">
<path d="M71.0391 54.0139L57.7613 39.1094V54.0139H54.1738V31.3385H56.1916L68.9164 45.5494V31.3385H72.504V54.0139H71.0391Z" fill="white"/>
<path d="M48.2221 31.3385H44.6348V54.0139H48.2221V31.3385Z" fill="white"/>
<path d="M77.9902 31.3385H84.3366C87.1367 31.3385 89.4516 31.8983 91.2826 33.0198C93.112 34.1413 94.4448 35.5843 95.2835 37.3487C96.1214 39.1149 96.5408 40.993 96.5408 42.9868C96.5408 45.1881 96.0345 47.1242 95.0226 48.7966C94.0108 50.4688 92.6569 51.7564 90.9608 52.6593C89.2646 53.5624 87.4139 54.0139 85.4105 54.0139H77.9902V31.3385ZM84.767 50.5248C86.3615 50.5248 87.7659 50.225 88.9836 49.6219C90.2001 49.0205 91.1509 48.1318 91.8352 46.9598C92.5195 45.786 92.8625 44.3791 92.8625 42.7394C92.8625 40.9533 92.4894 39.4634 91.7426 38.2697C90.9957 37.076 90.0448 36.1983 88.8913 35.6384C87.7356 35.0786 86.5447 34.7969 85.3198 34.7969H81.5795V50.5266H84.7687L84.767 50.5248Z" fill="white"/>
<path d="M110.686 42.3045C109.879 41.8277 108.853 41.3564 107.637 40.9031C106.537 40.4769 105.628 40.0814 104.935 39.7292C104.263 39.3879 103.703 38.9527 103.273 38.438C102.853 37.9378 102.65 37.3418 102.65 36.6158C102.65 35.5774 103.036 34.7503 103.831 34.0875C104.629 33.4211 105.717 33.0834 107.065 33.0834C107.886 33.0834 108.741 33.2044 109.603 33.4446C110.473 33.6848 111.272 33.9809 111.985 34.3223L112.204 34.427L112.997 32.8143L112.777 32.7023C111.957 32.287 111.007 31.9384 109.957 31.6675C108.901 31.3967 107.868 31.2594 106.88 31.2594C105.721 31.2811 104.652 31.5213 103.705 31.9764C102.748 32.4351 101.993 33.0852 101.454 33.9105C100.915 34.7376 100.64 35.7002 100.64 36.7711C100.64 37.842 100.928 38.801 101.493 39.5396C102.048 40.262 102.741 40.8489 103.557 41.2842C104.354 41.7086 105.372 42.1546 106.585 42.6043C107.658 43.0088 108.56 43.4134 109.262 43.8034C109.943 44.1826 110.517 44.692 110.968 45.315C111.409 45.9255 111.632 46.693 111.632 47.5958C111.632 48.5621 111.388 49.3982 110.906 50.0791C110.421 50.7671 109.783 51.2873 109.011 51.625C107.336 52.36 105.417 52.2967 103.431 51.513C102.368 51.094 101.461 50.5973 100.736 50.0394L100.512 49.8678L99.5605 51.549L99.7548 51.6791C102.025 53.1962 104.354 53.9655 106.672 53.9655C108.016 53.9655 109.23 53.6981 110.278 53.1709C111.337 52.6399 112.169 51.8777 112.757 50.9098C113.343 49.9401 113.642 48.8149 113.642 47.5634C113.642 46.2468 113.352 45.1489 112.782 44.3C112.22 43.4639 111.516 42.7921 110.69 42.3027" fill="white"/>
<path d="M161.895 31.3385H159.916V54.0139H161.895V31.3385Z" fill="white"/>
<path d="M207.684 31.3385H193.111V33.2871H199.378L199.409 54.0139H201.388L201.357 33.2871H207.684V31.3385Z" fill="white"/>
<path d="M132.102 32.962C130.875 31.8839 129.206 31.3385 127.136 31.3385H119.061V54.0139H120.866V44.3376H126.985C128.541 44.3376 129.857 44.0252 130.897 43.4076C131.938 42.7899 132.718 41.9646 133.215 40.9551C133.707 39.9528 133.957 38.8512 133.957 37.6828C133.957 35.633 133.332 34.0438 132.1 32.9602M131.694 39.9077C131.375 40.6445 130.82 41.2766 130.043 41.7895C129.266 42.3023 128.237 42.5624 126.982 42.5624L120.918 42.557V42.5624H120.863V33.1101H120.918V33.1155L127.284 33.1101C128.828 33.1101 130.043 33.5345 130.897 34.3707C131.748 35.205 132.18 36.3193 132.18 37.6828C132.18 38.4142 132.017 39.1637 131.694 39.9077Z" fill="white"/>
<path d="M32.9474 31.3385L24.5869 51.2904L20.1551 40.7149L18.084 45.6559L21.5862 54.0139H27.5859L35.0186 36.2795V54.0139H38.6895V31.3385H32.9474Z" fill="white"/>
<path d="M22.2241 31.3385H18.082L8.58008 54.0139H12.7222L20.1531 36.2795L24.5848 46.8551L26.6559 41.9141L22.2241 31.3385Z" fill="white"/>
<path d="M152.062 54.0148H154.003L153.987 53.9876L147.945 44.2284C148.867 44.0894 149.68 43.8166 150.366 43.4085C151.409 42.7891 152.189 41.9655 152.686 40.9561C153.179 39.9538 153.429 38.8522 153.429 37.6837C153.429 35.634 152.803 34.0447 151.571 32.9612C150.344 31.883 148.675 31.3376 146.605 31.3376H138.529V54.0129H140.335V44.3368H146.012L152.045 53.9858L152.062 54.0129V54.0148ZM140.391 42.5597V42.5652H140.335V33.1129H140.391V33.1183L146.756 33.1129C148.3 33.1129 149.515 33.5373 150.369 34.3734C151.22 35.2096 151.652 36.322 151.652 37.6855C151.652 38.4169 151.489 39.1664 151.168 39.9105C150.847 40.6473 150.292 41.2793 149.515 41.7922C148.738 42.3051 147.71 42.5652 146.454 42.5652L140.391 42.5597Z" fill="white"/>
<path d="M186.585 31.3213V50.4281L181.684 44.4397L178.546 40.6038L171.266 31.6608V31.659L171.063 31.4116L171.003 31.3393H169.303L169.271 54.0146H171.266V34.9097L177.73 42.8034L187.003 53.9985H188.546L188.58 31.3213H186.585Z" fill="white"/>
</g>
</g>
</g>
<defs>
<clipPath id="clip0_339_368">
<rect width="200" height="23.5684" fill="white" transform="translate(7.95508 30.853)"/>
</clipPath>
<clipPath id="clip1_339_368">
<rect width="200" height="23.5684" fill="white" transform="translate(7.95508 30.853)"/>
</clipPath>
<clipPath id="clip2_339_368">
<rect width="199.925" height="23.5684" fill="white" transform="translate(7.99023 30.853)"/>
</clipPath>
</defs>
</svg>
