<svg width="49" height="49" viewBox="0 0 49 49" fill="none" xmlns="http://www.w3.org/2000/svg">
<path fill-rule="evenodd" clip-rule="evenodd" d="M32.209 4.86084V10.5792H38.0252L32.209 4.86084Z" fill="#274DA1"/>
<path fill-rule="evenodd" clip-rule="evenodd" d="M10.2041 3.82593V28.3824H39.1045V12.0775H31.4589C31.045 12.0775 30.7091 11.7417 30.7091 11.3277V3.82593H10.2041ZM19.2179 16.6036C19.5166 16.8887 19.529 17.3609 19.2439 17.6608L16.7925 20.23L19.2439 22.8004C19.529 23.0991 19.5166 23.5725 19.2179 23.8575C18.9192 24.1426 18.4458 24.1302 18.1607 23.8315C18.1558 23.8265 18.3008 23.9777 15.2421 20.774C14.9421 20.489 14.931 20.0143 15.2173 19.7144L15.2185 19.7156L18.1607 16.6309C18.4458 16.331 18.918 16.3198 19.2179 16.6036ZM25.2473 16.2331C25.3812 15.8439 25.8063 15.6369 26.1954 15.7708C26.5846 15.9046 26.7916 16.3297 26.6577 16.7189L24.06 24.2281C23.9262 24.6173 23.5011 24.8242 23.1119 24.6904C22.7228 24.5565 22.5158 24.1314 22.6496 23.7423L25.2473 16.2331ZM30.0907 16.6036C30.3894 16.3186 30.8628 16.331 31.1479 16.6296L34.0901 19.7144L34.0913 19.7131C34.3764 20.0131 34.3652 20.4865 34.0665 20.7728L34.0529 20.7852L31.1479 23.8315C30.8628 24.1302 30.3906 24.1426 30.0907 23.8575C29.792 23.5725 29.7796 23.1003 30.0647 22.8004L32.5161 20.23L30.0647 17.6595C29.7796 17.3609 29.792 16.8887 30.0907 16.6036Z" fill="#274DA1"/>
<path fill-rule="evenodd" clip-rule="evenodd" d="M30.9035 35.6588V37.5848C30.9035 37.9987 30.5677 38.3346 30.1537 38.3346C29.7398 38.3346 29.4039 37.9987 29.4039 37.5848C29.4039 37.4187 29.4039 32.1985 29.4039 32.0523C29.4039 31.6384 29.7398 31.3025 30.1537 31.3025H32.1949C32.796 31.3025 33.3401 31.5466 33.7342 31.9408C34.5844 32.7909 34.5856 34.1691 33.7342 35.0205C33.3401 35.4146 32.796 35.6588 32.1949 35.6588H30.9035ZM28.3777 32.5431L25.8916 38.0755L25.8928 38.078C25.6177 38.6915 24.7291 38.6555 24.5035 38.0222L22.0409 32.5431C21.8724 32.1663 22.0422 31.7251 22.419 31.5566C22.7957 31.388 23.2369 31.5578 23.4055 31.9346L25.21 35.9488L27.0145 31.9346C27.183 31.5578 27.6242 31.3892 28.001 31.5566C28.3777 31.7239 28.5451 32.1663 28.3777 32.5431ZM21.1288 32.2444V37.7707C21.1288 38.1846 20.7929 38.5205 20.379 38.5205C19.965 38.5205 19.6292 38.1846 19.6292 37.7707V34.9387L18.7021 36.483C18.4431 37.0072 17.6958 37.0481 17.3884 36.5363L17.3897 36.5338L16.4329 34.9387V37.7707C16.4329 38.1846 16.097 38.5205 15.6831 38.5205C15.2691 38.5205 14.9333 38.1846 14.9333 37.7707V32.2394C14.9333 31.8255 15.2691 31.4896 15.6831 31.4896C15.9781 31.4896 16.2321 31.6594 16.3548 31.9073L18.0304 34.6995L19.737 31.8552L19.7358 31.8528C19.9489 31.4983 20.4087 31.383 20.7632 31.5962C21.0011 31.7375 21.13 31.9878 21.1288 32.2444ZM7.1353 39.8788C7.1353 39.8961 7.14273 39.9122 7.15389 39.9234C7.18115 39.9507 5.50555 39.942 42.1097 39.942C42.1444 39.942 42.1729 39.9135 42.1729 39.8788C42.1655 29.3034 42.1903 29.9355 42.1544 29.9008C42.1308 29.8772 7.19355 29.8611 7.15389 29.9008C7.11795 29.9355 7.14273 29.3022 7.1353 39.8788Z" fill="#274DA1"/>
<path fill-rule="evenodd" clip-rule="evenodd" d="M30.9043 32.802V34.1603H32.1957C32.3828 34.1603 32.5526 34.0847 32.6753 33.962C33.1017 33.5357 32.798 32.8032 32.1957 32.8032H30.9043V32.802Z" fill="#274DA1"/>
<path fill-rule="evenodd" clip-rule="evenodd" d="M10.2041 41.4402H39.1045V44.4741H10.2041V41.4402Z" fill="#274DA1"/>
</svg>
