<svg width="49" height="49" viewBox="0 0 49 49" fill="none" xmlns="http://www.w3.org/2000/svg">
<g clip-path="url(#clip0_51_9111)">
<path fill-rule="evenodd" clip-rule="evenodd" d="M25.3787 6.53477V10.7016C25.1304 10.6879 24.8804 10.6807 24.6287 10.6807C24.377 10.6807 24.1269 10.6878 23.8787 10.7016V6.53477C22.405 6.18892 21.3581 4.8692 21.3581 3.35064C21.3581 1.54455 22.8226 0.0800781 24.6287 0.0800781C26.4348 0.0800781 27.8993 1.54455 27.8993 3.35064C27.8993 4.86911 26.8523 6.18902 25.3787 6.53477ZM24.6287 17.1176C22.5762 17.1176 20.9125 18.7813 20.9125 20.8338C20.9125 22.8854 22.5749 24.5487 24.6264 24.55C26.6693 24.5742 28.3448 22.862 28.3448 20.8338C28.3449 18.7813 26.6813 17.1176 24.6287 17.1176ZM24.6287 15.6176C21.748 15.6176 19.4125 17.9531 19.4125 20.8338C19.4125 22.2741 19.9964 23.5781 20.9404 24.5221C21.1329 24.7147 21.3405 24.8922 21.5611 25.0529C18.5595 26.0689 16.2345 28.5209 15.3911 31.5815C13.7269 29.5345 12.7292 26.9239 12.7292 24.0801C12.7292 20.794 14.0611 17.8192 16.2144 15.6659C18.3678 13.5126 21.3427 12.1808 24.6287 12.1808C27.9147 12.1808 30.8896 13.5127 33.0428 15.6659C35.1961 17.8193 36.528 20.7941 36.528 24.0801C36.528 26.924 35.5302 29.5347 33.866 31.5817C33.0224 28.5242 30.6956 26.068 27.6964 25.0528C27.917 24.8921 28.1245 24.7147 28.3171 24.5221C29.2611 23.5781 29.8449 22.2741 29.8449 20.8338C29.8449 17.9531 27.5093 15.6176 24.6287 15.6176ZM32.6196 32.8974C32.0238 29.008 28.589 26.0022 24.6288 26.05C20.6827 26.0024 17.2318 29.024 16.638 32.8974C18.7499 34.8126 21.5531 35.9795 24.6288 35.9795C27.7044 35.9795 30.5076 34.8126 32.6196 32.8974ZM13.7093 37.8353L16.159 34.4635C16.5454 34.779 16.9496 35.0734 17.3701 35.3449L14.921 38.7159C15.9075 39.8601 15.9811 41.545 15.0898 42.7717C14.0301 44.2302 11.9821 44.5563 10.5232 43.4963C9.0646 42.4366 8.73863 40.3885 9.79856 38.9296C10.6904 37.7021 12.3151 37.25 13.7093 37.8353ZM7.70991 28.7903L11.6708 27.5033C11.7988 27.9893 11.9535 28.4645 12.1331 28.9272L8.17256 30.2141C8.22478 30.8308 8.09888 31.4376 7.82766 31.97C7.00847 33.5778 5.03766 34.2189 3.42966 33.3996C1.82194 32.5804 1.18078 30.6096 1.99997 29.0017C2.81916 27.394 4.79006 26.7528 6.39797 27.572C6.93075 27.8435 7.38956 28.2606 7.70991 28.7903ZM35.5479 10.325C36.1174 10.564 36.7335 10.6312 37.3246 10.5375C39.1099 10.2547 40.3237 8.58339 40.0409 6.7982C39.7582 5.01292 38.0868 3.79914 36.3016 4.08189C34.5162 4.36464 33.3025 6.03592 33.5853 7.8212C33.6788 8.41173 33.933 8.97658 34.3363 9.44448L31.8872 12.8155C32.3077 13.087 32.7119 13.3814 33.0983 13.697L35.5479 10.325ZM41.5474 19.3699L37.5865 20.6569C37.4585 20.1709 37.3038 19.6957 37.1242 19.2329L41.0848 17.946C41.0326 17.3293 41.1585 16.7226 41.4297 16.1902C42.2489 14.5824 44.2197 13.9413 45.8277 14.7606C47.4353 15.5798 48.0767 17.5506 47.2573 19.1585C46.4382 20.7661 44.4673 21.4075 42.8593 20.5882C42.3265 20.3167 41.8677 19.8996 41.5474 19.3699ZM8.17256 17.9461L12.1331 19.233C11.9535 19.6958 11.7988 20.171 11.6708 20.657L7.70991 19.37C7.38956 19.8997 6.93075 20.3167 6.39797 20.5882C4.79006 21.4075 2.81906 20.7662 1.99997 19.1585C1.18078 17.5506 1.82185 15.5797 3.42966 14.7606C5.03756 13.9413 7.00838 14.5825 7.82756 16.1902C8.09888 16.7226 8.22478 17.3294 8.17256 17.9461ZM14.921 9.44448C15.3244 8.97667 15.5785 8.41173 15.6721 7.8212C15.9548 6.03602 14.7411 4.36464 12.9558 4.08189C11.1706 3.79914 9.49922 5.01292 9.21647 6.7982C8.93372 8.58339 10.1474 10.2548 11.9328 10.5375C12.5239 10.6312 13.1399 10.564 13.7093 10.3251L16.1591 13.6969C16.5455 13.3814 16.9497 13.087 17.3702 12.8155L14.921 9.44448ZM41.0849 30.2141L37.1243 28.9272C37.3039 28.4645 37.4585 27.9893 37.5866 27.5033L41.5477 28.7903C41.868 28.2606 42.3267 27.8436 42.8595 27.5721C44.4685 26.7522 46.4378 27.3929 47.2575 29.0018C48.0767 30.6096 47.4356 32.5806 45.8279 33.3997C44.22 34.219 42.2491 33.5778 41.4299 31.9701C41.1585 31.4377 41.0326 30.8308 41.0849 30.2141ZM34.3364 38.7158L31.8873 35.3448C32.3078 35.0733 32.712 34.7788 33.0983 34.4634L35.5481 37.8352C36.1176 37.5962 36.7336 37.5291 37.3247 37.6227C39.1101 37.9055 40.3238 39.5769 40.041 41.362C39.7583 43.1473 38.0869 44.3611 36.3017 44.0784C34.5164 43.7956 33.3026 42.1242 33.5854 40.339C33.6788 39.7485 33.9331 39.1836 34.3364 38.7158ZM23.8817 41.6272V37.4589C24.129 37.4725 24.378 37.4796 24.6288 37.4796C24.8795 37.4796 25.1286 37.4725 25.3759 37.4589V41.6248C25.979 41.7658 26.5179 42.0736 26.9413 42.497C28.2167 43.7724 28.217 45.8467 26.9413 47.1221C25.6711 48.3924 23.5864 48.3925 22.3162 47.1221C21.0407 45.8465 21.0407 43.7724 22.3162 42.497C22.7385 42.0745 23.2775 41.7675 23.8817 41.6272Z" fill="#274DA1"/>
</g>
<defs>
<clipPath id="clip0_51_9111">
<rect width="48" height="48" fill="white" transform="translate(0.628906 0.0776367)"/>
</clipPath>
</defs>
</svg>
