<svg width="49" height="49" viewBox="0 0 49 49" fill="none" xmlns="http://www.w3.org/2000/svg">
<g clip-path="url(#clip0_54_9130)">
<path d="M2.11094 8.95029L1.71794 9.16704C1.64181 9.20721 1.57465 9.26245 1.52057 9.32942C1.4665 9.39639 1.42663 9.47367 1.4034 9.55655C1.38017 9.63943 1.37407 9.72618 1.38546 9.8115C1.39686 9.89681 1.42552 9.97892 1.46969 10.0528L2.55719 11.8528C2.65198 12.0033 2.80082 12.1117 2.97311 12.1558C3.1454 12.1999 3.32803 12.1762 3.48344 12.0898L3.88094 11.8708C4.00219 11.8066 4.13927 11.7784 4.27601 11.7896C4.41276 11.8007 4.54345 11.8508 4.65269 11.9338C5.04432 12.2211 5.4707 12.4577 5.92169 12.638C6.04778 12.6833 6.15734 12.7654 6.23612 12.8738C6.31491 12.9821 6.35927 13.1116 6.36344 13.2455V13.6798C6.36757 13.8551 6.44087 14.0216 6.56734 14.143C6.6938 14.2644 6.86316 14.3308 7.03844 14.3278H9.21344C9.38872 14.3308 9.55808 14.2644 9.68454 14.143C9.811 14.0216 9.8843 13.8551 9.88844 13.6798V13.2455C9.89261 13.1116 9.93697 12.9821 10.0158 12.8738C10.0945 12.7654 10.2041 12.6833 10.3302 12.638C10.7812 12.4577 11.2076 12.2211 11.5992 11.9338C11.7084 11.8508 11.8391 11.8007 11.9759 11.7896C12.1126 11.7784 12.2497 11.8066 12.3709 11.8708L12.7684 12.0898C12.9238 12.1762 13.1065 12.1999 13.2788 12.1558C13.4511 12.1117 13.5999 12.0033 13.6947 11.8528L14.7822 10.0528C14.8264 9.97892 14.855 9.89681 14.8664 9.8115C14.8778 9.72618 14.8717 9.63943 14.8485 9.55655C14.8252 9.47367 14.7854 9.39639 14.7313 9.32942C14.6772 9.26245 14.6101 9.20721 14.5339 9.16704L14.1409 8.95029C14.0278 8.89156 13.9352 8.79972 13.8756 8.68703C13.8159 8.57434 13.7921 8.44614 13.8072 8.31954C13.8782 7.82759 13.8782 7.328 13.8072 6.83604C13.7921 6.70944 13.8159 6.58125 13.8756 6.46856C13.9352 6.35586 14.0278 6.26403 14.1409 6.20529L14.5339 5.98854C14.6106 5.94891 14.6783 5.89405 14.733 5.82732C14.7877 5.76059 14.8282 5.6834 14.852 5.60047C14.8758 5.51754 14.8824 5.43063 14.8714 5.34505C14.8605 5.25947 14.8321 5.17704 14.7882 5.10279L13.7007 3.30279C13.6059 3.15232 13.4571 3.04389 13.2848 2.99981C13.1125 2.95573 12.9298 2.97934 12.7744 3.06579L12.3769 3.28479C12.2557 3.34899 12.1186 3.37717 11.9819 3.36601C11.8451 3.35485 11.7144 3.30481 11.6052 3.22179C11.2136 2.93451 10.7872 2.69789 10.3362 2.51754C10.2101 2.4723 10.1005 2.39017 10.0218 2.28183C9.94297 2.17348 9.89861 2.04394 9.89444 1.91004V1.47579C9.89031 1.30001 9.81659 1.13304 9.68948 1.01155C9.56236 0.890058 9.39223 0.82397 9.21644 0.827794H7.04144C6.86616 0.824774 6.6968 0.891219 6.57033 1.01262C6.44387 1.13403 6.37057 1.30054 6.36644 1.47579V1.91004C6.36227 2.04394 6.3179 2.17348 6.23912 2.28183C6.16034 2.39017 6.05078 2.4723 5.92469 2.51754C5.4737 2.69789 5.04732 2.93451 4.65569 3.22179C4.54645 3.30481 4.41576 3.35485 4.27901 3.36601C4.14227 3.37717 4.00519 3.34899 3.88394 3.28479L3.48644 3.06579C3.33074 2.97843 3.1474 2.95431 2.97441 2.99844C2.80142 3.04256 2.65203 3.15154 2.55719 3.30279L1.46969 5.10279C1.42552 5.17667 1.39686 5.25877 1.38546 5.34409C1.37407 5.42941 1.38017 5.51615 1.4034 5.59904C1.42663 5.68192 1.4665 5.7592 1.52057 5.82617C1.57465 5.89313 1.64181 5.94838 1.71794 5.98854L2.11094 6.20529C2.2241 6.26403 2.31667 6.35586 2.3763 6.46856C2.43593 6.58125 2.45978 6.70944 2.44469 6.83604C2.37369 7.328 2.37369 7.82759 2.44469 8.31954C2.45978 8.44614 2.43593 8.57434 2.3763 8.68703C2.31667 8.79972 2.2241 8.89156 2.11094 8.95029ZM8.12894 5.04654C8.62957 5.04654 9.11896 5.195 9.53522 5.47314C9.95149 5.75127 10.2759 6.1466 10.4675 6.60913C10.6591 7.07165 10.7092 7.5806 10.6115 8.07162C10.5139 8.56263 10.2728 9.01366 9.9188 9.36766C9.5648 9.72166 9.11377 9.96274 8.62276 10.0604C8.13175 10.1581 7.6228 10.1079 7.16027 9.91636C6.69774 9.72478 6.30242 9.40034 6.02428 8.98408C5.74614 8.56782 5.59769 8.07843 5.59769 7.57779C5.59769 6.90647 5.86437 6.26263 6.33907 5.78793C6.81378 5.31323 7.45761 5.04654 8.12894 5.04654Z" fill="#274DA1"/>
<path d="M18.6109 25.4502L18.2179 25.667C18.1418 25.7071 18.0747 25.7624 18.0206 25.8294C17.9665 25.8963 17.9266 25.9736 17.9034 26.0565C17.8802 26.1394 17.8741 26.2261 17.8855 26.3114C17.8969 26.3968 17.9255 26.4789 17.9697 26.5527L19.0572 28.3527C19.152 28.5032 19.3008 28.6116 19.4731 28.6557C19.6454 28.6998 19.828 28.6762 19.9834 28.5897L20.3809 28.3707C20.5022 28.3065 20.6393 28.2784 20.776 28.2895C20.9128 28.3007 21.0435 28.3507 21.1527 28.4337C21.5443 28.721 21.9707 28.9576 22.4217 29.138C22.5478 29.1832 22.6573 29.2654 22.7361 29.3737C22.8149 29.482 22.8593 29.6116 22.8634 29.7455V30.1797C22.8676 30.355 22.9409 30.5215 23.0673 30.6429C23.1938 30.7643 23.3632 30.8308 23.5384 30.8277H25.7134C25.8887 30.8308 26.0581 30.7643 26.1845 30.6429C26.311 30.5215 26.3843 30.355 26.3884 30.1797V29.7455C26.3926 29.6116 26.437 29.482 26.5158 29.3737C26.5945 29.2654 26.7041 29.1832 26.8302 29.138C27.2812 28.9576 27.7075 28.721 28.0992 28.4337C28.2084 28.3507 28.3391 28.3007 28.4759 28.2895C28.6126 28.2784 28.7497 28.3065 28.8709 28.3707L29.2684 28.5897C29.4238 28.6762 29.6065 28.6998 29.7788 28.6557C29.9511 28.6116 30.0999 28.5032 30.1947 28.3527L31.2822 26.5527C31.3264 26.4789 31.355 26.3968 31.3664 26.3114C31.3778 26.2261 31.3717 26.1394 31.3485 26.0565C31.3252 25.9736 31.2854 25.8963 31.2313 25.8294C31.1772 25.7624 31.1101 25.7071 31.0339 25.667L30.6409 25.4502C30.5278 25.3915 30.4352 25.2997 30.3756 25.187C30.3159 25.0743 30.2921 24.9461 30.3072 24.8195C30.3782 24.3275 30.3782 23.8279 30.3072 23.336C30.2921 23.2094 30.3159 23.0812 30.3756 22.9685C30.4352 22.8558 30.5278 22.764 30.6409 22.7052L31.0339 22.4885C31.1101 22.4483 31.1772 22.3931 31.2313 22.3261C31.2854 22.2591 31.3252 22.1819 31.3485 22.099C31.3717 22.0161 31.3778 21.9294 31.3664 21.844C31.355 21.7587 31.3264 21.6766 31.2822 21.6027L30.1947 19.8027C30.0999 19.6523 29.9511 19.5438 29.7788 19.4998C29.6065 19.4557 29.4238 19.4793 29.2684 19.5657L28.8709 19.7847C28.7497 19.8489 28.6126 19.8771 28.4759 19.866C28.3391 19.8548 28.2084 19.8047 28.0992 19.7217C27.7075 19.4345 27.2812 19.1978 26.8302 19.0175C26.7041 18.9722 26.5945 18.8901 26.5158 18.7818C26.437 18.6734 26.3926 18.5439 26.3884 18.41V17.9757C26.3843 17.8005 26.311 17.634 26.1845 17.5126C26.0581 17.3912 25.8887 17.3247 25.7134 17.3277H23.5384C23.3632 17.3247 23.1938 17.3912 23.0673 17.5126C22.9409 17.634 22.8676 17.8005 22.8634 17.9757V18.41C22.8593 18.5439 22.8149 18.6734 22.7361 18.7818C22.6573 18.8901 22.5478 18.9722 22.4217 19.0175C21.9707 19.1978 21.5443 19.4345 21.1527 19.7217C21.0435 19.8047 20.9128 19.8548 20.776 19.866C20.6393 19.8771 20.5022 19.8489 20.3809 19.7847L19.9834 19.5657C19.828 19.4793 19.6454 19.4557 19.4731 19.4998C19.3008 19.5438 19.152 19.6523 19.0572 19.8027L17.9697 21.6027C17.9255 21.6766 17.8969 21.7587 17.8855 21.844C17.8741 21.9294 17.8802 22.0161 17.9034 22.099C17.9266 22.1819 17.9665 22.2591 18.0206 22.3261C18.0747 22.3931 18.1418 22.4483 18.2179 22.4885L18.6109 22.7052C18.7241 22.764 18.8167 22.8558 18.8763 22.9685C18.9359 23.0812 18.9598 23.2094 18.9447 23.336C18.8737 23.8279 18.8737 24.3275 18.9447 24.8195C18.9598 24.9461 18.9359 25.0743 18.8763 25.187C18.8167 25.2997 18.7241 25.3915 18.6109 25.4502ZM24.6289 21.5465C25.1296 21.5465 25.619 21.6949 26.0352 21.9731C26.4515 22.2512 26.7759 22.6465 26.9675 23.1091C27.1591 23.5716 27.2092 24.0805 27.1115 24.5716C27.0139 25.0626 26.7728 25.5136 26.4188 25.8676C26.0648 26.2216 25.6138 26.4627 25.1228 26.5603C24.6317 26.658 24.1228 26.6079 23.6603 26.4163C23.1977 26.2247 22.8024 25.9003 22.5243 25.484C22.2461 25.0678 22.0977 24.5784 22.0977 24.0777C22.0977 23.4064 22.3644 22.7626 22.8391 22.2879C23.3138 21.8132 23.9576 21.5465 24.6289 21.5465Z" fill="#274DA1"/>
<path d="M47.1468 39.2052L47.5398 38.9885C47.6159 38.9483 47.6831 38.8931 47.7372 38.8261C47.7912 38.7591 47.8311 38.6819 47.8543 38.599C47.8776 38.5161 47.8837 38.4294 47.8723 38.344C47.8609 38.2587 47.8322 38.1766 47.788 38.1027L46.7005 36.3027C46.6058 36.1523 46.4569 36.0438 46.2846 35.9997C46.1123 35.9557 45.9297 35.9793 45.7743 36.0657L45.3768 36.2847C45.2555 36.3489 45.1185 36.3771 44.9817 36.366C44.845 36.3548 44.7143 36.3047 44.605 36.2217C44.2134 35.9345 43.787 35.6978 43.336 35.5175C43.21 35.4722 43.1004 35.3901 43.0216 35.2818C42.9428 35.1734 42.8985 35.0439 42.8943 34.91V34.4757C42.8902 34.3005 42.8169 34.134 42.6904 34.0126C42.5639 33.8912 42.3946 33.8247 42.2193 33.8277H40.0443C39.869 33.8247 39.6997 33.8912 39.5732 34.0126C39.4467 34.134 39.3734 34.3005 39.3693 34.4757V34.91C39.3651 35.0439 39.3208 35.1734 39.242 35.2818C39.1632 35.3901 39.0536 35.4722 38.9275 35.5175C38.4766 35.6978 38.0502 35.9345 37.6585 36.2217C37.5493 36.3047 37.4186 36.3548 37.2819 36.366C37.1451 36.3771 37.008 36.3489 36.8868 36.2847L36.4893 36.0657C36.3339 35.9793 36.1513 35.9557 35.979 35.9997C35.8067 36.0438 35.6578 36.1523 35.563 36.3027L34.4755 38.1027C34.4314 38.1766 34.4027 38.2587 34.3913 38.344C34.3799 38.4294 34.386 38.5161 34.4093 38.599C34.4325 38.6819 34.4724 38.7591 34.5264 38.8261C34.5805 38.8931 34.6477 38.9483 34.7238 38.9885L35.1168 39.2052C35.23 39.264 35.3225 39.3558 35.3822 39.4685C35.4418 39.5812 35.4656 39.7094 35.4505 39.836C35.3796 40.3279 35.3796 40.8275 35.4505 41.3195C35.4656 41.4461 35.4418 41.5743 35.3822 41.687C35.3225 41.7997 35.23 41.8915 35.1168 41.9502L34.7238 42.167C34.6477 42.2071 34.5805 42.2624 34.5264 42.3294C34.4724 42.3963 34.4325 42.4736 34.4093 42.5565C34.386 42.6394 34.3799 42.7261 34.3913 42.8114C34.4027 42.8968 34.4314 42.9789 34.4755 43.0527L35.563 44.8527C35.6578 45.0032 35.8067 45.1116 35.979 45.1557C36.1513 45.1998 36.3339 45.1762 36.4893 45.0897L36.8868 44.8707C37.008 44.8065 37.1451 44.7784 37.2819 44.7895C37.4186 44.8007 37.5493 44.8507 37.6585 44.9337C38.0502 45.221 38.4766 45.4576 38.9275 45.638C39.0536 45.6832 39.1632 45.7654 39.242 45.8737C39.3208 45.982 39.3651 46.1116 39.3693 46.2455V46.6797C39.3734 46.855 39.4467 47.0215 39.5732 47.1429C39.6997 47.2643 39.869 47.3308 40.0443 47.3277H42.2193C42.3946 47.3308 42.5639 47.2643 42.6904 47.1429C42.8169 47.0215 42.8902 46.855 42.8943 46.6797V46.2455C42.8985 46.1116 42.9428 45.982 43.0216 45.8737C43.1004 45.7654 43.21 45.6832 43.336 45.638C43.787 45.4576 44.2134 45.221 44.605 44.9337C44.7143 44.8507 44.845 44.8007 44.9817 44.7895C45.1185 44.7784 45.2555 44.8065 45.3768 44.8707L45.7743 45.0897C45.9297 45.1762 46.1123 45.1998 46.2846 45.1557C46.4569 45.1116 46.6058 45.0032 46.7005 44.8527L47.788 43.0527C47.8322 42.9789 47.8609 42.8968 47.8723 42.8114C47.8837 42.7261 47.8776 42.6394 47.8543 42.5565C47.8311 42.4736 47.7912 42.3963 47.7372 42.3294C47.6831 42.2624 47.6159 42.2071 47.5398 42.167L47.1468 41.9502C47.0336 41.8915 46.9411 41.7997 46.8814 41.687C46.8218 41.5743 46.7979 41.4461 46.813 41.3195C46.884 40.8275 46.884 40.3279 46.813 39.836C46.7979 39.7094 46.8218 39.5812 46.8814 39.4685C46.9411 39.3558 47.0336 39.264 47.1468 39.2052ZM41.1288 43.109C40.6282 43.109 40.1388 42.9605 39.7225 42.6824C39.3062 42.4043 38.9818 42.0089 38.7902 41.5464C38.5986 41.0839 38.5485 40.5749 38.6462 40.0839C38.7439 39.5929 38.9849 39.1419 39.3389 38.7879C39.6929 38.4339 40.144 38.1928 40.635 38.0951C41.126 37.9975 41.6349 38.0476 42.0975 38.2392C42.56 38.4308 42.9553 38.7552 43.2335 39.1714C43.5116 39.5877 43.66 40.0771 43.66 40.5777C43.66 41.2491 43.3934 41.8929 42.9187 42.3676C42.444 42.8423 41.8001 43.109 41.1288 43.109Z" fill="#274DA1"/>
<path d="M38.8786 6.82742H22.0036V4.23242L17.2246 7.57742L22.0036 10.9224V8.32742H38.8786C40.8677 8.32742 42.7754 9.1176 44.1819 10.5241C45.5884 11.9306 46.3786 13.8383 46.3786 15.8274C46.3786 17.8165 45.5884 19.7242 44.1819 21.1307C42.7754 22.5372 40.8677 23.3274 38.8786 23.3274H38.5036V20.7324L33.7246 24.0774L38.5036 27.4224V24.8274H38.8786C41.2656 24.8274 43.5547 23.8792 45.2426 22.1914C46.9304 20.5036 47.8786 18.2144 47.8786 15.8274C47.8786 13.4405 46.9304 11.1513 45.2426 9.46346C43.5547 7.77563 41.2656 6.82742 38.8786 6.82742Z" fill="#274DA1"/>
<path d="M27.2539 41.3274V43.9224L32.0329 40.5774L27.2539 37.2324V39.8274H10.3789C8.38978 39.8274 6.48213 39.0372 5.07561 37.6307C3.66908 36.2242 2.87891 34.3165 2.87891 32.3274C2.87891 30.3383 3.66908 28.4306 5.07561 27.0241C6.48213 25.6176 8.38978 24.8274 10.3789 24.8274H10.7539V27.4224L15.5329 24.0774L10.7539 20.7324V23.3274H10.3789C7.99196 23.3274 5.70277 24.2756 4.01495 25.9635C2.32712 27.6513 1.37891 29.9405 1.37891 32.3274C1.37891 34.7144 2.32712 37.0036 4.01495 38.6914C5.70277 40.3792 7.99196 41.3274 10.3789 41.3274H27.2539Z" fill="#274DA1"/>
</g>
<defs>
<clipPath id="clip0_54_9130">
<rect width="48" height="48" fill="white" transform="translate(0.628906 0.0776367)"/>
</clipPath>
</defs>
</svg>
