<svg width="57" height="57" viewBox="0 0 57 57" fill="none" xmlns="http://www.w3.org/2000/svg">
<g clip-path="url(#clip0_55_9318)">
<path fill-rule="evenodd" clip-rule="evenodd" d="M28.2354 56.1426H23.8267C23.6181 56.1426 23.4164 56.0682 23.2578 55.9326C23.0993 55.7971 22.9944 55.6094 22.9621 55.4033L21.7003 50.2089C20.1586 49.7502 18.6685 49.1328 17.2541 48.3668L12.6275 51.1854C12.4604 51.2873 12.2639 51.3302 12.0695 51.307C11.8751 51.2838 11.6941 51.196 11.5557 51.0576L11.5544 51.0589L5.31998 44.8246C5.17388 44.6785 5.0842 44.4854 5.06683 44.2795C5.04945 44.0736 5.1055 43.8682 5.22504 43.6996L8.01115 39.1238C7.24508 37.7095 6.62775 36.2196 6.16905 34.678L0.905273 33.3989C0.715132 33.3529 0.545979 33.2443 0.424981 33.0906C0.303982 32.9368 0.23816 32.7469 0.238086 32.5513H0.235352V23.7339C0.235304 23.5253 0.309763 23.3236 0.445308 23.1651C0.580853 23.0065 0.768568 22.9016 0.974617 22.8693L6.16895 21.6076C6.62775 20.0659 7.24511 18.5758 8.01115 17.1613L5.19255 12.5348C5.09061 12.3676 5.04778 12.1711 5.07094 11.9767C5.09411 11.7823 5.18193 11.6014 5.3203 11.4629L5.31899 11.4616L11.5539 5.2272C11.7 5.08111 11.8931 4.99143 12.099 4.97405C12.3049 4.95668 12.5103 5.01272 12.6788 5.13227L17.2541 7.91838C18.6684 7.15233 20.1583 6.535 21.7 6.07628L22.979 0.8125C23.025 0.622349 23.1336 0.453185 23.2874 0.332184C23.4411 0.211182 23.631 0.145367 23.8267 0.145312V0.142578H32.644C32.8525 0.14266 33.0541 0.217178 33.2125 0.352712C33.3709 0.488245 33.4758 0.675887 33.5081 0.881844L34.77 6.07628C36.3119 6.53495 37.8021 7.15228 39.2166 7.91838L43.8432 5.09978C44.0103 4.99783 44.2068 4.955 44.4012 4.97817C44.5956 5.00134 44.7766 5.08916 44.915 5.22753L44.9164 5.22622L51.1513 11.4611C51.2974 11.6073 51.387 11.8004 51.4044 12.0062C51.4218 12.2121 51.3658 12.4175 51.2462 12.5861L48.4596 17.1613C49.2255 18.5757 49.8429 20.0656 50.3018 21.6072L55.5654 22.8858C55.7556 22.9318 55.9247 23.0404 56.0457 23.1941C56.1667 23.3479 56.2326 23.5378 56.2326 23.7335H56.2354V32.5508C56.2353 32.7593 56.1607 32.9609 56.0252 33.1194C55.8896 33.2778 55.702 33.3826 55.496 33.4149L50.3016 34.6766C49.843 36.2187 49.2257 37.7091 48.4596 39.1238L51.2781 43.7513C51.3801 43.9184 51.4229 44.1149 51.3998 44.3093C51.3766 44.5037 51.2888 44.6847 51.1504 44.8231L51.1517 44.8245L44.9173 51.0594C44.7712 51.2055 44.5781 51.2951 44.3722 51.3125C44.1663 51.3299 43.9609 51.2739 43.7924 51.1543L39.2166 48.3668C37.8023 49.1328 36.3123 49.7501 34.7707 50.2089L33.492 55.4727C33.446 55.6628 33.3374 55.8319 33.1837 55.9529C33.0299 56.0739 32.84 56.1398 32.6444 56.1398V56.1426H28.2354ZM17.7981 38.5797C20.2128 40.9945 23.3901 42.4974 26.7887 42.8322C30.1872 43.167 33.5967 42.313 36.4362 40.4158C39.2757 38.5186 41.3695 35.6955 42.3608 32.4276C43.3522 29.1597 43.1798 25.6491 41.873 22.494C40.5661 19.339 38.2058 16.7347 35.194 15.1248C32.1823 13.515 28.7056 12.9992 25.3562 13.6655C22.0068 14.3317 18.9921 16.1386 16.8256 18.7784C14.6592 21.4183 13.4751 24.7276 13.4751 28.1426C13.4726 30.0813 13.8532 32.0014 14.5951 33.7925C15.337 35.5837 16.4255 37.2106 17.7981 38.5797ZM28.2354 44.6528C32.0551 44.6529 35.7568 43.3285 38.7096 40.9052C41.6623 38.482 43.6835 35.1099 44.4288 31.3635C45.174 27.6171 44.5972 23.7282 42.7966 20.3595C40.9959 16.9907 38.0829 14.3505 34.5539 12.8887C31.0249 11.4269 27.0982 11.234 23.4429 12.3428C19.7875 13.4516 16.6298 15.7936 14.5076 18.9696C12.3854 22.1456 11.4302 25.9593 11.8046 29.7607C12.179 33.5621 13.8599 37.116 16.5609 39.817C18.0923 41.3525 19.912 42.5701 21.9155 43.4C23.919 44.2299 26.0668 44.6556 28.2354 44.6528ZM35.4615 25.1386L37.5822 25.0913L31.7966 30.877L24.825 23.9053C24.6609 23.7412 24.4384 23.649 24.2064 23.649C23.9743 23.649 23.7518 23.7412 23.5877 23.9053L15.9971 31.4959C15.836 31.6606 15.7464 31.8822 15.7477 32.1126C15.749 32.3429 15.841 32.5635 16.0039 32.7264C16.1668 32.8893 16.3874 32.9814 16.6178 32.9827C16.8481 32.9839 17.0697 32.8943 17.2344 32.7333L24.2061 25.7616L31.1776 32.7333C31.3417 32.8973 31.5643 32.9895 31.7963 32.9895C32.0284 32.9895 32.2509 32.8973 32.415 32.7333L38.9322 26.2162L38.9831 28.5021C38.9841 28.6174 39.0079 28.7313 39.0533 28.8373C39.0986 28.9433 39.1645 29.0393 39.2472 29.1196C39.3298 29.2 39.4276 29.2632 39.5349 29.3055C39.6421 29.3478 39.7567 29.3684 39.8719 29.3662C39.9872 29.3639 40.1009 29.3388 40.2064 29.2924C40.3119 29.2459 40.4071 29.1789 40.4866 29.0954C40.566 29.0119 40.6281 28.9134 40.6693 28.8057C40.7104 28.698 40.7298 28.5832 40.7263 28.468L40.6302 24.1539C40.6256 23.9227 40.5294 23.7029 40.3628 23.5427C40.1961 23.3824 39.9726 23.2949 39.7415 23.2995L35.4275 23.3956C35.3131 23.3978 35.2002 23.4226 35.0953 23.4685C34.9904 23.5143 34.8956 23.5804 34.8162 23.6629C34.7369 23.7454 34.6746 23.8428 34.6328 23.9494C34.5911 24.056 34.5708 24.1698 34.573 24.2842C34.5753 24.3987 34.6 24.5116 34.6459 24.6164C34.6918 24.7213 34.7579 24.8161 34.8404 24.8955C34.9229 24.9748 35.0202 25.0372 35.1268 25.0789C35.2334 25.1206 35.3472 25.1409 35.4616 25.1387L35.4615 25.1386Z" fill="#274DA1"/>
</g>
<defs>
<clipPath id="clip0_55_9318">
<rect width="56" height="56" fill="white" transform="translate(0.235352 0.142578)"/>
</clipPath>
</defs>
</svg>
