<svg width="49" height="49" viewBox="0 0 49 49" fill="none" xmlns="http://www.w3.org/2000/svg">
<g clip-path="url(#clip0_51_9063)">
<path d="M37.4286 0.441406H3.24673C2.01037 0.441406 0.992188 1.45959 0.992188 2.69595V7.13232H39.7558V2.69595C39.7558 1.45959 38.7376 0.441406 37.4286 0.441406ZM6.15582 5.16868C5.42855 5.16868 4.77401 4.58686 4.77401 3.78686C4.77401 2.98686 5.35582 2.40504 6.15582 2.40504C6.95582 2.40504 7.53764 2.98686 7.53764 3.78686C7.53764 4.58686 6.95582 5.16868 6.15582 5.16868ZM11.6104 5.16868C10.8831 5.16868 10.2286 4.58686 10.2286 3.78686C10.2286 2.98686 10.8104 2.40504 11.6104 2.40504C12.3376 2.40504 12.9922 2.98686 12.9922 3.78686C12.9922 4.58686 12.3376 5.16868 11.6104 5.16868ZM16.9922 5.16868C16.2649 5.16868 15.6104 4.58686 15.6104 3.78686C15.6104 2.98686 16.1922 2.40504 16.9922 2.40504C17.7195 2.40504 18.374 2.98686 18.374 3.78686C18.374 4.58686 17.7195 5.16868 16.9922 5.16868ZM35.9013 4.51413H22.3013C21.8649 4.51413 21.574 4.22322 21.574 3.78686C21.574 3.3505 21.8649 3.05959 22.3013 3.05959H35.9013C36.3376 3.05959 36.6286 3.3505 36.6286 3.78686C36.6286 4.22322 36.3376 4.51413 35.9013 4.51413Z" fill="#274DA1"/>
<path d="M0.992188 8.58691V36.8778C0.992188 38.1142 2.01037 39.1324 3.24673 39.1324H27.5376V19.496C27.5376 17.3869 29.2104 15.7142 31.3195 15.7142H39.7558V8.58691H0.992188ZM15.3922 13.3869C14.6649 12.7324 15.6104 11.6415 16.3376 12.296L19.3195 14.9142C19.4649 15.0596 19.5376 15.2778 19.5376 15.496C19.5376 15.7142 19.4649 15.9324 19.3195 16.0778L16.3376 18.696C15.6104 19.3506 14.6649 18.1869 15.3922 17.6051L17.7922 15.5687L15.3922 13.3869ZM10.374 18.6233L12.9922 11.7869C13.1376 11.4233 13.574 11.2051 13.9376 11.3506C14.3013 11.496 14.5195 11.9324 14.374 12.296L11.7558 19.1324C11.3922 20.0051 10.0104 19.496 10.374 18.6233ZM5.50128 14.9142L8.4831 12.296C8.77401 12.0051 9.21037 12.0778 9.50128 12.3687C9.79219 12.6596 9.71946 13.096 9.42855 13.3869L7.02855 15.4233L9.42855 17.4596C9.71946 17.7506 9.79219 18.1869 9.50128 18.4778C9.21037 18.7687 8.77401 18.8415 8.4831 18.5505L5.50128 15.9324C5.35582 15.7869 5.2831 15.5687 5.2831 15.3506C5.2831 15.2778 5.35582 15.0596 5.50128 14.9142ZM25.4286 33.7505H6.01037C5.64673 33.7505 5.2831 33.4596 5.2831 33.0233C5.2831 32.6596 5.64673 32.296 6.01037 32.296H25.4286C25.8649 32.296 26.1558 32.6596 26.1558 33.0233C26.1558 33.4596 25.7922 33.7505 25.4286 33.7505ZM25.4286 28.8051H6.01037C5.64673 28.8051 5.2831 28.5142 5.2831 28.0778C5.2831 27.7142 5.64673 27.3505 6.01037 27.3505H25.4286C25.8649 27.3505 26.1558 27.7142 26.1558 28.0778C26.1558 28.5142 25.7922 28.8051 25.4286 28.8051ZM25.4286 23.8596H6.01037C5.64673 23.8596 5.2831 23.5687 5.2831 23.1324C5.2831 22.696 5.64673 22.4051 6.01037 22.4051H25.4286C25.8649 22.4051 26.1558 22.696 26.1558 23.1324C26.1558 23.5687 25.7922 23.8596 25.4286 23.8596Z" fill="#274DA1"/>
<path d="M48.2649 22.4051V19.496C48.2649 18.1869 47.2467 17.1687 45.9376 17.1687H31.3195C30.0104 17.1687 28.9922 18.1869 28.9922 19.496V22.4051H48.2649ZM36.4104 19.7869H40.9195C41.3558 19.7869 41.6467 20.0778 41.6467 20.5142C41.6467 20.9505 41.3558 21.2414 40.9195 21.2414H36.4104C35.974 21.2414 35.6831 20.9505 35.6831 20.5142C35.6831 20.1505 35.974 19.7869 36.4104 19.7869Z" fill="#274DA1"/>
<path d="M38.6654 34.0416C39.5382 34.0416 40.2654 33.3143 40.2654 32.4416C40.2654 31.5688 39.5382 30.8416 38.6654 30.8416C37.7927 30.8416 37.0654 31.5688 37.0654 32.4416C37.0654 32.8779 37.2109 33.2416 37.5018 33.6052C37.7927 33.8961 38.2291 34.0416 38.6654 34.0416Z" fill="#274DA1"/>
<path d="M34.5201 33.4596C34.5928 33.896 34.811 34.2596 35.0292 34.696C35.1746 34.9141 35.1746 35.2778 35.0292 35.496L34.6655 36.0051L35.1019 36.4414L35.611 36.0778C35.8292 35.9323 36.1928 35.9323 36.411 36.0778C36.7746 36.296 37.211 36.5141 37.6474 36.5869C37.9383 36.6596 38.1564 36.8778 38.2292 37.1687L38.3019 37.8232H38.9564L39.1019 37.1687C39.1746 36.8778 39.3928 36.6596 39.6837 36.5869C40.1201 36.5141 40.5564 36.296 40.9201 36.0778C41.1383 35.9323 41.5019 35.9323 41.7201 36.0778L42.2292 36.4414L42.6655 36.0051L42.3019 35.496C42.1564 35.2778 42.1564 34.9141 42.3019 34.696C42.5201 34.3323 42.7383 33.896 42.811 33.4596C42.8837 33.1687 43.1019 32.9505 43.3928 32.8778L44.0474 32.8051V32.1505L43.3201 32.0778C43.0292 32.0051 42.811 31.7869 42.7383 31.496C42.6655 31.0596 42.4474 30.696 42.2292 30.2596C42.0837 30.0414 42.0837 29.6778 42.2292 29.4596L42.5928 28.9505L42.1564 28.5141L41.6474 28.8778C41.4292 29.0232 41.0655 29.0232 40.8474 28.8778C40.4837 28.6596 40.0474 28.4414 39.611 28.3687C39.3201 28.296 39.1019 28.0778 39.0292 27.7869L38.9564 27.1323H38.3019L38.1564 27.7869C38.0837 28.0778 37.8655 28.296 37.5746 28.3687C37.1383 28.4414 36.7746 28.6596 36.3383 28.8778C36.1201 29.0232 35.7564 29.0232 35.5383 28.8778L35.1746 28.4414L34.7383 28.8778L35.1019 29.3869C35.2474 29.6051 35.2474 29.9687 35.1019 30.1869C34.8837 30.5505 34.6655 30.9869 34.5928 31.4232C34.5201 31.7141 34.3019 31.9323 34.011 31.9323L33.3564 32.0778V32.7323L33.9383 32.8778C34.2292 32.9505 34.4474 33.1687 34.5201 33.4596ZM38.6655 29.3869C40.3383 29.3869 41.7201 30.7687 41.7201 32.4414C41.7201 34.1141 40.3383 35.496 38.6655 35.496C36.9928 35.496 35.611 34.1141 35.611 32.4414C35.611 30.7687 36.9928 29.3869 38.6655 29.3869Z" fill="#274DA1"/>
<path d="M28.9922 42.5505V45.4596C28.9922 46.7687 30.0104 47.7869 31.3195 47.7869H45.9376C47.2467 47.7869 48.2649 46.7687 48.2649 45.4596V42.5505H28.9922ZM40.9195 45.096H36.4104C35.974 45.096 35.6831 44.8051 35.6831 44.3687C35.6831 43.9324 35.974 43.6414 36.4104 43.6414H40.9195C41.3558 43.6414 41.6467 43.9324 41.6467 44.3687C41.6467 44.8051 41.2831 45.096 40.9195 45.096Z" fill="#274DA1"/>
<path d="M48.2649 41.096V23.8596H28.9922V41.096H48.2649ZM32.4831 30.7687L33.2831 30.6233C33.3558 30.3323 33.5013 30.1142 33.574 29.896L33.1376 29.2414C32.9195 28.9505 32.9922 28.5869 33.2104 28.296L34.5195 26.9869C34.7376 26.7687 35.174 26.696 35.4649 26.9142L36.1195 27.3505C36.3376 27.2051 36.6286 27.1323 36.8467 27.0596L36.9922 26.2596C37.0649 25.896 37.3558 25.6778 37.7195 25.6778H39.6104C39.974 25.6778 40.2649 25.9687 40.3376 26.2596L40.4831 27.0596C40.774 27.1323 40.9922 27.2778 41.2104 27.3505L41.8649 26.9142C42.1558 26.696 42.5195 26.7687 42.8104 26.9869L44.1195 28.296C44.3376 28.5142 44.4104 28.9505 44.1922 29.2414L43.7558 29.896C43.9013 30.1142 43.974 30.4051 44.0467 30.6233L44.8467 30.7687C45.2104 30.8414 45.4286 31.1323 45.4286 31.496V33.3869C45.4286 33.7505 45.1376 34.0414 44.8467 34.1142L44.0467 34.2596C43.974 34.5505 43.8286 34.7687 43.7558 34.9869L44.1922 35.6414C44.4104 35.9323 44.3376 36.296 44.1195 36.5869L42.8104 37.896C42.5922 38.1142 42.1558 38.1869 41.8649 37.9687L41.2104 37.5323C40.9922 37.6778 40.7013 37.7505 40.4831 37.8233L40.2649 38.6233C40.1922 38.9869 39.9013 39.2051 39.5376 39.2051H37.6467C37.2831 39.2051 36.9922 38.9142 36.9195 38.6233L36.774 37.8233C36.4831 37.7505 36.2649 37.6051 36.0467 37.5323L35.3922 37.9687C35.1013 38.1869 34.7376 38.1142 34.4467 37.896L33.1376 36.5869C32.9195 36.3687 32.8467 35.9323 33.0649 35.6414L33.5013 34.9869C33.3558 34.7687 33.2831 34.4778 33.2104 34.2596L32.4104 34.1142C32.0467 34.0414 31.8286 33.7505 31.8286 33.3869V31.496C31.9013 31.1323 32.1195 30.8414 32.4831 30.7687Z" fill="#274DA1"/>
</g>
<defs>
<clipPath id="clip0_51_9063">
<rect width="48" height="48" fill="white" transform="translate(0.628906 0.0778809)"/>
</clipPath>
</defs>
</svg>
