<svg width="49" height="49" viewBox="0 0 49 49" fill="none" xmlns="http://www.w3.org/2000/svg">
<g clip-path="url(#clip0_42_8472)">
<path d="M29.8698 47.3185C29.4667 47.9748 28.6042 48.1904 27.9479 47.7873C27.6667 47.6185 27.2542 47.3654 26.6167 46.981C27.1135 46.2404 27.9198 45.3123 27.7979 44.356L29.4948 45.4716C30.076 45.8935 30.2354 46.6998 29.8698 47.3185ZM26.6823 44.3466C26.5604 43.0248 24.8542 42.6498 24.1042 43.7373C24.0104 43.8779 23.7104 44.3091 23.6167 44.4498C23.6073 44.4498 22.9417 45.4435 22.9323 45.4435C21.8823 47.131 24.3854 48.5654 25.3604 46.8498C25.3604 46.8404 25.3604 46.8404 25.3698 46.8404L26.4479 45.256C26.6354 44.9935 26.7104 44.6654 26.6823 44.3466ZM21.5448 41.6748C21.0854 41.6841 20.6448 41.8998 20.3823 42.2841C20.2698 42.4435 20.0354 42.781 19.9323 42.9404H19.9229C19.9135 42.9685 19.1729 44.0373 19.126 44.1123C18.2448 45.6591 20.4198 47.0841 21.4698 45.6216C21.676 45.2466 22.9042 43.7279 22.8948 43.2966C23.0448 42.4623 22.3698 41.6654 21.5448 41.6748ZM15.526 40.4841C15.5354 40.4654 15.7979 40.0904 15.8073 40.0716C15.9948 39.8091 16.2385 39.481 16.276 39.1529C16.501 37.8685 14.926 37.006 13.9698 37.8873C13.6135 38.2529 13.201 38.9654 12.901 39.3779V39.3873L12.5542 39.8935C11.551 41.431 13.7917 42.9779 14.8604 41.4685L15.526 40.4841ZM16.726 40.6998L16.051 41.6935C15.8448 42.0404 15.301 42.6404 15.2823 43.0623C15.0385 44.4966 17.0073 45.2841 17.8135 44.0654L18.2167 43.4748C18.4979 43.0154 19.1729 42.2654 19.2479 41.7404C19.4823 40.3154 17.551 39.5279 16.726 40.6998ZM13.2479 21.4529L10.6979 19.8029C10.5948 19.7373 10.4823 19.7091 10.3698 19.7091C10.1635 19.7091 9.96665 19.8123 9.84478 19.9904L4.00415 29.0373C3.81665 29.3091 3.90103 29.7029 4.19165 29.881L6.74165 31.531C7.00415 31.7279 7.41665 31.6341 7.5854 31.3529L13.426 22.306C13.6135 22.0154 13.5385 21.6404 13.2479 21.4529ZM45.2448 29.0373L39.4042 19.9904C39.2354 19.7091 38.8229 19.6248 38.551 19.8029L36.0104 21.4529C35.7198 21.6404 35.6542 22.0248 35.8323 22.306C35.851 22.3341 41.3354 30.8279 41.3448 30.8466L41.6729 31.3529C41.8417 31.6341 42.2542 31.7185 42.526 31.5404L45.076 29.8904C45.2073 29.806 45.301 29.6654 45.3385 29.506C45.376 29.3373 45.3385 29.1779 45.2448 29.0373ZM38.0729 36.9873L27.301 30.4716L22.651 33.7716C21.8542 34.3435 20.7104 34.3529 19.8854 33.8091C18.6667 33.0216 18.4604 31.156 19.4823 30.1248L22.6042 26.8529C22.7073 26.7123 23.626 26.3841 23.7948 26.2998L18.376 24.9123L13.5573 24.1623L9.02915 31.1654C9.4979 32.4029 10.3792 34.7935 10.951 36.4248C11.2135 37.156 11.6823 37.8029 12.301 38.2904C12.4979 38.0091 12.8917 37.381 13.1354 37.1466C13.9604 36.3029 15.3573 36.1716 16.3229 36.8466H16.3323V36.856C17.0448 37.3341 17.4573 38.1966 17.4198 39.0498C18.6667 38.7873 19.9885 39.6404 20.2979 40.8685C20.3073 40.8779 20.3073 40.8779 20.3073 40.8873C20.4104 40.831 20.5229 40.7748 20.626 40.7373C21.3854 40.4373 22.2854 40.531 22.9604 40.9998C23.4385 41.3279 23.7854 41.8248 23.9542 42.3779C24.8167 41.806 25.8667 41.9466 26.7667 42.3404L30.1229 44.5341H30.1323L31.7729 45.5373C32.0823 45.7248 32.4573 45.781 32.8229 45.6966C33.976 45.4529 34.276 43.8216 33.2635 43.1841L28.6229 40.2123C28.3604 40.0435 28.2854 39.706 28.4542 39.4435C28.6229 39.181 28.9698 39.106 29.2229 39.2748L33.8635 42.2466L36.0948 43.5966C36.4135 43.7935 36.7885 43.8498 37.1542 43.756C38.3354 43.5123 38.5979 41.7966 37.5479 41.206L36.151 40.3623L30.5354 36.9404C29.9167 36.556 30.4979 35.6185 31.1167 35.9935L36.7135 39.406C37.5385 39.8748 38.6167 39.3498 38.7573 38.4029C38.8135 37.8498 38.551 37.2779 38.0729 36.9873ZM30.2917 24.7904L23.3354 27.706L20.2979 30.8935C20.0354 31.1748 19.9042 31.5591 19.951 31.9435C20.0073 32.9185 21.2448 33.4529 22.0042 32.881L26.926 29.3841C27.0198 29.3091 27.151 29.281 27.2729 29.281C27.376 29.2904 27.4979 29.2998 27.5823 29.356L38.6542 36.0498C38.7948 36.1341 38.9167 36.2466 39.0479 36.3404C39.901 34.8123 39.826 32.9841 40.2667 31.231L35.0823 23.1966L30.2917 24.7904ZM17.4292 13.7748C17.5042 13.606 17.4948 13.4091 17.3917 13.2591C16.5479 11.8998 16.0979 10.3435 16.0979 8.75913C16.1073 4.01538 19.9604 0.171631 24.6948 0.171631C29.4292 0.171631 33.2729 4.01538 33.2729 8.74976C33.2729 10.3341 32.8323 11.8904 31.9885 13.2498C31.8854 13.4091 31.876 13.5966 31.951 13.7654L33.6385 17.5435L29.9167 15.8841C29.7479 15.8091 29.5417 15.8185 29.3917 15.9216C26.6073 17.7779 22.7823 17.7873 20.0073 15.9216C19.8479 15.8185 19.6417 15.7998 19.4729 15.8841L15.751 17.5435L17.4292 13.7748ZM24.6948 12.856C22.726 12.9123 22.726 15.7904 24.6948 15.8466C26.6635 15.7904 26.6635 12.9029 24.6948 12.856ZM22.651 4.50288L23.1948 11.2529C23.2417 13.2123 26.1198 13.2216 26.1854 11.2998L26.7385 4.46538C26.6542 1.74663 22.7073 1.76538 22.651 4.50288ZM24.3104 14.3466C24.3104 14.8435 25.0792 14.8529 25.0792 14.3466C25.0792 13.8498 24.3104 13.8498 24.3104 14.3466ZM25.0792 11.2435L25.6229 4.40913C25.5667 3.23726 23.7854 3.24663 23.7667 4.45601L24.3104 11.206C24.301 11.7498 25.0698 11.7591 25.0792 11.2435Z" fill="#274DA1"/>
</g>
<defs>
<clipPath id="clip0_42_8472">
<rect width="48" height="48" fill="white" transform="translate(0.628906 0.0778809)"/>
</clipPath>
</defs>
</svg>
