<svg width="216" height="85" viewBox="0 0 216 85" fill="none" xmlns="http://www.w3.org/2000/svg">
<g clip-path="url(#clip0_339_533)">
<g clip-path="url(#clip1_339_533)">
<path fill-rule="evenodd" clip-rule="evenodd" d="M151.005 29.5532H148.223C148.268 29.6415 148.289 29.7078 148.289 29.7519C149.084 31.6065 149.018 33.3949 147.892 35.0508C146.964 36.3093 145.64 36.9054 144.116 37.1041C143.94 37.1482 143.742 37.1703 143.521 37.1703C143.3 37.1703 143.101 37.1703 142.924 37.1703C142.704 37.1703 142.483 37.1703 142.262 37.1703C142.085 37.1261 141.886 37.082 141.666 37.0378C141.578 37.0378 141.467 37.0378 141.334 37.0378C141.246 37.0378 141.158 37.0378 141.07 37.0378C140.981 37.0378 140.871 37.0599 140.739 37.1041C140.65 37.1482 140.562 37.1924 140.474 37.2365C139.943 37.5677 139.877 38.2301 140.275 38.6937C140.606 39.0911 141.136 39.2898 141.666 39.4223C142.593 39.6872 143.521 39.6872 144.448 39.6872C145.507 39.6872 146.567 39.6211 147.561 39.6872C148.422 39.7535 149.283 40.0847 149.879 40.8132C150.806 41.9393 150.74 43.4627 149.614 44.4563C148.952 45.1848 148.091 45.5822 147.097 45.8472C144.713 46.4433 142.262 46.4433 139.811 45.7809C139.414 45.6485 138.95 45.4498 138.553 45.1848C137.824 44.7212 137.493 44.0588 137.493 43.1978C137.493 43.1094 137.493 43.0432 137.493 42.999C137.493 42.999 137.493 42.977 137.493 42.9328C137.162 42.9328 136.764 42.8665 136.434 42.8665C135.506 42.9328 134.645 42.999 133.784 42.999C133.695 42.999 133.629 42.999 133.585 42.999C133.541 42.999 133.474 42.999 133.386 42.999C133.342 42.999 133.298 42.999 133.254 42.999C133.166 42.999 133.1 42.977 133.055 42.9328C132.79 42.9328 132.79 42.7341 132.923 42.5354C132.967 42.4912 132.989 42.4692 132.989 42.4692C133.033 42.4692 133.055 42.4471 133.055 42.4029C133.1 42.4029 133.121 42.4029 133.121 42.4029C133.166 42.3587 133.187 42.3367 133.187 42.3367C133.85 42.138 134.115 41.6081 134.115 40.9457C134.159 40.6808 134.181 40.4159 134.181 40.151C134.181 37.9431 134.181 35.7352 134.181 33.5274C134.181 33.2624 134.159 33.0196 134.115 32.7987C134.115 32.5338 134.071 32.2909 133.983 32.0702C133.939 31.8494 133.872 31.6065 133.784 31.3416C133.695 31.1208 133.585 30.9 133.453 30.6792C132.062 28.1623 129.214 28.6921 127.955 30.0831C127.911 30.1272 127.867 30.1935 127.823 30.2818C127.778 30.326 127.735 30.3701 127.69 30.4143C127.646 30.5025 127.602 30.5688 127.557 30.613C127.514 30.7013 127.469 30.7675 127.425 30.8117C127.204 31.1649 127.094 31.5623 127.094 32.0039C127.094 34.6534 127.094 37.3028 127.094 39.9522C127.094 39.9964 127.094 40.0405 127.094 40.0847C127.094 40.173 127.094 40.2392 127.094 40.2834C127.094 40.3717 127.094 40.4379 127.094 40.4821C127.138 40.5704 127.16 40.6367 127.16 40.6808C127.226 41.4756 127.69 41.9393 128.419 42.138C128.75 42.2042 129.081 42.2705 129.413 42.3367C129.611 42.4029 129.81 42.4692 129.81 42.6679C129.81 42.9328 129.545 42.999 129.413 42.999C129.28 42.999 129.169 42.999 129.081 42.999C128.993 42.999 128.882 42.999 128.75 42.999C128.661 42.999 128.574 42.999 128.485 42.999C128.396 42.9549 128.286 42.9328 128.154 42.9328C126.763 42.8665 125.438 42.8665 124.047 42.999C123.826 42.999 123.628 42.999 123.451 42.999C123.275 42.999 123.097 42.999 122.921 42.999C122.744 42.999 122.568 42.999 122.391 42.999C122.215 42.999 122.038 42.977 121.861 42.9328C121.553 42.9328 121.243 42.9328 120.934 42.9328C120.625 42.8886 120.338 42.8665 120.073 42.8665C119.764 42.8665 119.455 42.8886 119.146 42.9328C118.837 42.9328 118.55 42.9328 118.285 42.9328C117.49 42.999 116.761 42.9328 116.033 42.9328C114.973 42.9328 113.913 42.999 112.787 42.999C112.655 42.999 112.456 43.0653 112.323 42.999C112.279 42.999 112.235 42.977 112.191 42.9328C112.191 42.9328 112.169 42.9107 112.125 42.8665C112.081 42.8665 112.058 42.8445 112.058 42.8004C112.015 42.8004 111.992 42.7783 111.992 42.7341C111.992 42.6679 112.058 42.4692 112.191 42.4029C112.389 42.2705 112.588 42.138 112.787 42.0055C113.228 41.6964 113.449 41.2769 113.449 40.747C113.449 38.5391 113.449 36.3313 113.449 34.1235C113.449 33.0637 113.317 32.0039 112.854 31.0104C112.323 29.9506 111.529 29.1558 110.337 28.8908C110.204 28.8908 110.093 28.8687 110.005 28.8246C109.917 28.8246 109.828 28.8246 109.74 28.8246C109.652 28.8246 109.564 28.8467 109.475 28.8908C109.387 28.8908 109.299 28.8908 109.21 28.8908C108.195 29.1558 107.378 29.7298 106.759 30.613C106.671 30.7013 106.605 30.8117 106.561 30.9442C106.472 31.0766 106.429 31.187 106.429 31.2753C106.385 31.4078 106.34 31.5403 106.296 31.6727C106.296 31.8494 106.296 32.0039 106.296 32.1364C106.296 34.6975 106.296 37.2807 106.296 39.886C106.296 39.9743 106.296 40.0405 106.296 40.0847C106.296 40.1289 106.296 40.195 106.296 40.2834C106.296 40.3275 106.296 40.3717 106.296 40.4159C106.34 40.5042 106.362 40.5704 106.362 40.6146C106.561 41.5419 107.024 42.0055 107.952 42.2042C108.173 42.2042 108.371 42.2263 108.548 42.2705C108.747 42.3367 108.946 42.4029 108.946 42.6679C108.879 42.9328 108.747 42.999 108.482 42.999C108.04 42.999 107.576 42.977 107.091 42.9328C105.766 42.8665 104.441 42.8665 103.05 42.999C102.918 42.999 102.719 43.0653 102.587 42.999C102.454 42.999 102.322 42.9328 102.322 42.8665C102.256 42.7341 102.322 42.6016 102.388 42.5354C102.454 42.4029 102.587 42.4029 102.719 42.3367C102.851 42.2484 103.006 42.1601 103.183 42.0718C103.713 41.8068 103.978 41.3431 104.044 40.8132C104.044 40.6808 104.044 40.5483 104.044 40.4159C104.044 34.7196 104.044 29.0454 104.044 23.3933C104.044 23.3491 104.044 23.305 104.044 23.2608C104.044 23.2166 104.044 23.1725 104.044 23.1283C104.044 23.0842 104.044 23.04 104.044 22.9958C104.044 22.9517 104.044 22.9076 104.044 22.8634C103.911 22.0686 103.514 21.6712 102.587 21.5387C102.388 21.5387 102.189 21.5387 101.991 21.4724C101.925 21.4724 101.859 21.34 101.726 21.2075C101.792 21.1413 101.925 21.075 101.991 21.0088C102.256 20.9425 102.587 20.8763 102.851 20.81C103.713 20.5451 104.508 20.0815 105.17 19.4854C105.214 19.4412 105.259 19.397 105.302 19.3529C105.347 19.3529 105.391 19.3308 105.435 19.2866C105.479 19.2425 105.523 19.1983 105.567 19.1542C105.612 19.1542 105.656 19.1321 105.7 19.088C105.899 18.9555 106.098 19.0217 106.23 19.2866C106.23 19.2866 106.23 19.3087 106.23 19.3529C106.23 19.397 106.23 19.4412 106.23 19.4854C106.23 19.5295 106.252 19.5737 106.296 19.6179C106.296 19.662 106.296 19.7062 106.296 19.7503C106.296 22.8855 106.296 26.0427 106.296 29.222V29.4869L106.362 29.5532C106.362 29.5532 106.362 29.5311 106.362 29.4869C106.362 29.4869 106.385 29.4869 106.429 29.4869C106.429 29.4428 106.429 29.4207 106.429 29.4207C106.472 29.3766 106.495 29.3545 106.495 29.3545C107.356 28.4934 108.283 27.7649 109.475 27.4999C111.728 26.9038 113.714 27.8973 114.774 30.0831C115.436 31.4078 115.636 32.9312 115.636 34.4546C115.636 36.3975 115.636 38.3626 115.636 40.3496C115.636 40.3938 115.636 40.46 115.636 40.5483C115.636 40.5925 115.636 40.6367 115.636 40.6808C115.679 40.7691 115.702 40.8353 115.702 40.8795C115.702 40.9678 115.702 41.0341 115.702 41.0782C115.834 41.7406 116.231 42.0718 116.894 42.2042C117.49 42.2705 118.086 42.0055 118.417 41.4756C118.682 41.0782 118.748 40.5483 118.748 40.0847C118.748 37.0378 118.748 34.0131 118.748 31.0104C118.748 30.9221 118.748 30.8558 118.748 30.8117C118.748 30.7675 118.748 30.7013 118.748 30.613C118.748 30.5688 118.726 30.5025 118.682 30.4143C118.682 30.3701 118.682 30.326 118.682 30.2818C118.55 29.7519 118.218 29.4869 117.688 29.4869C117.556 29.4869 117.424 29.5532 117.291 29.4869C117.225 29.4869 117.093 29.3545 117.093 29.2883C117.093 29.222 117.159 29.0895 117.225 29.0895C117.357 28.9571 117.49 28.9571 117.622 28.9571C118.417 28.6921 119.013 28.2285 119.609 27.6986C119.808 27.4999 120.007 27.3012 120.272 27.1687C120.603 26.9038 120.934 27.1025 120.934 27.4999C120.934 27.6324 120.934 27.7649 120.934 27.8973C120.934 32.0481 120.934 36.2209 120.934 40.4159C120.934 41.4756 121.53 42.138 122.59 42.2042C122.678 42.2042 122.744 42.2042 122.789 42.2042C122.833 42.2042 122.899 42.2042 122.987 42.2042C123.031 42.2042 123.097 42.2042 123.186 42.2042C123.23 42.2042 123.275 42.1822 123.318 42.138C124.246 42.0055 124.775 41.4756 124.842 40.4821C124.842 40.3938 124.842 40.3054 124.842 40.2171C124.842 37.2145 124.842 34.2339 124.842 31.2753C124.842 31.187 124.842 31.0987 124.842 31.0104C124.842 30.9221 124.842 30.8338 124.842 30.7454C124.798 30.6571 124.775 30.5688 124.775 30.4805C124.775 30.3922 124.754 30.3039 124.709 30.2156C124.577 29.6857 124.246 29.4869 123.716 29.4869C123.517 29.4869 123.318 29.4869 123.12 29.4869C122.987 29.4869 122.855 29.4207 122.855 29.3545C122.855 29.3104 122.855 29.2883 122.855 29.2883C122.855 29.2441 122.855 29.2 122.855 29.1558C122.855 29.1558 122.877 29.1337 122.921 29.0895C122.921 29.0895 122.921 29.0675 122.921 29.0233C122.987 28.9571 123.12 28.8908 123.252 28.8908C124.312 28.6259 125.306 28.1623 126.166 27.3674C126.299 27.1687 126.564 26.97 126.829 27.1025C127.094 27.235 127.094 27.4999 127.094 27.7649C127.094 28.4272 127.094 29.0233 127.094 29.7519C127.226 29.6194 127.293 29.5532 127.359 29.4207C128.154 28.6259 128.948 27.8973 130.075 27.5661C131.929 26.97 134.578 27.3674 135.704 30.2818C136.235 31.5403 136.367 32.865 136.367 34.2559C136.367 36.1547 136.367 38.0534 136.367 39.9522C136.367 40.0405 136.367 40.1509 136.367 40.2834C136.411 40.3717 136.434 40.46 136.434 40.5483C136.434 40.6367 136.455 40.7249 136.5 40.8132C136.5 40.9457 136.5 41.0561 136.5 41.1445C136.632 41.6744 137.095 42.0055 137.626 42.138C137.692 42.138 137.758 42.138 137.758 42.0718C138.155 41.5419 138.751 41.3431 139.348 41.1445C139.348 41.0782 139.414 41.0782 139.48 41.012C139.348 40.9678 139.237 40.9016 139.149 40.8132C139.061 40.7249 138.972 40.6367 138.884 40.5483C138.796 40.46 138.707 40.3496 138.619 40.2171C138.575 40.1289 138.531 40.0185 138.486 39.886C138.178 38.8704 138.376 37.9652 139.083 37.1703C139.282 36.9054 139.613 36.7067 139.877 36.4417C139.789 36.3534 139.701 36.2872 139.613 36.243C138.553 35.3819 138.089 34.1897 137.891 32.9312C137.626 30.4143 139.149 27.9635 141.533 27.235C143.057 26.7713 144.514 26.97 145.972 27.5661C146.28 27.6986 146.59 27.831 146.898 27.9635C147.627 28.3609 148.422 28.4272 149.217 28.1623C150.674 27.7649 151.668 26.7713 152.131 25.3141C152.22 25.005 152.308 24.6959 152.396 24.3868C152.462 24.1881 152.595 24.0556 152.86 24.0556C153.059 24.0556 153.125 24.2543 153.191 24.4531C153.191 24.5414 153.191 24.6296 153.191 24.718C153.191 24.8505 153.213 24.9609 153.257 25.0492C153.257 25.1375 153.257 25.2258 153.257 25.3141C153.257 25.4466 153.257 25.557 153.257 25.6453C153.257 26.3739 153.257 27.1025 153.257 27.831H153.522C154.493 27.831 155.443 27.831 156.37 27.831C156.9 27.831 157.364 27.6986 157.629 27.235C157.761 27.1025 157.827 26.9038 158.026 26.97C158.092 27.0362 158.092 27.3012 158.026 27.4336C157.85 28.0077 157.673 28.5817 157.496 29.1558C157.364 29.4207 157.231 29.5532 156.9 29.5532C155.774 29.4869 154.648 29.5532 153.522 29.5532H153.257V29.8182C153.257 32.9975 153.257 36.1989 153.257 39.4223C153.257 39.5107 153.257 39.621 153.257 39.7535C153.301 39.8418 153.323 39.9522 153.323 40.0847C153.323 40.173 153.346 40.2613 153.39 40.3496C153.433 40.4821 153.456 40.5925 153.456 40.6808C153.654 41.4094 154.185 41.8068 154.913 41.873C155.973 42.0055 156.967 41.7406 157.827 41.0782C157.827 41.0782 157.805 41.0782 157.761 41.0782C157.761 41.0782 157.761 41.0561 157.761 41.012C156.502 39.4223 156.105 37.5015 156.171 35.5144C156.171 33.1961 156.9 31.1428 158.49 29.4207C159.749 28.0298 161.338 27.235 163.325 27.4336C165.908 27.6324 167.763 28.9571 168.756 31.4078C169.419 32.9975 169.551 34.6534 169.419 36.3093C169.286 37.8989 168.822 39.3561 167.895 40.6146C166.836 42.138 165.379 43.1315 163.523 43.3303C161.537 43.4627 159.749 42.999 158.291 41.6081C158.247 41.564 158.203 41.5198 158.158 41.4756C157.033 42.8665 155.576 43.5289 153.787 43.3964C152.727 43.264 151.999 42.6679 151.535 41.7406C151.137 40.9457 151.005 40.1509 151.005 39.2898C151.005 36.1547 151.005 32.9975 151.005 29.8182V29.5532ZM167.365 36.1105C167.299 35.5807 167.299 35.117 167.233 34.5871C167.167 33.4611 166.902 32.3351 166.372 31.2753C165.643 29.6857 164.517 28.6259 162.663 28.5597C161.404 28.4934 160.344 28.8908 159.549 29.8844C159.086 30.4805 158.755 31.1428 158.556 31.8715C158.092 33.8585 158.225 35.7794 158.622 37.7002C158.953 38.8924 159.417 40.0185 160.212 40.9457C161.868 42.999 165.643 42.9328 166.769 39.8197C167.167 38.6275 167.299 37.369 167.365 36.1105ZM146.7 32.4013C146.633 32.2688 146.633 32.0039 146.633 31.739C146.501 30.6792 146.236 29.6857 145.573 28.8246C144.779 27.831 143.719 27.5661 142.527 27.7649C141.334 27.9635 140.739 28.7584 140.408 29.8182C140.142 30.4805 140.142 31.2091 140.142 31.8715C140.142 32.9312 140.209 33.9247 140.739 34.852C141.268 35.978 142.13 36.5079 143.388 36.5079C144.647 36.5079 145.573 35.978 146.17 34.852C146.567 34.1235 146.633 33.3286 146.7 32.4013ZM143.984 45.5822C145.176 45.5822 146.302 45.3836 147.296 44.7874C147.76 44.4563 148.157 44.125 148.422 43.5952C148.621 43.1978 148.621 42.8004 148.355 42.4029C148.091 42.0055 147.693 41.873 147.296 41.8068C146.236 41.8068 145.176 41.8068 144.116 41.7406C143.123 41.6744 142.196 41.6081 141.202 41.4756C141.158 41.4756 141.136 41.4756 141.136 41.4756C141.092 41.4756 141.047 41.4756 141.003 41.4756C140.96 41.4756 140.937 41.4977 140.937 41.5419C140.893 41.5419 140.849 41.5419 140.805 41.5419C140.076 41.7406 139.745 42.2705 139.546 42.999C139.414 43.5289 139.48 43.9926 139.877 44.39C139.966 44.4783 140.054 44.5666 140.142 44.6549C140.231 44.6991 140.319 44.7653 140.408 44.8537C140.495 44.8978 140.584 44.942 140.673 44.9862C140.761 45.0302 140.871 45.0744 141.003 45.1186C141.997 45.4498 142.991 45.516 143.984 45.5822Z" fill="white"/>
<path fill-rule="evenodd" clip-rule="evenodd" d="M31.9131 18.9558C39.3977 20.6779 46.8161 20.8104 54.2345 18.9558V19.2207C54.2345 25.4028 54.2345 31.5626 54.2345 37.7005C54.2345 39.0252 53.7046 40.085 52.7111 40.8798C51.85 41.5422 50.9227 42.0058 49.9292 42.337C47.7213 43.176 45.5134 43.9929 43.3056 44.7878C43.2614 44.7878 43.2172 44.7878 43.1732 44.7878C43.1732 44.7878 43.1511 44.7878 43.1069 44.7878C43.1069 44.8318 43.0848 44.8318 43.0407 44.7878C42.9965 44.7878 42.9744 44.7878 42.9744 44.7878C40.6561 43.9929 38.3379 43.1319 36.0197 42.2707C34.9599 41.8733 33.9664 41.3435 33.1053 40.6811C32.5091 40.2174 31.9793 39.6876 31.9131 38.8265C31.9131 38.4291 31.9131 37.9654 31.9131 37.5018C31.9131 31.4522 31.9131 25.3807 31.9131 19.287V18.9558ZM32.8404 35.9784C32.8404 36.6407 32.8404 37.303 32.8404 37.9654C32.8404 39.0252 33.2378 39.8201 34.0988 40.3499C34.6287 40.6811 35.2248 41.0123 35.8209 41.2772C38.2055 42.2045 40.5899 43.0656 42.9744 43.9929C43.1069 44.0591 43.2393 43.9929 43.3056 43.9929C43.8355 43.7721 44.3653 43.5734 44.8952 43.3968C46.7499 42.6682 48.6707 42.0058 50.5253 41.2772C50.6578 41.1889 50.7902 41.1226 50.9227 41.0785C51.0552 40.9902 51.1877 40.924 51.3201 40.8798C51.4084 40.7915 51.5188 40.7032 51.6513 40.6148C51.7838 40.5707 51.8941 40.5045 51.9825 40.4162C52.8436 39.7538 53.3735 38.8928 53.3072 37.7668C53.3072 37.3693 53.3072 36.9719 53.3072 36.6407C53.3072 36.2874 53.3072 35.9563 53.3072 35.6472C46.4849 37.1044 39.6626 37.0381 32.8404 35.581C32.8404 35.7134 32.8404 35.8459 32.8404 35.9784ZM32.8404 20.2805C32.8404 20.2805 32.8404 20.3026 32.8404 20.3467C32.8404 21.8039 32.8404 23.2832 32.8404 24.7845C32.8404 24.9832 32.9066 24.9832 33.039 25.0494C35.6885 25.7118 38.4041 26.043 41.1198 26.1755C42.003 26.1755 42.8861 26.1755 43.7692 26.1755C44.6524 26.1313 45.5355 26.0871 46.4187 26.043C47.3018 25.9547 48.1849 25.8443 49.0681 25.7118C49.9071 25.6235 50.7681 25.491 51.6513 25.3144C52.1812 25.1819 52.7111 25.0715 53.241 24.9832V20.2142C46.4187 21.8039 39.6626 21.6052 32.8404 20.2142C32.8404 20.2142 32.8404 20.2363 32.8404 20.2805ZM43.1069 33.9913C43.2393 33.7926 43.3718 33.6601 43.5043 33.5277C43.6368 33.3289 43.8355 33.2627 44.0342 33.2627C45.0498 33.3069 46.0654 33.3069 47.081 33.2627H47.346V27.3015H47.081C46.1537 27.3015 45.2927 27.3015 44.3653 27.3015C43.9017 27.2352 43.5043 27.3677 43.1732 27.7651C43.129 27.8093 43.1069 27.8314 43.1069 27.8314C43.1069 27.8314 43.0848 27.8314 43.0407 27.8314C42.9523 27.743 42.864 27.6326 42.7757 27.5002C42.6433 27.3015 42.4445 27.3015 42.1796 27.3015C41.164 27.3015 40.1483 27.3015 39.1327 27.3015H38.8678V33.2627C39.8614 33.2627 40.9211 33.3289 41.9147 33.2627C42.3783 33.2627 42.6433 33.3289 42.9082 33.7263C42.9744 33.7926 42.9744 33.8588 43.1069 33.9913ZM48.207 27.8976H48.1408V34.0576H47.8096C46.5732 34.0134 45.3369 34.0134 44.1004 34.0576C44.1004 34.0576 44.0784 34.0576 44.0342 34.0576C43.99 34.0576 43.9459 34.0576 43.9017 34.0576C43.9017 34.1017 43.8796 34.1237 43.8355 34.1237C43.7913 34.1237 43.7692 34.1458 43.7692 34.19C43.5705 34.3225 43.3718 34.5212 43.1732 34.7199C42.9744 34.5212 42.7757 34.3887 42.6433 34.2562C42.5108 34.0576 42.3783 33.9913 42.1796 33.9913C40.899 34.0355 39.6405 34.0576 38.4041 34.0576H38.073V27.8314C37.8081 28.0301 37.6756 28.1625 37.4768 28.295C37.2782 28.4275 37.2782 28.4937 37.2782 28.6925C37.2782 30.6795 37.2782 32.6666 37.2782 34.6536V34.9186H37.6093C39.0665 34.9186 40.5237 34.9186 41.9809 34.9186C41.9809 34.9186 42.003 34.9186 42.0471 34.9186C42.0913 34.9628 42.1354 34.9848 42.1796 34.9848C42.1796 34.9848 42.2016 34.9848 42.2458 34.9848C42.29 35.029 42.312 35.0511 42.312 35.0511C42.577 35.2498 42.8419 35.5147 43.1069 35.7796C43.3718 35.5147 43.5706 35.316 43.8355 35.1173C43.8796 35.0732 43.9017 35.0511 43.9017 35.0511C43.9459 35.0069 43.99 34.9848 44.0342 34.9848C44.0784 34.9848 44.1225 34.9628 44.1667 34.9186C44.1667 34.9186 44.1888 34.9186 44.2329 34.9186C45.7343 34.9186 47.2356 34.9186 48.7369 34.9186H49.0019C49.0019 34.9186 49.0019 34.8965 49.0019 34.8524C49.0019 32.777 49.0019 30.7016 49.0019 28.6262C49.0019 28.5821 49.0019 28.56 49.0019 28.56C49.0019 28.5158 48.9798 28.4937 48.9356 28.4937C48.9356 28.4937 48.9356 28.4717 48.9356 28.4275C48.6707 28.2508 48.4278 28.0743 48.207 27.8976ZM32.8404 32.0042C34.0326 32.2692 35.2248 32.5341 36.4171 32.6666C36.4171 32.6666 36.4171 32.6445 36.4171 32.6003C36.4612 32.6003 36.4833 32.5782 36.4833 32.5341C36.4833 31.4743 36.4833 30.3925 36.4833 29.2885C36.4833 29.1561 36.3508 29.1561 36.2846 29.0899C35.6664 29.0015 35.0703 28.9132 34.4963 28.8249C33.9664 28.6924 33.4144 28.5821 32.8404 28.4937V32.0042ZM49.8629 32.6003C49.9513 32.6003 50.0175 32.5782 50.0617 32.5341C51.0773 32.3575 52.0929 32.1588 53.1085 31.938C53.3072 31.938 53.3072 31.8718 53.3072 31.673C53.3072 30.6574 53.3072 29.6639 53.3072 28.6925C53.3072 28.6041 53.3072 28.5158 53.3072 28.4275L49.8629 29.2224V32.6003Z" fill="white"/>
<path d="M72.446 32.6658C72.0487 33.7255 71.6512 34.7191 71.32 35.7788C70.4811 38.0309 69.6421 40.305 68.8031 42.6011C68.7369 42.7998 68.6706 43.0648 68.6044 43.2635C68.5381 43.3959 68.4056 43.5284 68.2732 43.5947C68.0745 43.6609 67.942 43.4622 67.942 43.2635C67.7654 42.9102 67.6108 42.5349 67.4784 42.1374C65.2926 35.6463 63.0405 29.2215 60.7886 22.7966C60.5236 22.0018 59.9937 21.207 59.5963 20.4122C59.3314 19.9485 58.8015 19.6835 58.2053 19.5511C58.0729 19.4848 57.9404 19.4848 57.9404 19.2199C57.9404 19.0212 58.0067 18.8888 58.2716 18.8888C58.3599 18.8446 58.4482 18.8225 58.5366 18.8225C58.6249 18.8225 58.7131 18.8446 58.8015 18.8888C58.8898 18.8888 58.9781 18.8888 59.0664 18.8888C59.1548 18.8888 59.243 18.8888 59.3313 18.8888C60.7886 19.0212 62.2458 18.9549 63.7692 18.8888C63.8133 18.8888 63.8575 18.8667 63.9016 18.8225C63.9458 18.8225 63.9679 18.8446 63.9679 18.8888C64.0121 18.8888 64.0562 18.8888 64.1003 18.8888C64.1445 18.8888 64.1886 18.8888 64.2328 18.8888C64.2328 18.8888 64.2549 18.9108 64.299 18.9549C64.299 18.9549 64.3211 18.9549 64.3653 18.9549C64.3653 18.9991 64.3653 19.0212 64.3653 19.0212C64.4095 19.0212 64.4315 19.0433 64.4315 19.0874C64.4315 19.1537 64.3653 19.2199 64.299 19.2861C64.1003 19.4186 63.9016 19.4848 63.7692 19.5511C63.2393 19.8823 62.9744 20.2797 63.1068 20.8758C63.3055 21.5382 63.5043 22.1343 63.7029 22.7966C65.5134 27.963 67.3238 33.1515 69.1343 38.362C69.1343 38.4282 69.2005 38.4945 69.2005 38.627C69.2667 38.4945 69.333 38.4282 69.333 38.362C70.1278 36.1541 70.9226 33.9463 71.7174 31.7385C71.8499 31.4735 71.8499 31.2748 71.7837 31.0099C70.7681 28.2279 69.7745 25.446 68.8031 22.6642C68.6044 22.1343 68.4056 21.6044 68.207 21.1407C67.942 20.7433 67.6771 20.3459 67.3459 20.0147C67.3018 19.9706 67.2355 19.9044 67.1472 19.816C67.0589 19.7719 66.9706 19.7277 66.8822 19.6835C66.7939 19.6394 66.7056 19.5952 66.6173 19.5511C66.529 19.5069 66.4407 19.4848 66.3523 19.4848C66.1537 19.4848 65.9549 19.3524 66.0212 19.1537C66.0212 18.9549 66.1537 18.8888 66.3523 18.8888C66.6836 18.8888 67.081 18.8225 67.4121 18.8888C68.8031 19.0212 70.1278 18.9549 71.4525 18.8888C71.4967 18.8888 71.5409 18.8888 71.5849 18.8888C71.6291 18.8888 71.6954 18.8888 71.7837 18.8888C71.8278 18.8888 71.872 18.8888 71.9162 18.8888C71.9603 18.8888 72.0045 18.8888 72.0487 18.8888C72.1149 18.8888 72.2473 18.9549 72.2473 19.0212C72.2473 19.1537 72.1811 19.2199 72.1149 19.2861C71.9824 19.3524 71.9162 19.4186 71.7837 19.4186C71.3863 19.5511 71.1875 19.7498 71.1875 20.1472C71.1213 20.8096 71.2538 21.4719 71.4525 22.1343C71.9824 23.5915 72.5785 25.1149 73.1084 26.572C73.1968 26.837 73.3071 27.1019 73.4396 27.3669C73.4396 27.3669 73.4396 27.3448 73.4396 27.3007C73.4837 27.3007 73.5058 27.2786 73.5058 27.2344C74.0357 25.5564 74.5435 23.8785 75.0292 22.2005C75.228 21.6044 75.2942 20.942 75.0955 20.3459C74.8967 19.816 74.6318 19.4848 74.0357 19.4186C73.9915 19.4186 73.9695 19.4186 73.9695 19.4186C73.9695 19.4186 73.9474 19.4186 73.9032 19.4186C73.9032 19.3745 73.9032 19.3524 73.9032 19.3524C73.837 19.3524 73.7046 19.2861 73.7046 19.2199C73.7046 19.0874 73.7707 19.0212 73.837 18.9549C73.8811 18.9549 73.9253 18.9328 73.9695 18.8888C74.0136 18.8888 74.0578 18.8888 74.1019 18.8888C74.1461 18.8888 74.1903 18.8888 74.2344 18.8888C74.2785 18.8888 74.3227 18.8888 74.3669 18.8888C74.6318 18.8225 74.8967 18.8888 75.1617 18.8888C76.1332 18.8888 77.1046 18.8888 78.076 18.8888C78.2748 18.8888 78.4735 18.8225 78.6059 18.8888C78.7384 18.9549 78.8047 19.0212 78.9372 19.1537C78.8709 19.2199 78.8047 19.3524 78.6722 19.4186C78.628 19.4186 78.5839 19.4407 78.5398 19.4848C78.4956 19.4848 78.4735 19.4848 78.4735 19.4848C78.4294 19.4848 78.3852 19.4848 78.341 19.4848C78.2969 19.4848 78.2527 19.4848 78.2085 19.4848C78.1202 19.4848 78.0099 19.5069 77.8774 19.5511C77.7891 19.5511 77.7007 19.5952 77.6124 19.6835C77.48 19.7277 77.3917 19.7719 77.3475 19.816C77.2592 19.9044 77.1929 19.9927 77.1488 20.0809C76.8176 20.4784 76.5526 20.942 76.354 21.4057C75.5591 23.724 74.8306 26.1084 74.0357 28.4929C74.0357 28.5371 74.0357 28.5813 74.0357 28.6253C73.9915 28.6695 73.9695 28.7137 73.9695 28.7578C74.0136 28.7578 74.0357 28.7799 74.0357 28.8241C74.0357 28.8682 74.0357 28.9124 74.0357 28.9566C75.1396 32.0917 76.2436 35.2048 77.3475 38.2958C77.3917 38.3841 77.4358 38.4724 77.48 38.5607C77.5241 38.4724 77.5462 38.3841 77.5462 38.2958C79.445 33.0411 81.3658 27.7864 83.3087 22.5317C83.3529 22.3992 83.3971 22.2667 83.4411 22.1343C83.4411 21.9577 83.4632 21.8031 83.5074 21.6706C83.5074 21.5382 83.5074 21.4057 83.5074 21.2732C83.5074 21.0965 83.5074 20.942 83.5074 20.8096C83.4411 20.1472 83.1762 19.6835 82.5139 19.4848C82.4697 19.4407 82.4255 19.4186 82.3814 19.4186C82.249 19.3745 82.1827 19.2641 82.1827 19.0874C82.249 18.8888 82.3814 18.8888 82.5139 18.8888C82.8672 18.8888 83.2204 18.9108 83.5736 18.9549C84.501 19.0212 85.4283 18.9549 86.3555 18.8888C86.4439 18.8888 86.5101 18.8888 86.5543 18.8888C86.5984 18.8888 86.6426 18.8888 86.6867 18.8888C86.7309 18.8888 86.775 18.8888 86.8192 18.8888C86.8633 18.8888 86.9075 18.8888 86.9517 18.8888C87.0179 18.8888 87.1504 19.0212 87.1504 19.0874C87.1504 19.1537 87.0842 19.2199 87.0179 19.2861C86.9738 19.2861 86.9296 19.3082 86.8854 19.3524C86.8854 19.3524 86.8633 19.3524 86.8192 19.3524C86.775 19.3524 86.7529 19.3745 86.7529 19.4186C86.7088 19.4186 86.6646 19.4186 86.6205 19.4186C86.1568 19.4848 85.8257 19.7498 85.4945 20.1472C84.9646 20.8096 84.6334 21.6044 84.3685 22.3992C82.9554 26.3734 81.5645 30.3475 80.1956 34.3217C79.18 37.236 78.1644 40.1504 77.1488 43.0648C77.1488 43.1089 77.1488 43.131 77.1488 43.131C77.1046 43.1751 77.0825 43.2193 77.0825 43.2635C77.0825 43.3076 77.0604 43.3297 77.0163 43.3297C77.0163 43.3739 76.9942 43.418 76.9501 43.4622C76.8176 43.6609 76.6189 43.6609 76.4864 43.4622C76.4864 43.418 76.4643 43.3739 76.4202 43.3297C76.4202 43.2855 76.3981 43.2414 76.354 43.1972C76.354 43.153 76.3319 43.1089 76.2877 43.0648C76.2877 43.0206 76.2657 42.9765 76.2215 42.9323C75.2942 40.4153 74.3669 37.8763 73.4396 35.3152C73.1084 34.4541 72.7772 33.593 72.446 32.6658Z" fill="white"/>
<path fill-rule="evenodd" clip-rule="evenodd" d="M89.8027 41.2104C89.2066 41.8065 88.5442 42.3364 87.7494 42.7338C86.4909 43.2637 85.1662 43.5287 83.7753 43.065C82.3843 42.6676 81.5895 41.4753 81.457 40.0844C81.2583 38.2298 82.1193 36.9051 83.6428 35.9116C84.835 35.1829 86.1598 34.7193 87.5507 34.3219C88.2131 34.1894 88.8092 34.0569 89.4715 33.8583C89.4715 33.8583 89.4936 33.8583 89.5377 33.8583C89.4716 32.8647 89.5377 31.8711 89.4715 30.8776C89.4715 30.5465 89.3391 30.2152 89.2066 29.8841C88.6767 28.4932 87.1533 27.897 85.8285 28.6256C84.9013 29.1555 84.3714 30.0166 84.0402 31.0763C84.0402 31.1205 84.0402 31.1647 84.0402 31.2088C84.0402 31.2529 84.0181 31.2971 83.974 31.3413C83.974 31.4296 83.974 31.4958 83.974 31.54C83.974 31.5841 83.974 31.6283 83.974 31.6725C83.974 31.9374 83.9077 32.1361 83.709 32.3348C83.3779 32.5335 83.1129 32.7985 82.7817 33.0634C82.4506 33.2621 82.3181 33.1959 82.1856 32.8647C81.9869 32.401 81.9869 31.9374 82.1194 31.54C82.583 29.4204 84.7025 27.5658 86.8221 27.3009C87.8157 27.2347 88.8092 27.3672 89.7365 27.8308C90.995 28.4932 91.6573 29.5529 91.7235 30.9439C91.7235 32.3348 91.7235 33.6595 91.7235 35.0504C91.7235 36.8609 91.7235 38.6714 91.7235 40.4818C91.7235 40.7468 91.7898 41.0779 91.856 41.3429C91.856 41.3871 91.8781 41.4311 91.9223 41.4753C91.9223 41.4753 91.9223 41.4974 91.9223 41.5415C91.9664 41.5857 91.9885 41.6299 91.9885 41.674C92.0327 41.674 92.0547 41.6961 92.0547 41.7403C92.2534 42.0052 92.5846 42.0714 92.9158 42.0052C93.1808 41.939 93.3132 41.7403 93.3794 41.4753C93.4457 40.9454 93.4457 40.4155 93.5119 39.9519C93.5119 39.3558 93.5119 38.8259 93.5119 38.296C93.5782 38.0973 93.5782 37.8324 93.8431 37.8324C94.0418 37.8324 94.108 38.0973 94.1743 38.2298C94.3068 38.8259 94.4392 39.3558 94.6379 39.8856C94.8367 40.4155 95.1016 40.8792 95.3665 41.3429C96.2936 42.6013 98.0158 42.6676 99.0095 42.3364C100.201 41.8728 100.93 40.548 100.798 39.2233C100.798 38.7596 100.599 38.296 100.268 37.9648C100.135 37.8765 100.025 37.7882 99.9371 37.6999C99.8041 37.5675 99.6937 37.457 99.6058 37.3687C99.4729 37.2804 99.3407 37.1921 99.2085 37.1037C99.1199 37.0155 99.0095 36.9272 98.8773 36.8388C98.0819 36.3752 97.2873 35.9116 96.5587 35.4479C96.3379 35.3154 96.1396 35.1829 95.9626 35.0504C95.786 34.9621 95.6094 34.8297 95.4327 34.653C95.2561 34.5206 95.1016 34.3881 94.9691 34.2557C94.7925 34.079 94.6379 33.9023 94.5054 33.7258C92.9158 32.0036 93.5782 28.6918 95.6977 27.7645C96.2936 27.4333 96.9561 27.3672 97.6846 27.3009C98.7444 27.3009 99.8041 27.4333 100.798 27.7645C101.592 28.0295 101.659 28.1619 101.725 28.9568C101.725 29.575 101.725 30.1932 101.725 30.8114C101.725 31.0763 101.791 31.3413 101.526 31.3413C101.195 31.4075 101.261 31.1426 101.129 30.9439C100.864 30.414 100.599 29.8841 100.268 29.3542C99.4068 28.0957 97.7507 27.897 96.6909 28.2944C96.4265 28.3828 96.1832 28.5152 95.9626 28.6918C95.7419 28.8685 95.5652 29.0671 95.4327 29.288C95.3003 29.5529 95.212 29.8178 95.1678 30.0828C95.1236 30.3919 95.1457 30.6789 95.2341 30.9439C95.2341 31.0322 95.2561 31.1205 95.3003 31.2088C95.3445 31.2971 95.4107 31.3854 95.499 31.4737C95.5431 31.5621 95.6094 31.6504 95.6977 31.7386C95.7419 31.827 95.8081 31.8932 95.8964 31.9374C96.0288 32.0699 96.1614 32.1803 96.2936 32.2685C96.4265 32.3569 96.5587 32.4452 96.6909 32.5335C96.8238 32.6218 96.9561 32.7102 97.089 32.7985C97.2655 32.8867 97.4195 32.9751 97.5524 33.0634C98.2148 33.4608 99.0095 33.8583 99.6719 34.2557C100.4 34.653 101.063 35.1167 101.659 35.7128C102.388 36.5077 102.586 37.5012 102.586 38.561C102.52 40.2169 101.791 41.6078 100.4 42.6013C99.4068 43.2637 98.2809 43.4624 97.089 43.2637C96.4265 43.1312 95.7639 42.9325 95.1678 42.7338C94.5717 42.6013 94.108 42.5351 93.5119 42.8001C93.4236 42.8442 93.3132 42.8884 93.1808 42.9325C93.0924 42.9767 92.982 42.9988 92.8495 42.9988C92.7171 43.0429 92.6067 43.065 92.5184 43.065C92.3859 43.1091 92.2534 43.1091 92.121 43.065C91.2378 43.065 90.5754 42.6896 90.1339 41.9389C90.0014 41.7403 89.9352 41.4753 89.8027 41.2104ZM89.7365 34.8518C89.5157 34.9401 89.2949 35.0063 89.0741 35.0504C88.0143 35.3154 86.8883 35.5803 85.961 36.1102C84.3714 36.9713 83.7752 38.2298 84.0402 40.0181C84.3051 41.4753 85.4311 42.4027 86.9546 42.2039C87.8157 42.1377 88.5442 41.674 89.1403 41.0117C89.4715 40.6143 89.6702 40.1506 89.7365 39.6207C89.7365 39.135 89.7365 38.6272 89.7365 38.0973C89.7365 37.0376 89.7365 35.9778 89.7365 34.8518Z" fill="white"/>
<path d="M173.195 29.7517C173.283 29.6633 173.371 29.575 173.459 29.4868C174.122 28.6256 174.983 27.9633 175.976 27.6321C177.831 26.9697 180.546 27.301 181.739 30.2815C182.202 31.4738 182.401 32.6661 182.401 33.9907C182.468 36.044 182.401 38.0974 182.468 40.2169C182.468 40.3053 182.468 40.3935 182.468 40.4818C182.468 40.5702 182.468 40.6585 182.468 40.7468C182.468 40.8792 182.489 40.9896 182.534 41.078C182.534 41.1663 182.555 41.2546 182.6 41.343C182.733 41.8066 183.064 42.0715 183.527 42.204C183.792 42.2702 184.057 42.2702 184.388 42.3365C184.521 42.4027 184.785 42.4689 184.719 42.7339C184.719 42.8664 184.455 42.9988 184.256 42.9988C183.925 42.9988 183.527 42.9988 183.13 42.9326C182.07 42.8664 181.01 42.8664 179.951 42.9988C179.906 42.9988 179.84 42.9988 179.752 42.9988C179.707 42.9988 179.664 42.9988 179.619 42.9988C179.531 43.0429 179.465 43.0429 179.42 42.9988C179.333 42.9988 179.266 42.9988 179.222 42.9988C179.089 42.9988 178.957 42.8664 178.891 42.8001C178.891 42.756 178.913 42.7118 178.957 42.6676C178.957 42.6676 178.979 42.6455 179.023 42.6014C179.023 42.5572 179.046 42.5351 179.089 42.5351C179.089 42.491 179.112 42.4469 179.156 42.4027C179.222 42.4027 179.288 42.4027 179.354 42.3365C179.707 42.2481 179.928 42.0494 180.017 41.7403C180.083 41.4091 180.216 41.0117 180.216 40.6806C180.216 38.2077 180.216 35.735 180.216 33.2622C180.216 32.3348 179.885 31.4076 179.42 30.6128C178.295 28.7581 176.043 28.3607 174.387 29.7517C174.055 30.0166 173.724 30.414 173.459 30.8114C173.195 31.1427 173.128 31.6063 173.128 32.0699C173.128 34.7194 173.128 37.3688 173.128 40.0182C173.128 40.0624 173.128 40.1286 173.128 40.2169C173.128 40.2611 173.128 40.3273 173.128 40.4156C173.128 40.4598 173.128 40.5039 173.128 40.5481C173.172 40.6364 173.195 40.7027 173.195 40.7468C173.327 41.4533 173.747 41.917 174.453 42.1377C174.784 42.204 175.115 42.2702 175.446 42.4027C175.646 42.4027 175.844 42.4689 175.844 42.7339C175.844 42.9326 175.579 42.9988 175.38 42.9988C174.894 42.9988 174.408 42.9768 173.923 42.9326C172.664 42.8664 171.406 42.8664 170.148 42.9988C169.816 43.065 169.485 42.9988 169.154 42.9988C169.088 42.9988 168.956 42.8664 168.956 42.8001C168.956 42.7339 169.022 42.6014 169.088 42.5351C169.132 42.491 169.176 42.469 169.22 42.469C169.264 42.4248 169.309 42.4027 169.353 42.4027C169.397 42.3586 169.441 42.3365 169.485 42.3365C169.529 42.3365 169.574 42.3144 169.617 42.2702C170.479 42.0053 170.81 41.5416 170.876 40.6143C170.876 40.4377 170.898 40.2611 170.942 40.0844C170.942 37.17 170.92 34.2557 170.876 31.3413C170.876 31.253 170.876 31.1647 170.876 31.0764C170.876 30.9881 170.876 30.8998 170.876 30.8114C170.876 30.7231 170.876 30.6348 170.876 30.5465C170.832 30.4582 170.81 30.3699 170.81 30.2815C170.677 29.6854 170.28 29.4205 169.684 29.4205C169.419 29.4205 169.22 29.4868 168.956 29.4868C168.823 29.4868 168.624 29.553 168.558 29.3543C168.558 29.0893 168.757 29.0231 168.956 29.0231C169.684 28.8906 170.347 28.5594 171.008 28.162C171.34 27.8971 171.671 27.6321 172.068 27.3672C172.112 27.3672 172.157 27.3451 172.201 27.301C172.245 27.2568 172.289 27.2347 172.333 27.2347C172.378 27.1906 172.422 27.1685 172.466 27.1685C172.51 27.1243 172.554 27.1022 172.598 27.1022C172.797 27.036 172.996 27.1022 173.062 27.301C173.062 27.3451 173.062 27.3893 173.062 27.4334C173.062 27.4775 173.084 27.4996 173.128 27.4996C173.128 27.5438 173.128 27.588 173.128 27.6321C173.128 27.6763 173.128 27.6984 173.128 27.6984C173.128 28.3607 173.128 29.0231 173.128 29.6854L173.195 29.7517Z" fill="white"/>
<path fill-rule="evenodd" clip-rule="evenodd" d="M155.774 61.2793L155.376 61.8092C155.067 62.2066 154.67 62.4052 154.184 62.4052C153.389 62.4052 152.661 62.4052 151.932 62.339C150.342 62.2728 148.819 62.339 147.229 62.4052C147.185 62.4052 147.141 62.4273 147.097 62.4715C147.053 62.4715 146.986 62.4715 146.898 62.4715C146.854 62.4715 146.81 62.4494 146.766 62.4052C146.721 62.4052 146.655 62.4052 146.567 62.4052C146.5 62.4052 146.368 62.339 146.235 62.2728C146.368 62.2066 146.434 62.0741 146.5 62.0078C146.766 61.8753 147.031 61.8092 147.296 61.6767C147.737 61.5 147.958 61.1909 147.958 60.7494C147.914 60.2195 147.891 59.6895 147.891 59.1597C147.891 55.9804 147.891 52.779 147.891 49.5555C147.891 48.8269 147.693 48.4957 146.965 48.3633C146.766 48.2971 146.633 48.2971 146.5 48.2308C146.368 48.1646 146.302 48.0321 146.235 47.8996C146.368 47.8334 146.434 47.7672 146.567 47.7672C147.031 47.7672 147.494 47.7672 148.024 47.7672C148.907 47.7672 149.79 47.7451 150.673 47.7009C150.872 47.7009 151.005 47.7009 151.137 47.7009C151.204 47.7009 151.336 47.7672 151.336 47.8334C151.336 47.8775 151.336 47.8996 151.336 47.8996C151.336 47.9438 151.314 47.9658 151.27 47.9658C151.27 48.01 151.27 48.0321 151.27 48.0321C151.225 48.0321 151.204 48.0321 151.204 48.0321C151.071 48.0983 151.005 48.0983 150.872 48.1646C150.342 48.2529 150.011 48.562 149.879 49.0918C149.835 49.136 149.813 49.2023 149.813 49.2906C149.813 49.3347 149.813 49.401 149.813 49.4892C149.813 49.5334 149.79 49.5776 149.746 49.6217C149.746 49.7101 149.746 49.7763 149.746 49.8205C149.746 53.2647 149.746 56.6869 149.746 60.087C149.746 61.0143 150.077 61.3454 151.005 61.3454C152.131 61.4117 153.19 61.3454 154.25 60.948C154.581 60.8156 154.846 60.6169 155.112 60.4844C154.913 59.8883 154.714 59.3584 154.581 58.8285C154.184 56.6427 154.515 54.5894 155.906 52.801C156.569 51.94 157.496 51.3439 158.622 51.2114C160.41 51.0127 162.066 51.8738 162.794 53.4634C163.854 55.8479 163.854 58.2986 162.53 60.5507C161.934 61.6104 161.073 62.339 159.88 62.6039C158.357 62.9351 157.032 62.5377 155.972 61.4779C155.884 61.4338 155.818 61.3675 155.774 61.2793ZM161.867 57.4376H161.934C161.801 56.6427 161.735 55.7817 161.602 54.9206C161.47 54.1258 161.139 53.3309 160.477 52.6686C159.549 51.7413 157.562 51.5426 156.701 53.1985C156.657 53.2868 156.613 53.3751 156.569 53.4634C156.524 53.5517 156.48 53.6401 156.436 53.7284C156.392 53.8166 156.37 53.905 156.37 53.9933C156.325 54.0816 156.282 54.192 156.237 54.3245C155.906 55.7817 155.972 57.3051 156.37 58.8285C156.503 59.6234 156.767 60.3519 157.297 61.0143C157.96 61.8753 158.953 62.2066 159.946 61.8753C160.742 61.6767 161.205 61.0805 161.47 60.2857C161.801 59.3584 161.867 58.4311 161.867 57.4376Z" fill="white"/>
<path d="M117.356 52.8019C117.488 52.6695 117.687 52.4707 117.819 52.3383C118.415 51.8084 119.078 51.411 119.872 51.2122C121.329 51.0136 122.588 51.6097 123.251 52.8681C123.714 53.7955 123.913 54.7228 123.913 55.7163C123.913 57.1735 123.913 58.6969 123.913 60.1541C123.913 60.2424 123.913 60.3086 123.913 60.3528C123.957 60.3969 123.979 60.4632 123.979 60.5515C123.979 60.5957 123.979 60.6619 123.979 60.7502C123.979 60.7944 124.001 60.8606 124.045 60.9489C124.111 61.2801 124.377 61.545 124.708 61.6775C124.973 61.7438 125.237 61.81 125.436 61.8762C125.569 61.8762 125.569 62.0087 125.635 62.0749C125.569 62.1412 125.502 62.2737 125.37 62.2737C125.326 62.2737 125.282 62.2737 125.237 62.2737C125.194 62.3178 125.149 62.3399 125.105 62.3399C125.061 62.3399 125.017 62.3178 124.973 62.2737C124.929 62.2737 124.863 62.2737 124.774 62.2737C123.913 62.2074 123.052 62.2074 122.191 62.2737C122.147 62.2737 122.102 62.2957 122.058 62.3399C122.014 62.3399 121.97 62.3399 121.926 62.3399C121.882 62.3399 121.815 62.3399 121.727 62.3399C121.683 62.2957 121.639 62.2737 121.595 62.2737C121.529 62.2737 121.462 62.2074 121.396 62.1412C121.396 62.0749 121.462 62.0087 121.528 61.9424C121.528 61.8983 121.55 61.8762 121.595 61.8762C121.595 61.8762 121.616 61.8762 121.661 61.8762C121.661 61.8321 121.661 61.81 121.661 61.81C122.125 61.6775 122.323 61.2801 122.323 60.8164C122.367 60.6398 122.389 60.4632 122.389 60.2866C122.389 58.741 122.389 57.1955 122.389 55.6501C122.389 55.4734 122.367 55.2968 122.323 55.1202C122.323 54.9435 122.301 54.789 122.257 54.6565C122.213 54.4799 122.168 54.3033 122.125 54.1266C122.036 53.95 121.948 53.7955 121.86 53.663C120.866 51.7421 118.68 52.1396 117.753 53.3318C117.488 53.7293 117.289 54.1266 117.289 54.6565C117.356 56.4449 117.356 58.2332 117.356 60.0216C117.356 60.1541 117.356 60.2865 117.356 60.419C117.356 61.1476 117.687 61.545 118.415 61.7438C118.614 61.7438 118.813 61.81 119.078 61.8762C119.144 61.8762 119.21 62.0087 119.277 62.0749C119.21 62.1412 119.144 62.2737 119.012 62.2737C118.967 62.2737 118.923 62.2737 118.879 62.2737C118.835 62.2737 118.813 62.2957 118.813 62.3399C118.768 62.3399 118.725 62.3399 118.68 62.3399C118.636 62.3399 118.592 62.3178 118.547 62.2737C118.239 62.2737 117.929 62.2737 117.621 62.2737C117.356 62.2295 117.069 62.2074 116.759 62.2074C116.45 62.2074 116.164 62.2295 115.898 62.2737C115.589 62.2737 115.302 62.2737 115.038 62.2737C114.375 62.3399 113.713 62.2737 113.05 62.3399C112.299 62.3399 111.549 62.362 110.798 62.4061C110.754 62.4061 110.71 62.3841 110.666 62.3399C110.621 62.3399 110.578 62.3399 110.533 62.3399C110.489 62.3399 110.445 62.3399 110.401 62.3399C110.357 62.3399 110.313 62.3399 110.268 62.3399C110.202 62.3399 110.136 62.2074 110.136 62.1412C110.136 62.0749 110.202 62.0087 110.268 61.9424C110.334 61.8763 110.401 61.8762 110.467 61.8762C110.865 61.81 111.129 61.545 111.196 61.1476C111.196 61.0593 111.218 60.971 111.262 60.8827C111.262 60.7944 111.262 60.7061 111.262 60.6178C111.262 60.5294 111.262 60.419 111.262 60.2866C111.306 60.1983 111.328 60.11 111.328 60.0216C111.328 57.9904 111.328 55.9813 111.328 53.9942C111.328 53.9058 111.328 53.8396 111.328 53.7955C111.284 53.7513 111.262 53.6851 111.262 53.5968C111.262 53.5526 111.262 53.5084 111.262 53.4643C111.262 53.3759 111.24 53.3097 111.196 53.2656C111.129 52.9344 110.931 52.7357 110.533 52.7357C110.467 52.7357 110.401 52.7357 110.334 52.7357C110.29 52.7357 110.268 52.7357 110.268 52.7357C110.224 52.6916 110.202 52.6695 110.202 52.6695C110.158 52.6695 110.136 52.6695 110.136 52.6695C110.136 52.6253 110.114 52.6032 110.069 52.6032C110.136 52.537 110.202 52.4045 110.268 52.4045C110.931 52.272 111.46 51.8746 111.924 51.4772C111.968 51.4331 111.991 51.3889 111.991 51.3447C112.035 51.3447 112.078 51.3227 112.123 51.2785C112.167 51.2343 112.211 51.2122 112.256 51.2122C112.256 51.1681 112.277 51.124 112.322 51.0798C112.653 50.8811 112.851 51.0136 112.851 51.3447C112.851 51.4772 112.851 51.5876 112.851 51.6759C112.851 54.6345 112.851 57.5709 112.851 60.4853C112.851 60.5294 112.851 60.5736 112.851 60.6178C112.851 60.6619 112.874 60.7061 112.918 60.7502C112.918 60.7944 112.918 60.8385 112.918 60.8827C112.918 60.9268 112.918 60.971 112.918 61.0152C112.918 61.0593 112.94 61.1256 112.984 61.2139C112.984 61.258 113.006 61.3022 113.05 61.3464C113.095 61.4346 113.161 61.5009 113.249 61.545C113.293 61.545 113.337 61.5671 113.382 61.6113C113.514 61.6554 113.647 61.6996 113.779 61.7438C113.955 61.7438 114.11 61.7438 114.242 61.7438C114.375 61.7879 114.507 61.7879 114.64 61.7438C114.773 61.6996 114.905 61.6554 115.038 61.6113C115.501 61.4788 115.699 61.1476 115.766 60.684C115.766 60.684 115.766 60.6619 115.766 60.6178C115.766 60.5736 115.766 60.5515 115.766 60.5515C115.766 58.2995 115.766 56.0475 115.766 53.7955C115.766 53.1331 115.368 52.8019 114.706 52.8019C114.706 52.8019 114.684 52.8019 114.64 52.8019C114.596 52.8019 114.552 52.8019 114.507 52.8019C114.463 52.7577 114.419 52.7357 114.375 52.7357C114.331 52.7357 114.287 52.7357 114.242 52.7357C114.176 52.7357 114.11 52.6032 114.11 52.6032C114.11 52.537 114.176 52.4045 114.242 52.4045C114.375 52.3383 114.507 52.3383 114.574 52.272C114.75 52.2279 114.905 52.1838 115.038 52.1396C115.214 52.0954 115.368 52.0292 115.501 51.9409C115.633 51.8525 115.766 51.7642 115.898 51.6759C116.031 51.5876 116.164 51.4993 116.296 51.411C116.34 51.411 116.384 51.3889 116.428 51.3447C116.472 51.3006 116.517 51.2564 116.561 51.2122C116.605 51.2122 116.627 51.1902 116.627 51.146C116.671 51.1019 116.716 51.0798 116.759 51.0798C117.09 50.8811 117.289 51.0136 117.289 51.3447C117.334 51.7421 117.356 52.1396 117.356 52.537V52.8019Z" fill="white"/>
<path d="M47.9427 52.8019C48.0751 52.6253 48.2297 52.4707 48.4064 52.3382C49.0687 51.6759 49.7973 51.2122 50.7246 51.2122C51.9831 51.0798 52.9766 51.5434 53.639 52.6032C54.2351 53.4642 54.4338 54.3915 54.4338 55.3851C54.5001 56.9748 54.5001 58.4982 54.5001 60.0878C54.5001 60.1762 54.5001 60.2644 54.5001 60.3527C54.5001 60.3969 54.5001 60.4632 54.5001 60.5515C54.5001 60.6398 54.5221 60.7281 54.5662 60.8164C54.5662 60.8606 54.5662 60.9268 54.5662 61.0151C54.6987 61.545 54.9637 61.7437 55.5598 61.81C56.0897 61.81 56.5534 61.545 56.6858 61.0814C56.6858 61.0372 56.7079 60.971 56.752 60.8826C56.752 60.7943 56.752 60.7281 56.752 60.684C56.7962 60.5956 56.8183 60.5073 56.8183 60.419C56.8183 60.3307 56.8183 60.2644 56.8183 60.2203C56.8183 58.0566 56.8183 55.915 56.8183 53.7954C56.8183 53.7513 56.8183 53.6851 56.8183 53.5967C56.8183 53.5526 56.8183 53.5084 56.8183 53.4642C56.7741 53.3759 56.752 53.3097 56.752 53.2655C56.752 53.2214 56.752 53.1552 56.752 53.0668C56.6196 52.7356 56.4209 52.6032 56.0897 52.6032C55.891 52.6032 55.6923 52.6695 55.626 52.4707C55.626 52.2057 55.8247 52.2057 55.9572 52.2057C56.5534 52.0071 57.017 51.6759 57.4806 51.2122C57.5248 51.2122 57.569 51.1901 57.6131 51.146C57.6131 51.1018 57.6352 51.0577 57.6794 51.0136C57.7235 51.0136 57.7676 50.9915 57.8118 50.9473C57.856 50.9031 57.9001 50.8811 57.9443 50.8811C58.143 50.7486 58.3417 50.8148 58.4079 51.0798C58.4079 51.1239 58.4079 51.146 58.4079 51.146C58.4079 51.1901 58.4079 51.2343 58.4079 51.2785C58.4079 51.3226 58.4079 51.3447 58.4079 51.3447C58.4079 51.3889 58.4079 51.433 58.4079 51.4772C58.4079 54.4357 58.4079 57.4163 58.4079 60.419C58.4079 61.2139 58.6067 61.4788 59.4014 61.6775C59.6002 61.7437 59.7327 61.7437 59.9313 61.8762C59.9976 61.8762 60.0638 62.0086 60.1301 62.1411C60.0638 62.2074 59.9313 62.3399 59.8652 62.3399C59.4677 62.3399 59.0703 62.2736 58.7391 62.2736C57.9443 62.2736 57.1495 62.2736 56.3546 62.2736C55.5598 62.2736 54.8312 62.2074 54.1026 62.2074C53.5727 62.2074 53.1091 62.2736 52.5792 62.2736C52.535 62.2736 52.5129 62.2736 52.5129 62.2736C52.4688 62.2736 52.4246 62.2736 52.3805 62.2736C52.3364 62.2736 52.2922 62.2736 52.248 62.2736C52.2039 62.2736 52.1818 62.2736 52.1818 62.2736C52.1155 62.2736 51.9831 62.2074 51.9831 62.1411C51.9831 62.0749 52.0493 61.9424 52.0493 61.9424C52.0935 61.8982 52.1155 61.8762 52.1155 61.8762C52.1155 61.8762 52.1376 61.8762 52.1818 61.8762C52.1818 61.832 52.1818 61.81 52.1818 61.81C52.226 61.81 52.248 61.81 52.248 61.81C52.6454 61.6775 52.8442 61.3463 52.9104 60.9489C52.9104 60.9047 52.9104 60.8606 52.9104 60.8164C52.9104 60.7281 52.9104 60.6619 52.9104 60.6177C52.9104 60.5736 52.9104 60.5294 52.9104 60.4852C52.9104 60.3969 52.9104 60.3307 52.9104 60.2865C52.9104 58.741 52.9104 57.1734 52.9104 55.5838C52.9104 55.4071 52.9104 55.2306 52.9104 55.0539C52.8662 54.8772 52.8221 54.7227 52.7779 54.5903C52.7338 54.4136 52.6896 54.2591 52.6454 54.1266C52.6013 53.95 52.535 53.7954 52.4467 53.663C51.4532 51.6759 49.2674 52.1396 48.3401 53.2655C48.009 53.663 47.8765 54.1266 47.8765 54.6565C47.8765 56.4449 47.8765 58.2332 47.8765 60.0216C47.8765 60.1541 47.8765 60.2644 47.8765 60.3527C47.9427 61.1476 48.2739 61.545 49.0687 61.7437C49.1129 61.7437 49.157 61.7437 49.2011 61.7437C49.2453 61.7437 49.2895 61.7658 49.3336 61.81C49.3778 61.81 49.444 61.81 49.5324 61.81C49.5765 61.81 49.6207 61.832 49.6649 61.8762C49.6649 61.8762 49.6869 61.8762 49.731 61.8762C49.731 61.9203 49.731 61.9424 49.731 61.9424C49.7752 61.9866 49.7973 62.0086 49.7973 62.0086C49.7973 62.0086 49.7973 62.0307 49.7973 62.0749C49.7973 62.1411 49.731 62.2074 49.6649 62.2074C49.5765 62.2515 49.5103 62.2736 49.4661 62.2736C49.422 62.2736 49.3778 62.2736 49.3336 62.2736C49.2895 62.2736 49.2453 62.2736 49.2011 62.2736C49.157 62.2736 49.1129 62.2736 49.0687 62.2736C48.7596 62.2295 48.4726 62.2074 48.2076 62.2074C47.8986 62.2074 47.6115 62.2074 47.3466 62.2074C47.0374 62.2074 46.7505 62.2074 46.4855 62.2074C46.1764 62.2074 45.8894 62.2295 45.6244 62.2736C45.3595 62.2736 45.1608 62.2736 44.8958 62.2074C44.6972 62.1411 44.6972 62.0086 44.8296 61.9424C44.8737 61.8982 44.9179 61.8762 44.9621 61.8762C44.9621 61.8762 44.9841 61.8541 45.0283 61.81C45.0725 61.81 45.1166 61.81 45.1608 61.81C45.1608 61.81 45.1829 61.7879 45.227 61.7437C46.0218 61.545 46.2868 61.2139 46.2868 60.3527C46.331 59.9995 46.331 59.6463 46.2868 59.293C46.331 57.5708 46.331 55.8267 46.2868 54.0604C46.2868 54.0162 46.2868 53.972 46.2868 53.9279C46.2868 53.8396 46.2868 53.7734 46.2868 53.7292C46.2868 53.6409 46.2868 53.5747 46.2868 53.5305C46.2868 53.4863 46.2647 53.4201 46.2206 53.3318C46.1543 52.9344 45.8894 52.7356 45.4919 52.7356C45.3595 52.7356 45.227 52.7356 45.0946 52.7356C44.9621 52.6695 44.8958 52.6032 44.8296 52.537C44.8958 52.4707 44.9621 52.4045 45.0283 52.3382C45.1608 52.272 45.2933 52.272 45.4257 52.272C46.0881 52.1396 46.618 51.8083 47.0816 51.3447C47.1258 51.3005 47.1479 51.2785 47.1479 51.2785C47.192 51.2343 47.2141 51.2122 47.2141 51.2122C47.2583 51.1681 47.2803 51.146 47.2803 51.146C47.3245 51.1018 47.3466 51.0798 47.3466 51.0798C47.6115 50.8811 47.8765 50.9473 47.8765 51.2785C47.8765 51.5434 47.8765 51.8083 47.8765 52.0733C47.8765 52.2941 47.8765 52.5149 47.8765 52.7356L47.9427 52.8019Z" fill="white"/>
<path d="M42.9092 53.3316C42.9092 52.0953 42.9092 50.8589 42.9092 49.6224C42.9092 49.5783 42.9092 49.512 42.9092 49.4238C42.9092 49.3355 42.8871 49.2471 42.8429 49.1588C42.8429 49.0705 42.8429 49.0042 42.8429 48.9601C42.7988 48.8718 42.7767 48.7835 42.7767 48.6952C42.6442 48.1653 42.313 47.8341 41.7831 47.7016C41.739 47.7016 41.6948 47.6796 41.6507 47.6354C41.6065 47.6354 41.5844 47.6354 41.5844 47.6354C41.5402 47.5912 41.4961 47.5691 41.452 47.5691C41.4078 47.5691 41.3637 47.5471 41.3195 47.5029C41.3195 47.5029 41.2974 47.4808 41.2533 47.4367C41.2533 47.3925 41.2533 47.3704 41.2533 47.3704C41.2533 47.3042 41.3195 47.238 41.3858 47.238C41.4299 47.238 41.452 47.238 41.452 47.238C41.4961 47.238 41.5402 47.2159 41.5844 47.1718C41.6286 47.1718 41.6727 47.1718 41.7169 47.1718C41.7169 47.1718 41.739 47.1718 41.7831 47.1718C42.5338 47.2159 43.3066 47.238 44.1014 47.238C44.3663 47.238 44.6313 47.1718 44.8962 47.1718C44.8962 47.1718 44.9183 47.1718 44.9625 47.1718C44.9625 47.1718 44.9845 47.1718 45.0287 47.1718C45.0287 47.1718 45.0508 47.1718 45.0949 47.1718C45.0949 47.1718 45.117 47.1938 45.1612 47.238C45.2936 47.2822 45.3157 47.3483 45.2274 47.4367C45.1833 47.4808 45.1612 47.5029 45.1612 47.5029C45.117 47.5029 45.0949 47.5029 45.0949 47.5029C45.0949 47.5029 45.0949 47.525 45.0949 47.5691C44.4988 47.7679 44.3001 48.2978 44.2338 48.8939C44.1897 48.938 44.1676 49.0042 44.1676 49.0926C44.1676 49.1367 44.1676 49.203 44.1676 49.2913C44.1676 49.3355 44.1676 49.4017 44.1676 49.49C44.1676 49.5341 44.1676 49.6004 44.1676 49.6887C44.1676 51.8524 44.1676 54.0382 44.1676 56.246C44.1676 57.4383 44.0352 58.5643 43.5715 59.6903C42.7767 61.4786 41.3858 62.4722 39.4649 62.6709C38.3389 62.8034 37.2791 62.8034 36.2193 62.4059C34.7622 61.876 33.9011 60.75 33.4374 59.2929C33.1063 58.1668 33.04 57.0408 33.04 55.8486C33.04 53.5966 33.04 51.3225 33.04 49.0263C33.04 48.2978 32.8413 48.0328 32.179 47.7679C31.9802 47.7016 31.8478 47.6354 31.7153 47.5691C31.6491 47.5029 31.5828 47.4367 31.5166 47.3042C31.6491 47.3042 31.7153 47.1718 31.7816 47.1718C32.1127 47.1718 32.3776 47.238 32.7089 47.1718C33.592 47.1718 34.4751 47.1718 35.3583 47.1718C35.4024 47.1718 35.4466 47.1718 35.4908 47.1718C35.579 47.1718 35.6453 47.1718 35.6894 47.1718C35.7336 47.1718 35.7778 47.1718 35.8219 47.1718C35.9103 47.1718 35.9765 47.1718 36.0207 47.1718C36.0868 47.1718 36.1531 47.238 36.2193 47.3042C36.1752 47.3483 36.1089 47.4146 36.0207 47.5029C35.292 47.7016 35.0271 48.2315 35.0271 48.9601C35.0271 51.6978 35.0271 54.4135 35.0271 57.1071C35.0271 58.0344 35.1596 58.8955 35.5569 59.6903C36.0868 61.0592 37.0804 61.7657 38.5376 61.8098C38.6701 61.8098 38.8025 61.8098 38.935 61.8098C39.0233 61.8098 39.1337 61.8098 39.2662 61.8098C39.3545 61.7657 39.4649 61.7436 39.5974 61.7436C39.7299 61.7436 39.8403 61.7215 39.9285 61.6774C41.3858 61.3462 42.1805 60.3526 42.5779 58.9617C42.8429 58.1668 42.9092 57.2396 42.9092 56.3785C42.9092 55.3629 42.9092 54.3472 42.9092 53.3316Z" fill="white"/>
<path d="M96.889 53.0668V53.3317C96.889 55.4954 96.889 57.6591 96.889 59.8228C96.889 59.9111 96.889 59.9994 96.889 60.0878C96.889 60.1761 96.9108 60.2643 96.9551 60.3527C96.9551 60.441 96.9551 60.5293 96.9551 60.6177C96.9994 60.706 97.0212 60.7721 97.0212 60.8163C97.2202 61.3462 97.5507 61.6112 98.081 61.6112C98.7434 61.6774 99.3398 61.5449 99.9354 61.1475C100.001 61.0813 100.134 61.0813 100.201 61.0151C100.201 61.1475 100.201 61.28 100.201 61.3462C100.156 61.3904 100.134 61.4124 100.134 61.4124C100.134 61.4566 100.134 61.4787 100.134 61.4787C100.09 61.5229 100.068 61.5449 100.068 61.5449C100.024 61.5891 100.001 61.6112 100.001 61.6112C99.2068 62.406 98.28 62.8034 97.1534 62.671C96.4249 62.5385 95.8952 62.1411 95.6303 61.4124C95.3653 60.8826 95.2991 60.2864 95.2991 59.6241C95.2991 57.5488 95.2991 55.4512 95.2991 53.3317V53.0005C94.9017 53.0005 94.5264 53.0005 94.173 53.0005C93.9965 53.0005 93.8198 53.0005 93.6432 53.0005C93.5769 53.0005 93.5107 52.9343 93.5107 52.868C93.5107 52.8018 93.5769 52.7356 93.5769 52.7356C93.8419 52.6031 94.0406 52.4706 94.2393 52.3382C94.6367 52.0733 95.1003 51.742 95.4315 51.4109C95.8952 51.0797 96.0936 50.5498 96.2266 50.0199C96.2266 49.8875 96.2927 49.6887 96.3588 49.5562C96.3588 49.5562 96.3813 49.5342 96.4249 49.49C96.4249 49.49 96.4474 49.49 96.491 49.49C96.491 49.4459 96.5135 49.4238 96.5578 49.4238C96.5578 49.4238 96.5796 49.4238 96.6239 49.4238C96.69 49.4238 96.7561 49.49 96.8222 49.6225C96.8222 49.6225 96.8222 49.6446 96.8222 49.6887C96.8222 49.7329 96.8222 49.7771 96.8222 49.8212C96.8665 49.8212 96.889 49.8433 96.889 49.8875C96.889 49.9316 96.889 49.9758 96.889 50.0199C96.889 50.5939 96.889 51.1901 96.889 51.8083H98.8095C99.9136 51.8083 101.018 51.8083 102.121 51.8083C102.254 51.8083 102.452 51.8745 102.585 51.9408C102.585 51.9408 102.607 51.9628 102.651 52.007C102.651 52.0512 102.651 52.0733 102.651 52.0733C102.651 52.1395 102.585 52.2057 102.519 52.2057C102.519 52.2057 102.497 52.2057 102.452 52.2057C102.452 52.2057 102.43 52.2057 102.386 52.2057C102.386 52.2498 102.386 52.2719 102.386 52.2719C102.342 52.2719 102.32 52.2719 102.32 52.2719C101.437 52.4927 101.15 53.0226 101.459 53.8616C101.989 55.3188 102.519 56.7981 103.049 58.2994C103.269 58.8734 103.49 59.4475 103.711 60.0215C103.711 60.0878 103.777 60.154 103.843 60.2864C103.976 59.6904 104.174 59.2267 104.307 58.6968C104.749 57.3279 105.19 55.959 105.632 54.5902C105.632 54.5019 105.632 54.4135 105.632 54.3253C105.676 54.237 105.698 54.1486 105.698 54.0603C105.698 53.972 105.698 53.8836 105.698 53.7953C105.698 53.7071 105.698 53.6187 105.698 53.5304C105.698 53.0668 105.499 52.7356 105.036 52.4706C104.903 52.4044 104.705 52.3382 104.572 52.2719C104.506 52.2057 104.44 52.1395 104.373 52.007C104.44 52.007 104.506 51.8745 104.639 51.8745C104.682 51.8745 104.727 51.8745 104.771 51.8745C104.815 51.8745 104.859 51.8745 104.903 51.8745C104.947 51.8745 104.992 51.8745 105.036 51.8745C105.08 51.8745 105.124 51.8745 105.168 51.8745C105.875 51.8745 106.603 51.8745 107.354 51.8745C107.487 51.8745 107.553 51.8745 107.619 51.9408C107.685 51.9408 107.818 52.007 107.818 52.0733C107.818 52.1395 107.751 52.2057 107.685 52.2719C107.089 52.4044 106.824 52.868 106.691 53.3317C106.383 54.1707 106.096 55.0317 105.831 55.9149C104.859 58.8734 103.866 61.832 102.85 64.7905C102.783 64.9892 102.717 65.0555 102.519 65.0555C102.188 64.9892 101.857 65.0555 101.459 65.0555C101.592 64.7905 101.658 64.658 101.791 64.4593C101.967 64.106 102.165 63.7528 102.386 63.3996C102.783 62.7372 102.717 62.0748 102.519 61.3462C102.188 60.2203 101.791 59.0942 101.392 58.0345C100.819 56.4007 100.245 54.7889 99.671 53.1993C99.6042 53.133 99.6042 53.0005 99.4059 53.0005C98.6105 53.0005 97.7941 53.0005 96.9551 53.0005C96.9551 53.0005 96.9551 53.0226 96.9551 53.0668C96.9108 53.0668 96.889 53.0668 96.889 53.0668Z" fill="white"/>
<path d="M128.351 60.0211C128.351 59.447 128.351 58.8509 128.351 58.2328C128.351 58.2328 128.351 58.2107 128.351 58.1665C128.351 58.1224 128.351 58.1003 128.351 58.1003C128.351 58.0561 128.373 58.012 128.417 57.9678C128.417 57.9678 128.417 57.9457 128.417 57.9016C128.483 57.8353 128.549 57.7691 128.615 57.7691C128.682 57.7691 128.814 57.8353 128.814 57.9016C128.947 58.1665 129.013 58.4977 129.08 58.7627C129.278 59.3588 129.477 60.0211 129.741 60.6172C130.404 62.0082 131.795 62.3394 132.987 62.0744C133.98 61.8757 134.71 61.0146 134.908 59.8887C135.107 59.0276 134.908 58.3652 134.312 57.7691C133.914 57.2392 133.319 56.8418 132.788 56.5106C131.795 55.9145 130.801 55.3846 129.874 54.656C129.212 54.0599 128.549 53.3313 128.351 52.404C127.887 50.4832 128.814 48.0325 131.663 47.8337C131.75 47.8337 131.861 47.8337 131.994 47.8337C132.082 47.8337 132.192 47.8337 132.325 47.8337C132.413 47.8337 132.523 47.8337 132.656 47.8337C132.788 47.8337 132.899 47.8337 132.987 47.8337C133.164 47.8337 133.34 47.8558 133.517 47.9C133.693 47.9 133.87 47.9441 134.047 48.0325C134.224 48.0766 134.378 48.1428 134.511 48.2311C134.687 48.2753 134.842 48.3636 134.974 48.4961C135.173 48.5624 135.305 48.6286 135.438 48.4299C135.703 48.2311 135.836 48.2974 135.836 48.6285C135.923 49.6 136.012 50.5715 136.1 51.5429C136.1 51.6754 136.034 51.7417 135.968 51.8741C135.902 51.8079 135.769 51.7417 135.703 51.6754C135.703 51.6313 135.681 51.5871 135.637 51.5429C135.637 51.4988 135.615 51.4546 135.57 51.4104C135.57 51.3663 135.549 51.3221 135.504 51.278C135.504 51.2339 135.504 51.1897 135.504 51.1455C135.239 50.3507 134.842 49.6221 134.179 49.1585C133.054 48.2974 131.331 48.2974 130.338 49.2247C129.477 49.9533 129.146 51.3442 130.272 52.2716C130.801 52.6689 131.331 53.0001 131.928 53.3313C132.656 53.795 133.451 54.1924 134.246 54.656C134.643 54.921 135.04 55.1859 135.371 55.5171C136.034 56.1132 136.431 56.8418 136.564 57.7691C136.63 59.0938 136.431 60.2861 135.637 61.2796C134.643 62.6043 133.319 63.068 131.795 62.8692C131.618 62.8692 131.442 62.8472 131.265 62.803C131.089 62.7588 130.912 62.7147 130.735 62.6705C130.558 62.6264 130.382 62.5823 130.205 62.5381C130.073 62.4939 129.919 62.4277 129.741 62.3394C129.411 62.2069 129.013 62.1406 128.682 62.1406C128.417 62.2069 128.351 62.0744 128.351 61.8757C128.351 61.2575 128.351 60.6393 128.351 60.0211Z" fill="white"/>
<path d="M170.41 61.147C170.144 61.412 169.946 61.6769 169.747 61.9418C169.217 62.4055 168.555 62.538 167.827 62.6041C165.971 62.6704 164.647 61.5444 164.448 59.6898C164.448 59.6015 164.427 59.5352 164.382 59.4911C164.382 59.4028 164.382 59.3144 164.382 59.2262C164.382 59.182 164.382 59.1158 164.382 59.0274C164.382 58.9833 164.382 58.917 164.382 58.8287C164.382 56.8417 164.382 54.8767 164.382 52.9337C164.382 52.3377 164.183 52.1389 163.654 52.0065C163.521 51.9402 163.322 51.9402 163.19 51.874C163.123 51.874 163.057 51.7415 162.991 51.7415C163.079 51.6532 163.168 51.587 163.256 51.5428C163.3 51.5428 163.322 51.5428 163.322 51.5428C163.918 51.6091 164.514 51.4766 165.111 51.2778C165.707 51.1454 165.971 51.2778 165.971 52.0065C165.971 54.2143 165.971 56.4222 165.971 58.63C165.971 59.1599 165.971 59.7561 166.237 60.2859C166.502 61.0145 167.031 61.4782 167.76 61.6106C168.224 61.7431 168.621 61.6106 169.019 61.3457C169.879 60.8158 170.344 60.0872 170.344 59.0274C170.344 56.9962 170.344 54.9871 170.344 53C170.344 52.4038 170.211 52.2052 169.681 52.0727C169.482 52.0065 169.284 51.9402 169.151 51.874C169.085 51.874 168.953 51.8077 168.953 51.7415C168.953 51.6753 169.085 51.6091 169.151 51.6091C169.151 51.5649 169.173 51.5428 169.217 51.5428C169.217 51.5428 169.239 51.5428 169.284 51.5428C169.284 51.5428 169.306 51.5428 169.35 51.5428C169.35 51.5428 169.372 51.5428 169.416 51.5428C169.505 51.5428 169.615 51.5428 169.747 51.5428C169.879 51.5428 169.99 51.5428 170.078 51.5428C170.211 51.4986 170.321 51.4766 170.41 51.4766C170.542 51.4324 170.652 51.3882 170.741 51.3441C170.829 51.3441 170.896 51.3441 170.939 51.3441C170.983 51.2999 171.028 51.2778 171.072 51.2778C171.116 51.2778 171.16 51.2778 171.204 51.2778C171.249 51.2778 171.315 51.2778 171.403 51.2778C171.668 51.2117 171.801 51.3441 171.867 51.6091C171.867 51.6532 171.867 51.6974 171.867 51.7415C171.867 51.7415 171.888 51.7636 171.933 51.8077C171.933 51.8519 171.933 51.896 171.933 51.9402C171.933 51.9844 171.933 52.0065 171.933 52.0065C171.933 54.9209 171.933 57.8131 171.933 60.6833C171.933 61.147 171.999 61.2132 172.463 61.2795C172.507 61.2795 172.551 61.2795 172.595 61.2795C172.64 61.2795 172.684 61.2795 172.727 61.2795C172.772 61.2795 172.794 61.2795 172.794 61.2795C172.838 61.3236 172.882 61.3457 172.926 61.3457C172.971 61.3457 172.993 61.3457 172.993 61.3457C173.037 61.3457 173.059 61.3678 173.059 61.412C173.059 61.412 173.081 61.434 173.125 61.4781C173.125 61.4781 173.125 61.5002 173.125 61.5444C173.125 61.5444 173.059 61.6769 172.993 61.7431C172.86 61.8094 172.661 61.8756 172.463 61.9418C171.933 61.9418 171.469 62.1405 171.006 62.4717C170.962 62.4717 170.939 62.4717 170.939 62.4717C170.542 62.7366 170.41 62.6041 170.41 62.1405C170.41 61.8314 170.41 61.5002 170.41 61.147Z" fill="white"/>
<path fill-rule="evenodd" clip-rule="evenodd" d="M70.8591 60.2867C71.9188 61.4789 73.376 61.7438 74.7669 60.949C75.0981 60.7503 75.363 60.4854 75.6943 60.2867C75.8267 60.1983 75.9592 60.11 76.0917 60.0217L76.1579 60.0879C76.1579 60.0879 76.1579 60.11 76.1579 60.1542C76.1579 60.1983 76.1579 60.2204 76.1579 60.2204C76.1579 60.2646 76.1579 60.3088 76.1579 60.3529C76.1579 60.3529 76.1579 60.375 76.1579 60.4192C76.1579 60.4192 76.1579 60.4412 76.1579 60.4853C76.1579 60.4853 76.1358 60.5074 76.0917 60.5516C76.0917 60.5957 76.0696 60.6178 76.0254 60.6178C75.1644 61.8101 74.0384 62.5387 72.5811 62.6711C71.124 62.8036 69.998 62.2075 69.2032 61.0815C68.2096 59.7568 67.8784 58.2996 67.9447 56.6437C68.0771 55.6502 68.2096 54.7228 68.6733 53.7956C69.0044 53.0007 69.5343 52.2722 70.3292 51.8085C71.6539 50.9474 73.376 51.0799 74.502 52.1397C75.363 53.0007 75.8929 53.9943 76.0254 55.1865C76.0696 55.2306 76.0917 55.2748 76.0917 55.319C76.0917 55.319 76.0917 55.3411 76.0917 55.3852C76.0917 55.3852 76.0917 55.4073 76.0917 55.4515C76.0917 55.4956 76.0696 55.5177 76.0254 55.5177C76.0254 55.6943 75.9371 55.8047 75.7604 55.8489C75.628 55.8489 75.4955 55.8489 75.363 55.8489H69.5343C69.6006 57.4385 69.7993 59.0282 70.8591 60.2867ZM69.5343 55.1202C69.5785 55.1202 69.6006 55.1202 69.6006 55.1202C69.6006 55.1202 69.6226 55.1202 69.6668 55.1202C71.0356 55.1202 72.4266 55.1202 73.8396 55.1202C74.1046 55.1202 74.237 54.9878 74.237 54.6566C74.3033 53.5968 73.6409 52.4708 72.6474 52.0072C72.0512 51.7423 71.4551 51.7423 70.9915 52.1397C69.9979 52.8683 69.6006 53.9281 69.5343 55.1202Z" fill="white"/>
<path d="M178.096 60.5508C178.052 60.1092 178.052 59.6897 178.096 59.2923C178.096 59.0936 178.096 58.8287 178.295 58.8287C178.361 58.8287 178.494 59.0273 178.56 59.2261C178.759 59.756 178.825 60.3521 179.09 60.882C179.553 61.9417 180.812 62.4054 181.872 62.008C182.866 61.6768 183.461 60.5508 183.196 59.4911C183.196 59.4027 183.174 59.3144 183.13 59.2261C183.086 59.1377 183.02 59.0494 182.932 58.9612C182.887 58.8728 182.821 58.8066 182.733 58.7624C182.688 58.6741 182.622 58.6079 182.534 58.5637C182.203 58.2988 181.938 58.1663 181.607 57.9676C180.944 57.5039 180.216 57.1728 179.62 56.7091C179.222 56.4442 178.891 56.113 178.56 55.7818C177.567 54.5896 177.964 52.5362 179.156 51.7414C179.245 51.6973 179.355 51.631 179.487 51.5427C179.576 51.4985 179.686 51.4545 179.819 51.4103C179.907 51.3661 180.017 51.344 180.15 51.344C180.282 51.2999 180.415 51.2778 180.547 51.2778C181.408 51.2116 182.335 51.2778 183.13 51.5427C183.594 51.6752 183.859 51.8739 183.859 52.4038C183.859 52.8675 183.859 53.3973 183.859 53.861C183.859 53.9935 183.726 54.0597 183.66 54.1921C183.594 54.0597 183.527 54.0597 183.461 53.9272C183.263 53.596 183.13 53.1324 182.866 52.8012C182.269 51.8077 181.077 51.6752 180.216 51.9402C179.09 52.3376 178.759 53.7947 179.686 54.5234C179.774 54.6117 179.863 54.6999 179.951 54.7883C180.084 54.8766 180.194 54.9428 180.282 54.987C180.371 55.0753 180.481 55.1416 180.613 55.1857C180.702 55.274 180.812 55.3402 180.944 55.3844C181.475 55.7156 182.07 56.0468 182.667 56.3779C182.799 56.4442 182.932 56.5766 183.064 56.6429C184.852 57.8352 184.654 59.6897 184.058 60.882C183.329 62.3391 181.938 62.9353 180.282 62.6041C179.951 62.5379 179.62 62.4054 179.288 62.3391C179.2 62.3391 179.112 62.3171 179.024 62.2729C178.98 62.2729 178.914 62.2508 178.825 62.2066C178.737 62.2066 178.648 62.2066 178.56 62.2066C178.472 62.1626 178.383 62.1405 178.295 62.1405C178.096 62.1405 178.096 62.008 178.096 61.8755C178.096 61.4339 178.096 60.9924 178.096 60.5508Z" fill="white"/>
<path d="M139.479 53.0664V53.3977C139.479 55.5614 139.479 57.7471 139.479 59.955C139.479 60.0433 139.479 60.1095 139.479 60.1537C139.479 60.242 139.479 60.3303 139.479 60.4186C139.523 60.4628 139.545 60.529 139.545 60.6173C139.545 60.7057 139.567 60.7719 139.611 60.8161C139.744 61.4122 140.207 61.6771 140.737 61.7433C141.399 61.7433 141.996 61.5667 142.526 61.2135C142.592 61.1472 142.724 61.1472 142.79 61.1472C142.79 61.2797 142.79 61.3459 142.79 61.4784C142.747 61.5225 142.724 61.5446 142.724 61.5446C142.724 61.5888 142.703 61.6109 142.658 61.6109C142.658 61.655 142.636 61.6771 142.592 61.6771C142.592 61.7213 142.57 61.7433 142.526 61.7433C141.797 62.5382 140.87 62.8694 139.876 62.7369C139.082 62.6706 138.551 62.207 138.22 61.5446C137.956 60.9485 137.889 60.3524 137.889 59.7563C137.845 57.6368 137.845 55.5172 137.889 53.3977V53.0664C137.425 53.0664 136.962 53.1327 136.498 53.0664C136.366 53.0664 136.234 53.0002 136.101 53.0002C136.167 52.8678 136.3 52.7353 136.432 52.6691C136.829 52.4041 137.227 52.2054 137.558 51.9404C138.154 51.4768 138.551 50.9469 138.75 50.2183C138.75 50.1742 138.772 50.13 138.816 50.0859C138.816 50.0417 138.816 49.9975 138.816 49.9534C138.861 49.9092 138.883 49.843 138.883 49.7547C138.883 49.7105 138.905 49.6663 138.949 49.6222C138.949 49.6222 138.971 49.6222 139.015 49.6222C139.015 49.5781 139.015 49.556 139.015 49.556C139.059 49.556 139.082 49.556 139.082 49.556C139.126 49.5118 139.148 49.4897 139.148 49.4897C139.192 49.4897 139.214 49.5118 139.214 49.556C139.258 49.556 139.28 49.556 139.28 49.556C139.324 49.6002 139.347 49.6222 139.347 49.6222C139.347 49.6222 139.369 49.6443 139.413 49.6884C139.413 49.6884 139.413 49.7105 139.413 49.7547C139.413 49.7988 139.413 49.843 139.413 49.8871C139.413 49.8871 139.413 49.9092 139.413 49.9534C139.457 49.9975 139.479 50.0417 139.479 50.0859C139.479 50.7041 139.479 51.3443 139.479 52.0067H139.942C140.473 51.9625 141.025 51.9625 141.598 52.0067C141.996 52.0067 142.327 51.8742 142.592 51.4768C142.592 51.4768 142.614 51.4768 142.658 51.4768C142.658 51.4326 142.658 51.4105 142.658 51.4105C142.724 51.4105 142.724 51.4105 142.79 51.4105C142.79 51.543 142.79 51.6755 142.724 51.808C142.636 52.1613 142.504 52.5145 142.327 52.8678C142.261 53.0665 142.195 53.1327 141.996 53.1327C141.245 53.0885 140.517 53.0885 139.81 53.1327L139.479 53.0664Z" fill="white"/>
<path d="M82.9817 60.3521C82.9817 59.9106 82.9817 59.469 82.9817 59.0274C82.9817 59.0274 82.9817 59.0054 82.9817 58.9612C82.9817 58.917 82.9817 58.895 82.9817 58.895C82.9817 58.8508 82.9817 58.8287 82.9817 58.8287C83.0479 58.7625 83.1142 58.6962 83.1804 58.6962C83.2466 58.63 83.3128 58.7625 83.3791 58.8287C83.4674 59.1819 83.5557 59.5132 83.644 59.8222C83.7765 60.3521 83.9752 60.882 84.3064 61.2794C84.9025 61.9418 86.0947 62.1405 86.8896 61.743C87.7506 61.2794 88.2143 60.2859 88.0156 59.4248C87.8831 58.9612 87.6181 58.63 87.2207 58.3651C86.7571 58.0338 86.2935 57.7689 85.8298 57.504C85.2337 57.1066 84.6376 56.7754 84.1077 56.3118C83.4453 55.8481 82.9817 55.252 82.9154 54.4571C82.7168 52.6688 83.7765 51.4103 85.4986 51.2778C86.2935 51.2778 87.0883 51.2778 87.8831 51.5427C87.9714 51.5869 88.0598 51.6311 88.148 51.6752C88.413 51.7415 88.6117 51.9402 88.6117 52.2051C88.6117 52.735 88.6117 53.3311 88.6117 53.861C88.6117 53.9273 88.4793 54.0597 88.4793 54.126C88.413 54.0597 88.2805 53.9935 88.2805 53.9273C88.0819 53.5299 87.8831 53.1325 87.6844 52.8012C87.0883 51.9402 86.161 51.6752 85.1675 51.9402C84.5713 52.0726 84.1739 52.4701 84.0414 53.0662C83.9089 53.6624 84.0414 54.126 84.5713 54.5234C84.6596 54.6117 84.748 54.678 84.8363 54.7221C84.9246 54.8104 85.035 54.8987 85.1675 54.987C85.2558 55.0312 85.3662 55.0974 85.4986 55.1858C85.5869 55.2299 85.6753 55.2961 85.7636 55.3844C86.4921 55.7819 87.287 56.1793 87.9494 56.6429C89.0754 57.4378 89.4728 58.4976 89.0754 60.021C88.7442 61.3456 87.6844 62.3392 86.3597 62.4717C85.6973 62.5379 85.035 62.4717 84.3726 62.2068C83.9752 62.0743 83.5778 61.8755 83.1804 61.9418C83.1142 61.9418 82.9817 61.8093 82.9817 61.743C82.9817 61.2573 82.9817 60.7937 82.9817 60.3521Z" fill="white"/>
<path d="M64.433 60.2857C64.4992 60.0208 64.6317 59.822 64.6979 59.5571C65.2941 58.0999 65.8902 56.5765 66.4201 55.0531C66.6187 54.4569 66.7512 53.7946 66.8175 53.1984C66.95 52.5361 66.685 52.2711 66.0889 52.0725C66.0889 52.0725 66.0668 52.0725 66.0227 52.0725C66.0227 52.0283 66.0006 52.0062 65.9564 52.0062C65.9123 52.0062 65.8902 52.0062 65.8902 52.0062C65.846 51.9621 65.824 51.94 65.824 51.94C65.7798 51.94 65.7577 51.9179 65.7577 51.8738C65.7135 51.8296 65.6915 51.8075 65.6915 51.8075C65.6915 51.7633 65.6915 51.7413 65.6915 51.7413C65.6915 51.675 65.824 51.6088 65.8902 51.6088C65.9344 51.6088 65.9564 51.6088 65.9564 51.6088C66.0006 51.5647 66.0447 51.5426 66.0889 51.5426C66.0889 51.5426 66.1109 51.5426 66.1551 51.5426C66.1993 51.5426 66.2213 51.5426 66.2213 51.5426C66.972 51.5426 67.7227 51.5426 68.4734 51.5426C68.5396 51.5426 68.6721 51.5426 68.7383 51.5426C68.8045 51.6088 68.937 51.675 69.0033 51.7413C68.937 51.8075 68.8708 51.94 68.7383 52.0062C68.6721 52.0725 68.4734 52.0725 68.4071 52.1387C68.2084 52.3374 68.0097 52.5361 67.9435 52.7348C67.2811 54.4128 66.6187 56.0908 65.9564 57.7687C65.4266 59.2701 64.8746 60.7493 64.3005 62.2065C64.3005 62.2507 64.3005 62.2728 64.3005 62.2728C64.3005 62.3169 64.3005 62.361 64.3005 62.4052C64.2564 62.4052 64.2343 62.4273 64.2343 62.4714C64.2343 62.4714 64.2122 62.4935 64.1681 62.5377C64.0356 62.8027 63.8369 62.8027 63.6382 62.5377C63.6382 62.5377 63.6382 62.5156 63.6382 62.4714C63.6382 62.4714 63.6161 62.4494 63.5719 62.4052C63.5719 62.4052 63.5719 62.3831 63.5719 62.339C63.5719 62.339 63.5719 62.3169 63.5719 62.2728C62.4238 59.1376 61.2757 56.0024 60.1277 52.8673C60.0835 52.7348 60.0394 52.6245 59.9952 52.5361C59.8627 52.2711 59.7302 52.0725 59.4653 52.0062C59.3991 51.94 59.3328 51.8075 59.2666 51.7413C59.3328 51.675 59.4653 51.5426 59.5316 51.5426C59.8627 51.5426 60.1939 51.6088 60.5251 51.6088C61.1875 51.6088 61.8498 51.5426 62.4459 51.5426C62.4901 51.5426 62.5342 51.5426 62.5784 51.5426C62.6226 51.5426 62.6446 51.5426 62.6446 51.5426C62.6888 51.5426 62.733 51.5426 62.7771 51.5426C62.8212 51.5426 62.8433 51.5426 62.8433 51.5426C62.9758 51.5426 63.042 51.675 63.1083 51.7413C63.042 51.8075 62.9758 51.94 62.9096 52.0062C62.7109 52.0725 62.5122 52.0725 62.3134 52.2049C61.9823 52.3374 61.8498 52.5361 61.916 52.9335C61.9602 52.9777 61.9823 53.0439 61.9823 53.1323C62.4238 54.4569 62.8654 55.7596 63.307 57.0401C63.7044 58.0999 64.0356 59.1596 64.433 60.2857Z" fill="white"/>
<path d="M79.0731 53.0003C79.338 52.603 79.5367 52.2717 79.7354 51.9406C79.7796 51.8964 79.8458 51.8522 79.9341 51.8081C79.9783 51.7198 80.0225 51.6535 80.0666 51.6094C80.1108 51.5653 80.177 51.5211 80.2653 51.4769C80.3094 51.4328 80.3757 51.3886 80.464 51.3444C80.7952 51.0795 81.1264 51.0795 81.5238 51.2782C81.568 51.3224 81.6342 51.3665 81.7225 51.4107C81.7667 51.4549 81.8108 51.499 81.8549 51.5432C81.9433 51.6315 82.0095 51.6977 82.0537 51.7418C82.142 51.786 82.2082 51.8302 82.2524 51.8743C82.4511 52.0731 82.5173 52.338 82.3848 52.603C82.3407 52.6471 82.2966 52.7134 82.2524 52.8016C82.2524 52.8458 82.2303 52.8899 82.1862 52.9341C82.142 52.9783 82.0978 53.0224 82.0537 53.0666C82.0537 53.1108 82.0316 53.177 81.9874 53.2652C81.7887 53.5302 81.59 53.464 81.3251 53.2652C81.2809 53.2212 81.2367 53.1991 81.1926 53.1991C81.1043 53.1549 81.0381 53.1108 80.9939 53.0666C80.9497 53.0224 80.8835 53.0003 80.7952 53.0003C80.751 52.9562 80.6848 52.912 80.5965 52.8679C80.3315 52.8016 80.0666 52.8679 79.8679 53.0003C79.4043 53.3977 79.0731 53.8614 79.0731 54.5238C79.0731 56.3342 79.0731 58.1667 79.0731 60.0213C79.0731 60.0655 79.0731 60.1317 79.0731 60.2201C79.0731 60.2642 79.0731 60.3083 79.0731 60.3525C79.0731 60.4408 79.0731 60.5071 79.0731 60.5512C79.0731 60.5954 79.0951 60.6616 79.1393 60.75C79.2055 61.2798 79.5367 61.611 80.1329 61.6772C80.3094 61.6772 80.4861 61.6993 80.6628 61.7435C80.8393 61.7876 80.9277 61.898 80.9277 62.0746C80.9277 62.2734 80.7952 62.3396 80.5965 62.3396C80.1329 62.2734 79.6692 62.2071 79.2718 62.2071C78.4107 62.2071 77.6159 62.2734 76.8211 62.2734C76.6886 62.2734 76.4898 62.2734 76.4236 62.2071C76.3574 62.0084 76.4898 61.8759 76.6223 61.7435C76.6223 61.7435 76.6444 61.7435 76.6886 61.7435C76.6886 61.6993 76.6886 61.6772 76.6886 61.6772C76.7327 61.6772 76.7548 61.6772 76.7548 61.6772C76.799 61.6331 76.8211 61.611 76.8211 61.611C77.351 61.346 77.4834 60.9486 77.4834 60.4187C77.4834 58.6304 77.4834 56.9083 77.4834 55.1199C77.4834 54.7667 77.4834 54.3913 77.4834 53.9939C77.4834 53.8614 77.4834 53.729 77.4834 53.5965C77.4172 53.0003 77.1522 52.7354 76.6223 52.603C76.4898 52.603 76.3574 52.6029 76.2912 52.5367C76.1587 52.4705 76.0925 52.4042 75.96 52.338C76.0925 52.2717 76.1587 52.1393 76.2249 52.0731C76.3574 52.0068 76.5561 52.0068 76.6886 51.9406C76.8652 51.9406 77.0197 51.8964 77.1522 51.8081C77.3289 51.7639 77.4834 51.6977 77.6159 51.6094C77.7484 51.5653 77.9029 51.499 78.0795 51.4107C78.212 51.3224 78.3445 51.234 78.477 51.1457C78.5432 51.0133 78.8081 50.947 78.8744 51.0133C78.9406 51.0795 79.0069 51.2782 79.0731 51.4107C79.0731 51.9406 79.0731 52.4042 79.0731 53.0003Z" fill="white"/>
<path d="M92.519 55.9808C92.519 57.4821 92.519 58.9835 92.519 60.4848C92.519 61.2134 92.7177 61.4783 93.3801 61.6771C93.5788 61.7433 93.8437 61.7433 93.9762 61.8758C94.1087 61.8758 94.1749 62.0745 94.2411 62.1407C94.1087 62.2069 94.0425 62.3394 93.91 62.3394C93.8658 62.3394 93.7996 62.3394 93.7112 62.3394C93.6229 62.3394 93.5567 62.3394 93.5126 62.3394C93.4243 62.3394 93.3359 62.3394 93.2476 62.3394C93.2034 62.2953 93.1372 62.2732 93.0489 62.2732C92.8281 62.2732 92.6073 62.2732 92.3866 62.2732C92.1658 62.229 91.945 62.229 91.7242 62.2732C91.5034 62.2732 91.2826 62.2732 91.0618 62.2732C90.8411 62.2732 90.6203 62.2953 90.3994 62.3394C90.3553 62.3394 90.3112 62.3394 90.267 62.3394C90.2229 62.3394 90.1787 62.3394 90.1345 62.3394C90.0904 62.3394 90.0462 62.3173 90.0021 62.2732C89.9579 62.2732 89.9137 62.2732 89.8696 62.2732C89.8034 62.2732 89.7371 62.1407 89.7371 62.0744C89.7371 62.0082 89.8034 61.942 89.8696 61.8758C89.9358 61.8095 90.002 61.8095 90.1345 61.8095C90.4878 61.7212 90.6865 61.5004 90.7307 61.1472C90.8632 60.8822 90.8632 60.551 90.9293 60.2199C90.9293 58.012 90.9293 55.8262 90.9293 53.6625C90.9293 53.6184 90.9293 53.5742 90.9293 53.53C90.8852 53.53 90.8632 53.508 90.8632 53.4638C90.8632 53.4196 90.8632 53.3755 90.8632 53.3314C90.8632 53.2872 90.8632 53.2651 90.8632 53.2651C90.7969 52.7353 90.5319 52.6028 90.0683 52.6028C89.9358 52.6028 89.6709 52.669 89.6709 52.4703C89.6709 52.2054 89.8696 52.2715 90.0021 52.2054C90.1345 52.1612 90.267 52.117 90.3994 52.0729C90.5319 51.9846 90.6423 51.9183 90.7307 51.8741C90.8632 51.7858 90.9735 51.6976 91.0618 51.6092C91.1943 51.5651 91.3047 51.4988 91.393 51.4105C91.5917 51.2118 91.7904 51.0131 91.9891 50.8806C92.2541 50.7481 92.4528 50.8144 92.519 51.1456C92.519 51.1897 92.519 51.2118 92.519 51.2118C92.519 51.2559 92.519 51.278 92.519 51.278C92.519 51.3222 92.519 51.3443 92.519 51.3443C92.519 51.3884 92.519 51.4105 92.519 51.4105C92.519 52.9118 92.519 54.4352 92.519 55.9808Z" fill="white"/>
<path d="M176.107 56.1798C176.107 57.6812 176.107 59.2046 176.107 60.7501C176.107 61.4124 176.305 61.6773 176.968 61.8761C177.299 62.0086 177.498 62.1411 177.432 62.3397C177.299 62.5384 177.034 62.5384 176.836 62.4722C176.504 62.4722 176.239 62.3397 175.908 62.3397C175.379 62.2073 174.848 62.3397 174.319 62.406C174.054 62.4722 173.789 62.4722 173.523 62.4722C173.457 62.4722 173.325 62.3397 173.325 62.2735C173.325 62.2073 173.457 62.0748 173.523 62.0086C173.523 62.0086 173.59 62.0086 173.656 62.0086C174.12 61.9423 174.385 61.6112 174.451 61.2137C174.451 61.1254 174.451 61.0371 174.451 60.9488C174.495 60.8605 174.517 60.7942 174.517 60.7501C174.517 60.6617 174.517 60.5735 174.517 60.4852C174.517 60.3968 174.517 60.3085 174.517 60.2202C174.517 58.189 174.517 56.1577 174.517 54.1265C174.517 54.0382 174.517 53.972 174.517 53.9278C174.517 53.8395 174.495 53.7511 174.451 53.6628C174.451 53.5746 174.451 53.4862 174.451 53.3979C174.407 53.3096 174.385 53.2213 174.385 53.1329C174.253 52.8018 174.054 52.6693 173.656 52.7355C173.523 52.7355 173.391 52.8018 173.325 52.6031C173.325 52.5369 173.457 52.4044 173.59 52.4044C174.186 52.2057 174.716 51.8745 175.18 51.4109C175.224 51.3667 175.268 51.3446 175.313 51.3446C175.356 51.3005 175.379 51.2563 175.379 51.2121C175.423 51.168 175.467 51.1459 175.511 51.1459C175.555 51.1017 175.599 51.0796 175.643 51.0796C175.908 50.9472 176.041 51.0134 176.107 51.2784C176.107 51.2784 176.107 51.3005 176.107 51.3446C176.107 51.3446 176.107 51.3667 176.107 51.4109C176.107 51.455 176.107 51.4771 176.107 51.4771C176.107 51.5212 176.107 51.5433 176.107 51.5433C176.107 53.0888 176.107 54.6343 176.107 56.1798Z" fill="white"/>
<path d="M120.999 24.4528C120.999 24.4969 120.999 24.519 120.999 24.519C120.999 24.519 120.999 24.541 120.999 24.5852C120.999 24.5852 120.999 24.6073 120.999 24.6514C120.8 25.2476 120.469 25.7112 120.072 26.1087C119.873 26.3736 119.741 26.3736 119.475 26.1087C119.387 26.0203 119.299 25.932 119.21 25.8437C119.122 25.7112 119.034 25.5788 118.945 25.4463C118.902 25.358 118.835 25.2476 118.747 25.1151C118.703 24.9827 118.658 24.8502 118.614 24.7177C118.614 24.6735 118.592 24.6294 118.548 24.5852C118.548 24.541 118.548 24.4969 118.548 24.4528C118.548 24.4086 118.548 24.3865 118.548 24.3865C118.592 24.3424 118.614 24.2982 118.614 24.254C118.658 24.1216 118.703 23.9891 118.747 23.8566C118.835 23.7242 118.902 23.5917 118.945 23.4592C119.034 23.3268 119.122 23.2164 119.21 23.128C119.299 22.9955 119.387 22.8852 119.475 22.7969C119.741 22.5319 119.873 22.5319 120.072 22.7969C120.469 23.1943 120.8 23.7242 120.999 24.254C120.999 24.2982 120.999 24.3203 120.999 24.3203C120.999 24.3203 120.999 24.3424 120.999 24.3865C120.999 24.4307 120.999 24.4528 120.999 24.4528Z" fill="white"/>
<path d="M176.24 48.8271C176.042 49.357 175.843 49.8206 175.379 50.2181C175.379 50.2181 175.18 50.2181 175.18 50.1519C175.092 50.0635 175.004 49.9752 174.915 49.8869C174.827 49.7986 174.761 49.6882 174.717 49.5557C174.628 49.4674 174.562 49.3791 174.518 49.2908C174.474 49.1583 174.43 49.0259 174.386 48.8934C174.386 48.8492 174.386 48.8271 174.386 48.8271C174.43 48.6947 174.474 48.5622 174.518 48.4297C174.562 48.3414 174.628 48.231 174.717 48.0986C174.761 48.0102 174.827 47.8998 174.915 47.7673C175.004 47.679 175.092 47.5908 175.18 47.5024C175.246 47.4362 175.379 47.4362 175.379 47.5024C175.843 47.8336 176.042 48.2972 176.24 48.8271Z" fill="white"/>
<path d="M58.5391 48.7611C58.4729 48.9598 58.4066 49.1585 58.3404 49.291C58.2963 49.3352 58.2521 49.4013 58.208 49.4897C58.1638 49.5338 58.1197 49.578 58.0755 49.6222C58.0313 49.7105 57.9872 49.7767 57.943 49.8209C57.8988 49.8651 57.8547 49.9312 57.8105 50.0196C57.6781 50.152 57.5456 50.152 57.4131 50.0196C57.1482 49.6663 56.9274 49.291 56.7507 48.8935C56.7066 48.8935 56.6846 48.8715 56.6846 48.8273C56.6846 48.8273 56.6846 48.8053 56.6846 48.7611C56.6846 48.717 56.6846 48.6949 56.6846 48.6949C56.6846 48.6507 56.7066 48.6286 56.7507 48.6286C56.9274 48.2312 57.1482 47.8559 57.4131 47.5026C57.4794 47.4364 57.6781 47.3701 57.6781 47.4364C58.1417 47.7675 58.3404 48.2312 58.5391 48.7611Z" fill="white"/>
<path d="M145.176 61.3456C145.044 61.8755 144.778 62.2729 144.381 62.604C144.315 62.6703 144.116 62.6703 144.116 62.604C143.851 62.2066 143.608 61.8313 143.387 61.478C143.387 61.4339 143.366 61.3897 143.321 61.3456C143.321 61.3456 143.321 61.3235 143.321 61.2794C143.321 61.2794 143.343 61.2573 143.387 61.2131C143.387 61.2131 143.387 61.191 143.387 61.1469C143.608 60.7936 143.829 60.4403 144.05 60.0871C144.116 60.0208 144.315 59.9546 144.381 60.0208C144.778 60.352 145.044 60.8157 145.176 61.3456Z" fill="white"/>
<path d="M92.586 48.8275C92.3873 49.2912 92.1886 49.7548 91.725 50.086C91.725 50.1522 91.5262 50.086 91.46 50.0197C91.1951 49.6665 90.9522 49.2912 90.7314 48.8937C90.7314 48.8496 90.7314 48.8275 90.7314 48.8275C90.7314 48.7834 90.7314 48.7613 90.7314 48.7613C90.7314 48.7172 90.7314 48.6951 90.7314 48.6951C90.7314 48.6509 90.7535 48.6288 90.7976 48.6288C90.9743 48.2314 91.1951 47.856 91.46 47.5028C91.5262 47.3703 91.725 47.3703 91.8575 47.5028C92.1886 47.9002 92.4535 48.2976 92.586 48.8275Z" fill="white"/>
<path d="M112.919 48.9597C112.786 49.4896 112.521 49.9533 112.124 50.2183C112.057 50.2844 111.925 50.2844 111.858 50.2183C111.594 49.8208 111.351 49.4455 111.13 49.0922C111.13 49.026 111.13 48.8935 111.13 48.8273C111.351 48.4299 111.572 48.0545 111.792 47.7012C111.925 47.5688 112.124 47.5688 112.256 47.7012C112.344 47.7896 112.41 47.8779 112.455 47.9662C112.543 48.0987 112.609 48.209 112.654 48.2974C112.742 48.3857 112.809 48.4961 112.852 48.6286C112.896 48.761 112.919 48.8714 112.919 48.9597Z" fill="white"/>
<path d="M43.4368 41.1435H43.0394C43.0394 40.8786 43.0394 40.5475 42.9731 40.2825C42.9731 40.0176 42.9731 39.7526 42.8406 39.4877C42.7082 39.1565 42.6419 38.8916 42.6419 38.5604C42.6861 38.5162 42.7082 38.4941 42.7082 38.4941C42.7082 38.45 42.7082 38.4059 42.7082 38.3617C42.7082 38.3175 42.7082 38.2955 42.7082 38.2955C42.7082 38.2513 42.6861 38.2071 42.6419 38.163C42.5757 37.6331 42.8406 37.3019 43.3043 36.9707C43.4368 37.1474 43.5693 37.324 43.7017 37.5006C43.7458 37.5006 43.7679 37.5227 43.7679 37.5668C43.7679 37.611 43.7679 37.6331 43.7679 37.6331C43.7679 37.6772 43.7679 37.6993 43.7679 37.6993C43.8121 38.0967 43.8121 38.4941 43.7679 38.8916C43.7679 38.9357 43.7679 38.9798 43.7679 39.024C43.7679 39.0682 43.7679 39.1123 43.7679 39.1565C43.7679 39.1565 43.7458 39.1786 43.7017 39.2227C43.7017 39.2669 43.7017 39.3111 43.7017 39.3552C43.6575 39.4435 43.6134 39.5318 43.5693 39.6201C43.5251 39.7085 43.503 39.7968 43.503 39.8851C43.4589 39.9734 43.4368 40.0617 43.4368 40.15C43.4368 40.2825 43.4368 40.3929 43.4368 40.4812C43.503 40.6799 43.4368 40.9449 43.4368 41.1435Z" fill="white"/>
<path d="M45.9554 39.1569C46.0879 39.6205 46.0217 40.0179 45.558 40.2829L44.8294 39.8192C44.6969 40.0179 44.432 40.2166 44.3658 40.4154C44.2333 40.614 44.2995 40.879 44.2995 41.1439H43.8359C43.8359 40.7465 43.7697 40.3491 43.9021 39.9517C43.9683 39.6867 44.2333 39.4218 44.4983 39.1569H44.5644C45.0502 39.1569 45.5139 39.1569 45.9554 39.1569Z" fill="white"/>
<path d="M42.6437 41.1439H42.18C42.2463 40.614 42.1138 40.1504 41.5839 39.8855L40.9216 40.2829C40.4579 39.8855 40.3917 39.753 40.5241 39.1569C40.9657 39.1569 41.4294 39.1569 41.9151 39.1569C41.9593 39.1569 41.9814 39.1569 41.9814 39.1569C42.0255 39.201 42.0476 39.2231 42.0476 39.2231C42.2242 39.4438 42.4008 39.6647 42.5775 39.8855C42.5775 39.8855 42.5775 39.9076 42.5775 39.9517C42.6216 39.9517 42.6437 39.9517 42.6437 39.9517C42.6437 39.9958 42.6437 40.0179 42.6437 40.0179C42.6437 40.3712 42.6437 40.7465 42.6437 41.1439Z" fill="white"/>
<path d="M36.2178 39.4223C36.2178 39.2898 36.2178 39.1574 36.2178 39.0249C36.2178 38.7599 36.1516 38.4288 36.0853 38.1639C35.9529 37.7664 35.9529 37.369 36.0191 37.0379C36.0191 36.9054 36.2178 36.7729 36.3502 36.6404C36.6152 36.8391 36.7477 36.9716 36.7477 37.369C36.7477 37.7664 36.7477 38.0976 36.549 38.495C36.4827 38.6938 36.549 38.8924 36.549 39.0911C36.549 39.1795 36.549 39.2898 36.549 39.4223H36.2178Z" fill="white"/>
<path d="M49.7314 39.3563C49.7314 39.2238 49.7314 39.0913 49.7314 38.9589C49.7314 38.6939 49.6652 38.429 49.5989 38.0977C49.4665 37.7666 49.4665 37.3692 49.5328 36.9717C49.5328 36.8393 49.7314 36.7068 49.8639 36.5743C50.1289 36.7731 50.2613 36.9717 50.2613 37.303C50.2613 37.7004 50.2613 38.0315 50.0627 38.429C49.9964 38.5615 50.0627 38.8264 50.0627 39.0251C50.0627 39.1134 50.0627 39.2238 50.0627 39.3563H49.7314Z" fill="white"/>
<path d="M42.9751 41.6731H43.4387C43.4387 41.6731 43.4387 41.6952 43.4387 41.7393C43.4387 41.7835 43.4387 41.8056 43.4387 41.8056C43.4387 41.8939 43.4387 41.9822 43.4387 42.0706C43.4387 42.1147 43.4608 42.1809 43.505 42.2692C43.505 42.3575 43.5271 42.4238 43.5712 42.468C43.6154 42.5563 43.6595 42.6225 43.7036 42.6667C43.792 42.7991 43.7699 42.9095 43.6375 42.9978C43.505 43.1745 43.3504 43.3732 43.1737 43.594C42.9972 43.3732 42.8426 43.1524 42.7101 42.9316C42.7101 42.9316 42.6439 42.7991 42.7101 42.7991C42.9751 42.468 43.1076 42.0706 42.9751 41.6731Z" fill="white"/>
<path d="M38.2081 38.0976C38.2744 38.4287 38.2081 38.6937 37.9432 38.8261L37.4796 38.5612C37.1484 38.7599 37.016 39.0248 37.0821 39.4222H36.751C36.8172 39.0248 36.6847 38.6937 37.016 38.3625C37.1484 38.1638 37.2809 38.0313 37.5458 38.0976C37.7445 38.0976 38.0095 38.0976 38.2081 38.0976Z" fill="white"/>
<path d="M35.6223 39.4217C35.6886 39.0904 35.6223 38.7593 35.2249 38.5606L34.8275 38.8255C34.5184 38.6489 34.4301 38.4061 34.5626 38.0969C34.8275 38.0969 35.1145 38.0969 35.4236 38.0969C35.4898 38.0969 35.5561 38.1632 35.6223 38.1632C36.0197 38.4943 36.0197 38.958 35.9535 39.4217H35.6223Z" fill="white"/>
<path d="M51.7177 38.031C51.784 38.4946 51.784 38.4946 51.4528 38.7596C51.4086 38.7596 51.3645 38.7375 51.3203 38.6934C51.1878 38.6271 50.9891 38.5609 50.9229 38.5609C50.7242 38.6934 50.5255 38.8258 50.5917 39.0908C50.5917 39.1349 50.5917 39.157 50.5917 39.157C50.5917 39.2012 50.5917 39.2233 50.5917 39.2233C50.5917 39.2674 50.5917 39.2895 50.5917 39.2895C50.5917 39.3336 50.5917 39.3557 50.5917 39.3557H50.3267C50.2606 38.892 50.2606 38.4284 50.658 38.0973C50.7021 38.0973 50.7242 38.0752 50.7242 38.031C50.7242 38.031 50.7463 38.031 50.7905 38.031C51.0995 38.031 51.4086 38.031 51.7177 38.031Z" fill="white"/>
<path d="M48.0049 38.031C48.336 38.031 48.601 38.031 48.9322 38.031C48.9984 38.031 49.0647 38.0973 49.1309 38.1635C49.5283 38.4946 49.462 38.892 49.462 39.3557L49.1309 39.4219C49.1971 39.0245 49.1309 38.6934 48.7334 38.4946C48.7334 38.5388 48.7113 38.5609 48.6672 38.5609C48.6231 38.6051 48.601 38.6271 48.601 38.6271C48.601 38.6271 48.5789 38.6271 48.5348 38.6271C48.4685 38.6934 48.2698 38.7596 48.2698 38.7596C48.2256 38.7155 48.2035 38.6713 48.2035 38.6271C48.1594 38.6271 48.1373 38.6051 48.1373 38.5609C48.0932 38.5167 48.0711 38.4726 48.0711 38.4284C48.027 38.3842 48.0049 38.3622 48.0049 38.3622C48.0049 38.2297 48.0049 38.1635 48.0049 38.031Z" fill="white"/>
<path d="M43.8346 41.6737C43.9229 41.6295 43.9891 41.6074 44.0333 41.6074C44.2982 41.6074 44.5411 41.6074 44.7619 41.6074C44.9606 42.2036 44.4307 42.2698 44.1658 42.6009C43.8346 42.336 43.7684 42.0048 43.8346 41.6737Z" fill="white"/>
<path d="M41.7146 41.6738H42.5756C42.6418 42.0051 42.6419 42.3362 42.3107 42.5349C41.8471 42.3362 41.6483 42.0713 41.7146 41.6738Z" fill="white"/>
<path d="M36.3486 41.0777C36.3486 41.0777 36.3265 41.0556 36.2823 41.0114C36.2823 41.0114 36.2823 40.9894 36.2823 40.9452C36.2382 40.9452 36.2161 40.9452 36.2161 40.9452C36.2161 40.901 36.194 40.8789 36.1498 40.8789C35.9511 40.6802 36.0174 40.5477 36.1498 40.2828C36.2161 40.1503 36.2161 39.9517 36.2823 39.7529H36.4147C36.5031 40.0178 36.5914 40.2828 36.6797 40.5477C36.6797 40.5919 36.6797 40.614 36.6797 40.614C36.6797 40.614 36.6797 40.636 36.6797 40.6802C36.5472 40.8127 36.4368 40.9452 36.3486 41.0777Z" fill="white"/>
<path d="M49.7972 39.7529H49.9296C50.0179 39.9737 50.1063 40.2166 50.1946 40.4815C50.1946 40.4815 50.1946 40.5036 50.1946 40.5477C50.1946 40.5919 50.1946 40.614 50.1946 40.614C50.1063 40.7465 49.9959 40.8789 49.8634 41.0114C49.731 40.8789 49.6206 40.7465 49.5322 40.614C49.5322 40.5698 49.5322 40.5477 49.5322 40.5477C49.5322 40.5477 49.5322 40.5257 49.5322 40.4815C49.5985 40.2166 49.731 40.0178 49.7972 39.7529Z" fill="white"/>
<path d="M35.3556 39.7529H35.9518C36.04 40.0178 35.9738 40.2387 35.753 40.4153C35.5543 40.2166 35.2231 40.1503 35.3556 39.7529Z" fill="white"/>
<path d="M36.9456 40.4815L36.6807 39.7529H37.4093C37.4755 40.1503 37.1443 40.2166 36.9456 40.4815Z" fill="white"/>
<path d="M50.1943 39.687H50.8566C50.9891 40.0182 50.9229 40.0182 50.4592 40.3494C50.393 40.1507 50.3268 39.9519 50.1943 39.687Z" fill="white"/>
<path d="M49.5331 39.7529L49.2682 40.4153C49.0695 40.1503 48.7383 40.0841 48.8045 39.7529H49.5331Z" fill="white"/>
<path d="M50.4569 21.0746C50.5894 21.5382 50.7882 21.9356 50.9206 22.333C50.9206 22.4655 50.9868 22.5317 51.1856 22.5317C51.583 22.5317 51.9803 22.5317 52.3778 22.5317C52.3778 22.5759 52.3778 22.598 52.3778 22.598C52.1128 22.7967 51.8479 22.9954 51.583 23.1941C51.318 23.3265 51.318 23.459 51.3842 23.724C51.4284 23.8123 51.4505 23.9006 51.4505 23.9889C51.4946 24.0772 51.5388 24.1656 51.583 24.2539C51.583 24.3421 51.583 24.4305 51.583 24.5188C51.6271 24.6071 51.6492 24.6955 51.6492 24.7838C51.296 24.563 50.9647 24.3201 50.6557 24.0552C50.5232 23.9889 50.3907 23.9889 50.2582 24.0552C50.2141 24.1435 50.1479 24.2097 50.0595 24.2539C49.9712 24.2981 49.8829 24.3642 49.7946 24.4526C49.7063 24.4967 49.618 24.5409 49.5297 24.585C49.4413 24.6292 49.3751 24.6955 49.3309 24.7838C49.3751 24.563 49.4192 24.3421 49.4634 24.1214C49.5297 23.8564 49.7283 23.5915 49.6621 23.3928C49.5959 23.1941 49.2647 23.1279 49.066 22.9954C48.8894 22.8629 48.7127 22.7525 48.5361 22.6642V22.5317C48.801 22.5317 49.0439 22.5317 49.2647 22.5317C49.9271 22.5317 49.9271 22.5318 50.1258 21.9356C50.2582 21.6706 50.3244 21.4057 50.4569 21.0746Z" fill="white"/>
<path d="M44.8956 23.1939C44.5423 23.4588 44.2111 23.7237 43.902 23.9887C43.7695 24.0549 43.7695 24.1211 43.8357 24.3199C43.9682 24.651 44.1007 25.0484 44.2332 25.5121L42.9747 24.651L41.7824 25.5121C41.9149 25.0484 42.0474 24.651 42.1799 24.2536C42.2461 24.1211 42.2461 23.9887 42.0474 23.9225C41.7383 23.6575 41.4292 23.4146 41.1201 23.1939C41.1201 23.1497 41.1422 23.1276 41.1863 23.1276C41.5396 23.0835 41.8928 23.0835 42.2461 23.1276C42.4448 23.1276 42.5773 23.0614 42.6435 22.7965C42.7098 22.4652 42.8422 22.1341 42.9747 21.7367C43.1072 22.1341 43.2397 22.4652 43.3721 22.7965C43.4383 23.0614 43.5046 23.1276 43.7695 23.1276C44.1228 23.0835 44.476 23.0835 44.8293 23.1276C44.8735 23.1276 44.8956 23.1497 44.8956 23.1939Z" fill="white"/>
<path d="M33.7002 22.5317C34.0976 22.5317 34.495 22.5317 34.8924 22.5317C35.0911 22.5317 35.1574 22.5317 35.1574 22.333C35.2898 21.9356 35.4223 21.5382 35.5548 21.0746C35.7535 21.5382 35.9522 21.8694 36.0184 22.2668C36.1509 22.4655 36.2171 22.5317 36.4159 22.5317C36.7691 22.5317 37.1223 22.5317 37.4756 22.5317V22.598C37.1444 22.7967 36.8795 23.0616 36.6145 23.1941C36.4159 23.3265 36.4159 23.459 36.482 23.6578C36.6145 23.9889 36.747 24.3863 36.8795 24.85C36.482 24.585 36.0846 24.3201 35.7535 24.0552C35.621 23.9889 35.5548 23.9889 35.3561 24.1214C35.3119 24.1656 35.2457 24.2097 35.1574 24.2539C35.069 24.3421 34.9807 24.4084 34.8924 24.4526C34.8483 24.4967 34.782 24.5409 34.6937 24.585C34.6054 24.6292 34.5171 24.6734 34.4287 24.7175C34.5171 24.3642 34.6275 23.9889 34.76 23.5915C34.8262 23.459 34.76 23.3265 34.6275 23.2603C34.3184 23.0396 34.0093 22.8408 33.7002 22.6642V22.5317Z" fill="white"/>
</g>
</g>
<defs>
<clipPath id="clip0_339_533">
<rect width="170" height="62.4676" fill="white" transform="translate(23.4189 11.4034)"/>
</clipPath>
<clipPath id="clip1_339_533">
<rect width="170" height="62.4676" fill="white" transform="translate(23.4189 11.4034)"/>
</clipPath>
</defs>
</svg>
