<svg width="295" height="136" viewBox="0 0 295 136" fill="none" xmlns="http://www.w3.org/2000/svg">
<path d="M90.829 28.4624H75.21V106.558H90.829V28.4624Z" fill="#2E73B8"/>
<path d="M75.2097 28.4624L64.3525 34.3672V100.843L75.2097 106.558V28.4624Z" fill="#215C99"/>
<path d="M91.0195 28.4624V106.558L101.877 100.843V34.3672L91.0195 28.4624Z" fill="#5294CF"/>
<path d="M112.733 39.3203L118.829 42.5584V92.4632L112.733 95.7013V39.3203Z" fill="#5294CF"/>
<path d="M112.734 95.7013L101.877 92.4632V42.5584L112.734 39.3203V95.7013Z" fill="#215C99"/>
<path d="M47.4004 42.5584V92.4632L53.4956 95.7013V39.3203L47.4004 42.5584Z" fill="#215C99"/>
<path d="M53.4961 39.3203L64.3532 42.5584V92.4632L53.4961 95.7013V39.3203Z" fill="#5294CF"/>
<path d="M199.331 49.0164V46.5402C199.331 46.1593 199.712 45.7783 200.093 45.7783H211.712C212.093 45.7783 212.474 45.9688 212.474 46.5402V48.6355C212.474 49.0164 212.093 49.5878 211.522 50.3498L205.617 58.9212C207.712 58.9212 210.188 59.3021 212.093 60.445C212.474 60.6355 212.665 61.2069 212.665 61.5878V64.2545C212.665 64.6355 212.284 65.0164 211.712 64.8259C208.093 62.9212 203.331 62.9212 199.522 64.8259C199.141 65.0164 198.569 64.6355 198.569 64.2545V61.7783C198.569 61.3974 198.569 60.6355 198.95 59.8736L205.807 49.9688H199.903C199.712 49.7783 199.331 49.3974 199.331 49.0164Z" fill="#211C1C"/>
<path d="M157.044 65.2075H153.615C153.234 65.2075 153.044 64.8265 153.044 64.636V46.5408C153.044 46.1599 153.425 45.7789 153.806 45.7789H157.044C157.425 45.7789 157.615 46.1599 157.806 46.3503V48.636C158.758 46.3503 160.282 45.3979 162.377 45.3979C164.473 45.3979 165.996 46.5408 166.949 48.636C167.901 46.3503 169.615 45.3979 171.901 45.3979C173.425 45.3979 174.949 45.9694 175.901 47.3027C177.044 48.8265 176.853 50.9218 176.853 53.017V64.4456C176.853 64.8265 176.473 65.2075 176.092 65.2075H172.663C172.282 65.2075 171.901 64.8265 171.901 64.4456V54.7313C171.901 53.9694 171.901 52.0646 171.711 51.3027C171.52 49.9694 170.568 49.5884 169.806 49.5884C169.044 49.5884 167.901 50.1599 167.711 51.1122C167.52 52.0646 167.33 53.3979 167.33 54.5408V64.2551C167.33 64.636 166.949 65.017 166.568 65.017H163.139C162.758 65.017 162.377 64.636 162.377 64.2551V54.5408C162.377 52.636 162.758 49.5884 160.282 49.5884C157.806 49.5884 157.996 52.4456 157.996 54.5408V64.2551C157.806 64.8265 157.425 65.2075 157.044 65.2075Z" fill="#211C1C"/>
<path d="M222.378 49.2075C219.902 49.2075 219.711 52.636 219.711 55.1122C219.711 57.2075 219.711 61.9694 222.378 61.9694C225.045 61.9694 225.235 58.1599 225.235 55.8741C225.235 54.3503 225.235 52.636 224.664 51.1122C224.283 49.5884 223.521 49.2075 222.378 49.2075ZM222.187 45.3979C227.521 45.3979 230.188 49.9694 230.188 55.4932C230.188 61.017 227.14 65.3979 222.187 65.3979C217.045 65.3979 214.188 60.8265 214.188 55.3027C214.378 49.9694 217.045 45.3979 222.187 45.3979Z" fill="#211C1C"/>
<path d="M237.045 65.2075H233.616C233.235 65.2075 232.854 64.8265 232.854 64.4456V46.3503C232.854 45.9694 233.235 45.7789 233.616 45.7789H236.854C237.235 45.7789 237.426 45.9694 237.426 46.3503V49.017C238.378 46.5408 239.712 45.3979 242.188 45.3979C243.902 45.3979 245.235 45.9694 246.378 47.4932C247.331 49.017 247.331 51.3027 247.331 53.2075V64.636C247.331 65.017 246.95 65.2075 246.569 65.2075H243.14C242.759 65.2075 242.569 65.017 242.569 64.636V54.7313C242.569 52.8265 242.759 49.7789 240.474 49.7789C239.521 49.7789 238.759 50.3503 238.378 51.3027C237.807 52.4456 237.807 53.398 237.807 54.7313V64.636C237.807 64.8265 237.426 65.2075 237.045 65.2075Z" fill="#211C1C"/>
<path d="M189.426 60.2551C188.855 61.2075 187.902 61.9694 187.141 61.9694C185.807 61.9694 185.045 60.8266 185.045 59.4932C185.045 56.4456 187.712 55.8742 190.379 55.8742V56.6361C190.188 57.9694 190.188 58.9218 189.426 60.2551ZM196.474 61.9694C195.712 61.017 195.141 60.2551 195.141 58.7313V53.2075C195.141 50.9218 195.331 48.6361 193.426 47.1123C192.093 45.7789 189.807 45.2075 188.093 45.2075C184.855 45.2075 181.045 46.5408 180.283 50.7313C180.283 51.1123 180.474 51.4932 180.855 51.4932L184.283 51.8742C184.664 51.8742 184.855 51.4932 184.855 51.1123C185.236 49.5885 186.379 49.017 187.712 49.017C188.474 49.017 189.426 49.2075 189.617 49.9694C190.188 50.7313 189.998 51.6837 189.998 52.4456V52.8266C187.902 53.017 185.236 53.2075 183.331 54.1599C181.236 55.1123 179.521 57.017 179.521 60.0647C179.521 63.6837 181.807 65.5885 184.855 65.5885C187.331 65.5885 188.664 65.017 190.76 63.1123C191.521 64.0647 191.712 64.6361 192.664 65.398C192.855 65.5885 193.236 65.5885 193.617 65.398C194.379 64.8266 195.521 63.4932 196.283 63.1123C196.664 62.7313 196.664 62.1599 196.474 61.9694Z" fill="#211C1C"/>
<path d="M143.331 60.2551C142.759 61.2075 141.807 61.9694 140.854 61.9694C139.521 61.9694 138.759 60.8266 138.759 59.4932C138.759 56.4456 141.426 55.8742 144.092 55.8742V56.6361C143.902 57.9694 144.092 58.9218 143.331 60.2551ZM148.854 58.7313V53.2075C148.854 50.9218 149.045 48.6361 147.14 47.1123C145.616 45.7789 143.521 45.2075 141.807 45.2075C138.569 45.2075 134.759 46.5408 133.997 50.7313C133.997 51.1123 134.188 51.4932 134.569 51.4932L137.997 51.8742C138.378 51.8742 138.569 51.4932 138.569 51.1123C138.95 49.5885 140.092 49.017 141.426 49.017C142.188 49.017 143.14 49.2075 143.521 49.9694C144.092 50.7313 143.902 51.6837 143.902 52.4456V52.8266C141.997 53.017 139.14 53.2075 137.235 54.1599C135.14 55.1123 133.426 57.017 133.426 60.0647C133.426 63.6837 135.711 65.5885 138.759 65.5885C141.235 65.5885 142.569 65.017 144.664 63.1123C145.426 64.0647 145.616 64.6361 146.759 65.398C146.95 65.5885 147.331 65.5885 147.711 65.398C148.473 64.8266 149.616 63.4932 150.378 63.1123C150.759 62.9218 150.569 62.5408 150.378 62.1599C149.426 61.017 148.854 60.2551 148.854 58.7313Z" fill="#211C1C"/>
<path d="M135.711 80.6358H137.807C140.092 80.6358 141.616 79.3025 141.616 77.3977C141.616 75.3025 139.902 74.3501 137.616 74.1596C136.473 74.1596 135.711 74.3501 135.521 74.3501L135.711 80.6358ZM133.426 72.8263C134.569 72.6358 136.092 72.4453 137.616 72.4453C139.902 72.4453 141.426 72.8263 142.569 73.9691C143.521 74.731 143.902 75.8739 143.902 77.2072C143.902 79.3025 142.378 81.0167 140.664 81.5882C141.997 82.1596 142.759 83.3025 143.14 85.0167C143.711 87.3025 144.092 89.0167 144.473 89.7786H142.188C141.807 89.2072 141.426 87.8739 141.045 85.5882C140.473 83.3025 139.521 82.3501 137.616 82.3501H135.521V89.7786H133.426V72.8263Z" fill="#211C1C"/>
<path d="M157.876 81.7962H151.21V87.8914H158.638V89.7962H148.924V72.6533H158.257V74.5581H151.21V79.8914H157.876V81.7962Z" fill="#211C1C"/>
<path d="M165.565 88.0995C166.136 88.29 167.089 88.29 167.66 88.29C172.422 88.29 174.898 85.6233 174.898 81.0519C174.898 77.0519 172.803 74.5757 168.041 74.5757C166.898 74.5757 166.136 74.7662 165.565 74.7662V88.0995ZM163.279 72.8614C164.613 72.6709 166.136 72.4805 168.041 72.4805C171.279 72.4805 173.565 73.2424 174.898 74.5757C176.422 76.0995 177.184 78.0043 177.184 80.6709C177.184 83.3376 176.232 85.8138 174.708 87.3376C172.994 89.0519 170.517 89.8138 167.089 89.8138C165.375 89.8138 164.232 89.8138 163.089 89.6233L163.279 72.8614Z" fill="#211C1C"/>
<path d="M181.565 87.1472C182.518 87.7186 183.851 88.29 185.565 88.29C187.661 88.29 189.185 86.9567 189.185 85.4329C189.185 83.9091 188.232 82.9567 185.946 82.0043C183.28 81.0519 181.375 79.7186 181.375 77.0519C181.375 74.3853 183.47 72.29 187.089 72.29C188.994 72.29 190.137 72.671 190.899 73.2424L190.327 75.1472C189.756 74.7662 188.613 74.3853 187.089 74.3853C184.804 74.3853 183.851 75.9091 183.851 76.8615C183.851 78.5758 184.994 79.1472 187.28 80.0996C190.137 81.2424 191.661 82.5758 191.661 85.2424C191.661 87.9091 189.756 90.1948 185.756 90.1948C184.042 90.1948 182.327 89.6234 181.375 89.0519L181.565 87.1472Z" fill="#211C1C"/>
<path d="M198.639 72.6533V79.8914H207.02V72.6533H209.115V89.7962H207.02V81.7962H198.639V89.7962H196.354V72.6533H198.639Z" fill="#211C1C"/>
<path d="M216.924 72.6533H214.829V89.7962H216.924V72.6533Z" fill="#211C1C"/>
<path d="M222.639 72.6533H231.782V74.5581H224.734V80.2724H231.21V82.1771H224.734V89.7962H222.639V72.6533Z" fill="#211C1C"/>
<path d="M234.829 72.6533V74.5581H239.972V89.7962H242.258V74.5581H247.401V72.6533H234.829Z" fill="#211C1C"/>
</svg>
