<svg width="295" height="136" viewBox="0 0 295 136" fill="none" xmlns="http://www.w3.org/2000/svg">
<g clip-path="url(#clip0_2197_359)">
<path d="M104.089 63.4557C102.676 62.5045 98.9641 62.0983 96.2657 62.8259C96.1209 60.1377 94.7335 57.872 92.1979 55.8951L91.2596 55.2653L90.634 56.2105C89.4044 58.0768 88.8859 60.5645 89.0693 62.8259C89.2141 64.2192 89.6983 65.7848 90.634 66.9211C87.1215 68.9588 83.8832 68.4961 69.5436 68.4961H47.4043C47.34 71.7344 47.8602 77.9624 51.8209 83.0328C52.2587 83.5932 52.7378 84.1348 53.2588 84.6567C56.4791 87.8812 61.3446 90.2463 68.6199 90.2523C79.7195 90.2626 89.2287 84.2625 95.0137 69.7566C96.9169 69.7875 101.942 70.0977 104.401 65.3461C104.461 65.2664 105.027 64.0864 105.027 64.0864L104.089 63.4566V63.4557ZM61.8528 60.4951H55.6273V66.7206H61.8528V60.4951ZM69.8949 60.4951H63.6694V66.7206H69.8949V60.4951ZM77.938 60.4951H71.7125V66.7206H77.938V60.4951ZM85.981 60.4951H79.7555V66.7206H85.981V60.4951ZM53.8098 60.4951H47.5843V66.7206H53.8098V60.4951ZM61.8528 52.632H55.6273V58.8575H61.8528V52.632ZM69.8949 52.632H63.6694V58.8575H69.8949V52.632ZM77.938 52.632H71.7125V58.8575H77.938V52.632ZM77.938 44.7681H71.7125V50.9936H77.938V44.7681Z" fill="#1D63ED"/>
<path d="M247.013 80.6985C247.013 82.3215 245.739 83.5958 244.081 83.5958C242.424 83.5958 241.132 82.3215 241.132 80.6985C241.132 79.0755 242.44 77.8364 244.081 77.8364C245.722 77.8364 247.013 79.1107 247.013 80.6985ZM241.865 80.6985C241.865 81.9728 242.808 82.9848 244.099 82.9848C245.391 82.9848 246.281 81.9728 246.281 80.7165C246.281 79.4603 245.356 78.4123 244.083 78.4123C242.811 78.4123 241.866 79.4423 241.866 80.6985H241.865ZM243.629 82.1998H242.966V79.3377C243.226 79.2855 243.594 79.2503 244.064 79.2503C244.606 79.2503 244.849 79.3377 245.059 79.4603C245.217 79.582 245.338 79.809 245.338 80.0884C245.338 80.4029 245.094 80.6471 244.746 80.7517V80.7868C245.024 80.8905 245.182 81.1004 245.269 81.4843C245.356 81.9205 245.408 82.0953 245.479 82.1998H244.763C244.676 82.0953 244.623 81.8339 244.536 81.5015C244.484 81.1878 244.309 81.0481 243.943 81.0481H243.629V82.2007V82.1998ZM243.645 80.5768H243.959C244.326 80.5768 244.622 80.4552 244.622 80.1587C244.622 79.8965 244.431 79.7208 244.011 79.7208C243.837 79.7208 243.715 79.7388 243.645 79.7576V80.5768Z" fill="#1D63ED"/>
<path d="M134.561 51.7329C134.151 51.3319 133.658 51.1279 133.068 51.1279C132.477 51.1279 131.97 51.3319 131.575 51.7329C131.179 52.1339 130.985 52.6481 130.985 53.2608V63.4924C128.954 61.8137 126.611 60.967 123.945 60.967C120.846 60.967 118.197 62.0862 116.001 64.3322C113.806 66.5704 112.716 69.2783 112.716 72.454C112.716 75.6297 113.814 78.3299 116.001 80.5759C118.197 82.8141 120.839 83.941 123.945 83.941C127.05 83.941 129.664 82.8218 131.888 80.5759C134.084 78.3599 135.174 75.6529 135.174 72.454V53.2608C135.174 52.6481 134.973 52.1339 134.561 51.7329ZM130.433 75.2219V75.2373C130.067 76.107 129.566 76.8706 128.932 77.521C128.298 78.1791 127.551 78.6932 126.7 79.0788C125.841 79.4644 124.93 79.6538 123.953 79.6538C122.975 79.6538 122.042 79.4644 121.183 79.0788C120.324 78.6932 119.585 78.1791 118.958 77.5287C118.331 76.8783 117.832 76.1148 117.466 75.245C117.1 74.3675 116.913 73.4377 116.913 72.454C116.913 71.4703 117.1 70.5405 117.466 69.663C117.832 68.7855 118.332 68.0297 118.958 67.3794C119.586 66.729 120.332 66.2148 121.183 65.8292C122.042 65.4436 122.96 65.2542 123.953 65.2542C124.945 65.2542 125.841 65.4436 126.7 65.8292C127.558 66.2148 128.298 66.7289 128.932 67.3871C129.566 68.0452 130.067 68.8087 130.433 69.6707C130.798 70.5405 130.985 71.4634 130.985 72.4463C130.985 73.4292 130.798 74.3598 130.433 75.2219Z" fill="#1D63ED"/>
<path d="M227.332 68.0454C226.787 66.6838 225.957 65.4515 224.868 64.3469L224.853 64.3392C222.636 62.101 219.984 60.9741 216.91 60.9741C213.835 60.9741 211.161 62.0933 208.965 64.3392C206.77 66.5775 205.681 69.2854 205.681 72.4611C205.681 75.6368 206.778 78.337 208.965 80.5829C211.161 82.8212 213.804 83.948 216.91 83.948C219.731 83.948 222.172 83.0183 224.248 81.1579C224.65 80.7346 224.853 80.2205 224.853 79.6223C224.853 79.0242 224.66 78.4955 224.263 78.0945C223.868 77.6934 223.367 77.4895 222.77 77.4895C222.248 77.5049 221.785 77.6788 221.39 78.0268C220.762 78.5709 220.083 78.9874 219.344 79.2599C218.605 79.5324 217.798 79.6686 216.918 79.6686C216.141 79.6686 215.395 79.5478 214.686 79.2984C213.976 79.0491 213.312 78.708 212.722 78.2624C212.124 77.816 211.61 77.2872 211.169 76.6591C210.729 76.0387 210.393 75.3506 210.169 74.5948H226.05C226.638 74.5948 227.131 74.3909 227.542 73.9898C227.954 73.5888 228.155 73.0746 228.155 72.4619C228.155 70.8741 227.877 69.3993 227.334 68.0454H227.332ZM210.153 70.3291C210.37 69.5801 210.698 68.892 211.138 68.2648C211.58 67.6444 212.102 67.1079 212.699 66.6615C213.304 66.215 213.96 65.8748 214.684 65.6255C215.408 65.3761 216.146 65.2553 216.91 65.2553C217.673 65.2553 218.41 65.3761 219.126 65.6255C219.843 65.8748 220.501 66.215 221.09 66.6615C221.688 67.1079 222.21 67.6366 222.65 68.2648C223.097 68.8852 223.435 69.5733 223.666 70.3291H210.152H210.153Z" fill="#1D63ED"/>
<path d="M246.848 62.4113C246.474 62.0411 246.003 61.7532 245.436 61.5415C244.869 61.3298 244.249 61.1859 243.57 61.1028C242.898 61.0196 242.263 60.9819 241.674 60.9819C240.337 60.9819 239.083 61.2013 237.904 61.64C236.724 62.0788 235.634 62.706 234.633 63.5227V63.1148C234.633 62.5252 234.432 62.0257 234.02 61.6101C233.611 61.1944 233.125 60.9828 232.551 60.9828C231.977 60.9828 231.468 61.1944 231.058 61.6101C230.647 62.0257 230.445 62.533 230.445 63.1148V81.817C230.445 82.4066 230.647 82.9061 231.058 83.3217C231.468 83.7373 231.96 83.949 232.551 83.949C233.141 83.949 233.618 83.7373 234.02 83.3217C234.432 82.9061 234.633 82.3988 234.633 81.817V72.462C234.633 71.4637 234.82 70.5263 235.186 69.6488C235.552 68.7713 236.052 68.0155 236.686 67.3651C237.322 66.7147 238.068 66.2006 238.918 65.8295C239.777 65.4516 240.689 65.2622 241.667 65.2622C242.646 65.2622 243.57 65.4362 244.415 65.7764C244.75 65.9281 245.042 66.0035 245.296 66.0035C245.587 66.0035 245.863 65.9503 246.117 65.8372C246.37 65.7241 246.595 65.5724 246.782 65.3762C246.968 65.18 247.117 64.9529 247.229 64.6881C247.341 64.431 247.401 64.1508 247.401 63.8483C247.401 63.2588 247.214 62.7823 246.842 62.4113H246.848H246.848Z" fill="#1D63ED"/>
<path d="M159.183 68.0532C158.638 66.6993 157.824 65.4593 156.727 64.3402C154.511 62.1019 151.86 60.9751 148.784 60.9751C145.708 60.9751 143.036 62.0942 140.84 64.3402C138.645 66.5785 137.556 69.2863 137.556 72.4621C137.556 75.6378 138.653 78.3379 140.84 80.5839C143.036 82.8222 145.678 83.949 148.784 83.949C151.889 83.949 154.503 82.8299 156.727 80.5839C158.923 78.3679 160.013 75.6609 160.013 72.4621C159.997 70.8742 159.722 69.4072 159.184 68.0532H159.183ZM155.272 75.2222V75.2376C154.906 76.1074 154.405 76.8709 153.771 77.5213C153.137 78.1794 152.39 78.6936 151.539 79.0792C150.688 79.4648 149.769 79.6542 148.792 79.6542C147.814 79.6542 146.881 79.4648 146.022 79.0792C145.163 78.6936 144.424 78.1794 143.797 77.529C143.17 76.8786 142.671 76.1151 142.305 75.2453C141.939 74.3678 141.752 73.4381 141.752 72.4543C141.752 71.4706 141.939 70.5409 142.305 69.6634C142.671 68.7859 143.171 68.0301 143.797 67.3797C144.425 66.7293 145.171 66.2151 146.022 65.8295C146.881 65.4439 147.799 65.2545 148.792 65.2545C149.784 65.2545 150.68 65.4439 151.539 65.8295C152.397 66.2151 153.137 66.7293 153.771 67.3874C154.405 68.0455 154.906 68.809 155.272 69.6711C155.637 70.5409 155.824 71.4638 155.824 72.4466C155.824 73.4295 155.637 74.3601 155.272 75.2222Z" fill="#1D63ED"/>
<path d="M204.097 63.1068C204.097 62.8197 204.037 62.5472 203.925 62.2901C203.813 62.0331 203.664 61.7991 203.477 61.602C203.29 61.4058 203.067 61.2464 202.813 61.141C202.559 61.0356 202.283 60.9748 201.992 60.9748C201.574 60.9748 201.2 61.081 200.872 61.3004L188.882 69.2792V53.2762C188.882 52.6713 188.681 52.1648 188.27 51.7484C187.86 51.3328 187.375 51.1211 186.8 51.1211C186.225 51.1211 185.717 51.3328 185.306 51.7484C184.896 52.164 184.694 52.6713 184.694 53.2762V81.7867C184.694 82.3763 184.896 82.8836 185.306 83.3069C185.717 83.7302 186.209 83.9418 186.8 83.9418C187.39 83.9418 187.868 83.7302 188.27 83.3069C188.681 82.8836 188.882 82.3763 188.882 81.7867V74.3829L191.331 72.742L200.596 83.3823C200.97 83.7525 201.44 83.9341 202 83.9341C202.291 83.9341 202.567 83.881 202.821 83.7679C203.074 83.6616 203.299 83.5031 203.485 83.3069C203.672 83.1106 203.821 82.8836 203.933 82.6188C204.045 82.3617 204.104 82.0815 204.104 81.8021C204.104 81.2426 203.911 80.743 203.522 80.3051L194.899 70.376L203.297 64.7949C203.834 64.4247 204.096 63.8574 204.096 63.0931V63.1085L204.097 63.1068Z" fill="#1D63ED"/>
<path d="M168.598 67.3649C169.24 66.7145 169.988 66.2003 170.846 65.8293C171.705 65.4514 172.616 65.262 173.593 65.262C174.474 65.262 175.288 65.4137 176.042 65.7153C176.789 66.0178 177.506 66.4642 178.185 67.0461C178.588 67.3709 179.043 67.5371 179.551 67.5371C180.156 67.5371 180.648 67.3332 181.044 66.9244C181.44 66.5157 181.634 66.0015 181.634 65.3888C181.634 64.7761 181.395 64.2088 180.91 63.771C178.849 61.9106 176.408 60.98 173.593 60.98C170.495 60.98 167.845 62.0991 165.65 64.3451C163.454 66.5834 162.365 69.2912 162.365 72.4669C162.365 75.6427 163.463 78.3428 165.65 80.5888C167.845 82.8271 170.488 83.9539 173.593 83.9539C176.401 83.9539 178.842 83.0242 180.91 81.1629C181.35 80.7096 181.575 80.1878 181.575 79.5828C181.575 78.9778 181.38 78.4559 180.985 78.0549C180.589 77.6539 180.09 77.4499 179.492 77.4499C178.985 77.4653 178.544 77.6162 178.171 77.9032C177.499 78.4928 176.797 78.9315 176.043 79.2263C175.297 79.5211 174.483 79.665 173.594 79.665C172.617 79.665 171.706 79.4757 170.847 79.0978C169.988 78.7199 169.242 78.2057 168.599 77.563C167.957 76.9203 167.449 76.1491 167.083 75.2793C166.718 74.4019 166.531 73.4644 166.531 72.4661C166.531 71.4678 166.718 70.5303 167.083 69.6528C167.449 68.7753 167.957 68.0195 168.599 67.3691V67.3614L168.598 67.3649Z" fill="#1D63ED"/>
</g>
<defs>
<clipPath id="clip0_2197_359">
<rect width="200" height="45.4843" fill="white" transform="translate(47.3994 44.7681)"/>
</clipPath>
</defs>
</svg>
