<svg width="295" height="136" viewBox="0 0 295 136" fill="none" xmlns="http://www.w3.org/2000/svg">
<path d="M67.2676 85.753L67.5867 85.306L82.6813 56.6646L82.7132 56.3614L76.0594 43.8627C75.5016 42.8158 73.9321 43.0804 73.7493 44.2524L67.2676 85.753Z" fill="#FFC24A"/>
<path d="M67.4561 85.4118L67.6973 84.9412L82.6323 56.5999L75.9966 44.0504C75.4449 43.0142 74.0442 43.2784 73.8618 44.4383L67.4561 85.4118Z" fill="#FFA712"/>
<path d="M67.4561 85.4118L67.6973 84.9412L82.6323 56.5999L75.9966 44.0504C75.4449 43.0142 74.0442 43.2784 73.8618 44.4383L67.4561 85.4118Z" fill="black"/>
<path d="M87.5638 65.8157L92.5182 60.7418L87.5625 51.281C87.0919 50.3855 85.7784 50.3829 85.3129 51.281L82.665 56.3324V56.7624L87.5638 65.8157Z" fill="#F4BD62"/>
<path d="M87.4763 65.6041L92.2928 60.6712L87.4763 51.4995C87.019 50.6276 85.9078 50.5377 85.4553 51.4093L82.7935 56.5359L82.7139 56.7981L87.4763 65.6041Z" fill="#FFA50E"/>
<path d="M87.4763 65.6041L92.2928 60.6712L87.4763 51.4995C87.019 50.6276 85.9078 50.5377 85.4553 51.4093L82.7935 56.5359L82.7139 56.7981L87.4763 65.6041Z" fill="black"/>
<path d="M82.6792 56.3027L67.2676 85.753L67.4122 85.6074L67.9378 85.3939L87.253 66.1506L87.4974 65.4846L82.6792 56.3027Z" fill="#F6820C"/>
<path d="M88.1826 95.4575L105.663 85.7084L100.673 54.9639C100.516 54.002 99.3365 53.6216 98.6481 54.3114L67.2676 85.7529L84.6479 95.4569C85.1881 95.7585 85.7965 95.9168 86.4152 95.917C87.034 95.9171 87.6424 95.759 88.1828 95.4576" fill="#FDE068"/>
<path d="M105.507 85.6273L100.553 55.1174C100.398 54.1627 99.4161 53.7678 98.733 54.4523L67.4629 85.6935L84.6523 95.3001C85.7422 95.9087 87.0697 95.909 88.1603 95.301L105.507 85.6273Z" fill="#FCCA3F"/>
<path d="M88.1826 95.171C87.0852 95.7838 85.7461 95.7835 84.6477 95.1701L67.4074 85.6058L67.2676 85.7535L84.6479 95.4576C85.7463 96.071 87.084 96.071 88.1828 95.4583L105.663 85.7092L105.621 85.4458L88.1826 95.171Z" fill="#EEAB37"/>
<path d="M118.9 81.2388H115.925V58.0855H129.425V60.9305H118.9V68.5305H128.408V71.3138H118.9V81.2388ZM134.655 61.4155C134.245 61.8255 133.75 62.0322 133.168 62.0322C132.891 62.0369 132.616 61.9847 132.361 61.8786C132.105 61.7725 131.874 61.6148 131.681 61.4155C131.483 61.2227 131.326 60.9914 131.22 60.7358C131.114 60.4801 131.061 60.2056 131.065 59.9288C131.06 59.652 131.112 59.3771 131.218 59.1213C131.324 58.8655 131.482 58.6344 131.681 58.4422C131.874 58.2436 132.106 58.0865 132.361 57.9805C132.617 57.8744 132.891 57.8217 133.168 57.8255C133.445 57.8207 133.72 57.873 133.976 57.9791C134.231 58.0852 134.463 58.2428 134.655 58.4422C134.853 58.635 135.01 58.8663 135.116 59.1219C135.223 59.3775 135.275 59.6521 135.271 59.9288C135.276 60.2057 135.224 60.4806 135.118 60.7363C135.012 60.9921 134.854 61.2233 134.655 61.4155ZM134.655 81.2388H131.68V65.3938H134.655V81.2388ZM141.076 81.2388H138.1V65.3938H140.945V67.9805H141.073C141.373 67.1188 141.995 66.4072 142.933 65.8472C143.871 65.2872 144.766 65.0055 145.666 65.0055C146.566 65.0055 147.295 65.1355 147.9 65.3938L146.766 68.1772C146.378 68.0105 145.85 67.9505 145.183 67.9505C144.105 67.9505 143.15 68.3755 142.321 69.2272C141.493 70.0788 141.076 71.1938 141.076 72.5738V81.2388ZM155.723 81.7388C153.33 81.7388 151.385 80.9422 149.886 79.3455C148.388 77.7488 147.636 75.7355 147.636 73.2988C147.636 70.9922 148.363 69.0088 149.803 67.3488C151.243 65.6888 153.136 64.8588 155.381 64.8588C157.715 64.8588 159.611 65.6255 161.025 67.1555C162.438 68.6855 163.141 70.7338 163.141 73.3005L163.108 73.8505H150.608C150.695 75.4455 151.228 76.7072 152.208 77.6338C152.663 78.0805 153.201 78.4332 153.792 78.6717C154.383 78.9102 155.016 79.0299 155.653 79.0238C157.786 79.0238 159.231 78.1188 159.986 76.3072L162.653 77.4072C162.153 78.6355 161.283 79.6655 160.098 80.4955C158.913 81.3255 157.456 81.7405 155.731 81.7405L155.723 81.7388ZM159.99 71.4055C159.923 70.5005 159.51 69.6388 158.745 68.8188C157.98 67.9988 156.841 67.5905 155.333 67.5905C154.233 67.5905 153.28 67.9355 152.471 68.6238C151.663 69.3122 151.108 70.2405 150.805 71.4072H159.971L159.99 71.4055ZM173.928 81.7388C172.72 81.7388 171.636 81.4805 170.678 80.9622C169.72 80.4438 169.001 79.7988 168.511 79.0222H168.4V81.2222H165.555V58.0855H168.53V65.3938L168.4 67.5938H168.53C169.005 66.8172 169.721 66.1705 170.696 65.6538C171.671 65.1372 172.74 64.8772 173.946 64.8772C175.996 64.8772 177.78 65.6855 179.25 67.3022C180.72 68.9188 181.483 70.9238 181.483 73.3022C181.483 75.6805 180.74 77.7022 179.25 79.3022C177.76 80.9022 175.995 81.7272 173.946 81.7272L173.928 81.7388ZM173.428 79.0222C174.808 79.0222 175.995 78.4988 176.985 77.4555C177.975 76.4122 178.471 75.0255 178.471 73.3005C178.471 71.5755 177.975 70.1905 176.985 69.1455C175.995 68.1005 174.806 67.5788 173.428 67.5788C172.756 67.5657 172.089 67.6973 171.473 67.9647C170.856 68.2322 170.304 68.6292 169.855 69.1288C168.875 70.1788 168.383 71.5538 168.383 73.3005C168.383 75.0472 168.873 76.4372 169.855 77.4722C170.836 78.5072 172.026 79.0255 173.428 79.0255V79.0222ZM189.283 81.7388C187.616 81.7388 186.195 81.2388 185.063 80.2838C183.931 79.3288 183.363 78.0305 183.363 76.4505C183.363 74.7255 184.03 73.3738 185.368 72.3922C186.706 71.4105 188.355 70.9205 190.318 70.9205C192.065 70.9205 193.498 71.2438 194.618 71.8905V71.4372C194.618 70.2705 194.218 69.3405 193.421 68.6405C192.625 67.9405 191.643 67.5905 190.478 67.5905C189.615 67.5905 188.833 67.7955 188.133 68.2072C187.467 68.5765 186.956 69.1735 186.695 69.8888L183.978 68.7255C184.345 67.7755 185.066 66.8988 186.145 66.0922C187.223 65.2855 188.645 64.8788 190.411 64.8788C192.438 64.8788 194.12 65.4722 195.456 66.6572C196.793 67.8422 197.461 69.5138 197.461 71.6688V81.2405H194.633V79.0405H194.503C193.316 80.8505 191.581 81.7572 189.296 81.7572L189.283 81.7388ZM189.783 79.0222C191.011 79.0222 192.128 78.5638 193.13 77.6472C194.131 76.7305 194.633 75.6472 194.633 74.3972C193.793 73.7072 192.533 73.3638 190.85 73.3638C189.405 73.3638 188.316 73.6772 187.583 74.3022C186.85 74.9272 186.483 75.6605 186.483 76.5022C186.483 77.2788 186.816 77.8922 187.486 78.3455C188.156 78.7988 188.92 79.0255 189.783 79.0255V79.0222ZM206.116 81.7388C204.35 81.7388 202.888 81.3055 201.733 80.4455C200.608 79.6195 199.73 78.5013 199.195 77.2122L201.861 76.1122C202.701 78.1122 204.136 79.0872 206.161 79.0872C207.088 79.0872 207.848 78.8822 208.441 78.4705C209.035 78.0588 209.331 77.5205 209.331 76.8538C209.331 75.8205 208.61 75.1205 207.165 74.7538L203.965 73.9772C202.951 73.7188 201.991 73.2272 201.086 72.5055C200.181 71.7838 199.733 70.8438 199.733 69.5972C199.733 68.1972 200.353 67.0588 201.593 66.1855C202.833 65.3122 204.305 64.8755 206.01 64.8755C207.41 64.8755 208.676 65.2088 209.76 65.8288C210.843 66.4488 211.646 67.3755 212.121 68.5622L209.535 69.6288C208.951 68.2288 207.745 67.5288 205.913 67.5288C205.03 67.5288 204.285 67.6955 203.68 68.0788C203.075 68.4622 202.775 68.9405 202.775 69.5655C202.775 70.4705 203.475 71.0855 204.875 71.4088L208.011 72.1522C209.498 72.4972 210.598 73.0905 211.311 73.9305C212.025 74.7705 212.378 75.7205 212.378 76.7755C212.378 78.1988 211.795 79.3838 210.631 80.3322C209.468 81.2805 207.968 81.7555 206.136 81.7555L206.116 81.7388ZM221.961 81.7388C219.568 81.7388 217.621 80.9422 216.125 79.3455C214.628 77.7488 213.875 75.7355 213.875 73.2988C213.875 70.9922 214.601 69.0088 216.041 67.3488C217.481 65.6888 219.375 64.8588 221.62 64.8588C223.953 64.8588 225.85 65.6255 227.263 67.1555C228.676 68.6855 229.38 70.7338 229.38 73.3005V73.8505H216.88C216.963 75.4455 217.5 76.7072 218.48 77.6338C218.934 78.0803 219.472 78.4329 220.063 78.6714C220.654 78.9099 221.286 79.0297 221.923 79.0238C224.056 79.0238 225.501 78.1188 226.256 76.3072L228.923 77.4072C228.423 78.6355 227.553 79.6655 226.368 80.4955C225.183 81.3255 223.726 81.7405 222.001 81.7405L221.961 81.7388ZM226.228 71.4055C226.161 70.5005 225.748 69.6388 224.983 68.8188C224.218 67.9988 223.08 67.5905 221.571 67.5905C220.523 67.572 219.504 67.9405 218.71 68.6255C217.901 69.3155 217.346 70.2422 217.043 71.4088H226.21L226.228 71.4055Z" fill="#63666A"/>
</svg>
