<svg width="295" height="136" viewBox="0 0 295 136" fill="none" xmlns="http://www.w3.org/2000/svg">
<g clip-path="url(#clip0_2197_379)">
<mask id="mask0_2197_379" style="mask-type:luminance" maskUnits="userSpaceOnUse" x="89" y="-97" width="187" height="241">
<path d="M275.262 -96.2241H89.9727V143.565H275.262V-96.2241Z" fill="white"/>
</mask>
<g mask="url(#mask0_2197_379)">
<path d="M150.438 67.9246C150.204 73.9489 145.452 78.6415 139.546 78.6415C133.314 78.6415 128.681 73.5958 128.681 67.5119C128.681 61.3685 133.697 56.3228 139.81 56.3228C142.571 56.3228 145.273 57.5097 147.558 59.6455L145.775 61.8408C144.022 60.3262 141.916 59.2881 139.81 59.2881C135.326 59.2881 131.646 62.9682 131.646 67.5119C131.646 72.111 135.118 75.6762 139.542 75.6762C143.52 75.6762 146.639 72.7662 147.26 69.0265H138.24V66.3845H150.442V67.9246H150.438Z" fill="#414042"/>
</g>
<mask id="mask1_2197_379" style="mask-type:luminance" maskUnits="userSpaceOnUse" x="89" y="-97" width="187" height="241">
<path d="M275.262 -96.2241H89.9727V143.565H275.262V-96.2241Z" fill="white"/>
</mask>
<g mask="url(#mask1_2197_379)">
<path d="M160.797 66.4695H159.133C157.295 66.4695 155.81 67.9585 155.81 69.7922V78.4585H152.841V63.6147H155.274V64.8613C156.074 64.0615 157.351 63.6147 158.776 63.6147H161.979L160.797 66.4695Z" fill="#414042"/>
</g>
<mask id="mask2_2197_379" style="mask-type:luminance" maskUnits="userSpaceOnUse" x="89" y="-97" width="187" height="241">
<path d="M275.262 -96.2241H89.9727V143.565H275.262V-96.2241Z" fill="white"/>
</mask>
<g mask="url(#mask2_2197_379)">
<path d="M176.972 78.4632H174.449V76.5912C172.496 78.4972 169.42 79.4119 166.302 78.042C163.992 77.0252 162.273 74.9193 161.813 72.4347C160.928 67.6357 164.621 63.377 169.339 63.377C171.326 63.377 173.109 64.1768 174.415 65.4829V63.6109H176.968V78.4632H176.972ZM173.934 72.1071C174.636 69.0907 172.352 66.3508 169.373 66.3508C166.791 66.3508 164.715 68.4568 164.715 71.0094C164.715 73.8982 167.255 76.1318 170.207 75.6297C172.024 75.3192 173.517 73.9067 173.934 72.1071Z" fill="#414042"/>
</g>
<mask id="mask3_2197_379" style="mask-type:luminance" maskUnits="userSpaceOnUse" x="89" y="-97" width="187" height="241">
<path d="M275.262 -96.2241H89.9727V143.565H275.262V-96.2241Z" fill="white"/>
</mask>
<g mask="url(#mask3_2197_379)">
<path d="M182.953 62.7899V63.6195H187.672V66.2317H182.953V78.4633H180.014V62.8792C180.014 59.6118 182.358 57.6846 185.298 57.6846H188.859L187.672 60.4755H185.302C183.996 60.4755 182.953 61.5136 182.953 62.7899Z" fill="#414042"/>
</g>
<mask id="mask4_2197_379" style="mask-type:luminance" maskUnits="userSpaceOnUse" x="89" y="-97" width="187" height="241">
<path d="M275.262 -96.2241H89.9727V143.565H275.262V-96.2241Z" fill="white"/>
</mask>
<g mask="url(#mask4_2197_379)">
<path d="M203.405 78.4632H200.882V76.5912C198.929 78.4972 195.853 79.4119 192.734 78.042C190.424 77.0252 188.705 74.9193 188.246 72.4347C187.361 67.6357 191.054 63.377 195.772 63.377C197.759 63.377 199.541 64.1768 200.848 65.4829V63.6109H203.4V78.4632H203.405ZM200.371 72.1071C201.073 69.0907 198.788 66.3508 195.81 66.3508C193.228 66.3508 191.152 68.4568 191.152 71.0094C191.152 73.8982 193.692 76.1318 196.644 75.6297C198.457 75.3192 199.954 73.9067 200.371 72.1071Z" fill="#414042"/>
</g>
<mask id="mask5_2197_379" style="mask-type:luminance" maskUnits="userSpaceOnUse" x="89" y="-97" width="187" height="241">
<path d="M275.262 -96.2241H89.9727V143.565H275.262V-96.2241Z" fill="white"/>
</mask>
<g mask="url(#mask5_2197_379)">
<path d="M219.26 69.6735V78.4589H216.29V69.6735C216.29 67.8314 214.776 66.3508 212.968 66.3508C211.096 66.3508 209.615 67.8356 209.615 69.6735V78.4589H206.646V63.6152H209.109V64.8915C210.177 63.9428 211.602 63.377 213.087 63.377C216.529 63.3812 219.26 66.2019 219.26 69.6735Z" fill="#414042"/>
</g>
<mask id="mask6_2197_379" style="mask-type:luminance" maskUnits="userSpaceOnUse" x="89" y="-97" width="187" height="241">
<path d="M275.262 -96.2241H89.9727V143.565H275.262V-96.2241Z" fill="white"/>
</mask>
<g mask="url(#mask6_2197_379)">
<path d="M236.716 78.4632H234.193V76.5912C232.24 78.4972 229.164 79.4119 226.046 78.042C223.736 77.0252 222.017 74.9193 221.557 72.4347C220.673 67.6357 224.365 63.377 229.084 63.377C231.07 63.377 232.853 64.1768 234.159 65.4829V63.6109H236.712V78.4632H236.716ZM233.678 72.1071C234.38 69.0907 232.096 66.3508 229.118 66.3508C226.535 66.3508 224.459 68.4568 224.459 71.0094C224.459 73.8982 226.999 76.1318 229.951 75.6297C231.764 75.3192 233.261 73.9067 233.678 72.1071Z" fill="#414042"/>
</g>
<mask id="mask7_2197_379" style="mask-type:luminance" maskUnits="userSpaceOnUse" x="58" y="35" width="60" height="65">
<path d="M84.3411 42.8039C84.3411 42.8039 84.3186 42.8972 84.2897 43.0547C84.0229 43.1318 83.756 43.2058 83.4892 43.2926C83.1195 43.4051 82.7563 43.5401 82.3866 43.6719C82.0233 43.8133 81.6536 43.9548 81.2936 44.1155C80.567 44.4274 79.8469 44.7778 79.1429 45.1732C78.4614 45.5557 77.7895 45.9769 77.1369 46.4333C77.0437 46.3883 76.9698 46.3562 76.9698 46.3562C70.3057 43.8101 64.3874 46.8738 64.3874 46.8738C63.8473 53.9622 67.0491 58.4307 67.6824 59.2408C67.5249 59.678 67.377 60.1216 67.242 60.5685C66.7502 62.1758 66.3805 63.825 66.1522 65.5288C66.1201 65.7731 66.0912 66.0206 66.0622 66.2682C59.906 69.3093 58.0801 75.5426 58.0801 75.5426C63.2204 81.4545 69.2127 81.821 69.2127 81.821C69.2191 81.8178 69.2223 81.8113 69.2287 81.8081C69.9906 83.1679 70.8714 84.4635 71.8648 85.669C72.2795 86.1737 72.7167 86.6623 73.17 87.1349C71.2958 92.4938 73.4336 96.9527 73.4336 96.9527C79.1558 97.168 82.9138 94.4484 83.7046 93.8215C84.2736 94.0144 84.8523 94.1848 85.4341 94.3359C87.1926 94.7891 88.9928 95.056 90.7931 95.1331C91.2431 95.1524 91.6932 95.1621 92.14 95.1588H92.3586L92.5001 95.1556L92.783 95.146L93.0626 95.1331L93.0691 95.1428C95.763 98.9876 100.505 99.5309 100.505 99.5309C103.877 95.9754 104.07 92.4488 104.07 91.6869C104.07 91.6869 104.07 91.6612 104.07 91.6355C104.07 91.5712 104.067 91.5294 104.067 91.5294C104.063 91.4748 104.063 91.4233 104.057 91.3655C104.764 90.8704 105.439 90.3368 106.079 89.7645C107.429 88.5429 108.609 87.1542 109.586 85.6529C109.68 85.5115 109.77 85.37 109.856 85.2254C113.672 85.444 116.363 82.8625 116.363 82.8625C115.73 78.8859 113.463 76.9475 112.991 76.581C112.991 76.581 112.971 76.5649 112.942 76.5456C112.917 76.5263 112.897 76.5135 112.897 76.5135C112.875 76.4974 112.846 76.4781 112.814 76.4588C112.836 76.2177 112.859 75.9798 112.872 75.7419C112.901 75.3144 112.91 74.8836 112.914 74.4593L112.91 74.141L112.907 73.9803V73.8999C112.907 73.7906 112.904 73.8324 112.904 73.7906L112.891 73.5238L112.872 73.1637C112.865 73.0384 112.856 72.9323 112.846 72.8198C112.836 72.7105 112.827 72.5979 112.814 72.4886L112.775 72.1575L112.73 71.8296C112.666 71.3924 112.582 70.9584 112.483 70.5309C112.084 68.8174 111.415 67.1908 110.531 65.7281C109.647 64.2654 108.548 62.9699 107.31 61.8801C106.073 60.7871 104.684 59.9094 103.228 59.2536C101.771 58.5978 100.241 58.1767 98.7173 57.9838C97.9555 57.8842 97.1968 57.8456 96.4445 57.8552L96.1649 57.8617L96.0941 57.8649C96.0748 57.8649 95.988 57.8681 95.9977 57.8681L95.882 57.8745L95.6023 57.8938C95.4962 57.9002 95.3869 57.9099 95.2937 57.9195C94.9079 57.9581 94.5253 58.0095 94.146 58.0803C92.6351 58.3632 91.2078 58.9097 89.9508 59.6619C88.6938 60.4142 87.6008 61.3561 86.7104 62.4234C85.8231 63.4874 85.1319 64.6672 84.6562 65.8888C84.1804 67.1104 83.9136 68.3706 83.8396 69.5954C83.8203 69.9008 83.8139 70.2062 83.8203 70.5084C83.8203 70.5823 83.8235 70.6595 83.8268 70.7334L83.8364 70.9777C83.8461 71.1256 83.8589 71.2703 83.8718 71.4149C83.9328 72.0354 84.0454 72.6301 84.2125 73.2055C84.5436 74.3532 85.0773 75.3915 85.7331 76.2724C86.3889 77.1564 87.1733 77.8862 88.0059 78.4552C88.8385 79.0242 89.729 79.4324 90.6098 79.6928C91.4939 79.9532 92.3715 80.0657 93.1977 80.0625C93.3005 80.0625 93.4034 80.0593 93.5063 80.0561C93.5609 80.0561 93.6156 80.0497 93.6702 80.0497C93.7249 80.0464 93.7795 80.0432 93.8342 80.04C93.921 80.0304 94.011 80.0239 94.0978 80.0143C94.1171 80.0143 94.146 80.0079 94.1717 80.0047L94.2521 79.995C94.3067 79.9886 94.3582 79.9789 94.4128 79.9725C94.5221 79.9597 94.6154 79.9371 94.7118 79.9211C94.8082 79.9018 94.9047 79.8825 95.0011 79.8568C95.1908 79.815 95.374 79.7571 95.5573 79.7025C95.9173 79.5835 96.2549 79.4389 96.5699 79.2781C96.885 79.1174 97.1743 78.9342 97.4443 78.7445C97.5215 78.6898 97.5954 78.632 97.6693 78.5741C97.9587 78.3491 98.0037 77.9247 97.7722 77.6418C97.5697 77.3943 97.2225 77.33 96.946 77.4843C96.8785 77.5229 96.8078 77.5583 96.7371 77.5936C96.496 77.7093 96.2452 77.8186 95.9784 77.9054C95.7116 77.989 95.4351 78.0597 95.1458 78.1112C95.0011 78.1305 94.8565 78.153 94.7086 78.1658C94.6346 78.1755 94.5607 78.1787 94.4836 78.1787C94.4096 78.1819 94.3293 78.1883 94.2617 78.1851C94.191 78.1851 94.1203 78.1819 94.0464 78.1819C93.9563 78.1787 93.8663 78.1723 93.7763 78.169C93.7763 78.169 93.7313 78.169 93.7667 78.1658L93.7377 78.1626L93.6767 78.1562C93.6349 78.153 93.5963 78.1498 93.5545 78.1433C93.4741 78.1337 93.3938 78.124 93.3134 78.1112C92.6672 78.0212 92.0114 77.8315 91.3814 77.5454C90.7481 77.2593 90.1437 76.8671 89.5972 76.3752C89.0507 75.8866 88.5749 75.2951 88.202 74.6264C87.8291 73.961 87.5687 73.2184 87.4465 72.4404C87.3855 72.0514 87.3597 71.6496 87.3694 71.2574C87.3758 71.1481 87.379 71.042 87.3855 70.9327C87.3855 70.9617 87.3887 70.9166 87.3887 70.9134L87.3919 70.8749L87.3983 70.7945C87.4015 70.7398 87.408 70.6884 87.4144 70.6338C87.4369 70.4216 87.469 70.2062 87.5076 69.9972C87.8066 68.3031 88.6553 66.6507 89.9669 65.3938C90.2948 65.0819 90.6484 64.7894 91.0245 64.5322C91.4006 64.275 91.8025 64.0436 92.2204 63.8507C92.6383 63.6578 93.0755 63.5003 93.5224 63.3781C93.9692 63.2592 94.4289 63.1788 94.895 63.137C95.1265 63.1177 95.3612 63.1081 95.5959 63.1081C95.6569 63.1081 95.7051 63.1113 95.7534 63.1113L95.943 63.1177L96.062 63.1209C96.1102 63.1209 96.062 63.1209 96.0845 63.1242L96.1327 63.1274L96.3224 63.1402C96.8271 63.182 97.3318 63.2528 97.8269 63.3653C98.8202 63.5871 99.7846 63.9503 100.685 64.4486C102.485 65.4452 104.018 67.0043 104.96 68.8849C105.436 69.8204 105.764 70.8298 105.931 71.8714C105.97 72.1318 106.002 72.3954 106.024 72.659L106.04 72.8583L106.05 73.0576C106.053 73.1252 106.053 73.1895 106.057 73.257C106.057 73.3213 106.06 73.3952 106.06 73.4434V73.6138L106.057 73.8067C106.05 73.9353 106.04 74.1442 106.034 74.2728C106.012 74.5589 105.989 74.8482 105.95 75.1344C105.915 75.4173 105.867 75.7001 105.815 75.983C105.758 76.2627 105.7 76.5424 105.626 76.8189C105.488 77.375 105.308 77.9183 105.099 78.4519C104.677 79.5192 104.115 80.5319 103.437 81.4674C102.077 83.3351 100.222 84.8621 98.113 85.8201C97.0585 86.2959 95.9463 86.6463 94.8018 86.8359C94.2296 86.9324 93.6509 86.9902 93.0723 87.0095L92.9662 87.0127H92.873L92.6865 87.016H92.4004H92.259C92.3393 87.016 92.2461 87.016 92.2493 87.0127L92.1915 87.0095C91.8796 87.0031 91.571 86.987 91.2624 86.9645C90.0247 86.8713 88.7999 86.6527 87.6137 86.3055C86.4275 85.9615 85.2766 85.5018 84.1868 84.9232C82.0104 83.7594 80.0655 82.1649 78.5418 80.2425C77.7767 79.2846 77.108 78.2558 76.5551 77.1725C76.0021 76.0891 75.5681 74.9543 75.2467 73.7938C74.9284 72.6333 74.7291 71.4439 74.652 70.248L74.6391 70.023L74.6359 69.9683V69.9201L74.6327 69.8204L74.6262 69.6243L74.623 69.5761V69.5086V69.3704L74.6198 69.0907V69.036C74.6198 69.0457 74.6198 69.0457 74.6198 69.0167V68.9074C74.6198 68.7628 74.6262 68.6149 74.6295 68.4702C74.652 67.8787 74.7002 67.2712 74.7773 66.6636C74.8545 66.056 74.9541 65.4452 75.0795 64.8376C75.2049 64.2332 75.3528 63.6321 75.5199 63.0438C75.8575 61.864 76.2786 60.7196 76.7769 59.6394C77.7767 57.4759 79.0883 55.5696 80.6635 54.0329C81.0557 53.6472 81.4639 53.2839 81.8883 52.9431C82.3126 52.6024 82.753 52.2873 83.2063 51.9916C83.6564 51.6926 84.1225 51.4226 84.6015 51.1718C84.8394 51.0432 85.0837 50.9307 85.328 50.8118C85.4502 50.7571 85.5756 50.7025 85.6977 50.6478C85.8199 50.5932 85.9453 50.5385 86.0706 50.4903C86.5689 50.2781 87.0833 50.1013 87.5976 49.9342C87.7294 49.8956 87.858 49.8538 87.9866 49.8152C88.1152 49.7734 88.2502 49.7445 88.3788 49.7059C88.6392 49.632 88.906 49.5709 89.1696 49.5034C89.3014 49.468 89.4364 49.4455 89.5683 49.4166C89.7033 49.3877 89.8351 49.3587 89.9701 49.333C90.1051 49.3073 90.2401 49.2848 90.3719 49.2591L90.5745 49.2237L90.777 49.1916C90.912 49.1723 91.047 49.1498 91.182 49.1305C91.3331 49.1048 91.4874 49.0919 91.6385 49.0694C91.7639 49.0533 91.9664 49.0308 92.0918 49.0148C92.1882 49.0051 92.2815 48.9955 92.3779 48.9858L92.5676 48.9665L92.664 48.9569L92.7765 48.9505C92.9309 48.9408 93.0819 48.9312 93.2362 48.9215L93.4645 48.9055C93.4645 48.9055 93.5481 48.9022 93.4741 48.9022L93.5224 48.899L93.6188 48.8958C93.7506 48.8894 93.8792 48.883 94.011 48.8765C94.5318 48.8605 95.0493 48.8605 95.5605 48.8765C96.586 48.9183 97.5922 49.0308 98.5695 49.2109C100.527 49.5741 102.369 50.2042 104.034 51.0272C105.703 51.8437 107.198 52.8467 108.497 53.9365C108.577 54.004 108.657 54.0747 108.738 54.1422C108.818 54.213 108.895 54.2805 108.972 54.3512C109.13 54.4894 109.281 54.6341 109.432 54.7723C109.583 54.9138 109.728 55.0584 109.876 55.1999C110.017 55.3445 110.162 55.486 110.3 55.6339C110.85 56.2157 111.361 56.8072 111.821 57.402C112.743 58.5882 113.479 59.7841 114.068 60.9157C114.106 60.9864 114.142 61.0571 114.177 61.1278C114.212 61.1985 114.248 61.2693 114.28 61.34C114.347 61.4782 114.418 61.6165 114.479 61.7547C114.543 61.8929 114.608 62.0279 114.669 62.163C114.727 62.298 114.785 62.433 114.842 62.5616C115.061 63.092 115.26 63.5935 115.424 64.0725C115.694 64.8408 115.89 65.5352 116.045 66.1364C116.106 66.3775 116.334 66.5382 116.582 66.5157C116.839 66.4932 117.035 66.281 117.041 66.0238C117.054 65.3777 117.038 64.6158 116.964 63.7478C116.868 62.6741 116.684 61.43 116.321 60.0638C115.964 58.6975 115.434 57.2027 114.662 55.6499C113.888 54.1004 112.878 52.4867 111.567 50.9275C111.055 50.3167 110.496 49.7124 109.892 49.1241C110.792 45.5429 108.795 42.4374 108.795 42.4374C105.349 42.2221 103.157 43.5079 102.344 44.0962C102.209 44.0384 102.07 43.9805 101.932 43.9226C101.344 43.6848 100.743 43.4629 100.122 43.2668C99.5017 43.0707 98.8684 42.8907 98.2223 42.7396C97.5729 42.5885 96.9139 42.4599 96.242 42.3571C96.1231 42.341 96.0073 42.3249 95.8884 42.3056C94.3903 37.5029 90.073 35.4937 90.073 35.4937C85.2573 38.5316 84.3411 42.8039 84.3411 42.8039Z" fill="white"/>
</mask>
<g mask="url(#mask7_2197_379)">
<path d="M117.051 35.4805H58.0801V99.5273H117.051V35.4805Z" fill="url(#paint0_linear_2197_379)"/>
</g>
</g>
<defs>
<linearGradient id="paint0_linear_2197_379" x1="87.5586" y1="113.932" x2="87.5586" y2="55.4187" gradientUnits="userSpaceOnUse">
<stop stop-color="#FFF200"/>
<stop offset="1" stop-color="#F15A29"/>
</linearGradient>
<clipPath id="clip0_2197_379">
<rect width="200" height="100" fill="white" transform="translate(47.3994 17.5103)"/>
</clipPath>
</defs>
</svg>
