<svg width="295" height="136" viewBox="0 0 295 136" fill="none" xmlns="http://www.w3.org/2000/svg">
<g clip-path="url(#clip0_2197_286)">
<path d="M98.8906 59.7608C98.4585 59.7592 98.0303 59.8432 97.6308 60.0081C97.2313 60.1729 96.8685 60.4153 96.5632 60.7212L94.06 63.2178C93.7258 63.5518 93.4677 63.9541 93.3035 64.3972C93.1393 64.8403 93.0728 65.3137 93.1087 65.7849L93.1245 65.9433C93.2097 66.6706 93.5396 67.3474 94.06 67.8626C94.4208 68.2225 94.8181 68.4506 95.3009 68.609C95.3257 68.7542 95.3398 68.901 95.3398 69.0486C95.3398 69.7097 95.0827 70.3309 94.6149 70.7962L94.4607 70.9505C93.6246 70.6652 92.9279 70.248 92.2984 69.6201C91.4657 68.7936 90.9076 67.7308 90.7001 66.5761L90.6719 66.4161L90.545 66.5189C90.4598 66.5877 90.3784 66.6611 90.3011 66.7387L87.7979 69.2353C87.3379 69.6946 87.0247 70.2803 86.8979 70.9179C86.7712 71.5555 86.8367 72.2164 87.0861 72.8168C87.3355 73.4171 87.7576 73.9299 88.2988 74.29C88.84 74.6502 89.476 74.8415 90.1261 74.8397C90.5581 74.8406 90.9861 74.7562 91.3855 74.5914C91.7849 74.4265 92.1478 74.1845 92.4535 73.8792L94.9575 71.3826C95.2625 71.0778 95.5045 70.7158 95.6696 70.3174C95.8347 69.919 95.9196 69.4919 95.9196 69.0607C95.9196 68.6294 95.8347 68.2024 95.6696 67.804C95.5045 67.4055 95.2625 67.0436 94.9575 66.7387C94.6149 66.3975 94.2007 66.1368 93.7449 65.9756C93.673 65.5484 93.7052 65.1101 93.8386 64.6979C93.972 64.2858 94.2027 63.9118 94.5113 63.6076C95.3437 63.8893 96.0998 64.3594 96.7208 64.9812C97.5524 65.8083 98.11 66.8709 98.3183 68.0251L98.3473 68.1852L98.4742 68.0824C98.5605 68.0135 98.6418 67.9389 98.7197 67.8609L101.223 65.3643C101.683 64.905 101.996 64.3194 102.123 63.6817C102.25 63.044 102.184 62.383 101.935 61.7826C101.685 61.1822 101.263 60.6695 100.722 60.3095C100.18 59.9496 99.5441 59.7586 98.8939 59.7608H98.8906Z" fill="black"/>
<path d="M97.5501 50.6307H64.7962C55.4618 50.6307 47.8701 58.2033 47.8701 67.5103C47.8701 76.8181 55.4627 84.3899 64.7953 84.3899H97.5492C106.883 84.3899 114.475 76.8173 114.475 67.5111C114.475 58.2017 106.883 50.6299 97.5501 50.6299V50.6307ZM81.3946 77.0951C80.8546 77.2063 80.2466 77.2262 79.8336 76.7965C79.6818 77.1449 79.326 76.9616 79.0514 76.916C79.0266 76.9865 79.0042 77.0487 78.9809 77.12C78.0686 77.1805 77.3843 76.2524 76.9497 75.5524C76.0871 75.0862 75.1067 74.8026 74.225 74.3149C74.1736 75.1178 74.3494 76.1147 73.5831 76.6323C73.5441 78.1767 75.9253 76.8148 76.1443 77.966C75.9751 77.9842 75.7877 77.9386 75.6516 78.0689C75.0304 78.671 74.3179 77.6127 73.6021 78.0498C72.64 78.5325 72.5438 78.9281 71.3544 79.0277C71.288 78.9281 71.3154 78.8618 71.371 78.8012C71.7061 78.4131 71.7301 77.9552 72.3016 77.7893C71.7127 77.6973 71.2209 78.0216 70.7249 78.2787C70.0796 78.5416 70.0846 77.684 69.0926 78.3235C68.9831 78.2339 69.0353 78.1526 69.0984 78.0838C69.3505 77.7769 69.6823 77.7313 70.0564 77.7479C68.2159 76.7252 67.3499 78.9986 66.4998 77.8681C66.2443 77.9353 66.1481 78.1651 65.9872 78.3268C65.8487 78.175 65.954 77.9909 65.9598 77.8126C65.7939 77.7346 65.5841 77.6973 65.633 77.4319C65.3087 77.3224 65.0815 77.5148 64.8393 77.6973C64.6211 77.5289 64.9869 77.2826 65.0549 77.1067C65.249 76.7691 65.6928 77.037 65.9175 76.794C66.5578 76.4316 67.4495 77.0205 68.181 76.9209C68.745 76.9914 69.4417 76.415 69.1589 75.8385C68.5568 75.0705 68.6629 74.0661 68.6496 73.1479C68.575 72.6129 67.2869 71.9311 66.9145 71.3538C66.4542 70.8338 66.0959 70.2316 65.7367 69.6386C64.442 67.1387 64.8492 63.9272 63.2178 61.6056C62.4796 62.0121 61.5191 61.8205 60.8821 61.2747C60.5387 61.5874 60.5238 61.9963 60.4964 62.4293C59.672 61.6081 59.7748 60.0546 60.4342 59.1398C60.7021 58.7866 61.022 58.4762 61.3831 58.2191C61.4644 58.161 61.4917 58.103 61.4901 58.0117C62.142 55.0889 66.586 55.652 67.9911 57.7231C69.0104 58.9979 69.3182 60.6841 70.4744 61.8677C72.0295 63.5656 73.802 65.061 75.2369 66.8692C76.5947 68.5214 77.5643 70.4589 78.4103 72.4122C78.7553 73.0608 78.7587 73.8554 79.2704 74.4094C79.5226 74.7437 80.7551 75.6536 80.4872 75.9754C80.6414 76.3096 81.7919 76.7708 81.3929 77.0951H81.3946ZM102.981 67.1221L100.478 69.6187C99.8119 70.2838 98.9932 70.7759 98.0933 71.0519L98.0469 71.0652L98.0303 71.1092C97.7423 71.8717 97.294 72.5636 96.7157 73.1379L94.2116 75.6345C93.675 76.1719 93.0372 76.5978 92.3351 76.8875C91.633 77.1772 90.8804 77.325 90.1209 77.3224C89.3614 77.325 88.6089 77.1772 87.9068 76.8875C87.2047 76.5978 86.5669 76.1719 86.0302 75.6345C85.4938 75.0991 85.0682 74.4631 84.7778 73.763C84.4875 73.063 84.338 72.3125 84.338 71.5546C84.338 70.7966 84.4875 70.0462 84.7778 69.3461C85.0682 68.646 85.4938 68.0101 86.0302 67.4746L88.5334 64.9781C89.1976 64.3135 90.0155 63.8232 90.9147 63.5506L90.9603 63.5365L90.9769 63.4926C91.2668 62.7281 91.7163 62.0341 92.2957 61.4572L94.7997 58.9606C95.3364 58.4232 95.9742 57.9973 96.6763 57.7076C97.3784 57.4179 98.1309 57.2701 98.8904 57.2727C100.437 57.2727 101.89 57.8724 102.981 58.9606C103.52 59.4947 103.946 60.1305 104.237 60.8311C104.527 61.5317 104.676 62.283 104.673 63.0414C104.673 64.5841 104.073 66.0331 102.981 67.1205V67.1221Z" fill="black"/>
<path d="M71.2113 74.0732C70.9915 74.9275 70.921 76.3807 69.8062 76.4222C69.715 76.9157 70.1488 77.1015 70.5444 76.9422C70.9359 76.7639 71.1217 77.084 71.2536 77.4034C71.8582 77.4913 72.7515 77.2027 72.7855 76.4885C71.8831 75.9701 71.6044 74.9848 71.2129 74.0716L71.2113 74.0732ZM130.156 59.4779H127.182V77.5145H139.936V74.6414H130.156V59.4779ZM154.883 77.5145H157.856V77.483H157.895L157.901 77.3503C157.902 77.3113 157.913 76.9505 157.858 76.3948V69.6814C157.858 67.1559 159.699 66.0071 161.41 66.0071C163.251 66.0071 164.146 66.9983 164.146 69.0403V77.5145H167.12V68.6438C167.12 65.2747 164.979 63.1813 161.535 63.1813C160.071 63.1813 158.764 63.5976 157.738 64.3872L157.711 63.4284H154.887V77.5145H154.883ZM179.221 64.4635C178.188 63.6242 176.859 63.1813 175.36 63.1813C171.351 63.1813 168.86 65.9466 168.86 70.3972C168.86 74.8479 171.351 77.6381 175.36 77.6381C176.774 77.6381 178.037 77.2524 179.031 76.52C178.946 78.7031 177.578 80.0003 175.336 80.0003C173.451 80.0003 172.384 79.3998 172.165 78.217L172.138 78.0694L169.249 78.9511L169.275 79.0697C169.762 81.4211 171.963 82.8253 175.164 82.8253C177.335 82.8253 179.038 82.2339 180.226 81.0669C181.426 79.8908 182.033 78.1955 182.033 76.0299V63.4284H179.283L179.223 64.4635H179.221ZM179.035 70.5208C179.035 73.2082 177.727 74.8139 175.533 74.8139C173.181 74.8139 171.834 73.2048 171.834 70.3981C171.834 67.5921 173.182 66.0063 175.533 66.0063C177.674 66.0063 179.014 67.6037 179.035 70.175V70.5217V70.5208ZM196.683 71.7948C196.067 73.7887 194.484 74.8877 192.228 74.8877C189.003 74.8877 186.997 72.4384 186.997 68.4954C186.997 64.5531 189.02 62.1038 192.278 62.1038C194.532 62.1038 195.831 62.9872 196.492 64.9678L196.801 65.8943L199.608 64.5755L199.345 63.834C198.276 60.8216 195.806 59.2307 192.204 59.2307C189.757 59.2307 187.679 60.1141 186.195 61.7853C184.727 63.4409 183.95 65.7599 183.95 68.497C183.95 74.1255 187.199 77.7633 192.228 77.7633C195.772 77.7633 198.518 75.9088 199.571 72.8017L199.84 72.008L196.956 70.9115L196.681 71.7965L196.683 71.7948ZM207.787 63.1813C206.367 63.1813 205.104 63.5711 204.112 64.3093V57.7502H201.139V77.517H204.112V69.6831C204.112 67.1418 205.953 65.9839 207.665 65.9839C209.505 65.9839 210.401 66.9759 210.401 69.0171V77.5178H213.374V68.6214C213.374 65.3179 211.182 63.1838 207.789 63.1838L207.787 63.1813ZM230.754 57.3247C229.649 57.3247 228.847 58.1268 228.847 59.2307C228.847 60.3355 229.649 61.1376 230.754 61.1376C231.858 61.1376 232.66 60.3355 232.66 59.2307C232.66 58.1268 231.858 57.3247 230.754 57.3247ZM241.342 63.1813C239.879 63.1813 238.573 63.5976 237.547 64.3872L237.519 63.4284H234.696V77.5145H237.669V69.6814C237.669 67.1559 239.509 66.0071 241.221 66.0071C243.062 66.0071 243.958 66.9983 243.958 69.0403V77.5145H246.931V68.6438C246.931 65.2747 244.79 63.1813 241.346 63.1813H241.342ZM232.198 63.4293H229.24V70.4113C228.418 69.7221 227.451 69.2004 226.36 68.8595V68.1495C226.36 65.0392 224.318 63.1813 220.896 63.1813C218.117 63.1813 216.038 64.4868 215.192 66.7602L214.964 67.374L217.347 69.1307L217.756 68.0649C218.295 66.6599 219.294 66.0054 220.896 66.0054C222.5 66.0054 223.386 66.7768 223.386 68.2963V68.3759C223.29 68.3718 223.194 68.369 223.099 68.3676C219.915 68.317 217.593 69.061 216.196 70.5772C214.767 72.1282 214.892 73.87 214.911 74.0625L214.925 74.1968H214.938C215.16 76.3666 217.055 77.7592 219.81 77.7592C221.327 77.7592 222.729 77.337 223.789 76.5648L223.8 77.5137H226.36V73.107L226.304 73.0672C225.943 72.8017 225.311 72.46 224.362 72.3397C224.082 72.3026 223.8 72.2857 223.517 72.2892H223.385V72.6939C223.385 73.6254 222.314 74.9375 219.932 74.9375C218.173 74.9375 217.911 74.1977 217.911 73.7564V73.7116C217.925 73.5134 218.008 73.029 218.445 72.5786C219 72.0055 220.249 71.3345 223.05 71.3768C225.078 71.4091 226.634 71.9756 227.675 73.063C228.953 74.3967 229.194 76.2231 229.238 76.9389V77.5145H232.196V63.4293H232.198ZM147.195 63.1199C144.415 63.1199 142.337 64.4246 141.49 66.6988L141.262 67.3126L143.646 69.0693L144.055 68.0035C144.594 66.5985 145.592 65.9432 147.195 65.9432C148.798 65.9432 149.685 66.7146 149.685 68.2349V68.5916L146.622 69.1324C143.033 69.7669 141.212 71.3021 141.212 73.6925C141.212 76.0829 143.133 77.6986 146.107 77.6986C147.624 77.6986 149.025 77.2756 150.085 76.5043L150.098 77.4523H152.656V68.0881C152.656 64.977 150.615 63.1199 147.195 63.1199ZM149.685 71.3784V72.6334C149.685 73.5656 148.613 74.877 146.231 74.877C144.473 74.877 144.211 74.1379 144.211 73.6967C144.211 73.3044 144.211 72.3879 147.326 71.8097L149.685 71.3784Z" fill="black"/>
</g>
<defs>
<clipPath id="clip0_2197_286">
<rect width="200" height="33.76" fill="white" transform="translate(47.4004 50.6299)"/>
</clipPath>
</defs>
</svg>
