<svg width="295" height="136" viewBox="0 0 295 136" fill="none" xmlns="http://www.w3.org/2000/svg">
<path d="M64.5187 29.0825L66.5788 32.957C67.0273 33.6559 67.5494 34.3047 68.1361 34.8923C69.8617 36.6179 71.5041 38.4266 72.9745 40.3638C76.4672 44.9508 78.824 50.0442 80.5079 55.5592C81.5172 58.9271 82.0653 62.3782 82.1068 65.8709C82.2769 76.3092 78.6973 85.2734 71.4587 92.7237C70.2858 93.9047 69.0192 94.9887 67.6712 95.965C66.953 95.965 66.6185 95.398 66.3237 94.9123C65.7567 93.9673 65.4391 92.9335 65.2709 91.8827C65.0177 90.6202 64.8495 89.3576 64.9345 88.0517V87.462C64.8929 87.3354 64.2617 29.3792 64.5131 29.0844L64.5187 29.0825Z" fill="#599636"/>
<path d="M64.5183 28.9587C64.4332 28.7886 64.3482 28.9171 64.265 29.0002C64.3066 29.8413 64.0118 30.5992 63.5468 31.3155C63.0422 32.0336 62.3675 32.578 61.6946 33.1676C57.9487 36.4089 55.0041 40.3231 52.6454 44.7003C49.5308 50.5932 47.8903 56.9057 47.4291 63.5566C47.2212 65.9568 48.1851 74.4164 48.9449 76.8563C51.0049 83.3389 54.7093 88.767 59.5287 93.4806C60.7081 94.6145 61.9706 95.6691 63.2747 96.6784C63.6527 96.6784 63.6961 96.342 63.7793 96.0887C63.9451 95.5512 64.0715 95.0023 64.1573 94.4463C64.5353 92.3428 64.747 90.2374 64.9983 88.1338L64.5353 28.9587H64.5183Z" fill="#6CAC48"/>
<path d="M66.5842 98.5321C66.6693 97.5644 67.1512 96.765 67.637 95.9655C67.1323 95.7576 66.7524 95.3343 66.4576 94.8693C66.2043 94.4479 65.9946 93.9243 65.8264 93.4802C65.2367 91.7131 65.1082 89.8609 64.9418 88.0503V86.9541C64.7339 87.1242 64.6886 88.553 64.6886 88.7647C64.562 90.7 64.3106 92.5957 63.9326 94.446C63.806 95.202 63.7247 95.9617 63.2598 96.6346C63.2598 96.7196 63.2598 96.8047 63.3013 96.9294C64.0573 99.1596 64.269 101.433 64.3975 103.748V104.589C64.3975 105.599 64.356 105.389 65.197 105.723C65.5334 105.85 65.9152 105.894 66.2497 106.145C66.503 106.145 66.5445 105.937 66.5445 105.767L66.4179 104.378V100.503C66.3763 99.8305 66.503 99.1558 66.588 98.5245L66.5842 98.5321Z" fill="#C2BFBF"/>
<path d="M98.5451 80.9291V84.9375C98.5407 85.0962 98.5497 85.2551 98.5722 85.4123C98.6243 85.887 98.9157 86.1765 99.3441 86.3097C99.7439 86.4149 100.15 86.4942 100.56 86.5471C100.797 86.5741 100.876 86.6783 100.903 86.933C100.931 87.8304 100.851 87.9366 99.981 87.8825C97.9507 87.7764 95.9186 87.7513 93.8883 87.8825H93.6953C93.0623 87.9096 93.0102 87.8555 93.0102 87.2225C93.0102 87.1164 93.0372 86.9851 93.0372 86.879C93.0372 86.686 93.1684 86.5895 93.3537 86.5895C93.7783 86.5374 94.172 86.4313 94.5695 86.3521C95.1234 86.2209 95.438 85.8774 95.492 85.3235C95.5692 84.7175 95.5692 84.0845 95.5692 83.4766L95.5963 76.4093C95.605 76.2043 95.5551 76.0011 95.4526 75.8234C95.3501 75.6457 95.1991 75.5008 95.0173 75.4057C94.54 75.1406 94.0353 74.9284 93.512 74.7727C93.3537 74.7206 93.1955 74.6955 93.0642 74.6145C92.6782 74.4292 92.6686 74.0876 93.0372 73.8753C93.1684 73.7981 93.3267 73.7441 93.4849 73.7171C95.0855 73.4809 96.658 73.0832 98.1785 72.5302C98.495 72.424 98.5741 72.453 98.603 72.7676C98.6301 72.9605 98.603 73.1921 98.576 73.3736C98.5239 73.7171 98.5239 74.0587 98.5239 74.3771C98.5239 74.5083 98.5509 74.6415 98.6822 74.7206C98.8134 74.7997 98.9466 74.7206 99.0681 74.6434C99.622 74.2188 100.176 73.8251 100.782 73.4855C101.65 73.0107 102.577 72.5881 103.58 72.4568C104.796 72.2986 105.848 72.6151 106.772 73.4064C107.155 73.7484 107.491 74.1383 107.774 74.5662C108.038 74.9522 108.063 74.9619 108.407 74.6975C109.41 73.9583 110.464 73.3002 111.599 72.8255C112.786 72.3237 114 72.2465 115.212 72.6672C116.451 73.1149 117.296 73.9853 117.798 75.1722C118.222 76.1217 118.404 77.1021 118.404 78.125V85.1923C118.404 85.667 118.597 85.9642 119.064 86.1958C119.566 86.3888 120.119 86.4853 120.646 86.5914C120.99 86.6686 120.99 86.6686 120.99 87.016C120.938 87.8845 120.859 87.9385 120.013 87.8845C117.897 87.7658 115.775 87.7658 113.658 87.8845C113.234 87.9115 113.234 87.9115 113.21 87.4888V87.3576C113.183 86.6435 113.183 86.6435 113.87 86.4892L114.556 86.3039C114.788 86.2493 114.995 86.1181 115.143 85.9315C115.292 85.7449 115.373 85.5137 115.374 85.2752L115.451 83.2971L115.399 78.1288C115.379 77.6674 115.281 77.2126 115.109 76.7837C114.449 75.1741 113 74.5952 111.601 74.7534C110.545 74.8596 109.623 75.2803 108.752 75.8882C108.567 76.0194 108.436 76.1777 108.463 76.4421C108.7 78.1308 108.54 79.8194 108.569 81.5062V85.173C108.569 85.833 108.833 86.1495 109.466 86.3077L110.682 86.5721C110.868 86.5992 110.972 86.6783 110.972 86.8886V87.0816C110.945 87.8208 110.895 87.8536 110.153 87.8459C108.044 87.7397 105.933 87.7687 103.85 87.8459C103.136 87.8729 103.078 87.7938 103.111 87.0739C103.138 86.6493 103.188 86.6262 103.586 86.5471L104.454 86.3888C105.226 86.2305 105.51 85.9411 105.562 85.1228L105.639 83.355L105.587 78.0536C105.535 77.3935 105.394 76.7605 105.033 76.1545C104.507 75.178 103.683 74.6782 102.554 74.6241C101.419 74.5469 100.417 74.9676 99.4657 75.4926C98.8057 75.8786 98.5162 76.3359 98.5683 77.1021V80.9523L98.5451 80.9291ZM148.234 81.0893V84.8082C148.239 85.0727 148.256 85.3367 148.286 85.5995C148.298 85.7746 148.365 85.9413 148.48 86.0746C148.594 86.2079 148.748 86.3005 148.919 86.3386C149.374 86.4713 149.843 86.5509 150.317 86.576C150.581 86.603 150.633 86.7072 150.66 86.9195V87.1048C150.633 88.0273 150.529 88.1334 149.632 88.0813C147.624 87.9501 145.623 87.9752 143.618 88.0813L142.846 88.1083C142.688 88.1083 142.653 88.0311 142.609 87.9231C142.532 87.5578 142.532 87.1805 142.609 86.8153C142.636 86.6571 142.74 86.6223 142.898 86.5779C143.284 86.5258 143.612 86.4467 143.979 86.3849C144.639 86.2267 144.876 85.9604 144.901 85.2772L144.979 83.0617V76.5733C144.979 76.0986 144.793 75.8091 144.373 75.5968C143.898 75.3324 143.396 75.1491 142.867 74.9638C142.709 74.9117 142.551 74.8576 142.42 74.7785C142.076 74.5411 142.034 74.1995 142.367 73.9352C142.517 73.8121 142.701 73.738 142.894 73.7229C144.583 73.4585 146.218 73.0899 147.8 72.4568C147.985 72.3797 148.064 72.4298 148.144 72.5881C148.223 72.7463 148.25 72.9316 148.221 73.1149L148.144 74.3539C148.144 74.5122 148.066 74.7399 148.196 74.8017C148.354 74.9078 148.46 74.6704 148.591 74.6087C149.37 73.9554 150.23 73.406 151.15 72.9741C151.969 72.5881 152.81 72.3411 153.762 72.3951C155.529 72.5012 156.795 73.3986 157.612 74.9541C158.036 75.7724 158.218 76.6679 158.297 77.5923L158.374 79.5222L158.401 85.3505C158.428 85.7983 158.586 86.0897 159.034 86.2479C159.498 86.4026 159.975 86.5175 160.458 86.5914C160.883 86.6435 160.906 86.7227 160.933 87.1183V87.2495C160.881 88.1469 160.827 88.172 159.929 88.118C157.962 88.0125 155.99 88.0125 154.022 88.118C153.758 88.145 153.495 88.118 153.25 88.145C153.092 88.145 152.986 88.118 152.961 87.9597C152.909 87.6162 152.854 87.2746 152.934 86.9041C152.961 86.7458 153.04 86.6667 153.223 86.6397L154.439 86.4467C154.863 86.3405 155.099 86.0607 155.153 85.6747L155.205 84.9356L155.178 79.4238C155.178 78.7908 155.151 78.1578 155.02 77.5248C154.703 76.1738 153.675 75.2089 152.279 75.0738C151.064 74.9426 149.963 75.2591 148.956 75.9172C148.454 76.2337 148.242 76.6814 148.242 77.2353V81.2186C148.242 81.1414 148.242 81.1414 148.269 81.1414L148.234 81.0893Z" fill="#47474A"/>
<path d="M225.481 73.6247C225.191 71.6986 224.477 69.9849 223.238 68.4815C222.159 67.1534 220.761 66.1192 219.176 65.4747C217.516 64.7896 215.746 64.5773 213.953 64.5252C213.214 64.4982 203.14 64.6564 202.401 64.5252C202.216 64.4982 202.085 64.5522 201.976 64.7105C201.845 64.9035 201.712 65.1061 201.633 65.3165C201.316 66.0305 201.316 65.9765 202.081 66.0807C202.714 66.1868 203.32 66.239 203.928 66.4242C204.481 66.6095 204.877 66.926 205.008 67.532C205.06 67.8215 205.114 77.1043 205.114 81.4311L205.008 84.519C204.981 84.7564 204.956 84.9937 204.877 85.2041C204.771 85.5206 204.588 85.7831 204.271 85.9182C203.923 86.082 203.547 86.1802 203.163 86.2076C202.449 86.2848 202.345 86.3138 202.108 87.105L202.03 87.3945C201.978 87.738 202.003 87.7902 202.347 87.7902L210.233 87.8673L213.32 87.8152L215.457 87.5508C217.883 87.1031 220.046 86.0996 221.891 84.492C222.945 83.5611 223.805 82.4319 224.423 81.1687C225.162 79.6923 225.479 78.0808 225.558 76.4481C225.689 75.5256 225.635 74.5761 225.481 73.6266V73.6247ZM221.656 77.3687C221.55 79.0574 221.208 80.692 220.338 82.1684C219.23 84.0944 217.647 85.4395 215.459 85.9124C214.509 86.1053 213.56 86.2018 212.564 86.0706C211.85 85.9934 211.167 85.9124 210.507 85.675C209.32 85.2504 208.897 84.517 208.872 83.3591L208.845 67.4567C208.845 66.5072 209.27 66.2988 209.953 66.2698C210.981 66.1926 212.037 66.2177 213.066 66.3219C214.161 66.4278 215.235 66.6877 216.258 67.0939C217.017 67.4105 217.721 67.8471 218.342 68.3869C219.766 69.6028 220.716 71.1274 221.237 72.9222C221.661 74.3735 221.739 75.8499 221.661 77.3262L221.656 77.3687ZM247.401 79.9548C247.401 79.7965 247.401 79.6653 247.373 79.507C247.136 78.0557 246.37 76.948 245.185 76.1046C244.421 75.5507 243.55 75.1821 242.653 74.9177C242.495 74.8656 242.363 74.8116 242.205 74.7865C242.232 74.6553 242.311 74.6282 242.39 74.6012C242.917 74.3368 243.419 74.0473 243.867 73.6517C244.685 72.9666 245.218 72.1213 245.501 71.0927C245.66 70.5388 245.66 69.9849 245.608 69.404C245.565 68.7244 245.369 68.0633 245.036 67.4696C244.702 66.8759 244.239 66.3649 243.682 65.9746C242.466 65.0772 241.043 64.7085 239.567 64.6815C236.719 64.6294 233.845 64.6815 230.998 64.6815C230.18 64.6815 229.364 64.7336 228.518 64.6043C228.36 64.5773 228.132 64.5271 228.017 64.7105C227.824 65.054 227.592 65.3956 227.515 65.7912C227.488 65.9765 227.542 66.0807 227.752 66.1077L229.572 66.3721C230.286 66.4783 230.788 66.8739 230.838 67.5069C230.89 67.9444 230.916 68.3845 230.915 68.825L230.863 73.7559L230.836 83.5135C230.836 84.0925 230.759 84.6483 230.651 85.2272C230.625 85.4111 230.546 85.5835 230.425 85.7238C230.303 85.8642 230.144 85.9665 229.966 86.0185C229.439 86.1768 228.937 86.335 228.383 86.335C228.235 86.321 228.087 86.3576 227.962 86.439C227.838 86.5203 227.745 86.6415 227.698 86.7827C227.592 87.0201 227.505 87.2845 227.461 87.5219C227.409 87.8384 227.488 87.9465 227.804 87.9079C228.042 87.8809 236.746 88.0931 238.38 87.9349C239.357 87.8288 240.31 87.6975 241.281 87.408C242.941 86.8812 244.473 86.115 245.685 84.822C246.688 83.7663 247.267 82.5003 247.319 81.0239C247.397 80.6804 247.397 80.3388 247.397 79.9683L247.401 79.9548ZM234.609 69.1473L234.686 67.0379C234.686 66.6423 234.845 66.459 235.24 66.3779C235.873 66.2467 236.506 66.3007 237.139 66.3258C237.772 66.3779 238.378 66.457 239.011 66.6423C240.169 66.9858 241.069 67.6459 241.597 68.7517C241.837 69.2545 241.963 69.8041 241.966 70.3612C241.993 71.1004 241.939 71.8125 241.649 72.5227C241.202 73.4992 240.491 74.1323 239.461 74.3175C238.43 74.5028 235.505 74.4237 235.057 74.4237C234.661 74.4237 234.632 74.3716 234.632 73.9759V71.4921C234.57 70.7198 234.561 69.9441 234.605 69.1705L234.609 69.1473ZM243.178 83.3359C242.73 84.5228 241.912 85.343 240.752 85.7869C240.119 86.0243 239.486 86.1729 238.822 86.1304C238.004 86.1034 237.187 86.1304 236.371 85.9722C235.263 85.7348 234.762 84.6792 234.682 83.9149C234.551 82.5698 234.63 81.1976 234.605 80.196V76.7145C234.605 76.2899 234.657 76.1606 235.107 76.1606L237.587 76.1876L239.276 76.3806C240.463 76.645 241.543 77.0946 242.389 78.0152C243.074 78.7544 243.444 79.6498 243.523 80.6264C243.601 81.5489 243.55 82.4463 243.207 83.3166L243.178 83.3359Z" fill="#C2BFBF"/>
<path d="M176.166 75.391L176.851 75.4971C177.59 75.5241 178.461 75.2597 178.723 74.2311C178.868 73.7398 178.868 73.2171 178.723 72.7258C178.565 72.7258 178.486 72.857 178.407 72.911C178.011 73.2276 177.563 73.4128 177.088 73.4649C176.139 73.5711 175.189 73.517 174.267 73.1754L172.974 72.7277C172.072 72.4324 171.123 72.308 170.176 72.361C168.83 72.4672 167.564 72.9149 166.377 73.5479C165.111 74.233 164.216 75.2617 163.791 76.6608C163.554 77.4791 163.527 78.3206 163.633 79.1659C163.898 81.0919 164.899 82.437 166.692 83.1492C166.798 83.1762 166.877 83.2264 166.982 83.2553C167.219 83.3865 167.246 83.5197 167.034 83.7031L166.374 84.1508L164.791 85.1273C164.395 85.3647 164.343 85.5519 164.475 85.9707C164.632 86.4634 164.924 86.902 165.318 87.2367C165.68 87.5472 166.09 87.7969 166.532 87.9758C166.821 88.1071 166.821 88.1688 166.559 88.4004L165.054 89.4812C164.552 89.8672 164.05 90.2531 163.629 90.7472C163.337 91.0603 163.126 91.4407 163.015 91.8548C162.905 92.2688 162.898 92.7037 162.996 93.121C163.192 94.0365 163.672 94.867 164.367 95.4947C165.052 96.1298 165.886 96.583 166.792 96.8129C168.269 97.2374 169.799 97.2606 171.303 96.9711C173.464 96.5755 175.355 95.6202 176.841 93.9913C177.87 92.9106 178.476 91.6446 178.53 90.1315C178.588 89.2565 178.333 88.3894 177.811 87.6844C177.29 86.9794 176.535 86.4823 175.682 86.2814L174.257 86.017L169.905 85.631C169.431 85.604 168.956 85.5249 168.56 85.2875C168.058 84.971 167.927 84.365 168.244 83.9694C168.481 83.6799 168.771 83.4946 169.141 83.4676L169.984 83.3904C171.652 83.2207 173.218 82.5073 174.441 81.3602C175.093 80.756 175.56 79.978 175.786 79.1176C176.102 77.9828 176.102 76.8017 175.838 75.6438C175.761 75.3543 175.786 75.3273 176.154 75.3794L176.166 75.391ZM169.701 88.5278C169.859 88.5548 170.017 88.5278 170.176 88.5278C171.283 88.5799 172.418 88.659 173.499 88.9524C173.852 89.0567 174.196 89.189 174.527 89.348C175.583 89.927 175.979 90.9305 175.846 92.0113C175.687 93.1982 175.027 94.0415 173.999 94.5973C173.314 94.9833 172.547 95.1512 171.756 95.2303C171.467 95.2574 171.202 95.2303 170.913 95.2303C169.99 95.2574 169.093 95.1531 168.222 94.7826C167.616 94.5452 167.115 94.2036 166.667 93.727C165.744 92.8045 165.316 91.1158 166.694 89.7436C167.537 88.9717 168.489 88.4255 169.701 88.5278ZM172.708 80.2987C172.154 81.696 170.94 82.1186 169.728 81.9333C168.62 81.7751 167.802 81.1691 167.277 80.1655C166.592 78.8204 166.408 77.4251 166.802 75.9719C167.092 74.8911 167.752 74.0728 168.911 73.8876C170.388 73.6232 171.806 74.152 172.551 75.6283C172.937 76.3424 173.105 77.2109 173.105 78.4499C173.078 78.9516 172.974 79.6367 172.709 80.2968L172.708 80.2987ZM139.479 78.5039C139.241 77.0796 138.714 75.7866 137.738 74.7059C136.286 73.0963 134.441 72.39 132.357 72.3842C130.537 72.3572 128.825 72.886 127.293 73.8355C125.787 74.7369 124.683 76.1809 124.207 77.8709C123.759 79.4013 123.783 80.9587 124.13 82.5123C125.053 86.6809 128.272 88.4718 132.12 88.2094C133.255 88.1322 134.335 87.7616 135.362 87.2599C136.892 86.5458 138 85.4129 138.764 83.9095C139.37 82.6706 139.633 81.3505 139.608 79.8471L139.477 78.502L139.479 78.5039ZM135.735 84.3592C135.546 84.9526 135.188 85.4782 134.706 85.8717C134.223 86.2652 133.636 86.5095 133.017 86.5747C131.859 86.733 130.775 86.4435 129.8 85.7565C129.096 85.2389 128.527 84.5607 128.138 83.7783C127.058 81.5628 126.872 79.243 127.424 76.8693C127.602 76.1346 127.986 75.4662 128.532 74.9432C129.509 74.0458 130.642 73.8355 131.909 74.0999C133.125 74.3643 134.046 75.0224 134.804 76.0259C135.563 77.0295 135.912 78.1874 136.122 79.4032C136.229 80.0092 136.229 80.6422 136.254 81.0379C136.254 82.3039 136.148 83.3537 135.752 84.3611L135.735 84.3592ZM197.105 78.7162C196.912 77.1858 196.341 75.7885 195.258 74.6287C193.834 73.0732 191.987 72.4131 189.932 72.3861C188.164 72.3591 186.529 72.8609 185.026 73.7313C183.337 74.7348 182.178 76.1571 181.73 78.0832C181.195 80.1845 181.419 82.407 182.363 84.3592C183.231 86.2061 184.71 87.393 186.663 87.9199C188.824 88.4988 190.883 88.2364 192.887 87.2599C194.627 86.4165 195.866 85.0984 196.578 83.3036C197.003 82.2479 197.157 81.1151 197.184 79.795C197.212 79.5576 197.157 79.135 197.107 78.7143L197.105 78.7162ZM193.466 84.0176C193.041 85.4419 192.147 86.3644 190.644 86.5767C189.536 86.7349 188.483 86.4705 187.531 85.8375C186.713 85.2836 186.134 84.5445 185.711 83.676C185.236 82.7535 184.972 81.777 184.868 80.7754C184.71 79.5364 184.71 78.3244 184.999 77.0835C185.054 76.8388 185.134 76.6002 185.236 76.3714C185.976 74.5244 187.61 73.6811 189.536 74.1037C190.829 74.3932 191.804 75.1073 192.543 76.188C193.257 77.2437 193.599 78.4035 193.759 79.6618C193.836 80.1636 193.865 80.6905 193.836 81.1382C193.836 82.1668 193.759 83.1164 193.45 84.0389L193.466 84.0176Z" fill="#47474A"/>
</svg>
