<svg width="295" height="136" viewBox="0 0 295 136" fill="none" xmlns="http://www.w3.org/2000/svg">
<path fill-rule="evenodd" clip-rule="evenodd" d="M187.421 56.3436C184.395 56.3436 182.125 57.4833 180.985 59.3699L180.42 60.5095V56.9182H175.498V78.8683H180.794V65.8151C180.794 62.7888 182.498 60.8926 185.525 60.8926C188.359 60.8926 189.873 62.5973 189.873 65.6235V78.8683H195.169V64.6754C194.987 59.5614 192.152 56.3436 187.421 56.3436ZM161.87 56.3436C155.626 56.3436 151.843 60.318 151.843 66.5621V69.5883C151.843 75.6409 155.817 79.2418 162.062 79.2418C166.227 79.2418 169.254 77.7286 170.958 74.5108L167.741 72.6146C166.419 74.5108 164.149 75.6409 162.062 75.6409C158.844 75.6409 156.957 73.7447 156.957 70.3449V69.3968H171.715V65.8055C171.523 60.1265 167.741 56.3436 161.87 56.3436ZM166.792 66.1886H156.957V65.6235C156.957 62.0322 158.662 59.9445 161.88 59.9445C164.906 59.9445 166.802 61.8407 166.802 65.2405V66.1886H166.792ZM247.4 53.3174V49.1515H229.233V53.3174H235.669V74.7023H229.233V78.8683H247.4V74.7023H240.965V53.3174H247.4ZM109.083 48.5864C100.942 48.5864 95.838 53.6909 95.838 61.8311V66.179C95.838 74.3193 100.942 79.4237 109.083 79.4237C117.223 79.4237 122.327 74.3193 122.327 66.179V61.8311C122.327 53.7004 117.213 48.5864 109.083 48.5864ZM116.84 66.5621C116.84 72.0496 114.005 75.0758 109.083 75.0758C104.16 75.0758 101.325 72.0496 101.325 66.5621V61.4576C101.325 55.9701 104.16 52.9439 109.083 52.9439C114.005 52.9439 116.84 55.9701 116.84 61.4576V66.5621ZM138.981 56.5352C136.147 56.5352 133.877 57.6748 132.546 59.5614L131.981 60.318V56.9087H127.058V86.4244H132.354V75.8324L132.919 76.589C134.059 78.2936 136.511 79.4237 139.163 79.4237C143.703 79.4237 148.242 76.3974 148.242 69.7703V65.9875C148.06 61.2661 145.226 56.3436 138.981 56.5352ZM142.764 69.5883C142.764 73.1796 140.686 75.2674 137.468 75.2674C134.442 75.2674 132.172 72.9977 132.172 69.5883V66.3705C132.172 62.9612 134.251 60.6915 137.468 60.6915C140.686 60.6915 142.764 62.9612 142.764 66.3705V69.5883ZM209.553 49.1515L198.961 78.8587H204.257L206.335 72.4231H218.632L220.71 78.6671H226.006L215.414 48.9599L209.553 49.1515ZM207.666 68.2667L212.397 53.3174L217.128 68.2667H207.666ZM82.2102 64.1008C83.1583 61.4481 82.7752 58.6133 81.4536 56.3436C79.3754 52.7523 75.2095 50.8561 71.2352 51.8042C68.9655 49.343 65.5561 48.2129 62.1564 48.778C58.747 49.5345 56.1038 51.9958 54.9642 55.2136C52.3114 55.7786 50.0417 57.4833 48.7201 59.753C46.6419 63.3443 47.0154 67.8932 49.8598 70.9195C48.9117 73.5723 49.2947 76.407 50.6163 78.6767C52.6945 82.268 56.8604 84.1642 60.8348 83.2161C62.731 85.2943 65.1826 86.4339 68.0269 86.4339C72.1928 86.4339 75.7841 83.7812 77.1057 79.8068C79.7585 79.2418 82.0282 77.5371 83.3498 75.2674C85.428 71.6761 85.0449 67.1271 82.2102 64.1008ZM68.0174 83.9727C66.3127 83.9727 64.7996 83.4077 63.478 82.268L63.6695 82.0765L71.2352 77.7286C71.6182 77.5371 71.8002 77.1636 71.8002 76.589V65.997L75.018 67.8932V76.7901C75.018 80.7549 71.9917 83.9727 68.0174 83.9727ZM52.6945 77.3456C51.9379 75.8324 51.5548 74.3193 51.9379 72.6146L52.1295 72.8061L59.6951 77.154C60.0782 77.3456 60.4517 77.3456 61.0167 77.154L70.2871 71.858V75.4493C70.2871 75.4493 70.2871 75.4493 70.2871 75.6409L62.7214 79.9887C59.1205 81.8945 54.7727 80.7549 52.6945 77.3456ZM50.7983 61.0746C51.5548 59.5614 52.8764 58.6133 54.5811 58.0483V66.9451C54.5811 67.3282 54.7726 67.7017 55.1461 68.0848L64.225 73.3808L61.0071 75.277C61.0071 75.277 61.0071 75.277 60.8156 75.277L53.2499 70.9291C50.0417 68.6498 48.9117 64.2924 50.7983 61.0746ZM76.9142 67.1271L67.8354 61.8311L71.0532 59.9349C71.0532 59.9349 71.0532 59.9349 71.2447 59.9349L78.8104 64.2828C81.2717 65.6044 82.5933 68.2572 82.4017 71.0919C82.2102 73.7447 80.3236 76.1963 77.8623 77.1444V68.2476C77.6708 67.7017 77.2877 67.3186 76.9142 67.1271ZM80.132 62.4057L79.9405 62.2142L72.3748 57.8663C71.9917 57.6748 71.4267 57.6748 71.0532 57.8663L61.9744 63.1623V59.571C61.9744 59.571 61.9744 59.571 61.9744 59.3795L69.5401 55.0316C72.0013 53.71 74.836 53.71 77.1057 55.4147C79.3754 56.9182 80.5055 59.5614 80.132 62.4057ZM60.2602 68.8318L57.0424 66.9356V58.0387C57.0424 55.204 58.5555 52.7428 61.2083 51.6031C63.6695 50.4635 66.6958 50.8465 68.7739 52.5512L68.5824 52.7428L61.0167 57.0906C60.6337 57.2821 60.4517 57.6556 60.4517 58.2303L60.2602 68.8318ZM61.9648 65.0489L66.1307 62.7792L70.2966 65.0489V69.7799L66.1307 72.0496L61.9648 69.7799V65.0489Z" fill="black"/>
</svg>
