<svg width="295" height="136" viewBox="0 0 295 136" fill="none" xmlns="http://www.w3.org/2000/svg">
<path d="M90.8014 73.2493C94.0006 73.2493 96.594 70.6559 96.594 67.4567C96.594 64.2575 94.0006 61.6641 90.8014 61.6641C87.6022 61.6641 85.0088 64.2575 85.0088 67.4567C85.0088 70.6559 87.6022 73.2493 90.8014 73.2493Z" fill="#00D8FF"/>
<path fill-rule="evenodd" clip-rule="evenodd" d="M90.8011 55.6797C98.5785 55.6797 105.803 56.7957 111.251 58.6711C117.815 60.9308 121.85 64.3559 121.85 67.4573C121.85 70.6892 117.573 74.3279 110.525 76.6632C105.196 78.4287 98.1838 79.3504 90.8011 79.3504C83.2318 79.3504 76.0641 78.4853 70.6753 76.6438C63.8574 74.3135 59.751 70.6277 59.751 67.4573C59.751 64.381 63.6041 60.9824 70.0754 58.7262C75.5434 56.8198 82.9467 55.6797 90.8001 55.6797H90.8011Z" stroke="#00D8FF" stroke-width="2.7712"/>
<path fill-rule="evenodd" clip-rule="evenodd" d="M80.5481 61.6019C84.4335 54.8646 89.0095 49.1634 93.3556 45.3811C98.592 40.8241 103.575 39.0395 106.262 40.5887C109.062 42.2033 110.077 47.7261 108.579 54.9985C107.447 60.4968 104.741 67.0315 101.053 73.4269C97.2717 79.9841 92.9417 85.7611 88.6548 89.5082C83.2301 94.2502 77.9856 95.9663 75.2393 94.3824C72.5743 92.8467 71.5552 87.8101 72.8336 81.0768C73.9138 75.3878 76.6246 68.405 80.5468 61.6018L80.5481 61.6019Z" stroke="#00D8FF" stroke-width="2.7712"/>
<path fill-rule="evenodd" clip-rule="evenodd" d="M80.5581 73.4438C76.6617 66.7142 74.0089 59.901 72.9016 54.2469C71.5686 47.4343 72.511 42.2256 75.1952 40.6719C77.9922 39.0526 83.2842 40.931 88.8364 45.861C93.0343 49.5883 97.3449 55.195 101.044 61.5844C104.836 68.1352 107.679 74.7719 108.784 80.3572C110.183 87.4253 109.051 92.8258 106.307 94.4142C103.645 95.9554 98.773 94.3236 93.5782 89.8532C89.1889 86.0763 84.493 80.2403 80.5581 73.4437V73.4438Z" stroke="#00D8FF" stroke-width="2.7712"/>
<path fill-rule="evenodd" clip-rule="evenodd" d="M155.1 82.2565L148 71.5299C151.589 71.2132 154.822 68.6132 154.822 63.8632C154.822 59.0299 151.392 55.9365 146.58 55.9365H136.014V82.2365H139.287V71.7865H144.532L151.235 82.2365L155.1 82.2565ZM146.189 68.9282H139.289V58.8732H146.189C149.305 58.8732 151.434 60.9232 151.434 63.8815C151.434 66.8399 149.304 68.9315 146.189 68.9315V68.9282ZM167.285 82.7282C170.402 82.7282 172.964 81.7032 174.857 79.8115L173.437 77.8782C171.937 79.4165 169.73 80.2832 167.562 80.2832C163.462 80.2832 160.937 77.2865 160.7 73.6999H176.117V72.9499C176.117 67.2332 172.725 62.7365 166.967 62.7365C161.525 62.7365 157.584 67.1932 157.584 72.7132C157.584 78.6682 161.645 82.7132 167.284 82.7132L167.285 82.7282ZM173.202 71.5282H160.702C160.86 68.6115 162.869 65.1782 166.932 65.1782C171.27 65.1782 173.162 68.6882 173.202 71.5282ZM195.759 82.2549V69.1632C195.759 64.5499 192.409 62.7349 188.385 62.7349C185.269 62.7349 182.825 63.7599 180.775 65.8899L182.155 67.9399C183.85 66.1265 185.705 65.2982 187.992 65.2982C190.752 65.2982 192.804 66.7565 192.804 69.3199V72.7499C191.265 70.9749 189.097 70.1465 186.494 70.1465C183.26 70.1465 179.827 72.1582 179.827 76.4165C179.827 80.5565 183.257 82.7265 186.494 82.7265C189.057 82.7265 191.227 81.8199 192.804 80.0849V82.2515L195.759 82.2549ZM187.559 80.5982C184.799 80.5982 182.865 78.8649 182.865 76.4582C182.865 74.0132 184.799 72.2782 187.559 72.2782C189.649 72.2782 191.659 73.0665 192.804 74.6449V78.2332C191.66 79.8099 189.649 80.5982 187.559 80.5982ZM210.059 82.7282C213.529 82.7282 215.579 81.3082 217.039 79.4165L215.067 77.6032C213.805 79.2982 212.189 80.0865 210.234 80.0865C206.172 80.0865 203.65 76.9315 203.65 72.7132C203.65 68.4949 206.174 65.3799 210.234 65.3799C212.205 65.3799 213.822 66.1299 215.067 67.8632L217.039 66.0499C215.58 64.1565 213.529 62.7382 210.059 62.7382C204.38 62.7382 200.555 67.0765 200.555 72.7149C200.555 78.3932 204.38 82.7149 210.059 82.7149V82.7282ZM225.992 82.7282C227.725 82.7282 228.792 82.2149 229.542 81.5065L228.675 79.2982C228.28 79.7315 227.509 80.0865 226.664 80.0865C225.364 80.0865 224.73 79.0615 224.73 77.6415V65.8115H228.597V63.2099H224.73V58.0049H221.772V63.2099H218.617V65.8132H221.772V78.2749C221.772 81.1149 223.192 82.7315 225.992 82.7315V82.7282Z" fill="#00D8FF"/>
</svg>
