<svg width="125" height="120" viewBox="0 0 125 120" fill="none" xmlns="http://www.w3.org/2000/svg">
<rect x="1.5" y="1.5" width="117" height="117" rx="58.5" stroke="#87C0FF" stroke-opacity="0.2" stroke-width="3"/>
<rect x="10" y="10" width="100" height="100" rx="50" fill="#87C0FF" fill-opacity="0.2"/>
<g clip-path="url(#clip0_2492_14041)">
<path d="M74.0625 38.9062H62.8125C57.3852 38.9062 52.9688 43.3227 52.9688 48.75C52.9688 53.7008 56.6423 57.8096 61.4062 58.4935V62.8125C61.4062 63.381 61.7482 63.8947 62.2742 64.1116C62.7929 64.3281 63.4013 64.212 63.8068 63.8067L69.0198 58.5938H74.0625C79.4898 58.5938 84 54.1773 84 48.75C84 43.3227 79.4898 38.9062 74.0625 38.9062ZM62.8125 50.1561C62.0357 50.1561 61.4062 49.5264 61.4062 48.7498C61.4062 47.9732 62.0357 47.3436 62.8125 47.3436C63.5891 47.3436 64.2188 47.9732 64.2188 48.7498C64.2188 49.5264 63.5891 50.1561 62.8125 50.1561ZM68.4375 50.1561C67.6607 50.1561 67.0312 49.5264 67.0312 48.7498C67.0312 47.9732 67.6607 47.3436 68.4375 47.3436C69.2141 47.3436 69.8438 47.9732 69.8438 48.7498C69.8438 49.5264 69.2141 50.1561 68.4375 50.1561ZM74.0625 50.1561C73.2857 50.1561 72.6562 49.5264 72.6562 48.7498C72.6562 47.9732 73.2857 47.3436 74.0625 47.3436C74.8391 47.3436 75.4688 47.9732 75.4688 48.7498C75.4688 49.5264 74.8391 50.1561 74.0625 50.1561Z" fill="#0D62B5"/>
<path d="M67.5938 81.0938C69.9201 81.0938 71.8125 79.2013 71.8125 76.875V71.25C71.8125 70.6444 71.4252 70.1074 70.8512 69.9165L62.4335 67.104C62.0214 66.9653 61.5711 67.0284 61.2085 67.2674L57.6297 69.6528C53.8394 67.8456 49.3419 63.348 47.5346 59.5577L49.92 55.9789C50.1603 55.6177 50.2208 55.1659 50.0834 54.7539L47.2709 46.3362C47.0801 45.7623 46.5431 45.375 45.9375 45.375H40.2188C37.8924 45.375 36 47.2477 36 49.574C36 65.776 51.3917 81.0938 67.5938 81.0938Z" fill="#0D62B5"/>
</g>
<rect x="85" y="10" width="40" height="40" rx="20" fill="#0D62B5"/>
<path d="M101.381 36.216C100.397 36.216 99.5214 35.94 98.7534 35.388C97.9854 34.824 97.3794 34.056 96.9354 33.084C96.5034 32.1 96.2874 30.972 96.2874 29.7C96.2874 28.428 96.5034 27.306 96.9354 26.334C97.3794 25.35 97.9794 24.582 98.7354 24.03C99.5034 23.466 100.385 23.184 101.381 23.184C102.377 23.184 103.259 23.466 104.027 24.03C104.795 24.582 105.395 25.35 105.827 26.334C106.271 27.306 106.493 28.428 106.493 29.7C106.493 30.972 106.271 32.1 105.827 33.084C105.395 34.056 104.795 34.824 104.027 35.388C103.271 35.94 102.389 36.216 101.381 36.216ZM101.399 34.326C101.987 34.326 102.509 34.128 102.965 33.732C103.433 33.336 103.793 32.79 104.045 32.094C104.309 31.398 104.441 30.6 104.441 29.7C104.441 28.8 104.309 28.002 104.045 27.306C103.793 26.598 103.433 26.046 102.965 25.65C102.509 25.254 101.981 25.056 101.381 25.056C100.781 25.056 100.253 25.254 99.7974 25.65C99.3414 26.046 98.9814 26.592 98.7174 27.288C98.4654 27.984 98.3394 28.788 98.3394 29.7C98.3394 30.6 98.4654 31.398 98.7174 32.094C98.9814 32.79 99.3414 33.336 99.7974 33.732C100.265 34.128 100.799 34.326 101.399 34.326ZM110.859 36V24.516L111.057 23.4H112.875V36H110.859ZM108.123 27.09V25.2C108.399 25.212 108.711 25.134 109.059 24.966C109.419 24.786 109.773 24.552 110.121 24.264C110.469 23.976 110.781 23.682 111.057 23.382L112.353 24.732C111.933 25.176 111.495 25.584 111.039 25.956C110.583 26.328 110.109 26.616 109.617 26.82C109.137 27.024 108.639 27.114 108.123 27.09Z" fill="white"/>
<defs>
<clipPath id="clip0_2492_14041">
<rect width="48" height="48" fill="white" transform="translate(36 36)"/>
</clipPath>
</defs>
</svg>
