<svg width="295" height="136" viewBox="0 0 295 136" fill="none" xmlns="http://www.w3.org/2000/svg">
<path d="M77.1197 69.4312L83.8864 65.5045L90.5531 69.4312L83.8864 73.2745L77.1197 69.5145V69.4312ZM56.8164 57.8179L83.8997 42.4429L104.033 53.8895L97.3664 65.5029L83.9164 57.8162L63.6164 69.3462L56.8164 57.8179Z" fill="#F6BD3A"/>
<path d="M77.1202 84.8027V77.1161L83.7869 73.2727L90.5536 69.4294V77.1161L83.8869 80.9594V88.6461L77.1202 92.5727V84.8027ZM77.1202 69.4311L70.3536 65.5877L63.5869 69.3477V61.6594L83.8869 50.1294V65.5027L77.1202 69.4311ZM97.2536 61.6611V57.8177L104.02 53.8911L104.104 61.5777L97.3369 65.5044L97.2536 61.6611Z" fill="#EB8C23"/>
<path d="M70.3497 88.4802V65.5885L77.0164 61.8285L77.0997 69.4318L83.8664 73.1918V80.9618L77.0997 77.3685V92.5735L70.3497 88.4802ZM60.1597 67.3435L56.8164 65.3385V57.8218L63.5831 61.6652V69.3518L60.1597 67.3435ZM83.8864 57.8185V50.1318L97.2531 57.8185L97.3364 65.5052L83.8864 57.8185Z" fill="#E35A2B"/>
<path d="M117.108 60.4734V78.1401H114.003V60.4734H107.97V57.4268H123.136V60.4718L117.108 60.4734ZM133.416 66.8901C133.606 67.6584 133.691 68.449 133.668 69.2401L123.65 72.2101C123.728 72.9601 123.706 72.6551 123.941 73.1884C124.176 73.7218 124.475 74.1584 124.828 74.5218C125.181 74.8851 125.578 75.1218 125.995 75.2884C126.411 75.4551 126.89 75.5418 127.355 75.5384C128.021 75.5384 128.601 75.4301 129.143 75.2134C129.71 74.9821 130.242 74.6737 130.725 74.2968L132.528 76.2468C131.861 76.8905 131.079 77.4023 130.221 77.7551C129.371 78.1101 128.358 78.2884 127.176 78.2884C126.287 78.292 125.406 78.1109 124.59 77.7568C123.756 77.4018 123.056 76.8801 122.446 76.1901C121.836 75.5001 121.353 74.6534 120.996 73.6468C120.64 72.6401 120.463 71.4801 120.463 70.2168C120.463 68.8968 120.63 67.7168 120.966 66.7284C121.303 65.7401 121.766 64.8951 122.356 64.2001C122.942 63.5246 123.675 62.9936 124.5 62.6484C125.376 62.2862 126.317 62.1053 127.265 62.1168C128.368 62.1168 129.331 62.3234 130.148 62.7384C130.965 63.1534 131.648 63.7151 132.188 64.4051C132.75 65.1523 133.161 66.0013 133.4 66.9051L133.416 66.8901ZM130.505 67.5901C130.465 67.0568 130.098 66.4234 129.795 66.0018C129.509 65.6251 129.126 65.3335 128.686 65.1584C128.233 64.9784 127.616 64.9034 127.075 64.9251C126.075 64.9701 124.908 65.3218 124.355 66.0918C123.801 66.8618 123.626 68.1968 123.648 69.6201L130.505 67.5901ZM144.666 77.9468V69.1634C144.666 67.5868 144.383 66.4968 143.823 65.8518C143.263 65.2068 142.478 64.9051 141.49 64.9051C140.465 64.9051 139.676 65.2501 139.123 65.9384C138.57 66.6268 138.295 67.6051 138.295 68.8651V77.9418H135.233V62.4251H138.278V63.9034C138.673 63.3318 139.22 62.9034 139.92 62.5734C140.62 62.2434 141.373 62.1001 142.181 62.1001C143.995 62.1001 145.37 62.6834 146.306 63.8451C147.243 65.0068 147.711 66.7451 147.711 69.0484V77.9484L144.666 77.9468ZM160.22 73.8668C160.22 74.7334 160.056 75.4584 159.731 76.0401C159.422 76.6052 158.981 77.0872 158.445 77.4451C157.911 77.8001 157.278 78.0568 156.611 78.2118C155.888 78.372 155.149 78.4514 154.408 78.4484C153.341 78.4484 152.285 78.2618 151.23 77.8868C150.245 77.5482 149.314 77.0699 148.465 76.4668L149.838 74.1768C150.531 74.6708 151.293 75.0594 152.1 75.3301C152.878 75.5868 153.633 75.7134 154.361 75.7134C156.253 75.7134 157.2 75.1418 157.2 73.9968C157.2 73.4051 156.88 72.9301 156.24 72.5801C155.6 72.2301 154.716 71.8301 153.593 71.4134C152.866 71.145 152.16 70.8242 151.48 70.4534C150.9 70.1268 150.425 69.7784 150.06 69.4034C149.708 69.0486 149.44 68.6191 149.276 68.1468C149.118 67.6834 149.04 67.1468 149.04 66.5351C149.04 65.8451 149.168 65.2351 149.423 64.7018C149.674 64.1762 150.049 63.7196 150.516 63.3718C150.99 63.0168 151.55 62.7501 152.183 62.5718C152.816 62.3934 153.543 62.3051 154.311 62.3051C155.311 62.3051 156.248 62.4634 157.165 62.7784C158.081 63.0934 158.885 63.5084 159.575 64.0201L158.266 66.3434C157.636 65.8901 156.995 65.5551 156.345 65.3384C155.695 65.1218 155.011 65.0134 154.245 65.0134C153.478 65.0134 152.953 65.1468 152.618 65.4134C152.459 65.5315 152.331 65.6855 152.244 65.8629C152.156 66.0402 152.112 66.2357 152.115 66.4334C152.113 66.6222 152.153 66.809 152.233 66.9801C152.311 67.1468 152.46 67.3201 152.676 67.4801C152.947 67.6918 153.239 67.875 153.548 68.0268C154.016 68.26 154.494 68.4719 154.981 68.6618L157.258 69.6234C157.85 69.8917 158.402 70.2399 158.9 70.6584C159.329 71.0242 159.668 71.4846 159.89 72.0034C160.106 72.5151 160.215 73.1368 160.215 73.8668H160.22ZM174.383 70.2884C174.383 71.5718 174.206 72.7184 173.85 73.7334C173.493 74.7484 173.016 75.6068 172.371 76.3051C171.758 76.9926 171.001 77.5376 170.155 77.9018C169.321 78.2684 168.381 78.4484 167.375 78.4484C166.375 78.4484 165.483 78.2568 164.655 77.8718C163.826 77.4854 163.09 76.9256 162.496 76.2301C161.885 75.5218 161.408 74.6734 161.063 73.6868C160.718 72.7001 160.563 71.5968 160.563 70.3751C160.563 69.1134 160.74 67.9801 161.096 66.9751C161.453 65.9701 161.94 65.1168 162.56 64.4168C163.159 63.7255 163.907 63.1796 164.748 62.8201C165.603 62.4568 166.498 62.2734 167.481 62.2734C168.429 62.2655 169.367 62.4622 170.231 62.8501C171.07 63.2279 171.821 63.7769 172.435 64.4618C173.056 65.1518 173.538 65.9951 173.885 66.9901C174.231 67.9851 174.385 69.0851 174.385 70.2868L174.383 70.2884ZM171.308 70.3768C171.308 68.7801 170.975 67.5134 170.258 66.5768C169.541 65.6401 168.588 65.1718 167.346 65.1718C166.809 65.153 166.275 65.2723 165.797 65.5183C165.318 65.7642 164.911 66.1286 164.613 66.5768C163.955 67.5151 163.623 68.7501 163.623 70.2884C163.623 72.0051 163.978 73.3084 164.69 74.2051C165.017 74.6368 165.442 74.984 165.931 75.218C166.419 75.4519 166.957 75.5658 167.498 75.5501C168.07 75.5501 168.591 75.4118 169.065 75.1368C169.542 74.8567 169.955 74.479 170.276 74.0284C170.628 73.5309 170.888 72.9751 171.045 72.3868C171.221 71.7568 171.311 71.0868 171.311 70.3768H171.308ZM184.2 65.8234C183.871 65.6486 183.524 65.51 183.165 65.4101C182.81 65.3101 182.376 65.2434 181.865 65.2434C180.898 65.2434 180.148 65.5768 179.618 66.2484C179.088 66.9201 178.818 67.9151 178.818 69.2351V78.1051H175.773V62.5818H178.818V64.0601C179.2 63.5237 179.701 63.0832 180.281 62.7734C180.92 62.4241 181.638 62.2461 182.366 62.2568C182.996 62.2568 183.533 62.3118 183.916 62.4201C184.301 62.5208 184.665 62.6859 184.995 62.9084L184.195 65.8084L184.2 65.8234Z" fill="#EF6639"/>
<path d="M189.314 60.4732V65.8848H195.257V68.9298H189.314V78.1248H186.209V57.4265H199.542V60.4715L189.314 60.4732ZM200.047 78.1232V58.1665L203.092 56.5698V78.1265L200.047 78.1232ZM218.647 70.2898C218.647 71.5732 218.469 72.7198 218.114 73.7348C217.759 74.7498 217.264 75.6082 216.636 76.3065C216.022 76.9942 215.264 77.5392 214.417 77.9032C213.567 78.2698 212.644 78.4498 211.637 78.4498C210.654 78.4498 209.746 78.2582 208.917 77.8732C208.089 77.4882 207.371 76.9398 206.759 76.2315C206.147 75.5232 205.671 74.6748 205.326 73.6882C204.981 72.7015 204.826 71.5982 204.826 70.3765C204.826 69.1148 205.002 67.9815 205.359 66.9765C205.716 65.9715 206.202 65.1182 206.822 64.4182C207.442 63.7182 208.156 63.1848 209.011 62.8215C209.866 62.4582 210.761 62.2748 211.744 62.2748C212.727 62.2748 213.644 62.4665 214.494 62.8515C215.333 63.2293 216.083 63.7783 216.697 64.4632C217.319 65.1532 217.801 65.9965 218.147 66.9915C218.494 67.9865 218.647 69.0882 218.647 70.2898ZM215.572 70.3782C215.572 68.7815 215.239 67.5148 214.522 66.5782C213.806 65.6415 212.852 65.1732 211.611 65.1732C210.447 65.1732 209.536 65.6398 208.877 66.5782C208.219 67.5165 207.887 68.7515 207.887 70.2898C207.887 72.0065 208.242 73.3098 208.954 74.2065C209.281 74.6382 209.707 74.9854 210.195 75.2194C210.684 75.4533 211.221 75.5672 211.762 75.5515C212.312 75.5575 212.854 75.4147 213.329 75.1382C213.806 74.8581 214.219 74.4804 214.541 74.0298C214.874 73.5665 215.132 73.0198 215.307 72.3882C215.482 71.7565 215.572 71.0882 215.572 70.3782ZM233.667 78.1248H231.067L228.967 70.2915L228.509 68.4748L228.169 66.9815L227.829 68.4898L227.371 70.3232L225.301 78.1298H222.701L218.442 62.6065H221.442L223.276 70.1465L223.719 72.0098L224.044 73.5482L224.427 72.0098L224.901 70.1465L226.971 62.6065H229.426L231.526 70.1765L231.984 72.0265L232.354 73.5498L232.694 71.9998L233.122 70.1498L234.956 62.6098H237.956L233.667 78.1248Z" fill="#A6A7A9"/>
</svg>
