<svg width="126" height="120" viewBox="0 0 126 120" fill="none" xmlns="http://www.w3.org/2000/svg">
<rect x="1.5" y="1.5" width="117" height="117" rx="58.5" stroke="#87C0FF" stroke-opacity="0.3" stroke-width="3"/>
<rect x="10.1875" y="10" width="100" height="100" rx="50" fill="#87C0FF" fill-opacity="0.2"/>
<g clip-path="url(#clip0_2492_14042)">
<path d="M68.3745 80.6623V80.4873H36.1875V80.6623C36.1875 82.5027 37.6848 84 39.5252 84H69.3609C68.737 83.0381 68.3745 81.8919 68.3745 80.6623Z" fill="#0D62B5"/>
<path d="M52.001 39.5127H80.6753V79.2561H84.188V36H52.001V39.5127Z" fill="#0D62B5"/>
<path d="M45.6748 77.6748H71.1865V80.6623C71.1865 82.5027 72.6838 84 74.5242 84C76.3646 84 77.8619 82.5027 77.8619 80.6623V42.3252H45.6748V77.6748ZM55.1627 74.0567H52.3502V71.2442H55.1627V74.0567ZM55.1627 67.7314H52.3502V64.9189H55.1627V67.7314ZM63.8991 74.195L59.5504 69.8462L61.5391 67.8574L63.8991 70.2175L69.249 64.8677L71.2377 66.8564L63.8991 74.195ZM52.1751 45.9433H71.3616V48.7558H52.1751V45.9433ZM52.1751 52.2685H71.3616V55.081H52.1751V52.2685ZM52.1751 58.5937H71.3616V61.4062H52.1751V58.5937Z" fill="#0D62B5"/>
</g>
<rect x="85.1875" y="10" width="40" height="40" rx="20" fill="#0D62B5"/>
<path d="M100.201 36.216C99.2172 36.216 98.3412 35.94 97.5732 35.388C96.8052 34.824 96.1992 34.056 95.7552 33.084C95.3232 32.1 95.1072 30.972 95.1072 29.7C95.1072 28.428 95.3232 27.306 95.7552 26.334C96.1992 25.35 96.7992 24.582 97.5552 24.03C98.3232 23.466 99.2052 23.184 100.201 23.184C101.197 23.184 102.079 23.466 102.847 24.03C103.615 24.582 104.215 25.35 104.647 26.334C105.091 27.306 105.313 28.428 105.313 29.7C105.313 30.972 105.091 32.1 104.647 33.084C104.215 34.056 103.615 34.824 102.847 35.388C102.091 35.94 101.209 36.216 100.201 36.216ZM100.219 34.326C100.807 34.326 101.329 34.128 101.785 33.732C102.253 33.336 102.613 32.79 102.865 32.094C103.129 31.398 103.261 30.6 103.261 29.7C103.261 28.8 103.129 28.002 102.865 27.306C102.613 26.598 102.253 26.046 101.785 25.65C101.329 25.254 100.801 25.056 100.201 25.056C99.6012 25.056 99.0732 25.254 98.6172 25.65C98.1612 26.046 97.8012 26.592 97.5372 27.288C97.2852 27.984 97.1592 28.788 97.1592 29.7C97.1592 30.6 97.2852 31.398 97.5372 32.094C97.8012 32.79 98.1612 33.336 98.6172 33.732C99.0852 34.128 99.6192 34.326 100.219 34.326ZM106.979 36V34.398C106.979 34.026 107.075 33.642 107.267 33.246C107.459 32.838 107.729 32.43 108.077 32.022C108.437 31.614 108.857 31.23 109.337 30.87L111.533 29.286C111.809 29.094 112.061 28.872 112.289 28.62C112.529 28.368 112.721 28.104 112.865 27.828C113.009 27.54 113.081 27.258 113.081 26.982C113.081 26.634 112.991 26.316 112.811 26.028C112.643 25.74 112.397 25.512 112.073 25.344C111.761 25.176 111.377 25.092 110.921 25.092C110.513 25.092 110.147 25.176 109.823 25.344C109.511 25.5 109.253 25.71 109.049 25.974C108.845 26.238 108.701 26.526 108.617 26.838L106.475 26.442C106.595 25.866 106.847 25.332 107.231 24.84C107.627 24.336 108.131 23.934 108.743 23.634C109.367 23.334 110.075 23.184 110.867 23.184C111.755 23.184 112.523 23.346 113.171 23.67C113.831 23.994 114.335 24.444 114.683 25.02C115.043 25.584 115.223 26.232 115.223 26.964C115.223 27.708 115.019 28.38 114.611 28.98C114.215 29.568 113.657 30.132 112.937 30.672L110.921 32.166C110.525 32.454 110.201 32.766 109.949 33.102C109.697 33.426 109.523 33.774 109.427 34.146H115.385V36H106.979Z" fill="white"/>
<defs>
<clipPath id="clip0_2492_14042">
<rect width="48" height="48" fill="white" transform="translate(36.1875 36)"/>
</clipPath>
</defs>
</svg>
