<svg width="216" height="85" viewBox="0 0 216 85" fill="none" xmlns="http://www.w3.org/2000/svg">
<g clip-path="url(#clip0_660_42)">
<path d="M108.923 63.9499C107.638 63.9607 106.362 63.7272 105.163 63.2618C104.036 62.8256 103.014 62.1534 102.168 61.2903C101.31 60.4028 100.645 59.3481 100.213 58.192C99.2768 55.5571 99.2768 52.6802 100.213 50.0453C100.644 48.8874 101.308 47.8307 102.165 46.9407C103.012 46.0807 104.032 45.4108 105.157 44.9755C107.592 44.0563 110.279 44.0563 112.714 44.9755C113.839 45.4111 114.859 46.081 115.705 46.9407C116.562 47.8307 117.227 48.8874 117.658 50.0453C118.594 52.6802 118.594 55.5571 117.658 58.192C117.227 59.3477 116.564 60.4023 115.708 61.2903C114.862 62.1509 113.842 62.8213 112.716 63.2568C111.507 63.7261 110.22 63.9613 108.923 63.9499ZM108.923 63.1641C110.814 63.1641 112.284 62.3728 113.334 60.7902C114.383 59.2077 114.908 56.9838 114.907 54.1187C114.907 51.2535 114.383 49.0296 113.334 47.4471C112.285 45.8645 110.815 45.0732 108.923 45.0732C107.032 45.0732 105.567 45.8645 104.528 47.4471C103.488 49.0296 102.969 51.2535 102.97 54.1187C102.97 56.9838 103.49 59.2077 104.529 60.7902C105.569 62.3728 107.033 63.1662 108.923 63.1703V63.1641Z" fill="white"/>
<path d="M129.868 63.9502C127.302 63.9502 125.364 63.2952 124.054 61.985C122.744 60.6748 122.088 58.7831 122.087 56.3098V45.3831H119.706V44.6211H127.74V45.3806H125.154V56.5041C125.154 58.6573 125.58 60.3055 126.433 61.4486C127.285 62.5916 128.524 63.1656 130.15 63.1707C131.797 63.1707 133.141 62.5949 134.181 61.4435C135.221 60.2921 135.741 58.6298 135.74 56.4565V45.3894H133.211V44.6211H139.054V45.3806H136.695V56.4477C136.695 58.9193 136.072 60.7876 134.826 62.0527C133.581 63.3177 131.928 63.9502 129.868 63.9502Z" fill="white"/>
<path d="M139.316 63.613V62.861H141.957V45.383H139.316V44.621H147.604C148.706 44.6084 149.805 44.7347 150.876 44.997C151.778 45.2143 152.634 45.5899 153.404 46.1062C154.088 46.5732 154.647 47.2 155.033 47.9323C155.427 48.7061 155.625 49.5647 155.609 50.4327C155.601 51.5653 155.284 52.6742 154.692 53.6401C154.406 54.1107 154.066 54.5471 153.681 54.941C153.336 55.2889 152.962 55.6071 152.563 55.8923C151.6 56.5641 149.51 57.1883 146.83 57.1294H144.998L144.99 62.8484H147.998V63.6004L139.316 63.613ZM144.994 45.4106L145.002 56.4701L146.929 56.4939C147.805 56.5228 148.673 56.326 149.45 55.9224C151.994 54.5738 152.238 51.468 152.257 51.166C152.292 50.6019 152.436 48.297 150.663 46.694C149.274 45.4407 147.585 45.4043 147.13 45.4106H144.994Z" fill="white"/>
<path d="M40.493 64.6972C36.1326 55.9814 39.5504 45.9621 44.4849 41.1656C47.2297 38.4972 50.877 37.0069 50.877 37.0069C53.3837 36.0043 56.1778 35.5029 59.2594 35.5029C61.6813 35.5027 64.0811 35.9633 66.3308 36.8603C67.9849 37.5174 69.5403 38.3998 70.9531 39.4823C71.3024 38.4997 71.6512 37.5166 71.9996 36.5332L73.4636 36.5808L73.4748 46.9986H71.3855C70.9837 45.0985 70.1356 43.3212 68.9114 41.8135C65.2767 37.3817 59.8083 37.3441 59.2606 37.3504C57.4206 37.3677 55.6089 37.8054 53.964 38.63C47.0705 42.1306 45.9927 51.6649 45.8172 53.8896C45.668 55.7959 44.9511 64.919 51.3482 70.2671C52.9947 71.6238 54.9121 72.6131 56.972 73.1686C58.9786 73.4917 61.0323 73.3579 62.98 72.7769C64.9276 72.196 66.7191 71.183 68.2208 69.8134L68.2659 59.2602L61.5354 59.2414V57.5067H77.6748V59.2401H74.0251L73.9987 70.4563C72.224 71.944 69.4478 73.8241 65.6991 74.8017C57.6275 76.9023 45.48 74.6638 40.493 64.6972Z" fill="white"/>
<path d="M146.926 70.296V70.1004H147.545V66.0647H146.926V65.8691H149.109V66.0647H148.395V70.0867H149.736C149.84 70.089 149.942 70.0628 150.033 70.0109C150.123 69.9589 150.197 69.8833 150.247 69.7921C150.372 69.5953 150.443 69.2908 150.47 68.8947H150.658V70.296H146.926Z" fill="white"/>
<path d="M151.178 70.296V70.1004H151.798V66.0647H151.178V65.8691H153.361V66.0647H152.648V70.0867H153.989C154.093 70.0889 154.196 70.0626 154.286 70.0107C154.376 69.9588 154.45 69.8832 154.5 69.7921C154.626 69.5953 154.696 69.2908 154.723 68.8947H154.911V70.296H151.178Z" fill="white"/>
<path d="M157.856 70.3813C157.53 70.3866 157.205 70.3322 156.898 70.2208C156.628 70.1218 156.382 69.9658 156.178 69.7634C155.975 69.5567 155.819 69.3082 155.723 69.0352C155.614 68.7295 155.56 68.407 155.565 68.0826C155.56 67.7566 155.62 67.4329 155.74 67.1301C155.848 66.8565 156.012 66.6084 156.221 66.4019C156.431 66.1995 156.682 66.0437 156.956 65.9444C157.056 65.9081 157.343 65.809 157.972 65.8191C158.461 65.8272 158.947 65.8949 159.42 66.0209C159.42 66.4169 159.42 66.8134 159.42 67.2103H159.169C159.103 66.8783 158.94 66.5732 158.702 66.3329C158.597 66.2242 158.47 66.1379 158.331 66.0793C158.191 66.0207 158.041 65.991 157.89 65.992C157.69 65.9858 157.492 66.0325 157.316 66.1273C157.14 66.2222 156.992 66.3619 156.887 66.5322C156.651 66.8919 156.534 67.4096 156.534 68.0814C156.534 68.7532 156.651 69.2683 156.887 69.6242C156.988 69.7911 157.131 69.9283 157.302 70.022C157.473 70.1158 157.666 70.1627 157.861 70.1582C158.153 70.1638 158.441 70.0924 158.697 69.9514C158.941 69.8114 159.152 69.6203 159.316 69.3911L159.499 69.5227C159.314 69.7857 159.069 70.0008 158.784 70.1499C158.499 70.299 158.182 70.3779 157.861 70.38L157.856 70.3813Z" fill="white"/>
<path d="M70.5303 19.7172V19.2885H71.909V10.5301H70.3824C70.1719 10.5269 69.964 10.5776 69.7786 10.6774C69.5932 10.7772 69.4365 10.9229 69.3233 11.1004C69.0588 11.4764 68.9072 12.048 68.8721 12.8H68.4961V10.0664H77.0189V12.7937H76.6429C76.6061 12.0417 76.4557 11.4752 76.1917 11.0942C76.0785 10.9166 75.9217 10.771 75.7364 10.6711C75.551 10.5713 75.3431 10.5206 75.1326 10.5239H73.5784V19.2885H74.9571V19.7172H70.5303Z" fill="white"/>
<path d="M78.0283 19.7172V19.2885H79.2691V10.4951H78.0283V10.0664H82.128V10.4951H80.9411V14.4068H85.4055V10.4951H84.2186V10.0664H88.3183V10.4951H87.0775V19.2885H88.3183V19.7172H84.2186V19.2885H85.4055V14.863H80.9411V19.2885H82.128V19.7172H78.0283Z" fill="white"/>
<path d="M89.3955 19.7172V19.2885H90.6363V10.4951H89.3955V10.0664H97.2578V12.5932H96.8818C96.8542 11.8412 96.7263 11.3085 96.497 10.9951C96.2676 10.6818 95.9092 10.5301 95.4241 10.5301H92.3359V14.4694H94.2234C94.4336 14.4773 94.6435 14.4484 94.8438 14.3842C94.9828 14.3367 95.1048 14.2496 95.1947 14.1335C95.2837 14.0031 95.3412 13.8538 95.3627 13.6974C95.3945 13.5169 95.4195 13.308 95.4379 13.0707H95.8139V16.3545H95.4379C95.4191 16.1038 95.394 15.8782 95.3627 15.6977C95.3399 15.5397 95.2826 15.3886 95.1947 15.2553C95.1078 15.1361 94.9847 15.0482 94.8438 15.0046C94.6425 14.9453 94.4331 14.9187 94.2234 14.9256H92.3359V19.266H95.5582C96.0596 19.266 96.4239 19.0801 96.6511 18.7082C96.8784 18.3364 97.0088 17.7607 97.0422 16.9811H97.4182V19.7172H89.3955Z" fill="white"/>
<path d="M77.2059 42.3049L69.38 23.0522H67.5V22.2764H75.6906V23.0522H72.7127L78.6849 38.1099L84.7711 23.0522H81.9837V22.2764H87.6438V23.0522H85.7375L77.9454 42.3049H77.2059Z" fill="white"/>
<path d="M88.3545 41.7008V40.9249H91.0379V23.0522H88.3545V22.2764H104.627V27.3048H103.912C103.875 25.6955 103.632 24.5892 103.184 23.9859C102.736 23.3827 102.008 23.081 101.001 23.081H94.1487V31.1839H98.5166C99.5444 31.1839 100.177 30.975 100.415 30.5572C100.654 30.1395 100.811 29.4209 100.887 28.4015H101.6V34.8099H100.887C100.81 33.7562 100.653 33.0234 100.415 32.6115C100.178 32.1996 99.5452 31.9936 98.5166 31.9936H94.1487V40.9011H101.293C102.339 40.9011 103.076 40.5519 103.505 39.8533C103.934 39.1548 104.184 37.9524 104.257 36.2462H104.975V41.7008H88.3545Z" fill="white"/>
<path d="M107.551 41.7008V40.9249H110.224V23.0522H107.551V22.2764H115.939C118.328 22.2764 120.208 22.7409 121.58 23.6701C122.951 24.5992 123.641 25.8777 123.65 27.5053C123.65 28.9425 123.138 30.0826 122.113 30.9257C121.089 31.7688 119.752 32.2284 118.103 32.3044V32.3621C119.091 32.3196 120.069 32.5731 120.913 33.0903C121.913 33.7165 122.661 34.6756 123.023 35.7987C123.218 36.5093 123.373 37.2303 123.487 37.9583C123.668 39.1139 123.683 39.5989 124.076 40.0626C124.487 40.5464 125.079 40.7144 125.49 40.7808H126.265C126.265 41.0816 126.265 41.3824 126.265 41.6845H123.106C122.813 41.6718 122.524 41.6113 122.25 41.5053C120.834 40.9463 119.889 39.2806 119.479 37.0333C119.412 36.6661 119.019 34.6344 117.767 33.5603C117.517 33.3504 117.245 33.1672 116.957 33.0138C116.386 32.7233 115.756 32.5684 115.115 32.5614H113.295V40.9224H115.939V41.6983L107.551 41.7008ZM113.295 31.788H115.802C117.072 31.788 118.138 31.4576 119.001 30.7966C119.865 30.1357 120.294 29.0202 120.291 27.4502C120.291 26.1091 119.888 25.0408 119.083 24.2454C118.277 23.4499 117.097 23.0526 115.542 23.0534H113.295V31.788Z" fill="white"/>
<path d="M131.258 41.7008V40.9249H134.187V23.081H130.717C129.787 23.081 129.077 23.4399 128.587 24.1576C128.096 24.8754 127.812 26.049 127.733 27.6783H127.022V22.2764H144.484V27.6783H143.773C143.697 26.0498 143.413 24.8762 142.92 24.1576C142.427 23.4391 141.717 23.0802 140.789 23.081H137.259V40.9249H140.215V41.7008H131.258Z" fill="white"/>
<path d="M156.153 42.0463C154.85 42.0573 153.556 41.8182 152.342 41.3419C151.201 40.8952 150.168 40.2093 149.314 39.3303C148.445 38.4182 147.773 37.3377 147.339 36.1555C146.391 33.4585 146.391 30.5191 147.339 27.822C147.773 26.6394 148.446 25.5584 149.315 24.646C150.17 23.7697 151.203 23.086 152.343 22.6407C154.806 21.7044 157.526 21.7044 159.989 22.6407C161.129 23.0863 162.162 23.77 163.018 24.646C163.888 25.5595 164.562 26.6417 164.998 27.8258C165.946 30.5228 165.946 33.4623 164.998 36.1593C164.563 37.3414 163.89 38.4218 163.022 39.334C162.168 40.2109 161.137 40.8954 159.997 41.3419C158.773 41.8204 157.468 42.0595 156.153 42.0463ZM156.153 41.2416C158.068 41.2416 159.557 40.432 160.618 38.8126C161.679 37.1933 162.21 34.9185 162.211 31.9882C162.211 29.0578 161.68 26.783 160.618 25.1637C159.556 23.5443 158.068 22.7351 156.153 22.7359C154.238 22.7359 152.755 23.5452 151.703 25.1637C150.651 26.7822 150.125 29.057 150.125 31.9882C150.125 34.9202 150.651 37.195 151.703 38.8126C152.755 40.4303 154.238 41.2383 156.153 41.2366V41.2416Z" fill="white"/>
<path d="M182.464 41.7045C178.766 36.1388 175.067 30.5727 171.367 25.0062C171.362 30.3128 171.357 35.6187 171.351 40.9237H174.187V41.7033H167.769V40.9275H170.442V23.0522H167.768V22.2764L173.222 22.2851L184.213 38.2791C184.2 33.2031 184.189 28.1274 184.178 23.0522H180.821V22.2764H187.732V23.0522H185.088C185.093 29.2688 185.098 35.4862 185.104 41.7045H182.464Z" fill="white"/>
<path d="M47.1067 48.2154C44.3301 48.2154 41.7578 47.7466 39.3898 46.8091C37.0956 45.9194 35.008 44.5689 33.2559 42.841C31.5355 41.1339 30.1848 39.0609 29.2039 36.6219C28.2229 34.1829 27.7324 31.4627 27.7324 28.4613C27.7324 25.4592 28.2229 22.739 29.2039 20.3008C30.1848 17.8626 31.5355 15.7896 33.2559 14.0817C35.008 12.3538 37.0956 11.0033 39.3898 10.1136C41.7586 9.17606 44.3309 8.70689 47.1067 8.70606C49.8824 8.70522 52.4547 9.17439 54.8236 10.1136C57.1177 11.0036 59.2052 12.3541 60.9574 14.0817C62.6787 15.7887 64.0298 17.8634 65.0108 20.3058C65.9917 22.7482 66.4818 25.4683 66.481 28.4663C66.481 31.4677 65.9909 34.1879 65.0108 36.6269C64.0307 39.0659 62.6795 41.1373 60.9574 42.841C59.2052 44.5686 57.1177 45.9191 54.8236 46.8091C52.4547 47.7466 49.8824 48.2154 47.1067 48.2154ZM47.1067 46.4143C50.7698 46.4143 53.5919 44.848 55.5731 41.7155C57.5542 38.583 58.5439 34.1649 58.5422 28.4613C58.5422 22.7586 57.5525 18.3405 55.5731 15.2072C53.5936 12.0738 50.7715 10.5071 47.1067 10.5071C43.4427 10.5071 40.6206 12.0738 38.6403 15.2072C36.66 18.3405 35.6703 22.7586 35.6711 28.4613C35.6711 34.1649 36.6609 38.583 38.6403 41.7155C40.6198 44.848 43.4419 46.4143 47.1067 46.4143Z" fill="white"/>
<path d="M79.3916 63.7626V62.9867H82.065V45.1127H79.3916V44.3369H87.7815C90.1687 44.3369 92.0488 44.8015 93.4216 45.7306C94.7944 46.6598 95.4817 47.9386 95.4833 49.5671C95.4833 51.0035 94.9711 52.1432 93.9467 52.9863C92.9223 53.8294 91.5854 54.2889 89.936 54.365V54.4226C90.9267 54.3786 91.9078 54.6318 92.7536 55.1496C93.7517 55.7785 94.4967 56.7387 94.8579 57.8618C95.0529 58.572 95.2077 59.2925 95.3217 60.0201C95.5021 61.1769 95.5172 61.662 95.9107 62.1257C96.3218 62.6095 96.9134 62.7762 97.3245 62.8439H98.0991C98.0991 63.1447 98.0991 63.4455 98.0991 63.7463H94.9482C94.6549 63.7348 94.3656 63.6747 94.0921 63.5683C92.6758 63.0081 91.7308 61.3424 91.321 59.0963C91.2545 58.7291 90.861 56.6962 89.6089 55.6233C89.3586 55.4133 89.0873 55.2297 88.7992 55.0756C88.2279 54.7856 87.5975 54.6308 86.9568 54.6231H85.1357V62.9855H87.7815V63.7613L79.3916 63.7626ZM85.1357 53.8486H87.6424C88.9125 53.8486 89.9791 53.5181 90.8422 52.8572C91.7053 52.1963 92.1352 51.0804 92.1319 49.5095C92.1319 48.1726 91.7291 47.1047 90.9237 46.3059C90.1182 45.5071 88.9379 45.1094 87.383 45.1127H85.1357V53.8486Z" fill="white"/>
</g>
<defs>
<clipPath id="clip0_660_42">
<rect width="160" height="66.816" fill="white" transform="translate(27.7324 8.70605)"/>
</clipPath>
</defs>
</svg>
