<svg width="216" height="85" viewBox="0 0 216 85" fill="none" xmlns="http://www.w3.org/2000/svg">
<path fill-rule="evenodd" clip-rule="evenodd" d="M38.2549 48.1346C38.2549 41.4008 43.4835 36.5684 50.6925 36.5684C57.8224 36.5684 63.051 41.4008 63.051 48.1346C63.051 54.7891 57.8224 59.6216 50.6925 59.6216C43.4835 59.6216 38.2549 54.7891 38.2549 48.1346ZM55.6042 48.1346C55.6042 44.6489 53.3861 42.5891 50.6925 42.5891C47.9198 42.5891 45.7016 44.6489 45.7016 48.1346C45.7016 51.5411 47.9198 53.6008 50.6925 53.6008C53.3861 53.6008 55.6042 51.5411 55.6042 48.1346Z" fill="white"/>
<path d="M65.8242 37.0439H73.1918V53.3634H83.1736V59.1465H65.8242V37.0439Z" fill="white"/>
<path d="M96.0862 51.1452V59.1465H88.6395V50.9868L80.3213 37.0439H88.1641L92.6797 44.7284L97.1953 37.0439H104.325L96.0862 51.1452Z" fill="white"/>
<path d="M102.424 56.3738L106.464 51.6206C107.573 53.0465 108.682 53.7595 109.95 53.7595C111.455 53.7595 112.326 52.8881 112.326 51.066V42.6686H104.8V37.0439H119.615V50.5907C119.615 56.6907 116.446 59.6219 110.584 59.6219C107.098 59.6219 104.246 58.5128 102.424 56.3738Z" fill="white"/>
<path fill-rule="evenodd" clip-rule="evenodd" d="M137.519 55.2647H129.201L127.696 59.1465H120.17L129.756 37.0439H137.123L146.709 59.1465H139.024L137.519 55.2647ZM135.46 49.8777L133.321 44.3323L131.182 49.8777H135.46Z" fill="white"/>
<path d="M146.709 48.1346C146.709 41.3216 151.858 36.5684 158.988 36.5684C163.266 36.5684 166.673 38.1528 168.812 41.0047L164.138 45.2034C162.87 43.5398 161.286 42.5891 159.305 42.5891C156.295 42.5891 154.156 44.7281 154.156 48.1346C154.156 51.4619 156.295 53.6008 159.305 53.6008C161.286 53.6008 162.87 52.6502 164.138 50.9865L168.812 55.1852C166.673 58.0372 163.266 59.6216 158.988 59.6216C151.858 59.6216 146.709 54.8684 146.709 48.1346Z" fill="white"/>
<path d="M179.903 51.779L178.239 53.6803V59.1465H170.951V37.0439H178.239V45.0452L185.528 37.0439H193.608L184.736 46.7881L194.004 59.1465H185.449L179.903 51.779Z" fill="white"/>
<path d="M50.2979 31.6561L50.4563 31.4185C50.7732 31.7353 51.3277 31.973 51.8823 31.973C52.7537 31.973 53.1498 31.5769 53.1498 31.1016C53.1498 29.834 50.4563 30.6262 50.4563 29.0418C50.4563 28.4081 50.9316 27.8535 51.9615 27.8535C52.4368 27.8535 52.9121 28.012 53.3082 28.2496L53.1498 28.4873C52.8329 28.2496 52.3576 28.1704 51.9615 28.1704C51.1693 28.1704 50.7732 28.5665 50.7732 29.0418C50.7732 30.3094 53.4667 29.5172 53.4667 31.1016C53.4667 31.7353 52.9914 32.2899 51.8823 32.2899C51.2485 32.2899 50.6147 32.0522 50.2979 31.6561Z" fill="white"/>
<path fill-rule="evenodd" clip-rule="evenodd" d="M66.4592 31.0232H63.9242L63.3696 32.2115H63.0527L65.0333 27.9336H65.3501L67.3307 32.2115H67.0138L66.4592 31.0232ZM66.3008 30.7855L65.1917 28.2505L64.0826 30.7855H66.3008Z" fill="white"/>
<path d="M77.3916 27.9336H77.7085V32.2115H77.3916V27.9336Z" fill="white"/>
<path d="M91.9673 27.9336V32.2115H91.7296L88.7192 28.4881V32.2115H88.4023V27.9336H88.7192L91.6504 31.657V27.9336H91.9673Z" fill="white"/>
<path d="M103.534 28.1713H101.949V27.9336H105.435V28.1713H103.851V32.2115H103.534V28.1713Z" fill="white"/>
<path d="M126.271 27.9336H126.587V31.9739H129.043V32.2115H126.271V27.9336Z" fill="white"/>
<path fill-rule="evenodd" clip-rule="evenodd" d="M138.628 30.0717C138.628 28.8042 139.579 27.8535 140.846 27.8535C142.193 27.8535 143.144 28.8042 143.144 30.0717C143.144 31.3392 142.193 32.2899 140.846 32.2899C139.579 32.2899 138.628 31.3392 138.628 30.0717ZM142.827 30.0717C142.827 29.0418 141.955 28.1704 140.846 28.1704C139.816 28.1704 138.945 29.0418 138.945 30.0717C138.945 31.1016 139.816 31.973 140.846 31.973C141.955 31.973 142.827 31.1016 142.827 30.0717Z" fill="white"/>
<path d="M153.444 30.3894V27.9336H153.761V30.3894C153.761 31.4985 154.237 31.9739 155.187 31.9739C156.059 31.9739 156.534 31.4985 156.534 30.3894V27.9336H156.851V30.3894C156.851 31.657 156.217 32.2907 155.187 32.2907C154.078 32.2907 153.444 31.657 153.444 30.3894Z" fill="white"/>
<path d="M167.622 27.9336H167.939V32.2115H167.622V27.9336Z" fill="white"/>
<path d="M178.239 31.6561L178.398 31.4185C178.715 31.7353 179.19 31.973 179.824 31.973C180.695 31.973 181.012 31.5769 181.012 31.1016C181.012 29.834 178.318 30.6262 178.318 29.0418C178.318 28.4081 178.794 27.8535 179.903 27.8535C180.378 27.8535 180.854 28.012 181.17 28.2496L181.091 28.4873C180.695 28.2496 180.299 28.1704 179.903 28.1704C179.031 28.1704 178.635 28.5665 178.635 29.0418C178.635 30.3094 181.329 29.5172 181.329 31.1016C181.329 31.7353 180.854 32.2899 179.824 32.2899C179.19 32.2899 178.556 32.0522 178.239 31.6561Z" fill="white"/>
<path d="M30.0965 60.8891L25.6602 63.2657V26.9033L30.0965 24.2891V60.8891Z" fill="#6C9100"/>
<path d="M34.5329 42.4306V47.6591L25.6602 42.3514L30.0965 39.8955L34.5329 42.4306Z" fill="#A8DE0C"/>
<path d="M37.1455 30.8643H41.5027L42.5325 31.498C42.8494 31.6565 43.1135 31.9205 43.3247 32.2902C43.4832 32.6071 43.5624 32.9504 43.5624 33.3201V36.3305H39.0468V35.9344C39.0468 35.5647 38.9676 35.2214 38.8091 34.9045C38.5979 34.5876 38.3338 34.3236 38.0169 34.1123L37.1455 33.637V30.8643Z" fill="url(#paint0_linear_660_62)"/>
<path d="M42.4539 31.4191L37.9384 33.8749L21.1436 24.21L25.5799 21.5957L42.4539 31.4191Z" fill="#A8DE0C"/>
<path d="M43.5632 49.1647C43.5632 49.5872 43.4575 49.9569 43.2463 50.2738C43.0878 50.5907 42.8238 50.8547 42.4541 51.066L37.9385 53.6803L39.0476 35.6972L43.5632 33.1621V49.1647Z" fill="#6C9100"/>
<path fill-rule="evenodd" clip-rule="evenodd" d="M38.8098 34.6661C38.9682 35.0358 39.0474 35.4055 39.0474 35.7752V51.7778C39.0474 53.4414 37.3046 54.4713 35.8786 53.5999L25.6591 47.6583V63.2648L21.1436 60.7298V24.209L38.0176 33.9531C38.3345 34.1116 38.5985 34.3492 38.8098 34.6661ZM34.5319 43.8557V38.3895C34.5319 38.0198 34.4526 37.6765 34.2942 37.3596C34.0829 37.0427 33.8189 36.7787 33.502 36.5674L25.6591 32.0518V42.3505L31.363 45.6778C32.789 46.5492 34.5319 45.5194 34.5319 43.8557Z" fill="#85B200"/>
<defs>
<linearGradient id="paint0_linear_660_62" x1="41.1065" y1="34.5084" x2="40.0767" y2="32.7656" gradientUnits="userSpaceOnUse">
<stop stop-color="#6C9100"/>
<stop offset="1" stop-color="#A8DE0C"/>
</linearGradient>
</defs>
</svg>
