<?xml version="1.0" encoding="UTF-8"?>
<svg xmlns="http://www.w3.org/2000/svg" width="200" height="58" viewBox="0 0 200 58" fill="none">
  <g clip-path="url(#clip0_624_6893)">
    <path d="M22.6 1.99859C23 1.99859 23.2 2.19859 23.6 2.39859C21.2 3.39859 18.8 5.99859 17.6 11.5986L13.2 12.7986C14.6 8.79859 17.4 1.99859 22.6 1.99859ZM24.8 3.99859C25.2 5.19859 25.6 6.59859 25.6 8.79859C25.6 8.99859 25.6 8.99859 25.6 9.19859L19.8 10.7986C21 6.59859 23 4.79859 24.8 3.99859ZM30 7.59859L27.4 8.39859C27.4 8.19859 27.4 7.99859 27.4 7.79859C27.4 5.99859 27.2 4.59859 26.8 3.39859C28.2 3.79859 29.4 5.59859 30 7.59859ZM43 10.7986C43 10.5986 42.8 10.3986 42.6 10.3986C42.2 10.3986 38 9.99859 38 9.99859C38 9.99859 35 6.99859 34.6 6.79859C34.2 6.39859 33.6 6.59859 33.4 6.59859C33.4 6.59859 32.8 6.79859 31.8 7.19859C30.8 4.39859 29 1.79859 26 1.79859H25.8C25 0.598591 23.8 0.198591 22.8 0.198591C15.6 -0.00140895 12.2 8.99859 11 13.5986C9.4 13.9986 7.8 14.5986 6 15.1986C4.4 15.5986 4.4 15.7986 4.2 17.1986C4 18.1986 0 49.7986 0 49.7986L31.8 55.7986L49 51.9986C49 51.9986 43 11.1986 43 10.7986Z" fill="#8DB849"></path>
    <path d="M42.3969 10.4016C42.1969 10.4016 37.9969 10.0016 37.9969 10.0016C37.9969 10.0016 34.9969 7.00156 34.5969 6.80156C34.3969 6.60156 34.3969 6.60156 34.1969 6.60156L31.7969 55.8016L48.9969 52.0016C48.9969 52.0016 42.9969 11.2016 42.9969 10.8016C42.9969 10.6016 42.5969 10.4016 42.3969 10.4016Z" fill="#5A863E"></path>
    <path d="M26.0063 19.9983L23.8062 26.3983C23.8062 26.3983 22.0063 25.3983 19.6063 25.3983C16.2063 25.3983 16.0063 27.3983 16.0063 27.9983C16.0063 30.7983 23.6063 31.9983 23.6063 38.7983C23.6063 44.1983 20.2063 47.5983 15.6063 47.5983C10.2063 47.5983 7.40625 44.1983 7.40625 44.1983L8.80625 39.3983C8.80625 39.3983 11.6062 41.7983 14.0062 41.7983C15.6062 41.7983 16.2063 40.5983 16.2063 39.5983C16.2063 35.7983 10.0062 35.5983 10.0062 29.3983C10.0062 24.1983 13.8063 19.1983 21.2063 19.1983C24.6063 18.9983 26.0063 19.9983 26.0063 19.9983Z" fill="#FFFFFE"></path>
    <path d="M69.2 31.8C67.4 30.8 66.6 30 66.6 29C66.6 27.6 67.8 26.8 69.8 26.8C72 26.8 74 27.8 74 27.8L75.6 23C75.6 23 74.2 21.8 70 21.8C64 21.8 60 25.2 60 30C60 32.8 62 34.8 64.4 36.2C66.4 37.4 67.2 38.2 67.2 39.4C67.2 40.6 66.2 41.8 64.2 41.8C61.4 41.8 58.6 40.4 58.6 40.4L57 45.2C57 45.2 59.4 46.8 63.6 46.8C69.6 46.8 74 43.8 74 38.4C74 35.4 71.8 33.2 69.2 31.8ZM93.4 21.6C90.4 21.6 88 23 86.2 25.2L88.8 11.6H82L75.4 46.2H82.2L84.4 34.4C85.2 30 87.6 27.2 89.8 27.2C91.4 27.2 92 28.2 92 29.8C92 30.8 92 31.8 91.8 32.8L89.2 46.4H96L98.6 32.4C98.8 31 99 29.2 99 28C99 24 97 21.6 93.4 21.6ZM110.8 41.4C108.4 41.4 107.6 39.4 107.6 37C107.6 33.2 109.6 26.8 113.2 26.8C115.6 26.8 116.4 28.8 116.4 30.8C116.4 35.2 114.4 41.4 110.8 41.4ZM114.2 21.6C106 21.6 100.6 29 100.6 37.2C100.6 42.4 103.8 46.6 110 46.6C118 46.6 123.4 39.4 123.4 31C123.4 26.2 120.6 21.6 114.2 21.6ZM134.2 41.6C132.4 41.6 131.4 40.6 131.4 40.6L132.6 34.2C133.4 30 135.6 27.2 138 27.2C140 27.2 140.8 29.2 140.8 31C140.6 35.4 138 41.6 134.2 41.6ZM140.8 21.6C136.2 21.6 133.6 25.6 133.6 25.6L134 22H128C127.8 24.4 127.2 28.2 126.6 31L121.8 55.8H128.6L130.4 45.8H130.6C130.6 45.8 132 46.6 134.6 46.6C142.6 46.6 147.8 38.4 147.8 30.2C147.8 25.8 145.8 21.6 140.8 21.6ZM157.4 12C155.2 12 153.6 13.8 153.6 16C153.6 18 154.8 19.4 156.8 19.4C159 19.4 160.8 18 160.8 15.4C160.8 13.4 159.4 12 157.4 12ZM148 46.2H154.8L159.4 22.2H152.6L148 46.2ZM176.6 22.2H171.8L172 21C172.4 18.6 173.8 16.6 176 16.6C177.2 16.6 178.2 17 178.2 17L179.6 11.6C179.6 11.6 178.4 11 176 11C173.6 11 171.2 11.6 169.4 13.2C167 15.2 166 18 165.4 20.8L165.2 22H162L161 27.2H164.2L160.6 46.2H167.4L171 27.2H175.6L176.6 22.2ZM192.8 22.2C192.8 22.2 188.6 32.8 186.6 38.6C186.4 36.8 185 22.2 185 22.2H177.8L181.8 44.2C181.8 44.6 181.8 45 181.6 45.4C180.8 47 179.4 48.4 178 49.4C176.8 50.4 175.2 51 174.2 51.4L176 57.2C177.4 57 180.2 55.8 182.6 53.6C185.6 50.8 188.6 46.2 191.4 40.2L199.6 22.4L192.8 22.2Z" fill="#1A1919"></path>
  </g>
  <defs>
    <clipPath id="clip0_624_6893">
      <rect width="200" height="57.2" fill="white"></rect>
    </clipPath>
  </defs>
</svg>
