<?xml version="1.0" encoding="UTF-8"?>
<svg xmlns="http://www.w3.org/2000/svg" width="200" height="51" viewBox="0 0 200 51" fill="none">
  <path d="M64.5867 19.7738C64.5867 16.1472 61.1075 12.3439 55.0602 12.3439C48.2785 12.3439 40.8328 17.3372 39.6927 27.3034C38.5276 37.3671 44.763 41.8391 51.0483 41.8391C57.3336 41.8391 60.6247 39.3799 63.9906 36.1001C61.0961 32.4509 57.3585 34.1372 56.6423 34.5089C55.4566 35.1696 54.114 35.4963 52.7573 35.4541C50.3321 35.4541 47.8569 34.3616 47.8569 29.8148C63.3967 28.2735 64.5867 23.3777 64.5867 19.7738ZM56.8848 20.3699C56.7851 21.4873 56.3408 23.4004 48.4712 24.4725C50.1258 18.5566 53.299 18.1124 54.7565 18.1124C55.0518 18.0989 55.3466 18.1491 55.6209 18.2597C55.8951 18.3703 56.1423 18.5386 56.3457 18.7532C56.5492 18.9678 56.704 19.2236 56.7998 19.5034C56.8955 19.7831 56.9299 20.0802 56.9007 20.3744L56.8848 20.3699ZM30.5651 21.34L26.9521 32.7455L24.4022 12.9423C18.713 12.9423 15.6531 17.0176 14.0574 21.3151L9.65117 32.7705L9.03239 21.4375C8.69694 16.1699 3.88721 12.9649 0 12.9649L4.70092 41.6147C10.6621 41.5921 13.8806 37.5394 15.5647 33.2419L19.291 23.5023C19.325 23.899 21.8659 41.617 21.8659 41.617C27.8542 41.617 31.0728 37.8159 32.7977 33.6658L41.1841 12.9672C35.2796 12.9672 32.1675 17.0176 30.5605 21.34H30.5651ZM86.5636 12.2736C82.8759 12.2736 80.0585 14.2864 77.6786 17.242V17.2193L79.8046 0C74.9042 0 70.9196 4.27481 70.1535 10.6349L66.468 41.3926C69.2899 41.3926 72.2841 40.5721 73.8933 38.4846C75.3304 40.3477 77.4814 41.8391 80.675 41.8391C88.939 41.8391 94.6078 32.1993 94.6078 23.1533C94.5579 14.9029 90.5732 12.2963 86.5885 12.2963L86.5636 12.2736ZM85.793 27.0586C84.9317 32.1018 82.1302 35.5312 79.4352 35.5312C76.7402 35.5312 75.5502 34.314 75.5502 34.314C76.0715 29.8942 76.3934 27.1833 77.3816 24.8464C78.3699 22.5096 80.7226 18.7833 83.1728 18.7833C85.5754 18.7833 86.6633 21.9883 85.7952 27.0564L85.793 27.0586ZM115.218 12.9445H109.452L109.474 12.6453C109.871 8.8692 110.762 6.88139 113.699 6.55727C115.705 6.3578 116.596 5.31517 116.818 4.1728L117.537 0.172262C105.977 0.0974642 102.319 5.11345 101.387 12.77L101.364 12.9445H101.24C99.3586 12.9445 97.2824 15.0819 96.9333 17.7905L96.8086 18.7833H100.671L97.4297 45.6651L96.4369 50.4862C96.5616 50.4862 96.7089 50.5089 96.8313 50.5089C102.248 50.3094 105.716 46.0119 106.482 39.7742L109.012 18.7788H110.825C112.607 18.7788 114.688 16.9881 115.05 14.0076L115.218 12.9445ZM145.21 12.4459C138.553 12.4459 132.267 17.3644 130.341 25.0935C128.414 32.8226 131.333 41.9638 141.13 41.9638C150.926 41.9638 156.536 32.4441 156.536 24.5201C156.545 16.6436 151.227 12.4436 145.212 12.4436L145.21 12.4459ZM147.907 26.807C147.562 30.3112 146.026 35.6286 141.819 35.6286C137.612 35.6286 138.181 29.4182 138.589 26.4603C139.035 23.3052 140.792 18.8082 144.577 18.8082C147.982 18.8082 148.301 22.8586 147.909 26.8093L147.907 26.807ZM189.431 21.3151L185.818 32.7206C185.72 31.8253 183.27 12.9173 183.27 12.9173C177.581 12.9173 174.535 16.9927 172.939 21.2901L168.533 32.7455C168.51 31.925 167.914 21.4125 167.914 21.4125C167.556 16.145 162.751 12.94 158.848 12.94L163.524 41.5898C169.485 41.5671 172.703 37.5144 174.387 33.217L178.1 23.4774C178.123 23.8741 180.675 41.5921 180.675 41.5921C186.663 41.5921 189.868 37.791 191.607 33.6408L200 12.9423C194.111 12.9423 190.993 16.9927 189.408 21.3151H189.431ZM120.662 0.167731L115.812 39.4479L114.819 44.2938C114.941 44.2938 115.091 44.3165 115.213 44.3165C120.431 44.2417 124.144 39.6473 124.84 33.8562L127.634 11.3194C128.482 4.43573 124.4 0.163196 120.662 0.163196V0.167731Z" fill="#4353FF"></path>
</svg>
