<svg width="295" height="136" viewBox="0 0 295 136" fill="none" xmlns="http://www.w3.org/2000/svg">
<g clip-path="url(#clip0_2197_316)">
<path d="M76.4015 59.0865C76.3673 60.1137 76.5043 61.1409 76.7782 62.1339C77.0864 62.9899 77.463 63.8117 77.8739 64.5993C78.0109 64.8389 78.1136 65.1129 78.1136 65.3868C78.0793 65.7977 77.8397 66.2086 77.463 66.414L75.3058 67.8521C75.0319 68.0233 74.7237 68.1603 74.4156 68.1603C74.0389 68.126 73.6623 67.9548 73.3884 67.6809C72.9432 67.2015 72.4981 66.6537 72.1557 66.0716C71.8133 65.4895 71.4709 64.8389 71.0942 64.0514C68.4235 67.2015 65.0679 68.7766 61.0275 68.7766C58.1512 68.7766 55.8571 67.9548 54.1793 66.3113C52.5015 64.6677 51.6455 62.4763 51.6455 59.7371C51.6455 56.8266 52.6727 54.464 54.7614 52.6835C56.8501 50.903 59.6236 50.0127 63.1504 50.0127C64.3488 50.0127 65.5815 50.1154 66.7799 50.2866C68.0468 50.4578 69.348 50.7318 70.7176 51.0399V48.5404C70.7176 45.9381 70.1697 44.1233 69.1083 43.0618C68.0468 42.0004 66.1636 41.4868 63.527 41.4868C62.2944 41.4868 61.0275 41.6237 59.829 41.9319C58.5621 42.2401 57.3295 42.6167 56.131 43.0961C55.7544 43.2673 55.3435 43.4043 54.9326 43.5412C54.7614 43.6097 54.556 43.6439 54.3848 43.6439C53.9054 43.6439 53.6657 43.3015 53.6657 42.5825V40.9047C53.6315 40.4938 53.7342 40.0829 53.9054 39.7063C54.1793 39.3981 54.4875 39.1584 54.8641 38.9872C56.2338 38.3024 57.6719 37.7888 59.1785 37.4464C60.9247 37.0012 62.7395 36.7958 64.52 36.7958C68.5947 36.7958 71.5736 37.7203 73.4911 39.5693C75.4086 41.4183 76.3331 44.226 76.3331 47.9925V59.0865H76.4015ZM62.4998 64.2911C63.6982 64.2911 64.8967 64.0856 66.0266 63.6748C67.2935 63.2296 68.3892 62.4763 69.2795 61.4833C69.8273 60.867 70.2382 60.1137 70.4437 59.2919C70.6833 58.3332 70.7861 57.306 70.7861 56.313V54.8749C69.7588 54.6352 68.6974 54.4298 67.6359 54.2928C66.5745 54.1558 65.4788 54.0874 64.4173 54.0874C62.1232 54.0874 60.4454 54.5325 59.3154 55.457C58.1855 56.3815 57.6376 57.6826 57.6376 59.3947C57.6376 61.004 58.0485 62.2024 58.9045 63.0242C59.7606 63.846 60.9247 64.2911 62.4998 64.2911ZM89.9951 67.9891C89.55 68.0233 89.0706 67.9206 88.694 67.6467C88.3515 67.27 88.0776 66.8249 87.9749 66.3113L79.9283 39.8432C79.7571 39.3981 79.6544 38.953 79.6202 38.4736C79.5859 38.0627 79.8599 37.6861 80.2707 37.6176H83.8318C84.4823 37.6176 84.9275 37.7203 85.1672 37.96C85.4068 38.1997 85.6465 38.6448 85.852 39.2954L91.5702 61.9627L96.9117 39.2954C97.0829 38.6106 97.2884 38.1654 97.5623 37.96C97.9732 37.7203 98.4526 37.5833 98.9319 37.6176H101.671C102.322 37.6176 102.767 37.7203 103.041 37.96C103.383 38.3366 103.623 38.7818 103.691 39.2954L109.101 62.2366L115.025 39.2954C115.128 38.7818 115.367 38.3366 115.71 37.96C116.121 37.7203 116.566 37.5833 117.045 37.6176H120.23C120.641 37.5491 121.017 37.8573 121.086 38.2681V38.4736C121.086 38.6448 121.051 38.8502 121.017 39.0214C120.949 39.3296 120.88 39.6035 120.778 39.8775L112.525 66.3455C112.32 67.0303 112.08 67.4755 111.806 67.6809C111.43 67.9206 110.95 68.0576 110.505 68.0233H107.561C106.91 68.0233 106.465 67.9206 106.191 67.6809C105.849 67.3043 105.609 66.8249 105.54 66.3113L100.233 44.226L94.96 66.277C94.8915 66.7907 94.6518 67.27 94.3094 67.6467C93.8985 67.9206 93.4192 68.0233 92.9398 67.9891H89.9951ZM133.994 68.9136C132.214 68.9136 130.433 68.7081 128.721 68.2972C127.009 67.8864 125.674 67.4412 124.784 66.9276C124.339 66.7222 123.962 66.3798 123.722 65.9689C123.585 65.6607 123.517 65.3525 123.517 65.0101V63.2639C123.517 62.5448 123.791 62.2024 124.304 62.2024C124.51 62.2024 124.715 62.2366 124.921 62.3051C125.126 62.3736 125.434 62.5106 125.777 62.6475C126.975 63.1954 128.242 63.572 129.543 63.846C130.879 64.1199 132.248 64.2568 133.618 64.2568C135.775 64.2568 137.453 63.8802 138.617 63.1269C139.747 62.4421 140.432 61.2094 140.397 59.874C140.432 58.9838 140.089 58.1278 139.473 57.4772C138.857 56.8266 137.692 56.2445 136.015 55.6967L131.05 54.1558C128.55 53.3683 126.701 52.2041 125.571 50.6633C124.476 49.2252 123.859 47.5131 123.859 45.6984C123.825 44.363 124.133 43.0618 124.784 41.8977C125.4 40.802 126.222 39.8432 127.249 39.0899C128.31 38.2681 129.509 37.6861 130.81 37.3094C132.214 36.8985 133.652 36.6931 135.124 36.7273C135.878 36.7273 136.665 36.7616 137.418 36.8643C138.206 36.967 138.925 37.104 139.644 37.2409C140.363 37.3779 140.98 37.5833 141.596 37.7888C142.109 37.96 142.589 38.1654 143.034 38.4051C143.445 38.6106 143.787 38.8845 144.061 39.2611C144.301 39.6035 144.404 39.9802 144.369 40.3911V42.0004C144.369 42.7194 144.095 43.0961 143.582 43.0961C143.137 43.0276 142.692 42.8906 142.281 42.6852C140.226 41.7607 137.966 41.3156 135.706 41.3498C133.755 41.3498 132.214 41.658 131.152 42.3085C130.091 42.9591 129.543 43.9521 129.543 45.356C129.509 46.2805 129.886 47.1707 130.57 47.7871C131.255 48.4376 132.522 49.0882 134.337 49.6703L139.199 51.2111C141.664 51.9987 143.445 53.0944 144.506 54.4982C145.568 55.8679 146.116 57.5799 146.081 59.2919C146.116 60.6616 145.807 62.0312 145.191 63.2639C144.575 64.428 143.719 65.4553 142.692 66.277C141.562 67.1673 140.26 67.8179 138.891 68.1945C137.316 68.6739 135.672 68.9136 133.994 68.9136Z" fill="#252F3E"/>
<path d="M140.466 85.5545C129.201 93.875 112.834 98.2921 98.7607 98.2921C79.038 98.2921 61.2671 90.9988 47.8448 78.8776C46.7833 77.9188 47.742 76.6177 49.0089 77.371C63.527 85.7942 81.4349 90.8961 99.9591 90.8961C113.313 90.8276 126.53 88.1226 138.822 82.9522C140.706 82.0962 142.315 84.1849 140.466 85.5545Z" fill="#FF9900"/>
<path d="M145.157 80.2129C143.719 78.3639 135.638 79.3227 131.974 79.7678C130.878 79.9048 130.707 78.946 131.7 78.227C138.137 73.7072 148.718 75.0083 149.95 76.5149C151.183 78.0215 149.608 88.6361 143.582 93.7038C142.657 94.4913 141.767 94.0804 142.178 93.0532C143.547 89.6634 146.595 82.0277 145.157 80.2129Z" fill="#FF9900"/>
<path d="M205.113 75.2139C205.455 75.8987 205.969 76.4808 206.585 76.9259C207.235 77.3711 207.955 77.7135 208.742 77.8847C209.564 78.0901 210.42 78.1929 211.276 78.1929C211.926 78.1929 212.543 78.1244 213.193 78.0559C213.844 77.9532 214.494 77.782 215.111 77.4738C215.693 77.1999 216.207 76.789 216.583 76.3096C216.994 75.7618 217.2 75.1112 217.165 74.4264C217.2 73.6731 216.891 72.954 216.378 72.4404C215.796 71.8926 215.077 71.4817 214.323 71.1735C213.399 70.7969 212.44 70.5229 211.447 70.2833C210.386 70.0436 209.29 69.7354 208.194 69.4272C207.064 69.1533 205.969 68.8109 204.873 68.4C203.846 68.0234 202.853 67.4755 201.997 66.7907C201.141 66.1401 200.456 65.3183 199.942 64.3596C199.394 63.2639 199.12 62.0655 199.155 60.8328C199.12 59.4289 199.463 58.0251 200.182 56.7924C200.832 55.6625 201.723 54.6695 202.784 53.9162C203.88 53.1287 205.113 52.5808 206.414 52.2042C207.749 51.8275 209.119 51.6563 210.488 51.6563C212.029 51.6563 213.536 51.8275 215.042 52.1699C216.446 52.4781 217.747 53.0602 218.912 53.882C220.041 54.6695 220.966 55.6967 221.617 56.8951C222.301 58.2648 222.644 59.8056 222.61 61.3464H216.172C216.138 60.5589 215.933 59.8056 215.59 59.1208C215.282 58.5387 214.837 58.0593 214.289 57.7169C213.707 57.3745 213.091 57.1348 212.44 56.9979C211.687 56.8609 210.933 56.7924 210.18 56.7924C209.632 56.7924 209.084 56.8609 208.571 56.9636C208.057 57.0663 207.544 57.2718 207.098 57.5457C206.653 57.8196 206.311 58.1963 206.037 58.6072C205.729 59.0865 205.592 59.6344 205.626 60.2165C205.592 60.7301 205.729 61.2095 205.969 61.6546C206.311 62.134 206.756 62.4764 207.304 62.6818C208.194 63.0585 209.119 63.3666 210.043 63.6063C211.207 63.9145 212.748 64.3254 214.631 64.8047C215.179 64.9075 215.967 65.1129 216.994 65.4211C218.056 65.7292 219.049 66.2086 219.973 66.8249C221 67.5098 221.89 68.3658 222.541 69.393C223.26 70.4887 223.637 71.8583 223.637 73.5704C223.637 74.9057 223.363 76.2069 222.815 77.4396C222.267 78.638 221.445 79.6994 220.418 80.5212C219.254 81.4457 217.919 82.1305 216.48 82.5414C214.7 83.055 212.885 83.2947 211.036 83.2605C209.393 83.2605 207.783 83.055 206.174 82.6442C204.667 82.2675 203.264 81.6169 202.031 80.6924C200.832 79.8022 199.839 78.6722 199.155 77.3368C198.401 75.8302 198.059 74.1867 198.127 72.5089H204.565C204.53 73.5019 204.736 74.3921 205.113 75.2139ZM236.34 64.9759C237.059 64.9417 237.744 64.7705 238.395 64.4966C239.011 64.2569 239.559 63.846 239.97 63.3324C240.415 62.7503 240.62 62.0312 240.586 61.3122C240.586 60.0453 240.175 59.0523 239.319 58.4017C238.497 57.7169 237.47 57.3745 236.409 57.3745C234.868 57.3745 233.738 57.8881 232.95 58.8811C232.128 59.9768 231.752 61.3122 231.82 62.6818H226.102C226.136 61.2437 226.41 59.8398 226.924 58.5044C227.403 57.306 228.088 56.1761 229.013 55.2516C229.937 54.3271 230.999 53.608 232.197 53.1629C233.532 52.6493 234.936 52.4096 236.34 52.4096C237.538 52.4096 238.737 52.5808 239.901 52.9232C241.065 53.2656 242.127 53.8135 243.085 54.4983C244.01 55.1831 244.798 56.0734 245.38 57.0663C245.996 58.1278 246.304 59.3605 246.27 60.5931C246.304 61.9285 245.927 63.2639 245.243 64.3939C244.524 65.5238 243.428 66.3113 242.127 66.6537V66.7565C243.633 67.0646 245.003 67.8864 245.962 69.1191C246.92 70.386 247.4 71.9268 247.366 73.4676C247.4 74.9058 247.092 76.3439 246.475 77.6108C245.893 78.8092 245.071 79.8364 244.044 80.6582C242.983 81.48 241.819 82.1305 240.517 82.5072C239.182 82.9181 237.778 83.1578 236.374 83.1578C234.833 83.192 233.293 82.9181 231.82 82.4387C230.519 81.9936 229.321 81.2745 228.328 80.35C227.335 79.3913 226.581 78.2613 226.102 76.9602C225.554 75.4878 225.315 73.947 225.349 72.3719H231.067C231.101 73.1252 231.204 73.9128 231.444 74.6318C231.649 75.3166 231.992 75.933 232.437 76.5151C232.882 77.0287 233.395 77.4738 234.012 77.7477C234.731 78.0901 235.484 78.2271 236.272 78.2271C237.538 78.2613 238.771 77.8162 239.696 76.9944C240.62 76.1727 241.1 75.0085 241.1 73.5704C241.1 72.4404 240.894 71.5844 240.449 71.0023C240.038 70.4202 239.456 69.9751 238.771 69.7012C238.052 69.4272 237.299 69.2903 236.546 69.256C235.724 69.2218 234.97 69.1875 234.251 69.1875V64.9759C234.936 65.0444 235.655 65.0444 236.34 64.9759ZM175.939 37.3779H178.336V97.6416H175.939V37.3779Z" fill="#252F3E"/>
</g>
<defs>
<clipPath id="clip0_2197_316">
<rect width="200" height="61.6" fill="white" transform="translate(47.3994 36.71)"/>
</clipPath>
</defs>
</svg>
