<svg width="295" height="136" viewBox="0 0 295 136" fill="none" xmlns="http://www.w3.org/2000/svg">
<g clip-path="url(#clip0_2197_291)">
<path d="M103.986 75.5525V59.6433H108.196V65.5664H112.945V59.6433H117.154V75.5525H112.945V69.2378H108.196V75.5525H103.986ZM124.048 75.8462C122.71 75.8462 121.739 75.3975 121.135 74.5C120.531 73.5862 120.229 72.3707 120.229 70.8531V63.3148H124.439V70.3147C124.439 71.098 124.537 71.62 124.733 71.8811C124.945 72.1421 125.255 72.2727 125.663 72.2727C126.054 72.2727 126.381 72.1911 126.642 72.028C126.903 71.8649 127.164 71.5874 127.425 71.1957V63.3148H131.635V75.5525H128.208L127.915 73.9372H127.817C127.327 74.5245 126.781 74.9896 126.177 75.3323C125.59 75.6749 124.88 75.8462 124.048 75.8462ZM138.932 80.5945C138.002 80.5945 137.145 80.4885 136.362 80.2764C135.579 80.0804 134.95 79.7623 134.477 79.3217C134.02 78.8813 133.792 78.2937 133.792 77.5594C133.792 76.5969 134.363 75.8136 135.505 75.2098V75.1119C135.192 74.8805 134.92 74.5994 134.697 74.2799C134.485 73.9372 134.379 73.5128 134.379 73.007C134.379 72.5828 134.502 72.1666 134.746 71.7588C135.008 71.3508 135.342 71 135.75 70.7064V70.6084C135.309 70.3147 134.918 69.8986 134.575 69.36C134.249 68.8053 134.086 68.177 134.086 67.4756C134.086 66.4638 134.33 65.6318 134.82 64.979C135.326 64.3099 135.978 63.8205 136.778 63.5105C137.578 63.1842 138.426 63.0209 139.323 63.0209C140.041 63.0209 140.694 63.1188 141.281 63.3148H145.834V66.3496H144.072C144.121 66.4966 144.161 66.6842 144.194 66.9125C144.243 67.141 144.267 67.3776 144.267 67.6223C144.267 68.5851 144.047 69.3684 143.607 69.9721C143.166 70.5594 142.571 70.992 141.82 71.2692C141.069 71.5467 140.237 71.6854 139.323 71.6854C138.916 71.6854 138.459 71.6283 137.953 71.5139C137.757 71.6934 137.659 71.93 137.659 72.2237C137.659 72.4848 137.79 72.6724 138.051 72.7868C138.328 72.9009 138.769 72.958 139.372 72.958H141.208C142.742 72.958 143.925 73.211 144.757 73.7168C145.606 74.2064 146.03 75.0139 146.03 76.1398C146.03 77.0211 145.736 77.796 145.149 78.4651C144.578 79.134 143.762 79.6562 142.701 80.0315C141.64 80.4069 140.384 80.5945 138.932 80.5945ZM139.323 69.1888C139.715 69.1888 140.033 69.0502 140.278 68.7727C140.523 68.4954 140.645 68.0629 140.645 67.4756C140.645 66.9044 140.523 66.4883 140.278 66.2272C140.033 65.9499 139.715 65.8113 139.323 65.8113C138.932 65.8113 138.614 65.9499 138.369 66.2272C138.124 66.4883 138.002 66.9044 138.002 67.4756C138.002 68.0629 138.124 68.4954 138.369 68.7727C138.614 69.0502 138.932 69.1888 139.323 69.1888ZM139.617 78C140.302 78 140.874 77.894 141.33 77.6819C141.787 77.4859 142.016 77.2168 142.016 76.8741C142.016 76.5479 141.869 76.3438 141.575 76.2623C141.298 76.1807 140.898 76.1398 140.376 76.1398H139.421C138.932 76.1398 138.557 76.1237 138.295 76.0908C138.051 76.0747 137.839 76.0421 137.659 75.9931C137.365 76.2868 137.219 76.5804 137.219 76.8741C137.219 77.2658 137.439 77.5513 137.879 77.7309C138.336 77.9104 138.916 78 139.617 78ZM152.293 80.5945C151.363 80.5945 150.506 80.4885 149.723 80.2764C148.94 80.0804 148.312 79.7623 147.838 79.3217C147.382 78.8813 147.153 78.2937 147.153 77.5594C147.153 76.5969 147.724 75.8136 148.866 75.2098V75.1119C148.554 74.8806 148.281 74.5995 148.059 74.2799C147.846 73.9372 147.74 73.5128 147.74 73.007C147.74 72.5828 147.863 72.1666 148.108 71.7588C148.369 71.3508 148.703 71 149.111 70.7064V70.6084C148.671 70.3147 148.279 69.8986 147.936 69.36C147.61 68.8053 147.447 68.177 147.447 67.4756C147.447 66.4638 147.692 65.6318 148.181 64.979C148.687 64.3099 149.34 63.8205 150.139 63.5105C150.939 63.1842 151.787 63.0209 152.685 63.0209C153.403 63.0209 154.055 63.1188 154.643 63.3148H159.195V66.3496H157.433C157.482 66.4966 157.523 66.6842 157.555 66.9125C157.604 67.141 157.629 67.3776 157.629 67.6223C157.629 68.5851 157.408 69.3684 156.968 69.9721C156.527 70.5594 155.932 70.992 155.181 71.2692C154.431 71.5467 153.598 71.6854 152.685 71.6854C152.277 71.6854 151.82 71.6283 151.314 71.5139C151.118 71.6934 151.02 71.93 151.02 72.2237C151.02 72.4848 151.151 72.6724 151.412 72.7868C151.689 72.9009 152.13 72.958 152.734 72.958H154.569C156.103 72.958 157.286 73.211 158.118 73.7168C158.967 74.2064 159.391 75.0139 159.391 76.1398C159.391 77.0211 159.097 77.796 158.51 78.4651C157.939 79.134 157.123 79.6562 156.062 80.0315C155.002 80.4069 153.745 80.5945 152.293 80.5945ZM152.685 69.1888C153.076 69.1888 153.394 69.0502 153.639 68.7727C153.884 68.4954 154.006 68.0629 154.006 67.4756C154.006 66.9044 153.884 66.4883 153.639 66.2272C153.394 65.9499 153.076 65.8113 152.685 65.8113C152.293 65.8113 151.975 65.9499 151.73 66.2272C151.485 66.4883 151.363 66.9044 151.363 67.4756C151.363 68.0629 151.485 68.4954 151.73 68.7727C151.975 69.0502 152.293 69.1888 152.685 69.1888ZM152.978 78C153.664 78 154.235 77.894 154.692 77.6819C155.148 77.4859 155.377 77.2168 155.377 76.8741C155.377 76.5479 155.23 76.3438 154.936 76.2623C154.659 76.1807 154.259 76.1398 153.737 76.1398H152.782C152.293 76.1398 151.918 76.1237 151.657 76.0908C151.412 76.0747 151.2 76.0421 151.02 75.9931C150.727 76.2868 150.58 76.5804 150.58 76.8741C150.58 77.2658 150.8 77.5513 151.241 77.7309C151.697 77.9104 152.277 78 152.978 78ZM161.2 75.5525V63.3148H165.41V75.5525H161.2ZM163.305 61.7972C162.619 61.7972 162.064 61.6096 161.64 61.2343C161.216 60.8427 161.004 60.3286 161.004 59.6923C161.004 59.056 161.216 58.55 161.64 58.1747C162.064 57.7831 162.619 57.5874 163.305 57.5874C163.99 57.5874 164.545 57.7831 164.969 58.1747C165.393 58.55 165.605 59.056 165.605 59.6923C165.605 60.3286 165.393 60.8427 164.969 61.2343C164.545 61.6096 163.99 61.7972 163.305 61.7972ZM168.251 75.5525V63.3148H171.677L171.971 64.7831H172.069C172.558 64.3099 173.113 63.9021 173.733 63.5594C174.37 63.2004 175.104 63.0209 175.936 63.0209C177.29 63.0209 178.261 63.4779 178.849 64.3917C179.453 65.2891 179.754 66.4966 179.754 68.0139V75.5525H175.544V68.5525C175.544 67.7692 175.447 67.247 175.251 66.986C175.055 66.7249 174.745 66.5943 174.321 66.5943C173.929 66.5943 173.603 66.6759 173.342 66.8392C173.081 67.0024 172.787 67.2309 172.461 67.5245V75.5525H168.251ZM186.951 80.5945C186.021 80.5945 185.164 80.4885 184.381 80.2764C183.598 80.0804 182.97 79.7623 182.496 79.3217C182.039 78.8813 181.811 78.2937 181.811 77.5594C181.811 76.5969 182.382 75.8136 183.524 75.2098V75.1119C183.211 74.8805 182.939 74.5994 182.717 74.2799C182.504 73.9372 182.398 73.5128 182.398 73.007C182.398 72.5828 182.521 72.1666 182.766 71.7588C183.027 71.3508 183.361 71 183.769 70.7064V70.6084C183.328 70.3147 182.937 69.8986 182.594 69.36C182.268 68.8053 182.105 68.177 182.105 67.4756C182.105 66.4638 182.349 65.6318 182.839 64.979C183.345 64.3099 183.998 63.8205 184.797 63.5105C185.597 63.1842 186.445 63.0209 187.343 63.0209C188.06 63.0209 188.713 63.1188 189.3 63.3148H193.853V66.3496H192.091C192.14 66.4966 192.181 66.6842 192.213 66.9125C192.262 67.141 192.287 67.3776 192.287 67.6223C192.287 68.5851 192.066 69.3684 191.626 69.9721C191.185 70.5594 190.59 70.992 189.839 71.2692C189.088 71.5467 188.256 71.6854 187.343 71.6854C186.934 71.6854 186.478 71.6283 185.972 71.5139C185.776 71.6934 185.678 71.93 185.678 72.2237C185.678 72.4848 185.809 72.6724 186.07 72.7868C186.347 72.9009 186.788 72.958 187.392 72.958H189.227C190.761 72.958 191.944 73.211 192.776 73.7168C193.625 74.2064 194.049 75.0139 194.049 76.1398C194.049 77.0211 193.755 77.796 193.168 78.4651C192.597 79.134 191.781 79.6562 190.72 80.0315C189.66 80.4069 188.403 80.5945 186.951 80.5945ZM187.343 69.1888C187.734 69.1888 188.052 69.0502 188.297 68.7727C188.542 68.4954 188.664 68.0629 188.664 67.4756C188.664 66.9044 188.542 66.4883 188.297 66.2272C188.052 65.9499 187.734 65.8113 187.343 65.8113C186.951 65.8113 186.633 65.9499 186.388 66.2272C186.143 66.4883 186.021 66.9044 186.021 67.4756C186.021 68.0629 186.143 68.4954 186.388 68.7727C186.633 69.0502 186.951 69.1888 187.343 69.1888ZM187.636 78C188.321 78 188.893 77.894 189.349 77.6819C189.806 77.4859 190.035 77.2168 190.035 76.8741C190.035 76.5479 189.888 76.3438 189.594 76.2623C189.317 76.1807 188.917 76.1398 188.395 76.1398H187.44C186.951 76.1398 186.576 76.1237 186.315 76.0908C186.07 76.0747 185.858 76.0421 185.678 75.9931C185.384 76.2868 185.238 76.5804 185.238 76.8741C185.238 77.2658 185.458 77.5513 185.898 77.7309C186.355 77.9104 186.934 78 187.636 78ZM201.1 75.5525V59.6433H211.478V63.1678H205.31V66.2027H210.597V69.7272H205.31V75.5525H201.1ZM216.081 75.8462C215.315 75.8462 214.654 75.6749 214.099 75.3323C213.569 74.983 213.139 74.5023 212.851 73.9372C212.557 73.366 212.41 72.7459 212.41 72.077C212.41 70.8041 212.932 69.809 213.976 69.0909C215.021 68.3566 216.718 67.8672 219.068 67.6223C218.97 66.7739 218.398 66.3496 217.354 66.3496C216.914 66.3496 216.449 66.4393 215.959 66.6188C215.47 66.7819 214.907 67.0349 214.27 67.3776L212.802 64.6364C213.667 64.1142 214.54 63.7145 215.421 63.437C216.316 63.16 217.249 63.0197 218.186 63.0209C219.785 63.0209 221.034 63.4779 221.931 64.3917C222.829 65.2891 223.277 66.7413 223.277 68.7482V75.5525H219.851L219.557 74.3776H219.459C218.97 74.8182 218.447 75.1773 217.893 75.4545C217.354 75.7156 216.751 75.8462 216.081 75.8462ZM217.55 72.6153C217.893 72.6153 218.178 72.5419 218.407 72.3951C218.635 72.232 218.855 72.028 219.068 71.7833V70.1188C218.072 70.2658 217.379 70.486 216.987 70.7796C216.612 71.0735 216.424 71.3917 216.424 71.7343C216.424 72.3217 216.8 72.6153 217.55 72.6153ZM231.553 75.8462C230.395 75.8462 229.351 75.5932 228.421 75.0874C227.49 74.5816 226.748 73.8554 226.193 72.909C225.655 71.9464 225.385 70.7879 225.385 69.4335C225.385 68.0793 225.687 66.9289 226.291 65.9825C226.911 65.0197 227.719 64.2856 228.714 63.7796C229.709 63.2739 230.786 63.0209 231.945 63.0209C232.679 63.0209 233.34 63.1352 233.927 63.3635C234.531 63.592 235.061 63.9021 235.518 64.2937L233.56 66.986C233.299 66.7577 233.063 66.6026 232.851 66.5211C232.64 66.4396 232.416 66.3981 232.19 66.3986C231.406 66.3986 230.795 66.6759 230.354 67.2309C229.913 67.7692 229.693 68.5035 229.693 69.4335C229.693 70.3637 229.922 71.1061 230.379 71.6609C230.835 72.1992 231.39 72.4686 232.043 72.4686C232.385 72.4686 232.72 72.3951 233.046 72.2482C233.381 72.0898 233.7 71.9014 234.001 71.6854L235.616 74.4266C235.013 74.9652 234.344 75.3404 233.609 75.5525C232.875 75.7482 232.19 75.8462 231.553 75.8462ZM242.504 75.8462C241.313 75.8462 240.236 75.5932 239.273 75.0874C238.327 74.5816 237.576 73.8554 237.021 72.909C236.467 71.9464 236.189 70.7879 236.189 69.4335C236.189 68.1119 236.467 66.9779 237.021 66.0315C237.592 65.0687 238.327 64.3263 239.224 63.8041C240.122 63.2819 241.068 63.0209 242.063 63.0209C243.271 63.0209 244.266 63.2903 245.049 63.8286C245.849 64.3508 246.436 65.0606 246.812 65.958C247.203 66.8554 247.399 67.8508 247.399 68.9441C247.399 69.303 247.375 69.6539 247.326 69.9966C247.293 70.3228 247.26 70.5594 247.228 70.7064H240.252C240.448 71.4407 240.799 71.9545 241.305 72.2482C241.81 72.5257 242.406 72.6643 243.091 72.6643C243.875 72.6643 244.707 72.4196 245.588 71.93L246.958 74.4266C246.306 74.8834 245.571 75.2343 244.756 75.479C243.94 75.7237 243.189 75.8462 242.504 75.8462ZM240.203 67.9649H243.826C243.826 67.4917 243.703 67.0839 243.458 66.7413C243.23 66.3822 242.798 66.2027 242.161 66.2027C241.704 66.2027 241.296 66.3415 240.937 66.6188C240.578 66.8963 240.334 67.345 240.203 67.9649Z" fill="#000B1B"/>
<path d="M94.9376 77.8839C94.8135 77.4156 94.6126 76.9712 94.3429 76.5688C94.4007 76.3566 94.4446 76.1413 94.4741 75.9239C94.6655 74.5431 94.1869 73.279 93.2847 72.3007C92.796 71.7665 92.2722 71.4139 91.7174 71.1975C92.0816 69.6395 92.266 68.0449 92.2669 66.4449C92.2669 65.7143 92.2255 64.9985 92.1562 64.2933C92.1199 63.9412 92.0763 63.5898 92.0252 63.2395C91.8663 62.206 91.6305 61.1858 91.32 60.1873C91.1165 59.5313 90.8811 58.8856 90.6146 58.2525C90.2151 57.3149 89.7486 56.4073 89.2188 55.5367C88.8711 54.9575 88.4926 54.3975 88.0848 53.859C87.885 53.587 87.6767 53.3215 87.4601 53.0628C86.8183 52.2826 86.1208 51.55 85.3729 50.8708C85.1248 50.6424 84.8694 50.4219 84.6072 50.2097C84.3491 49.9944 84.0853 49.786 83.8161 49.5847C83.2743 49.1815 82.7143 48.8032 82.138 48.4509C78.9538 46.517 75.2198 45.4082 71.2288 45.4082C59.6091 45.4082 50.1909 54.8264 50.1909 66.4458C50.1907 68.066 50.3783 69.6806 50.7503 71.2573C50.2512 71.474 49.7729 71.8116 49.3293 72.3003C48.4273 73.2779 47.9486 74.5376 48.1401 75.9181C48.169 76.1376 48.2129 76.3548 48.2711 76.5683C48.0016 76.971 47.8007 77.4156 47.6764 77.8839C47.3991 78.9377 47.4904 79.8881 47.8427 80.7206C47.4599 81.809 47.5555 82.968 48.0544 83.9756C48.4171 84.7115 48.9363 85.2806 49.5761 85.7896C50.337 86.3943 51.2894 86.9084 52.4384 87.4012C53.809 87.9858 55.4818 88.535 56.2427 88.7365C58.208 89.2455 60.0925 89.568 62.0026 89.5835C64.7235 89.6089 67.0668 88.9689 68.7447 87.3314C69.5689 87.4324 70.3984 87.483 71.2288 87.4828C72.1061 87.4808 72.9825 87.4256 73.8531 87.3174C75.5268 88.9652 77.8792 89.611 80.6102 89.5849C82.5199 89.5699 84.4044 89.2473 86.3646 88.7376C87.1306 88.5362 88.8029 87.9869 90.1742 87.4026C91.3233 86.9086 92.2754 86.3948 93.0416 85.7908C93.6765 85.282 94.1953 84.7127 94.5582 83.9768C95.0622 82.9692 95.153 81.8102 94.775 80.7217C95.1241 79.8892 95.2147 78.9368 94.9376 77.8839ZM92.9878 80.6501C93.3739 81.3828 93.3986 82.2106 93.0578 82.9816C92.5411 84.1503 91.2579 85.0706 88.7655 86.0588C87.2158 86.6736 85.7965 87.0664 85.784 87.0701C83.7341 87.6018 81.8801 87.8717 80.2752 87.8717C77.6176 87.8717 75.6403 87.1385 74.3861 85.6903C72.2653 86.0514 70.0997 86.0637 67.9749 85.7266C66.7193 87.1508 64.7528 87.8717 62.1177 87.8717C60.5125 87.8717 58.6588 87.6018 56.6089 87.0701C56.5962 87.0664 55.1777 86.6736 53.6274 86.0588C51.135 85.0706 49.8515 84.1508 49.3351 82.9816C48.9943 82.2106 49.019 81.3828 49.4051 80.6501C49.4409 80.5821 49.479 80.5156 49.5199 80.4516C49.2886 80.104 49.1334 79.7114 49.0645 79.2996C48.9957 78.8877 49.0149 78.466 49.1207 78.062C49.2741 77.4793 49.5911 76.9946 50.0213 76.6464C49.8142 76.3058 49.6782 75.9268 49.6216 75.5322C49.4978 74.6741 49.7824 73.8171 50.4234 73.1187C50.9224 72.575 51.6276 72.2758 52.4088 72.2758H52.4296C51.8407 70.3883 51.5421 68.4223 51.544 66.4452C51.544 55.6614 60.2863 46.9188 71.0712 46.9188C81.8563 46.9188 90.5985 55.6607 90.5985 66.4452C90.5999 68.4276 90.2992 70.3987 89.7068 72.2906C89.8011 72.2813 89.8935 72.2765 89.9841 72.2765C90.765 72.2765 91.4707 72.5755 91.9695 73.1191C92.61 73.8171 92.8954 74.6748 92.7713 75.5327C92.7147 75.9274 92.5788 76.3065 92.3716 76.6471C92.8018 76.995 93.1188 77.4798 93.2722 78.0627C93.3778 78.4667 93.3968 78.8884 93.328 79.3002C93.2592 79.712 93.1041 80.1046 92.8729 80.4523C92.9138 80.5156 92.9524 80.5821 92.9878 80.6501Z" fill="white"/>
<path d="M92.8734 80.4527C93.1046 80.105 93.2597 79.7124 93.3285 79.3006C93.3973 78.8888 93.3783 78.4671 93.2727 78.0631C93.1192 77.4804 92.8022 76.9956 92.372 76.6475C92.5791 76.3069 92.7151 75.9279 92.7717 75.5333C92.8956 74.6752 92.6109 73.8182 91.97 73.1197C91.4711 72.5761 90.7655 72.2768 89.9845 72.2768C89.8937 72.2768 89.8015 72.2815 89.7073 72.2909C90.299 70.399 90.5991 68.428 90.5973 66.4457C90.5973 55.6623 81.8549 46.9194 71.071 46.9194C60.287 46.9194 51.5437 55.6613 51.5437 66.4457C51.5419 68.4229 51.8405 70.3889 52.4294 72.2764H52.4086C51.6276 72.2764 50.9222 72.5756 50.4234 73.1193C49.7829 73.8173 49.4978 74.6747 49.6216 75.5328C49.6781 75.9274 49.8141 76.3065 50.0213 76.647C49.5911 76.9952 49.2741 77.4799 49.1209 78.0629C49.0151 78.4669 48.9961 78.8887 49.065 79.3006C49.1339 79.7124 49.2891 80.1051 49.5206 80.4527C49.4793 80.5167 49.4414 80.5832 49.4058 80.6511C49.0199 81.3838 48.995 82.2117 49.3358 82.9827C49.8522 84.1511 51.1357 85.0719 53.6281 86.0599C55.1777 86.6747 56.5971 87.0675 56.6096 87.0712C58.6595 87.6028 60.5132 87.8729 62.1181 87.8729C64.7535 87.8729 66.7198 87.1521 67.9756 85.7276C70.1004 86.0647 72.266 86.0525 74.3868 85.6913C75.6408 87.1396 77.6183 87.8729 80.2759 87.8729C81.8808 87.8729 83.7348 87.6028 85.7847 87.0712C85.7972 87.0675 87.2158 86.6747 88.7662 86.0599C91.2586 85.0719 92.5421 84.1511 93.0585 82.9827C93.3993 82.2117 93.3746 81.3838 92.9885 80.6511C92.9533 80.5832 92.9149 80.5169 92.8734 80.4527ZM67.077 83.4979C66.9689 83.6871 66.8531 83.8717 66.7297 84.0513C66.4051 84.5266 65.9781 84.8896 65.4827 85.1597C64.5352 85.6761 63.3362 85.8568 62.1179 85.8568C60.1937 85.8568 58.2209 85.4065 57.1151 85.1195C57.0608 85.1054 50.3374 83.2064 51.1886 81.5899C51.3319 81.3182 51.5678 81.2096 51.8644 81.2096C53.0629 81.2096 55.2452 82.9943 56.1833 82.9943C56.3926 82.9943 56.5405 82.9048 56.6008 82.6874C57.0005 81.2537 50.5257 80.6511 51.071 78.5754C51.1673 78.208 51.4282 78.059 51.7954 78.059C53.3797 78.0587 56.9361 80.8452 57.6798 80.8452C57.7369 80.8452 57.7778 80.8286 57.8 80.7935L57.8097 80.7775C58.1586 80.2011 57.9585 79.7819 55.5666 78.317L55.3369 78.1773C52.7052 76.5841 50.8577 75.6257 51.9086 74.482C52.0294 74.3499 52.2006 74.2914 52.4088 74.2914C52.6558 74.2914 52.9545 74.3741 53.2836 74.5125C54.6736 75.0987 56.6001 76.6974 57.4049 77.3947C57.6422 77.6012 57.7819 77.7274 57.7819 77.7274C57.7819 77.7274 58.8009 78.787 59.4171 78.787C59.559 78.787 59.6791 78.7313 59.7607 78.5929C60.1978 77.8563 55.7027 74.4501 55.4492 73.0449C55.2776 72.0925 55.5698 71.6103 56.1107 71.6103C56.3677 71.6103 56.6814 71.7195 57.0278 71.9393C58.1022 72.6213 60.1766 76.186 60.9361 77.5726C61.1907 78.0375 61.6253 78.2339 62.0169 78.2339C62.794 78.2339 63.4014 77.4615 62.0881 76.4799C60.1142 75.0028 60.8069 72.5888 61.7489 72.4402C61.7891 72.434 61.8298 72.4307 61.8702 72.4305C62.7269 72.4305 63.1049 73.9069 63.1049 73.9069C63.1049 73.9069 64.2124 76.6883 66.1151 78.5895C67.8418 80.3152 68.0828 81.7315 67.077 83.4979ZM73.2297 83.8237L73.131 83.8355L72.9626 83.8549C72.8741 83.8639 72.7856 83.8727 72.6967 83.881L72.6098 83.8889L72.5308 83.8956L72.4182 83.9046C72.3769 83.9076 72.3355 83.9108 72.2942 83.9134L72.1703 83.9217L72.1431 83.9233L72.0456 83.9291L72.0042 83.9312L71.8887 83.937L71.7544 83.9425L71.6324 83.9467L71.5511 83.949H71.51C71.4846 83.949 71.4594 83.9504 71.434 83.9506H71.3935C71.3681 83.9506 71.3429 83.9506 71.3175 83.952L71.2142 83.9531H71.0696C70.9561 83.9531 70.8432 83.952 70.7302 83.9499L70.6387 83.9478C70.6128 83.9478 70.5867 83.9464 70.5608 83.9457L70.464 83.9427L70.3434 83.9381L70.235 83.9335L70.2068 83.9323L70.1036 83.9268C70.0749 83.9252 70.0463 83.9238 70.0178 83.9219L69.9511 83.918C69.8671 83.9127 69.7833 83.9067 69.6994 83.9002L69.6116 83.8933L69.5007 83.8838L69.3711 83.8718C69.2987 83.8651 69.2264 83.8577 69.1542 83.8496H69.1507C70.2066 81.494 69.6726 79.2942 67.5389 77.162C66.1396 75.7646 65.2085 73.7006 65.0155 73.2475C64.6246 71.9062 63.5897 70.4152 61.8714 70.4152C61.7261 70.4155 61.5811 70.427 61.4377 70.4497C60.6847 70.568 60.0266 71.0014 59.5571 71.6535C59.05 71.0225 58.5567 70.5208 58.1107 70.2373C57.4384 69.8113 56.7676 69.595 56.1137 69.595C55.2981 69.595 54.5687 69.93 54.0604 70.5377L54.0477 70.5532L54.019 70.4328L54.0179 70.4277C53.9212 70.0141 53.84 69.597 53.7743 69.1773C53.7743 69.1743 53.7743 69.1715 53.7729 69.1687L53.7586 69.0738C53.7509 69.0224 53.7433 68.971 53.736 68.9196C53.73 68.8769 53.724 68.8342 53.7184 68.7916C53.7129 68.7491 53.7069 68.7064 53.7018 68.6636C53.6962 68.6207 53.6911 68.5779 53.6861 68.5352C53.6812 68.4945 53.6765 68.4539 53.672 68.4132L53.6706 68.4028C53.6498 68.2152 53.6319 68.0273 53.617 67.8392L53.6089 67.7304C53.6066 67.7004 53.6045 67.6703 53.6027 67.6403C53.6027 67.6334 53.6017 67.6262 53.6013 67.6197L53.5936 67.4991C53.5909 67.4555 53.5888 67.4118 53.5865 67.3681C53.5842 67.3247 53.5819 67.281 53.58 67.2371L53.5754 67.1227L53.574 67.0881L53.5705 66.9823L53.5682 66.8926C53.5682 66.8568 53.5664 66.8207 53.5657 66.7849L53.5638 66.672C53.5634 66.6343 53.5638 66.5969 53.5629 66.5592C53.5618 66.5213 53.5629 66.4836 53.5629 66.4457C53.5629 56.7757 61.4028 48.9358 71.0737 48.9358C80.7447 48.9358 88.5844 56.7752 88.5844 66.4457V66.672C88.5844 66.7096 88.5834 66.7475 88.5825 66.7849C88.5825 66.8164 88.5814 66.8471 88.5804 66.8785C88.5804 66.9065 88.5793 66.9342 88.5781 66.9612C88.5781 66.9966 88.576 67.0317 88.5749 67.0671V67.0701L88.5654 67.3002L88.564 67.3256L88.558 67.4402L88.5525 67.531C88.5395 67.7462 88.5227 67.9612 88.5021 68.1759V68.1789C88.4984 68.2191 88.4942 68.2595 88.4899 68.2997L88.4589 68.5805L88.4471 68.6745L88.4326 68.7849C88.4275 68.8254 88.4219 68.8656 88.4161 68.9058C88.4099 68.9508 88.4032 68.9957 88.3967 69.0405L88.3806 69.1463L88.3616 69.2665C88.3551 69.3064 88.3487 69.3462 88.3411 69.3861C88.3332 69.4259 88.3272 69.4656 88.3203 69.5056C88.3064 69.5851 88.2921 69.6643 88.2766 69.7436C88.2459 69.9013 88.2137 70.0588 88.1798 70.2158C88.1712 70.255 88.1624 70.2941 88.1534 70.3332C87.6606 69.8543 87.0081 69.5934 86.2881 69.5934C85.635 69.5934 84.9635 69.8094 84.2914 70.2357C83.8452 70.519 83.3524 71.0208 82.8448 71.6518C82.3746 70.9996 81.7165 70.5664 80.9644 70.4478C80.8209 70.4254 80.6758 70.4139 80.5305 70.4136C78.8117 70.4136 77.7775 71.9046 77.3864 73.2459C77.1925 73.699 76.2614 75.7627 74.8605 77.1625C72.7283 79.2877 72.1902 81.4779 73.2297 83.8237ZM91.3073 79.1084L91.3004 79.129C91.2956 79.1421 91.2906 79.1552 91.2854 79.1682C91.2571 79.2347 91.2229 79.2985 91.1832 79.3589C91.1447 79.4164 91.1024 79.4714 91.0564 79.5231C91.0458 79.5352 91.0356 79.5469 91.0236 79.5587C91.0074 79.5765 90.9901 79.5938 90.973 79.6112C90.6618 79.9196 90.1876 80.1897 89.6516 80.4379C89.5908 80.4654 89.5294 80.4929 89.467 80.5204L89.4051 80.5479C89.3637 80.5661 89.3226 80.5844 89.2791 80.6022C89.2369 80.6202 89.1943 80.638 89.1518 80.6555L89.0229 80.7089C88.7214 80.833 88.4125 80.951 88.1109 81.068L87.9822 81.1179L87.8547 81.1678C87.7701 81.2008 87.6865 81.2339 87.604 81.2669L87.4813 81.3163L87.3609 81.3658L87.3015 81.3905C87.2623 81.4072 87.2235 81.4233 87.1851 81.44C86.2983 81.8203 85.6606 82.2073 85.7946 82.6876C85.7983 82.7013 85.8025 82.7142 85.8071 82.7267C85.8191 82.7623 85.8355 82.796 85.8559 82.8274C85.8679 82.8464 85.8817 82.8642 85.8972 82.8803C86.0548 83.0439 86.3415 83.0181 86.7031 82.8882C86.7325 82.8776 86.7625 82.8662 86.7928 82.8542C86.8136 82.8464 86.8341 82.8381 86.8549 82.8297L86.8861 82.8166C86.9688 82.7815 87.0564 82.7424 87.146 82.6997C87.1685 82.6893 87.1911 82.6791 87.2137 82.6671C87.6558 82.451 88.1569 82.1597 88.6541 81.8947C88.7304 81.8533 88.8069 81.8138 88.8829 81.7745C89.0071 81.71 89.1326 81.648 89.2593 81.5885C89.7302 81.3672 90.1726 81.2101 90.5287 81.2101C90.6955 81.2101 90.8431 81.2443 90.9658 81.3228L90.9864 81.3364C91.0485 81.3803 91.1026 81.4342 91.1467 81.4961C91.1569 81.5107 91.1675 81.5257 91.1765 81.5412C91.1862 81.5571 91.1955 81.5735 91.2043 81.5901C91.3801 81.9238 91.2329 82.2697 90.8887 82.6086C90.558 82.9339 90.0437 83.253 89.4589 83.5486C89.4157 83.5705 89.372 83.5925 89.3281 83.6137C87.5881 84.4681 85.3099 85.1116 85.278 85.1197C84.6708 85.2771 83.8025 85.4839 82.8244 85.6384L82.6796 85.6608L82.656 85.6643C82.4342 85.6976 82.2117 85.7269 81.9887 85.7523L81.9681 85.7544C81.5626 85.8006 81.1468 85.8341 80.7302 85.8482H80.7239C80.5742 85.8538 80.4247 85.8563 80.275 85.8563H80.1026C79.8744 85.8532 79.6463 85.8428 79.4187 85.8254C79.4134 85.8254 79.4078 85.8254 79.4023 85.8242C79.1808 85.8065 78.9601 85.7805 78.7406 85.7461C78.6865 85.7371 78.6287 85.7276 78.573 85.7179C78.5476 85.7133 78.5224 85.7087 78.4973 85.7036L78.4913 85.7024C78.4112 85.6871 78.3314 85.6704 78.2519 85.6521C78.2059 85.6417 78.1597 85.6313 78.1142 85.619L78.0869 85.6119C78.0645 85.6063 78.0422 85.6004 78.0199 85.5943L78.0077 85.5911L77.9363 85.5705L77.8589 85.5479L77.8496 85.5451L77.7824 85.5245C77.757 85.5167 77.7318 85.5083 77.7066 85.5003C77.6858 85.4933 77.6652 85.4862 77.6444 85.4795L77.5989 85.4635C77.555 85.4483 77.5116 85.4321 77.4682 85.4155L77.427 85.3995L77.3931 85.3859C77.3275 85.3596 77.2625 85.332 77.198 85.3032L77.1551 85.2826L77.1479 85.2794C77.1327 85.2722 77.1176 85.265 77.1024 85.2586C77.0726 85.2442 77.0431 85.2295 77.0137 85.2144L77.0049 85.2101L76.9624 85.1876C76.8868 85.1483 76.8126 85.1063 76.7401 85.0615L76.7004 85.0372C76.6798 85.0247 76.6611 85.012 76.6414 84.9993L76.5897 84.9649C76.5709 84.9525 76.5523 84.9397 76.534 84.9266L76.5007 84.903C76.4656 84.8778 76.4312 84.8522 76.3972 84.8256C76.3792 84.8117 76.3614 84.7974 76.3436 84.7842C76.3041 84.7525 76.2654 84.7199 76.2274 84.6865L76.2258 84.6851C76.1886 84.653 76.1523 84.6198 76.1169 84.5858L76.1151 84.5834C76.0966 84.5659 76.0786 84.5483 76.0606 84.5301C76.0428 84.5118 76.0248 84.4938 76.0074 84.4755C75.9899 84.4571 75.9723 84.4383 75.9552 84.4192C75.9386 84.4011 75.9223 84.3829 75.9062 84.3644L75.9007 84.3582C75.8172 84.2613 75.7391 84.1598 75.6669 84.0543L75.6382 84.012C75.6193 83.9841 75.6006 83.956 75.5821 83.9277L75.5275 83.8438C75.4821 83.7737 75.438 83.7028 75.3951 83.631C75.3801 83.6056 75.3651 83.5804 75.3508 83.5555C75.3427 83.5419 75.3351 83.528 75.3274 83.5141C75.3198 83.4998 75.3108 83.4852 75.3027 83.4707L75.2898 83.4478C75.2854 83.4402 75.284 83.4379 75.2817 83.4328C75.266 83.4053 75.2507 83.3773 75.2359 83.3489C75.2292 83.3367 75.2225 83.3242 75.2154 83.312L75.1946 83.2722L75.174 83.2327L75.1343 83.1525L75.1153 83.113C75.1017 83.0846 75.0888 83.0566 75.0758 83.0287C75.0707 83.0174 75.0654 83.006 75.0608 82.9947C75.043 82.9561 75.0261 82.9171 75.0102 82.8776C74.9993 82.8515 74.9894 82.8256 74.9788 82.7997C74.949 82.7235 74.921 82.6465 74.8954 82.5687C74.8877 82.5456 74.8801 82.5227 74.8734 82.4996C74.8568 82.4471 74.8418 82.3942 74.8284 82.3408C74.8119 82.2786 74.7975 82.2159 74.7852 82.1528C74.7773 82.1155 74.7704 82.0781 74.7646 82.0405C74.7463 81.9302 74.7343 81.8189 74.7285 81.7073C74.7285 81.695 74.7274 81.6826 74.7272 81.6703C74.726 81.6458 74.7253 81.6213 74.7251 81.5968C74.7121 80.6098 75.2119 79.6604 76.2801 78.5927C78.1826 76.6918 79.2902 73.9102 79.2902 73.9102C79.2902 73.9102 79.32 73.7935 79.3822 73.6257C79.403 73.5701 79.4247 73.5146 79.4476 73.4598C79.4737 73.3979 79.5017 73.3367 79.5317 73.2766L79.5405 73.2591C79.5791 73.1823 79.6209 73.1077 79.6664 73.0349C79.6768 73.0181 79.687 73.0012 79.699 72.9846C79.7327 72.9343 79.7685 72.8854 79.8062 72.8381C79.8353 72.8017 79.8662 72.7668 79.8988 72.7334C80.0093 72.6197 80.1352 72.5268 80.2778 72.4772L80.2958 72.4714C80.3078 72.4675 80.3196 72.4638 80.3318 72.4603C80.3462 72.4566 80.3605 72.4531 80.3748 72.4501L80.3813 72.449C80.4115 72.443 80.4418 72.4388 80.4725 72.4367H80.4753C80.4913 72.4367 80.5072 72.4351 80.5236 72.4351C80.5645 72.4353 80.6052 72.4386 80.6456 72.4448C80.817 72.4719 80.9804 72.574 81.1209 72.7316L81.1398 72.7537C81.1856 72.8073 81.2272 72.8646 81.2641 72.9247C81.2919 72.9693 81.318 73.0162 81.3427 73.0654C81.3526 73.0862 81.3621 73.1052 81.3716 73.1255C81.3762 73.1359 81.3808 73.1461 81.3852 73.1567C81.3944 73.1773 81.403 73.1981 81.4115 73.2198C81.4598 73.3436 81.4973 73.4714 81.5236 73.6017C81.5516 73.7424 81.5677 73.8852 81.5724 74.0287C81.574 74.0918 81.574 74.1555 81.5724 74.2202C81.5712 74.2447 81.57 74.2694 81.5682 74.2942C81.5493 74.5689 81.4894 74.8393 81.3905 75.0964C81.3806 75.1218 81.3697 75.1477 81.3596 75.1736C81.3098 75.2922 81.2522 75.4074 81.187 75.5183C81.1498 75.5816 81.1096 75.6444 81.0666 75.7068L81.0402 75.7443C80.9383 75.8866 80.8246 76.0202 80.7004 76.1435C80.5779 76.2661 80.4467 76.3797 80.3078 76.4834C80.1685 76.5862 80.0379 76.7004 79.9173 76.8244C79.57 77.189 79.4892 77.5104 79.5673 77.7542C79.5765 77.7817 79.5874 77.8087 79.5998 77.8348C79.6287 77.8914 79.6662 77.9434 79.711 77.9887L79.7232 78.001C79.7359 78.0132 79.7493 78.025 79.763 78.0363L79.7768 78.0476C79.8106 78.0735 79.8461 78.0966 79.8833 78.1167C79.894 78.1225 79.9039 78.1283 79.9162 78.1338C79.9672 78.1592 80.0206 78.1796 80.0756 78.195L80.0908 78.199L80.1114 78.2045L80.1294 78.2089L80.1486 78.2131L80.1678 78.217L80.186 78.22C80.1997 78.2225 80.2135 78.2246 80.2272 78.2265L80.2406 78.2283L80.2644 78.2309L80.2791 78.2322L80.3036 78.2341H80.3177L80.3431 78.2352H80.4233L80.4462 78.2341L80.4725 78.2325L80.5047 78.2295L80.5347 78.2258C80.5414 78.2258 80.5483 78.2239 80.5553 78.2228C80.6831 78.2042 80.807 78.1645 80.9219 78.1054C81.0191 78.0562 81.1092 77.9941 81.1897 77.9208L81.2223 77.8898C81.2274 77.8847 81.2327 77.8799 81.2376 77.8746C81.2694 77.8427 81.2995 77.809 81.3274 77.7736C81.3769 77.7112 81.4208 77.6449 81.4589 77.5751C81.9111 76.753 82.385 75.943 82.8801 75.1461L82.948 75.0372L83.0167 74.9282C83.0511 74.8732 83.0855 74.8187 83.1199 74.7648L83.1548 74.7105L83.2244 74.6022C83.3177 74.4578 83.4113 74.315 83.5056 74.1736L83.576 74.0682C83.7174 73.8589 83.8586 73.6551 83.9982 73.4612L84.068 73.3656C84.2198 73.1558 84.378 72.9508 84.5423 72.7507L84.6077 72.6726C84.6183 72.6595 84.6283 72.6468 84.64 72.6341L84.704 72.5599C84.7147 72.5476 84.7248 72.5356 84.7359 72.5238L84.7979 72.4538L84.829 72.4201C84.8591 72.3875 84.8896 72.3554 84.9205 72.3235C84.9413 72.303 84.9605 72.2822 84.9806 72.263C85.0977 72.1431 85.2269 72.0357 85.3662 71.9425L85.3984 71.9219L85.4309 71.9012C85.4517 71.8882 85.4728 71.8757 85.4943 71.864C86.0405 71.5541 86.4929 71.5312 86.753 71.7914C86.9108 71.9492 86.9979 72.2105 86.9933 72.574C86.9933 72.5902 86.9933 72.6061 86.9919 72.6227V72.6408C86.9919 72.6572 86.9906 72.674 86.9894 72.6909C86.9894 72.7115 86.9869 72.7323 86.9848 72.7528C86.9827 72.7736 86.9818 72.7893 86.9797 72.8076C86.9797 72.8129 86.9785 72.8182 86.9778 72.8235C86.9762 72.8397 86.9741 72.8561 86.9721 72.8723C86.9721 72.8774 86.9721 72.8822 86.97 72.8873C86.9677 72.9092 86.9644 72.9312 86.9605 72.9529C86.958 72.9731 86.9547 72.9932 86.9508 73.0132C86.9492 73.0248 86.9469 73.0361 86.945 73.0476C86.939 73.0805 86.9312 73.113 86.9217 73.1449C86.9039 73.2046 86.8821 73.263 86.8565 73.3198C86.8454 73.3446 86.8337 73.3692 86.8217 73.3935C86.7967 73.4437 86.7685 73.495 86.7375 73.5481C86.7221 73.5742 86.7061 73.6012 86.689 73.6283L86.6631 73.6694C86.6368 73.7108 86.6093 73.7526 86.5807 73.7949C86.552 73.8371 86.5213 73.8804 86.4882 73.924C86.4455 73.9823 86.4004 74.0416 86.3528 74.1017L86.3168 74.1472C86.2149 74.274 86.1105 74.3988 86.0037 74.5215L85.9189 74.6174L85.8757 74.6659C85.8168 74.7318 85.7576 74.7972 85.698 74.8621L85.6523 74.9115C85.622 74.9444 85.5904 74.9776 85.5601 75.0107C85.5291 75.0442 85.4977 75.0774 85.4663 75.1107L85.3711 75.211L85.2747 75.3115C85.2426 75.345 85.2103 75.379 85.1777 75.4125L84.9815 75.6146C84.0446 76.5756 83.0573 77.5333 82.7232 78.1304C82.7011 78.1693 82.6809 78.2093 82.6627 78.2503C82.6153 78.3589 82.5955 78.4517 82.6089 78.5268C82.6132 78.5516 82.622 78.5754 82.6347 78.5968C82.6537 78.6294 82.6766 78.6595 82.7029 78.6863C82.7151 78.6983 82.7278 78.7096 82.7417 78.7198C82.8103 78.7688 82.8935 78.7939 82.9778 78.7914H83.0042L83.0312 78.7895L83.0585 78.7863L83.0809 78.7831C83.0839 78.7828 83.0869 78.7822 83.0899 78.7815L83.1105 78.7775L83.116 78.7761L83.1387 78.7713L83.1467 78.7692L83.171 78.763L83.1999 78.7544C83.2188 78.7486 83.2378 78.7422 83.2572 78.735C83.299 78.7202 83.3399 78.7031 83.3799 78.684C83.39 78.6791 83.4004 78.6745 83.4104 78.6692L83.4411 78.6539C83.4813 78.6336 83.5213 78.6116 83.5615 78.5878C83.5936 78.5689 83.6255 78.5495 83.6574 78.5289L83.6883 78.5084C83.6985 78.5019 83.7089 78.4952 83.7191 78.4876L83.7498 78.467L83.766 78.4557L83.8103 78.4247C83.8517 78.3961 83.8903 78.3667 83.9296 78.3369L83.933 78.3344L83.9949 78.2863C84.0797 78.2193 84.1604 78.1518 84.2332 78.0883L84.2817 78.0456L84.2863 78.0414L84.3115 78.019C84.3711 77.9656 84.4242 77.9157 84.4686 77.8743L84.4866 77.8568L84.5303 77.8154L84.5564 77.79L84.5654 77.7808L84.568 77.7782L84.6123 77.7336L84.6142 77.7318L84.6225 77.7244C84.625 77.7216 84.6285 77.7188 84.6324 77.7154L84.6357 77.7124L84.6444 77.7045L84.6913 77.6632L84.7177 77.6394C84.7306 77.6283 84.7447 77.6156 84.759 77.6019L84.7907 77.5742C84.7962 77.5696 84.8018 77.5643 84.8076 77.5592L84.8406 77.5303L84.8894 77.4878L84.915 77.4654C85.0155 77.3778 85.138 77.2722 85.2782 77.1532L85.3357 77.1047L85.4309 77.025L85.528 76.9437C85.6551 76.8383 85.7918 76.7262 85.9365 76.6098L86.0314 76.5335C86.1123 76.4693 86.1955 76.4035 86.2796 76.3374C86.3133 76.3108 86.3478 76.2842 86.3829 76.2579C86.6682 76.0373 86.958 75.8225 87.2521 75.6137L87.3411 75.552C87.403 75.509 87.4649 75.4663 87.5271 75.4245L87.5832 75.3864C87.6943 75.3115 87.8064 75.2383 87.9194 75.1666L87.9755 75.1313L88.0312 75.0966C88.0869 75.0622 88.1426 75.028 88.1976 74.995L88.2528 74.9621L88.3635 74.8977C88.3997 74.8767 88.4358 74.8561 88.4718 74.8358L88.4935 74.8235L88.5795 74.7766C88.6151 74.7572 88.6509 74.7385 88.6863 74.7202L88.7394 74.693L88.7907 74.6669C88.908 74.6079 89.0276 74.5534 89.1491 74.5035C89.1657 74.4966 89.1821 74.4899 89.1985 74.4827C89.2311 74.4691 89.2634 74.4566 89.2955 74.4455C89.3277 74.4347 89.3593 74.4233 89.3905 74.4122C89.4189 74.4028 89.4464 74.394 89.4732 74.3857L89.4822 74.3829C89.4966 74.3785 89.5109 74.3743 89.5252 74.3707L89.5294 74.3695C89.5585 74.3612 89.5876 74.3536 89.6169 74.3466H89.6192C89.6625 74.3362 89.7045 74.3274 89.7456 74.3205C89.7597 74.3182 89.7736 74.3159 89.787 74.314C89.827 74.308 89.8672 74.3039 89.9074 74.3011C89.9328 74.2993 89.9584 74.2986 89.9838 74.2986H90.0033C90.0291 74.2986 90.0541 74.3002 90.0788 74.3027C90.0901 74.3027 90.1015 74.3048 90.1125 74.3064H90.1172C90.1283 74.3076 90.1396 74.3094 90.1504 74.3117C90.1613 74.314 90.1724 74.3157 90.183 74.3182H90.1867C90.1973 74.3205 90.2073 74.3235 90.2184 74.3265C90.3066 74.3503 90.3877 74.3951 90.455 74.4571L90.461 74.4631L90.4728 74.4746L90.4843 74.4869C90.577 74.5844 90.6537 74.696 90.7114 74.8175L90.7204 74.8381C90.7401 74.8843 90.7556 74.9321 90.7664 74.9811C90.7965 75.1176 90.7884 75.26 90.7429 75.3921C90.7233 75.4496 90.6992 75.5055 90.6708 75.5592L90.6518 75.5934C90.5798 75.7142 90.4946 75.8267 90.3979 75.9289L90.3771 75.9508C90.3168 76.015 90.2537 76.0763 90.1879 76.1347L90.1634 76.1569C90.1125 76.202 90.0606 76.2459 90.0079 76.2889C89.9986 76.2962 89.9892 76.3036 89.9801 76.3115C89.9434 76.3411 89.9055 76.3711 89.8662 76.4011C89.7308 76.5047 89.5929 76.6045 89.4524 76.7008C89.3697 76.7574 89.2842 76.8145 89.196 76.8725C89.0314 76.9804 88.8658 77.086 88.6985 77.1895C88.6502 77.2193 88.6017 77.2496 88.5522 77.2796C88.0978 77.5592 87.5938 77.8582 87.0564 78.1833L86.9173 78.2678C86.765 78.3607 86.6213 78.4494 86.4862 78.5338L86.418 78.5767L86.2891 78.6595C86.238 78.6918 86.1883 78.7237 86.14 78.7551C86.1035 78.7785 86.068 78.8016 86.0331 78.8244L85.9642 78.8697C85.9307 78.8917 85.8974 78.9136 85.8642 78.936L85.8318 78.9566C85.7976 78.9795 85.7644 79.0019 85.732 79.0241L85.6791 79.0601L85.6169 79.1033L85.5596 79.1433C85.4691 79.2068 85.3796 79.2718 85.2909 79.3378L85.26 79.3614C85.2251 79.3877 85.1913 79.4141 85.1588 79.4397L85.1162 79.4737C85.0446 79.5312 84.9797 79.5864 84.921 79.6391L84.8924 79.6655C84.8759 79.6805 84.8598 79.6955 84.8445 79.7103C84.8337 79.7205 84.8237 79.7309 84.8129 79.741L84.7979 79.7558C84.7648 79.7888 84.7327 79.8228 84.7015 79.8577L84.6863 79.8753C84.6523 79.9145 84.6227 79.9522 84.5966 79.9889L84.5851 80.0056C84.555 80.0495 84.5284 80.0959 84.5058 80.1442L84.4979 80.1611L84.4931 80.1729L84.4892 80.183L84.4839 80.1971C84.4822 80.202 84.479 80.2105 84.4771 80.2179C84.4677 80.2455 84.4607 80.2739 84.4561 80.3027L84.4538 80.3182L84.452 80.3323L84.4508 80.3459V80.4185C84.4508 80.4245 84.4508 80.4307 84.4522 80.437L84.4534 80.448C84.4534 80.4541 84.455 80.4601 84.4557 80.4663L84.4601 80.4917V80.4929C84.4617 80.501 84.4633 80.509 84.4654 80.5171C84.4674 80.5252 84.4695 80.5342 84.4721 80.5428C84.4795 80.5689 84.4885 80.5948 84.4989 80.6199C84.4989 80.6218 84.5005 80.6239 84.5012 80.6257C84.504 80.632 84.5065 80.6384 84.5095 80.6447C84.5208 80.671 84.5335 80.6967 84.5474 80.7218L84.562 80.748L84.5772 80.7743L84.5931 80.8006C84.5959 80.805 84.599 80.8091 84.6024 80.8129L84.6077 80.8184L84.6132 80.8235L84.6195 80.8284C84.6237 80.8313 84.6281 80.834 84.6327 80.8364C84.6373 80.8385 84.6424 80.8408 84.6474 80.8427C84.6529 80.8445 84.6585 80.8461 84.6641 80.8475C84.7974 80.8776 85.0714 80.7671 85.4353 80.5749L85.5007 80.5402L85.6114 80.4799L85.6657 80.4499C85.704 80.4291 85.7436 80.406 85.7835 80.3831L85.8568 80.3418C86.3381 80.0647 86.9131 79.7087 87.5074 79.3612C87.5629 79.3286 87.6188 79.2962 87.6747 79.2639L87.787 79.1923C87.8431 79.1599 87.8991 79.128 87.9552 79.0966C88.1942 78.9608 88.4361 78.8302 88.6809 78.7052L88.7907 78.6495C88.8637 78.6135 88.936 78.5784 89.0074 78.5442C89.1457 78.4786 89.2855 78.4164 89.4268 78.3575L89.5042 78.3261L89.5137 78.3224C89.9235 78.1599 90.2953 78.0594 90.5961 78.0594C90.6613 78.059 90.7262 78.0643 90.7905 78.0754H90.7923C90.8131 78.0791 90.8318 78.0832 90.8508 78.0881H90.8542C90.882 78.0948 90.9092 78.1033 90.9356 78.1139C90.9566 78.1216 90.9769 78.1306 90.9966 78.1412C91.09 78.1888 91.1688 78.2608 91.2246 78.3496C91.2449 78.3806 91.2625 78.4132 91.2768 78.4474C91.2854 78.467 91.2932 78.4873 91.3006 78.5093C91.308 78.5315 91.3145 78.5527 91.3212 78.5756C91.3702 78.7507 91.3653 78.936 91.3073 79.1084Z" fill="#FF9D00"/>
<path fill-rule="evenodd" clip-rule="evenodd" d="M88.5817 66.5587V66.4455C88.5817 56.775 80.7448 48.9355 71.0736 48.9355C61.4029 48.9355 53.563 56.7754 53.563 66.4455V66.4834C53.5625 66.5085 53.5623 66.5335 53.563 66.5587C53.5639 66.5963 53.5644 66.634 53.5639 66.6717L53.5653 66.7548L53.5658 66.7849L53.5669 66.826C53.5674 66.8482 53.5681 66.8701 53.5681 66.8923L53.5704 66.9822L53.5741 67.0878L53.5752 67.1224L53.5798 67.2317V67.2368L53.5863 67.3646V67.3678C53.5904 67.4517 53.5955 67.5356 53.6013 67.6194L53.602 67.6266C53.6041 67.661 53.6064 67.6957 53.609 67.7301L53.6097 67.7391C53.612 67.7724 53.6145 67.8059 53.6173 67.8389L53.6177 67.8454L53.6224 67.9032C53.6362 68.0698 53.6524 68.2364 53.6709 68.4025L53.672 68.4129L53.6859 68.5349L53.7021 68.6633C53.7191 68.8003 53.7379 68.937 53.7585 69.0735L53.7596 69.0797C53.8276 69.5322 53.9138 69.9818 54.0179 70.4274L54.0191 70.4327L54.0265 70.4639C54.0334 70.4935 54.0403 70.5231 54.0477 70.5529L54.0604 70.5374C54.5688 69.9297 55.298 69.5947 56.1138 69.5947C56.7677 69.5947 57.4387 69.8108 58.1108 70.237C58.5567 70.5203 59.0498 71.0222 59.5572 71.6532C60.0267 71.0009 60.6847 70.5677 61.4375 70.4494C61.5812 70.4267 61.7263 70.4152 61.8714 70.415C63.5898 70.415 64.6247 71.9062 65.0156 73.2472C65.2085 73.7005 66.1397 75.7641 67.5436 77.1601C69.6773 79.292 70.2113 81.4921 69.1554 83.8477H69.1588C69.2309 83.8556 69.3033 83.863 69.3758 83.8697C69.419 83.8738 69.4622 83.878 69.5054 83.8817L69.5207 83.8831C69.5523 83.8861 69.5842 83.8888 69.6161 83.8911L69.7039 83.8983C69.7875 83.9048 69.8714 83.9105 69.9558 83.9161L70.0223 83.92L70.0752 83.923L70.1082 83.9249L70.2113 83.9304L70.2395 83.9316L70.3481 83.9362L70.4685 83.9408L70.5655 83.9436L70.5817 83.9443C70.602 83.945 70.6228 83.9459 70.6434 83.9459L70.6653 83.9464C70.8016 83.9496 70.9377 83.9512 71.074 83.9512H71.2187L71.3222 83.9501C71.3476 83.9487 71.3728 83.9487 71.3982 83.9487H71.4384L71.4733 83.948C71.4869 83.9475 71.5008 83.9471 71.5144 83.9471H71.5558L71.6369 83.9447L71.7589 83.9406L71.8934 83.9348C71.932 83.9332 71.9703 83.9313 72.0089 83.9293L72.0503 83.927L72.1115 83.9235L72.1478 83.9214L72.1748 83.9198L72.2989 83.9115C72.3402 83.9089 72.3816 83.9057 72.4229 83.9025L72.5352 83.8937L72.6145 83.887L72.7011 83.8791C72.7901 83.8708 72.8788 83.862 72.9671 83.8528C73.0234 83.8465 73.0794 83.8403 73.1355 83.8336L73.2342 83.8218C72.1947 81.4759 72.7328 79.2858 74.858 77.1622C76.2587 75.7627 77.1898 73.6987 77.3839 73.2456C77.7751 71.9043 78.809 70.4133 80.5278 70.4133C80.6732 70.4136 80.8183 70.4249 80.9617 70.4478C81.7138 70.5661 82.3721 70.9995 82.8423 71.6516C83.3499 71.0205 83.8428 70.5187 84.2887 70.2354C84.9608 69.8091 85.6323 69.5931 86.2854 69.5931C87.0054 69.5931 87.6581 69.8542 88.151 70.3329C88.178 70.2123 88.2041 70.0917 88.2291 69.9706C88.2443 69.8951 88.2593 69.8193 88.2741 69.7433C88.2921 69.6499 88.3092 69.5561 88.325 69.4623C88.3291 69.4369 88.3335 69.4115 88.3384 69.3858C88.346 69.3459 88.3527 69.3064 88.3589 69.2662L88.3615 69.2509L88.3779 69.1462L88.394 69.0402L88.3943 69.039C88.4007 68.9947 88.4074 68.9501 88.4134 68.9055C88.4183 68.8717 88.4229 68.838 88.4273 68.8041L88.4301 68.7846L88.4444 68.6742L88.4562 68.5802C88.4663 68.4933 88.4759 68.4065 88.4851 68.3195L88.4874 68.2994C88.4918 68.2581 88.4957 68.2169 88.4994 68.1756L88.5086 68.0795C88.5278 67.8664 88.5433 67.6534 88.5553 67.4399V67.4385L88.5616 67.3253L88.5627 67.2999L88.5673 67.1925C88.5692 67.152 88.5708 67.1111 88.5722 67.0698V67.0668L88.5733 67.037C88.5745 67.0115 88.5754 66.9861 88.5754 66.9609L88.5759 66.9505C88.5768 66.927 88.5777 66.9025 88.5777 66.8782L88.5784 66.8574C88.5791 66.8332 88.5798 66.8091 88.5798 66.7849L88.5803 66.7643C88.581 66.7334 88.5817 66.7026 88.5817 66.6717V66.5587ZM66.7307 84.051C68.1173 82.0173 68.0191 80.491 66.1163 78.5894C64.2136 76.6878 63.1062 73.9069 63.1062 73.9069C63.1062 73.9069 62.6928 72.2913 61.7501 72.4399C60.8074 72.5882 60.1159 75.0021 62.0895 76.4796C64.0632 77.9572 61.697 78.9591 60.9373 77.5725C60.1773 76.1857 58.1034 72.6213 57.0279 71.9394C55.9525 71.2576 55.1963 71.6398 55.4498 73.045C55.5757 73.7426 56.7467 74.933 57.8407 76.0453C58.9507 77.174 59.9814 78.2218 59.7612 78.5926C59.3238 79.3292 57.7834 77.7273 57.7834 77.7273C57.7834 77.7273 52.9599 73.338 51.91 74.482C50.9419 75.5363 52.4345 76.4325 54.7349 77.8137C54.9306 77.9314 55.1323 78.0524 55.3384 78.1772C57.9701 79.7705 58.1748 80.1908 57.8014 80.7936C57.6635 81.0164 56.7825 80.4875 55.6988 79.8368C53.8516 78.7278 51.4156 77.2655 51.0718 78.5744C50.7739 79.7072 52.566 80.4013 54.1912 81.0309C55.5452 81.5554 56.7836 82.0351 56.6016 82.6862C56.4128 83.3611 55.3895 82.7983 54.2707 82.1827C53.0149 81.4917 51.639 80.7345 51.1889 81.5889C50.3377 83.204 57.06 85.1053 57.1154 85.1192C59.2873 85.6825 64.8028 86.8761 66.7307 84.051ZM75.6642 84.051C74.2774 82.0173 74.3758 80.491 76.2785 78.5894C78.1813 76.6878 79.2889 73.9069 79.2889 73.9069C79.2889 73.9069 79.702 72.2913 80.6447 72.4399C81.5874 72.5882 82.2792 75.0021 80.3053 76.4796C78.3314 77.9572 80.6979 78.9591 81.4578 77.5725C82.2175 76.1857 84.2905 72.6213 85.3659 71.9394C86.4412 71.2576 87.1976 71.6398 86.9442 73.045C86.8183 73.7426 85.6473 74.9332 84.553 76.0455C83.4433 77.174 82.4125 78.2218 82.6327 78.5926C83.0699 79.3292 84.6117 77.7264 84.6117 77.7264C84.6117 77.7264 89.4349 73.3371 90.4851 74.481C91.453 75.5353 89.9601 76.4318 87.6598 77.8133C87.4641 77.9307 87.2628 78.0515 87.0565 78.1765C84.4245 79.7696 84.2201 80.1901 84.5934 80.7927C84.7314 81.0154 85.6124 80.4866 86.6958 79.8362C88.5433 78.7271 90.9793 77.2645 91.3231 78.5734C91.6209 79.7063 89.8289 80.4006 88.2034 81.0302C86.8494 81.5547 85.6112 82.0342 85.7931 82.6855C85.9818 83.3604 87.0047 82.7973 88.123 82.1818C89.3788 81.4907 90.7549 80.7333 91.2053 81.588C92.0565 83.2042 85.3333 85.1035 85.2787 85.1176C83.1068 85.6825 77.5911 86.8761 75.6642 84.051Z" fill="#FFD21E"/>
<path fill-rule="evenodd" clip-rule="evenodd" d="M76.7599 61.6796C77.0328 61.7762 77.2359 62.0703 77.429 62.3499C77.6901 62.7281 77.9332 63.0798 78.3061 62.8815C78.7462 62.6478 79.107 62.2887 79.3429 61.8497C79.5788 61.4108 79.6791 60.9117 79.6312 60.4157C79.5777 59.8564 79.3388 59.3311 78.9523 58.9233C78.5659 58.5155 78.0542 58.2487 77.4986 58.1653C77.0681 58.1005 76.6282 58.1484 76.2217 58.3042C75.8152 58.4601 75.4561 58.7186 75.1793 59.0546C74.8625 59.4391 74.6667 59.9089 74.6168 60.4046C74.5668 60.9003 74.6649 61.3997 74.8985 61.8397C75.0714 62.1648 75.4549 62.0116 75.8597 61.8496C76.1772 61.7228 76.5076 61.5906 76.7599 61.6796ZM64.8893 61.6798C64.6164 61.7764 64.4131 62.0705 64.2199 62.3501C63.9588 62.7281 63.7158 63.08 63.3429 62.8817C63.014 62.7068 62.7281 62.4611 62.5056 62.1623C62.2831 61.8635 62.1297 61.5191 62.0564 61.1539C61.9829 60.7888 61.9913 60.4119 62.0809 60.0503C62.1706 59.6888 62.3393 59.3516 62.5748 59.0631C62.8107 58.7748 63.1075 58.5423 63.4439 58.3823C63.7803 58.2223 64.148 58.1389 64.5205 58.138C65.1459 58.1368 65.7494 58.3681 66.2138 58.787C66.6782 59.2058 66.9702 59.7824 67.0332 60.4046C67.0832 60.9005 66.9849 61.4 66.7509 61.8399C66.5776 62.165 66.1941 62.0116 65.7892 61.8496C65.472 61.7228 65.1416 61.5906 64.8893 61.6798ZM74.9235 72.4818C76.8049 70.9993 77.496 68.5795 77.496 67.0888C77.496 65.9104 76.7031 66.2812 75.4339 66.9095L75.3625 66.945C74.1973 67.522 72.6464 68.29 70.944 68.29C69.2414 68.29 67.6906 67.5218 66.5258 66.9448C65.2155 66.2958 64.3937 65.8887 64.3937 67.089C64.3937 68.6267 65.1289 71.1518 67.1471 72.619C67.4133 72.0784 67.7881 71.5985 68.2483 71.2094C68.7084 70.8203 69.244 70.5305 69.8214 70.3579C70.0228 70.2979 70.2303 70.6447 70.4429 70.9996C70.6478 71.3422 70.8572 71.6925 71.0704 71.6925C71.2973 71.6925 71.5205 71.3473 71.7384 71.0102C71.966 70.6581 72.1878 70.3147 72.4025 70.3834C73.4828 70.73 74.3865 71.4823 74.9235 72.4818Z" fill="#32343D"/>
<path d="M74.9231 72.4813C73.9432 73.2534 72.6408 73.7712 70.9448 73.7712C69.3512 73.7712 68.1047 73.3142 67.1475 72.6185C67.4138 72.078 67.7888 71.5983 68.2489 71.2092C68.709 70.8202 69.2444 70.5302 69.8217 70.3574C70.2175 70.2393 70.6366 71.692 71.0705 71.692C71.5352 71.692 71.9827 70.2486 72.4028 70.3828C73.4827 70.7299 74.3861 71.482 74.9231 72.4813Z" fill="#FF323D"/>
<path fill-rule="evenodd" clip-rule="evenodd" d="M60.3912 63.7757C60.2125 63.8961 60.0117 63.98 59.8005 64.0226C59.5892 64.0652 59.3716 64.0656 59.1602 64.0239C58.8419 63.9609 58.5494 63.8048 58.3199 63.5754C58.0904 63.346 57.9342 63.0536 57.8711 62.7353C57.808 62.417 57.8409 62.0872 57.9655 61.7876C58.0902 61.488 58.301 61.2321 58.5712 61.0525C58.9324 60.8128 59.3738 60.7261 59.7988 60.8112C60.2238 60.8964 60.5976 61.1466 60.8385 61.507C61.0793 61.8674 61.1675 62.3085 61.0837 62.7338C60.9998 63.159 60.7508 63.5337 60.3912 63.7757ZM83.8228 63.7757C83.5536 63.9571 83.2365 64.0543 82.9119 64.055C82.5873 64.0557 82.2698 63.9598 81.9998 63.7796C81.8205 63.6601 81.6665 63.5063 81.5468 63.3271C81.427 63.148 81.3439 62.9469 81.302 62.7355C81.2178 62.3085 81.3065 61.8655 81.5488 61.504C81.7293 61.2353 81.9854 61.0262 82.2847 60.9029C82.5839 60.7796 82.913 60.7478 83.2304 60.8113C83.6553 60.8966 84.0291 61.1468 84.2699 61.5071C84.5107 61.8674 84.5989 62.3084 84.5153 62.7336C84.4314 63.1589 84.1824 63.5336 83.8228 63.7757Z" fill="#FFAD03"/>
</g>
<defs>
<clipPath id="clip0_2197_291">
<rect width="200" height="53.2" fill="white" transform="translate(47.3994 40.9097)"/>
</clipPath>
</defs>
</svg>
