<svg width="295" height="136" viewBox="0 0 295 136" fill="none" xmlns="http://www.w3.org/2000/svg">
<path d="M75.716 39.8489C75.2059 39.8791 74.7071 40.0114 74.2491 40.2379L54.4064 49.708C53.8946 49.9517 53.4444 50.3077 53.0894 50.7497C52.7344 51.1916 52.4837 51.708 52.356 52.2603L47.4965 73.5192C47.3818 74.0122 47.3686 74.5234 47.4575 75.0217C47.5465 75.5199 47.7358 75.9949 48.014 76.4178C48.0814 76.5216 48.1527 76.6214 48.2279 76.7174L61.9544 93.7744C62.3119 94.2133 62.7629 94.5668 63.2745 94.8091C63.7861 95.0514 64.3453 95.1765 64.9114 95.175H86.9174C87.4857 95.1762 88.047 95.05 88.5601 94.8055C89.0732 94.5611 89.5249 94.2048 89.8821 93.7627L103.597 76.698C103.952 76.2575 104.202 75.7421 104.329 75.1908C104.456 74.6395 104.455 74.0666 104.328 73.5153L99.4338 52.233C99.3062 51.6807 99.0555 51.1644 98.7005 50.7224C98.3455 50.2805 97.8952 49.9244 97.3834 49.6807L77.5563 40.2379C76.9849 39.9567 76.3522 39.823 75.716 39.8489Z" fill="#326CE5"/>
<path d="M75.9142 47.0859C75.5856 47.1089 75.2792 47.2601 75.0609 47.5067C74.8426 47.7534 74.7299 48.0759 74.747 48.4049V48.7395C74.7797 49.1184 74.8343 49.4952 74.9104 49.8678C75.0193 50.5808 75.0584 51.3027 75.0271 52.0233C74.9588 52.2611 74.8238 52.4745 74.638 52.638L74.6108 53.1438C73.8893 53.2037 73.173 53.3142 72.467 53.4745C69.4973 54.1437 66.7955 55.6857 64.7089 57.9022L64.2809 57.5987C64.046 57.6682 63.7933 57.6431 63.5767 57.5287C62.9981 57.1006 62.4625 56.6171 61.9776 56.0852C61.7343 55.7943 61.4745 55.5176 61.1995 55.2565L60.9349 55.0464C60.7002 54.8573 60.4112 54.7482 60.1101 54.7351C59.9305 54.7259 59.7514 54.7592 59.5871 54.8322C59.4228 54.9052 59.2781 55.0159 59.1646 55.1553C58.9716 55.4263 58.8939 55.7628 58.9486 56.0911C59.0033 56.4193 59.1859 56.7124 59.4564 56.9061L59.7015 57.1007C60.0183 57.3114 60.347 57.5037 60.6859 57.6765C61.3172 58.0274 61.9128 58.4392 62.464 58.906C62.6055 59.1076 62.6877 59.3448 62.7013 59.5907L63.0904 59.9292C60.9917 63.0781 60.1299 66.8912 60.6703 70.6365L60.1723 70.7805C60.0426 70.9874 59.8685 71.1628 59.6626 71.2941C58.9663 71.4797 58.2535 71.597 57.5344 71.6442C57.153 71.6521 56.7724 71.682 56.3944 71.7337L56.0832 71.8115H56.0442C55.8247 71.8407 55.6177 71.9306 55.4464 72.071C55.2752 72.2115 55.1465 72.3969 55.0748 72.6064C55.0031 72.816 54.9913 73.0413 55.0407 73.2572C55.0901 73.4731 55.1988 73.6709 55.3544 73.8285C55.5101 73.9861 55.7067 74.0971 55.922 74.149C56.1374 74.201 56.363 74.1918 56.5734 74.1226H56.5967L56.9197 74.0837C57.2821 73.9745 57.6381 73.8446 57.9857 73.6946C58.6543 73.4256 59.3476 73.2223 60.0556 73.0877C60.3007 73.1028 60.5366 73.1863 60.7365 73.3289L61.2539 73.2394C62.412 76.8334 64.8467 79.8785 68.0977 81.799L67.8798 82.2542C67.9802 82.462 68.0168 82.6949 67.9849 82.9235C67.6901 83.6048 67.3305 84.2562 66.9111 84.8688C66.6803 85.1728 66.4673 85.4897 66.273 85.8182L66.1173 86.1372C66.006 86.3277 65.9497 86.5454 65.9549 86.766C65.96 86.9866 66.0264 87.2015 66.1466 87.3865C66.2668 87.5716 66.436 87.7196 66.6355 87.8141C66.8349 87.9086 67.0567 87.9457 67.276 87.9215C67.4953 87.8972 67.7036 87.8125 67.8775 87.6767C68.0515 87.541 68.1843 87.3595 68.2611 87.1527L68.409 86.8492C68.544 86.493 68.6583 86.1292 68.7514 85.7598C69.0626 84.9816 69.2377 84.1451 69.6696 83.6277C69.8106 83.4953 69.9882 83.4085 70.1793 83.3787L70.4516 82.8923C73.975 84.2472 77.874 84.2569 81.404 82.9196L81.6375 83.3748C81.8798 83.4126 82.0977 83.5439 82.2444 83.7405C82.5797 84.3778 82.8521 85.0463 83.0576 85.7364C83.152 86.1059 83.2676 86.4697 83.4039 86.8259L83.5517 87.1293C83.6285 87.3362 83.7614 87.5176 83.9353 87.6534C84.1093 87.7892 84.3176 87.8739 84.5369 87.8982C84.7563 87.9224 84.978 87.8852 85.1775 87.7908C85.3769 87.6963 85.5461 87.5482 85.6663 87.3632C85.7865 87.1781 85.8528 86.9632 85.858 86.7426C85.8631 86.522 85.8069 86.3043 85.6955 86.1138L85.5399 85.7948C85.3455 85.4677 85.1325 85.152 84.9018 84.8494C84.4913 84.2573 84.1394 83.6266 83.8513 82.9662C83.8229 82.8455 83.8189 82.7203 83.8397 82.5981C83.8604 82.4758 83.9053 82.3589 83.9719 82.2542C83.8957 82.0991 83.8294 81.9392 83.7735 81.7757C87.0202 79.8425 89.4454 76.7861 90.59 73.185L91.0958 73.2744C91.277 73.1088 91.5158 73.0208 91.7611 73.0293C92.4692 73.1639 93.1624 73.3672 93.831 73.6363C94.1781 73.7941 94.5341 73.9318 94.8971 74.0487C94.9827 74.072 95.1072 74.0876 95.2083 74.1148H95.2317C95.4421 74.1841 95.6676 74.1933 95.883 74.1414C96.0983 74.0894 96.2949 73.9785 96.4506 73.8209C96.6064 73.6634 96.715 73.4655 96.7645 73.2496C96.8139 73.0336 96.8021 72.8082 96.7304 72.5986C96.6584 72.3885 96.5291 72.2027 96.3571 72.0623C96.1851 71.9218 95.9772 71.8323 95.7569 71.8037L95.4068 71.7259C95.0288 71.6742 94.6482 71.6443 94.2668 71.6364C93.5477 71.5892 92.8349 71.472 92.1385 71.2863C91.923 71.166 91.7452 70.9882 91.625 70.7727L91.1464 70.6326C91.6593 66.8902 90.7801 63.0896 88.6758 59.9526L89.096 59.5635C89.079 59.3188 89.1586 59.0771 89.3178 58.8904C89.8647 58.4202 90.4564 58.0045 91.0842 57.6493C91.423 57.4764 91.7517 57.2841 92.0685 57.0734L92.3292 56.8633C92.5205 56.7443 92.6743 56.5735 92.7727 56.3708C92.8711 56.1681 92.9101 55.9416 92.8853 55.7176C92.8605 55.4937 92.7728 55.2813 92.6324 55.105C92.492 54.9287 92.3046 54.7958 92.0919 54.7215C91.8791 54.6472 91.6496 54.6346 91.43 54.6852C91.2104 54.7359 91.0095 54.8476 90.8507 55.0075L90.5861 55.2176C90.3111 55.4787 90.0513 55.7554 89.808 56.0463C89.3376 56.5841 88.8164 57.0753 88.2517 57.5131C88.0237 57.6055 87.7744 57.6324 87.5319 57.5909L87.0806 57.9138C84.478 55.1852 80.9732 53.4943 77.2176 53.1555C77.2176 52.9998 77.1943 52.7119 77.1904 52.6263C76.9884 52.4876 76.8487 52.2753 76.8013 52.0349C76.7768 51.315 76.8224 50.5944 76.9375 49.8834C77.0136 49.5107 77.0681 49.134 77.1009 48.7551V48.4166C77.118 48.0876 77.0053 47.7651 76.787 47.5184C76.5687 47.2717 76.2623 47.1206 75.9337 47.0976L75.9142 47.0859ZM74.4279 56.2914L74.0778 62.5166H74.0505C74.0424 62.7057 73.9832 62.889 73.8791 63.0471C73.7751 63.2052 73.6301 63.3321 73.4597 63.4144C73.2892 63.4966 73.0996 63.5311 72.9111 63.5141C72.7226 63.4972 72.5423 63.4294 72.3892 63.3181L67.2846 59.6997C68.9098 58.1034 70.9486 56.993 73.1712 56.4937C73.5877 56.4049 74.0085 56.3373 74.4318 56.2914H74.4279ZM77.4005 56.2914C80.0815 56.6241 82.5791 57.8284 84.5088 59.7191L79.4509 63.3142C79.298 63.4365 79.1138 63.5134 78.9194 63.5363C78.7249 63.5592 78.528 63.5271 78.3508 63.4436C78.1737 63.3601 78.0236 63.2286 77.9175 63.064C77.8114 62.8995 77.7536 62.7085 77.7506 62.5127L77.4005 56.2914ZM65.4248 62.0458L70.0937 66.2089V66.2361C70.2361 66.3606 70.3422 66.5214 70.4005 66.7014C70.4589 66.8814 70.4673 67.0738 70.425 67.2582C70.3827 67.4426 70.2912 67.6121 70.1602 67.7486C70.0293 67.8852 69.8637 67.9837 69.6813 68.0336V68.0531L63.6895 69.7767C63.3925 67.0772 64.003 64.3557 65.4248 62.0419V62.0458ZM86.3686 62.0458C87.7869 64.3536 88.4139 67.0609 88.1544 69.7572L82.1549 68.0297V68.0064C81.9724 67.9564 81.8069 67.858 81.6759 67.7214C81.545 67.5849 81.4535 67.4154 81.4112 67.231C81.3688 67.0466 81.3773 66.8541 81.4357 66.6742C81.494 66.4942 81.6001 66.3334 81.7425 66.2089L86.3725 62.0614L86.3686 62.0458ZM74.9571 66.5396H76.8635L78.0308 68.0181L77.6028 69.8701L75.8909 70.6949L74.1712 69.8701L73.7665 68.0142L74.9571 66.5396ZM81.0772 71.5975C81.1573 71.5882 81.2383 71.5882 81.3184 71.5975L87.4969 72.6403C86.5874 75.2079 84.8471 77.3986 82.5518 78.8654L80.1629 73.076C80.0971 72.921 80.0696 72.7524 80.0826 72.5845C80.0956 72.4167 80.1488 72.2544 80.2377 72.1113C80.3265 71.9683 80.4485 71.8487 80.5932 71.7627C80.738 71.6767 80.9013 71.6267 81.0694 71.617L81.0772 71.5975ZM70.7006 71.6248C70.8724 71.6275 71.0409 71.6724 71.1913 71.7557C71.3416 71.8389 71.4691 71.9579 71.5625 72.1021C71.656 72.2463 71.7125 72.4113 71.727 72.5825C71.7416 72.7537 71.7138 72.9259 71.6461 73.0838V73.1071L69.2688 78.8343C67.0013 77.3767 65.2759 75.2139 64.3587 72.6792L70.4827 71.6364C70.5513 71.6297 70.6204 71.6297 70.689 71.6364L70.7006 71.6248ZM75.8753 74.1382C76.0699 74.1323 76.2624 74.1805 76.4313 74.2773C76.6003 74.3741 76.7391 74.5159 76.8324 74.6868H76.8558L79.875 80.1338C79.4788 80.2667 79.0763 80.3797 78.6688 80.4723C76.448 80.9807 74.1295 80.8608 71.9729 80.126L74.9843 74.679C75.0746 74.5218 75.2042 74.3907 75.3604 74.2986C75.5166 74.2065 75.694 74.1566 75.8753 74.1537V74.1382Z" fill="white" stroke="white" stroke-width="0.0972682"/>
<path d="M116.86 68.617L118.008 67.3642C118.402 66.9284 118.785 66.4978 119.156 66.0724L120.206 64.8585C120.533 64.4746 120.814 64.14 121.05 63.8547H125.517C124.625 64.8793 123.756 65.8559 122.91 66.7844C122.062 67.713 121.133 68.6727 120.124 69.6636C120.678 70.1726 121.198 70.7172 121.681 71.2938C122.218 71.9241 122.736 72.5726 123.237 73.2392C123.738 73.9058 124.199 74.5802 124.622 75.2623C125.042 75.9367 125.395 76.5515 125.68 77.1066H121.362C121.102 76.6656 120.796 76.1806 120.443 75.6514C120.091 75.1197 119.727 74.5983 119.354 74.0873C118.965 73.5686 118.558 73.0589 118.132 72.5583C117.745 72.1099 117.319 71.6959 116.86 71.321V77.1338H113.102V58.1587L116.86 57.5517V68.6209V68.617ZM138.765 76.663C137.952 76.8852 137.127 77.058 136.294 77.1805C135.244 77.3438 134.182 77.4245 133.119 77.4217C132.161 77.45 131.207 77.2955 130.306 76.9665C129.614 76.7035 129.001 76.2651 128.528 75.6942C128.078 75.1221 127.759 74.458 127.595 73.7488C127.403 72.9303 127.31 72.0917 127.318 71.251V63.8586H131.077V70.7841C131.077 71.9954 131.236 72.8695 131.555 73.4065C131.874 73.9434 132.471 74.2118 133.345 74.2118C133.604 74.2118 133.89 74.1989 134.201 74.1729C134.512 74.147 134.781 74.1172 135.006 74.0835V63.8508H138.765V76.663ZM154.631 70.4845C154.645 71.4628 154.487 72.4359 154.164 73.3598C153.876 74.1794 153.416 74.9277 152.814 75.5541C152.203 76.1745 151.464 76.6527 150.647 76.9548C149.71 77.296 148.718 77.4622 147.721 77.445C147.267 77.445 146.793 77.4243 146.297 77.3828C145.804 77.3413 145.317 77.2868 144.834 77.2194C144.355 77.1519 143.897 77.0715 143.461 76.9782C143.025 76.8848 142.636 76.7875 142.294 76.6864V58.1548L146.052 57.5479V64.1621C146.474 63.9769 146.913 63.8336 147.363 63.7341C147.844 63.6303 148.335 63.5794 148.826 63.5824C149.684 63.5649 150.536 63.7321 151.324 64.0726C152.032 64.389 152.655 64.869 153.141 65.4733C153.65 66.1211 154.027 66.8628 154.25 67.656C154.512 68.5756 154.641 69.5282 154.631 70.4845ZM150.799 70.3834C150.799 67.9633 149.908 66.7533 148.126 66.7533C147.738 66.7535 147.352 66.8045 146.978 66.9051C146.653 66.9866 146.342 67.1178 146.056 67.2941V74.1146C146.238 74.1483 146.471 74.1781 146.756 74.2041C147.042 74.23 147.353 74.243 147.69 74.243C148.136 74.2738 148.583 74.1932 148.991 74.0085C149.398 73.8238 149.754 73.5407 150.025 73.1847C150.577 72.3586 150.847 71.3758 150.795 70.3834H150.799ZM156.896 70.5857C156.873 69.5306 157.057 68.4812 157.436 67.4964C157.759 66.6733 158.243 65.9232 158.86 65.2904C159.439 64.7155 160.131 64.2665 160.891 63.9714C161.641 63.6712 162.441 63.5167 163.249 63.5162C165.132 63.5162 166.62 64.0921 167.712 65.2437C168.801 66.3954 169.346 68.0891 169.346 70.325C169.346 70.5429 169.338 70.7828 169.323 71.0448C169.307 71.3042 169.29 71.535 169.272 71.7373H160.751C160.785 72.1054 160.899 72.4614 161.087 72.7796C161.275 73.0979 161.531 73.3705 161.837 73.5777C162.602 74.0671 163.501 74.3052 164.409 74.2585C165.09 74.2589 165.77 74.195 166.44 74.0679C166.997 73.9729 167.543 73.8163 168.066 73.601L168.572 76.6513C168.312 76.7746 168.043 76.8761 167.766 76.9548C167.398 77.0632 167.024 77.1516 166.646 77.2194C166.231 77.2972 165.79 77.362 165.323 77.4139C164.854 77.4637 164.382 77.4883 163.911 77.4878C162.849 77.5108 161.793 77.3312 160.798 76.9587C159.969 76.6414 159.22 76.146 158.604 75.5075C158.019 74.8843 157.58 74.1387 157.32 73.3248C157.031 72.442 156.886 71.5184 156.892 70.5896L156.896 70.5857ZM165.72 69.1461C165.704 68.8294 165.649 68.5158 165.556 68.2123C165.468 67.9184 165.323 67.6447 165.128 67.407C164.927 67.1655 164.678 66.9682 164.397 66.8272C164.054 66.666 163.678 66.5886 163.3 66.6016C162.927 66.5918 162.556 66.6649 162.214 66.8156C161.925 66.9492 161.668 67.1429 161.459 67.3836C161.254 67.6257 161.096 67.9041 160.993 68.2046C160.884 68.5117 160.803 68.8282 160.751 69.15H165.72V69.1461ZM180.24 67.1813C179.903 67.0983 179.514 67.0101 179.073 66.9167C178.591 66.8212 178.101 66.7743 177.61 66.7767C177.327 66.7799 177.045 66.8007 176.766 66.8389C176.515 66.8667 176.266 66.9135 176.022 66.979V77.0949H172.264V64.5551C173.04 64.2919 173.83 64.0711 174.63 63.8936C175.635 63.6742 176.662 63.5685 177.692 63.5785C177.894 63.5785 178.138 63.5915 178.423 63.6174C178.708 63.6433 178.994 63.677 179.279 63.7185C179.564 63.76 179.85 63.8119 180.135 63.8742C180.385 63.9224 180.63 63.9941 180.866 64.0882L180.24 67.1813ZM182.886 64.3099C183.698 64.0881 184.523 63.9153 185.356 63.7925C186.408 63.629 187.471 63.5483 188.535 63.5512C189.495 63.5229 190.451 63.6733 191.356 63.9948C192.047 64.2491 192.66 64.6797 193.134 65.2437C193.583 65.8051 193.901 66.4588 194.068 67.158C194.26 67.9672 194.353 68.7969 194.344 69.6286V77.1221H190.582V70.0799C190.582 68.8686 190.422 68.0126 190.103 67.512C189.784 67.0088 189.187 66.7572 188.313 66.7572C188.054 66.7572 187.769 66.7702 187.457 66.7961C187.146 66.8221 186.878 66.8519 186.652 66.8856V77.1182H182.893V64.3099H182.886ZM197.106 70.5857C197.084 69.5306 197.268 68.4812 197.647 67.4964C197.97 66.6733 198.454 65.9232 199.071 65.2904C199.646 64.7174 200.332 64.2685 201.087 63.9714C201.836 63.6713 202.637 63.5168 203.444 63.5162C205.327 63.5162 206.815 64.0921 207.907 65.2437C208.996 66.3954 209.541 68.0891 209.541 70.325C209.541 70.5429 209.532 70.7828 209.514 71.0448C209.496 71.3042 209.479 71.535 209.463 71.7373H200.943C200.976 72.1054 201.091 72.4614 201.278 72.7796C201.466 73.0979 201.722 73.3705 202.028 73.5777C202.793 74.0671 203.693 74.3052 204.6 74.2585C205.281 74.2589 205.961 74.195 206.631 74.0679C207.189 73.9729 207.734 73.8163 208.257 73.601L208.763 76.6513C208.503 76.7745 208.234 76.8761 207.958 76.9548C207.589 77.0633 207.215 77.1516 206.837 77.2194C206.422 77.2972 205.981 77.362 205.514 77.4139C205.045 77.4637 204.574 77.4883 204.102 77.4878C203.04 77.5108 201.984 77.3312 200.989 76.9587C200.16 76.6414 199.411 76.146 198.795 75.5075C198.211 74.8802 197.775 74.1305 197.519 73.3131C197.235 72.4334 197.095 71.5138 197.102 70.5896L197.106 70.5857ZM205.93 69.1461C205.914 68.8294 205.859 68.5158 205.767 68.2123C205.679 67.9184 205.533 67.6447 205.339 67.407C205.138 67.1655 204.889 66.9682 204.608 66.8272C204.265 66.666 203.889 66.5886 203.51 66.6016C203.137 66.5917 202.766 66.6647 202.425 66.8156C202.136 66.9492 201.879 67.1429 201.67 67.3836C201.465 67.6256 201.306 67.9041 201.203 68.2046C201.094 68.5117 201.013 68.8282 200.962 69.15H205.93V69.1461ZM212.331 60.5476L216.089 59.9407V63.8314H220.602V66.944H216.089V71.6128C216.058 72.2689 216.202 72.9214 216.506 73.5037C216.783 73.9706 217.341 74.2041 218.179 74.2041C218.597 74.2029 219.015 74.1652 219.427 74.0912C219.826 74.0231 220.216 73.9176 220.595 73.7761L221.124 76.7019C220.632 76.8989 220.126 77.0589 219.61 77.1805C218.94 77.3271 218.254 77.395 217.568 77.3828C216.701 77.4095 215.837 77.2681 215.023 76.9665C214.395 76.7201 213.839 76.3186 213.408 75.7993C212.99 75.2728 212.701 74.6559 212.564 73.9979C212.398 73.231 212.317 72.4481 212.323 71.6634V60.5476H212.331ZM222.602 70.5857C222.58 69.5306 222.763 68.4812 223.143 67.4964C223.466 66.6733 223.95 65.9232 224.567 65.2904C225.146 64.7156 225.837 64.2666 226.598 63.9714C227.348 63.6713 228.148 63.5168 228.956 63.5162C230.839 63.5162 232.326 64.0921 233.418 65.2437C234.508 66.3954 235.053 68.0852 235.053 70.3133C235.053 70.5312 235.044 70.7711 235.025 71.0331C235.007 71.2925 234.99 71.5234 234.975 71.7257H226.454C226.488 72.094 226.603 72.4502 226.792 72.7685C226.98 73.0868 227.237 73.3592 227.544 73.566C228.309 74.0555 229.208 74.2935 230.115 74.2469C230.797 74.2472 231.477 74.1834 232.146 74.0562C232.704 73.9612 233.249 73.8046 233.773 73.5893L234.278 76.6397C234.019 76.7629 233.749 76.8644 233.473 76.9431C233.105 77.0516 232.73 77.1399 232.352 77.2077C231.937 77.2855 231.496 77.3504 231.03 77.4022C230.56 77.452 230.089 77.4767 229.617 77.4762C228.556 77.4992 227.499 77.3196 226.505 76.947C225.676 76.6298 224.927 76.1343 224.31 75.4958C223.72 74.8742 223.276 74.1284 223.011 73.3131C222.729 72.4331 222.589 71.5136 222.598 70.5896L222.602 70.5857ZM231.434 69.1461C231.418 68.8294 231.363 68.5158 231.271 68.2123C231.182 67.9184 231.037 67.6447 230.843 67.407C230.641 67.1655 230.392 66.9682 230.111 66.8272C229.769 66.666 229.393 66.5886 229.014 66.6016C228.641 66.5917 228.27 66.6647 227.929 66.8156C227.633 66.9457 227.369 67.1382 227.154 67.3797C226.949 67.6217 226.79 67.9002 226.688 68.2007C226.578 68.5078 226.498 68.8243 226.446 69.1461H231.434ZM241.756 74.4181C242.253 74.4483 242.75 74.3796 243.219 74.2157C243.361 74.1452 243.479 74.0328 243.555 73.8937C243.632 73.7546 243.664 73.5955 243.647 73.4376C243.631 73.2705 243.571 73.1106 243.473 72.974C243.376 72.8374 243.244 72.729 243.091 72.6594C242.552 72.3509 241.987 72.0905 241.402 71.8813C240.857 71.6816 240.322 71.4544 239.799 71.2004C239.35 70.9855 238.938 70.7005 238.578 70.3561C238.24 70.0252 237.975 69.6277 237.799 69.1889C237.603 68.6658 237.509 68.1096 237.523 67.5509C237.501 66.9844 237.616 66.4209 237.857 65.9077C238.098 65.3946 238.458 64.9467 238.908 64.6017C239.832 63.8755 241.1 63.5123 242.713 63.5123C243.497 63.5088 244.278 63.5804 245.048 63.7263C245.649 63.8319 246.24 63.9881 246.814 64.1932L246.161 67.119C245.693 66.9641 245.218 66.8342 244.737 66.73C244.169 66.6072 243.59 66.5484 243.009 66.5549C241.832 66.5549 241.243 66.883 241.243 67.5392C241.242 67.6725 241.267 67.8047 241.317 67.9283C241.386 68.0663 241.49 68.1833 241.62 68.2668C241.816 68.402 242.023 68.5204 242.239 68.6209C242.498 68.7506 242.83 68.8906 243.235 69.0411C243.937 69.2922 244.619 69.5939 245.277 69.9437C245.751 70.1922 246.181 70.5168 246.55 70.9047C246.85 71.2323 247.074 71.6232 247.203 72.0486C247.337 72.5231 247.402 73.0146 247.394 73.5076C247.426 74.0877 247.306 74.666 247.048 75.1863C246.79 75.7066 246.401 76.151 245.919 76.4763C244.934 77.1455 243.543 77.4827 241.749 77.4878C240.761 77.5081 239.774 77.4062 238.811 77.1844C238.258 77.0549 237.714 76.8859 237.185 76.6786L237.815 73.6282C238.452 73.8798 239.11 74.0776 239.78 74.2196C240.43 74.3543 241.092 74.4208 241.756 74.4181Z" fill="black"/>
</svg>
