<svg width="295" height="136" viewBox="0 0 295 136" fill="none" xmlns="http://www.w3.org/2000/svg">
<path d="M221.69 60.2979C221.261 60.2979 220.845 60.3863 220.476 60.5949L208.81 67.3321C208.055 67.7669 207.596 68.5887 207.596 69.4624V82.9126C207.596 83.786 208.055 84.6064 208.81 85.0425L211.856 86.7983C213.337 87.5281 213.883 87.5164 214.556 87.5164C216.748 87.5164 217.999 86.1865 217.999 83.8752V70.6057C217.999 70.4181 217.836 70.2838 217.652 70.2838H216.191C216.004 70.2838 215.844 70.4215 215.844 70.6057V83.882C215.844 84.9066 214.777 85.9373 213.045 85.0711L209.878 83.2135C209.766 83.1526 209.68 83.0414 209.68 82.9164V69.4662C209.68 69.3388 209.765 69.2087 209.878 69.1443L221.52 62.4312C221.629 62.3686 221.759 62.3686 221.867 62.4312L233.508 69.1443C233.619 69.2107 233.707 69.3347 233.707 69.4662V82.9164C233.707 83.0448 233.642 83.1763 233.533 83.2383L221.867 89.9513C221.764 90.0109 221.626 90.0109 221.52 89.9513L218.523 88.1681C218.434 88.1158 218.312 88.1199 218.226 88.1681C217.399 88.637 217.243 88.6914 216.468 88.9606C216.277 89.027 215.986 89.1306 216.567 89.4563L220.48 91.7628C220.853 91.9783 221.268 92.0847 221.694 92.0847C222.126 92.0847 222.535 91.9814 222.908 91.7628L234.574 85.0498C235.329 84.6105 235.788 83.7932 235.788 82.9198V69.4696C235.788 68.5959 235.329 67.7759 234.574 67.3393L222.908 60.6022C222.542 60.3936 222.123 60.3051 221.694 60.3051L221.69 60.2979ZM224.811 69.9089C221.489 69.9089 219.51 71.3228 219.51 73.6737C219.51 76.2212 221.474 76.9249 224.662 77.2402C228.477 77.6138 228.774 78.1739 228.774 78.9247C228.774 80.227 227.736 80.7823 225.282 80.7823C222.199 80.7823 221.521 80.0126 221.294 78.4758C221.267 78.3112 221.14 78.1787 220.972 78.1787H219.457C219.366 78.1807 219.279 78.2179 219.214 78.2825C219.15 78.347 219.113 78.4341 219.111 78.5254C219.111 80.4887 220.178 82.8104 225.278 82.8104C228.97 82.8104 231.099 81.3645 231.099 78.8225C231.099 76.3094 229.379 75.6301 225.798 75.1561C222.184 74.6741 221.835 74.4435 221.835 73.5956C221.835 72.896 222.128 71.9603 224.808 71.9603C227.201 71.9603 228.086 72.4767 228.449 74.0906C228.481 74.2421 228.614 74.366 228.771 74.366H230.286C230.378 74.366 230.469 74.3089 230.533 74.2421C230.597 74.1708 230.641 74.0906 230.633 73.9942C230.398 71.2147 228.545 69.9072 224.812 69.9072L224.811 69.9089Z" fill="#83CD29"/>
<path d="M153.103 42.666C152.973 42.6662 152.845 42.7004 152.731 42.7651C152.619 42.831 152.525 42.925 152.46 43.0379C152.395 43.1509 152.361 43.2789 152.36 43.4092V62.358C152.36 62.5439 152.273 62.7105 152.112 62.8038C152.033 62.8498 151.943 62.8741 151.852 62.8741C151.761 62.8741 151.671 62.8498 151.592 62.8038L148.496 61.0205C148.27 60.8898 148.014 60.821 147.753 60.821C147.492 60.821 147.235 60.8898 147.01 61.0205L134.65 68.1539C134.188 68.4204 133.906 68.9333 133.906 69.4666V83.7337C133.906 83.9948 133.974 84.2514 134.105 84.4775C134.235 84.7036 134.423 84.8913 134.65 85.0216L147.01 92.1554C147.235 92.2864 147.492 92.3554 147.753 92.3554C148.014 92.3554 148.27 92.2864 148.496 92.1554L160.856 85.0216C161.082 84.8913 161.27 84.7036 161.4 84.4775C161.531 84.2514 161.599 83.9948 161.599 83.7337V48.1648C161.599 47.6237 161.304 47.1159 160.831 46.8522L153.475 42.74C153.359 42.6756 153.231 42.6646 153.103 42.666ZM73.5927 60.4752C73.3569 60.4849 73.1355 60.5258 72.9238 60.6487L60.5642 67.7821C60.3378 67.9122 60.1498 68.0998 60.0193 68.326C59.8889 68.5522 59.8205 68.8089 59.8213 69.07L59.8464 88.2174C59.8464 88.4838 59.9841 88.731 60.2182 88.8611C60.4478 88.9988 60.7326 88.9988 60.9611 88.8611L68.2928 84.6502C68.7576 84.3748 69.0605 83.8942 69.0605 83.3626V74.4205C69.0605 73.8869 69.3411 73.398 69.8041 73.133L72.9252 71.3249C73.1507 71.1938 73.4072 71.1253 73.6681 71.1266C73.9291 71.1251 74.1858 71.1935 74.4114 71.3249L77.531 73.1319C77.9934 73.397 78.274 73.8865 78.274 74.4195V83.3613C78.274 83.8935 78.5838 84.3768 79.0417 84.6488L86.3734 88.8598C86.604 88.9975 86.888 88.9975 87.1163 88.8598C87.3435 88.7289 87.4881 88.4821 87.4881 88.216L87.5128 69.0693C87.5143 68.8081 87.4463 68.5511 87.3157 68.3248C87.1852 68.0985 86.9968 67.911 86.7699 67.7814L74.4103 60.6484C74.2014 60.5258 73.979 60.4845 73.7414 60.4749H73.5934L73.5927 60.4752ZM184.659 60.6487C184.398 60.648 184.142 60.7164 183.916 60.847L171.556 67.9808C171.095 68.2476 170.812 68.7354 170.812 69.2683V83.5354C170.812 84.0718 171.115 84.5579 171.58 84.823L183.841 91.8114C184.294 92.0696 184.846 92.0893 185.302 91.8355L192.733 87.6989C192.969 87.5681 193.128 87.3237 193.129 87.0552C193.13 86.7866 192.99 86.545 192.757 86.4114L180.322 79.2776C180.09 79.1448 179.927 78.8759 179.927 78.6087V74.1475C179.927 73.881 180.092 73.6366 180.322 73.5037L184.186 71.2743C184.416 71.1414 184.699 71.1414 184.93 71.2743L188.796 73.5037C188.909 73.5687 189.003 73.6625 189.068 73.7756C189.133 73.8887 189.168 74.017 189.167 74.1475V77.6648C189.167 77.7953 189.201 77.9236 189.266 78.0367C189.331 78.1497 189.425 78.2435 189.539 78.3086C189.77 78.4421 190.051 78.4428 190.282 78.3086L197.688 73.9995C198.148 73.7323 198.432 73.2431 198.432 72.7119V69.2693C198.432 69.0083 198.363 68.7519 198.232 68.5258C198.102 68.2998 197.914 68.112 197.688 67.9815L185.403 60.8477C185.177 60.717 184.92 60.6485 184.659 60.6494L184.659 60.6487ZM147.703 71.3001C147.772 71.2998 147.84 71.3167 147.901 71.3493L152.137 73.8015C152.252 73.8679 152.335 73.9909 152.335 74.1234V79.0277C152.335 79.1609 152.252 79.2835 152.137 79.3496L147.901 81.8018C147.786 81.8672 147.645 81.8672 147.529 81.8018L143.294 79.3496C143.179 79.2832 143.096 79.1603 143.096 79.0277V74.1227C143.096 73.9898 143.179 73.8679 143.294 73.8008L147.529 71.349C147.587 71.3156 147.638 71.3001 147.703 71.3001Z" fill="#404137"/>
<path d="M110.722 60.5741C110.461 60.5736 110.205 60.642 109.979 60.7724L97.6189 67.8813C97.1569 68.1478 96.876 68.6611 96.876 69.194V83.4612C96.8753 83.7222 96.9436 83.9788 97.0741 84.2049C97.2046 84.4311 97.3925 84.6186 97.6189 84.7487L109.979 91.8824C110.205 92.0134 110.461 92.0825 110.722 92.0825C110.983 92.0825 111.239 92.0134 111.465 91.8824L123.825 84.7487C124.051 84.6184 124.239 84.4307 124.37 84.2046C124.5 83.9785 124.569 83.7219 124.568 83.4608V69.1937C124.568 68.6601 124.287 68.1471 123.825 67.881L111.465 60.772C111.239 60.6411 110.982 60.5726 110.721 60.5737L110.722 60.5741ZM184.635 73.3058C184.586 73.3058 184.531 73.3058 184.486 73.3299L182.108 74.7173C182.064 74.7419 182.027 74.7777 182.001 74.8212C181.975 74.8646 181.961 74.9142 181.96 74.9648V77.6896C181.96 77.7922 182.019 77.8859 182.108 77.9375L184.486 79.2997C184.527 79.3251 184.574 79.3385 184.622 79.3385C184.67 79.3385 184.717 79.3251 184.758 79.2997L187.136 77.9375C187.224 77.8869 187.285 77.7922 187.285 77.6896V74.9648C187.285 74.8622 187.225 74.7686 187.136 74.717L184.758 73.3296C184.714 73.3034 184.684 73.3055 184.634 73.3055L184.635 73.3058Z" fill="#83CD29"/>
</svg>
