<svg width="295" height="136" viewBox="0 0 295 136" fill="none" xmlns="http://www.w3.org/2000/svg">
<g clip-path="url(#clip0_2197_354)">
<path d="M92.4844 56.2924H102.832C110.32 56.2924 112.217 60.808 112.217 64.4883C112.217 68.1687 110.278 72.6842 102.832 72.6842H96.4479V85.5939H92.4844V56.2924ZM96.4479 59.7746V69.202H101.671C104.814 69.202 107.956 68.466 107.956 64.4883C107.956 60.5107 104.814 59.7746 101.671 59.7746H96.4479ZM117.398 56.1509C118.893 56.1519 120.11 57.3554 120.128 58.851C120.145 60.3466 118.957 61.5782 117.461 61.614C115.966 61.6499 114.72 60.4767 114.666 58.9819C114.643 58.2415 114.92 57.5231 115.434 56.9901C115.949 56.457 116.657 56.1543 117.398 56.1509ZM115.572 65.9746H119.252V85.5939H115.572V65.9746ZM123.513 65.9746H127.236V69.0039H127.321C128.618 66.6886 131.126 65.3194 133.775 65.4792C137.583 65.4792 140.853 67.7582 140.853 72.9674V85.5939H137.173V74.0148C137.173 70.3203 135.063 68.9614 132.7 68.9614C129.6 68.9614 127.236 70.9431 127.236 75.5011V85.5939H123.513V65.9746ZM147.676 77.1573C147.676 80.5829 150.861 82.8194 154.3 82.8194C156.458 82.7567 158.457 81.6681 159.679 79.8893L162.511 82.0409C160.455 84.7525 157.189 86.2688 153.791 86.0893C147.704 86.0893 143.857 81.8105 143.703 76.1404L143.698 75.7843C143.588 73.0561 144.609 70.4035 146.52 68.4528C148.43 66.5022 151.061 65.4263 153.791 65.4792C160.699 65.4792 163.346 70.7733 163.346 75.8267V77.1573H147.676ZM159.453 74.1705C159.368 70.9007 157.542 68.5084 153.791 68.5084C150.583 68.4866 147.914 70.9693 147.704 74.1705H159.453ZM180.247 71.1979C179.035 69.7652 177.24 68.9585 175.364 69.0039C171.315 69.0039 169.234 72.2737 169.234 75.9541C169.132 77.6949 169.757 79.4002 170.958 80.6637C172.16 81.9272 173.832 82.636 175.576 82.6213C177.419 82.683 179.183 81.8694 180.332 80.4272L182.979 83.0459C181.053 85.0848 178.335 86.1853 175.533 86.061C172.779 86.1996 170.094 85.1689 168.14 83.2228C166.185 81.2767 165.144 78.5959 165.271 75.8409C165.146 73.0752 166.185 70.3835 168.134 68.4178C170.084 66.4521 172.767 65.3917 175.533 65.4934C178.368 65.4214 181.102 66.5467 183.064 68.5934L180.247 71.1979ZM193.992 65.4792C199.66 65.5727 204.188 70.2269 204.126 75.8956C204.064 81.5643 199.435 86.1184 193.766 86.0882C188.097 86.0571 183.518 81.4533 183.517 75.7843C183.517 73.0215 184.626 70.3743 186.595 68.4368C188.461 66.6012 190.951 65.5482 193.557 65.4812L193.992 65.4792ZM193.992 82.6213C197.955 82.6213 200.447 79.7902 200.447 75.7843C200.447 71.7783 197.955 68.9614 193.992 68.9614C190.028 68.9614 187.523 71.7925 187.523 75.7843C187.523 79.6652 189.878 82.4623 193.664 82.6147L193.992 82.6213ZM207.439 65.9746H211.162V69.0039C212.465 66.6863 214.978 65.3173 217.631 65.4792C221.439 65.4792 224.709 67.7582 224.709 72.9674V85.5939H220.986V74.0148C220.986 70.3203 218.877 68.9614 216.527 68.9614C213.413 68.9614 211.063 70.9431 211.063 75.5011V85.5939H207.439V65.9746ZM231.645 77.1573C231.645 80.5829 234.83 82.8194 238.27 82.8194C240.426 82.7499 242.421 81.6629 243.649 79.8893L246.48 82.0409C244.422 84.7299 241.169 86.2292 237.788 86.0468C231.715 86.0468 227.855 81.7681 227.7 76.098L227.696 75.7418C227.585 73.0061 228.612 70.3467 230.532 68.3946C232.452 66.4426 235.094 65.3719 237.831 65.4367C244.753 65.4367 247.4 70.7308 247.4 75.7843V77.1148L231.645 77.1573ZM243.394 74.1705C243.309 70.9007 241.497 68.5084 237.732 68.5084C234.521 68.4795 231.848 70.966 231.645 74.1705H243.394Z" fill="black"/>
<path d="M62.6447 82.9045C63.919 82.9045 64.952 83.9375 64.952 85.2118C64.952 86.4861 63.919 87.5191 62.6447 87.5191C61.3704 87.5191 60.3374 86.4861 60.3374 85.2118C60.3374 83.9375 61.3704 82.9045 62.6447 82.9045ZM75.4457 78.6947L77.7258 79.3703L75.9158 85.4788C75.7577 86.0126 75.2504 86.3652 74.695 86.3273L74.1359 86.289L74.1222 86.3003L68.3137 85.8927L68.4753 83.5201L72.3778 83.7849L69.823 80.0994L71.7773 78.7444L74.3355 82.4345L75.4457 78.6947ZM50.6289 74.4718L53.0011 74.6399L52.7232 78.5418L56.402 75.9836L57.7601 77.9358L54.0765 80.4966L57.8364 81.6045L57.1643 83.8857L51.0269 82.0775C50.4911 81.9196 50.1374 81.4101 50.1769 80.8529L50.6289 74.4718ZM65.9451 71.1492L70.2264 76.3181L68.2969 77.9163L65.7489 74.8402L64.9228 79.5698L62.4548 79.1383L63.2816 74.4014L59.8514 76.4239L58.5797 74.2651L64.3444 70.869C64.8744 70.5567 65.5527 70.6755 65.9451 71.1492ZM77.9233 67.6813L80.062 66.5177L83.1775 72.2442C83.4505 72.7458 83.338 73.3697 82.9071 73.7445L82.4663 74.1253L77.9684 78.0397L76.3707 76.2026L79.3946 73.5719L74.8905 72.7605L75.3226 70.3644L79.8235 71.1754L77.9233 67.6813ZM52.7016 61.6944L54.3127 63.5199L51.3303 66.1503L55.843 66.9381L55.4248 69.3366L50.9071 68.5482L52.8476 72.0562L50.7171 73.2348L47.5516 67.5125C47.2752 67.0129 47.3832 66.3883 47.8113 66.0105L52.7016 61.6944ZM67.9554 59.8112L72.2222 64.9662L70.2921 66.5637L67.7448 63.4862L66.9187 68.2172L64.4507 67.7858L65.2747 63.0672L61.8576 65.0703L60.5907 62.9087L65.8395 59.8313L65.8447 59.8113L65.8678 59.8144L66.3569 59.5292C66.8868 59.2186 67.5638 59.338 67.9554 59.8112ZM73.4537 57.2759L74.387 55.0272L80.4232 57.5321C80.9501 57.7508 81.2545 58.3059 81.1555 58.8677L81.055 59.4265L80.0242 65.2899L77.6264 64.8675L78.3174 60.9425L74.3127 63.1559L73.1358 61.0245L77.1482 58.8093L73.4537 57.2759ZM61.9547 52.8445L62.0585 55.277L58.0711 55.4475L61.0785 58.8843L59.2462 60.4876L56.2337 57.0456L55.5319 60.9751L53.1352 60.5465L54.2838 54.1248C54.3842 53.5636 54.8606 53.1472 55.4302 53.1229L55.9945 53.0977L56.0072 53.0885L61.9547 52.8445ZM70.1113 47.6569L74.3588 52.8445L72.4202 54.4318L69.8992 51.3523L69.0489 56.0771L66.5831 55.6333L67.4348 50.8979L63.9928 52.9103L62.7288 50.7471L68.5099 47.3689C69.0419 47.0581 69.7209 47.1802 70.1113 47.6569Z" fill="#201D1E"/>
</g>
<defs>
<clipPath id="clip0_2197_354">
<rect width="200" height="40.625" fill="white" transform="translate(47.3994 47.1978)"/>
</clipPath>
</defs>
</svg>
