<svg width="295" height="136" viewBox="0 0 295 136" fill="none" xmlns="http://www.w3.org/2000/svg">
<path d="M122.809 67.8918C122.809 61.7578 121.06 58.6087 117.562 58.4363C116.17 58.3706 114.811 58.5923 113.489 59.1055C112.434 59.4832 111.724 59.8569 111.35 60.2346V74.8757C113.588 76.2799 115.575 76.9327 117.308 76.8301C120.974 76.5878 122.809 73.6112 122.809 67.8918ZM127.125 68.1464C127.125 71.2627 126.394 73.8493 124.924 75.9063C123.286 78.2342 121.015 79.4331 118.113 79.4988C115.924 79.5686 113.67 78.8829 111.35 77.4459V90.7527L107.598 89.4142V59.8774C108.214 59.1219 109.006 58.4732 109.967 57.923C112.2 56.6215 114.914 55.9523 118.108 55.9194L118.162 55.9728C121.081 55.9359 123.331 57.1347 124.912 59.5653C126.386 61.7948 127.125 64.6524 127.125 68.1464Z" fill="#646464"/>
<path d="M150.06 76.8793C150.06 81.059 149.641 83.9536 148.804 85.563C147.962 87.1725 146.361 88.4576 143.996 89.4142C142.079 90.1697 140.005 90.5803 137.78 90.6501L137.16 88.2851C139.422 87.9772 141.015 87.6693 141.939 87.3613C143.758 86.7455 145.006 85.8012 145.692 84.5366C146.242 83.506 146.513 81.5394 146.513 78.6284V77.6512C143.947 78.8173 141.257 79.3962 138.445 79.3962C136.597 79.3962 134.967 78.8173 133.563 77.6512C131.987 76.3825 131.198 74.7731 131.198 72.8228V57.2045L134.951 55.9194V71.6404C134.951 73.3196 135.493 74.613 136.577 75.5203C137.661 76.4277 139.065 76.8629 140.785 76.8301C142.506 76.7931 144.349 76.128 146.307 74.8265V56.486H150.06V76.8793Z" fill="#646464"/>
<path d="M164.709 79.2937C164.262 79.3306 163.851 79.3471 163.473 79.3471C161.351 79.3471 159.696 78.8421 158.514 77.8279C157.335 76.8138 156.744 75.4137 156.744 73.6277V58.847H154.174V56.4862H156.744V50.2167L160.493 48.8823V56.4862H164.709V58.847H160.493V73.5251C160.493 74.9334 160.87 75.9311 161.626 76.5141C162.274 76.9945 163.305 77.2696 164.709 77.3394V79.2937Z" fill="#646464"/>
<path d="M187.43 78.9855H183.677V64.5004C183.677 63.0264 183.332 61.7578 182.647 60.6985C181.854 59.4996 180.754 58.9002 179.342 58.9002C177.621 58.9002 175.47 59.8075 172.887 61.6223V78.9855H169.135V44.3617L172.887 43.1792V58.9494C175.285 57.2045 177.905 56.3299 180.75 56.3299C182.737 56.3299 184.347 56.9992 185.578 58.3336C186.814 59.6679 187.43 61.3308 187.43 63.318V78.9855Z" fill="#646464"/>
<path d="M207.376 67.3006C207.376 64.9439 206.928 62.9978 206.037 61.4581C204.978 59.5818 203.332 58.5923 201.106 58.4896C196.992 58.7278 194.939 61.6757 194.939 67.3252C194.939 69.916 195.366 72.0797 196.229 73.8164C197.329 76.0294 198.98 77.1216 201.18 77.0846C205.311 77.0518 207.376 73.7918 207.376 67.3006ZM211.486 67.3252C211.486 70.6796 210.628 73.4716 208.916 75.701C207.031 78.1973 204.428 79.4495 201.106 79.4495C197.814 79.4495 195.247 78.1973 193.396 75.701C191.716 73.4716 190.879 70.6796 190.879 67.3252C190.879 64.172 191.786 61.5197 193.601 59.3601C195.518 57.069 198.039 55.9194 201.156 55.9194C204.272 55.9194 206.809 57.069 208.764 59.3601C210.578 61.5197 211.486 64.172 211.486 67.3252Z" fill="#646464"/>
<path d="M233 78.9856H229.247V63.6793C229.247 62.0001 228.742 60.6903 227.732 59.746C226.722 58.8058 225.375 58.35 223.696 58.387C221.914 58.4198 220.219 59.0029 218.609 60.1319V78.9856H214.856V59.668C217.016 58.0955 219.003 57.069 220.818 56.5887C222.53 56.1411 224.041 55.9194 225.343 55.9194C226.234 55.9194 227.071 56.0057 227.859 56.1781C229.333 56.5189 230.532 57.1512 231.456 58.0791C232.487 59.1055 233 60.3372 233 61.7784V78.9856Z" fill="#646464"/>
<path d="M70.5338 44.5004C68.603 44.5094 66.7592 44.674 65.1368 44.9611C60.3574 45.8055 59.4897 47.5728 59.4897 50.832V55.1364H70.7839V56.5712H59.4897H55.2511C51.9687 56.5712 49.0945 58.5442 48.1955 62.2973C47.1585 66.5993 47.1125 69.2838 48.1955 73.7758C48.9983 77.1195 50.9156 79.5019 54.198 79.5019H58.0812V74.3419C58.0812 70.614 61.3066 67.3258 65.1368 67.3258H76.4178C79.5581 67.3258 82.0649 64.7402 82.0649 61.5865V50.832C82.0649 47.7712 79.4828 45.4719 76.4178 44.9611C74.4777 44.6381 72.4646 44.4914 70.5338 44.5004ZM64.426 47.9624C65.5926 47.9624 66.5453 48.9306 66.5453 50.1212C66.5453 51.3075 65.5926 52.2668 64.426 52.2668C63.2552 52.2668 62.3067 51.3075 62.3067 50.1212C62.3067 48.9306 63.2552 47.9624 64.426 47.9624Z" fill="url(#paint0_linear_2197_264)"/>
<path d="M83.473 56.5713V61.5866C83.473 65.4748 80.1765 68.7474 76.4174 68.7474H65.1364C62.0463 68.7474 59.4893 71.3921 59.4893 74.4867V85.2412C59.4893 88.302 62.1508 90.1023 65.1364 90.9805C68.7115 92.0317 72.1398 92.2217 76.4174 90.9805C79.2608 90.1572 82.0645 88.5004 82.0645 85.2412V80.9368H70.7835V79.502H82.0645H87.7116C90.994 79.502 92.2172 77.2124 93.3587 73.7759C94.5379 70.238 94.4877 66.8358 93.3587 62.2974C92.5475 59.0297 90.9982 56.5713 87.7116 56.5713H83.473ZM77.1282 83.8064C78.299 83.8064 79.2475 84.7657 79.2475 85.952C79.2475 87.1426 78.299 88.1108 77.1282 88.1108C75.9616 88.1108 75.0089 87.1426 75.0089 85.952C75.0089 84.7657 75.9616 83.8064 77.1282 83.8064Z" fill="url(#paint1_linear_2197_264)"/>
<path d="M240.308 53.1408H240.966V49.0143H242.524V48.5225H238.749V49.0143H240.308V53.1408ZM243.108 53.1408H243.67V49.372L244.89 53.1403H245.516L246.787 49.3848V53.1408H247.4V48.5225H246.589L245.2 52.479L244.015 48.5225H243.108V53.1408Z" fill="#646464"/>
<defs>
<linearGradient id="paint0_linear_2197_264" x1="47.4004" y1="44.5" x2="73.4436" y2="66.6924" gradientUnits="userSpaceOnUse">
<stop stop-color="#5A9FD4"/>
<stop offset="1" stop-color="#306998"/>
</linearGradient>
<linearGradient id="paint1_linear_2197_264" x1="76.8568" y1="85.5901" x2="67.5135" y2="72.4974" gradientUnits="userSpaceOnUse">
<stop stop-color="#FFD43B"/>
<stop offset="1" stop-color="#FFE873"/>
</linearGradient>
</defs>
</svg>
