<svg width="295" height="136" viewBox="0 0 295 136" fill="none" xmlns="http://www.w3.org/2000/svg">
<g clip-path="url(#clip0_2197_323)">
<path fill-rule="evenodd" clip-rule="evenodd" d="M244.702 58.1759H244.174V58.8316H244.702C244.945 58.8316 245.105 58.7234 245.105 58.5038C245.105 58.2841 244.958 58.1759 244.702 58.1759ZM243.525 57.5759H244.712C245.367 57.5759 245.794 57.93 245.794 58.4808C245.796 58.6343 245.757 58.7856 245.682 58.9193C245.606 59.0529 245.497 59.1641 245.364 59.2414L245.83 59.9168V60.0512H245.154L244.702 59.3955H244.174V60.0512H243.518L243.525 57.5759ZM246.846 58.8611C246.846 57.5497 245.964 56.5334 244.613 56.5334C243.263 56.5334 242.407 57.4874 242.407 58.8611C242.407 60.1725 243.289 61.1921 244.613 61.1921C245.938 61.1921 246.846 60.1856 246.846 58.8611ZM247.4 58.8611C247.4 60.4217 246.358 61.7199 244.613 61.7199C242.869 61.7199 241.856 60.4085 241.856 58.8611C241.856 57.3137 242.886 56.0056 244.613 56.0056C246.341 56.0056 247.387 57.3038 247.387 58.8611H247.4ZM91.3678 64.405L85.9943 67.513L91.3678 70.6112C92.0199 70.9868 92.4961 71.6061 92.6916 72.3328C92.8871 73.0596 92.7859 73.8342 92.4103 74.4863C92.0347 75.1384 91.4154 75.6146 90.6887 75.8102C89.9619 76.0057 89.1873 75.9045 88.5352 75.5289L78.9128 69.9555C78.295 69.5991 77.8357 69.0214 77.6277 68.3392C77.5345 68.0413 77.4924 67.7298 77.5031 67.4179C77.508 67.1961 77.5411 66.9758 77.6014 66.7622C77.7999 66.0466 78.2706 65.437 78.9128 65.064L88.5352 59.5102C89.1873 59.1346 89.9619 59.0334 90.6887 59.229C91.4154 59.4245 92.0347 59.9007 92.4103 60.5528C92.7859 61.2049 92.8871 61.9796 92.6916 62.7063C92.4961 63.433 92.0199 64.0523 91.3678 64.428V64.405ZM86.2796 79.463L76.6605 73.9159C76.1653 73.6264 75.5928 73.497 75.0213 73.5454C74.3084 73.5976 73.6417 73.9177 73.1551 74.4413C72.6686 74.965 72.3983 75.6534 72.3985 76.3682V87.4756C72.3985 88.2269 72.6969 88.9474 73.2282 89.4786C73.7594 90.0098 74.4799 90.3082 75.2311 90.3082C75.9824 90.3082 76.7028 90.0098 77.2341 89.4786C77.7653 88.9474 78.0637 88.2269 78.0637 87.4756V81.2465L83.4634 84.3807C83.7863 84.5665 84.1426 84.6869 84.512 84.7349C84.8814 84.783 85.2567 84.7578 85.6164 84.6609C85.9761 84.5639 86.3131 84.3971 86.6083 84.1698C86.9035 83.9426 87.1511 83.6595 87.3369 83.3366C87.5227 83.0137 87.643 82.6573 87.6911 82.2879C87.7391 81.9185 87.714 81.5432 87.617 81.1835C87.52 80.8238 87.3532 80.4868 87.126 80.1916C86.8987 79.8964 86.6156 79.6488 86.2927 79.463H86.2796ZM75.1787 68.5982L71.1789 72.5782C71.0426 72.707 70.8646 72.7826 70.6773 72.7913H69.5036C69.3157 72.7809 69.1373 72.7056 68.9987 72.5782L65.0023 68.5982C64.8789 68.4603 64.8061 68.2846 64.7957 68.0998V66.9229C64.8049 66.7359 64.8778 66.5578 65.0023 66.418L68.9987 62.415C69.1376 62.2886 69.3161 62.2144 69.5036 62.2052H70.6773C70.8641 62.2133 71.042 62.2876 71.1789 62.415L75.1787 66.4082C75.3031 66.5479 75.376 66.7261 75.3852 66.913V68.09C75.377 68.2782 75.3041 68.4577 75.1787 68.5982ZM71.9887 67.4901C71.9758 67.3024 71.9022 67.124 71.7789 66.9819L70.6117 65.8311C70.4749 65.7057 70.2988 65.6316 70.1134 65.6213H70.0675C69.8821 65.6316 69.7061 65.7057 69.5692 65.8311L68.4119 66.9819C68.2869 67.1227 68.214 67.302 68.2053 67.4901V67.5327C68.2136 67.7179 68.2867 67.8943 68.4119 68.031L69.5692 69.1883C69.7065 69.313 69.8823 69.3871 70.0675 69.3981H70.1134C70.2988 69.3879 70.4749 69.3137 70.6117 69.1883L71.7723 68.031C71.8983 67.8939 71.9746 67.7184 71.9887 67.5327V67.4901ZM53.9014 55.5499L63.5237 61.1036C63.9553 61.3524 64.4447 61.4834 64.9429 61.4835C65.4411 61.4835 65.9306 61.3526 66.3623 61.1039C66.794 60.8552 67.1527 60.4974 67.4025 60.0664C67.6523 59.6353 67.7845 59.1462 67.7857 58.648V47.5405C67.7857 46.7893 67.4873 46.0688 66.956 45.5376C66.4248 45.0064 65.7043 44.7079 64.9531 44.7079C64.2018 44.7079 63.4814 45.0064 62.9501 45.5376C62.4189 46.0688 62.1205 46.7893 62.1205 47.5405V53.7696L56.7307 50.6453C56.4078 50.4595 56.0515 50.3391 55.682 50.2911C55.3126 50.243 54.9374 50.2682 54.5777 50.3651C53.8512 50.5609 53.2324 51.0373 52.8572 51.6894C52.482 52.3416 52.3812 53.116 52.577 53.8425C52.7729 54.5689 53.2492 55.1878 53.9014 55.563V55.5499ZM75.0213 61.4741C75.5927 61.5207 76.1647 61.3914 76.6605 61.1036L86.2796 55.5499C86.6025 55.3641 86.8856 55.1165 87.1128 54.8213C87.3401 54.5261 87.5069 54.189 87.6039 53.8294C87.7009 53.4697 87.726 53.0944 87.678 52.725C87.6299 52.3556 87.5095 51.9992 87.3238 51.6763C87.138 51.3534 86.8904 51.0703 86.5952 50.8431C86.3 50.6158 85.963 50.449 85.6033 50.352C85.2436 50.255 84.8683 50.2299 84.4989 50.2779C84.1295 50.326 83.7731 50.4464 83.4502 50.6321L78.0637 53.7565V47.5274C78.0637 46.7762 77.7653 46.0557 77.2341 45.5245C76.7028 44.9933 75.9824 44.6948 75.2311 44.6948C74.4799 44.6948 73.7594 44.9933 73.2282 45.5245C72.6969 46.0557 72.3985 46.7762 72.3985 47.5274V58.648C72.3982 59.3631 72.6684 60.0519 73.1549 60.5761C73.6414 61.1003 74.3081 61.4211 75.0213 61.4741ZM65.1662 73.5618C64.5947 73.5134 64.0222 73.6428 63.527 73.9323L53.9014 79.463C53.5785 79.6488 53.2953 79.8964 53.0681 80.1916C52.8409 80.4868 52.674 80.8238 52.577 81.1835C52.4801 81.5432 52.4549 81.9185 52.503 82.2879C52.551 82.6573 52.6714 83.0137 52.8572 83.3366C53.0429 83.6595 53.2905 83.9426 53.5857 84.1698C53.8809 84.3971 54.218 84.5639 54.5777 84.6609C54.9374 84.7578 55.3126 84.783 55.682 84.7349C56.0515 84.6869 56.4078 84.5665 56.7307 84.3807L62.1205 81.2728V87.5019C62.1205 88.2531 62.4189 88.9736 62.9501 89.5048C63.4814 90.036 64.2018 90.3345 64.9531 90.3345C65.7043 90.3345 66.4248 90.036 66.956 89.5048C67.4873 88.9736 67.7857 88.2531 67.7857 87.5019V76.3682C67.7819 75.6567 67.5102 74.9728 67.0247 74.4527C66.5393 73.9326 65.8757 73.6145 65.1662 73.5618ZM62.5434 68.3588C62.6377 68.0612 62.6809 67.7497 62.6713 67.4376C62.6622 67.2159 62.6281 66.996 62.5696 66.7819C62.3747 66.0645 61.9031 65.4537 61.2583 65.0837L51.6622 59.5004C51.01 59.1248 50.2354 59.0236 49.5087 59.2191C48.7819 59.4146 48.1626 59.8908 47.787 60.543C47.4114 61.1951 47.3102 61.9697 47.5057 62.6965C47.7012 63.4232 48.1774 64.0425 48.8296 64.4181L54.203 67.5261L48.8164 70.6112C48.1643 70.9885 47.6888 71.6095 47.4945 72.3375C47.3002 73.0654 47.4031 73.8407 47.7805 74.4929C48.1578 75.145 48.7788 75.6205 49.5067 75.8148C50.2347 76.0091 51.01 75.9062 51.6622 75.5289L61.2648 69.9555C61.8853 69.6022 62.3474 69.0252 62.5565 68.3425L62.5434 68.3588ZM181.88 51.7599H181.411C180.744 51.7475 180.08 51.8427 179.444 52.0419C178.821 52.2378 178.263 52.6006 177.831 53.091C177.391 53.605 177.08 54.2163 176.923 54.8745C176.739 55.6387 176.651 56.4228 176.661 57.2088V58.907H174.789C174.484 58.9061 174.191 59.0247 173.973 59.2374C173.754 59.4501 173.628 59.74 173.621 60.0446C173.614 60.3677 173.732 60.6811 173.949 60.92C174.172 61.1473 174.471 61.284 174.789 61.3036H176.647V75.1518C176.648 75.3077 176.68 75.4619 176.741 75.6054C176.801 75.7489 176.89 75.8789 177.001 75.9879C177.234 76.2024 177.541 76.3198 177.857 76.3157C178.165 76.3114 178.459 76.1856 178.674 75.9658C178.89 75.746 179.01 75.4499 179.008 75.142V61.3036H181.021C181.336 61.2874 181.634 61.1541 181.857 60.9298C182.084 60.7006 182.212 60.3905 182.211 60.0676V60.0217C182.202 59.7164 182.074 59.4268 181.854 59.2152C181.634 59.0036 181.339 58.8871 181.034 58.8906H179.008V57.1989C179.004 56.6211 179.072 56.0451 179.211 55.4843C179.278 55.1833 179.412 54.9011 179.601 54.6581C179.76 54.4927 179.959 54.3708 180.178 54.304C180.564 54.1938 180.964 54.1441 181.365 54.1565H181.427H181.519H181.627H181.893C182.051 54.1565 182.208 54.1253 182.355 54.0647C182.501 54.004 182.634 53.9152 182.746 53.8031C182.858 53.6911 182.947 53.5581 183.008 53.4117C183.068 53.2653 183.099 53.1085 183.099 52.95C183.099 52.7916 183.068 52.6347 183.008 52.4883C182.947 52.3419 182.858 52.2089 182.746 52.0969C182.634 51.9849 182.501 51.896 182.355 51.8354C182.208 51.7747 182.051 51.7435 181.893 51.7435L181.88 51.7599ZM223.385 60.72C223.499 60.6089 223.59 60.4764 223.652 60.3301C223.715 60.1839 223.748 60.0267 223.749 59.8676C223.748 59.7125 223.715 59.5593 223.652 59.4176C223.589 59.276 223.497 59.149 223.382 59.0447C223.275 58.9326 223.146 58.8434 223.004 58.7825C222.861 58.7216 222.708 58.6901 222.553 58.6901C222.398 58.6901 222.244 58.7216 222.102 58.7825C221.959 58.8434 221.83 58.9326 221.723 59.0447L212.468 68.0507V52.8746C212.466 52.7166 212.433 52.5606 212.37 52.4154C212.308 52.2702 212.217 52.1388 212.104 52.0286C211.991 51.9184 211.857 51.8316 211.71 51.7731C211.563 51.7146 211.406 51.6856 211.248 51.6878C211.093 51.6887 210.94 51.7202 210.797 51.7804C210.654 51.8405 210.525 51.9283 210.416 52.0386C210.194 52.2609 210.068 52.5609 210.065 52.8746V75.0896C210.068 75.4024 210.194 75.7014 210.415 75.9227C210.637 76.1439 210.936 76.2697 211.248 76.2731C211.567 76.2775 211.874 76.1553 212.103 75.9335C212.332 75.7116 212.463 75.4081 212.468 75.0896V71.4242L215.487 68.4113L221.638 75.8305C221.742 75.9869 221.891 76.1089 222.064 76.1813C222.226 76.2411 222.397 76.2722 222.569 76.2731C222.848 76.2782 223.12 76.1893 223.343 76.0206H223.359C223.48 75.905 223.577 75.7662 223.643 75.6124C223.71 75.4587 223.745 75.2931 223.746 75.1256C223.744 74.8373 223.64 74.5589 223.454 74.3388L217.192 66.7294L223.389 60.7331L223.385 60.72ZM206.665 59.1922C206.778 59.303 206.867 59.4352 206.928 59.581C206.989 59.7268 207.02 59.8834 207.019 60.0414V75.0896C207.017 75.4027 206.891 75.7022 206.67 75.9236C206.448 76.145 206.149 76.2705 205.836 76.2731C205.522 76.2696 205.222 76.1438 205 75.9223C204.889 75.8135 204.801 75.684 204.741 75.541C204.681 75.3981 204.649 75.2447 204.649 75.0896V73.6208C203.91 74.449 203.006 75.113 201.995 75.5698C200.984 76.0267 199.888 76.2663 198.778 76.2731C197.669 76.2799 196.57 76.0537 195.553 75.6093C194.537 75.1648 193.624 74.512 192.876 73.6929C191.329 72.0241 190.47 69.8327 190.47 67.5573C190.47 65.2818 191.329 63.0904 192.876 61.4216C193.626 60.6068 194.537 59.9571 195.552 59.5139C196.567 59.0707 197.664 58.8438 198.771 58.8475C199.879 58.8512 200.973 59.0855 201.985 59.5354C202.997 59.9854 203.904 60.6411 204.649 61.4609V60.025C204.649 59.8668 204.68 59.7101 204.742 59.5643C204.803 59.4185 204.893 59.2864 205.006 59.1758C205.231 58.9652 205.528 58.8479 205.836 58.8479C206.144 58.8479 206.44 58.9652 206.665 59.1758V59.1922ZM204.649 67.5753C204.661 65.8982 204.037 64.279 202.901 63.0444C202.379 62.4606 201.739 61.9936 201.023 61.6739C200.308 61.3541 199.533 61.1889 198.749 61.1889C197.966 61.1889 197.191 61.3541 196.475 61.6739C195.76 61.9936 195.12 62.4606 194.597 63.0444C193.459 64.2778 192.831 65.897 192.84 67.5753C192.835 69.2422 193.466 70.8483 194.604 72.0668C195.131 72.6436 195.773 73.1041 196.489 73.4192C197.204 73.7344 197.977 73.8971 198.759 73.8971C199.541 73.8971 200.314 73.7344 201.029 73.4192C201.745 73.1041 202.387 72.6436 202.915 72.0668C204.048 70.8404 204.673 69.2288 204.662 67.5589L204.649 67.5753ZM109.298 67.136C108.279 66.6943 107.236 66.3123 106.173 65.9918C105.242 65.7262 104.329 65.3976 103.442 65.0082C103.128 64.8549 102.847 64.641 102.616 64.3788C102.429 64.161 102.329 63.8821 102.334 63.5952C102.326 63.2039 102.441 62.8198 102.662 62.4969C103.041 62.0067 103.553 61.6367 104.137 61.4314C104.672 61.2158 105.24 61.0981 105.816 61.0839C106.84 61.0665 107.84 61.3881 108.662 61.9986C108.99 62.2314 109.258 62.4707 109.514 62.6543C109.637 62.757 109.771 62.8451 109.914 62.9166C110.058 62.9946 110.219 63.0373 110.383 63.0412C110.495 63.0415 110.607 63.0192 110.711 62.9756C110.816 62.9321 110.914 62.8712 110.999 62.7953C111.087 62.713 111.16 62.6152 111.212 62.5068C111.257 62.4032 111.28 62.2917 111.281 62.1789C111.277 61.9705 111.221 61.7665 111.117 61.5855C110.907 61.2244 110.635 60.9027 110.314 60.6348C109.722 60.1281 109.059 59.7106 108.347 59.3955C107.629 59.0529 106.847 58.862 106.052 58.8349C104.292 58.8349 102.823 59.2349 101.754 59.9692C101.195 60.323 100.72 60.7953 100.364 61.3527C99.9801 62.0337 99.7822 62.8037 99.7902 63.5854V63.71C99.7757 64.5194 100.038 65.3094 100.534 65.9492C101.233 66.8278 102.265 67.3556 103.278 67.7294C104.292 68.1031 105.298 68.3261 105.937 68.5392C106.823 68.7975 107.678 69.1504 108.488 69.5916C108.8 69.7711 109.078 70.0055 109.308 70.2833C109.495 70.5418 109.599 70.8522 109.603 71.1718V71.198C109.608 71.6432 109.469 72.078 109.206 72.4373C108.778 72.9562 108.208 73.3399 107.567 73.5421C107.001 73.7435 106.407 73.8541 105.806 73.87C104.66 73.895 103.524 73.6407 102.498 73.129C102.124 72.9422 101.823 72.7586 101.547 72.6012C101.413 72.5291 101.285 72.4602 101.151 72.4045C101.016 72.3475 100.871 72.3174 100.725 72.316C100.622 72.3157 100.521 72.3346 100.426 72.3717C100.329 72.4105 100.241 72.4685 100.167 72.5422C100.062 72.6355 99.9747 72.7465 99.9082 72.87C99.847 72.9956 99.8156 73.1336 99.8164 73.2733C99.8223 73.5013 99.8953 73.7225 100.026 73.9093C100.256 74.2142 100.538 74.4762 100.859 74.683C101.278 74.9562 101.716 75.1983 102.17 75.4076C103.316 75.9188 104.552 76.1974 105.806 76.2272C107.495 76.2272 108.957 75.837 110.186 74.9158C110.784 74.4835 111.272 73.9168 111.611 73.2614C111.95 72.6059 112.13 71.8801 112.137 71.1423C112.152 70.3986 111.966 69.6646 111.599 69.0178C111.036 68.1755 110.235 67.5203 109.298 67.136ZM186.791 51.6878C186.478 51.6904 186.179 51.8164 185.958 52.0386C185.847 52.1477 185.759 52.2778 185.699 52.4214C185.639 52.5649 185.608 52.719 185.607 52.8746V75.0896C185.607 75.2448 185.638 75.3984 185.699 75.5415C185.759 75.6845 185.847 75.814 185.958 75.9223C186.126 76.089 186.338 76.2027 186.57 76.2494C186.801 76.2961 187.041 76.2737 187.26 76.1849C187.479 76.0961 187.667 75.9449 187.8 75.7502C187.934 75.5554 188.007 75.3256 188.011 75.0896V52.8746C188.008 52.7166 187.975 52.5606 187.913 52.4154C187.85 52.2702 187.76 52.1388 187.647 52.0286C187.533 51.9184 187.4 51.8316 187.253 51.7731C187.106 51.7146 186.949 51.6856 186.791 51.6878ZM241.342 67.0048V67.1229C241.341 67.2775 241.308 67.4303 241.245 67.5711C241.181 67.7119 241.087 67.8374 240.971 67.9392C240.743 68.1359 240.452 68.2431 240.151 68.2408H226.854C227.182 71.4865 229.782 73.8798 232.876 73.906H233.66C234.702 73.8894 235.714 73.5617 236.568 72.9651C237.453 72.3703 238.196 71.5865 238.742 70.6702C238.845 70.4901 238.997 70.3433 239.181 70.2472C239.35 70.1533 239.541 70.1047 239.735 70.1063C239.947 70.1062 240.155 70.1628 240.338 70.2702C240.503 70.387 240.638 70.5411 240.732 70.72C240.826 70.899 240.877 71.0976 240.879 71.2996C240.88 71.5153 240.822 71.7271 240.712 71.9127C239.957 73.1252 238.951 74.1615 237.761 74.9519C236.548 75.7679 235.123 76.2133 233.66 76.2337H232.863C231.747 76.2242 230.645 75.991 229.62 75.5478C228.596 75.1046 227.671 74.4605 226.9 73.6536C225.327 72.027 224.444 69.8545 224.438 67.5917C224.429 65.288 225.315 63.071 226.91 61.4085C227.687 60.5985 228.62 59.9542 229.653 59.5141C230.685 59.0741 231.797 58.8475 232.919 58.848C235.074 58.8449 237.143 59.6906 238.679 61.2019C240.234 62.7431 241.175 64.7978 241.325 66.9819L241.342 67.0048ZM238.745 65.8836C238.439 64.5653 237.699 63.3877 236.645 62.539C235.591 61.6904 234.282 61.2196 232.929 61.2019C231.565 61.2123 230.244 61.6779 229.175 62.5249C228.105 63.3719 227.35 64.5517 227.028 65.877L238.745 65.8836ZM121.933 58.8775C120.15 58.8807 118.434 59.5508 117.12 60.7561V60.0643C117.12 59.7562 117.003 59.4597 116.792 59.2349C116.686 59.1228 116.559 59.0333 116.417 58.9719C116.276 58.9105 116.124 58.8784 115.969 58.8775C115.813 58.8753 115.658 58.9045 115.513 58.9633C115.368 59.0222 115.236 59.1095 115.125 59.2202C115.015 59.3308 114.927 59.4626 114.868 59.6075C114.81 59.7525 114.78 59.9078 114.783 60.0643V75.4436L114.832 75.4928C114.85 75.5499 114.876 75.6041 114.91 75.6535C115.074 75.9431 115.345 76.1572 115.665 76.2501H115.714H115.969C116.144 76.2489 116.316 76.2097 116.474 76.1354C116.615 76.071 116.739 75.9758 116.838 75.8567C116.838 75.8567 116.855 75.8272 116.871 75.8141C116.931 75.7402 116.98 75.6586 117.019 75.5715C117.049 75.4914 117.073 75.4092 117.091 75.3256V75.283V66.0213C117.118 64.7484 117.637 63.5356 118.54 62.6379C119.206 61.9597 120.059 61.496 120.991 61.3063C121.922 61.1165 122.889 61.2094 123.767 61.573C124.646 61.9366 125.395 62.5543 125.92 63.3469C126.445 64.1394 126.721 65.0707 126.713 66.0213V75.0896C126.714 75.3225 126.784 75.5498 126.914 75.7435C127.043 75.9371 127.226 76.0885 127.441 76.1789C127.656 76.2693 127.892 76.2947 128.121 76.252C128.35 76.2093 128.562 76.1004 128.729 75.9387C128.842 75.8282 128.932 75.696 128.993 75.5501C129.054 75.4043 129.084 75.2476 129.083 75.0896V66.0213C129.076 64.1276 128.321 62.3136 126.981 60.9752C125.641 59.6368 123.827 58.8827 121.933 58.8775ZM145.499 61.4314C147.047 63.0955 147.908 65.2842 147.908 67.5573C147.908 69.8303 147.047 72.019 145.499 73.6831C144.756 74.4991 143.851 75.1511 142.841 75.5972C141.832 76.0433 140.74 76.2737 139.637 76.2737C138.533 76.2737 137.442 76.0433 136.432 75.5972C135.423 75.1511 134.518 74.4991 133.775 73.6831C132.22 72.0223 131.355 69.8323 131.355 67.5573C131.355 65.2822 132.22 63.0923 133.775 61.4314C134.519 60.6176 135.425 59.9677 136.434 59.523C137.443 59.0784 138.534 58.8488 139.637 58.8488C140.74 58.8488 141.83 59.0784 142.84 59.523C143.849 59.9677 144.754 60.6176 145.499 61.4314ZM145.531 67.5589C145.542 65.8866 144.919 64.2724 143.787 63.0412C143.267 62.4557 142.628 61.9872 141.913 61.6663C141.198 61.3455 140.424 61.1796 139.64 61.1796C138.856 61.1796 138.082 61.3455 137.367 61.6663C136.652 61.9872 136.013 62.4557 135.493 63.0412C134.356 64.2703 133.728 65.8848 133.735 67.5589C133.728 69.2261 134.357 70.8333 135.493 72.0537C136.015 72.6359 136.655 73.1015 137.369 73.4203C138.084 73.739 138.858 73.9038 139.64 73.9038C140.422 73.9038 141.196 73.739 141.911 73.4203C142.625 73.1015 143.265 72.6359 143.787 72.0537C144.918 70.8313 145.542 69.2243 145.531 67.5589ZM171.104 58.9791C170.969 58.921 170.824 58.8908 170.677 58.8906C170.442 58.8915 170.211 58.9607 170.014 59.0899C169.817 59.2191 169.661 59.4027 169.566 59.6184L165.042 72.0045L161.553 63.7001C161.454 63.4779 161.29 63.2914 161.081 63.1657C160.877 63.0394 160.642 62.9724 160.403 62.9723C160.166 62.9748 159.936 63.0446 159.738 63.1735C159.54 63.3024 159.382 63.4851 159.285 63.7001L155.78 72.0111L151.229 59.6283C151.153 59.4004 151 59.2059 150.797 59.0775C150.601 58.9518 150.373 58.8847 150.141 58.8841C149.988 58.8842 149.837 58.9143 149.695 58.9726C149.42 59.1008 149.204 59.3297 149.093 59.612C148.981 59.8944 148.982 60.2088 149.095 60.4905L154.672 75.5289C154.719 75.6482 154.785 75.7589 154.869 75.8567C154.943 75.9362 155.031 76.0027 155.128 76.0534C155.156 76.0788 155.187 76.1018 155.219 76.1223C155.271 76.1523 155.328 76.1733 155.387 76.1846C155.518 76.2337 155.656 76.2603 155.796 76.2632C156.02 76.2583 156.237 76.1889 156.423 76.0633C156.613 75.9375 156.76 75.7553 156.842 75.542H156.859L160.396 67.0835L163.94 75.5092C164.018 75.7185 164.154 75.9008 164.333 76.0338C164.503 76.1629 164.703 76.2465 164.914 76.2764H165.061C165.197 76.2774 165.331 76.2529 165.458 76.2042C165.565 76.162 165.667 76.1058 165.76 76.037C165.948 75.8877 166.095 75.6924 166.186 75.4699L171.759 60.5102C171.875 60.2248 171.873 59.9055 171.754 59.6214C171.636 59.3372 171.41 59.1112 171.126 58.9922L171.104 58.9791Z" fill="#29B5E8"/>
</g>
<defs>
<clipPath id="clip0_2197_323">
<rect width="200" height="45.597" fill="white" transform="translate(47.4004 44.7114)"/>
</clipPath>
</defs>
</svg>
