<svg width="125" height="120" viewBox="0 0 125 120" fill="none" xmlns="http://www.w3.org/2000/svg">
<rect x="1.5" y="1.5" width="117" height="117" rx="58.5" stroke="#87C0FF" stroke-opacity="0.2" stroke-width="3"/>
<rect x="10" y="10" width="100" height="100" rx="50" fill="#87C0FF" fill-opacity="0.2"/>
<path fill-rule="evenodd" clip-rule="evenodd" d="M70.0235 50.0192H78.7007C79.819 50.0192 80.8915 50.4635 81.6823 51.2543C82.4729 52.045 82.9172 53.1175 82.9172 54.2357V57.4682H63.1115L68.0703 52.5087C68.8859 51.6934 69.5251 50.8631 70.0235 50.0192ZM71.4327 52.8025C70.9132 52.8025 70.4915 53.2242 70.4915 53.7437C70.4915 54.2632 70.9132 54.6849 71.4327 54.6849C71.9521 54.6849 72.3738 54.2632 72.3738 53.7437C72.3738 53.2242 71.9521 52.8025 71.4327 52.8025ZM75.1098 52.8025C74.5904 52.8025 74.1687 53.2242 74.1687 53.7437C74.1687 54.2632 74.5904 54.6849 75.1098 54.6849C75.6293 54.6849 76.051 54.2632 76.051 53.7437C76.051 53.2242 75.6293 52.8025 75.1098 52.8025ZM78.787 52.8025C78.2676 52.8025 77.8458 53.2242 77.8458 53.7437C77.8458 54.2632 78.2676 54.6849 78.787 54.6849C79.3065 54.6849 79.7282 54.2632 79.7282 53.7437C79.7282 53.2242 79.3065 52.8025 78.787 52.8025ZM53.7973 64.4209L55.3491 70.2128C55.4709 70.6675 55.8261 71.0226 56.2808 71.1445C56.7355 71.2664 57.2207 71.1363 57.5535 70.8035L62.3346 66.0224C63.137 65.223 63.3098 64.1996 63.2386 63.066V63.065L62.9665 58.7858H82.9172V78.3678C82.9172 79.4871 82.4726 80.5605 81.6811 81.352C80.8896 82.1435 79.8162 82.5881 78.6969 82.5881H52.6343C51.515 82.5881 50.4415 82.1435 49.6501 81.352C48.8586 80.5605 48.4139 79.4871 48.4139 78.3678V64.5861L49.7307 65.9029C50.2452 66.4174 51.0793 66.4175 51.5939 65.9032L53.4373 64.0609L53.7973 64.4209ZM67.8811 79.9147H80.1807C80.5443 79.9147 80.8395 79.6195 80.8395 79.2559C80.8395 78.8923 80.5443 78.597 80.1807 78.597H67.8811C67.5176 78.597 67.2223 78.8923 67.2223 79.2559C67.2223 79.6195 67.5176 79.9147 67.8811 79.9147ZM61.67 75.3833H80.1807C80.5443 75.3833 80.8395 75.0881 80.8395 74.7245C80.8395 74.3609 80.5443 74.0657 80.1807 74.0657H61.67C61.3065 74.0657 61.0112 74.3609 61.0112 74.7245C61.0112 75.0881 61.3065 75.3833 61.67 75.3833ZM65.6656 70.8519H80.1807C80.5443 70.8519 80.8395 70.5568 80.8395 70.1931C80.8395 69.8295 80.5443 69.5343 80.1807 69.5343H65.6656C65.3019 69.5343 65.0068 69.8295 65.0068 70.1931C65.0068 70.5568 65.3019 70.8519 65.6656 70.8519ZM42.7977 52.4896L38.5673 51.3562C38.4374 51.3214 38.3359 51.2199 38.3011 51.0899C38.2663 50.9601 38.3034 50.8214 38.3986 50.7263L42.7185 46.4064C43.2411 45.8837 43.9239 45.8394 44.6606 45.8857L48.8842 46.1542L43.1388 51.8988C42.9737 52.0638 42.857 52.268 42.7977 52.4896ZM61.655 58.9249L61.9236 63.1487C61.9699 63.8853 61.9255 64.57 61.4028 65.0908L57.0829 69.4107C56.9878 69.5057 56.8492 69.5429 56.7193 69.5081C56.5894 69.4733 56.4879 69.3718 56.4531 69.2419L55.3196 65.0115C55.5412 64.9521 55.7454 64.8354 55.9104 64.6705L61.655 58.9249ZM52.5055 63.1291L50.9287 64.7051C50.7816 64.8521 50.5433 64.852 50.3963 64.7051L43.1043 57.413C42.9573 57.266 42.9573 57.0276 43.1043 56.8806L44.6807 55.3042L52.5055 63.1291ZM44.3875 62.49C44.6446 62.2328 45.0621 62.2328 45.3193 62.4898C45.5764 62.747 45.5765 63.1644 45.3193 63.4216L38.2067 70.5362C37.9496 70.7934 37.5321 70.7935 37.2749 70.5363C37.0178 70.2793 37.0177 69.8618 37.2748 69.6047L44.3875 62.49ZM46.5689 64.6712C46.826 64.4141 47.2435 64.4141 47.5005 64.6712C47.7577 64.9283 47.7577 65.3457 47.5005 65.6029L43.9442 69.1592C43.6871 69.4163 43.2697 69.4163 43.0125 69.1592C42.7554 68.9022 42.7554 68.4847 43.0125 68.2275L46.5689 64.6712ZM42.2063 60.3087C42.4634 60.0515 42.8809 60.0515 43.1381 60.3087C43.3952 60.5658 43.3952 60.9833 43.1381 61.2403L39.5817 64.7968C39.3246 65.0539 38.9071 65.0539 38.65 64.7968C38.3929 64.5396 38.3929 64.1221 38.65 63.865L42.2063 60.3087ZM70.1575 45.9323C69.7935 47.8829 68.9437 49.7727 67.1385 51.577L54.9786 63.7388L44.0704 52.8305L56.2323 40.6707C58.037 38.8651 59.9275 38.0153 61.8789 37.6515C61.9164 37.9327 62.0445 38.2 62.2531 38.4085L69.4005 45.5579C69.609 45.7664 69.8763 45.8946 70.1575 45.9323ZM64.0809 43.7284C61.731 41.3786 57.9194 41.3786 55.5697 43.7284C53.2199 46.0782 53.2199 49.8897 55.5697 52.2396C57.9194 54.5893 61.731 54.5893 64.0809 52.2396C66.4306 49.8897 66.4306 46.0782 64.0809 43.7284ZM63.1491 44.6601C64.9844 46.4954 64.9844 49.4725 63.1491 51.3078C61.3138 53.1431 58.3367 53.1431 56.5014 51.3078C54.6661 49.4725 54.6661 46.4954 56.5014 44.6601C58.3367 42.8248 61.3138 42.8248 63.1491 44.6601ZM69.7844 37.6672C69.9779 37.6766 70.1326 37.8314 70.142 38.0248C70.256 40.27 70.5195 42.4804 70.3323 44.6263L63.1849 37.4769C65.3289 37.2896 67.5392 37.5532 69.7844 37.6672Z" fill="#0D62B5"/>
<rect x="85" y="10" width="40" height="40" rx="20" fill="#0D62B5"/>
<path d="M100.203 36.216C99.2188 36.216 98.3428 35.94 97.5748 35.388C96.8068 34.824 96.2008 34.056 95.7568 33.084C95.3248 32.1 95.1088 30.972 95.1088 29.7C95.1088 28.428 95.3248 27.306 95.7568 26.334C96.2008 25.35 96.8008 24.582 97.5568 24.03C98.3248 23.466 99.2068 23.184 100.203 23.184C101.199 23.184 102.081 23.466 102.849 24.03C103.617 24.582 104.217 25.35 104.649 26.334C105.093 27.306 105.315 28.428 105.315 29.7C105.315 30.972 105.093 32.1 104.649 33.084C104.217 34.056 103.617 34.824 102.849 35.388C102.093 35.94 101.211 36.216 100.203 36.216ZM100.221 34.326C100.809 34.326 101.331 34.128 101.787 33.732C102.255 33.336 102.615 32.79 102.867 32.094C103.131 31.398 103.263 30.6 103.263 29.7C103.263 28.8 103.131 28.002 102.867 27.306C102.615 26.598 102.255 26.046 101.787 25.65C101.331 25.254 100.803 25.056 100.203 25.056C99.6028 25.056 99.0748 25.254 98.6188 25.65C98.1628 26.046 97.8028 26.592 97.5388 27.288C97.2868 27.984 97.1608 28.788 97.1608 29.7C97.1608 30.6 97.2868 31.398 97.5388 32.094C97.8028 32.79 98.1628 33.336 98.6188 33.732C99.0868 34.128 99.6208 34.326 100.221 34.326ZM110.976 36.216C110.292 36.216 109.668 36.114 109.104 35.91C108.54 35.706 108.066 35.418 107.682 35.046C107.298 34.674 107.022 34.254 106.854 33.786L108.726 33.084C108.822 33.252 108.954 33.438 109.122 33.642C109.29 33.846 109.512 34.026 109.788 34.182C110.064 34.326 110.418 34.398 110.85 34.398C111.534 34.398 112.074 34.206 112.47 33.822C112.878 33.426 113.082 32.928 113.082 32.328C113.082 31.896 112.968 31.524 112.74 31.212C112.524 30.9 112.182 30.66 111.714 30.492C111.258 30.324 110.682 30.24 109.986 30.24H109.41V28.764H109.932C110.664 28.764 111.342 28.848 111.966 29.016C112.602 29.184 113.16 29.436 113.64 29.772C114.132 30.096 114.51 30.492 114.774 30.96C115.05 31.428 115.188 31.956 115.188 32.544C115.188 33.3 114.99 33.954 114.594 34.506C114.21 35.058 113.7 35.484 113.064 35.784C112.428 36.072 111.732 36.216 110.976 36.216ZM109.41 29.916V28.512H109.986C110.91 28.512 111.612 28.356 112.092 28.044C112.572 27.732 112.812 27.294 112.812 26.73C112.812 26.406 112.728 26.118 112.56 25.866C112.404 25.602 112.176 25.392 111.876 25.236C111.576 25.08 111.222 25.002 110.814 25.002C110.55 25.002 110.292 25.044 110.04 25.128C109.788 25.212 109.554 25.344 109.338 25.524C109.122 25.704 108.942 25.938 108.798 26.226L106.98 25.56C107.16 25.056 107.448 24.63 107.844 24.282C108.24 23.922 108.702 23.652 109.23 23.472C109.758 23.28 110.31 23.184 110.886 23.184C111.654 23.184 112.338 23.328 112.938 23.616C113.55 23.904 114.03 24.306 114.378 24.822C114.738 25.326 114.918 25.908 114.918 26.568C114.918 27.12 114.78 27.606 114.504 28.026C114.24 28.446 113.874 28.8 113.406 29.088C112.938 29.364 112.404 29.574 111.804 29.718C111.216 29.85 110.586 29.916 109.914 29.916H109.41Z" fill="white"/>
</svg>
