<svg width="216" height="85" viewBox="0 0 216 85" fill="none" xmlns="http://www.w3.org/2000/svg">
<g clip-path="url(#clip0_660_17)">
<g clip-path="url(#clip1_660_17)">
<path d="M36.8125 60.547C36.6159 60.4272 36.3964 60.2983 36.1823 60.1616C33.8084 58.6419 31.571 56.9189 29.4951 55.0123C28.2229 53.846 27.0113 52.6196 25.8603 51.3329C24.7019 50.0426 23.6101 48.694 22.5891 47.2925C22.2376 46.8096 21.8793 46.3309 21.5729 45.8173C21.3408 45.4231 21.1415 45.0106 20.9771 44.5837C20.8395 44.2308 20.7293 43.8679 20.6473 43.4981C20.5831 43.2057 20.5339 42.9102 20.5 42.6128C20.4369 42.0748 20.4507 41.5373 20.4501 40.9992C20.4501 35.6372 20.4501 30.2751 20.4501 24.913C20.4501 24.842 20.4501 24.7715 20.4501 24.701C20.4576 24.542 20.4957 24.5059 20.6622 24.4953C20.6972 24.4927 20.7327 24.4953 20.7682 24.4953H52.7275C52.8335 24.4953 52.9396 24.4953 53.0456 24.4996C53.1749 24.5075 53.221 24.5526 53.2322 24.6766C53.2375 24.7381 53.2353 24.8001 53.2353 24.8621C53.2353 30.5069 53.2341 36.1517 53.2316 41.7965C53.2337 42.1676 53.2048 42.5382 53.1452 42.9044C53.0699 43.3558 52.9625 43.8014 52.824 44.2376C52.559 45.0598 52.1508 45.8024 51.6578 46.5037C50.7227 47.8357 49.7279 49.1213 48.6734 50.3607C47.9535 51.2042 47.2078 52.0246 46.4364 52.8219C45.1447 54.1565 43.7821 55.4206 42.3547 56.6089C40.8456 57.8655 39.2599 59.027 37.6066 60.0868C37.3622 60.2432 37.1131 60.3922 36.8645 60.5438C36.8608 60.5459 36.8507 60.5438 36.8125 60.547ZM50.5674 27.2539C50.4163 27.2513 50.2939 27.247 50.1714 27.247H23.5114C23.4319 27.247 23.3524 27.2439 23.2729 27.247C23.2192 27.2543 23.1662 27.2649 23.1139 27.2788C23.1139 27.414 23.1075 27.5359 23.1075 27.6584C23.1075 32.349 23.1075 37.0398 23.1075 41.7308C23.1005 42.0658 23.1282 42.4006 23.1902 42.73C23.2576 43.0844 23.3508 43.4334 23.469 43.7743C23.6259 44.2138 23.8372 44.632 24.0982 45.0189C24.6849 45.8738 25.3016 46.7068 25.9483 47.5178C26.9127 48.7321 27.9335 49.8965 29.0106 51.0111C29.9722 52.005 30.972 52.9592 32.0173 53.8635C33.4708 55.1282 35.0082 56.2931 36.619 57.35C36.6933 57.3982 36.7601 57.456 36.8518 57.4661C36.8772 57.4544 36.9021 57.4454 36.9244 57.4327C36.9625 57.4109 36.9997 57.3871 37.0368 57.3632C38.3092 56.5293 39.5354 55.6268 40.7098 54.6597C42.5742 53.1286 44.3174 51.4556 45.9238 49.6557C47.1684 48.2663 48.3294 46.8042 49.4007 45.2771C49.8072 44.6972 50.1428 44.086 50.3336 43.3974C50.4883 42.8736 50.571 42.3314 50.5796 41.7854C50.5796 37.0414 50.5796 32.2975 50.5796 27.554C50.5785 27.4654 50.5722 27.3785 50.5674 27.2539Z" fill="white"/>
<path d="M130.52 43.8836C130.386 43.8931 130.263 43.909 130.14 43.9096C128.859 43.9117 127.578 43.9117 126.298 43.9096C126.033 43.9096 125.768 43.899 125.503 43.8942C125.403 43.8942 125.309 43.8772 125.234 43.7807C125.36 43.4139 125.488 43.0418 125.616 42.6676C125.696 42.4343 125.775 42.2005 125.854 41.9673C125.945 41.7008 126.036 41.4346 126.129 41.1684C126.247 40.8276 126.369 40.4873 126.485 40.1459C126.651 39.6635 126.812 39.179 126.977 38.6966C127.189 38.0807 127.401 37.4652 127.613 36.8503C127.836 36.21 128.059 35.5701 128.282 34.9308C128.45 34.4495 128.623 33.9693 128.789 33.4863C128.928 33.0787 129.056 32.6668 129.196 32.2586C129.38 31.7174 129.571 31.1783 129.759 30.6381C129.851 30.3731 129.942 30.1081 130.034 29.8404C130.119 29.5997 130.21 29.3633 130.288 29.1184C130.301 29.0623 130.334 29.0128 130.381 28.9791C130.428 28.9453 130.485 28.9294 130.542 28.9344C130.692 28.9318 130.842 28.9228 130.992 28.9222C132.3 28.9187 133.607 28.9157 134.915 28.9132C135.286 28.9132 135.657 28.9079 136.028 28.9053C136.081 28.9053 136.134 28.9053 136.187 28.9053C136.326 28.9127 136.357 28.9381 136.387 29.0696C136.483 29.4995 136.577 29.9305 136.676 30.3598C136.775 30.7892 136.879 31.2175 136.979 31.6469C137.085 32.1107 137.187 32.5762 137.297 33.04C137.447 33.6925 137.603 34.344 137.751 34.9971C137.857 35.4694 137.958 35.9439 138.061 36.4172C138.091 36.555 138.123 36.6918 138.154 36.8291C138.154 36.8376 138.157 36.8466 138.16 36.8551C138.234 37.0995 138.446 37.1578 138.621 36.9738C138.865 36.7188 139.098 36.4565 139.335 36.1951C140.615 34.7766 141.894 33.3579 143.173 31.939C144.021 30.9976 144.872 30.0568 145.724 29.1168C145.754 29.0839 145.785 29.0526 145.813 29.0192C145.843 28.9811 145.883 28.9513 145.928 28.9327C145.973 28.9142 146.023 28.9074 146.071 28.9132C146.106 28.9164 146.141 28.9132 146.177 28.9132C147.864 28.9107 149.551 28.9081 151.239 28.9053C151.345 28.9053 151.447 28.91 151.557 28.9132C151.6 29.0553 151.563 29.1735 151.524 29.288C151.297 29.9739 151.065 30.6583 150.835 31.3442C150.696 31.7625 150.57 32.1839 150.426 32.6011C150.234 33.1683 150.033 33.7323 149.839 34.2974C149.697 34.7135 149.564 35.1333 149.421 35.5495C149.279 35.9656 149.125 36.378 148.983 36.7946C148.789 37.3613 148.604 37.9306 148.411 38.4978C148.271 38.906 148.124 39.311 147.983 39.7171C147.877 40.0166 147.782 40.3182 147.678 40.6182C147.534 41.0338 147.385 41.4473 147.242 41.8629C147.136 42.1629 147.042 42.4651 146.941 42.764C146.839 43.063 146.738 43.3641 146.633 43.6652C146.607 43.7389 146.567 43.8078 146.527 43.8921C146.438 43.8968 146.351 43.9048 146.262 43.9053C145.396 43.9092 144.53 43.9126 143.664 43.9154C143.126 43.918 142.586 43.9255 142.048 43.9276C141.954 43.9276 141.852 43.9493 141.758 43.8661C141.76 43.8085 141.767 43.7511 141.78 43.6949C141.918 43.2586 142.06 42.8229 142.201 42.3877C142.384 41.8261 142.568 41.2651 142.752 40.7046C142.917 40.2025 143.083 39.701 143.25 39.2002C143.314 39.0083 143.388 38.8196 143.455 38.6282C143.474 38.5698 143.49 38.5101 143.501 38.4496C143.503 38.4242 143.501 38.3987 143.496 38.3738C143.485 38.362 143.473 38.3525 143.458 38.3462C143.444 38.3398 143.429 38.3367 143.413 38.337C143.397 38.3373 143.382 38.341 143.368 38.348C143.355 38.3549 143.342 38.3648 143.332 38.377C143.287 38.4183 143.245 38.4639 143.204 38.5095C142.347 39.4562 141.491 40.403 140.635 41.3497C139.944 42.1141 139.255 42.8791 138.567 43.6445C138.514 43.7034 138.456 43.758 138.404 43.8179C138.381 43.845 138.353 43.867 138.321 43.8821C138.289 43.8972 138.254 43.9051 138.218 43.9053C138.165 43.9053 138.112 43.9138 138.059 43.9138L134.084 43.9281C134.04 43.9295 133.996 43.9277 133.952 43.9228C133.858 43.9101 133.816 43.8698 133.797 43.7707C133.699 43.2681 133.605 42.7635 133.509 42.2626C133.439 41.8989 133.366 41.5363 133.3 41.1727C133.243 40.8599 133.205 40.544 133.141 40.2334C133.099 40.0351 133.064 39.8369 133.03 39.637C132.986 39.3762 132.937 39.1159 132.888 38.8557C132.858 38.6913 132.821 38.5281 132.791 38.3637C132.783 38.3201 132.763 38.2799 132.731 38.2481C132.701 38.2164 132.661 38.1946 132.618 38.1856C132.575 38.1718 132.528 38.1731 132.487 38.1892C132.445 38.2053 132.41 38.2353 132.387 38.2741C132.357 38.317 132.333 38.3639 132.316 38.4136C132.195 38.7808 132.074 39.149 131.955 39.5183C131.791 40.0293 131.627 40.5408 131.465 41.0529C131.321 41.5056 131.176 41.9584 131.031 42.4115C130.921 42.755 130.807 43.0969 130.694 43.4399C130.665 43.5316 130.641 43.6254 130.606 43.7155C130.581 43.7735 130.553 43.8296 130.52 43.8836Z" fill="white"/>
<path d="M95.0299 43.9055C95.0012 43.9174 94.971 43.926 94.9403 43.9309C94.8523 43.9352 94.7638 43.9341 94.6752 43.9341H88.8442C88.4111 43.9341 88.4477 43.9511 88.198 43.6017C87.5163 42.6497 86.832 41.7001 86.1444 40.753C85.7993 40.2752 85.4543 39.7981 85.1102 39.3218C85.0954 39.3002 85.0811 39.2779 85.0683 39.255C85.035 39.1928 84.9835 39.142 84.921 39.1093C84.8579 39.0767 84.7869 39.0635 84.7169 39.0715C84.5234 39.0806 84.3283 39.0779 84.1338 39.0715C83.9695 39.0668 83.8688 39.1325 83.821 39.2942C83.7543 39.5126 83.671 39.7262 83.5963 39.9425C83.4468 40.3744 83.2984 40.8067 83.1505 41.2396C83.0853 41.4315 83.0296 41.6266 82.9649 41.819C82.8186 42.2526 82.6697 42.6852 82.5218 43.1183C82.4343 43.3764 82.3469 43.6341 82.2567 43.8986C82.1899 43.9118 82.1311 43.9267 82.0717 43.9336C82.0187 43.9362 81.9657 43.9362 81.9127 43.9336C80.3579 43.9336 78.8027 43.9336 77.2479 43.9336C77.1419 43.9336 77.0359 43.9585 76.9298 43.8874C76.9288 43.8372 76.9335 43.787 76.9447 43.738C77.1625 43.1061 77.3846 42.4753 77.6036 41.8434C77.7504 41.4193 77.8914 40.9953 78.0388 40.5712C78.1803 40.1641 78.3287 39.7591 78.4692 39.352C78.6097 38.9449 78.7417 38.534 78.8827 38.1264C79.02 37.7278 79.1658 37.3313 79.3068 36.9326C79.4478 36.534 79.5782 36.1327 79.7149 35.7325C79.874 35.266 80.033 34.7997 80.192 34.3336C80.3357 33.918 80.4799 33.5025 80.6246 33.0873C80.7688 32.6717 80.9151 32.2572 81.0571 31.8411C81.2538 31.2665 81.4468 30.6902 81.6402 30.1156C81.7627 29.7573 81.8894 29.4011 82.0113 29.0432C82.0208 29.0043 82.0436 28.97 82.076 28.9462C82.1083 28.9224 82.1481 28.9106 82.1878 28.9128H82.3999H99.3597C99.4392 28.9128 99.5187 28.9097 99.5982 28.9166C99.7138 28.9272 99.7694 28.9982 99.7572 29.1148C99.7551 29.1509 99.7482 29.1865 99.7371 29.2208C99.6364 29.5118 99.5335 29.8039 99.4328 30.0934C99.3268 30.3929 99.2266 30.6929 99.1232 30.9945C99.0146 31.3126 98.9059 31.6287 98.7967 31.9429C98.6568 32.3505 98.5184 32.7587 98.3774 33.1658C98.2364 33.5729 98.0858 33.9948 97.9422 34.4104C97.807 34.8016 97.6771 35.1934 97.5414 35.5851C97.3766 36.0682 97.2112 36.5511 97.0458 37.0339C96.9552 37.2989 96.8672 37.5671 96.7739 37.8327C96.6806 38.0983 96.5931 38.3628 96.4362 38.6035C95.9697 39.3149 95.3034 39.6637 94.4637 39.7002C94.2347 39.7098 94.0047 39.7002 93.7746 39.7002C93.7041 39.7002 93.6336 39.705 93.5626 39.7071C93.2721 39.7172 93.0632 40.0708 93.1772 40.3019C93.2037 40.3549 93.2265 40.4137 93.2551 40.4678C93.825 41.5397 94.3953 42.6113 94.9663 43.6828C95.0108 43.7464 95.076 43.8053 95.0299 43.9055ZM92.7966 32.9071C92.6747 32.8456 92.549 32.8642 92.4255 32.8642C90.4207 32.8642 88.4159 32.8642 86.4116 32.8642C86.3406 32.8642 86.2701 32.8673 86.1996 32.8642C86.0374 32.8615 85.9345 32.9431 85.8815 33.0916C85.8285 33.24 85.7686 33.3868 85.7167 33.5363C85.5772 33.9349 85.4426 34.3346 85.3021 34.7333C85.1616 35.1319 85.0169 35.5284 84.8743 35.9249C84.7556 36.2557 84.6374 36.5866 84.5192 36.9178C84.4598 37.0842 84.3983 37.2496 84.349 37.4187C84.3336 37.4861 84.3321 37.5559 84.3442 37.6239C84.3485 37.6365 84.3554 37.648 84.3644 37.6576C84.3734 37.6672 84.3845 37.6746 84.3973 37.6794C84.4094 37.6842 84.4227 37.6861 84.4359 37.6851C84.4492 37.6841 84.4619 37.6803 84.4736 37.6737C84.5298 37.6323 84.5796 37.5825 84.6326 37.5396C84.833 37.3806 85.0275 37.2162 85.2369 37.0704C85.9197 36.596 86.6883 36.3156 87.4951 36.1523C87.9017 36.0668 88.3157 36.0232 88.7308 36.0225C89.6049 36.0283 90.4801 36.0225 91.3537 36.0225C91.4332 36.0249 91.5127 36.0232 91.5917 36.0172C91.6627 36.0121 91.7306 35.9856 91.7857 35.9412C91.8414 35.8968 91.8822 35.8366 91.9028 35.7685C92.0364 35.3869 92.1626 35.0026 92.2956 34.6209C92.4017 34.314 92.5172 34.0092 92.627 33.7028C92.6858 33.5368 92.7436 33.3709 92.7966 33.2034C92.8321 33.1149 92.8692 33.0211 92.7966 32.9071Z" fill="white"/>
<path d="M104.488 43.9156C104.594 43.5117 104.75 43.1405 104.872 42.7583C104.997 42.3645 105.146 41.9786 105.283 41.5884C105.418 41.2068 105.55 40.8246 105.682 40.4419C105.814 40.0586 105.942 39.6748 106.073 39.2915C106.208 38.9003 106.344 38.5096 106.479 38.119C106.612 37.7366 106.745 37.3543 106.878 36.9718C107.01 36.5891 107.143 36.2059 107.274 35.8237C107.405 35.4415 107.539 35.0593 107.674 34.6771C107.81 34.2864 107.947 33.8962 108.081 33.505C108.212 33.1223 108.339 32.738 108.47 32.3553C108.602 31.9725 108.735 31.5909 108.87 31.2092C109.007 30.8196 109.15 30.4321 109.284 30.043C109.414 29.6608 109.528 29.2717 109.692 28.8911C109.753 28.8773 109.811 28.8609 109.87 28.8508C109.906 28.8479 109.941 28.8479 109.976 28.8508C111.761 28.8508 113.546 28.8508 115.33 28.8508C115.623 28.8508 115.648 28.8853 115.556 29.1514C115.316 29.8405 115.075 30.5297 114.837 31.2214C114.61 31.8782 114.389 32.5371 114.16 33.1933C113.964 33.7584 113.759 34.3209 113.562 34.8855C113.374 35.4256 113.191 35.9679 113.006 36.5091C112.81 37.0832 112.616 37.6578 112.417 38.2313C112.282 38.622 112.14 39.0106 112.003 39.4007C111.976 39.4753 111.955 39.5521 111.94 39.6303C111.931 39.676 111.931 39.723 111.941 39.7685C111.951 39.8139 111.971 39.8568 111.998 39.8945C112.026 39.9322 112.06 39.9639 112.1 39.9877C112.14 40.0115 112.185 40.0267 112.231 40.0327C112.301 40.041 112.372 40.044 112.443 40.0416H118.246C118.316 40.0416 118.387 40.0416 118.458 40.0358C118.766 40.0082 118.983 39.8455 119.113 39.5698C119.162 39.4565 119.205 39.3406 119.242 39.2227C119.401 38.7573 119.565 38.2923 119.719 37.8253C119.825 37.4993 119.921 37.169 120.031 36.8436C120.168 36.4354 120.318 36.031 120.455 35.6244C120.596 35.2077 120.727 34.7879 120.868 34.3712C121.008 33.9546 121.156 33.54 121.299 33.1239C121.364 32.9325 121.423 32.7385 121.488 32.5461C121.635 32.1135 121.785 31.682 121.932 31.249C121.999 31.0486 122.059 30.8456 122.127 30.6452C122.273 30.2116 122.422 29.7791 122.569 29.346C122.606 29.24 122.643 29.1296 122.675 29.021C122.69 28.9745 122.719 28.9338 122.758 28.9047C122.798 28.8755 122.845 28.8593 122.894 28.8582C122.956 28.8526 123.018 28.8507 123.079 28.8524C124.793 28.8524 126.507 28.8524 128.221 28.8524C128.309 28.8517 128.396 28.8616 128.481 28.8821C128.501 28.8863 128.52 28.8947 128.536 28.9068C128.552 28.9189 128.566 28.9344 128.575 28.9522C128.585 28.97 128.591 28.9897 128.592 29.01C128.593 29.0301 128.59 29.0504 128.583 29.0692C128.53 29.2548 128.467 29.4403 128.404 29.6221C128.252 30.0631 128.099 30.5036 127.945 30.9436C127.786 31.3921 127.627 31.84 127.473 32.289C127.331 32.6961 127.192 33.1054 127.049 33.5125C126.905 33.9196 126.752 34.3395 126.606 34.7545C126.475 35.1256 126.349 35.5035 126.219 35.8777C126.1 36.2186 125.977 36.5578 125.861 36.8992C125.758 37.1987 125.663 37.5009 125.56 37.8004C125.429 38.1831 125.292 38.5637 125.159 38.9464C125.044 39.2788 124.933 39.6133 124.816 39.9451C124.673 40.3512 124.523 40.7546 124.38 41.1606C124.279 41.4432 124.187 41.7284 124.088 42.0114C123.976 42.3353 123.859 42.6582 123.746 42.982C123.649 43.2561 123.551 43.5297 123.464 43.8064C123.453 43.8539 123.425 43.8959 123.385 43.9244C123.345 43.953 123.297 43.966 123.248 43.9611H123.063C116.984 43.9611 110.906 43.9611 104.828 43.9611C104.732 43.9579 104.625 43.9755 104.488 43.9156Z" fill="white"/>
<path d="M180.42 43.8843C180.495 43.6675 180.563 43.4692 180.633 43.2715C180.803 42.7902 180.973 42.3088 181.145 41.8275C181.287 41.4305 181.434 41.035 181.575 40.6369C181.681 40.3385 181.777 40.0368 181.883 39.7358C182.021 39.3461 182.161 38.9576 182.307 38.5696C182.347 38.4781 182.358 38.3764 182.338 38.2785C182.289 38.2618 182.239 38.2493 182.187 38.2414C182.099 38.2351 182.011 38.2377 181.922 38.2377H175.826C175.738 38.2377 175.65 38.2377 175.561 38.2414C175.503 38.2399 175.447 38.2575 175.399 38.2914C175.352 38.3253 175.318 38.3737 175.301 38.4291C175.292 38.4535 175.279 38.4773 175.271 38.5022C175.139 38.8945 175.009 39.2873 174.875 39.679C174.733 40.0957 174.587 40.5108 174.445 40.9274C174.301 41.3515 174.162 41.7793 174.021 42.2044C173.889 42.5967 173.752 42.9868 173.618 43.378C173.595 43.4443 173.573 43.5111 173.55 43.5773L173.43 43.9118C173.334 43.9187 173.247 43.9304 173.161 43.9309C171.447 43.9309 169.733 43.9309 168.019 43.9309C167.934 43.9309 167.841 43.9532 167.754 43.8737C167.78 43.7804 167.807 43.6797 167.838 43.5821C167.977 43.1835 168.119 42.787 168.258 42.3873C168.364 42.0878 168.462 41.7867 168.565 41.4861C168.714 41.0536 168.868 40.6226 169.015 40.189C169.211 39.6138 169.398 39.0366 169.595 38.4619C169.735 38.0543 169.887 37.6514 170.027 37.2427C170.167 36.834 170.296 36.4237 170.434 36.0156C170.536 35.7155 170.646 35.4187 170.752 35.1197C170.858 34.8207 170.957 34.5202 171.061 34.2212C171.208 33.7971 171.36 33.373 171.505 32.949C171.65 32.5249 171.779 32.1125 171.919 31.6958C172.043 31.329 172.171 30.9638 172.298 30.598C172.469 30.1075 172.64 29.6172 172.812 29.127C172.821 29.0928 172.831 29.0591 172.844 29.0263C172.857 28.9932 172.879 28.9647 172.908 28.9444C172.937 28.9241 172.972 28.9129 173.007 28.9123C173.069 28.9123 173.131 28.9123 173.193 28.9123H178.229C178.324 28.9123 178.42 28.9171 178.502 28.9192C178.566 29.0051 178.535 29.0692 178.512 29.1365C178.391 29.4859 178.274 29.8357 178.154 30.1851C177.988 30.6675 177.819 31.1488 177.653 31.6317C177.441 32.2477 177.231 32.864 177.023 33.4807C176.952 33.6885 176.878 33.8952 176.807 34.1035C176.791 34.1539 176.779 34.2055 176.771 34.2578C176.765 34.2792 176.764 34.3016 176.769 34.3233C176.773 34.345 176.782 34.3655 176.795 34.3833C176.808 34.4011 176.825 34.4157 176.845 34.4261C176.865 34.4365 176.886 34.4424 176.908 34.4433C176.987 34.4499 177.067 34.4521 177.146 34.4497C177.994 34.4497 178.842 34.4497 179.691 34.4497C179.973 34.4497 180.257 34.4497 180.539 34.4725C181.435 34.5493 182.171 34.9326 182.721 35.6546C182.784 35.7389 182.839 35.8295 182.899 35.9164C182.94 35.9763 182.987 36.0341 183.069 36.0156C183.1 36.007 183.126 35.9901 183.147 35.9668C183.168 35.9435 183.182 35.9149 183.187 35.8841C183.209 35.8083 183.235 35.733 183.26 35.6578C183.405 35.2337 183.551 34.8096 183.696 34.3855C183.83 33.9947 183.964 33.6036 184.098 33.2124C184.212 32.8795 184.327 32.5472 184.44 32.2143C184.576 31.814 184.708 31.4133 184.845 31.0131C184.956 30.6887 185.072 30.3653 185.182 30.0409C185.285 29.7409 185.383 29.4392 185.486 29.1397C185.516 29.0657 185.549 28.9931 185.586 28.9224C185.826 28.9033 186.055 28.915 186.283 28.9128C186.511 28.9107 186.742 28.9128 186.972 28.9128H189.701C189.931 28.9128 190.161 28.9075 190.39 28.9128C190.62 28.9181 190.846 28.8816 191.074 28.9394C191.096 29.0597 191.055 29.162 191.021 29.2574C190.793 29.9237 190.554 30.5863 190.324 31.2521C190.097 31.9095 189.878 32.5694 189.653 33.2273C189.428 33.8851 189.194 34.5578 188.964 35.2231C188.711 35.9546 188.455 36.6856 188.204 37.4182C188.062 37.8338 187.932 38.2541 187.79 38.6703C187.592 39.2534 187.387 39.8338 187.183 40.4148C187.032 40.8463 186.875 41.2762 186.728 41.7093C186.585 42.1259 186.453 42.5453 186.313 42.9624C186.227 43.2211 186.136 43.4787 186.045 43.7358C185.988 43.8949 185.949 43.9219 185.772 43.9277C185.719 43.9277 185.666 43.9277 185.613 43.9277C183.996 43.9277 182.379 43.9277 180.763 43.9277C180.658 43.9341 180.55 43.9532 180.42 43.8843Z" fill="white"/>
<path d="M153.426 28.9171C153.526 28.914 153.613 28.9092 153.701 28.9092H170.212C170.371 28.9092 170.525 28.9092 170.669 29.0057C170.84 29.1207 170.967 29.2606 170.978 29.4705C170.988 29.6021 170.978 29.7343 170.949 29.8628C170.9 30.059 170.823 30.2482 170.757 30.4396C170.642 30.7721 170.527 31.1043 170.411 31.4361C170.312 31.7189 170.213 32.0016 170.114 32.2843C170.008 32.5833 169.902 32.8812 169.796 33.1801C169.654 33.5878 169.515 33.996 169.372 34.4036C169.266 34.711 169.154 35.0174 169.046 35.3249C168.894 35.7559 168.741 36.1863 168.591 36.6183C168.456 37.009 168.319 37.3997 168.193 37.793C167.984 38.4429 167.624 38.982 167.056 39.3684C166.604 39.6807 166.067 39.846 165.518 39.8418C162.267 39.8383 159.016 39.8383 155.765 39.8418C155.685 39.8418 155.606 39.8455 155.526 39.8418C155.232 39.8243 154.905 40.0369 154.792 40.3809C154.588 40.9995 154.377 41.6155 154.173 42.2363C154.033 42.6603 153.901 43.0913 153.765 43.5185C153.733 43.6187 153.696 43.7179 153.662 43.818C153.654 43.8481 153.636 43.8749 153.612 43.895C153.589 43.915 153.559 43.9274 153.528 43.9304C153.458 43.9377 153.387 43.9407 153.316 43.9394C151.735 43.9394 150.154 43.9394 148.572 43.9394C148.477 43.9394 148.377 43.9612 148.281 43.8928C148.287 43.7808 148.31 43.6705 148.351 43.5663C148.468 43.2153 148.586 42.8649 148.709 42.5161C148.939 41.8604 149.176 41.2073 149.405 40.5511C149.546 40.144 149.673 39.7316 149.812 39.3239C150 38.7742 150.195 38.2272 150.385 37.6806C150.531 37.2566 150.674 36.8325 150.819 36.4084C150.916 36.1253 151.017 35.8439 151.115 35.5603C151.264 35.1277 151.409 34.6941 151.56 34.2621C151.702 33.8555 151.852 33.451 151.993 33.0428C152.183 32.4937 152.368 31.9429 152.557 31.3932C152.705 30.9606 152.858 30.5291 153.007 30.0966C153.107 29.805 153.202 29.5135 153.303 29.2209C153.338 29.1154 153.386 29.0189 153.426 28.9171ZM155.933 37.696C155.989 37.6488 156.05 37.6006 156.109 37.5486C156.346 37.3385 156.598 37.1469 156.865 36.9756C157.519 36.5563 158.24 36.3034 158.993 36.1518C159.391 36.0676 159.796 36.0246 160.202 36.0236C161.076 36.0299 161.951 36.0236 162.823 36.0236C162.894 36.0236 162.964 36.0236 163.035 36.0236C163.115 36.0271 163.194 36.003 163.259 35.9553C163.323 35.9077 163.369 35.8394 163.389 35.7617C163.471 35.5205 163.56 35.2814 163.645 35.0413C163.747 34.7512 163.849 34.4611 163.95 34.1709C164.063 33.8475 164.175 33.5239 164.287 33.1998C164.305 33.1506 164.317 33.0992 164.322 33.0471C164.326 33.0274 164.326 33.0071 164.321 32.9876C164.317 32.968 164.308 32.9497 164.295 32.9338C164.283 32.9179 164.268 32.9049 164.25 32.8955C164.232 32.8862 164.213 32.8807 164.193 32.8796C164.097 32.8677 164 32.8624 163.903 32.8637H157.891C157.82 32.8637 157.75 32.8637 157.679 32.8637C157.523 32.8674 157.42 32.9289 157.365 33.09C157.221 33.5141 157.063 33.9334 156.913 34.3554C156.807 34.6538 156.704 34.9538 156.599 35.2523C156.457 35.6583 156.313 36.0647 156.166 36.4715C156.086 36.6952 156.003 36.9173 155.922 37.1405C155.883 37.2465 155.844 37.3525 155.812 37.4644C155.78 37.5762 155.802 37.6149 155.933 37.696Z" fill="white"/>
<path d="M80.3067 28.959C80.2881 29.0353 80.2759 29.1127 80.251 29.1853C79.8683 30.2907 79.4845 31.3956 79.0991 32.5C79.0763 32.5432 79.0482 32.5835 79.0154 32.6198C78.9152 32.6198 78.8097 32.6245 78.7047 32.6245H73.7219C73.6514 32.6245 73.5808 32.6245 73.5098 32.6245C73.4473 32.6202 73.3852 32.6368 73.3338 32.6718C73.2819 32.7068 73.2432 32.7581 73.2241 32.8175C73.1679 32.9564 73.1138 33.0963 73.0651 33.2379C72.8562 33.8454 72.6489 34.4535 72.4433 35.0624C72.3017 35.4786 72.1639 35.8968 72.0192 36.3124C71.8814 36.711 71.7345 37.1075 71.5951 37.5051C71.4546 37.9128 71.3221 38.323 71.1816 38.7307C70.9839 39.3048 70.7814 39.8773 70.5821 40.4514C70.484 40.7339 70.3897 41.0175 70.2937 41.2995C70.1252 41.7999 69.9598 42.3009 69.788 42.8002C69.6645 43.158 69.532 43.5127 69.3974 43.8858C69.3443 43.904 69.2903 43.9183 69.2351 43.9288C69.1737 43.9337 69.1116 43.9345 69.0501 43.9314C67.4245 43.9314 65.7989 43.9314 64.1733 43.9314C64.0614 43.9314 63.9453 43.9489 63.8425 43.8996C63.8107 43.7936 63.8611 43.713 63.8886 43.6346C64.0598 43.1358 64.2401 42.6396 64.4134 42.1413C64.5226 41.8233 64.6223 41.5052 64.7315 41.1898C64.8661 40.7986 65.0066 40.4095 65.1439 40.0193C65.2499 39.7204 65.3559 39.4214 65.4566 39.1219C65.5574 38.8224 65.657 38.5208 65.7609 38.2207C65.8669 37.9133 65.9825 37.608 66.0901 37.3005C66.2035 36.9771 66.3122 36.6517 66.423 36.3272C66.5651 35.9111 66.7055 35.4939 66.8508 35.0789C66.9897 34.6802 67.1344 34.2837 67.2749 33.8862C67.3745 33.6042 67.4731 33.3216 67.5675 33.038C67.595 32.9634 67.6106 32.8848 67.6136 32.8053C67.6136 32.6993 67.5664 32.6192 67.4434 32.6076C67.3554 32.5991 67.2669 32.5996 67.1784 32.5996H62.4388C62.3508 32.5996 62.2623 32.5996 62.1738 32.5917C62.1582 32.5913 62.1429 32.5872 62.1292 32.5797C62.1155 32.5723 62.1038 32.5616 62.0951 32.5487C62.0863 32.5358 62.0807 32.521 62.0788 32.5055C62.077 32.49 62.0788 32.4743 62.0842 32.4597C62.1436 32.2752 62.2052 32.0914 62.2692 31.9084C62.4696 31.3354 62.6726 30.7634 62.873 30.1904C63.0039 29.8193 63.1301 29.4419 63.2636 29.0697C63.2925 29.0143 63.3281 28.9627 63.3697 28.916C68.9924 28.916 74.6113 28.916 80.2266 28.916C80.2478 28.9171 80.2696 28.9393 80.3067 28.959Z" fill="white"/>
<path d="M96.9062 43.8954C96.91 43.8465 96.9174 43.798 96.9285 43.7502C97.0398 43.4348 97.1554 43.1215 97.2662 42.8056C97.4146 42.3815 97.5614 41.9574 97.7067 41.5333C97.8175 41.2084 97.9219 40.8813 98.0327 40.5559C98.1541 40.198 98.2792 39.8413 98.4038 39.484C98.5829 38.9688 98.7648 38.454 98.9423 37.9383C99.1342 37.3806 99.3198 36.8208 99.5132 36.2637C99.7126 35.6901 99.9209 35.1198 100.12 34.5462C100.366 33.8401 100.605 33.1319 100.849 32.4258C101.008 31.9694 101.17 31.5141 101.326 31.0566C101.519 30.4899 101.707 29.9217 101.898 29.3539C101.935 29.2479 101.97 29.1366 102.012 29.03C102.022 28.9961 102.043 28.9664 102.072 28.9452C102.101 28.924 102.135 28.9123 102.171 28.9118C102.233 28.9118 102.295 28.9092 102.356 28.9092H107.498C107.593 28.9092 107.689 28.915 107.797 28.9187C107.804 28.9662 107.804 29.0144 107.797 29.0618C107.567 29.7181 107.332 30.3722 107.103 31.029C106.895 31.627 106.695 32.2281 106.489 32.8271C106.237 33.5597 105.98 34.2907 105.729 35.0227C105.588 35.4309 105.456 35.8412 105.315 36.2483C105.177 36.6475 105.032 37.0435 104.891 37.4426C104.755 37.8328 104.625 38.2245 104.489 38.6157C104.345 39.0313 104.2 39.4464 104.057 39.8625C103.98 40.0878 103.91 40.3152 103.833 40.5405C103.733 40.832 103.631 41.1236 103.529 41.4135C103.42 41.7316 103.308 42.0449 103.198 42.3603C103.106 42.6257 103.014 42.8917 102.923 43.1581C102.855 43.3579 102.789 43.5588 102.721 43.7592C102.674 43.8965 102.638 43.9246 102.492 43.9326C102.439 43.9357 102.386 43.9326 102.333 43.9326H97.2444C97.1421 43.9336 97.0361 43.9474 96.9062 43.8954Z" fill="white"/>
<path d="M159.294 49.6602C159.172 50.0191 159.051 50.3769 158.929 50.7342C158.783 51.1583 158.638 51.5824 158.49 52.0064C158.345 52.422 158.195 52.835 158.051 53.2511C157.86 53.8082 157.674 54.3675 157.484 54.9251C157.362 55.2835 157.237 55.6408 157.116 55.9991C157.096 56.0763 157.048 56.1433 156.981 56.1868C156.374 56.2249 155.112 56.209 154.911 56.1565C154.909 56.1156 154.913 56.0746 154.922 56.0346C155.107 55.5305 155.296 55.0274 155.483 54.5238C155.556 54.3267 155.63 54.1289 155.695 53.9291C155.699 53.9087 155.699 53.8876 155.694 53.8673C155.689 53.8469 155.68 53.8279 155.668 53.8114C155.659 53.8013 155.648 53.7932 155.636 53.7876C155.624 53.7819 155.61 53.7789 155.597 53.7785C155.584 53.7783 155.57 53.7808 155.558 53.7859C155.546 53.7909 155.535 53.7986 155.525 53.8082C155.472 53.8548 155.423 53.9048 155.376 53.9577C154.798 54.6214 154.22 55.2854 153.642 55.9498C153.596 56.0028 153.549 56.0558 153.501 56.1088C153.474 56.1385 153.441 56.162 153.405 56.1777C153.368 56.1934 153.328 56.2008 153.289 56.1995C152.697 56.1995 152.105 56.1995 151.528 56.1995C151.489 56.173 151.457 56.1381 151.433 56.0975C151.409 56.0569 151.394 56.0116 151.39 55.9646C151.323 55.6275 151.248 55.2914 151.196 54.9522C151.151 54.6553 151.087 54.3638 151.028 54.0701C151.026 54.0349 151.017 54.0005 151.002 53.9688C150.978 53.9346 150.945 53.9079 150.907 53.892C150.886 53.8866 150.863 53.889 150.844 53.8988C150.825 53.9085 150.809 53.9249 150.801 53.945C150.77 53.9978 150.742 54.0531 150.72 54.1104C150.568 54.5694 150.419 55.0301 150.266 55.4886C150.203 55.6805 150.134 55.8703 150.071 56.0622C150.062 56.1011 150.039 56.1357 150.007 56.16C149.975 56.1843 149.936 56.197 149.896 56.1958C149.861 56.1958 149.826 56.1958 149.79 56.1958C149.163 56.1958 148.536 56.1958 147.909 56.1958C147.848 56.1958 147.788 56.1867 147.713 56.1804C147.705 56.1291 147.705 56.0769 147.713 56.0256C147.905 55.4679 148.105 54.9124 148.296 54.3553C148.522 53.6974 148.738 53.0364 148.965 52.3791C149.104 51.9714 149.26 51.5696 149.4 51.1599C149.541 50.7501 149.671 50.3414 149.807 49.9322C149.829 49.8654 149.869 49.8039 149.885 49.736C149.914 49.6067 150.004 49.5707 150.119 49.5664C150.163 49.5664 150.207 49.5664 150.251 49.5664C150.931 49.5664 151.612 49.5664 152.292 49.5664C152.589 49.5664 152.61 49.5993 152.666 49.8887C152.731 50.2349 152.815 50.5778 152.888 50.9219C153.001 51.4472 153.112 51.973 153.224 52.4984C153.25 52.6192 153.277 52.7396 153.307 52.8588C153.316 52.8932 153.332 52.925 153.355 52.9515C153.378 52.9781 153.408 52.9986 153.441 53.0113C153.474 53.0239 153.509 53.0284 153.545 53.0243C153.58 53.0202 153.613 53.0076 153.642 52.9876C153.711 52.9324 153.774 52.8704 153.831 52.8026C154.47 52.0994 155.108 51.3954 155.745 50.6907C156.035 50.3727 156.334 50.0589 156.616 49.7323C156.66 49.6776 156.716 49.6338 156.779 49.6047C156.843 49.5756 156.912 49.562 156.982 49.5648C157.671 49.5648 158.36 49.5648 159.05 49.5648C159.13 49.5696 159.214 49.5569 159.294 49.6602Z" fill="white"/>
<path d="M107.739 56.1714C107.686 56.0797 107.719 55.9949 107.748 55.9127C107.863 55.5893 107.979 55.2667 108.097 54.9447C108.133 54.8456 108.174 54.7486 108.222 54.6267C108.283 54.6092 108.345 54.5956 108.408 54.5859C108.478 54.5819 108.549 54.5819 108.62 54.5859H113.55C113.647 54.5874 113.744 54.5839 113.841 54.5753C113.916 54.5698 113.989 54.5437 114.051 54.4998C114.112 54.456 114.161 54.3961 114.191 54.3267C114.282 54.1263 114.363 53.9222 114.443 53.717C114.45 53.6961 114.453 53.6739 114.451 53.6518C114.449 53.6297 114.442 53.6083 114.432 53.5889C114.421 53.5695 114.406 53.5525 114.389 53.539C114.371 53.5256 114.351 53.516 114.33 53.5108C114.27 53.4962 114.208 53.4889 114.147 53.4891C114.005 53.4859 113.864 53.4891 113.723 53.4891H109.376C109.296 53.4891 109.217 53.4928 109.137 53.4859C109.08 53.4831 109.024 53.4672 108.974 53.4395C108.923 53.4118 108.88 53.373 108.847 53.326C108.814 53.2791 108.792 53.2252 108.783 53.1685C108.774 53.1118 108.778 53.0537 108.794 52.9988C108.847 52.8042 108.915 52.6129 108.98 52.4215C109.049 52.2216 109.124 52.0239 109.192 51.8246C109.342 51.4027 109.491 50.9802 109.64 50.5572C109.675 50.458 109.701 50.3552 109.739 50.2566C109.904 49.8325 110.22 49.6205 110.669 49.5934C110.731 49.5897 110.793 49.5934 110.855 49.5934H117.693C117.782 49.5929 117.87 49.5967 117.958 49.6051C117.996 49.6161 118.031 49.6327 118.064 49.6544C117.998 49.8717 117.937 50.0817 117.87 50.2905C117.791 50.5338 117.702 50.7734 117.626 51.0178C117.59 51.136 117.52 51.1964 117.4 51.2007C117.329 51.2033 117.259 51.2033 117.188 51.2039H112.577C112.444 51.2039 112.311 51.1917 112.18 51.1954C112.016 51.2002 111.861 51.2362 111.768 51.3899C111.74 51.4336 111.717 51.4804 111.699 51.5293C111.615 51.7801 111.533 52.0308 111.455 52.2837C111.439 52.3487 111.429 52.4148 111.424 52.4814C111.51 52.5667 111.583 52.5164 111.654 52.4872C111.768 52.44 111.877 52.3812 111.991 52.3383C112.251 52.2391 112.521 52.2238 112.799 52.2238C113.461 52.2238 114.124 52.2238 114.787 52.2238C115.343 52.2206 115.9 52.21 116.455 52.2047C116.552 52.2024 116.65 52.2081 116.746 52.2216C116.84 52.2324 116.925 52.2794 116.985 52.3526C117.044 52.4258 117.073 52.5195 117.064 52.6134C117.043 52.7613 117.008 52.9068 116.958 53.0475C116.812 53.4997 116.661 53.9487 116.51 54.4009C116.404 54.7189 116.296 55.0354 116.186 55.3503C116.143 55.4743 116.102 55.5999 116.048 55.7213C115.912 56.024 115.656 56.1597 115.341 56.2032C115.27 56.2083 115.199 56.2083 115.129 56.2032C112.77 56.2032 110.411 56.2032 108.052 56.2032C107.944 56.1968 107.836 56.2191 107.739 56.1714Z" fill="white"/>
<path d="M162.579 56.165C162.576 56.108 162.58 56.0509 162.592 55.9949C162.734 55.5777 162.881 55.1632 163.027 54.7476C163.039 54.7001 163.067 54.6583 163.107 54.6293C163.146 54.6003 163.195 54.5859 163.244 54.5885C163.323 54.5885 163.403 54.5885 163.482 54.5885H168.412C168.5 54.5885 168.589 54.5886 168.677 54.5827C168.757 54.5802 168.835 54.555 168.901 54.5101C168.968 54.4651 169.02 54.4023 169.052 54.3288C169.137 54.1449 169.22 53.9577 169.294 53.7717C169.354 53.6158 169.286 53.5162 169.115 53.4976C169.027 53.4905 168.938 53.4882 168.85 53.4907H164.238C164.159 53.4935 164.079 53.4922 164 53.487C163.942 53.4844 163.886 53.4686 163.835 53.441C163.784 53.4133 163.741 53.3746 163.707 53.3276C163.674 53.2805 163.652 53.2266 163.643 53.1697C163.633 53.1128 163.637 53.0546 163.653 52.9993C163.679 52.9056 163.709 52.8133 163.744 52.7226C163.892 52.2985 164.041 51.8754 164.19 51.453C164.292 51.162 164.387 50.8699 164.492 50.5789C164.552 50.4146 164.598 50.2439 164.687 50.0907C164.84 49.8331 165.055 49.6666 165.352 49.6216C165.457 49.6039 165.562 49.5948 165.668 49.594C167.983 49.594 170.298 49.594 172.612 49.594C172.707 49.594 172.806 49.5792 172.89 49.6263C172.943 49.7032 172.911 49.7721 172.89 49.8384C172.773 50.1893 172.654 50.5393 172.534 50.8885C172.502 50.9797 172.46 51.0671 172.428 51.1451C172.341 51.2124 172.25 51.2028 172.163 51.2028C171.898 51.2028 171.633 51.2028 171.368 51.2028H167.551C167.401 51.2028 167.251 51.1981 167.101 51.1949C166.783 51.188 166.643 51.2834 166.549 51.5787C166.464 51.8464 166.383 52.1151 166.302 52.3844C166.296 52.4155 166.292 52.4471 166.291 52.4788C166.373 52.562 166.45 52.5169 166.519 52.4878C166.633 52.4406 166.741 52.3818 166.856 52.3372C167.116 52.2408 167.388 52.2222 167.664 52.2227C168.291 52.2227 168.918 52.2227 169.545 52.2227C170.128 52.2196 170.712 52.209 171.295 52.2037C171.392 52.2037 171.489 52.2095 171.586 52.2153C171.637 52.2198 171.685 52.2345 171.73 52.2585C171.775 52.2824 171.815 52.3152 171.847 52.3547C171.879 52.3943 171.902 52.4399 171.916 52.4889C171.93 52.5377 171.934 52.5889 171.928 52.6394C171.923 52.7011 171.911 52.7621 171.893 52.8212C171.797 53.1144 171.696 53.4043 171.598 53.698C171.451 54.1406 171.306 54.5838 171.158 55.0264C171.086 55.2432 171.017 55.4616 170.933 55.6736C170.802 56.0012 170.538 56.1566 170.201 56.2037C170.139 56.2077 170.077 56.2077 170.016 56.2037C167.639 56.2037 165.262 56.2037 162.886 56.2037C162.787 56.1969 162.689 56.2165 162.579 56.165Z" fill="white"/>
<path d="M90.4675 49.6668C90.3429 50.1301 90.168 50.5722 90.0296 51.026C90.0015 51.0835 89.966 51.1369 89.9236 51.185C89.8345 51.1887 89.7476 51.1962 89.6585 51.1962H84.9163C84.8193 51.1962 84.7223 51.1871 84.6253 51.1866C84.3216 51.1866 84.1922 51.2773 84.0952 51.5624C84.0221 51.7793 83.9473 51.995 83.8832 52.2139C83.8561 52.3041 83.8211 52.3979 83.8476 52.4896C83.925 52.5574 83.9908 52.5097 84.0523 52.4853C84.1662 52.4392 84.2749 52.3793 84.3889 52.3337C84.6136 52.2537 84.8506 52.214 85.0891 52.2166H85.1421C86.3788 52.2095 87.6161 52.203 88.8528 52.197C88.9593 52.1939 89.0654 52.2003 89.1708 52.2161C89.2679 52.2328 89.3537 52.2872 89.4105 52.3674C89.4672 52.4476 89.49 52.547 89.4735 52.6438C89.4576 52.7397 89.4332 52.8339 89.4004 52.9253C89.1443 53.6674 88.8957 54.4096 88.6646 55.1565C88.6116 55.324 88.5491 55.4878 88.4828 55.6505C88.3428 55.9972 88.0725 56.1647 87.7089 56.1955C87.6474 56.2008 87.5853 56.1955 87.5233 56.1955C85.1655 56.1955 82.8076 56.1955 80.4498 56.1955C80.3437 56.1955 80.2377 56.2135 80.1216 56.1647C80.1195 56.116 80.1237 56.0672 80.1333 56.0195C80.2165 55.7693 80.3056 55.5207 80.3925 55.2715C80.436 55.1469 80.4779 55.0213 80.5245 54.8978C80.5611 54.8003 80.604 54.7048 80.639 54.6216C80.7604 54.5686 80.868 54.5845 80.9724 54.5845C82.6237 54.5845 84.2749 54.5845 85.9267 54.5845C86.0147 54.5845 86.1032 54.5845 86.1917 54.5819C86.2808 54.5823 86.3677 54.5564 86.4419 54.5074C86.5167 54.4585 86.5745 54.3886 86.6094 54.3067C86.6821 54.1477 86.7499 53.9834 86.8172 53.8206C86.83 53.7876 86.8379 53.753 86.8411 53.7178C86.8602 53.5842 86.8103 53.5111 86.6821 53.4952C86.5941 53.487 86.5055 53.4842 86.417 53.4867H81.8052C81.7257 53.4867 81.6462 53.4909 81.5672 53.4867C81.3053 53.465 81.1521 53.2709 81.1961 53.0096C81.2179 52.9061 81.2475 52.8044 81.2847 52.7053C81.5322 51.9986 81.7792 51.2926 82.0268 50.5876C82.0734 50.4556 82.1227 50.3226 82.1789 50.1959C82.3485 49.8121 82.6512 49.6181 83.0658 49.591C83.1273 49.5873 83.1893 49.591 83.2513 49.591C85.5561 49.591 87.861 49.591 90.1658 49.591C90.2581 49.591 90.3609 49.5603 90.4675 49.6668Z" fill="white"/>
<path d="M93.9102 56.1891C93.9128 56.1254 93.9213 56.0621 93.9356 55.9999C94.0999 55.5451 94.2383 55.0812 94.4297 54.6216C94.4964 54.6058 94.5648 54.5943 94.6332 54.5872C94.7657 54.5819 94.8983 54.5872 95.0308 54.5872H99.5609C99.6489 54.5872 99.738 54.5872 99.826 54.5808C99.9511 54.5756 100.071 54.5294 100.167 54.4494C100.367 54.2739 100.463 54.0354 100.525 53.7878C100.563 53.6383 100.472 53.5307 100.318 53.5058C100.213 53.4922 100.106 53.4869 100 53.4899C98.5702 53.4899 97.139 53.4899 95.7066 53.4899C95.6271 53.4899 95.5476 53.4899 95.4681 53.4899C95.3886 53.4914 95.3096 53.4734 95.2386 53.4375C95.1675 53.4016 95.1066 53.3488 95.0605 53.2838C95.0143 53.2189 94.9852 53.1437 94.9751 53.0648C94.9645 52.9858 94.9735 52.9056 95.0016 52.831C95.1018 52.559 95.1935 52.2839 95.2879 52.0099C95.4601 51.5111 95.6308 51.0117 95.8036 50.5129C95.8901 50.2632 95.9844 50.0167 96.0687 49.7655C96.0782 49.7178 96.1042 49.6749 96.1418 49.644C96.1795 49.6131 96.2267 49.5961 96.2754 49.5958C96.3284 49.5926 96.3815 49.5926 96.4345 49.5926C97.0351 49.5926 97.6357 49.5926 98.2368 49.5926C98.3311 49.5926 98.4313 49.5714 98.5225 49.6457C98.5559 49.7337 98.5045 49.8163 98.479 49.8948C98.3391 50.3189 98.1875 50.743 98.0454 51.167C97.9394 51.4851 97.8413 51.8031 97.7417 52.1212C97.6998 52.2553 97.6579 52.3862 97.624 52.5251C97.6224 52.5418 97.625 52.5586 97.6314 52.574C97.6378 52.5895 97.6478 52.6033 97.6606 52.6142C97.6759 52.6213 97.6924 52.6251 97.7093 52.6251C97.7258 52.6251 97.7422 52.6213 97.7576 52.6142C97.9436 52.5156 98.1233 52.4021 98.3121 52.311C98.4955 52.2267 98.6863 52.1605 98.8824 52.1132C99.1692 52.0353 99.4576 52.0343 99.7481 52.0337C100.022 52.0337 100.296 52.0337 100.569 52.0337C100.631 52.0337 100.693 52.0337 100.755 52.0295C100.808 52.0282 100.859 52.0097 100.901 51.9767C100.943 51.9438 100.973 51.8981 100.987 51.8466C101.074 51.5874 101.165 51.3298 101.255 51.0721C101.414 50.6242 101.573 50.1768 101.725 49.7278C101.735 49.694 101.755 49.6639 101.782 49.6414C101.81 49.619 101.843 49.6051 101.878 49.6017C101.921 49.5945 101.966 49.5913 102.01 49.5921C102.69 49.5921 103.37 49.5921 104.05 49.5921C104.118 49.5921 104.193 49.5826 104.257 49.6716C104.237 49.757 104.222 49.8609 104.189 49.9589C104.073 50.3099 103.954 50.6596 103.832 51.008C103.691 51.4151 103.544 51.8201 103.404 52.2272C103.303 52.5182 103.211 52.8103 103.112 53.104C102.964 53.5371 102.813 53.9686 102.665 54.4011C102.603 54.5845 102.545 54.7722 102.484 54.954C102.409 55.1788 102.34 55.4056 102.255 55.6267C102.121 55.9728 101.849 56.1451 101.493 56.1965C101.422 56.2026 101.351 56.2037 101.281 56.1997H94.2309C94.1354 56.1981 94.0395 56.1928 93.9102 56.1891Z" fill="white"/>
<path d="M142.455 52.0889C142.412 52.1499 142.376 52.2087 142.333 52.2617C141.992 52.6762 141.644 53.0839 141.312 53.5064C141.26 53.5811 141.19 53.6412 141.108 53.6807C141.025 53.7203 140.935 53.738 140.844 53.7322C139.969 53.7216 139.094 53.7274 138.22 53.7279C138.15 53.7279 138.079 53.7279 138.008 53.7279C137.955 53.7252 137.902 53.739 137.858 53.7675C137.813 53.796 137.778 53.8377 137.757 53.887C137.707 53.9997 137.665 54.1159 137.632 54.2347C137.622 54.269 137.62 54.3049 137.627 54.3399C137.632 54.375 137.646 54.4082 137.667 54.4371C137.687 54.4661 137.715 54.4901 137.746 54.5072C137.777 54.5244 137.812 54.5343 137.847 54.5363C137.927 54.5427 138.006 54.5443 138.086 54.5411C139.472 54.5411 140.859 54.5411 142.246 54.5411C142.352 54.5411 142.458 54.5231 142.572 54.5771C142.558 54.7701 142.463 54.9381 142.402 55.1163C142.341 55.2944 142.291 55.4698 142.225 55.6426C142.159 55.8154 142.131 56.0185 142.013 56.1621C142.002 56.1701 141.991 56.1772 141.98 56.1833C141.972 56.1869 141.963 56.1887 141.954 56.1886L134.826 56.1939C134.782 56.1939 134.738 56.1939 134.694 56.1886C134.686 56.1884 134.677 56.1862 134.669 56.1823C134.657 56.1747 134.645 56.1664 134.634 56.1574C134.623 56.1298 134.617 56.1005 134.617 56.071C134.625 56.0008 134.641 55.9315 134.662 55.8642C134.753 55.5891 134.848 55.3145 134.944 55.041C135.05 54.7335 135.164 54.4277 135.271 54.1207C135.426 53.6808 135.578 53.2404 135.73 52.7997C135.889 52.3327 136.044 51.8647 136.202 51.3976C136.36 50.9306 136.52 50.4642 136.677 49.9982C136.711 49.898 136.741 49.7968 136.783 49.7003C136.811 49.6493 136.845 49.6015 136.883 49.5577C137.181 49.5291 144.021 49.5349 144.245 49.5651C144.252 49.6126 144.256 49.6603 144.257 49.7082C144.256 49.7446 144.248 49.7804 144.235 49.8143C144.094 50.2118 143.949 50.6094 143.811 51.008C143.798 51.0597 143.767 51.105 143.724 51.136C143.681 51.167 143.628 51.1816 143.575 51.1771H143.363H139.175C139.078 51.1771 138.981 51.1771 138.884 51.1877C138.831 51.1927 138.78 51.2127 138.738 51.2456C138.695 51.2784 138.663 51.3227 138.645 51.3733C138.6 51.4782 138.562 51.5857 138.529 51.695C138.519 51.731 138.516 51.7689 138.521 51.8061C138.527 51.8432 138.54 51.8788 138.561 51.9103C138.581 51.9418 138.608 51.9685 138.64 51.9885C138.671 52.0085 138.707 52.0215 138.744 52.0263C138.823 52.0344 138.903 52.0368 138.983 52.0338C140.043 52.0338 141.103 52.0338 142.163 52.0338C142.255 52.0385 142.361 52.012 142.455 52.0889Z" fill="white"/>
<path d="M123.184 51.1562C123.37 50.6399 123.524 50.1182 123.735 49.6094C123.796 49.5932 123.857 49.5805 123.919 49.5712C123.989 49.5648 124.06 49.5712 124.131 49.5712H130.805C130.884 49.5712 130.964 49.5712 131.043 49.577C131.083 49.5857 131.122 49.599 131.159 49.6168C131.143 49.8225 130.819 50.783 130.629 51.1959C130.541 51.2489 130.441 51.2304 130.346 51.2304C129.701 51.2304 129.057 51.2304 128.412 51.2304C128.35 51.2304 128.288 51.2304 128.227 51.2304C127.986 51.2367 127.921 51.2781 127.837 51.5103C127.703 51.8813 127.575 52.2566 127.444 52.6298C127.292 53.0603 127.138 53.4902 126.987 53.9211C126.885 54.2116 126.791 54.5042 126.689 54.7953C126.541 55.2193 126.389 55.6397 126.237 56.0616C126.219 56.1035 126.2 56.1444 126.178 56.1841C126.113 56.1894 126.053 56.1989 125.992 56.1989C125.391 56.1989 124.79 56.1989 124.19 56.1989C124.102 56.2083 124.013 56.1878 123.938 56.1406C123.889 56.111 123.85 56.0669 123.826 56.0143C123.803 55.9617 123.796 55.9031 123.806 55.8464C123.823 55.7601 123.846 55.6752 123.876 55.5925C124.04 55.1154 124.203 54.6436 124.372 54.1713C124.514 53.7738 124.667 53.381 124.808 52.9834C124.949 52.5858 125.08 52.1851 125.217 51.7859C125.257 51.6698 125.307 51.5564 125.345 51.4392C125.383 51.3221 125.33 51.2511 125.209 51.2362C125.139 51.2298 125.068 51.2277 124.997 51.2299C124.485 51.2299 123.973 51.2299 123.46 51.2299C123.379 51.2277 123.287 51.2484 123.184 51.1562Z" fill="white"/>
<path d="M188.897 42.658C188.853 41.8628 189.549 41.1695 190.23 41.0348C190.323 41.0081 190.417 40.9867 190.513 40.9707C191.034 40.9315 191.508 41.0597 191.911 41.4048C192.328 41.7621 192.501 42.2249 192.474 42.7661C192.446 43.3375 192.204 43.7955 191.729 44.1231C190.846 44.7327 189.339 44.4412 188.954 43.1276C188.91 42.9787 188.915 42.8149 188.897 42.658ZM192.047 42.6691C192.005 41.8962 191.493 41.3396 190.722 41.3317C189.95 41.3237 189.351 41.8909 189.343 42.6458C189.335 43.4446 189.945 44.0516 190.728 44.0468C191.536 44.0415 192.009 43.4112 192.047 42.6691Z" fill="white"/>
<path d="M24.3187 34.7451C24.4088 34.7377 24.4687 34.7298 24.5307 34.7287C26.3129 34.6916 49.0464 34.7112 49.3518 34.7515C49.3649 34.8078 49.3737 34.865 49.3783 34.9227C49.382 35.0998 49.3783 35.2763 49.3783 35.4528C49.3783 37.5647 49.3783 39.6762 49.3783 41.7874C49.3811 42.1586 49.3445 42.5291 49.2691 42.8927C49.1173 43.6096 48.8231 44.2888 48.404 44.8901C47.1477 46.685 45.762 48.3858 44.2581 49.979C44.2157 50.0235 44.1701 50.0654 44.124 50.1062C44.0984 50.1262 44.071 50.1439 44.0424 50.1592C44.0237 50.1211 44.0098 50.0809 44.001 50.0394C43.9947 49.9514 43.9978 49.8629 43.9978 49.7743V37.1841C43.9978 37.0956 43.9978 37.007 43.992 36.919C43.9915 36.8921 43.9813 36.8663 43.9633 36.8462C43.9453 36.8262 43.9207 36.8132 43.8939 36.8099C43.833 36.7998 43.7713 36.795 43.7095 36.7955C42.4107 36.7955 41.112 36.7955 39.8133 36.7955C39.562 36.7955 39.5382 36.822 39.5323 37.0648C39.5323 37.1353 39.5323 37.2058 39.5323 37.2769V50.6352C39.4751 51.7829 39.5122 52.9316 39.5048 54.0808C39.5095 54.1458 39.4973 54.2108 39.4695 54.2697C39.4416 54.3286 39.399 54.3793 39.3457 54.4169C38.584 54.9846 37.8127 55.5412 37.016 56.0618C37.0017 56.0713 36.9884 56.0835 36.9736 56.093C36.9338 56.1216 36.8861 56.137 36.8371 56.137C36.7881 56.137 36.7403 56.1216 36.7006 56.093C36.5749 56.0119 36.4509 55.9277 36.3295 55.8439C35.6653 55.3954 35.0122 54.9316 34.3761 54.4434C34.3417 54.4169 34.3099 54.3851 34.2733 54.3612C34.2399 54.3394 34.2126 54.3096 34.1941 54.2743C34.1755 54.239 34.1663 54.1996 34.1673 54.1598C34.1646 54.0803 34.1673 54.0008 34.1673 53.9213V37.2233C34.1673 37.1438 34.1673 37.0643 34.1646 36.9848C34.1556 36.8401 34.1185 36.8061 33.9653 36.7966C33.9123 36.7934 33.8593 36.7966 33.8063 36.7966H30.0426C29.9366 36.7966 29.8306 36.7812 29.7394 36.8326C29.671 36.9074 29.6922 36.9917 29.6917 37.0675C29.6885 37.6506 29.6868 38.2337 29.6864 38.8168C29.6864 42.5002 29.6864 46.1842 29.6864 49.8687C29.6864 49.9625 29.6991 50.0585 29.6673 50.1512C29.5719 50.147 29.5316 50.0897 29.485 50.0394C29.151 49.6768 28.8128 49.3185 28.4825 48.9527C27.839 48.2408 27.2283 47.5013 26.6394 46.7443C26.1432 46.1082 25.6614 45.4573 25.2082 44.7856C24.939 44.3823 24.7256 43.9446 24.5736 43.4843C24.3984 42.9652 24.3089 42.4211 24.3086 41.8733C24.3086 39.5854 24.3086 37.2972 24.3086 35.0086C24.3086 34.9301 24.3139 34.8517 24.3187 34.7451Z" fill="white"/>
<path d="M49.1694 30.4182C49.1986 30.5141 49.1334 30.5454 49.092 30.5857C48.8146 30.8557 48.5363 31.1246 48.2571 31.3925C48.2004 31.4455 48.1474 31.5064 48.0859 31.5557C47.9905 31.6326 47.9799 31.7323 47.9979 31.8415C48.0509 32.1182 48.1039 32.3938 48.1538 32.6705C48.1888 32.8704 48.2153 33.0713 48.2423 33.2722C48.2381 33.3016 48.2289 33.3301 48.2153 33.3565C48.1719 33.355 48.129 33.347 48.088 33.3326C47.6841 33.1206 47.2791 32.9085 46.8815 32.6822C46.7405 32.6016 46.6298 32.6069 46.4898 32.6822C46.0811 32.9054 45.6645 33.1142 45.2499 33.3268C45.2198 33.338 45.1882 33.3452 45.1561 33.348C45.1031 33.2595 45.137 33.1842 45.1529 33.1079C45.1741 33.0045 45.1937 32.9011 45.2128 32.7972C45.2605 32.5375 45.3073 32.2776 45.3533 32.0175C45.4333 31.5637 45.4365 31.6676 45.1503 31.3787C44.8783 31.1036 44.6027 30.8327 44.3291 30.5597C44.2926 30.5237 44.2581 30.4855 44.2109 30.4357C44.2846 30.3705 44.37 30.3731 44.4378 30.3519C44.5142 30.3309 44.5922 30.3161 44.6711 30.3079C44.9775 30.2687 45.2844 30.2348 45.5902 30.1929C45.7026 30.177 45.8129 30.1452 45.929 30.1197C46.1007 29.7762 46.2703 29.4391 46.4384 29.1009C46.4972 28.9832 46.5497 28.8618 46.6117 28.7457C46.6449 28.6981 46.6829 28.6541 46.7252 28.6143C46.7535 28.6504 46.7795 28.6883 46.8031 28.7277C47.0151 29.1518 47.2235 29.5758 47.4249 30.0068C47.4429 30.0461 47.4695 30.0809 47.5028 30.1084C47.5362 30.136 47.5753 30.1556 47.6173 30.1658C47.6599 30.1782 47.7033 30.1874 47.7472 30.1934C48.0175 30.231 48.2889 30.2644 48.5593 30.3058C48.7613 30.3397 48.9574 30.3805 49.1694 30.4182Z" fill="white"/>
<path d="M36.8252 28.623C36.9016 28.672 36.9602 28.7443 36.9922 28.8293C37.1719 29.2003 37.3584 29.5714 37.5291 29.9456C37.5949 30.0898 37.6882 30.1704 37.8414 30.1916C38.0947 30.2271 38.3481 30.26 38.601 30.2976C38.8337 30.3337 39.0653 30.3755 39.2901 30.4132C39.3219 30.5144 39.2578 30.5574 39.2085 30.6051C38.9933 30.8129 38.7764 31.0196 38.5602 31.2263C38.4393 31.3426 38.3183 31.4585 38.1971 31.5741C38.1675 31.6005 38.1456 31.6343 38.1335 31.6721C38.1215 31.7098 38.1198 31.7501 38.1287 31.7888C38.1865 32.136 38.2373 32.4848 38.293 32.8325C38.3031 32.8929 38.329 32.9507 38.3428 33.0106C38.3755 33.1258 38.3811 33.247 38.3593 33.3647C38.3058 33.3532 38.2535 33.3368 38.2029 33.316C37.8069 33.1071 37.4077 32.9009 37.0187 32.6798C36.8766 32.5998 36.7653 32.6078 36.6259 32.6836C36.2251 32.902 35.8164 33.1076 35.4093 33.3149C35.3726 33.3282 35.3342 33.3366 35.2953 33.3398C35.2826 33.3085 35.2688 33.2916 35.2709 33.2773C35.2969 33.1029 35.3239 32.929 35.3526 32.7551C35.3552 32.7382 35.3664 32.7223 35.369 32.7048C35.422 32.4016 35.4713 32.0978 35.5243 31.7946C35.5343 31.7427 35.5302 31.6891 35.5125 31.6393C35.4948 31.5896 35.4641 31.5454 35.4236 31.5115C35.1056 31.2046 34.7954 30.8924 34.4838 30.5807C34.4419 30.5388 34.4079 30.4895 34.3555 30.4254C34.4785 30.3663 34.6109 30.3289 34.7467 30.3151C35.0531 30.2748 35.3595 30.2377 35.6659 30.2006C36.0486 30.1545 36.0507 30.1561 36.224 29.8158C36.3794 29.5104 36.5283 29.2019 36.6815 28.8955C36.7239 28.8112 36.7706 28.7275 36.8252 28.623Z" fill="white"/>
<path d="M28.4608 33.3555C28.4215 33.3483 28.3829 33.3371 28.3458 33.3221C27.9418 33.1101 27.5363 32.8981 27.1372 32.6722C27.0046 32.5986 26.8986 32.607 26.7661 32.677C26.342 32.906 25.9084 33.1228 25.4785 33.3439C25.4727 33.3465 25.4626 33.3402 25.434 33.3333C25.4247 33.2883 25.4211 33.2423 25.4234 33.1965C25.4546 32.9696 25.4875 32.7422 25.5294 32.5169C25.575 32.2657 25.6285 32.0165 25.681 31.7668C25.6896 31.7372 25.6899 31.7058 25.6819 31.6759C25.6738 31.6461 25.6578 31.619 25.6354 31.5977C25.5676 31.5294 25.5039 31.4562 25.4361 31.3883C25.1498 31.1016 24.862 30.8164 24.5757 30.5296C24.5471 30.501 24.5227 30.4676 24.4883 30.4236C24.6566 30.3549 24.8345 30.3126 25.0157 30.2979C25.3142 30.263 25.6121 30.2285 25.9089 30.184C26.1931 30.1416 26.2005 30.131 26.3266 29.8824C26.4963 29.5447 26.6611 29.2049 26.8292 28.8667C26.8679 28.7893 26.9124 28.7146 26.9643 28.6191C27.0131 28.6642 27.0619 28.6902 27.0815 28.7305C27.2787 29.1333 27.4706 29.5383 27.6646 29.9428C27.6916 29.9958 27.724 30.0488 27.7616 30.1182C27.8301 30.1472 27.9011 30.17 27.9736 30.1866C28.235 30.2285 28.4984 30.2598 28.7598 30.2995C28.9861 30.334 29.2109 30.3748 29.4356 30.4124C29.4696 30.4888 29.416 30.528 29.3726 30.5715C29.0953 30.8413 28.8303 31.126 28.535 31.3746C28.323 31.5543 28.2339 31.7403 28.2997 32.0149C28.3585 32.2635 28.3914 32.5185 28.429 32.7714C28.4555 32.9452 28.4719 33.1212 28.4905 33.2962C28.491 33.3105 28.4756 33.3269 28.4608 33.3555Z" fill="white"/>
<path d="M190.193 42.0066H190.548V43.3414H190.191L190.193 42.0066ZM190.356 42.559H190.74C190.768 42.5594 190.795 42.5558 190.822 42.5484C190.842 42.5433 190.86 42.5328 190.875 42.5181C190.886 42.5052 190.893 42.4883 190.893 42.471V42.322C190.893 42.3028 190.887 42.284 190.875 42.269C190.86 42.2531 190.842 42.2415 190.822 42.2356C190.795 42.2276 190.768 42.2239 190.74 42.2245H190.356V42.0061H190.718C190.818 42.0041 190.918 42.0159 191.014 42.0411C191.085 42.0592 191.149 42.0958 191.201 42.1471C191.244 42.191 191.266 42.2499 191.265 42.3109V42.4667C191.266 42.5291 191.244 42.5895 191.201 42.6353C191.149 42.6868 191.084 42.7234 191.013 42.7413C190.917 42.7679 190.818 42.7804 190.718 42.7784H190.356V42.559ZM190.654 42.7387L190.988 42.6963L191.328 43.344H190.938L190.654 42.7387Z" fill="white"/>
</g>
</g>
<defs>
<clipPath id="clip0_660_17">
<rect width="183.829" height="49.6697" fill="white" transform="translate(15.6719 17.0293)"/>
</clipPath>
<clipPath id="clip1_660_17">
<rect width="183.829" height="49.6697" fill="white" transform="translate(15.6719 17.0293)"/>
</clipPath>
</defs>
</svg>
