<svg width="201" height="52" viewBox="0 0 201 52" fill="none" xmlns="http://www.w3.org/2000/svg">
<g clip-path="url(#clip0_445_10181)">
<path d="M117.441 5.75566C117.634 5.75641 117.634 5.75641 117.83 5.7572C118.616 5.77032 119.133 5.77898 119.507 5.81044C120.577 5.90048 121.304 6.90882 121.336 7.98226C121.346 8.22305 121.339 8.49108 121.264 8.71989C121.042 9.38938 120.343 9.74783 119.64 9.80898C119.602 9.81234 119.562 9.81542 119.522 9.81831C119.288 9.84345 119.053 9.86867 118.819 9.89388C118.451 9.92859 118.083 9.96147 117.714 9.99297C116.815 10.0407 116.494 10.0578 116.049 10.2081C115.393 10.4294 114.807 10.8785 114.545 11.5192C114.499 11.6235 114.453 11.7278 114.405 11.8352C113.495 14.194 113.936 17.2149 113.955 19.6943C113.958 20.2729 113.959 20.8514 113.956 21.4301C113.956 21.8864 113.962 22.3426 113.968 22.7989C113.967 22.9572 113.965 23.1154 113.963 23.2785C114.011 25.4021 116.089 26.8421 118.209 26.9698C119.481 27.0464 120.797 26.9404 121.961 26.9303C122.322 26.9279 122.683 26.9256 123.044 26.9234C123.797 26.9183 124.551 26.9119 125.304 26.9048C126.266 26.8959 127.228 26.891 128.19 26.8872C128.934 26.8836 129.678 26.8774 130.423 26.8705C130.777 26.8676 131.132 26.8657 131.487 26.8646C131.983 26.8629 132.479 26.8575 132.975 26.8512C133.12 26.8515 133.264 26.8517 133.413 26.852C135.202 26.8199 136.696 25.5172 137.25 23.8157C138.107 21.1823 138.066 17.707 137.963 15.5297C137.944 15.2344 137.924 14.939 137.902 14.6438C137.894 14.5118 137.887 14.3798 137.879 14.2438C137.689 12.0557 135.786 10.304 133.606 10.0326C133.146 9.97531 132.667 9.94791 132.162 9.92712C131.875 9.90621 131.63 9.88689 131.409 9.82645C130.833 9.66942 130.449 9.1121 130.295 8.53531C130.273 8.45234 130.256 8.36851 130.243 8.28234C130.174 7.80625 130.266 7.29843 130.495 6.8755C130.818 6.27922 131.492 5.9872 132.167 5.91704C132.582 5.87384 133.002 5.87973 133.449 5.88392C133.613 5.88503 133.777 5.88614 133.945 5.88728C136.157 5.93116 138.351 6.47586 140.028 8.0006C142.736 10.9542 142.513 15.5526 142.368 19.2902C142.347 19.7466 142.324 20.2029 142.3 20.6591C142.282 21.0044 142.266 21.3497 142.251 21.695C142.109 24.5584 141.692 27.4706 139.496 29.5246C138.014 30.7365 136.321 31.1674 134.445 31.2476C134.311 31.2536 134.177 31.2596 134.039 31.2658C132.337 31.3354 130.635 31.3384 128.932 31.3412C128.757 31.3416 128.583 31.342 128.403 31.3424C127.484 31.3446 126.564 31.3459 125.645 31.3466C124.701 31.3474 123.758 31.3509 122.814 31.3551C122.081 31.3578 121.349 31.3586 120.616 31.3588C120.268 31.3593 119.921 31.3604 119.573 31.3623C116.717 31.3772 113.838 31.306 111.651 29.1999C110.563 27.9479 109.829 26.4389 109.682 24.7896C109.671 24.665 109.659 24.5405 109.647 24.4121C109.502 22.6539 109.517 20.8883 109.522 19.1254C109.524 18.6194 109.523 18.1135 109.522 17.6075C109.502 10.4614 109.502 10.4614 112.067 7.66614C113.516 6.25949 115.466 5.74293 117.441 5.75566Z" fill="white"/>
<path d="M126.252 0.568054H125.066C124.193 0.568054 123.485 1.2759 123.485 2.14908V15.1926C123.485 16.0657 124.193 16.7736 125.066 16.7736H126.252C127.125 16.7736 127.833 16.0657 127.833 15.1926V2.14908C127.833 1.2759 127.125 0.568054 126.252 0.568054Z" fill="white"/>
<path d="M68.8685 5.66162H40.9476C39.5985 5.66162 38.5049 6.75525 38.5049 8.10431C38.5049 9.45337 39.5985 10.547 40.9476 10.547H68.8685C70.2176 10.547 71.3112 9.45337 71.3112 8.10431C71.3112 6.75525 70.2176 5.66162 68.8685 5.66162Z" fill="white"/>
<path d="M68.8685 27.0055H40.9476C39.5985 27.0055 38.5049 28.0991 38.5049 29.4482C38.5049 30.7972 39.5985 31.8909 40.9476 31.8909H68.8685C70.2176 31.8909 71.3112 30.7972 71.3112 29.4482C71.3112 28.0991 70.2176 27.0055 68.8685 27.0055Z" fill="white"/>
<path d="M65.7776 15.543H40.8764C39.5667 15.543 38.5049 16.6048 38.5049 17.9146C38.5049 19.2243 39.5667 20.2861 40.8764 20.2861H65.7776C67.0874 20.2861 68.1492 19.2243 68.1492 17.9146C68.1492 16.6048 67.0874 15.543 65.7776 15.543Z" fill="white"/>
<path d="M38.5049 18.3099V29.3771C38.5049 30.6868 39.5667 31.7486 40.8764 31.7486C42.1862 31.7486 43.248 30.6868 43.248 29.3771V18.3099C43.248 17.0001 42.1862 15.9383 40.8764 15.9383C39.5667 15.9383 38.5049 17.0001 38.5049 18.3099Z" fill="white"/>
<path d="M85.3949 42.8158H77.0324C76.6283 42.8158 76.3008 43.1433 76.3008 43.5474C76.3008 43.9514 76.6283 44.279 77.0324 44.279H85.3949C85.799 44.279 86.1265 43.9514 86.1265 43.5474C86.1265 43.1433 85.799 42.8158 85.3949 42.8158Z" fill="white"/>
<path d="M85.3949 49.2086H77.0324C76.6283 49.2086 76.3008 49.5361 76.3008 49.9402C76.3008 50.3443 76.6283 50.6718 77.0324 50.6718H85.3949C85.799 50.6718 86.1265 50.3443 86.1265 49.9402C86.1265 49.5361 85.799 49.2086 85.3949 49.2086Z" fill="white"/>
<path d="M84.4692 45.7756H77.0111C76.6188 45.7756 76.3008 46.0936 76.3008 46.4859V46.4859C76.3008 46.8782 76.6188 47.1962 77.0111 47.1962H84.4692C84.8615 47.1962 85.1795 46.8782 85.1795 46.4859C85.1795 46.0936 84.8615 45.7756 84.4692 45.7756Z" fill="white"/>
<path d="M76.3008 46.6044V49.9191C76.3008 50.3114 76.6188 50.6294 77.0111 50.6294C77.4034 50.6294 77.7214 50.3114 77.7214 49.9191V46.6044C77.7214 46.2121 77.4034 45.8941 77.0111 45.8941C76.6188 45.8941 76.3008 46.2121 76.3008 46.6044Z" fill="white"/>
<path d="M146.015 7.99315V28.5859C146.015 29.8734 147.058 30.9171 148.346 30.9171C149.633 30.9171 150.677 29.8734 150.677 28.5859V7.99315C150.677 6.70563 149.633 5.66189 148.346 5.66189C147.058 5.66189 146.015 6.70563 146.015 7.99315Z" fill="white"/>
<path d="M175.932 26.2544H148.346C147.058 26.2544 146.015 27.2981 146.015 28.5856C146.015 29.8731 147.058 30.9169 148.346 30.9169H175.932C177.22 30.9169 178.264 29.8731 178.264 28.5856C178.264 27.2981 177.22 26.2544 175.932 26.2544Z" fill="white"/>
<path d="M197.672 5.26636H170.085C168.798 5.26636 167.754 6.31009 167.754 7.5976C167.754 8.88511 168.798 9.92885 170.085 9.92885H197.672C198.959 9.92885 200.003 8.88511 200.003 7.5976C200.003 6.31009 198.959 5.26636 197.672 5.26636Z" fill="white"/>
<path d="M181.588 9.61419V28.5865C181.588 29.8963 182.65 30.9581 183.959 30.9581C185.269 30.9581 186.331 29.8963 186.331 28.5865V9.61419C186.331 8.30443 185.269 7.24265 183.959 7.24265C182.65 7.24265 181.588 8.30443 181.588 9.61419Z" fill="white"/>
<path d="M152.631 42.8158H143.979C143.575 42.8158 143.248 43.1431 143.248 43.5469C143.248 43.9508 143.575 44.2781 143.979 44.2781H152.631C153.035 44.2781 153.363 43.9508 153.363 43.5469C153.363 43.1431 153.035 42.8158 152.631 42.8158Z" fill="white"/>
<path d="M147.587 44.1798V50.1303C147.587 50.5411 147.92 50.8741 148.331 50.8741C148.742 50.8741 149.075 50.5411 149.075 50.1303V44.1798C149.075 43.769 148.742 43.436 148.331 43.436C147.92 43.436 147.587 43.769 147.587 44.1798Z" fill="white"/>
<path d="M75.5185 9.50642L88.9155 30.1385C89.4929 31.0277 90.6599 31.2484 91.5221 30.6313C92.3842 30.0142 92.6151 28.7931 92.0377 27.9038L78.6408 7.27176C78.0634 6.38252 76.8964 6.1619 76.0342 6.77898C75.172 7.39606 74.9411 8.61718 75.5185 9.50642Z" fill="white"/>
<path d="M102.025 7.28648L89.1394 27.8049C88.5759 28.7022 88.8254 29.9184 89.6965 30.5214L89.6965 30.5214C90.5677 31.1244 91.7307 30.8859 92.2941 29.9887L105.18 9.47024C105.743 8.57299 105.494 7.35677 104.623 6.75375C103.751 6.15072 102.588 6.38923 102.025 7.28648Z" fill="white"/>
<path d="M126.4 50.7672C125.012 50.7672 123.979 50.5039 123.303 49.9771C122.634 49.4502 122.299 48.6435 122.299 47.5569V45.6474C122.299 44.5442 122.634 43.732 123.303 43.2107C123.979 42.6842 125.012 42.4205 126.4 42.4205H128.116C129.511 42.4205 130.543 42.6842 131.213 43.2107C131.882 43.7375 132.217 44.5498 132.217 45.6474V47.5407C132.217 48.6324 131.882 49.4446 131.213 49.9771C130.543 50.5039 129.511 50.7672 128.116 50.7672H126.4ZM124.057 47.5569C124.057 48.2648 124.22 48.7478 124.548 49.0055C124.876 49.2581 125.493 49.3842 126.4 49.3842H128.116C129.03 49.3842 129.647 49.2553 129.968 48.9976C130.296 48.7395 130.459 48.2537 130.459 47.5407V45.6474C130.459 44.9284 130.296 44.4427 129.968 44.1905C129.647 43.9324 129.03 43.8035 128.116 43.8035H126.4C125.793 43.8035 125.319 43.8585 124.977 43.968C124.642 44.0723 124.405 44.2589 124.266 44.5276C124.126 44.7913 124.057 45.1644 124.057 45.6474V47.5569Z" fill="white"/>
<path d="M57.4827 50.8861C56.0091 50.8861 54.9135 50.6067 54.1949 50.0474C53.4842 49.4881 53.1289 48.6316 53.1289 47.4782V45.451C53.1289 44.2798 53.4842 43.4178 54.1949 42.8644C54.9135 42.3051 56.0091 42.0253 57.4827 42.0253H59.3044C60.7854 42.0253 61.8811 42.3051 62.5921 42.8644C63.3028 43.4237 63.6586 44.2857 63.6586 45.451V47.4608C63.6586 48.6201 63.3028 49.4822 62.5921 50.0474C61.8811 50.6067 60.7854 50.8861 59.3044 50.8861H57.4827ZM54.9949 47.4782C54.9949 48.2296 55.1688 48.7423 55.5167 49.0162C55.8649 49.2842 56.5202 49.4182 57.4827 49.4182H59.3044C60.2744 49.4182 60.9297 49.2814 61.2704 49.0075C61.6182 48.7336 61.7925 48.2182 61.7925 47.4608V45.451C61.7925 44.6877 61.6182 44.1723 61.2704 43.9043C60.9297 43.6304 60.2744 43.4933 59.3044 43.4933H57.4827C56.8384 43.4933 56.3352 43.5517 55.9724 43.6684C55.6167 43.779 55.3649 43.977 55.217 44.2624C55.0688 44.5423 54.9949 44.9383 54.9949 45.451V47.4782Z" fill="white"/>
<mask id="mask0_445_10181" style="mask-type:luminance" maskUnits="userSpaceOnUse" x="63" y="42" width="13" height="9">
<path d="M75.4688 42.4212H63.8008V50.5888H75.4688V42.4212Z" fill="white"/>
</mask>
<g mask="url(#mask0_445_10181)">
<path d="M67.2228 50.5888C66.8805 50.5888 66.6524 50.4126 66.5382 50.06L64.3758 43.5572C64.241 43.1628 64.3809 42.8932 64.7959 42.7481C65.2054 42.6082 65.4805 42.7481 65.6204 43.1683L67.3781 48.4031H67.2773L68.9339 43.1683C69.0481 42.826 69.2971 42.6548 69.6809 42.6548C70.0437 42.6548 70.277 42.8363 70.3809 43.1991L71.9287 48.3485H71.8667L73.6635 43.1525C73.8137 42.7323 74.0939 42.5975 74.5034 42.7481C74.9133 42.8932 75.043 43.1734 74.8924 43.588L72.5279 50.06C72.3983 50.4126 72.1544 50.5888 71.7967 50.5888C71.4283 50.5888 71.19 50.4074 71.0809 50.0446L69.4785 44.6928H69.6497L67.9074 50.06C67.8556 50.2311 67.7698 50.3635 67.6505 50.4568C67.5311 50.545 67.3888 50.5888 67.2228 50.5888Z" fill="white"/>
</g>
<mask id="mask1_445_10181" style="mask-type:luminance" maskUnits="userSpaceOnUse" x="97" y="41" width="15" height="10">
<path d="M111.044 41.2347H97.3535V50.9504H111.044V41.2347Z" fill="white"/>
</mask>
<g mask="url(#mask1_445_10181)">
<path d="M102.09 50.9506C100.931 50.9506 100.014 50.7901 99.3384 50.4696C98.6629 50.1423 98.2297 49.6549 98.0381 49.0075C97.974 48.7482 98.0471 48.5447 98.257 48.3968C98.476 48.2486 98.7772 48.1747 99.1606 48.1747C99.5349 48.1747 99.8041 48.2395 99.9681 48.3688C100.142 48.4925 100.283 48.6806 100.393 48.9332C100.502 49.1186 100.685 49.2419 100.94 49.3036C101.205 49.3652 101.588 49.3961 102.09 49.3961H106.581C107.293 49.3961 107.772 49.319 108.018 49.1648C108.265 49.0044 108.388 48.6743 108.388 48.1747C108.388 47.681 108.265 47.3542 108.018 47.1937C107.772 47.0336 107.293 46.9534 106.581 46.9534H102.172C100.858 46.9534 99.8677 46.7281 99.2017 46.2779C98.5353 45.8273 98.2021 45.1581 98.2021 44.27C98.2021 43.3632 98.5262 42.6878 99.1744 42.2435C99.8313 41.7933 100.831 41.568 102.172 41.568H106.444C108.589 41.568 109.857 42.1787 110.25 43.4C110.323 43.6593 110.25 43.8597 110.031 44.0016C109.812 44.1435 109.51 44.2142 109.127 44.2142C108.771 44.2142 108.506 44.1526 108.333 44.0293C108.16 43.8996 108.023 43.721 107.922 43.4925C107.813 43.3447 107.644 43.2459 107.416 43.1964C107.197 43.147 106.873 43.1225 106.444 43.1225H102.172C101.479 43.1225 101.027 43.1933 100.817 43.3352C100.607 43.4771 100.502 43.7885 100.502 44.27C100.502 44.7138 100.612 45.0131 100.831 45.1676C101.059 45.3217 101.506 45.3988 102.172 45.3988H106.581C107.95 45.3988 108.976 45.63 109.661 46.0929C110.346 46.5553 110.688 47.2494 110.688 48.1747C110.688 49.1059 110.346 49.8032 109.661 50.266C108.976 50.7221 107.95 50.9506 106.581 50.9506H102.09Z" fill="white"/>
</g>
<mask id="mask2_445_10181" style="mask-type:luminance" maskUnits="userSpaceOnUse" x="152" y="42" width="12" height="9">
<path d="M163.505 42.8158H152.968V50.2935H163.505V42.8158Z" fill="white"/>
</mask>
<g mask="url(#mask2_445_10181)">
<path d="M156.614 50.2939C155.722 50.2939 155.016 50.1706 154.496 49.9235C153.976 49.6717 153.642 49.2967 153.495 48.7982C153.446 48.599 153.502 48.4421 153.663 48.3283C153.832 48.2144 154.064 48.1575 154.359 48.1575C154.647 48.1575 154.854 48.2073 154.98 48.3069C155.114 48.4018 155.223 48.5468 155.307 48.7413C155.392 48.8836 155.532 48.9789 155.729 49.0263C155.932 49.0737 156.227 49.0974 156.614 49.0974H160.07C160.618 49.0974 160.986 49.0382 161.176 48.9196C161.366 48.7959 161.461 48.5421 161.461 48.1575C161.461 47.7777 161.366 47.5259 161.176 47.4026C160.986 47.2789 160.618 47.2172 160.07 47.2172H156.677C155.665 47.2172 154.903 47.0441 154.39 46.6974C153.878 46.3508 153.621 45.8358 153.621 45.152C153.621 44.454 153.871 43.9342 154.369 43.5923C154.875 43.2457 155.644 43.0725 156.677 43.0725H159.965C161.615 43.0725 162.592 43.5425 162.894 44.4824C162.95 44.682 162.894 44.8362 162.725 44.9457C162.556 45.0548 162.325 45.1093 162.03 45.1093C161.756 45.1093 161.552 45.0619 161.418 44.967C161.285 44.867 161.18 44.7295 161.103 44.554C161.018 44.4397 160.888 44.3638 160.712 44.3259C160.544 44.288 160.295 44.269 159.965 44.269H156.677C156.143 44.269 155.795 44.3235 155.634 44.4326C155.472 44.5421 155.391 44.7816 155.391 45.152C155.391 45.4939 155.476 45.7243 155.644 45.8429C155.82 45.9615 156.164 46.0208 156.677 46.0208H160.07C161.124 46.0208 161.914 46.199 162.441 46.5551C162.967 46.9109 163.231 47.4453 163.231 48.1575C163.231 48.8741 162.967 49.4109 162.441 49.767C161.914 50.1184 161.124 50.2939 160.07 50.2939H156.614Z" fill="white"/>
</g>
<path d="M112.693 50.7616H111.81C111.567 50.7616 111.369 50.564 111.369 50.3201V46.8146C111.369 46.5707 111.567 46.3731 111.81 46.3731H115.58H119.315C119.558 46.3731 119.756 46.1754 119.756 45.9316V45.2438L119.739 44.4336C119.734 44.1936 119.538 44.0015 119.298 44.0015H115.58H111.81C111.567 44.0015 111.369 43.8039 111.369 43.56V43.2573C111.369 43.0134 111.567 42.8158 111.81 42.8158H119.694C120.541 42.8158 121.358 43.2889 121.586 44.1055C121.806 44.8944 121.796 45.5739 121.583 46.3434C121.353 47.1778 120.524 47.6715 119.659 47.6715H113.576C113.332 47.6715 113.135 47.8691 113.135 48.113V50.3201C113.135 50.564 112.937 50.7616 112.693 50.7616Z" fill="white"/>
<path d="M40.3458 50.3026H39.1185C38.7796 50.3026 38.5049 50.0279 38.5049 49.6892V44.6153C38.5049 44.2762 38.7796 44.0015 39.1185 44.0015H44.2363H49.5493C49.888 44.0015 50.1627 43.7268 50.1627 43.388V42.6331V41.8485C50.1627 41.5094 49.888 41.2347 49.5493 41.2347H44.4339H39.1185C38.7796 41.2347 38.5049 40.96 38.5049 40.6212V39.872C38.5049 39.5332 38.7796 39.2585 39.1185 39.2585H50.0758C51.2541 39.2585 52.3896 39.916 52.7062 41.0513C53.0118 42.1477 52.9979 43.092 52.7031 44.1619C52.3829 45.3216 51.2311 46.0078 50.028 46.0078H41.5726C41.2339 46.0078 40.9592 46.2825 40.9592 46.6212V49.6892C40.9592 50.0279 40.6845 50.3026 40.3458 50.3026Z" fill="white"/>
<path d="M4.33259 22.9338V29.4107C4.33259 30.6031 3.366 31.5697 2.17362 31.5697C0.981257 31.5697 0.0146484 30.6031 0.0146484 29.4107V20.0552C0.0146484 18.7303 1.08866 17.6563 2.41351 17.6563H25.1297C26.2613 17.6563 27.3905 17.2879 28.1634 16.4614C29.7887 14.7231 29.873 13.3197 28.1972 11.3371C27.4134 10.4098 26.2068 9.9799 24.9926 9.9799H2.15564C0.973202 9.9799 0.0146484 9.02136 0.0146484 7.83891C0.0146484 6.64255 0.995087 5.67828 2.19131 5.69824L27.2015 6.11508C28.232 6.13223 29.1386 6.19393 29.915 6.87172C31.3477 8.12219 32.6201 9.89065 33.0497 11.7431C33.5254 13.7943 33.7629 16.5969 32.4133 18.7282C32.2786 18.9408 32.3076 19.2237 32.4939 19.3928C34.4509 21.1682 35.0349 22.4116 35.0381 24.8529V29.4107C35.0381 30.6031 34.0714 31.5697 32.8791 31.5697C31.6867 31.5697 30.7201 30.6031 30.7201 29.4107V24.8529C30.6138 23.6962 30.271 23.1669 29.1501 22.5164C29.0788 22.475 28.9976 22.454 28.9152 22.454H4.8124C4.54742 22.454 4.33259 22.6688 4.33259 22.9338Z" fill="white"/>
<path d="M134.495 47.977V49.896C134.495 50.2489 134.209 50.5355 133.855 50.5355C133.502 50.5355 133.216 50.2489 133.216 49.896V47.1244C133.216 46.7319 133.534 46.4137 133.926 46.4137H140.656C140.991 46.4137 141.326 46.3047 141.555 46.0596C142.036 45.5446 142.061 45.1288 141.565 44.5418C141.332 44.2671 140.975 44.1394 140.615 44.1394H133.85C133.5 44.1394 133.216 43.8556 133.216 43.5055C133.216 43.1509 133.506 42.8651 133.86 42.8711L141.27 42.9948C141.575 42.9995 141.843 43.0181 142.074 43.2189C142.498 43.5892 142.875 44.113 143.002 44.662C143.143 45.2695 143.213 46.0999 142.814 46.7311C142.774 46.794 142.782 46.8782 142.838 46.928C143.417 47.4541 143.591 47.8224 143.591 48.5458V49.896C143.591 50.2489 143.305 50.5355 142.952 50.5355C142.598 50.5355 142.312 50.2489 142.312 49.896V48.5458C142.281 48.2031 142.179 48.0462 141.847 47.8533C141.826 47.841 141.802 47.8351 141.777 47.8351H134.637C134.559 47.8351 134.495 47.8987 134.495 47.977Z" fill="white"/>
<path d="M88.0492 48.2406V50.258C88.0492 50.6295 87.748 50.9307 87.3768 50.9307C87.0053 50.9307 86.7041 50.6295 86.7041 50.258V47.3438C86.7041 46.9311 87.0389 46.5967 87.4515 46.5967H94.5274C94.88 46.5967 95.2318 46.4817 95.4725 46.2244C95.9788 45.6829 96.0049 45.2457 95.4832 44.6284C95.2389 44.3394 94.863 44.2054 94.4847 44.2054H87.3709C87.0029 44.2054 86.7041 43.907 86.7041 43.5386C86.7041 43.1659 87.0096 42.8655 87.3824 42.8718L95.1729 43.0015C95.4938 43.007 95.7764 43.026 96.0183 43.2371C96.4646 43.6268 96.8606 44.1778 96.9946 44.7548C97.1428 45.3936 97.2167 46.2667 96.7962 46.9303C96.7543 46.9967 96.7634 47.0849 96.8215 47.1374C97.431 47.6904 97.6128 48.0778 97.614 48.8382V50.258C97.614 50.6295 97.3128 50.9307 96.9413 50.9307C96.5701 50.9307 96.2689 50.6295 96.2689 50.258V48.8382C96.2357 48.4782 96.129 48.3133 95.78 48.1106C95.7575 48.0975 95.7322 48.0912 95.7069 48.0912H88.1986C88.116 48.0912 88.0492 48.158 88.0492 48.2406Z" fill="white"/>
</g>
<defs>
<clipPath id="clip0_445_10181">
<rect width="200" height="50.5929" fill="white" transform="translate(0.0146484 0.567627)"/>
</clipPath>
</defs>
</svg>
